<?xml version="1.0" encoding="utf-8"?>
<!-- Generator: Adobe Illustrator 19.0.0, SVG Export Plug-In . SVG Version: 6.00 Build 0)  -->
<svg version="1.1" id="Layer_1" xmlns="http://www.w3.org/2000/svg" xmlns:xlink="http://www.w3.org/1999/xlink" x="0px" y="0px"
	 viewBox="0 0 1200 1200" style="enable-background:new 0 0 1200 1200;" xml:space="preserve">
<style type="text/css">
	.st0{fill:#4CBEC0;}
</style>
<g id="XMLID_11009_">
	<path id="XMLID_11010_" class="st0" d="M596.3,700.4c0,125.6-0.8,251.2,0.4,376.8c0.4,45.7-34.5,70.4-71.9,70.3
		c-118.9-0.1-237.9,0-356.8-0.1c-34.2,0-61.4-18.4-69.1-47c-1.9-7.2-2.3-14.9-2.3-22.4c-0.1-252,0.3-504-0.5-756.1
		c-0.1-45.8,34.3-70.4,71.9-70.3c52.5,0.1,105,0,157.5,0c66.5,0,132.9,0,199.4,0c19.8,0,37.6,5.6,52.3,19.3
		c14.2,13.2,19.3,29.6,19.3,48.5C596.2,446.5,596.3,573.4,596.3,700.4z M572.7,1051.9c0-241.6,0-482.2,0-722.8
		c-151.2,0-301.9,0-452.6,0c0,241.3,0,481.9,0,722.8C271.2,1051.9,421.7,1051.9,572.7,1051.9z M346.8,1083.9
		c-17.6,0-35.3-0.1-52.9,0c-12.1,0.1-15.8,3.7-15.9,15.5c-0.1,14,3.3,18.1,15.9,18.1c35,0.1,70,0.1,105,0c12.6,0,16.1-4.2,15.9-18.2
		c-0.1-11.7-3.9-15.4-16-15.4C381.5,1083.8,364.2,1083.9,346.8,1083.9z M346.1,290.1c13.4,0,26.8,0.2,40.1-0.2
		c2.4-0.1,4.8-2.5,7.1-3.9c-2.5-1.3-4.9-3.8-7.4-3.8c-26.5-0.3-52.9-0.3-79.4,0c-2.4,0-4.7,2.6-7.1,4c2.4,1.3,4.9,3.6,7.3,3.6
		C319.9,290.3,333,290.1,346.1,290.1z M493.3,275.7c-6.9-0.5-12.8,4.4-13.4,11.2c-0.6,6.9,4.2,12.7,11.1,13.3
		c7.3,0.7,13.5-4.4,13.8-11.5C505.2,281.7,500.3,276.2,493.3,275.7z"/>
</g>
<g id="XMLID_10921_">
	<path id="XMLID_11003_" class="st0" d="M616.4,636.1c10.8-15,21.4-31.1,33.5-46c8.8-10.9,20.4-19.6,29-30.7
		c30.7-39.3,52.5-83.9,73.2-128.9c11.6-25.4,22-51.3,32.5-77.2c2-4.9,2.5-10.6,2.8-16c0.7-12.7-0.6-25.6,1.4-38.1
		c6.6-40.3,28.1-54,67.9-44.6c46.3,11,75.6,46.5,78.8,93.9c2.5,36.1-5.9,70.2-15.9,104.3c-7.8,26.7-13.5,54.1-20,81.2
		c-0.7,2.9-0.7,6.1-0.8,9.1c-0.1,1.9,0.3,3.8,0.4,6.1c18.5-3.5,36.5-7.4,54.7-10.2c47.1-7.1,94.3-10.9,140.8,2.7
		c14.3,4.2,28.7,11,40.5,20c30.7,23.2,40,58.6,27.6,96.8c-1.7,5.1-1.7,8.9,1.6,13.7c23.8,35.3,23.3,74-1.1,109.4
		c-3.1,4.5-3.8,8.2-2.2,13.6c11.8,39.9,2.3,74.9-26.2,104.8c-4.8,5-6.5,9.3-6,16.5c2,34.4-11.1,62.7-38,84.2
		c-24.4,19.6-53.3,28.8-83.6,34.2c-35.9,6.4-72.2,5.8-108.5,4.1c-33.2-1.5-66.5-1.1-99.7-2.3c-56.5-2-112.7-6.7-168.6-15.6
		c-3.1-0.5-7.1,0.5-9.9,2.1c-11.5,6.8-23.6,10.6-37,10.5c-32.4-0.2-64.9,0-97.3-0.1c-42-0.1-70.4-28.3-70.5-70.3
		c-0.1-87.6,0-175.2,0-262.7c0-1.4,0-2.8,0.1-4.2c1.6-38.3,30.3-66.3,68.7-66.6c32.7-0.2,65.4-0.6,98.1,0.2
		C594.3,630.3,605.8,634.1,616.4,636.1z M651.8,981.7c52.3,7.7,105.2,11.5,158.3,13.4c25.2,0.9,50.5-0.5,75.6,1
		c34.4,1.9,68.6,3.8,102.9-0.8c25.7-3.5,50.6-9.4,72.3-24.6c22.4-15.7,30.8-38,24-64.6c-2.6-10.4,0.1-18.5,8.4-24.9
		c1.8-1.4,3.5-2.8,5.1-4.2c26.1-22.4,32.2-51.2,17.2-82.1c-4.3-9-3.5-17.1,3-24.6c2.9-3.4,5.9-6.6,8.5-10.2
		c17.7-24,17.5-49.1-2.8-71c-11-12-11.9-22.3-4.6-36.4c14.6-28.4,4.3-55.5-25.6-66.7c-14-5.2-29.3-8.2-44.3-9.6
		c-49.4-4.6-97.7,3.9-145.5,15.1c-20.4,4.8-38.6-3.5-43.6-23.7c-3.3-13.4-4.8-28.3-2.4-41.7c5.4-29.3,13-58.2,21.2-86.8
		c8-28.1,15.5-55.9,14-85.5c-1.7-33.6-20.4-54.4-53.5-59.7c-6.9-1.1-9.5,1.6-9.8,7.4c-0.5,12.1-0.4,24.3-0.7,36.4
		c-0.2,6,0.6,12.5-1.4,17.9c-22.8,60.9-48.8,120.5-81.5,176.8c-16.8,29.1-34.8,57.5-60.1,80.1c-17.9,16.1-29.3,35.8-36.4,58.3
		c-1,3-1,6.5-0.8,9.7c0.5,7.7,2.2,15.4,2.2,23.1C651.9,796.1,651.8,888.3,651.8,981.7z M527.9,974c19.4,0,34.9-15.5,34.8-34.7
		c0-19.2-15.6-34.6-35-34.5c-19.4,0.1-34.9,15.5-34.9,34.7C492.9,958.7,508.5,974.1,527.9,974z"/>
</g>
</svg>
