<?xml version="1.0" encoding="utf-8"?>
<!-- Generator: Adobe Illustrator 19.0.0, SVG Export Plug-In . SVG Version: 6.00 Build 0)  -->
<svg version="1.1" id="Layer_1" xmlns="http://www.w3.org/2000/svg" xmlns:xlink="http://www.w3.org/1999/xlink" x="0px" y="0px"
	 viewBox="0 0 1200 1200" style="enable-background:new 0 0 1200 1200;" xml:space="preserve">
<g id="XMLID_15875_">
	<path id="XMLID_15870_" d="M42.5,29.5c378.3,0,755.2,0,1133.4,0c0,378,0,755.3,0,1134c-377.4,0-754.7,0-1133.4,0
		C42.5,786.1,42.5,408.8,42.5,29.5z M69.2,56.3c0,361.3,0,721.1,0,1080.3c361.1,0,720.9,0,1080.3,0c0-360.8,0-720.1,0-1080.3
		C789.2,56.3,429.8,56.3,69.2,56.3z"/>
	<path id="XMLID_15869_" d="M1081.2,1069.3c-80.9,0-160.7,0-241.5,0c0-238.6,0-476.2,0-715.1c80.4,0,160.2,0,241.5,0
		C1081.2,591.8,1081.2,829.8,1081.2,1069.3z"/>
	<path id="XMLID_15867_" d="M1081.9,124.6c0,53.7,0,106.1,0,159.5c-315,0-629.1,0-944.7,0c0-52.5,0-105.3,0-159.5
		C451.3,124.6,765.8,124.6,1081.9,124.6z"/>
	<path id="XMLID_15863_" d="M474.7,608.9c0-86.1,0-169.9,0-254.8c89.4,0,178.1,0,268.2,0c0,84.5,0,169.2,0,254.8
		C653.6,608.9,564.9,608.9,474.7,608.9z M501.3,581.9c72.9,0,144.2,0,215.8,0c0-67.4,0-133,0-199.9c-72.2,0-143.7,0-215.8,0
		C501.3,449,501.3,514.5,501.3,581.9z"/>
	<path id="XMLID_15861_" d="M743.9,922.6c0,8.8,0,16.2,0,25c-202.3,0-404,0-607,0c0-8,0-15.8,0-25
		C338.5,922.6,540.3,922.6,743.9,922.6z"/>
	<path id="XMLID_15860_" d="M743.6,1045.1c0,8.7,0,16,0,24.2c-202.7,0-404.5,0-607.2,0c0-8.3,0-15.6,0-24.2
		C338.5,1045.1,540.3,1045.1,743.6,1045.1z"/>
	<path id="XMLID_15858_" d="M136.5,730.8c0-8.7,0-16,0-24.3c202.2,0,403.6,0,606.4,0c0,7.6,0,15.3,0,24.3
		C541.6,730.8,339.8,730.8,136.5,730.8z"/>
	<path id="XMLID_15857_" d="M743.6,815.2c0,8.9,0,16.2,0,24.5c-202.2,0-403.6,0-606.4,0c0-7.6,0-15.3,0-24.5
		C338.5,815.2,540.4,815.2,743.6,815.2z"/>
	<path id="XMLID_15855_" d="M136.3,608.9c0-8.7,0-16.1,0-24.8c80.9,0,161.2,0,242.4,0c0,8.4,0,15.7,0,24.8
		C298.3,608.9,218.2,608.9,136.3,608.9z"/>
	<path id="XMLID_15854_" d="M378.6,462.8c0,8.8,0,16.1,0,24.3c-80.7,0-160.4,0-241.5,0c0-7.6,0-15.3,0-24.3
		C216.9,462.8,297.1,462.8,378.6,462.8z"/>
	<path id="XMLID_15852_" d="M379.1,354.2c0,8.4,0,15.2,0,23.9c-80.2,0-160.4,0-241.9,0c0-7,0-14.7,0-23.9
		C216.8,354.2,296.9,354.2,379.1,354.2z"/>
</g>
</svg>
