<?xml version="1.0" encoding="utf-8"?>
<!-- Generator: Adobe Illustrator 19.0.0, SVG Export Plug-In . SVG Version: 6.00 Build 0)  -->
<svg version="1.1" id="Layer_1" xmlns="http://www.w3.org/2000/svg" xmlns:xlink="http://www.w3.org/1999/xlink" x="0px" y="0px"
	 viewBox="0 0 1200 714.1" style="enable-background:new 0 0 1200 714.1;" xml:space="preserve">
<style type="text/css">
	.st0{fill:#4CBEC0;}
</style>
<g id="XMLID_15786_">
	<g id="XMLID_9545_">
		<path id="XMLID_9546_" class="st0" d="M916.5,144.1c20.2,0,40,0,60.2,0c0,114.9,0,229.8,0,345c-20,0-39.9,0-60.2,0
			C916.5,374.3,916.5,259.5,916.5,144.1z"/>
		<path id="XMLID_9547_" class="st0" d="M845.9,206.8c20.3,0,40.2,0,60.4,0c0,94.2,0,188.1,0,282.3c-20.1,0-40.1,0-60.4,0
			C845.9,395.1,845.9,301.2,845.9,206.8z"/>
		<path id="XMLID_9548_" class="st0" d="M835.7,489.2c-20.2,0-40,0-60.1,0c0-73.2,0-146.2,0-219.5c19.9,0,39.8,0,60.1,0
			C835.7,342.6,835.7,415.7,835.7,489.2z"/>
		<path id="XMLID_9549_" class="st0" d="M764,332.4c0,52.4,0,104.3,0,156.6c-20.2,0-40.3,0-60.6,0c0-52.1,0-104.2,0-156.6
			C723.5,332.4,743.6,332.4,764,332.4z"/>
		<path id="XMLID_9550_" class="st0" d="M631.5,394.9c20.3,0,40.1,0,60.2,0c0,31.4,0,62.7,0,94.2c-20,0-39.9,0-60.2,0
			C631.5,457.8,631.5,426.5,631.5,394.9z"/>
	</g>
	<path id="XMLID_10472_" class="st0" d="M331.4,475.8c12-22,30.4-26.3,54.7-13c21.5-15.3,43.1-30.8,64.7-46.4c1.1-0.8,1.6-3.4,1.4-5
		c-2.8-18.8,9.3-36.4,27.3-39.6c19.2-3.3,37.2,8.3,40.7,27.3c2.6,14-1.8,26.1-13.6,34.6c-11.9,8.6-24.6,9.1-37.5,2.1
		c-0.9-0.5-1.7-1.1-2.5-1.6c-0.7-0.4-1.4-0.8-2.4-1.3c-21.6,15.4-43.3,30.8-64.8,46.4c-1.2,0.9-2,3.4-1.8,5.1
		c1.8,19.6-8.3,34.5-26.5,38.9c-17,4.1-33.2-5.1-40.4-22.6c-0.8-1.9-3.4-3.9-5.4-4.3c-16.1-3.4-32.4-6.4-48.5-9.5
		c-3.3-0.6-5.7-0.4-8.1,3c-10,13.9-26.7,18.3-41.8,11.7c-14.6-6.4-22.9-21.5-20.5-37.4c2.4-15.8,15.9-27.7,32.7-28.9
		c15.5-1.2,30.4,9.6,34.6,25.5c0.9,3.3,2.2,4.8,5.4,5.3C296.3,469.2,313.7,472.5,331.4,475.8z"/>
	<g id="XMLID_10465_">
		<path id="XMLID_10475_" class="st0" d="M358.1,143.3c17.2,0.4,33.2,4.6,48.1,13.1c4.1,2.4,4.3,3.6,1.7,7.4
			c-16.3,23.3-32.7,46.7-49,70.1c-1.7,2.4-3.5,3.1-6.4,2.9c-22.5-2.1-45-4-67.4-6c-6-0.5-12.1-1-18.1-1.6c-3.8-0.4-4.8-1.7-4.2-5.5
			c5.6-37.9,39.1-72.1,77-78.3C345.8,144.4,351.9,144,358.1,143.3z"/>
		<path id="XMLID_10474_" class="st0" d="M354.9,289.8c0,13.8,0,27.5,0,41.3c0,4.9-0.8,5.6-5.4,5.3c-41.8-3-78.3-35.4-86-76.6
			c-1.2-6.3-1.6-12.7-2-19.1c-0.3-4.9,0.7-5.6,5.4-5.1c23.2,2,46.5,4,69.7,6c4.3,0.4,8.5,0.7,12.8,1c4.6,0.3,5.5,1.2,5.5,5.7
			C354.9,262,354.9,275.9,354.9,289.8z"/>
		<path id="XMLID_10473_" class="st0" d="M454.6,238.7c-0.2,18.5-4.1,34.4-12.5,49c-2.7,4.8-3.8,5-8.2,2
			c-22.3-15.6-44.6-31.3-66.9-46.9c-4.5-3.2-4.6-3.6-1.5-8c15.7-22.4,31.4-44.8,47-67.3c3-4.2,4.1-4.4,8.1-0.9
			C442.9,186.2,454.3,210.8,454.6,238.7z"/>
		<path id="XMLID_10471_" class="st0" d="M361.1,292.6c0-12.9-0.1-25.7,0.1-38.6c0-1.6,0.7-3.9,1.7-4.4c1.1-0.6,3.4,0.2,4.7,1.1
			c21.2,14.7,42.3,29.6,63.5,44.4c3.7,2.6,3.8,3.7,0.8,7.2c-17.3,20.1-39.1,31.6-65.6,34c-4.1,0.4-5.1-0.6-5.1-4.8
			C361,318.6,361.1,305.6,361.1,292.6z"/>
	</g>
	<path id="XMLID_9181_" class="st0" d="M1056.9,584.7c35,0,68.5,0,101.9,0c8.9,40.7-10.6,67.7-48.7,67.7
		c-334.1,0.1-668.2,0-1002.2,0.2c-20.2,0-35.4-8.9-47.7-25c-9.6-12.5-7-27.1-6.9-42.5c34.1,0,67.9,0,102.9,0c0-5.1,0-9,0-13
		c0-153.2,0-306.4,0-459.6c0-32.7,14.9-48.6,45.7-48.6c268.4,0,536.7,0.3,805.1-0.5c25.2-0.1,50.4,24.2,50.2,53.1
		c-0.8,151.1-0.4,302.3-0.4,453.4C1056.9,574.3,1056.9,578.7,1056.9,584.7z M1016.6,553.2c0-149.5,0-298.1,0-447.3
		c-275.2,0-549.9,0-825.1,0c0,149.3,0,298.1,0,447.3C466.7,553.2,741.2,553.2,1016.6,553.2z M677.1,589.3c-49,0-97.3,0-146.1,0
		c0,4.1,0,7.5,0,11.1c49.2,0,97.7,0,146.8,0C677.5,596.3,677.3,593,677.1,589.3z"/>
</g>
</svg>
