<?xml version="1.0" encoding="utf-8"?>
<!-- Generator: Adobe Illustrator 19.0.0, SVG Export Plug-In . SVG Version: 6.00 Build 0)  -->
<svg version="1.1" id="Layer_1" xmlns="http://www.w3.org/2000/svg" xmlns:xlink="http://www.w3.org/1999/xlink" x="0px" y="0px"
	 viewBox="1110 -60 150 150" style="enable-background:new 1110 -60 150 150;" xml:space="preserve">
<style type="text/css">
	.st0{fill:#4CBEC0;}
</style>
<g id="XMLID_15786_">
	<g id="XMLID_9545_">
		<path id="XMLID_9546_" class="st0" d="M1224.7-13.8c2.5,0,5,0,7.5,0c0,14.4,0,28.7,0,43.2c-2.5,0-5,0-7.5,0
			C1224.7,15,1224.7,0.6,1224.7-13.8z"/>
		<path id="XMLID_9547_" class="st0" d="M1215.9-6c2.5,0,5,0,7.6,0c0,11.8,0,23.5,0,35.3c-2.5,0-5,0-7.6,0
			C1215.9,17.6,1215.9,5.8,1215.9-6z"/>
		<path id="XMLID_9548_" class="st0" d="M1214.6,29.4c-2.5,0-5,0-7.5,0c0-9.2,0-18.3,0-27.5c2.5,0,5,0,7.5,0
			C1214.6,11,1214.6,20.2,1214.6,29.4z"/>
		<path id="XMLID_9549_" class="st0" d="M1205.6,9.7c0,6.6,0,13,0,19.6c-2.5,0-5,0-7.6,0c0-6.5,0-13,0-19.6
			C1200.6,9.7,1203.1,9.7,1205.6,9.7z"/>
		<path id="XMLID_9550_" class="st0" d="M1189.1,17.6c2.5,0,5,0,7.5,0c0,3.9,0,7.8,0,11.8c-2.5,0-5,0-7.5,0
			C1189.1,25.4,1189.1,21.5,1189.1,17.6z"/>
	</g>
	<path id="XMLID_10472_" class="st0" d="M1151.5,27.7c1.5-2.8,3.8-3.3,6.8-1.6c2.7-1.9,5.4-3.9,8.1-5.8c0.1-0.1,0.2-0.4,0.2-0.6
		c-0.4-2.4,1.2-4.6,3.4-5c2.4-0.4,4.7,1,5.1,3.4c0.3,1.8-0.2,3.3-1.7,4.3c-1.5,1.1-3.1,1.1-4.7,0.3c-0.1-0.1-0.2-0.1-0.3-0.2
		c-0.1-0.1-0.2-0.1-0.3-0.2c-2.7,1.9-5.4,3.9-8.1,5.8c-0.2,0.1-0.3,0.4-0.2,0.6c0.2,2.5-1,4.3-3.3,4.9c-2.1,0.5-4.2-0.6-5.1-2.8
		c-0.1-0.2-0.4-0.5-0.7-0.5c-2-0.4-4.1-0.8-6.1-1.2c-0.4-0.1-0.7-0.1-1,0.4c-1.3,1.7-3.3,2.3-5.2,1.5c-1.8-0.8-2.9-2.7-2.6-4.7
		c0.3-2,2-3.5,4.1-3.6c1.9-0.2,3.8,1.2,4.3,3.2c0.1,0.4,0.3,0.6,0.7,0.7C1147.1,26.9,1149.3,27.3,1151.5,27.7z"/>
	<g id="XMLID_10465_">
		<path id="XMLID_10475_" class="st0" d="M1154.9-13.9c2.2,0.1,4.2,0.6,6,1.6c0.5,0.3,0.5,0.5,0.2,0.9c-2,2.9-4.1,5.8-6.1,8.8
			c-0.2,0.3-0.4,0.4-0.8,0.4c-2.8-0.3-5.6-0.5-8.4-0.8c-0.8-0.1-1.5-0.1-2.3-0.2c-0.5-0.1-0.6-0.2-0.5-0.7c0.7-4.7,4.9-9,9.6-9.8
			C1153.3-13.8,1154.1-13.8,1154.9-13.9z"/>
		<path id="XMLID_10474_" class="st0" d="M1154.5,4.4c0,1.7,0,3.4,0,5.2c0,0.6-0.1,0.7-0.7,0.7c-5.2-0.4-9.8-4.4-10.8-9.6
			c-0.2-0.8-0.2-1.6-0.3-2.4c0-0.6,0.1-0.7,0.7-0.6c2.9,0.3,5.8,0.5,8.7,0.8c0.5,0.1,1.1,0.1,1.6,0.1c0.6,0,0.7,0.2,0.7,0.7
			C1154.5,0.9,1154.5,2.7,1154.5,4.4z"/>
		<path id="XMLID_10473_" class="st0" d="M1166.9-2c0,2.3-0.5,4.3-1.6,6.1c-0.3,0.6-0.5,0.6-1,0.3c-2.8-2-5.6-3.9-8.4-5.9
			c-0.6-0.4-0.6-0.5-0.2-1c2-2.8,3.9-5.6,5.9-8.4c0.4-0.5,0.5-0.6,1-0.1C1165.5-8.5,1166.9-5.5,1166.9-2z"/>
		<path id="XMLID_10471_" class="st0" d="M1155.3,4.8c0-1.6,0-3.2,0-4.8c0-0.2,0.1-0.5,0.2-0.6c0.1-0.1,0.4,0,0.6,0.1
			c2.7,1.8,5.3,3.7,7.9,5.6c0.5,0.3,0.5,0.5,0.1,0.9c-2.2,2.5-4.9,4-8.2,4.3c-0.5,0.1-0.6-0.1-0.6-0.6
			C1155.2,8,1155.3,6.4,1155.3,4.8z"/>
	</g>
	<path id="XMLID_9181_" class="st0" d="M1242.3,41.3c4.4,0,8.6,0,12.7,0c1.1,5.1-1.3,8.5-6.1,8.5c-41.8,0-83.6,0-125.4,0
		c-2.5,0-4.4-1.1-6-3.1c-1.2-1.6-0.9-3.4-0.9-5.3c4.3,0,8.5,0,12.9,0c0-0.6,0-1.1,0-1.6c0-19.2,0-38.3,0-57.5c0-4.1,1.9-6.1,5.7-6.1
		c33.6,0,67.1,0,100.7-0.1c3.2,0,6.3,3,6.3,6.6c-0.1,18.9-0.1,37.8-0.1,56.7C1242.3,40,1242.3,40.6,1242.3,41.3z M1237.2,37.4
		c0-18.7,0-37.3,0-55.9c-34.4,0-68.8,0-103.2,0c0,18.7,0,37.3,0,55.9C1168.5,37.4,1202.8,37.4,1237.2,37.4z M1194.8,41.9
		c-6.1,0-12.2,0-18.3,0c0,0.5,0,0.9,0,1.4c6.2,0,12.2,0,18.4,0C1194.8,42.8,1194.8,42.3,1194.8,41.9z"/>
</g>
</svg>
