<?xml version="1.0" encoding="utf-8"?>
<!-- Generator: Adobe Illustrator 19.0.0, SVG Export Plug-In . SVG Version: 6.00 Build 0)  -->
<svg version="1.1" id="Layer_1" xmlns="http://www.w3.org/2000/svg" xmlns:xlink="http://www.w3.org/1999/xlink" x="0px" y="0px"
	 viewBox="0 0 1200 1200" style="enable-background:new 0 0 1200 1200;" xml:space="preserve">
<style type="text/css">
	.st0{fill:#F2F2F2;}
	.st1{fill:#C0BFBF;}
	.st2{fill:#E5E5E5;}
</style>
<g id="XMLID_27_">
	<g id="XMLID_14892_">
		<polygon id="XMLID_14899_" class="st0" points="86.4,323.2 118.5,1026.5 794.3,1159.1 890.6,737.9 782.6,445.1 		"/>
		<polygon id="XMLID_14896_" class="st1" points="782.6,445.1 794.3,1159.1 1113.6,836.1 1102.6,154.2 		"/>
		<polygon id="XMLID_14893_" class="st2" points="86.4,323.2 782.6,445.1 1102.6,154.2 452.5,27.8 		"/>
	</g>
	<g id="XMLID_16118_">
		<path id="XMLID_16129_" d="M513.4,830.8c10.8,2.3,20.9,4.6,31.1,6.8c7.6,1.7,15.3,3.6,22.8,4.9c4.6,0.8,6.6,3.5,6.5,6.9
			c-0.2,4.3-0.4,9-2.3,12.3c-4.7,7.8-9.5,15.6-15.8,21.9c-9,9.2-19.5,17-29.1,25.7c-1.6,1.4-2.6,4-2.4,6.5
			c1.1,11.2,2.7,22.6,4.2,34.5c11,2.4,21.3,4.6,31.6,6.9c7.4,1.6,14.9,3.5,22.2,4.8c4.6,0.8,6.6,3.4,6.5,6.9
			c-0.2,4.3-0.4,9-2.3,12.3c-4.6,7.8-9.5,15.6-15.8,21.9c-9,9.2-19.5,17-29.1,25.7c-1.6,1.4-2.2,4-2.4,6.5c-0.2,2.8,0.7,6,1,9
			c1.2,11.6-6.7,18.7-18.9,16.1c-39.1-8.4-78.3-16.9-117.4-25.6c-12.2-2.7-23.2-14-23.8-25.4c-0.5-9.7-5.1-16.7-13.1-25
			c-15.3-15.9-29.8-32.6-43.7-49.6c-5.7-6.9-9.7-15.3-13.2-23.1c-3.4-7.8-1.5-9.3,6.3-7.6c15.6,3.4,31.2,6.8,46.7,10.2
			c1.4,0.3,2.9,0.5,4.9,0.8c-1.6-12.4-3-24.6-4.8-36.9c-0.2-1.6-2.3-3.6-3.8-5.3c-16.2-18-33-35.5-48.5-54
			c-6.7-8-11.6-17.6-15.8-26.7c-3.6-7.8-1.6-9.3,6.2-7.6c15,3.3,30.1,6.6,45.1,9.8c2,0.4,4,0.9,6.6,1.4c-1.6-12.4-2.5-24.1-4.9-36.1
			c-0.6-3.3-5.1-7.3-8.2-10.7c-14.5-16.3-29.7-32.2-43.6-49c-6.7-8.1-11.8-17.6-16-26.6c-4-8.5-2-10,6.4-8.1
			c13.2,2.9,26.4,5.9,39.5,8.5c2,0.4,4.7-0.5,5.5-2c32-56,123.9-35.9,172,37.5c1.2,1.9,4.3,4.1,6.3,4.6c13.8,3.3,27.5,6.1,41.2,9.1
			c6,1.3,8,3.3,7.6,8.7c-0.3,4.3-0.8,8.9-3,11.9c-7,9.7-14.4,19.2-22.6,28c-6.8,7.2-15,13-22.2,19.8c-1.4,1.3-1.9,4.1-1.7,6.5
			C510.5,808.6,512,819.5,513.4,830.8z M393.6,843.8c2.9,23.8,25.1,47.4,50,53.1c24.8,5.7,43-9.5,40-33.3
			c-3-23.7-25.5-47.3-50.4-52.7C408.2,805.4,390.7,820,393.6,843.8z M458.4,1014.7c24.9,5.5,42.6-9,39.9-32.8
			c-2.7-23.7-25.7-47.9-50.6-53.3c-24.8-5.4-42.4,9.4-39.4,33.2C411.3,985.8,433.5,1009.2,458.4,1014.7z M378.8,726
			c2.9,23.9,25.2,47.5,50,52.9c25,5.5,43.1-9.5,39.9-33.3c-3.1-23.7-25.8-47.5-50.4-52.9C393.6,687.4,375.9,702.2,378.8,726z"/>
		<path id="XMLID_16105_" d="M589,596.8c-6.9,6.4-13.6,12.6-20.6,19c-50.5-58.5-109-96.8-176.6-110.6
			c-67.7-13.8-118.6,2.3-155.5,43.7c-4.4-4.8-8.8-9.6-13.2-14.3c-4.5-4.8-9.2-9.4-13.8-14.1C281.7,427.6,468.4,454.1,589,596.8z"/>
		<path id="XMLID_16102_" d="M555.7,627.6c-6.8,6.3-13.6,12.6-20.4,18.9c-70.7-89.7-198.5-120.6-254.1-52.2
			c-9.2-9.5-18.4-19.1-27.7-28.7C320.1,486.2,470.4,523,555.7,627.6z"/>
		<path id="XMLID_16100_" d="M324.6,641.5c-8.3-8.8-16.3-17.1-24.2-25.5c-1-1.1-2-2.2-2.9-3.2c41.5-56.5,154-40.7,225.1,45.4
			c-6.8,6.3-13.6,12.6-20.8,19.2c-26.6-32.1-57.8-53.5-94.5-61C370.6,608.9,343.7,618.3,324.6,641.5z"/>
	</g>
</g>
</svg>
