<?xml version="1.0" encoding="utf-8"?>
<!-- Generator: Adobe Illustrator 16.0.0, SVG Export Plug-In . SVG Version: 6.00 Build 0)  -->
<!DOCTYPE svg PUBLIC "-//W3C//DTD SVG 1.1//EN" "http://www.w3.org/Graphics/SVG/1.1/DTD/svg11.dtd">
<svg version="1.1" id="Layer_1" xmlns="http://www.w3.org/2000/svg" xmlns:xlink="http://www.w3.org/1999/xlink" x="0px" y="0px"
	 width="19.083px" height="19.083px" viewBox="0 0 19.083 19.083" enable-background="new 0 0 19.083 19.083" xml:space="preserve">
<path d="M9.593-0.063C4.295-0.063,0,4.232,0,9.531c0,5.297,4.295,9.593,9.593,9.593c5.3,0,9.593-4.296,9.593-9.593
	C19.187,4.232,14.894-0.063,9.593-0.063z M9.593,17.033c-4.143,0-7.501-3.359-7.501-7.501c0-4.144,3.358-7.502,7.501-7.502
	c4.144,0,7.502,3.358,7.502,7.502C17.096,13.673,13.737,17.033,9.593,17.033z"/>
<polygon points="14,8.25 11,8.25 11,5.25 8,5.25 8,8.25 5,8.25 5,11.25 8,11.25 8,14.25 11,14.25 11,11.25 14,11.25 "/>
</svg>
