<?xml version="1.0" encoding="utf-8"?>
<!-- Generator: Adobe Illustrator 16.0.0, SVG Export Plug-In . SVG Version: 6.00 Build 0)  -->
<!DOCTYPE svg PUBLIC "-//W3C//DTD SVG 1.1//EN" "http://www.w3.org/Graphics/SVG/1.1/DTD/svg11.dtd">
<svg version="1.1" id="Layer_1" xmlns="http://www.w3.org/2000/svg" xmlns:xlink="http://www.w3.org/1999/xlink" x="0px" y="0px"
	 width="19.083px" height="19.083px" viewBox="0 0 19.083 19.083" enable-background="new 0 0 19.083 19.083" xml:space="preserve">
<path d="M9.593,19.125c5.297,0,9.593-4.295,9.593-9.594c0-5.297-4.295-9.593-9.593-9.593C4.293-0.063,0,4.233,0,9.53
	C0,14.83,4.293,19.125,9.593,19.125z M9.593,2.029c4.143,0,7.501,3.359,7.501,7.501c0,4.144-3.358,7.502-7.501,7.502
	c-4.144,0-7.502-3.358-7.502-7.502C2.091,5.388,5.449,2.029,9.593,2.029z"/>
<g>
	<rect x="7.529" y="7.136" transform="matrix(-0.7071 -0.7071 0.7071 -0.7071 13.5888 22.2185)" width="7.734" height="2.319"/>
	<rect x="3.701" y="7.136" transform="matrix(0.7072 -0.707 0.707 0.7072 -3.6493 7.7796)" width="7.733" height="2.32"/>
</g>
</svg>
