<?xml version="1.0" encoding="utf-8"?>
<!-- Generator: Adobe Illustrator 19.0.0, SVG Export Plug-In . SVG Version: 6.00 Build 0)  -->
<svg version="1.1" id="Layer_1" xmlns="http://www.w3.org/2000/svg" xmlns:xlink="http://www.w3.org/1999/xlink" x="0px" y="0px"
	 viewBox="0 0 1200 1200" style="enable-background:new 0 0 1200 1200;" xml:space="preserve">
<g id="XMLID_15876_">
	<path id="XMLID_15878_" d="M284,469.4c-26.1-12-52.6-22.3-77.2-36c-28-15.5-44.2-38.7-41.1-73.5c2.2-24.8,1.9-50,0-74.8
		c-2.4-31.1,12.3-51.5,35.9-67.9c38.4-26.6,82.6-39,127.5-45.8c186.6-28.4,373.4-29.7,559.5,4.1c29.7,5.4,58.9,16.7,86.6,29.1
		c37.1,16.6,62.9,42.1,58.7,88.6c-2.9,31.9-0.5,64.3-0.5,98.2c14.6,5.5,31.6,10.6,47.3,18.3c16.5,8.1,32.8,17.2,47.2,28.4
		c17,13.2,25.4,31.3,24.2,54.2c-1.5,27-2.1,54.2,0,81.1c2.4,31.1-12,51.6-35.7,68c-39.6,27.4-85.5,37.8-131.6,46.8
		c-20.9,4.1-42.4,5.4-63.3,9.7c-5.2,1.1-12.2,9-12.6,14.2c-1.3,19.8,1.2,39.9-0.6,59.6c-1.4,15.2,5.7,17.1,17.6,20
		c36.5,8.9,73.1,18,108.7,29.8c16.4,5.5,31.6,16.3,45.6,26.9c17.9,13.5,26.8,32,25.7,55.7c-1.3,27.6-1.5,55.4,0,82.9
		c1.4,24.5-7.7,42.9-25.7,58c-34.4,29-76.2,40.9-118.8,50c-118,25.3-237.9,27.2-357.6,22.3c-73.8-3.1-147.6-11.5-220.5-23.2
		c-35.6-5.7-70.3-21.9-103.3-37.9c-28.3-13.7-44.9-37.7-41.8-72.7c2.3-25.9,0.5-52.2,0.5-78c-33.3-8.3-65.1-15.5-96.4-24.2
		c-15-4.2-29.5-10.4-43.5-17.1c-39.4-18.6-63.4-46.4-58.6-93.7c2.4-23.8,0.3-48.2,0.3-72.3c-0.1-25.2,12.7-43.1,32.2-57.2
		c42.9-30.9,93-41.6,143.5-51c18.2-3.4,36.5-6.5,54.9-8.1c11.4-1,13.8-5,13.4-16C283.4,533.8,284,501.5,284,469.4z M571.5,361
		c32.8,0,65.6,1.2,98.4-0.2c84-3.5,168-9.1,249.4-32.1c19.6-5.5,39.2-13.6,56.4-24.3c24.4-15.2,24.6-36.6,1.4-53.2
		c-12.5-8.9-27-17.5-41.7-20.5C879.1,219,822.7,206.2,765.7,200c-146-15.8-292-12.8-436.6,13.8c-35.8,6.6-71.4,19.4-104.3,35.2
		c-28.2,13.5-27.1,40.4-0.2,56.7c16.2,9.8,34.4,17.4,52.7,22.5C373.5,355,472.6,358.4,571.5,361z M856.2,710c-0.7-1.7-1.4-3.3-2.1-5
		c-3.3,0-6.6-0.1-9.9,0c-121.8,3.4-243.7,6.3-364.7-12.4c-60.5-9.3-121-19.9-171-60c-2.9-2.3-8.1-3.7-11.8-3
		c-53,9.9-106.3,19-158.8,31.2c-19.8,4.6-47.4,11.7-47,36.5c0.4,24.5,28,31.5,47.8,35.8c58.2,12.6,116.8,25.4,175.9,31.8
		c106.5,11.5,213.7,11.8,320.1-0.1c61.8-6.9,122.9-21.7,183.9-34.7C832,727.3,843.7,716.9,856.2,710z M335.1,479
		c-5,18.4,6.5,27,17.8,31.5c27,10.7,54.4,21.6,82.6,27.6c108.7,23,219.1,26.3,329.7,24c84.8-1.8,169.6-7.3,252.2-28.2
		c25.2-6.4,49.6-17,73-28.4c14-6.8,17.9-19.9,5-33.4c-25.2-26.4-94.9-39.3-128.4-24.7c-16.9,7.3-34.3,15.1-52.3,18
		c-63.9,10.3-127.9,24.1-192.2,26.2c-101.7,3.3-203.7-1.4-305.5-3.8C389.7,487.1,362.5,482,335.1,479z M296.8,916
		c12.6,5.9,24,14.1,36.5,16.6c60.6,12.2,121,27.4,182.3,33.1c128.7,12,257.9,11.5,386-8.1c45.2-6.9,89.4-21.8,133.3-35.3
		c8.9-2.7,21-16.1,20.4-23.7c-0.7-9.3-13.1-17.9-20.8-26.4c-1.8-2-4.8-3.3-7.5-3.9c-42.6-10.6-85.2-21.3-128-31.3
		c-3.9-0.9-9.8,1.3-13.1,4.1c-42.1,35.3-93.5,47.5-145.3,56.9c-102.8,18.5-206.8,20.9-311,18.3C386.2,915.1,342.8,916,296.8,916z"/>
</g>
</svg>
