<?xml version="1.0" encoding="utf-8"?>
<!-- Generator: Adobe Illustrator 19.0.0, SVG Export Plug-In . SVG Version: 6.00 Build 0)  -->
<svg version="1.1" id="Layer_1" xmlns="http://www.w3.org/2000/svg" xmlns:xlink="http://www.w3.org/1999/xlink" x="0px" y="0px"
	 viewBox="1110 -60 150 150" style="enable-background:new 1110 -60 150 150;" xml:space="preserve">
<g id="XMLID_15876_">
	<path id="XMLID_15878_" d="M1146.4-3.4c-3.2-1.5-6.5-2.8-9.6-4.5c-3.5-1.9-5.5-4.8-5.1-9.1c0.3-3.1,0.2-6.2,0-9.3
		c-0.3-3.8,1.5-6.4,4.4-8.4c4.8-3.3,10.2-4.8,15.8-5.7c23.1-3.5,46.2-3.7,69.2,0.5c3.7,0.7,7.3,2.1,10.7,3.6c4.6,2.1,7.8,5.2,7.3,11
		c-0.4,3.9-0.1,8-0.1,12.2c1.8,0.7,3.9,1.3,5.9,2.3c2,1,4.1,2.1,5.8,3.5c2.1,1.6,3.1,3.9,3,6.7c-0.2,3.3-0.3,6.7,0,10
		c0.3,3.8-1.5,6.4-4.4,8.4c-4.9,3.4-10.6,4.7-16.3,5.8c-2.6,0.5-5.2,0.7-7.8,1.2c-0.6,0.1-1.5,1.1-1.6,1.8c-0.2,2.5,0.1,4.9-0.1,7.4
		c-0.2,1.9,0.7,2.1,2.2,2.5c4.5,1.1,9,2.2,13.5,3.7c2,0.7,3.9,2,5.6,3.3c2.2,1.7,3.3,4,3.2,6.9c-0.2,3.4-0.2,6.9,0,10.3
		c0.2,3-1,5.3-3.2,7.2c-4.3,3.6-9.4,5.1-14.7,6.2c-14.6,3.1-29.4,3.4-44.3,2.8c-9.1-0.4-18.3-1.4-27.3-2.9
		c-4.4-0.7-8.7-2.7-12.8-4.7c-3.5-1.7-5.6-4.7-5.2-9c0.3-3.2,0.1-6.5,0.1-9.7c-4.1-1-8.1-1.9-11.9-3c-1.9-0.5-3.7-1.3-5.4-2.1
		c-4.9-2.3-7.8-5.7-7.3-11.6c0.3-2.9,0-6,0-8.9c0-3.1,1.6-5.3,4-7.1c5.3-3.8,11.5-5.1,17.8-6.3c2.3-0.4,4.5-0.8,6.8-1
		c1.4-0.1,1.7-0.6,1.7-2C1146.3,4.5,1146.4,0.5,1146.4-3.4z M1182-16.9c4.1,0,8.1,0.1,12.2,0c10.4-0.4,20.8-1.1,30.9-4
		c2.4-0.7,4.9-1.7,7-3c3-1.9,3-4.5,0.2-6.6c-1.5-1.1-3.3-2.2-5.2-2.5c-7-1.4-13.9-3-21-3.8c-18.1-2-36.1-1.6-54,1.7
		c-4.4,0.8-8.8,2.4-12.9,4.4c-3.5,1.7-3.4,5,0,7c2,1.2,4.3,2.2,6.5,2.8C1157.5-17.6,1169.7-17.2,1182-16.9z M1217.2,26.3
		c-0.1-0.2-0.2-0.4-0.3-0.6c-0.4,0-0.8,0-1.2,0c-15.1,0.4-30.2,0.8-45.1-1.5c-7.5-1.2-15-2.5-21.2-7.4c-0.4-0.3-1-0.5-1.5-0.4
		c-6.6,1.2-13.2,2.4-19.7,3.9c-2.5,0.6-5.9,1.4-5.8,4.5c0,3,3.5,3.9,5.9,4.4c7.2,1.6,14.5,3.1,21.8,3.9c13.2,1.4,26.4,1.5,39.6,0
		c7.6-0.9,15.2-2.7,22.8-4.3C1214.2,28.5,1215.7,27.2,1217.2,26.3z M1152.7-2.3c-0.6,2.3,0.8,3.3,2.2,3.9c3.3,1.3,6.7,2.7,10.2,3.4
		c13.5,2.8,27.1,3.3,40.8,3c10.5-0.2,21-0.9,31.2-3.5c3.1-0.8,6.1-2.1,9-3.5c1.7-0.8,2.2-2.5,0.6-4.1c-3.1-3.3-11.7-4.9-15.9-3.1
		c-2.1,0.9-4.2,1.9-6.5,2.2c-7.9,1.3-15.8,3-23.8,3.2c-12.6,0.4-25.2-0.2-37.8-0.5C1159.5-1.3,1156.1-1.9,1152.7-2.3z M1148,51.8
		c1.6,0.7,3,1.7,4.5,2.1c7.5,1.5,15,3.4,22.6,4.1c15.9,1.5,31.9,1.4,47.8-1c5.6-0.9,11.1-2.7,16.5-4.4c1.1-0.3,2.6-2,2.5-2.9
		c-0.1-1.2-1.6-2.2-2.6-3.3c-0.2-0.2-0.6-0.4-0.9-0.5c-5.3-1.3-10.5-2.6-15.8-3.9c-0.5-0.1-1.2,0.2-1.6,0.5c-5.2,4.4-11.6,5.9-18,7
		c-12.7,2.3-25.6,2.6-38.5,2.3C1159,51.7,1153.7,51.8,1148,51.8z"/>
</g>
</svg>
