<?xml version="1.0" encoding="utf-8"?>
<!-- Generator: Adobe Illustrator 19.0.0, SVG Export Plug-In . SVG Version: 6.00 Build 0)  -->
<svg version="1.1" id="Layer_1" xmlns="http://www.w3.org/2000/svg" xmlns:xlink="http://www.w3.org/1999/xlink" x="0px" y="0px"
	 viewBox="0 0 1200 1200" style="enable-background:new 0 0 1200 1200;" xml:space="preserve">
<style type="text/css">
	.st0{fill:#F2F2F2;}
	.st1{fill:#C0BFBF;}
	.st2{fill:#E5E5E5;}
</style>
<g id="XMLID_10335_">
	<polygon id="XMLID_14868_" class="st0" points="1139.2,318.8 1107,1023.3 430.1,1156 333.7,734.2 441.9,441 	"/>
	<polygon id="XMLID_12513_" class="st1" points="441.9,441 430.1,1156 110.3,832.5 121.3,149.6 	"/>
	<polygon id="XMLID_12508_" class="st2" points="1139.2,318.8 441.9,441 121.3,149.6 772.5,23 	"/>
</g>
<g id="XMLID_15729_">
	<path id="XMLID_16261_" d="M780.3,943c-92.7,15.9-185.3,31.7-278,47.6c-17.2,2.9-26.4-4.6-26.3-21.9c0.7-128.4,1.3-256.7,2-385.1
		c0.1-17.9,9.2-28.4,27.1-31.5c6.3-1.1,12.7-1.9,19-3.4c2.2-0.5,5.1-2.5,6.3-4.4c2.9-4.7,5-9.7,7.4-14.6c2.1-4.4,4.1-8.9,6.3-13.3
		c2.6-5.2,6.4-7.9,12.1-8.8c31.9-5.2,63.8-10.7,95.7-16.4c5.9-1.1,9.8,0.4,12.3,5c3.8,6.8,7.7,13.7,11.4,20.6
		c2.2,4.2,5.3,5.4,10.7,4.5c124.7-21.5,249.4-42.8,374.2-64.2c17.9-3.1,26.9,4.4,26.8,22.3c-0.7,128.2-1.4,256.4-1.8,384.5
		c-0.1,17.4-11.8,29.2-27.2,31.7C965.6,911,872.9,927.1,780.3,943z M778.6,909.8c83.9-14.3,167.7-28.7,251.6-43.1
		c3.3-0.6,6.8-1.1,10-2.4c11.3-4.8,18-15.4,18.1-28.5c0.6-104.6,1.1-209.2,1.6-313.8c0-1.1,0-2.1,0-3.2
		c-0.7-10.7-7.2-18.4-17.1-19.3c-3.8-0.3-8,0.4-12,1c-157.3,26.9-314.6,53.8-471.9,80.7c-10.2,1.7-20.4,3.4-30.7,5.3
		c-15.8,3-25.3,14-25.4,29.8C502,721.7,501.5,827,501,932.3c0,2.6,0.1,5.3,0.8,7.7c3.1,10.5,11.9,15.1,24.7,13
		C610.5,938.5,694.6,924.1,778.6,909.8z"/>
	<path id="XMLID_16142_" d="M742.9,693.4c-33.3,5.7-66.7,11.4-100.8,17.2c-0.2,34-0.3,67.5-0.5,100.9c-28.3,6.7-69.1-2.3-89.7-37.9
		c-20.2-34.9-13.5-84,16.5-120.1c31.2-37.7,78.2-54.4,117.9-42.1C721.6,622.4,747.4,659.4,742.9,693.4z"/>
	<path id="XMLID_16141_" d="M1023.1,825.2c-159.1,27.2-317.8,54.4-476.8,81.6c0-6.1,0.1-12,0.1-18.4
		c158.8-27.2,317.6-54.3,476.8-81.6C1023.2,812.7,1023.2,818.8,1023.1,825.2z"/>
	<path id="XMLID_16139_" d="M659.3,826.2c0.2-33.8,0.3-67.1,0.5-100.8c33.6-5.8,67-11.5,100.4-17.2
		C764.3,755.8,717.6,818.4,659.3,826.2z"/>
	<path id="XMLID_16138_" d="M976.4,574.8c14.4-2.5,28.4-4.9,42.9-7.3c-0.3,58.2-0.6,116.3-0.9,174.7c-14.2,2.4-28.4,4.9-42.9,7.3
		C975.8,691.4,976.1,633.4,976.4,574.8z"/>
	<path id="XMLID_16136_" d="M952.7,753.4c-14.5,2.5-28.6,4.9-43.1,7.4c0.2-43.8,0.4-87.2,0.7-131c14.3-2.5,28.5-4.9,43.1-7.4
		C953.2,665.9,953,709.5,952.7,753.4z"/>
	<path id="XMLID_16135_" d="M844,684.9c15-2.6,29.2-5,43.7-7.5c-0.1,29.1-0.3,58-0.5,87.6c-5.5,0.9-10.9,1.9-16.3,2.8
		c-7.7,1.3-15.5,2.6-23.2,4c-2.2,0.4-4.3,0.8-4.2-2.4C843.7,741.4,843.8,713.5,844,684.9z"/>
</g>
</svg>
