<?xml version="1.0" encoding="utf-8"?>
<!-- Generator: Adobe Illustrator 19.0.0, SVG Export Plug-In . SVG Version: 6.00 Build 0)  -->
<svg version="1.1" id="Layer_1" xmlns="http://www.w3.org/2000/svg" xmlns:xlink="http://www.w3.org/1999/xlink" x="0px" y="0px"
	 viewBox="0 0 1200 1200" style="enable-background:new 0 0 1200 1200;" xml:space="preserve">
<style type="text/css">
	.st0{fill:#F2F2F2;}
	.st1{fill:#C0BFBF;}
	.st2{fill:#E5E5E5;}
	.st3{fill:none;stroke:#000000;stroke-width:4;stroke-miterlimit:10;}
</style>
<g id="XMLID_1_">
	<g id="XMLID_14892_">
		<polygon id="XMLID_14899_" class="st0" points="101,334.7 132.9,1034 805,1165.9 900.7,747.1 793.3,455.9 		"/>
		<polygon id="XMLID_14896_" class="st1" points="793.3,455.9 805,1165.9 1122.4,844.7 1111.5,166.7 		"/>
		<polygon id="XMLID_14893_" class="st2" points="101,334.7 793.3,455.9 1111.5,166.7 465,41 		"/>
	</g>
	<path id="XMLID_15787_" d="M446.2,635.6c8.9,1.6,17.7,3.3,26.6,4.6c5.6,0.9,8.1,3.5,8.1,9.2c-0.1,18.6-0.1,37.2,0,55.8
		c0,5.2-2.3,7-7.5,6c-18.6-3.4-37.2-6.7-55.8-9.8c-5.9-1-7.8-4.2-7.8-9.5c0.1-18.3,0.1-36.6,0-54.9c0-5.6,2.6-7.5,8.2-6.4
		C427.3,632.5,436.8,634,446.2,635.6z M437.8,676.6c0,3.5,0.2,7.1,0,10.6c-0.3,4.4,1.9,5.8,5.9,6.5c4.3,0.8,4.7-1.6,4.6-4.8
		c-0.1-3.8,0-7.7,0-11.5c0.1-3.3,1.4-5.6,5-5.1c4.2,0.5,5.7,3.4,5.7,7.2c0.1,4.4,0.1,8.8,0.2,13.3c0.1,4,3,4.1,5.7,4.7
		c2.7,0.6,4.6,0.2,4.6-3c-0.1-6.2,0.4-12.3-0.3-18.6c-0.8-7.1-7.6-12.1-14.6-11.5c-2.6,0.2-4.7,1.5-8.1-0.4
		c-5.9-3.3-9.6-1.6-8.8,5.7C438,671.9,437.8,674.3,437.8,676.6z M432.1,676.2c0-3.2-0.1-6.5,0-9.7c0.1-3.4-0.7-5.8-4.8-6.6
		c-4.3-0.9-5.7,0.9-5.6,4.9c0.2,6.8,0.2,13.6,0,20.3c-0.1,4.2,2.4,5,5.7,5.7c3.5,0.7,4.7-0.7,4.6-4
		C432,683.3,432.1,679.8,432.1,676.2z M432.5,650.4c-0.6-3.2-2.6-5.4-6-5.6c-3.3-0.2-5.3,1.6-4.8,5.1c0.4,3.1,2.5,4.9,5.5,5.4
		C430.6,655.8,432.4,654.2,432.5,650.4z"/>
	<g id="XMLID_15804_">
		<path id="XMLID_15806_" d="M569.8,808.8c0-19.5,0-39,0-58.5c0-5.2,2.3-8.6,6.6-9.3c1.5-0.3,3.3-0.1,4.9,0.2
			c17.4,3,34.9,6.1,52.3,9.2c7.6,1.4,11.6,6,11.6,13.6c0,38.8,0,77.6,0,116.5c0,7.5-3.9,10.9-11.4,9.6c-17.6-3-35.2-6.1-52.8-9.3
			c-7.4-1.3-11.3-6.1-11.4-13.6C569.8,847.8,569.8,828.3,569.8,808.8z M576.1,802.2c0,16.6,0,33.3,0,50c0,4.9,1,6,5.9,6.8
			c17.2,3,34.5,6.1,51.7,9.1c4,0.7,5.2-0.2,5.2-4.2c0-33.7,0-67.3,0-101c0-4-1.2-5.4-5.2-6.1c-17.2-3-34.3-6.1-51.5-9.1
			c-5.3-0.9-6.1-0.2-6.1,4.9C576.1,769.2,576.1,785.7,576.1,802.2z M607.6,881c3.6,0.6,6.5-1.8,6.5-5.4c0-3.6-3-7.1-6.5-7.7
			c-3.6-0.6-6.5,1.8-6.5,5.4C601.1,876.9,604,880.4,607.6,881z"/>
	</g>
	<g id="XMLID_15781_">
		<path id="XMLID_15783_" class="st3" d="M296.5,622.4c11.2-71.1,75.7-107.3,145-89c55.4,14.6,116.7,68.9,121.7,150.4
			c15.6-1.3,31.2-4.5,47.3-3.7c81.4,3.8,152.3,81.5,149.5,162.8c-2.5,71.8-60.8,118.4-133.3,105.8c-114.1-19.9-228.1-40-342.2-60.3
			c-69.1-12.3-126.3-75.1-132.8-144.9C145.3,674,192.3,620,260.6,619.3C272.1,619.2,284,621.3,296.5,622.4z M534.4,706.5
			c2.1-7.4,4.9-12.6,4.9-18.3c0.3-42.9-17-80.1-54.1-108.6c-36.7-28.3-75-34.9-111.9-20c-30.9,12.5-48.3,37.1-53.7,72.1
			c22.7,11.2,42.9,25.1,58.3,44.2c-5.7,4.6-10.8,8.8-16.2,13.3c-1.2-1.2-2.7-2.8-4.3-4.4c-36.3-38.5-88.9-52.1-130.9-34
			c-40.1,17.3-60.3,63-48.9,111c12.6,53.5,56.3,94.6,111.4,104.3c111.1,19.7,222.2,39.2,333.3,58.8c4.4,0.8,8.9,1.4,13.3,1.7
			c46.6,2.8,79.6-15.6,94.9-57.2c15.4-41.9,5.1-84.3-29.8-122.4c-34.9-38-75.8-51.1-119.3-40.1c-12,3-22.5,9.6-34.1,14.7
			C543,716.5,538,710.6,534.4,706.5z"/>
	</g>
	<path id="XMLID_15777_" d="M513.2,745.8l-102-18c-12.3-2.2-22.3,6-22.3,18.3v102c0,12.3,10,24,22.3,26.2l102,18
		c12.3,2.2,22.3-6,22.3-18.3V772C535.4,759.7,525.5,747.9,513.2,745.8z M504.3,789.8l-9.7-1.7c-7.6-1.3-9.1,2-9.1,7.3v11.7l18.2,3.2
		l-2.4,18l-15.8-2.8v47.2l-19-3.3v-47.2l-15.9-2.8V801l15.9,2.8v-13.6c0-15.7,9.6-22.6,23.6-20.1c6.7,1.2,12.5,2.7,14.2,3.2V789.8z"
		/>
	<g id="XMLID_15756_">
		<path id="XMLID_15757_" d="M299.3,799.6c0,3.4,0,6.7,0,10.1c5.9,1,11.7,2.1,17.7,3.1c0,1.3,0,2.5,0,3.8
			c-14.4-2.5-28.7-5.1-43.2-7.6c0-1.2,0-2.4,0-3.7c5.9,1,11.7,2.1,17.6,3.1c0-3.4,0-6.7,0-10.2c-0.5-0.1-1.1-0.2-1.6-0.3
			c-17.7-3.1-35.4-6.2-53-9.4c-0.5-0.1-1.1-0.1-1.5-0.4c-0.5-0.4-0.8-1-1.1-1.5c-0.1-0.2,0-0.6,0-0.8c0-23.2,0-46.3,0-69.5
			c0-2,0.3-2.2,2.3-1.9c39.3,6.9,78.7,13.9,118,20.8c2,0.4,2.3,0.7,2.3,2.7c0,23.1,0,46.2,0,69.4c0,2.2-0.2,2.4-2.4,2
			c-17.7-3.1-35.5-6.3-53.2-9.4C300.5,799.8,300,799.7,299.3,799.6z M239.9,720.3c0,21.2,0,42.7,0,63.9
			c38.3,6.7,72.6,12.8,110.9,19.6c0-21.2,0-42.7,0-63.9C312.6,733.1,278.2,727.1,239.9,720.3z"/>
	</g>
</g>
</svg>
