<?xml version="1.0" encoding="utf-8"?>
<!-- Generator: Adobe Illustrator 19.0.0, SVG Export Plug-In . SVG Version: 6.00 Build 0)  -->
<svg version="1.1" id="Layer_1" xmlns="http://www.w3.org/2000/svg" xmlns:xlink="http://www.w3.org/1999/xlink" x="0px" y="0px"
	 viewBox="0 0 1200 1200" style="enable-background:new 0 0 1200 1200;" xml:space="preserve">
<style type="text/css">
	.st0{fill:#F2F2F2;}
	.st1{fill:#C0BFBF;}
	.st2{fill:#E5E5E5;}
</style>
<g id="XMLID_14892_">
	<polygon id="XMLID_14899_" class="st0" points="67.1,331.4 99.9,1051.5 791.9,1187.2 890.4,756 779.9,456.2 	"/>
	<polygon id="XMLID_14896_" class="st1" points="779.9,456.2 791.9,1187.2 1118.7,856.5 1107.5,158.4 	"/>
	<polygon id="XMLID_14893_" class="st2" points="67.1,331.4 779.9,456.2 1107.5,158.4 441.8,29 	"/>
</g>
<path id="XMLID_15736_" d="M691.7,701.8c-3.5-7.4-0.3-15.1-8.8-23.4c-8.9,4.9-18.1,10-27.4,15c-18.2,12.5-36.3,24.9-54.5,37.4
	c-9.4,6.5-50.6-24.5-62.4-32.1c-12.4-10.4-12.4-23.5-17.4-35.8c-13.3-32.6-6.3-50.1,17.4-61.2c22.1-10.4,40.5-26.6,60.6-40.3
	c-18.9-13.7-38.4-23.3-58.4-26.7c-82.9-14-129.3,37.4-112.3,126c2.1,10.9,0.1,15.9-6.5,20.1c-30.2,19.1-60.3,38.2-89.8,58.2
	c-7.9,5.3-14.8,4.6-25.9-1.9c-71.2-41.7-140.9-24.8-159.4,39.2c-6.6,22.8-12,47.1,5.6,77.2c26.3-17.4,52.7-34.6,78.8-52.3
	c5.7-3.9,10.8-3.8,19.1,1.7c11.6,7.7,52.8,27.7,56.8,41.6c0.4,2.8,22.1,61.8,8.7,68.2c-2.1,1.4-4.2,2.9-6.3,4.3
	c-3,2.1-6.1,4.3-9.1,6.4c-11.2,7.4-22.3,14.8-33.5,22.1c-0.3,0.2-14.5,8.4-14.5,8.4c-3,2.4-5.5,5.4-9,7c-11.9,5.3-3.8,11.6,4.6,18.1
	c24.2,9.2,48.4,19.8,72.1,19.9c36,0,60.5-16.6,78.8-42.4c10.5-26.8,15.9-55.7,5.9-90.9c-2.7-9.3,2.5-11.2,7.1-14.2
	c31.3-20.2,62.9-40,93.7-60.9c9.4-6.4,27.5,8.2,29.1,7.8c34.5,12.7,68.2,27.7,98.9,14.4C677,793.6,697.2,758.5,691.7,701.8
	C691.7,701.8,691.7,701.8,691.7,701.8z"/>
</svg>
