<?xml version="1.0" encoding="utf-8"?>
<!-- Generator: Adobe Illustrator 19.0.0, SVG Export Plug-In . SVG Version: 6.00 Build 0)  -->
<svg version="1.1" id="Layer_1" xmlns="http://www.w3.org/2000/svg" xmlns:xlink="http://www.w3.org/1999/xlink" x="0px" y="0px"
	 viewBox="0 0 1200 1200" style="enable-background:new 0 0 1200 1200;" xml:space="preserve">
<style type="text/css">
	.st0{fill:#F2F2F2;}
	.st1{fill:#C0BFBF;}
	.st2{fill:#E5E5E5;}
</style>
<g id="XMLID_1_">
	<g id="XMLID_10335_">
		<polygon id="XMLID_14868_" class="st0" points="1088.8,328.9 1057.2,1022.4 390.7,1153.1 295.8,737.8 402.3,449.1 		"/>
		<polygon id="XMLID_12513_" class="st1" points="402.3,449.1 390.7,1153.1 75.9,834.6 86.7,162.3 		"/>
		<polygon id="XMLID_12508_" class="st2" points="1088.8,328.9 402.3,449.1 86.7,162.3 727.8,37.6 		"/>
	</g>
	<g id="XMLID_15691_">
		<g id="XMLID_14906_">
			<path id="XMLID_14907_" d="M751.3,920.1c-0.6,16.8-1.2,32.9-1.7,49.7c29-5.6,57.9-11.2,87.3-17c-0.2,6.5-0.4,12.3-0.7,18.7
				c-71.1,13.8-142,27.6-213.5,41.4c0.2-5.9,0.4-11.7,0.6-18.2c28.9-5.6,57.8-11.2,87.2-16.9c0.6-16.7,1.1-32.8,1.8-50.1
				c-2.5,0.5-5.2,1-7.9,1.5c-87.4,17-174.8,33.9-262.2,50.9c-2.6,0.5-5.6,1.7-7.6,1c-2.3-0.9-3.9-3.3-5.4-5.5c-0.6-0.9,0-2.7,0-4.1
				c4-113.5,7.9-226.9,11.9-340.4c0.3-9.9,1.6-11.4,11.7-13.4c194.5-37.8,388.9-75.5,583.4-113.2c10-1.9,11.2-0.9,10.9,9
				c-4,113.2-7.9,226.5-11.9,339.7c-0.4,10.9-1.4,12.1-12.3,14.2c-87.6,17-175.3,34-262.9,51C757.2,918.9,754.5,919.5,751.3,920.1z
				 M452.6,626.2c-3.6,104-7.9,226.5-11.6,330.5c189.1-36.7,394.2-76.5,583.3-113.2c3.6-104,7.9-226.5,11.6-330.5
				C846.7,549.7,641.7,589.5,452.6,626.2z"/>
		</g>
		<g id="XMLID_15700_">
			<path id="XMLID_15663_" d="M488.8,900.9c-7.4-3.4-12.8-8.5-16.7-15.3c-0.2-0.4-0.1-1.3,0.3-1.7c6.5-8,12.8-16.2,19.5-24
				c8.3-9.7,18.8-15.8,29.7-20.8c4-1.8,8.2-3.4,12.2-4.1c11.1-2.1,16.5,5.6,11.9,16.6c-2.5,6-6.6,11.1-10.5,16.4
				c-5.7,7.6-12.9,12.9-21.3,16.3c-3.8,1.5-7.5,3.1-11.2,4.9C497.1,891.7,492.7,895.8,488.8,900.9z"/>
			<path id="XMLID_14910_" d="M529.1,906.8c7.7-2.3,13.8-7.2,19.2-13.4c4.4-5,8.5-10.4,14.2-14c10.1-6.6,20.8-10.1,31.5-10.1
				c9.2-0.1,12.8,8,8.3,17.2c-2.9,5.9-7.5,10.7-12.2,15.3c-10.8,10.8-22.8,18.6-36.7,22.6c-5.6,1.6-11.1,4-16.7,5.9
				c-0.7,0.2-1.8,0.1-2.2-0.3C531.1,925.7,528.3,913.4,529.1,906.8z"/>
			<path id="XMLID_14908_" d="M533.1,933.1c-8.1,4.8-16.2,9.6-25,9.7c-6.5,0.1-9.6-3.8-10.8-9.5c-1.1-5.4,1.1-10.2,5.9-14.4
				c7.1-6,15.1-8.8,23.3-11.8C526.1,917.1,527.9,925.7,533.1,933.1z"/>
			<path id="XMLID_14905_" d="M487.6,903.2c-5.9,7.3-11.6,14.6-19.6,19.2c-6.7,3.8-12.2,2.7-15.9-2.4c-3.3-4.6-3-9.8,0.3-15.7
				c3.3-5.9,8.1-10.7,13.1-15.2c1.1-1,2.4-2,3.6-3.1C472.9,894.2,479.2,899.6,487.6,903.2z"/>
		</g>
		<g id="XMLID_15706_">
			<path id="XMLID_15712_" d="M634.5,823.5c-7.4-3.4-12.8-8.5-16.7-15.3c-0.2-0.4-0.1-1.3,0.3-1.7c6.5-8,12.8-16.2,19.5-24
				c8.3-9.7,18.8-15.8,29.7-20.8c4-1.8,8.2-3.4,12.2-4.1c11.1-2.1,16.5,5.6,11.9,16.6c-2.5,6-6.6,11.1-10.5,16.4
				c-5.7,7.6-12.9,12.9-21.3,16.3c-3.8,1.5-7.5,3.1-11.2,4.9C642.9,814.3,638.4,818.4,634.5,823.5z"/>
			<path id="XMLID_15711_" d="M674.8,829.4c7.7-2.3,13.8-7.2,19.2-13.4c4.4-5,8.5-10.4,14.2-14c10.1-6.6,20.8-10.1,31.5-10.1
				c9.2-0.1,12.8,8,8.3,17.2c-2.9,5.9-7.5,10.7-12.2,15.3c-10.8,10.8-22.8,18.6-36.7,22.6c-5.6,1.6-11.1,4-16.7,5.9
				c-0.7,0.2-1.8,0.1-2.2-0.3C676.8,848.3,674,836.1,674.8,829.4z"/>
			<path id="XMLID_15709_" d="M678.8,855.7c-8.1,4.8-16.2,9.6-25,9.7c-6.5,0.1-9.6-3.8-10.8-9.5c-1.1-5.4,1.1-10.2,5.9-14.4
				c7.1-6,15.1-8.8,23.3-11.8C671.8,839.7,673.6,848.4,678.8,855.7z"/>
			<path id="XMLID_15708_" d="M633.3,825.8c-5.9,7.3-11.6,14.6-19.6,19.2c-6.7,3.8-12.2,2.7-15.9-2.4c-3.3-4.6-3-9.8,0.3-15.7
				c3.3-5.9,8.1-10.7,13.1-15.2c1.1-1,2.4-2,3.6-3.1C618.7,816.8,624.9,822.2,633.3,825.8z"/>
		</g>
		<g id="XMLID_15714_">
			<path id="XMLID_15720_" d="M772.7,729.2c-7.4-3.4-12.8-8.5-16.7-15.3c-0.2-0.4-0.1-1.3,0.3-1.7c6.5-8,12.8-16.2,19.5-24
				c8.3-9.7,18.8-15.8,29.7-20.8c4-1.8,8.2-3.4,12.2-4.1c11.1-2.1,16.5,5.6,11.9,16.6c-2.5,6-6.6,11.1-10.5,16.4
				c-5.7,7.6-12.9,12.9-21.3,16.3c-3.8,1.5-7.5,3.1-11.2,4.9C781.1,720,776.6,724.1,772.7,729.2z"/>
			<path id="XMLID_15718_" d="M813,735.2c7.7-2.3,13.8-7.2,19.2-13.4c4.4-5,8.5-10.4,14.2-14c10.1-6.6,20.8-10.1,31.5-10.1
				c9.2-0.1,12.8,8,8.3,17.2c-2.9,5.9-7.5,10.7-12.2,15.3c-10.8,10.8-22.8,18.6-36.7,22.6c-5.6,1.6-11.1,4-16.7,5.9
				c-0.7,0.2-1.8,0.1-2.2-0.3C815,754.1,812.2,741.8,813,735.2z"/>
			<path id="XMLID_15717_" d="M817,761.5c-8.1,4.8-16.2,9.6-25,9.7c-6.5,0.1-9.6-3.8-10.8-9.5c-1.1-5.4,1.1-10.2,5.9-14.4
				c7.1-6,15.1-8.8,23.3-11.8C810,745.4,811.8,754.1,817,761.5z"/>
			<path id="XMLID_15715_" d="M771.5,731.6c-5.9,7.3-11.6,14.6-19.6,19.2c-6.7,3.8-12.2,2.7-15.9-2.4c-3.3-4.6-3-9.8,0.3-15.7
				c3.3-5.9,8.1-10.7,13.1-15.2c1.1-1,2.4-2,3.6-3.1C756.9,722.5,763.1,727.9,771.5,731.6z"/>
		</g>
		<g id="XMLID_15721_">
			<path id="XMLID_15727_" d="M908.1,614.9c-7.4-3.4-12.8-8.5-16.7-15.3c-0.2-0.4-0.1-1.3,0.3-1.7c6.5-8,12.8-16.2,19.5-24
				c8.3-9.7,18.8-15.8,29.7-20.8c4-1.8,8.2-3.4,12.2-4.1c11.1-2.1,16.5,5.6,11.9,16.6c-2.5,6-6.6,11.1-10.5,16.4
				c-5.7,7.6-12.9,12.9-21.3,16.3c-3.8,1.5-7.5,3.1-11.2,4.9C916.4,605.7,912,609.7,908.1,614.9z"/>
			<path id="XMLID_15726_" d="M948.4,620.8c7.7-2.3,13.8-7.2,19.2-13.4c4.4-5,8.5-10.4,14.2-14c10.1-6.6,20.8-10.1,31.5-10.1
				c9.2-0.1,12.8,8,8.3,17.2c-2.9,5.9-7.5,10.7-12.2,15.3c-10.8,10.8-22.8,18.6-36.7,22.6c-5.6,1.6-11.1,4-16.7,5.9
				c-0.7,0.2-1.8,0.1-2.2-0.3C950.4,639.7,947.5,627.4,948.4,620.8z"/>
			<path id="XMLID_15724_" d="M952.4,647.1c-8.1,4.8-16.2,9.6-25,9.7c-6.5,0.1-9.6-3.8-10.8-9.5c-1.1-5.4,1.1-10.2,5.9-14.4
				c7.1-6,15.1-8.8,23.3-11.8C945.4,631.1,947.2,639.7,952.4,647.1z"/>
			<path id="XMLID_15723_" d="M906.9,617.2c-5.9,7.3-11.6,14.6-19.6,19.2c-6.7,3.8-12.2,2.7-15.9-2.4c-3.3-4.6-3-9.8,0.3-15.7
				c3.3-5.9,8.1-10.7,13.1-15.2c1.1-1,2.4-2,3.6-3.1C892.2,608.1,898.5,613.6,906.9,617.2z"/>
		</g>
	</g>
</g>
</svg>
