<?xml version="1.0" encoding="utf-8"?>
<!-- Generator: Adobe Illustrator 19.0.0, SVG Export Plug-In . SVG Version: 6.00 Build 0)  -->
<svg version="1.1" id="Layer_1" xmlns="http://www.w3.org/2000/svg" xmlns:xlink="http://www.w3.org/1999/xlink" x="0px" y="0px"
	 viewBox="0 0 1200 1200" style="enable-background:new 0 0 1200 1200;" xml:space="preserve">
<style type="text/css">
	.st0{fill:#F2F2F2;}
	.st1{fill:#C0BFBF;}
	.st2{fill:#E5E5E5;}
</style>
<g id="XMLID_1_">
	<g id="XMLID_14892_">
		<polygon id="XMLID_14899_" class="st0" points="114,326.5 146.1,1030 822.2,1162.6 918.5,741.3 810.4,448.4 		"/>
		<polygon id="XMLID_14896_" class="st1" points="810.4,448.4 822.2,1162.6 1141.5,839.5 1130.5,157.4 		"/>
		<polygon id="XMLID_14893_" class="st2" points="114,326.5 810.4,448.4 1130.5,157.4 480.2,31 		"/>
	</g>
	<g id="XMLID_15730_">
		<path id="XMLID_16218_" d="M459,1001.3c-152-31.9-275.5-181.4-275.8-334c-0.4-152.2,123-250,275.1-217.9
			c151.8,32,276,181.6,276.1,332.7C734.6,935.8,612,1033.4,459,1001.3z M459.2,932.3c0-23.8,0-46.8,0-70.4
			c-8.5-1.8-16.8-3.6-25.1-5.3c0-2.3,0-4,0-6.3c8.4,1.8,16.7,3.5,25,5.3c0-30.1,0-59.7,0-89.8c-8.6-1.8-16.8-3.6-24.9-5.3
			c0-2.3,0-4,0-6.3c8.5,1.8,16.8,3.6,24.9,5.3c0-13.1,0-25.6,0-38c-14.9-3.2-29.4-6.2-44.5-9.4c0,8.5,0,16.8,0,25.1
			c-2.3-0.5-4-0.8-6.3-1.3c0-8.4,0-16.7,0-25c-30.1-6.4-59.7-12.6-89.8-19c0,8.6,0,16.8,0,24.9c-2.3-0.5-4-0.8-6.3-1.3
			c0-8.5,0-16.8,0-24.9c-23.7-5-46.9-9.9-70.5-14.9c0,4.3,0,8.1,0,12.5c-11.5-2.4-22.6-4.8-33.7-7.1
			C207.9,806.4,316,942.5,446.8,973.5c0-14.5,0-28.9,0-43.8C451.2,930.6,455,931.5,459.2,932.3z M472.1,979
			c135.9,23.3,237.8-71.5,237.4-191.8c-12.9-2.7-25.7-5.4-39.2-8.3c0-4.5,0-8.5,0-12.4c-19.5-4.1-38.4-8.1-57.6-12.2
			c0,6.4,0,12.4,0,18.4c-2.2-0.5-4.1-0.9-6.5-1.4c0-6.4,0-12.6,0-18.6c-30-6.4-59.4-12.6-89.4-18.9c0,6.4,0,12.5,0,18.7
			c-2.3-0.5-4-0.8-6.3-1.3c0-6.3,0-12.4,0-18.6c-15.2-3.2-29.8-6.3-44.4-9.4c0,12.9,0,25.4,0,38.2c6.4,1.4,12.4,2.6,18.4,3.9
			c0,2.2,0,4.1,0,6.5c-6.5-1.4-12.6-2.7-18.5-3.9c0,30,0,59.4,0,89.4c6.4,1.4,12.5,2.7,18.7,4c0,2.3,0,4,0,6.3
			c-6.3-1.3-12.4-2.6-18.6-3.9c0,23.8,0,46.9,0,70.2c2.1,0.6,3.8,1.1,6,1.7C472.1,949.9,472.1,964.2,472.1,979z M434.1,568.9
			c0-2.4,0-4.2,0-6.5c8.5,1.8,16.7,3.5,25,5.3c0-17.3,0-34.1,0-51.3c-4.2-0.9-8.1-1.7-12.4-2.6c0-12.9,0-25.4,0-37.9
			c-112.8-22.1-228.8,46.3-238.5,179.4c11.1,2.4,22.2,4.7,33.5,7.1c0.2,2.4,0.3,4.3,0.5,6.1c23.6,5,46.8,9.9,70.3,14.9
			c0-6.4,0-12.4,0-18.5c2.2,0.5,4,0.9,6.5,1.4c0,6.4,0,12.5,0,18.6c30,6.4,59.4,12.6,89.4,18.9c0-6.4,0-12.5,0-18.7
			c2.3,0.5,4,0.8,6.3,1.3c0,6.3,0,12.4,0,18.6c15.2,3.2,29.8,6.3,44.4,9.4c0-15,0-29.6,0-44.6c-8.5-1.8-16.6-3.5-24.8-5.3
			c0-2.2,0-4,0-6.5c8.6,1.8,16.8,3.6,24.9,5.3c0-30,0-59.4,0-89.3C450.8,572.4,442.7,570.7,434.1,568.9z M466.2,518.3
			c0,17.2,0,34,0,51.1c6.4,1.3,12.3,2.6,18.5,3.9c0,2.2,0,4,0,6.5c-6.4-1.4-12.5-2.7-18.6-3.9c0,30,0,59.4,0,89.4
			c6.4,1.3,12.5,2.6,18.9,4c-0.1,2.4-0.2,4.2-0.3,6.4c-6.5-1.4-12.5-2.6-18.6-3.9c0,15,0,29.7,0,44.3c15,3.2,29.6,6.3,44.6,9.5
			c0-8.5,0-16.6,0-24.9c2.2,0.5,4,0.9,6.5,1.4c0,8.6,0,16.8,0,25c30,6.4,59.4,12.6,89.4,18.9c0-8.5,0-16.8,0-25.3
			c2.4,0.6,4.2,1.1,6.5,1.7c0,8.6,0,16.7,0,25c19.3,4.1,38.2,8.1,57.1,12.1c0.3-2.1,0.5-3.9,0.8-6c12.9,2.7,25.4,5.4,38,8.1
			c-6.4-125.5-115.5-251.4-236.8-280c0,12.5,0,25,0,37.8C470,518.8,468.3,518.6,466.2,518.3z"/>
	</g>
</g>
</svg>
