<?xml version="1.0" encoding="utf-8"?>
<!-- Generator: Adobe Illustrator 19.0.0, SVG Export Plug-In . SVG Version: 6.00 Build 0)  -->
<svg version="1.1" id="Layer_1" xmlns="http://www.w3.org/2000/svg" xmlns:xlink="http://www.w3.org/1999/xlink" x="0px" y="0px"
	 viewBox="0 0 1200 1200" style="enable-background:new 0 0 1200 1200;" xml:space="preserve">
<style type="text/css">
	.st0{fill:#4DBEC0;}
</style>
<g id="XMLID_1_">
	<path id="XMLID_11150_" class="st0" d="M728.1,958.1c-9.3-1.8-18.9-2.4-28.2-4.2c-3.1-0.6-7.9-3.3-8.3-5.5
		c-4-26.7-7.3-53.6-10.9-80.7h67.6V790H75V282.2h1003.6v236.4h38.8c0-86.3,0-172.6,0-258.8c0-21.2-7.5-28.8-28.5-28.8
		C748,231,407,231,66.1,231c-21.9,0-30,8.1-30,29.9c0,188.7,0,377.3,0,566c0,2.5-0.1,4.9,0,7.4C37,853.6,50.8,867,70.1,867
		c124.4,0,248.7,0,373.1,0h13.7c-4,29.8-7.8,58.2-11.6,86.2c-12.9,2.4-24.4,4.3-35.7,6.8c-2.4,0.5-4.2,3.5-6.3,5.4
		c2.3,1.1,4.6,2.5,7,3.3c1.6,0.5,3.5,0.1,5.3,0.1h305.3c2.1,0,4.5,0.6,6.3-0.2c2.5-1.1,4.7-3.1,7-4.8
		C732.1,961.8,730.4,958.5,728.1,958.1z"/>
	<g id="XMLID_9163_">
		<path id="XMLID_11141_" class="st0" d="M926.5,930.3v-11.7c0-74.2,0-148.3,0-222.5c0-19.3,0-19.3-19.5-19.9
			c-1.7-0.1-83.3,0-102.5,0c-35.5,0.1-30.3-3.5-30.5,30.3c-0.2,27.5,0,55.1,0,83.4l0,77.7c0,27.1,0,53.5,0,79.9
			c0,16.8,4.4,21.2,21.3,21.2c48,0,83,0,131,0L926.5,930.3z M860.1,692.4c0.1,0.9,0.3,1.9,0.4,2.8h-23.5c0-0.9-0.1-1.9-0.1-2.8
			H860.1z M849.5,954.1c-7.3,0.1-14-6.3-13.3-13.5c0.7-7.6,4.8-12.4,13-12.5c8.2-0.1,12.4,4.7,13.4,12.2
			C863.5,947.3,856.7,954,849.5,954.1z M913.4,917.4h-126V727.8h126V917.4z"/>
		<path id="XMLID_11153_" class="st0" d="M1180.9,567.4c-0.1-13.5-5.1-18.3-18.6-18.4c-14.5,0-28.9,0-45,0h-50.3
			c-61.1,0-122.2,0-183.3,0c-15.6,0-20.7,5.2-20.7,21c0,27.3,0,54.6,0,82.6h38.6v-52h253.3v329.6h-212v38.5c72.3,0,144.7,0,217,0
			c17.7,0,21.1-3.4,21.1-20.8c0-97.9,0-195.7,0-293.6C1181,625.4,1181.1,596.4,1180.9,567.4z"/>
	</g>
</g>
</svg>
