<?xml version="1.0" encoding="utf-8"?>
<!-- Generator: Adobe Illustrator 19.0.0, SVG Export Plug-In . SVG Version: 6.00 Build 0)  -->
<svg version="1.1" id="Layer_1" xmlns="http://www.w3.org/2000/svg" xmlns:xlink="http://www.w3.org/1999/xlink" x="0px" y="0px"
	 viewBox="0 0 1200 1200" style="enable-background:new 0 0 1200 1200;" xml:space="preserve">
<style type="text/css">
	.st0{fill:#4CBEC0;}
</style>
<g id="XMLID_15772_">
	<g id="XMLID_9164_">
		<path id="XMLID_11058_" class="st0" d="M934.4,23.4c3.3,1.6,6.7,3.1,10,4.8c18.4,9.3,28.2,24.4,30,44.8c0.2,2.2,0.1,4.5,0.1,6.7
			c0,346.9,0,693.7,0,1040.6c0,28.5-15.3,49.1-41.1,55.1c-4,0.9-8.2,1.1-12.4,1.1c-222.9,0-445.8,0.1-668.7,0
			c-31.4,0-53.8-22.3-53.8-53.8c-0.1-348.1,0-696.3,0-1044.4c0-28.9,15.6-46.1,42-54.9C471.8,23.4,703.1,23.4,934.4,23.4z
			 M236.9,1063.8c3.8,0.2,7.2,0.5,10.7,0.5c226.8,0,453.5,0,680.3,0.2c9.3,0,11.7-2.7,11.7-11.9c-0.2-302-0.2-604.1,0-906.1
			c0-9-2.2-11.8-11.6-11.8c-226.8,0.3-453.5,0.2-680.3,0.2c-3.4,0-6.8,0-10.8,0C236.9,445,236.9,754,236.9,1063.8z M586.6,1152
			c16.9-0.1,30.6-14,30.3-30.5c-0.4-16.4-13.8-29.6-30.2-29.6c-16.8-0.1-30.8,13.5-30.8,30.1C555.8,1138.5,569.7,1152.1,586.6,1152z
			 M586,95.4c3.9-5.6,7.9-8.8,7.8-11.9c0-2.8-4.6-5.4-7.1-8.1c-2.8,2.8-7.1,5.2-7.8,8.4C578.3,86.2,582.3,89.7,586,95.4z"/>
	</g>
	<path id="XMLID_11118_" class="st0" d="M589.7,535.8c0-54,0-108,0-162c0-14.7,0.4-15,14.5-15c99,0,197.9,0,296.9,0
		c13.6,0,14.7,1,14.7,15.2c0,107.6,0,215.2,0,322.7c0,14.6-1.3,16-15.4,16c-98.6,0-197.2,0-295.8,0c-14.2,0-14.9-0.8-14.9-16.2
		C589.6,643,589.7,589.4,589.7,535.8z M603.8,696.9c99.6,0,198,0,296.9,0c0-108.1,0-215.4,0-323.1c-99.4,0-198,0-296.9,0
		C603.8,481.8,603.8,588.9,603.8,696.9z"/>
	<g id="XMLID_15768_">
		<path id="XMLID_11113_" class="st0" d="M592.9,808.1c89.4,0,178.8,0,268.2,0c6.1,0,12.7-1.2,18.1,0.8c4.9,1.9,12.3,8.6,11.7,11.3
			c-1.3,5.5-6.7,11.1-11.9,13.9c-4.3,2.3-10.6,0.7-16,0.7c-180.9,0-361.7,0-542.6,0c-2.7,0-6,1-8-0.2c-7-4.4-13.5-9.5-20.3-14.4
			c6.8-4.1,13.5-11.6,20.3-11.7c61.6-0.9,123.3-0.6,184.9-0.6C529.2,808.1,561,808.1,592.9,808.1z"/>
		<path id="XMLID_11112_" class="st0" d="M592.4,870.4c90.1,0,180.2,0,270.3,0c5.4,0,11.7-1.6,16,0.7c5.2,2.7,10.8,8.2,12.2,13.6
			c0.7,2.8-6.6,9.2-11.4,11.8c-3.8,2-9.3,0.8-14,0.8c-182.2,0-364.4,0-546.7,0c-3.4,0-7.6,1.3-10-0.3c-6-3.9-11.2-9.1-16.7-13.8
			c5.3-4.3,10-9.8,15.9-12.4c4.6-2,10.7-0.5,16.1-0.5C413.6,870.4,503,870.4,592.4,870.4z"/>
		<path id="XMLID_11102_" class="st0" d="M592.8,746.2c90.1,0,180.1,0,270.2,0c5.4,0,11.4-1.2,16.1,0.7c4.9,2,8.5,7.2,12.7,11
			c-4.2,4.7-7.7,10.8-12.8,13.5c-4.3,2.3-10.6,0.6-16,0.6c-180.8,0-361.6,0-542.4,0c-4.1,0-9,1.5-12-0.3c-6-3.6-11-9.1-16.4-13.8
			c5.4-3.9,10.7-11,16.3-11.2c33.1-1.1,66.3-0.6,99.5-0.6C469.5,746.2,531.1,746.2,592.8,746.2z"/>
		<path id="XMLID_11101_" class="st0" d="M592.9,1021.6c-90.7,0-181.5,0-272.2,0c-6.1,0-12.6,1-18.1-0.9c-4.1-1.5-10.1-7.3-9.7-10.4
			c0.6-4.9,5.1-10.9,9.5-13.3c4.3-2.3,10.6-0.9,16-0.9c182.1,0,364.3,0,546.4,0c4.7,0,10.4-1.6,14,0.5c5.1,3,8.7,8.7,13,13.3
			c-4.1,3.8-7.7,9.1-12.6,11.1c-4.7,2-10.7,0.6-16.1,0.6C773,1021.6,682.9,1021.6,592.9,1021.6z"/>
		<path id="XMLID_11100_" class="st0" d="M592.8,959.4c-90.1,0-180.1,0-270.2,0c-6.1,0-12.7,1.2-18.1-0.8c-4.8-1.8-12.2-8.4-11.5-11
			c1.4-5.4,6.6-10.8,11.6-13.8c3.5-2.2,9.2-0.7,14-0.7c182.2,0,364.3,0,546.5,0c4.7,0,10.4-1.6,14,0.6c5.1,3.1,8.6,9,12.8,13.7
			c-4.2,3.9-7.8,9.3-12.7,11.1c-5.4,2-12,0.9-18.1,0.9C771.6,959.4,682.2,959.4,592.8,959.4z"/>
	</g>
	<g id="XMLID_15754_">
		<path id="XMLID_11106_" class="st0" d="M490.4,296c0-33.1-0.6-65.8,0.3-98.5c0.4-13.9,20.4-25.2,42.8-26
			c24.2-0.9,44.5,8.1,49.6,22.3c1.2,3.3,1.8,6.9,1.8,10.3c0.1,27.7-0.1,55.5,0.2,83.2c0.1,6.9-2.4,10.9-14.8,10.8
			c-12.5-0.2-12.2-5.2-12.1-10.9c0.2-14.2,0.1-28.4,0.1-43.3c-14.1,0-26.8,0-41.7,0c0,14.1,0.1,27.8,0,41.6
			C516.3,298.6,514.4,299.5,490.4,296z M558.1,225.4c0-9.4,2.2-17.8-0.8-25.3c-1.9-4.7-11-10.5-18.1-11.4
			c-5.9-0.8-18.7,4.3-19.9,7.9c-2.9,9.2-1,19.1-1,28.9C532.4,225.4,544.2,225.4,558.1,225.4z"/>
		<path id="XMLID_11099_" class="st0" d="M413.2,171c29.3,0,52,16.5,47.3,35.2c-0.7,2.7-8.1,6.7-12.1,6.6
			c-5.1-0.2-13.8-3.8-14.1-6.2c-1-8.6-1.6-17.1-17.6-18.3c-6.3-0.5-15.6,2.2-19.6,5.5c-10.8,8.7,1.8,14.7,9,20.9
			c13.7,11.6,27.7,23.1,41.6,34.6c16.1,13.4,17.5,23.8,4.7,35.5c-12.2,11.2-35.3,15.8-55.5,11.2c-19.7-4.6-31.7-17.4-31.3-31.8
			c0.2-7.4,5.3-9.1,15.4-9c12.7,0,12,5.3,12.4,10.9c0.8,10.8,10.5,16.4,24.5,14.5c15.1-2,20.2-11.9,10-20.5
			c-16.6-14.1-33-28.3-50.7-41.7c-12.9-9.8-14.8-19.8-6-30.8C380,176.5,394.5,171.3,413.2,171z"/>
		<path id="XMLID_11098_" class="st0" d="M743.9,187.7c0,13,0,24.7,0,37.8c9.6,0,18.3,0.2,27,0c10.1-0.3,15.4,3.1,12.8,9
			c-1.5,3.3-7.4,7.2-12.4,8c-8.3,1.3-17.4,0.4-27.2,0.4c0,13,0,24.7,0,38c8.6,0,16.7,0.2,24.8-0.1c10-0.4,15.7,1.3,15.6,8.8
			c-0.1,7-5.5,8.4-14.6,8.4c-63.8-0.1-53.7,3.2-54.2-32.7c-0.3-27,0.3-54-0.3-81c-0.2-9.3,4.9-13.7,19.6-13.4
			c12.5,0.3,25.1-0.6,37.4,0.4c4.3,0.3,11.3,5,10.9,7.2c-0.6,3.3-5.9,8-10.5,8.7C763.9,188.6,754.2,187.7,743.9,187.7z"/>
		<path id="XMLID_11097_" class="st0" d="M644.5,280.8c11.2,0,19.5,0.2,27.8,0c9.3-0.2,14.5,1.5,14.5,8.4c0.1,6.7-4.4,9.1-13.9,8.8
			c-0.6,0-1.2,0-1.8,0c-62.5-0.1-51.9,3.2-52.5-32.4c-0.4-28.1,0.1-56.3-0.2-84.4c-0.1-6.1,0.9-10.3,13.1-10.3
			c12.2,0,13.1,4.3,13.1,10.4c-0.2,28.5-0.1,57.1-0.1,85.6C644.5,270.9,644.5,275.1,644.5,280.8z"/>
	</g>
	<g id="XMLID_15766_">
		<path id="XMLID_11096_" class="st0" d="M427.6,504.5c40.1,0,80.2-0.8,120.2,0.5c9.7,0.3,19.1,7.4,28.6,11.4
			c-9.1,4.4-18.1,12.4-27.2,12.5c-81.7,1-163.5,0.6-245.3,0.5c-11.9,0-27.8,0.9-25.7-12.7c0.8-4.9,17.2-11.3,26.8-11.6
			C345.8,503.7,386.7,504.5,427.6,504.5z"/>
		<path id="XMLID_11092_" class="st0" d="M425.5,382.8c42.6,0,85.2-0.6,127.8,0.5c7.8,0.2,15.4,7.3,23.1,11.1
			c-7.8,3.9-15.6,11.1-23.4,11.2c-84.4,0.8-168.8,0.8-253.2,0c-7.7-0.1-15.2-7.4-22.8-11.4c7.7-3.8,15.3-10.7,23.2-10.9
			C341.9,382.2,383.7,382.8,425.5,382.8z"/>
		<path id="XMLID_11091_" class="st0" d="M425.5,651.1c-41.8,0-83.6,0.6-125.4-0.5c-7.8-0.2-15.4-7.1-23.1-11
			c7.6-3.9,15.2-11.2,22.8-11.3c84.4-0.8,168.8-0.8,253.2,0c7.9,0.1,15.6,7.2,23.4,11.1c-7.7,3.9-15.3,11-23.1,11.2
			C510.7,651.7,468.1,651.1,425.5,651.1z"/>
		<path id="XMLID_11090_" class="st0" d="M425.3,590c-41,0-82,0.1-123-0.1c-10.9-0.1-26.2,1.4-24-11.7c0.8-4.8,15.6-11.6,24.1-11.7
			c82.8-0.9,165.6-0.9,248.4,0c8.6,0.1,17.1,7.6,25.6,11.7c-8.6,3.9-17,11-25.7,11.2C508.9,590.6,467.1,590,425.3,590z"/>
		<path id="XMLID_11089_" class="st0" d="M427.5,468c-41.8,0-83.6,0.7-125.4-0.6c-8.5-0.3-16.7-7.7-25.1-11.8
			c8.5-3.9,17-11.1,25.6-11.2c82.8-0.9,165.6-0.6,248.4-0.5c11.1,0,26.1-0.9,24.1,11.8c-0.8,4.8-15.8,11.4-24.7,11.6
			C509.5,468.7,468.5,468,427.5,468z"/>
	</g>
	<path id="XMLID_11078_" class="st0" d="M752.4,642.8c-21.9,0-43.9-0.2-65.8,0.1c-8.6,0.1-11.9-2.9-11.8-11.5
		c0.3-27.7-0.2-55.4,0.3-83.1c0.1-7.8-2.3-12.4-9.8-14.7c-2.8-0.9-5.4-2.4-8.1-3.6c-22-10.2-22.2-5.4-17.2-32.5
		c5.8-32,24.4-57.1,51.2-75.4c6.7-4.6,18.4-2.5,27.8-2.3c1.7,0,4.2,5.4,4.9,8.6c3.1,14.2,12.6,22.3,27.2,22.3
		c14.7,0,25-7.9,27.1-22.1c1.1-7.3,4.3-9.7,11.5-10.3c12.6-1,22.9,2.2,32.4,10.7c22.9,20.5,39.5,44.3,44.5,74.9
		c2.5,15.4,2.3,18.2-12.7,23c-18.8,6-25.4,16.4-23.6,35.9c2.2,22.4,0.3,45.2,0.6,67.8c0.1,8.7-3.2,12.5-12.5,12.3
		C796.3,642.5,774.3,642.8,752.4,642.8z M825.5,525.2c7.2-3.3,13-6.6,19.3-8.7c6.9-2.3,8.6-5.9,7.4-13c-4.7-27-19.9-47.6-40.5-64.7
		c-5-4.1-12.3-5.6-18.9-8.4c-6.8,21.8-19.4,32.8-39.6,33.6c-22.7,0.9-36.8-10.8-43.9-32.7c-5,1.4-10.4,1.4-13.7,3.9
		c-21.8,17.2-36.8,38.8-42.7,66c-1.6,7.6-0.3,12.6,8.3,15.9c19.4,7.4,13.4,10.2,27.8-6.1c1.7-1.9,3-4.6,5.2-5.6
		c3.8-1.8,8.1-2.6,12.2-3.9c-0.5,4.1,0.5,10.1-1.9,12.1c-14.6,12.5-17.3,28-16.4,46c1.2,22.8,0.3,45.7,0.3,69c43.1,0,84.9,0,127.9,0
		c0-20.3-0.9-39.9,0.3-59.5c1.3-21.6-0.7-41.2-19.5-55.7c-0.3-0.2-0.7-0.5-0.7-0.8c-0.4-3.6-0.7-7.2-1-10.8
		c3.8,0.7,8.9,0.1,11.3,2.3C813.4,510.4,819,517.8,825.5,525.2z"/>
</g>
</svg>
