<?xml version="1.0" encoding="utf-8"?>
<!-- Generator: Adobe Illustrator 19.0.0, SVG Export Plug-In . SVG Version: 6.00 Build 0)  -->
<svg version="1.1" id="Layer_1" xmlns="http://www.w3.org/2000/svg" xmlns:xlink="http://www.w3.org/1999/xlink" x="0px" y="0px"
	 viewBox="0 0 1200 1200" style="enable-background:new 0 0 1200 1200;" xml:space="preserve">
<style type="text/css">
	.st0{fill:#4BBEC0;}
</style>
<g id="XMLID_10053_">
	<path id="XMLID_10054_" class="st0" d="M523.4,925.2c-2.2-14.8-4.5-29.3-6.4-43.8c-7-53.5-13.7-107-20.9-160.4
		c-1-7.7,0.5-11.4,8.3-14.5c56.5-22.5,112.7-45.6,169-68.5c3-1.2,6.1-2.2,10-3.5c4.1,34,8.5,67.1,12.2,100.4
		c3.8,34.6,7,69.4,10.6,104c0.5,4.9,0.4,8.5-5.3,10.9c-57.4,24.6-114.6,49.6-171.9,74.4C527.8,924.6,526.5,924.6,523.4,925.2z"/>
	<path id="XMLID_10055_" class="st0" d="M891.6,547.5c1.8,23.5,3.9,46.7,5.4,70c2.9,43.7,5.3,87.5,8.3,131.2
		c0.5,7.9-1.4,12.1-9.1,15.5c-55.3,23.8-110.3,48.2-165.4,72.4c-2.7,1.2-5.4,2.2-9.2,3.7c-3.3-27.9-6.7-54.9-9.6-82
		c-4.4-41.3-8.5-82.5-12.2-123.9c-0.3-3.1,2.3-8.5,5-9.6c60.9-25.7,122-51,183.1-76.3C888.7,548.1,889.7,548,891.6,547.5z"/>
	<path id="XMLID_10056_" class="st0" d="M661.1,419.9c1.5,13.1,2.9,25.1,4.1,37c5.1,50.4,10.3,100.8,15,151.2
		c0.3,3.3-1.6,9.1-4.1,10.1c-60,25.8-120.3,51.1-182.2,77.1c-1.7-8.8-3.5-15.9-4.5-23.2c-7.7-54.7-15.2-109.4-23.1-164.1
		c-1.4-9.4,1.7-14,10.7-17.5c58.6-22.4,117-45.4,175.5-68.1C654.5,421.8,656.8,421.2,661.1,419.9z"/>
	<path id="XMLID_10057_" class="st0" d="M876.4,338.1c1.5,16.8,3.2,32.5,4.3,48.1c3.2,45.7,6,91.4,9.1,137c0.3,5-0.4,8.3-6,10.6
		c-60.8,25-121.5,50.3-182.3,75.6c-1.1,0.5-2.4,0.6-5.4,1.4c-2-16.5-4.1-32.4-5.8-48.2c-4.6-43.9-9-87.8-13.5-131.7
		c-1.7-17.1-1.8-17.4,13.8-23.3c59-22.4,118.2-44.5,177.3-66.7C870.1,340,872.3,339.4,876.4,338.1z"/>
	<path id="XMLID_10058_" class="st0" d="M557.4,1160.2c-5.1-32.7-10.6-64.7-15.1-96.9c-5.3-37.8-9.9-75.6-14.8-113.5
		c-0.7-5.1-0.6-9.2,5.6-11.8c57.5-24.3,114.9-49,172.3-73.5c0.6-0.2,1.3-0.2,3.2-0.6c1.5,11.9,3.2,23.7,4.6,35.6
		c6.1,52.9,12.2,105.9,17.9,158.8c0.3,3.2-1.9,8.6-4.5,10.1c-54.6,30.3-109.5,60.1-164.3,90C561.1,1159,559.8,1159.3,557.4,1160.2z"
		/>
	<path id="XMLID_10059_" class="st0" d="M744.4,1057.7c-7-67.3-14-133.9-21.1-201.8c60.7-26.4,121.4-52.7,183.3-79.6
		c2.3,25.4,4.7,48.8,6.4,72.3c2.6,34.8,4.6,69.6,6.9,104.4c0.4,5.4,0.5,9.8-5.7,13.1c-55,29.6-109.8,59.5-164.7,89.4
		C748.4,1056.2,747.2,1056.5,744.4,1057.7z"/>
	<path id="XMLID_10060_" class="st0" d="M920.9,753.4c-1.1-13.8-2.3-26.8-3.1-39.8c-3.6-54.9-7.2-109.8-10.8-164.6
		c-0.3-4.9-0.3-8.4,5.5-10.7c50-20.1,99.9-40.6,149.9-61c1.2-0.5,2.4-0.7,4.4-1.2c0.5,2.9,1.2,5.4,1.2,7.8
		c0.6,64.9,1.1,129.8,1.9,194.7c0.1,7.3-2.3,11.1-9.1,14.1c-43.8,19-87.3,38.4-131,57.6C927.4,751.3,924.9,752,920.9,753.4z"/>
	<path id="XMLID_10061_" class="st0" d="M1044.8,174.7c-3.9,2.6-6.1,4.3-8.5,5.7c-43.4,24.8-86.8,49.6-130.5,74
		c-4,2.3-10,3-14.6,2.1c-38.9-8.2-77.7-17-116.5-25.7c-1.5-0.3-3-0.9-6.5-2c18.4-11.3,35.2-21.7,52.1-32.1c-0.3-0.6-0.6-1.3-0.9-1.9
		c-3.4,1.4-6.9,2.7-10.3,4.1c-23.8,9.6-47.5,19.4-71.3,28.8c-3,1.2-7.6,2.3-9.9,0.8c-33.3-21.7-66.4-43.8-100.8-66.6
		c3.8-1.8,6.2-3.1,8.8-4c35.5-13.1,70.9-26.3,106.5-38.9c4.2-1.5,10.4-1,14.5,1c32.9,15.7,65.7,31.8,98.3,48.2
		c5,2.5,9.1,3.3,13.4-0.6c17.4-15.8,37-15,58.7-10.9c36.8,6.9,74.1,11.4,111.2,16.9C1039.9,173.7,1041.4,174,1044.8,174.7z"/>
	<path id="XMLID_10062_" class="st0" d="M1049.7,192.5c0,62.2,0,122.1-0.1,182c0,2.5-1.4,6-3.4,7.2c-42.5,27.5-85.2,54.7-129.2,82.9
		c-1.2-13.4-2.4-25.3-3.3-37.3c-3.7-47.9-7.4-95.8-10.8-143.7c-0.2-3.1,1.8-7.9,4.3-9.3c45-26.6,90.3-52.8,135.5-79.1
		C1043.8,194.6,1045,194.3,1049.7,192.5z"/>
	<path id="XMLID_10063_" class="st0" d="M1071.7,707.1c0,9.2-0.1,16.7,0,24.2c0.4,45.4,0.7,90.9,1.4,136.3c0.1,8-3,12.2-9.9,16
		c-39.5,21.6-78.8,43.7-118.2,65.6c-2.9,1.6-5.8,3-10,5.2c-0.7-3.8-1.5-6.8-1.7-9.8c-3.7-56.2-7.4-112.3-10.8-168.5
		c-0.2-2.7,1.9-7.3,4.1-8.3c45.8-19.9,91.8-39.3,137.8-58.9C1065.9,708.3,1067.5,708.1,1071.7,707.1z"/>
	<path id="XMLID_10064_" class="st0" d="M502.6,929.7c-11.2-7-20.7-12.9-30-18.8c-27.3-17.1-54.7-34.1-81.8-51.6
		c-3.5-2.3-6.6-7.2-7.2-11.3c-9.3-64.1-18.2-128.3-27.2-192.5c-0.2-1.6,0-3.2,0-5.9c14.4,7.1,28.2,13.9,41.9,20.8
		c22.9,11.5,45.7,23.4,68.7,34.7c5.3,2.6,7.7,5.9,8.5,11.7c7.5,57.4,15.2,114.8,22.8,172.2C499.8,901.9,501,914.8,502.6,929.7z"/>
	<path id="XMLID_10065_" class="st0" d="M387.4,874.8c14.8,9.2,28.5,17.5,42,26.1c23.4,14.7,46.9,29.3,70,44.4
		c3.6,2.3,7.2,7.2,7.7,11.2c9.1,69.2,17.6,138.4,26.3,207.6c0.3,2.2,0,4.4,0,7.9c-3.2-2.3-5.6-3.9-7.8-5.7
		c-35.3-28.6-70.6-57.2-105.6-86.1c-3.3-2.7-6.8-6.9-7.3-10.8c-8.7-61.9-17-123.8-25.3-185.8C387.1,881.4,387.4,879.1,387.4,874.8z"
		/>
	<path id="XMLID_10066_" class="st0" d="M472.8,691.7c-25.7-13-48.9-24.5-72-36.3c-11.7-6-23-13-34.9-18.3
		c-8.5-3.8-12.5-9.5-13.7-18.5c-5.2-37.5-10.7-74.9-16-112.4c-3-21.5-5.8-43.1-8.6-64.6c-0.2-1.5,0-3.1,0-5.6
		c40.4,19.4,80,38.5,120,57.8C455.8,558,464.1,623.5,472.8,691.7z"/>
	<path id="XMLID_10067_" class="st0" d="M199.1,375c14.3,6.7,27,12.7,39.8,18.7c22.3,10.5,44.7,20.9,66.8,31.8
		c3.2,1.6,7,5.6,7.4,8.9c8,61,15.5,122.1,23.1,183.1c0.1,0.9-0.1,1.9-0.3,3.9c-2.9-1.2-5.6-2.1-8-3.3c-30.5-15.4-61-30.9-91.7-46.1
		c-5.5-2.7-8.2-6.1-9.1-12.5c-8.7-56.9-17.8-113.7-26.7-170.6C199.7,384.9,199.6,380.7,199.1,375z"/>
	<path id="XMLID_10068_" class="st0" d="M364.8,842.6c-6.5-4.1-12.6-7.8-18.6-11.7c-25-15.9-49.9-32-75-47.6
		c-6-3.8-9.6-8.2-10.8-15.3c-7.6-47.7-15.4-95.4-23.1-143.2c-1.9-12-3.5-24-5.5-37.4c3.5,1.4,6.2,2.1,8.6,3.4
		c30.9,15.4,61.8,30.7,92.5,46.6c3.7,1.9,7.7,6.7,8.2,10.5c8.5,63.6,16.4,127.2,24.4,190.9C365.6,839.8,365.1,840.7,364.8,842.6z"/>
	<path id="XMLID_10069_" class="st0" d="M543.8,347.4c10.2-4.4,19.3-8.7,28.6-12.4c51.1-20.8,102.3-41.5,153.6-62
		c3.1-1.3,7.3-2.5,10.2-1.5c40.5,15.3,80.8,31,123.3,47.3c-4.6,2.2-7.1,3.6-9.7,4.6c-60.5,23.1-120.9,46.2-181.5,69.1
		c-3.6,1.4-8.6,1.9-12,0.6c-36.4-14.2-72.7-28.9-108.9-43.5C546.5,349.3,545.8,348.7,543.8,347.4z"/>
	<path id="XMLID_10070_" class="st0" d="M393.6,1058.6c-21.5-17.6-41.3-33.8-61.1-50c-5.1-4.2-9.8-9.1-15.3-12.4
		c-19.1-11.5-27.7-28-30.3-50.4c-5.2-45.4-13.1-90.5-19.8-135.8c-0.5-3.5-0.5-7.2-0.9-12.4c5.7,3.5,10.3,6.3,14.9,9.2
		c27.3,17.3,54.6,34.4,81.6,52c3.4,2.2,7.1,6.5,7.6,10.2c8.1,60.7,15.6,121.4,23.3,182.2C393.8,1052.9,393.6,1054.5,393.6,1058.6z"
		/>
	<path id="XMLID_10071_" class="st0" d="M210.3,558c-16.1-7.9-31.4-15.3-46.6-23c-12.9-6.6-25.9-12.9-38.2-20.6
		c-4.7-2.9-9.6-8.7-10.6-13.9c-9.2-46.1-17.5-92.3-26-138.5c-2.4-13.2-4.5-26.4-7-41.1c5.6,2.1,9.6,3.2,13.3,5
		c24.9,11.9,49.6,24.2,74.6,35.9c9.1,4.2,13.6,9.9,15.1,20.4c7.9,56.3,16.8,112.5,25.2,168.7C210.6,552.9,210.3,554.8,210.3,558z"/>
	<path id="XMLID_10072_" class="st0" d="M495.7,349.2c-5.9,2.7-11.7,5.5-17.8,8c-43.8,17.7-87.7,35.4-131.6,52.9
		c-3.3,1.3-8.1,2.2-10.9,0.8c-38.2-18.4-76.2-37.1-114.2-55.9c-1.4-0.7-2.5-1.8-5.1-3.7c6.7-2.4,12.2-4.3,17.6-6.3
		c41.1-14.8,82.2-29.7,123.3-44.2c4.4-1.6,10.1-2.9,14.1-1.4c41.6,15.1,83,30.8,124.4,46.3C495.6,346.8,495.7,348,495.7,349.2z"/>
	<path id="XMLID_10073_" class="st0" d="M252.4,154c36.6-6.3,70.9-12.2,105.2-18.1c29.5-5.1,59-10.4,88.5-14.8
		c5.4-0.8,12.5,0.6,17,3.7c22.2,15.3,43.8,31.5,65.6,47.5c2.3,1.7,4.4,3.6,7.8,6.4c-29.8,6.9-58.2,13.6-86.5,20.1
		c-33.6,7.8-67.3,15.6-101,23c-3.8,0.8-9.2,0.9-11.9-1.1C309.4,199.3,281.9,177.4,252.4,154z"/>
	<path id="XMLID_10074_" class="st0" d="M413.5,276.6c28.3-15.7,54.4-30.2,80.6-44.7c17.8-9.9,35.6-19.9,53.6-29.6
		c3.3-1.8,7.5-3.1,11.1-2.7c42.8,5.3,85.5,11.1,128.3,16.7c1.6,0.2,3.2,0.5,6.2,1.1c-3.1,2.4-5.2,4.2-7.5,5.7
		c-42.2,28.1-84.4,56.3-126.8,83.9c-4,2.6-10.5,3.7-15.2,2.6c-40.3-9.6-80.4-19.9-120.6-30C420.6,279,418.3,278.1,413.5,276.6z"/>
	<path id="XMLID_10075_" class="st0" d="M242.8,765.5c-14.5-9.2-28-17.6-41.5-26.3c-13-8.4-25.8-17.1-38.8-25.5
		c-8.2-5.3-12.8-12.3-14.4-22.2c-8.6-51.2-17.8-102.3-26.7-153.5c-0.3-1.9-0.3-3.8-0.6-7.5c12.8,6.1,24.7,11.4,36.3,17.2
		c17.1,8.5,34.1,17,50.9,26c3.2,1.7,6.8,5.6,7.4,9c9.4,58.1,18.4,116.2,27.4,174.4C243.1,759.4,242.8,761.7,242.8,765.5z"/>
	<path id="XMLID_10076_" class="st0" d="M637.6,403.9c-58.4,22-115.3,43.5-172.3,64.8c-2.3,0.8-5.4,1.2-7.5,0.3
		c-32.5-15-64.8-30.3-99.3-46.5c5.1-2.4,7.5-3.6,10-4.7c48-19.8,96.1-39.6,144.2-59.1c3.6-1.5,8.6-2.5,12-1.2
		c36.5,14.1,72.8,28.8,109.1,43.3C634.6,401.3,635.2,402,637.6,403.9z"/>
	<path id="XMLID_10077_" class="st0" d="M156.6,729.8c15.1,9,29.2,17.2,43.1,25.7c14,8.6,27.9,17.4,41.6,26.5c2.7,1.8,5.7,5,6.2,7.9
		c8.7,55.2,17,110.4,25.3,165.6c0.1,0.6-0.2,1.3-0.4,3c-2.7-1.9-5.1-3.3-7.2-5.1c-25.2-20.6-50.5-41.1-75.3-62.2
		c-4-3.4-7.5-9.2-8.5-14.4c-8.6-45.8-16.6-91.8-24.7-137.7C156.2,736.6,156.6,734,156.6,729.8z"/>
	<path id="XMLID_10078_" class="st0" d="M722.1,96.4c-22.4,7.2-42.3,13.7-62.2,20.1c-16.2,5.3-32.4,10.7-48.8,15.7
		c-2.8,0.9-7.1,1.4-9,0c-25.7-19.9-51-40.2-77.4-61.2c3.4-1.6,5.5-2.9,7.8-3.8c34.2-12.6,68.5-25.1,102.6-37.9
		c5.7-2.1,9.4-1.5,13.9,2.6c21.4,19.5,43.2,38.6,64.8,57.8C716,91.6,718.3,93.3,722.1,96.4z"/>
	<path id="XMLID_10079_" class="st0" d="M107.6,299.5c38.4-12.4,77.4-23.3,115.1-37.6c23.5-8.9,44.3-8.7,66.5,2.6
		c17.4,8.9,36.1,15.3,54.2,22.8c-0.1,0.8-0.2,1.7-0.3,2.5c-34.8,12.5-69.6,25.1-104.4,37.6c-10.5,3.8-21.3,6.8-31.6,11.1
		c-8.2,3.4-15.5,3.4-23.5-0.5c-25.4-12.3-51-24-76.5-36C107.3,301.3,107.5,300.4,107.6,299.5z"/>
</g>
</svg>
