<?xml version="1.0" encoding="utf-8"?>
<!-- Generator: Adobe Illustrator 19.0.0, SVG Export Plug-In . SVG Version: 6.00 Build 0)  -->
<svg version="1.1" id="Layer_1" xmlns="http://www.w3.org/2000/svg" xmlns:xlink="http://www.w3.org/1999/xlink" x="0px" y="0px"
	 viewBox="0 0 1200 1200" style="enable-background:new 0 0 1200 1200;" xml:space="preserve">
<style type="text/css">
	.st0{fill:none;stroke:#4DBEC0;stroke-width:8;stroke-miterlimit:10;}
	.st1{fill:#4DBEC0;}
</style>
<g id="XMLID_40_">
	<g id="XMLID_10282_">
		<g id="XMLID_131_">
			<path id="XMLID_132_" class="st0" d="M306.1,578.6c0-156-0.1-312,0-467.9c0-52.2,30.4-73,78.1-85.5c10.2-2.7,21.1-3.6,31.6-3.6
				c149.1-0.2,215.5-0.3,364.6-0.1C841.9,21.5,888,46.4,888,107.7c0.2,314.7,0.2,629.4,0,944.1c0,61.2-46.1,106.6-107.6,106.7
				c-149.8,0.2-216.9,0.2-366.7,0c-62-0.1-107.5-45.8-107.5-107.8C306,893.3,306.1,735.9,306.1,578.6z M843.2,527
				c0-130.1,0-260.3,0-390.4c0-30-14.4-44.5-44.1-44.5c-134.6,0-269.2,0-403.9,0c-29.8,0-44.3,14.5-44.3,44.3
				c0,260.3,0,520.6,0,780.9c0,29.4,14.9,44.2,44.6,44.2c134.3,0,268.6,0,402.8,0c30.2,0,44.8-14.7,44.8-45.1
				C843.3,786.5,843.2,656.8,843.2,527z M643.2,1065c-0.1-25.6-20.2-45.7-45.8-45.9c-26.1-0.1-46.5,20.3-46.4,46.4
				c0.1,25.6,20.3,45.8,45.8,46C622.7,1111.7,643.3,1091,643.2,1065z"/>
		</g>
	</g>
	<g id="XMLID_10268_">
		<path id="XMLID_10281_" class="st1" d="M616.5,606.2c-10.7,0-21.4,0-32.6,0c0-111.4,0-233.5,0-345.1c10.8,0,21.5,0,32.6,0
			C616.5,372.4,616.5,494.6,616.5,606.2z"/>
		<path id="XMLID_10280_" class="st1" d="M486.3,606.2c-9.4,0-18.3,0-27.5,0c0-111.5,0-233.6,0-345.1c9.2,0,18.2,0,27.5,0
			C486.3,372.4,486.3,494.6,486.3,606.2z"/>
		<path id="XMLID_10279_" class="st1" d="M400.3,261c6.4,0,12.6,0,19.2,0c0,130.9,0,272.6,0,403.7c-6.2,0-12.5,0-19.2,0
			C400.3,534,400.3,392.3,400.3,261z"/>
		<path id="XMLID_10278_" class="st1" d="M793.9,664.9c-6.5,0-12.7,0-19.2,0c0-130.9,0-272.6,0-403.7c6.3,0,12.6,0,19.2,0
			C793.9,391.9,793.9,533.6,793.9,664.9z"/>
		<path id="XMLID_10277_" class="st1" d="M736.1,606.2c-5.6,0-10.7,0-16,0c0-111.5,0-233.6,0-345.1c5.3,0,10.5,0,16,0
			C736.1,372.4,736.1,494.6,736.1,606.2z"/>
		<path id="XMLID_10276_" class="st1" d="M532.1,260.9c4.2,0,8,0,12.1,0c0,111.4,0,233.5,0,345.2c-3.9,0-7.8,0-12.1,0
			C532.1,494.8,532.1,372.7,532.1,260.9z"/>
		<path id="XMLID_10275_" class="st1" d="M689.3,261c4.1,0,7.8,0,11.9,0c0,111.4,0,233.6,0,345.1c-4,0-7.7,0-11.9,0
			C689.3,494.9,689.3,372.7,689.3,261z"/>
		<path id="XMLID_10274_" class="st1" d="M505.6,261c2.3,0,4.2,0,6.4,0c0,111.3,0,233.4,0,345c-2.1,0-4.1,0-6.4,0
			C505.6,494.6,505.6,372.4,505.6,261z"/>
		<path id="XMLID_10273_" class="st1" d="M565.9,606.3c-2.3,0-4.1,0-6.3,0c0-111.5,0-233.6,0-345.2c2,0,4,0,6.3,0
			C565.9,372.3,565.9,494.5,565.9,606.3z"/>
		<path id="XMLID_10272_" class="st1" d="M663.6,606.3c-2.1,0-3.9,0-6,0c0-111.4,0-233.5,0-345.2c1.8-0.1,3.7-0.2,6-0.3
			C663.6,372.3,663.6,494.5,663.6,606.3z"/>
		<path id="XMLID_10271_" class="st1" d="M634.5,261c2,0,3.8,0,6,0c0,111.2,0,233.3,0,345.2c-1.7,0.1-3.6,0.2-6,0.3
			C634.5,494.9,634.5,372.8,634.5,261z"/>
		<path id="XMLID_10270_" class="st1" d="M437.4,261.2c5.5-1.6,5,1.9,5,5.1c0,36.3,0,72.7,0,109c0,90.9,0,192.8,0,283.7
			c0,3,1.3,7.3-5,5.7C437.4,534,437.4,392.3,437.4,261.2z"/>
		<path id="XMLID_10269_" class="st1" d="M753,260c1.7,0,3.1,0,4.8,0c0,130.8,0,272.4,0,403.5c-1.4,0.2-2.9,0.4-4.8,0.6
			C753,533,753,391.3,753,260z"/>
	</g>
</g>
</svg>
