<?xml version="1.0" encoding="utf-8"?>
<!-- Generator: Adobe Illustrator 19.0.0, SVG Export Plug-In . SVG Version: 6.00 Build 0)  -->
<svg version="1.1" id="Layer_1" xmlns="http://www.w3.org/2000/svg" xmlns:xlink="http://www.w3.org/1999/xlink" x="0px" y="0px"
	 viewBox="1110 -60 150 150" style="enable-background:new 1110 -60 150 150;" xml:space="preserve">
<g id="XMLID_16025_">
	<g id="XMLID_16037_">
		<path id="XMLID_16043_" d="M1228.5-11.5c0-2.3,0-4.5,0-6.7c-0.9,0-1.8,0-2.7,0c0-4.4,0-8.7,0-13.1c3.1,0,6.3,0,9.5,0
			c0,0.3,0,0.5,0,0.8c0,7.9,0,15.8,0,23.7c0,2.2-0.9,3.6-2.7,4c-0.7,0.1-1.5,0-2.2-0.3c-5.1-2-10.2-4.1-15.3-6.2
			c-0.2-0.1-0.4-0.2-0.5-0.2c-0.3,0.1-0.7,0.1-0.8,0.3c-0.2,0.3,0,0.7,0.4,0.8c0.8,0.3,1.6,0.7,2.4,1c1.1,0.5,2.3,0.9,3.5,1.4
			c0.2,0.1,0.5,0.3,0.6,0.5c1.2,4.5,2.4,9,3.6,13.6c-0.3,0-0.5,0-0.7,0c-6.5,0-13,0-19.6,0c-0.5,0-0.7-0.1-0.8-0.6
			c-1.1-5.5-1.2-11,0.3-16.4c0.7-2.5,1.7-4.8,3.5-6.6c2.2-2.3,4.7-2.8,7.5-1.7c4.1,1.6,8.2,3.3,12.3,5
			C1227.3-12,1227.9-11.8,1228.5-11.5z"/>
		<path id="XMLID_16042_" d="M1223.7-26.2c0,4.2-3.2,7.4-7.2,7.4c-3.9,0-7.1-3.3-7.1-7.4c0-4.1,3.2-7.5,7.1-7.5
			C1220.5-33.6,1223.7-30.3,1223.7-26.2z"/>
		<path id="XMLID_16040_" d="M1250.4-19.7c-2.5-0.7-4.9-1.4-7.4-2.1c0-1.3,0-2.6,0-3.9c0-1.1,0-2.1,0-3.2c0-0.2,0.2-0.5,0.3-0.6
			c2.3-0.7,4.7-1.4,7.1-2C1250.4-27.6,1250.4-23.7,1250.4-19.7z"/>
		<path id="XMLID_16039_" d="M1241.4-21.9c-1.5,0-3,0-4.5,0c0-2.5,0-5,0-7.5c1.5,0,3,0,4.5,0C1241.4-26.9,1241.4-24.4,1241.4-21.9z"
			/>
	</g>
	<g id="XMLID_16027_">
		<path id="XMLID_16033_" d="M1158.9,60.7c3.6-5,7-9.8,10.6-14.8c-3.5-0.8-6.9-1.5-10.1-2.3c-0.4-7.5-0.8-15-1.1-22.6
			c3.1-1,6.3-2.1,9.8-3.3c-4.1-4.6-8-9.1-12.2-13.7c0.8-0.1,1.3-0.2,1.8-0.2c6-0.3,12.1-0.6,18.1-1c1.4-0.1,2.2,0.4,3,1.4
			c2.1,2.4,4.2,4.8,6.1,6.9c5.5-1.2,10.8-2.7,16.1-3.5c16.9-2.4,33,0.2,48,8.8c2.8,1.6,5.4,3.9,7.6,6.4c2.8,3.1,2.4,5.7-0.6,9.4
			c-3.5,4.3-7.9,7.5-12.6,10.2c-17.3,9.7-35.7,12.4-54.9,8c-1.1-0.2-1.6,0.1-2.2,0.9c-1.7,2.5-3.4,4.9-5.2,7.3
			c-0.4,0.5-1.1,1-1.7,1.1c-6.5,0.4-13.1,0.8-19.6,1.1C1159.7,60.8,1159.4,60.7,1158.9,60.7z M1218.4,35.3c3.6,3.4,9.1,3.2,12.3-0.6
			c3.2-3.7,2.9-9.3-0.6-12.7c-3.5-3.4-9.1-3.1-12.3,0.6C1214.6,26.4,1214.8,32,1218.4,35.3z"/>
		<path id="XMLID_16031_" d="M1150.5,31.8c-0.8,0.4-1.6,1-2.4,1.1c-4,0.7-8,1.6-12.1,1.8c-6.9,0.3-13.8,0.2-20.8,0.2
			c-1.2,0-2.4-0.5-3.7-0.8c0-0.2-0.1-0.5-0.1-0.7c1-0.4,1.9-1.1,2.9-1.2c4.5-0.7,9.1-1.6,13.6-1.9c6.2-0.3,12.4-0.1,18.6-0.1
			c1.3,0,2.6,0.5,3.9,0.8C1150.4,31.4,1150.4,31.6,1150.5,31.8z"/>
		<path id="XMLID_16030_" d="M1150.3,40.1c-0.4,0.2-1,0.5-1.5,0.7c-5.8,1.8-11.6,2.1-17.6,1.1c-0.4-0.1-0.8-0.2-1.1-0.4
			c-0.5-0.3-0.9-0.8-1.3-1.2c0.4-0.4,0.7-1,1.2-1.3c3.9-1.7,8.1-2.1,12.3-2c2.5,0.1,5,0.6,7.4,1.1
			C1150.7,38.4,1151.1,39,1150.3,40.1z"/>
		<path id="XMLID_16028_" d="M1149.9,24.8c-1.1,0.5-1.6,0.8-2.3,1c-5.6,1.7-11.2,2-16.9,1c-1-0.2-1.8-1-2.7-1.6
			c0.8-0.6,1.6-1.5,2.5-1.8c5.6-1.7,11.3-2,17.1-0.9c0.6,0.1,1.3,0.3,1.7,0.7C1149.6,23.5,1149.7,24.2,1149.9,24.8z"/>
	</g>
</g>
</svg>
