<?xml version="1.0" encoding="utf-8"?>
<!-- Generator: Adobe Illustrator 19.0.0, SVG Export Plug-In . SVG Version: 6.00 Build 0)  -->
<svg version="1.1" id="Layer_1" xmlns="http://www.w3.org/2000/svg" xmlns:xlink="http://www.w3.org/1999/xlink" x="0px" y="0px"
	 viewBox="0 0 1200 1200" style="enable-background:new 0 0 1200 1200;" xml:space="preserve">
<g id="XMLID_16025_">
	<g id="XMLID_16037_">
		<path id="XMLID_16043_" d="M938.9,293.1c0-17.1,0-33.5,0-50.4c-7,0-13.9,0-21.1,0c0-32.9,0-65.3,0-98.1c24.4,0,48.9,0,73.8,0
			c0.1,2.1,0.3,4,0.3,5.9c0,59,0,118,0,176.9c0,16.6-6.9,27.1-21,29.6c-5.4,1-11.8,0-17-1.9c-39.7-15.1-79.1-30.6-118.7-46
			c-1.3-0.5-2.8-1.6-4-1.4c-2.3,0.4-5.4,0.9-6.4,2.5c-1.6,2.6,0.1,5,3.1,6.2c6.3,2.4,12.6,4.9,18.8,7.4c8.9,3.5,17.9,6.9,26.8,10.6
			c1.7,0.7,3.9,2.3,4.4,3.9c9.4,33.5,18.6,67,28,101.2c-2,0.1-3.7,0.3-5.4,0.3c-50.6,0-101.2,0-151.8,0.1c-3.5,0-5.5-0.6-6.3-4.5
			c-8.2-41-9.4-81.9,2.1-122.5c5.2-18.5,13.5-35.5,27.3-49.4c16.8-16.9,36.5-20.8,58.3-12.7c31.9,11.9,63.5,24.7,95.3,37.1
			C929.6,289.4,933.9,291.1,938.9,293.1z"/>
		<path id="XMLID_16042_" d="M901.7,183.1c0,31-24.6,55.6-55.6,55.5c-30.3-0.1-55-24.7-55.2-55c-0.2-30.8,24.6-55.8,55.4-55.8
			C877,127.9,901.7,152.6,901.7,183.1z"/>
		<path id="XMLID_16040_" d="M1108.9,231.5c-19.3-5.3-38.2-10.6-57.6-15.9c0-9.7,0-19.2,0-28.8c0-8-0.1-16,0.1-24
			c0-1.5,1.3-4,2.4-4.3c18.2-5.2,36.5-10.2,55.1-15.3C1108.9,172.8,1108.9,201.9,1108.9,231.5z"/>
		<path id="XMLID_16039_" d="M1038.7,215.4c-11.9,0-23.4,0-35.2,0c0-18.8,0-37.4,0-56.3c11.8,0,23.3,0,35.2,0
			C1038.7,177.8,1038.7,196.3,1038.7,215.4z"/>
	</g>
	<g id="XMLID_16027_">
		<path id="XMLID_16033_" d="M399.1,831.9c27.8-37.2,54.6-73.1,82.6-110.6c-27.4-5.9-53.5-11.5-78.6-16.9
			c-3-56.3-5.9-112.1-8.9-168.7c24-7.8,49.1-16,76.4-24.9c-31.8-34.4-62.4-67.6-94.6-102.3c6.1-0.6,10.2-1.2,14.3-1.4
			c46.9-2.5,93.8-4.6,140.6-7.7c10.5-0.7,16.8,2.9,23.3,10.3c16,18.2,32.7,35.9,47.2,51.7c42.8-9.1,83.5-20.4,124.9-26.1
			c130.9-18,256.1,1.5,372.5,65.8c21.9,12.1,42.1,29.3,59.3,47.8c21.5,23.1,18.7,42.8-4.5,70.5c-27.1,32.4-61.2,56.3-98,76.1
			c-134.6,72.3-276.7,92.8-426.1,59.9c-8.4-1.8-12.2,0.4-16.8,6.9c-12.9,18.5-26.5,36.5-40.5,54.2c-3.1,3.9-8.7,7.7-13.4,8
			c-50.7,3.2-101.5,5.7-152.3,8.3C404.7,833,402.7,832.4,399.1,831.9z M860.4,642.8c28.3,25.7,70.3,23.8,95.6-4.3
			c24.8-27.6,22.8-69.5-4.5-94.9c-27.4-25.5-70.3-23.4-95.6,4.7C830.7,576.3,832.7,617.6,860.4,642.8z"/>
		<path id="XMLID_16031_" d="M333.4,616.5c-6.3,2.9-12.4,7.2-19,8.3c-31.2,5.3-62.4,12.3-93.8,13.8c-53.6,2.5-107.4,1.7-161.2,1.5
			c-9.5,0-19-3.8-28.6-5.9c-0.3-1.7-0.6-3.5-0.9-5.2c7.4-3.1,14.6-7.9,22.4-9.1c35.1-5.4,70.3-12.2,105.6-14
			c48-2.4,96.2-1.1,144.3-0.5c10.1,0.1,20.1,3.8,30.1,5.8C332.8,613,333.1,614.8,333.4,616.5z"/>
		<path id="XMLID_16030_" d="M332.1,678.5c-3.4,1.6-7.5,4.1-12,5.4c-44.8,13.7-90.4,15.9-136.4,7.9c-3-0.5-6.1-1.3-8.6-2.9
			c-3.7-2.4-6.8-5.7-10.2-8.6c3.2-3.2,5.7-7.8,9.6-9.4c30.6-13,63.2-15.7,95.8-14.7c19.3,0.6,38.5,4.7,57.6,8.1
			C335.1,665.6,338.5,670.4,332.1,678.5z"/>
		<path id="XMLID_16028_" d="M329.1,563.9c-8.2,3.5-12.7,6.1-17.7,7.5c-43.1,12.4-87,15.1-131.1,7.1c-7.6-1.4-14.2-7.7-21.3-11.8
			c6.4-4.5,12.2-11.1,19.3-13.1c43.5-12.4,87.8-14.9,132.5-6.6c4.6,0.9,9.8,2.1,13.1,5C326.7,554.5,327.3,559.5,329.1,563.9z"/>
	</g>
</g>
</svg>
