<?xml version="1.0" encoding="utf-8"?>
<!-- Generator: Adobe Illustrator 19.0.0, SVG Export Plug-In . SVG Version: 6.00 Build 0)  -->
<svg version="1.1" id="Layer_1" xmlns="http://www.w3.org/2000/svg" xmlns:xlink="http://www.w3.org/1999/xlink" x="0px" y="0px"
	 viewBox="0 0 1200 1200" style="enable-background:new 0 0 1200 1200;" xml:space="preserve">
<style type="text/css">
	.st0{fill:none;stroke:#A3BB3A;stroke-width:8;stroke-miterlimit:10;}
</style>
<g id="XMLID_9069_">
	<path id="XMLID_9076_" class="st0" d="M864.9,468.7c6.6-21.6,12.8-42.8,19.6-63.8c5-15.3,10.5-30.5,16.1-45.6
		c1.7-4.7,3.6-10.1,7.1-13.3c4.3-3.8,10.3-7.7,15.7-7.9c7.7-0.3,10.9,6.9,11.9,13.8c0.8,5,1,10.2,0.5,15.2
		c-3.9,36.2-8.1,72.4-12.3,108.5c-0.7,6.3-1.5,12.6-3,18.8c-1.5,6.4,1.4,9.6,6.2,13.2c5.1,3.8,8.1,0.7,11.7-1.5
		c30.6-18.9,62.3-35.5,98.1-41.8c65.2-11.5,107.7,19.5,118,85c7.2,45.5,1.7,90.4-6.8,135c-4.6,23.9-11.2,47.4-16.1,71.3
		c-1.3,6.1-1.5,13.3,0.6,19c22.5,61.3,33.8,124.5,35.1,189.7c0.3,16.9-2.7,20-19.7,20c-203.8,0-407.7,0-611.5-0.1
		c-6.8,0-11.1,1.2-14.9,8c-15,26.2-52.3,25.9-67.2-0.5c-3.4-5.9-6.9-7.5-13.2-7.5c-130,0.2-260,0.1-389.9,0.1
		c-19.9,0-22-2.2-21.6-21.7c2.7-124.6,41.7-236.6,116.9-336c3.1-4.1,4.2-7.4,2.4-12.8c-8.1-24.4,7-48.8,32.4-51.7
		c7.6-0.9,10.5-4.1,13.5-10.3c27.4-56.1,60.1-108.7,105.3-152.5c30.9-29.9,65.9-53.3,107-67.1c3.7-1.2,7.3-4.8,9.4-8.3
		c22-36.2,46.3-70.5,79.3-97.8c30.3-25,64.2-40.8,104.6-37.1c36.2,3.3,66,20.8,92.6,44.5c36.2,32.4,63.5,71.6,85,114.7
		c14.9,30,26.8,61.4,40.6,92c2,4.3,6,8.7,10.1,11C840.1,457.5,852.4,462.7,864.9,468.7z M446.2,322.4c24.3,0,46.6-2,68.4,0.4
		c52.6,5.6,100,26.6,144.2,54.9c17.6,11.3,32.9,26.7,51.5,35.4c18.9,8.8,40.7,11.4,61.1,16.8c5.9,1.6,11.7,3.6,18.1,5.6
		c-0.3-2.3-0.3-3.3-0.6-4.1c-19.7-50.7-43.7-99.1-77.4-142.1c-20.1-25.6-42.8-48.4-72.2-63.5c-33-17-66.3-17.5-99.2-0.1
		C499,247.6,472,283.2,446.2,322.4z M952.3,526.3c68.8,55.5,121.8,121.9,160.9,199.9c5.5-21.8,10.4-43,13.8-64.5
		c6-37,9.7-74.1,2.9-111.6c-9.2-50.8-40.3-72-90.8-61.6C1008,494.9,980.2,509.2,952.3,526.3z M384.5,441.2c0.8,0.8,1.6,1.6,2.4,2.3
		c85.7-34.3,174.7-46.1,267-40.1c-23.2-13.8-46.2-27-70.5-37.2c-47.3-19.9-96.5-27.9-147.6-16.5c-3.1,0.7-7.1,2.4-8.4,4.9
		C412.9,383.4,398.7,412.4,384.5,441.2z M393.5,363.2C316,400.3,269.6,464.5,228.8,538c3.4-2,4.5-2.4,5.3-3.1
		c34.9-29.1,72.7-53.6,113.4-73.9c2.6-1.3,5.1-3.8,6.3-6.4C366.9,424.8,379.8,395,393.5,363.2z M1025.6,798.8
		c6,23.4,11.8,45.7,17.4,67.7c29.9,0,59.2,0,90.7,0c-6.1-22.1-11.8-43.1-17.9-64c-0.5-1.7-4.2-3.6-6.5-3.6
		C1081.8,798.7,1054.2,798.8,1025.6,798.8z M140.6,959.4c3-22.5,6-44.6,9.1-67.8c-28.7,0-57.1-0.1-85.5,0.1c-1.7,0-4.6,1.9-4.8,3.2
		c-2.3,21.2-4.2,42.5-6.3,64.4C83.5,959.4,111.8,959.4,140.6,959.4z M155.2,866.8c2.2-9.3,3.8-18.1,6.5-26.5
		c4.2-13.2,7.7-26-5.2-36.5c-2.4-1.9-5.2-4.7-7.8-4.8c-20.3-0.4-40.6-0.3-60.8-0.1c-2.3,0-6.1,1.7-6.5,3.3
		C75,823.4,69.2,844.6,63,866.8C94.9,866.8,124.6,866.8,155.2,866.8z M1048.5,892.1c2.6,20.3,5.4,39.7,7.2,59.3
		c0.7,7.3,3.4,8.8,10,8.7c22.8-0.3,45.6-0.1,68.5-0.2c2.7,0,5.5-0.4,9.4-0.7c-2-22.8-3.9-44.8-5.8-67.1
		C1107.3,892.1,1078.2,892.1,1048.5,892.1z M611.1,959.2c29.1,0,57.7,0,86.3,0c0-22.8,0-44.8,0-67c-29.1,0-57.4,0-86.3,0
		C611.1,914.8,611.1,936.8,611.1,959.2z M259.6,892.3c-28.3,0-56.3,0-85.1,0c-3.2,22.4-6.2,44.2-9.5,67c30.1,0,58.7,0,87.7,0
		C255.1,936.8,257.3,914.9,259.6,892.3z M611.1,866.6c29.1,0,57.4,0,85.1,0c0-22.8,0-45.1,0-67.3c-29.2,0-56.9,0-85.1,0
		C611.1,821.8,611.1,843.8,611.1,866.6z M1107.1,774.2c-11.2-22.8-21.6-44-32.1-65.1c-0.8-1.6-3.3-3.1-5.1-3.1
		c-25.5-0.2-51-0.1-77.2-0.1c8.1,22.4,15.8,43.7,23.7,64.9c0.6,1.5,3.2,3.3,4.8,3.3C1049,774.3,1076.8,774.2,1107.1,774.2z
		 M367.9,891.7c-26.6,0-52.5-0.1-78.4,0.2c-1.8,0-4.9,2.4-5.1,4c-2.6,20.9-4.8,41.9-7.2,64.1c28.5,0,55.3,0.1,82.2-0.3
		c1.8,0,4.9-4.3,5.1-6.7C365.9,933,366.8,913.1,367.9,891.7z M723.1,892c0,23.1,0,45,0,67.4c28.7,0,56.8,0,86.3,0
		c-1.4-22.9-2.8-45-4.2-67.4C776.9,892,750.4,892,723.1,892z M695.1,773.8c-1.4-23.2-2.8-45.2-4.2-67.2c-27.3,0-53.7,0-79.8,0
		c0,22.8,0,44.8,0,67.2C639,773.8,666.3,773.8,695.1,773.8z M1023.4,891.6c-14.6,0-27.5,0.2-40.5-0.1c-11.6-0.2-19.9,1.3-29.3,12.1
		c-10.5,11.9-13.1,21.8-10.3,35.6c0.8,4,0.8,8.2,0.7,12.3c-0.2,6.5,2.5,8.6,9,8.6c24.1-0.4,48.1-0.1,72.2-0.2c2.1,0,4.2-0.6,7.6-1.1
		C1029.6,936.4,1026.6,914.6,1023.4,891.6z M288.3,866.5c28.6,0,55.3,0,82.2,0c2.8-22.7,5.4-44.8,8.2-67.4c-26.1,0-51,0-77,0
		C297.3,821.4,292.9,843.6,288.3,866.5z M205.7,705.8c-26.7,0-52.3-0.1-77.9,0.1c-2.1,0-5.2,1.5-6,3.2c-10.7,21.1-21,42.3-32.2,65.1
		c21.9,0,41.1,0.2,60.4-0.2c2.2,0,5.2-2.9,6.5-5.2c6.3-11.1,15.5-18.1,27.9-21.1c2.4-0.6,5.7-2.1,6.5-4
		C196.1,731.5,200.6,719.1,205.7,705.8z M392.7,892.1c-1.4,22.5-2.7,44.7-4.1,67.8c20.5,0,39.4,0.2,58.3-0.2c2,0,3.9-3.2,5.8-5
		c6-5.9,11.9-11.8,17.8-17.8c1.8-1.8,4.8-3.8,4.8-5.8c0.4-12.8,0.2-25.7,0.2-38.9C447.6,892.1,420.9,892.1,392.7,892.1z
		 M920.3,959.2c-1.1-12-1.7-23.3-3.4-34.5c-0.5-3.1-3.6-6.3-6.2-8.6c-5.9-5.1-14.3-8.5-17.9-14.8c-5-8.8-10.8-10.7-19.7-9.9
		c-6.6,0.6-13.3,0.1-19.9,0.1c-7.7,0-15.5,0-23.3,0c1.4,23.5,2.8,45.2,4.2,67.6C862.6,959.2,891,959.2,920.3,959.2z M794.6,799.3
		c-25.2,0-49.1,0-72.3,0c0,22.8,0,45,0,67.2c27.6,0,53.7,0,80.5,0C800,843.9,797.3,822,794.6,799.3z M403.4,799.3
		c-2.8,23-5.5,44.9-8.2,67.4c27.3,0,53.4,0,80.8,0c0-22.7,0-45,0-67.4C452.2,799.3,428.3,799.3,403.4,799.3z M585.2,959.9
		c0-23.4,0-45.6,0-68.3c-21.1,0-41.3-0.1-61.6,0c-16,0.1-14-2.2-16.6,13.4c-1,6.2-1.8,12.5-3,18.7c-1.4,7.3-0.7,12.7,7,17
		c5.1,2.8,8.1,9.4,12.3,14.1c1.7,1.9,3.9,4.8,6,4.8C547.9,960.1,566.5,959.9,585.2,959.9z M819.2,799.2c2.8,23.1,5.6,45.3,8.3,68
		c18.8,0,37.5,2.9,54.5-1.2c9.1-2.2,20.2-15.7,21.6-25.3c1.9-13.2-4.6-27.5-7.5-41.5C870.4,799.2,845.5,799.2,819.2,799.2z
		 M585.5,613.5c-22.9,0-45.2,0-68.3,0c-2.7,22.6-5.3,44.8-7.9,67.2c26.4,0,51.3,0,76.2,0C585.5,657.9,585.5,635.9,585.5,613.5z
		 M276.6,798.8c-15.1,0-29.6-0.2-44,0.2c-1.8,0-4.2,2.4-5.1,4.3c-6.9,13-17.4,20.4-32,22.4c-2,0.3-5,1.9-5.5,3.5
		c-3.5,12.3-6.5,24.7-9.6,37.3c28.7,0,56.1,0,83.3,0C268,843.8,272.2,821.8,276.6,798.8z M307.6,773.9c25.5,0,49.9,0,74.9,0
		c4.1-22.5,8.1-45,12.2-67.8c-23,0-44.8,0-67.6,0C320.7,728.5,314.3,750.9,307.6,773.9z M803.2,706.1c3.2,17.9,6.3,34.7,9.2,51.6
		c2.8,16.5,2.6,16.5,19.4,16.5c19.1,0,38.3,0,58.7,0c-6.9-23.8-13.4-46.1-19.8-68.1C847.4,706.1,825.6,706.1,803.2,706.1z
		 M945.6,612.9c11.6,22.3,22.3,43,33.3,63.7c1.1,2.1,4,4.4,6.1,4.5c23.9,0.3,47.9,0.2,71.8,0.2c0-1.4,0.2-2.2,0-2.6
		c-15.4-20.8-30.8-41.7-46.5-62.3c-1.3-1.7-4.1-3.3-6.3-3.3C984.8,612.8,965.6,612.9,945.6,612.9z M482.5,706.3
		c-20.9,0-41.3,0-62.7,0c-4.1,22.3-8.2,44.6-12.4,67.2c24.3,0,47.5,0,71.1,0C479.8,750.9,481.1,728.9,482.5,706.3z M715.4,706.2
		c1.5,23.1,2.9,45.1,4.3,67.3c23.8,0,46.9,0,71.1,0c-4.3-23.1-8.5-45.3-12.6-67.3C756.6,706.2,736.4,706.2,715.4,706.2z
		 M585.4,866.7c0-22.8,0-45,0-67.9c-13.9,0-27.1-0.1-40.4,0.2c-2,0-5.1,1.7-5.8,3.4c-8.5,21-16.7,42-25.5,64.3
		C539.2,866.7,562.1,866.7,585.4,866.7z M252.4,612.9c-8.3,0-15.6-0.5-22.8,0.2c-3,0.3-6.9,2.6-8.5,5.2
		c-10.8,18-25.7,24.7-46.5,20.5c-2.3-0.5-6.1-0.2-7.2,1.2c-9.8,13-19.2,26.3-29.9,41.3c27.1,0,51.7,0.1,76.2-0.2
		c1.7,0,4.1-1.8,4.9-3.4C229.8,656.6,240.7,635.3,252.4,612.9z M335.8,680.8c22.8,0,43.6,0,64.4,0c6-22.6,11.8-44.8,17.9-67.9
		c-10.4,0-20.9-2.4-29.7,0.6c-11.6,3.9-25.2,9.5-31.7,18.7C347.1,646,342.9,663.7,335.8,680.8z M282.4,774.2
		c6.5-23.3,12.7-45.5,19.1-68.4c-12.8,0-24.8-0.2-36.8,0.2c-2.4,0.1-5.5,1.8-7,3.7c-11.7,14.5-23.2,29.2-34.4,44
		c-4,5.3,3.9,20.3,10.6,20.4C249.9,774.4,266,774.2,282.4,774.2z M425.2,680.7c21,0,40.1,0,59.4,0c2.6-22.7,5.2-44.8,7.8-67.8
		c-15,0-28.9-0.3-42.7,0.3c-2.4,0.1-6.2,3.1-6.9,5.5C436.7,638.9,431.2,659.3,425.2,680.7z M959.8,773.7
		c-0.7-22.5-5.7-43.5-14.1-63.7c-0.8-1.8-3.4-4-5.2-4.1c-14.4-0.3-28.9-0.2-44-0.2c6.5,23.3,12.8,45.6,19,67.9
		C930.4,773.7,944.9,773.7,959.8,773.7z M797.7,680.9c21.2,0,42,0,64.2,0c-5.2-13-9.9-25.3-15.2-37.4c-0.8-1.8-4.4-3.2-6.8-3.4
		c-13.9-1.3-24.5-7.7-32-19.5c-1.2-1.9-4.3-4-6.3-3.8c-6.5,0.7-12.9,2.4-19.6,3.7C787.3,641.1,792.5,660.9,797.7,680.9z
		 M572.5,706.2c-21,0-42.7,0-65.5,0c-1.3,22.5-2.6,44.8-4,68c6.8,0,12.5,0.3,18-0.2c2.4-0.2,5.6-1.4,6.9-3.2
		C542.9,749.5,557.6,727.9,572.5,706.2z M323.5,519.6c-11.3,0.8-23.7-2.1-30.6,2.8c-24.3,17-46.7,36.7-69.7,55.6
		c-1.4,1.1-2,4.6-1.3,6.4c0.7,1.8,3.4,3.7,5.4,3.9c6.6,0.5,13.4-0.6,19.9,0.4c15.8,2.3,25.9-3.4,34.8-17
		C293.7,553.8,308.5,538.1,323.5,519.6z M299.7,585c0.7,1.1,1.4,2.3,2,3.4c13.5,0,27-0.3,40.5,0.1c5.6,0.2,8.3-2,10.9-6.8
		c7.4-13.6,15.3-26.8,23.3-40.1c4.1-6.8,8.8-13.4,14.2-21.5c-8.4,0-15-0.4-21.5,0.1c-4.2,0.3-9.6,0.7-12.1,3.3
		C337.6,543.8,318.7,564.5,299.7,585z M679.9,613.5c-22.8,0-45.7,0-68.8,0c0,19.8,0,38.9,0,59.2c3.4-2.4,5.8-4.2,8.3-5.8
		c17.1-10.8,33.9-22,51.3-32.3C682.8,627.4,683.1,627.9,679.9,613.5z M757.9,625.7c-16,5.7-30.6,10.8-45,16.3
		c-1.6,0.6-3.3,3.9-3.2,5.7c0.9,11,2.3,21.9,3.6,33c19.9,0,39,0,59.1,0C767.7,662.6,763.1,645.2,757.9,625.7z M676.6,588.2
		c-2.7-13.4-5.1-25.6-7.7-38.8c-19.7,0-38.7,0-57.5,0c0,13.6,0,26.1,0,38.8C632.9,588.2,653.8,588.2,676.6,588.2z M983.6,799.6
		c-3.2,21.2-9.7,41.5-21.8,59.7c-2.7,4.1-1.2,7.7,4,7.8c17,0.2,34,0.1,52.3,0.1c-5-19.3-9.6-37.3-14.5-55.2
		C999.7,797.7,999.5,797.7,983.6,799.6z M453.8,520.2c-7.7,0-13.8,0.6-19.7-0.1c-9.1-1.2-14.8,2.4-19.5,9.8
		c-6.1,9.6-13.1,18.6-19.3,28.2c-6,9.3-11.5,19-18.4,30.7c20.5-9,38.4-16.8,56.2-24.8c1.6-0.7,3.2-2.3,3.9-3.9
		C442.4,547.4,447.7,534.6,453.8,520.2z M521.6,587.9c21.7,0,42.7,0,63.7,0c0-12.5,0-24.3,0-37.6c-18.6,3.2-36.3,6.1-53.9,9.4
		c-2.1,0.4-4.8,3.2-5.4,5.4C524.2,572.3,523.1,579.8,521.6,587.9z M332.2,612.9c-15,0-30.5-0.1-45.9,0.1c-1.9,0-4.5,1.3-5.4,2.8
		c-12.5,21.1-24.7,42.3-37.7,64.7c3.6,0.3,5.3,1,6,0.5C276.8,658.5,304.3,635.9,332.2,612.9z M981.9,588.4c0.4-0.9,0.8-1.8,1.2-2.7
		c-16.4-14.1-32.7-28.3-49.3-42.2c-1.3-1.1-5-1.1-6.5-0.1c-6.9,4.7-13.5,9.9-20.3,15c6.7,9.2,12.5,17.5,18.6,25.5
		c1.4,1.9,3.7,4.2,5.6,4.3C948.1,588.5,965,588.4,981.9,588.4z M875.2,623.4c-6.9,7-6.9,7-4,14.3c4.8,12.4,9.4,24.8,14.5,37.1
		c1,2.5,3.6,6.1,5.6,6.1c12.8,0.6,25.6,0.3,40.4,0.3C916.6,656.6,899.4,637,875.2,623.4z M611.1,495.4c13.8,0,27.2,0,41.9,0
		c-9.9-24-19.6-46.7-41.9-63C611.1,454.7,611.1,474.8,611.1,495.4z M545.3,495.4c14.1,0,26.9,0,40.1,0c0-20.4,0-40.4,0-62
		C564.2,450,554.3,471.7,545.3,495.4z M745.4,588.5c-2.8-7.7-4.9-13.9-7.5-20c-1.2-2.7-3-6.5-5.2-7.1c-12-3.3-24.3-5.8-37.9-8.9
		c2.1,11.7,3.6,21.6,5.9,31.3c0.4,1.9,3.7,4.3,5.8,4.4C718.8,588.7,731.1,588.5,745.4,588.5z M944.8,842.9
		c5-13.9,10.1-28.2,15.6-43.4c-14.4,0-26.5,0-39,0c2.1,10.3,4.8,19.8,5.7,29.4C927.8,838.8,932.7,842.7,944.8,842.9z M742.8,520.3
		c5,8.7,7.1,18.2,12.7,21.1c15.2,7.9,31.8,13,50.4,20.3c-10.2-14.1-18.9-26.2-27.9-38.3c-1.2-1.5-3.6-2.9-5.5-3
		C763.4,520.1,754.3,520.3,742.8,520.3z M467.8,549.5c1.2,0.9,1.5,1.2,1.7,1.2c7.6-2.2,15.1-4.5,22.7-6.6
		c16.2-4.5,17.3-5.9,17.6-23.9c-7.8,0-15.7-0.2-23.5,0.2c-2.1,0.1-5,1.7-5.9,3.5C475.8,532.3,471.8,541.1,467.8,549.5z M585.6,733.9
		c-0.7-0.3-1.5-0.7-2.2-1c-9.6,13.3-19.1,26.6-29.3,40.8c12,0,21.7,0,31.5,0C585.6,760,585.6,746.9,585.6,733.9z M685.8,653.5
		c-15.2,9.1-28.6,17.3-42.1,25.4c0.3,0.6,0.6,1.2,0.9,1.9c14.4,0,28.7,0,43.9,0C687.6,672.2,686.8,664.1,685.8,653.5z M496.8,492.9
		c0.8,1,1.6,2,2.3,3c4.1,0,8.2,0.3,12.2-0.1c2.8-0.3,7.2-0.9,8-2.7c6.5-14.1,12.4-28.5,18.4-42.8c-0.6-0.5-1.3-1-1.9-1.5
		C522.8,463.5,509.8,478.2,496.8,492.9z M702.6,494.5c-14.2-16-27.1-30.5-39.9-44.9c-0.9,0.7-1.8,1.4-2.6,2.1
		c2.3,4.7,4.8,9.3,7,14.1c2.4,5.1,4.5,10.4,6.6,15.6c6.1,15.3,6.1,15.3,22.9,14.5C697.4,495.8,698.3,495.5,702.6,494.5z
		 M452.8,588.5c13.7,0,26.2,0.2,38.8-0.2c2-0.1,5-2.5,5.6-4.5c1.5-4.9,1.9-10.2,2.8-15.6C477.7,571.9,456.8,580.4,452.8,588.5z
		 M754.1,494.4c-16.7-13.3-31.5-25.1-46.4-36.9c-0.6,0.7-1.2,1.3-1.8,2c5.4,7.6,12.1,14.7,15.8,23C728,496.4,738,498.1,754.1,494.4z
		 M491.8,459.5c-0.5-0.7-1-1.3-1.6-2c-14.9,11.9-29.7,23.8-44.6,35.7c0.5,0.9,1,1.9,1.4,2.8c3.7,0,7.4,0.6,11-0.1
		c4.2-0.9,9.6-1.6,11.9-4.5C477.9,481.2,484.6,470.1,491.8,459.5z M534.4,533.4c15.9-2.2,31.2-4.3,46.4-6.7c1.8-0.3,3.4-2.5,5-3.8
		c-1.7-0.9-3.5-2.5-5.2-2.5c-11-0.2-22.1,0.5-33.1-0.3C537.5,519.3,533.7,523.4,534.4,533.4z M897.3,486.5c3-21,5.8-41.4,8.7-61.8
		c-7,15.8-11.4,32.1-16.7,48.2C886.8,480.4,888.7,484.2,897.3,486.5z M891.2,539.7c6.4-4.9,12.1-9.2,18.2-14
		c-10.6-9.4-22-4.1-33.7-3.4C880.7,527.8,885.6,533.3,891.2,539.7z M392.5,493.3c0.5,1.1,0.9,2.3,1.4,3.4c6-0.9,13.7,0.3,17.8-3
		c8.9-7,16-16.3,23.8-24.7c-0.5-0.6-0.9-1.3-1.4-1.9C420.3,475.8,406.4,484.5,392.5,493.3z M317.6,655.5
		c-9.8,7.9-19.5,15.9-30.4,24.7C310.3,683.1,310.3,683.1,317.6,655.5z M687.6,522.4c9,9.7,22.1,6.1,33.7,10.8
		C716.5,518.5,714.2,517.7,687.6,522.4z M798.8,586.8c-11.5-5.3-21.3-9.8-32-14.8C770.7,590.2,774.4,591.9,798.8,586.8z
		 M661.3,523.5c0-0.6,0-1.1,0-1.7c-16.8,0-33.6,0-50.3,0c0,0.6,0,1.1,0,1.7C627.7,523.5,644.5,523.5,661.3,523.5z M807.1,494.7
		c-11.8-7.8-21.9-14.4-32-21c-0.4,0.7-0.9,1.3-1.3,2C783.6,482.8,786.3,500.2,807.1,494.7z M336.3,494.7c17,4.6,22.6-8.1,30.9-15.8
		C357.5,483.8,347.8,488.8,336.3,494.7z M502.2,799.1c0,8.6,0,16.4,0,24.2c0.4,0.1,0.9,0.1,1.3,0.2c3.2-7.9,6.5-15.9,10-24.4
		C509.5,799.1,506.4,799.1,502.2,799.1z M886.8,573.4c-3.1,5-5.5,9-8,12.9c5.7,0.9,11.4,1.9,17.2,2.8c0.3-0.9,0.6-1.7,0.9-2.6
		C894,582.7,891,578.8,886.8,573.4z M857.8,493.1c-8.2-4.2-16.5-8.4-24.7-12.6C846.3,496.4,846.7,496.6,857.8,493.1z M905.6,613.8
		c6.4,5.7,12.1,10.7,17.8,15.7C917,612.8,916.8,612.6,905.6,613.8z M991.4,773.2c-2.2-6.1-4.4-12-7.4-20.4
		C983,772.3,983.5,773.6,991.4,773.2z"/>
</g>
</svg>
