<?xml version="1.0" encoding="utf-8"?>
<!-- Generator: Adobe Illustrator 19.0.0, SVG Export Plug-In . SVG Version: 6.00 Build 0)  -->
<svg version="1.1" id="Layer_1" xmlns="http://www.w3.org/2000/svg" xmlns:xlink="http://www.w3.org/1999/xlink" x="0px" y="0px"
	 viewBox="1110 -60 150 150" style="enable-background:new 1110 -60 150 150;" xml:space="preserve">
<style type="text/css">
	.st0{fill:none;stroke:#A3BB3A;stroke-width:2;stroke-miterlimit:10;}
</style>
<g id="XMLID_27_">
	<path id="XMLID_9414_" class="st0" d="M1255,61.7c-3.7,0-7.2,0-10.9,0c0-12.3,0-24.5,0-36.9c-1.8,0-3.4,0-5.2,0
		c0,12.2,0,24.5,0,36.8c-10.3,0-20.6,0-30.9,0c0-12.3,0-24.5,0-36.8c-1.8,0-3.5,0-5.3,0c0,12.3,0,24.5,0,36.8c-3.7,0-7.3,0-11,0
		c0-0.5,0-0.9,0-1.4c0-11.8,0.1-23.7,0-35.5c-0.1-9.3,6.5-16.1,15.9-16.7c6.3-0.3,12.7-0.1,19-0.1c4.1,0,8.3-0.1,12.4,0.1
		c7.5,0.3,13.6,5,15.4,11.8c0.4,1.3,0.6,2.7,0.6,4.1c0,12.3,0,24.5,0,36.8C1255,61,1255,61.3,1255,61.7z"/>
	<path id="XMLID_9415_" class="st0" d="M1188.1,61.7c-6.2,0-12.2,0-18.4,0c0-12.3,0-24.6,0-36.9c-1.8,0-3.4,0-5.2,0
		c0,12.2,0,24.5,0,36.9c-3.7,0-7.3,0-11,0c0-0.5,0-1,0-1.4c0-11.8,0.1-23.7,0-35.5c-0.1-8.8,6-16.1,15.7-16.6
		c9.2-0.5,18.5-0.1,27.7-0.2c0.1,0,0.1,0,0.4,0.1c-0.4,0.2-0.7,0.4-1,0.6c-5,3.2-7.8,7.8-8.1,13.7c-0.3,6.6-0.1,13.3-0.1,20
		c0,6,0,11.9,0,17.9C1188.1,60.7,1188.1,61.1,1188.1,61.7z"/>
	<path id="XMLID_9416_" class="st0" d="M1159.2,8.1c-5,2.8-7.9,6.7-9,11.9c-0.3,1.4-0.4,2.8-0.4,4.3c0,12,0,24,0,36
		c0,0.5,0,0.9,0,1.5c-5.9,0-11.7,0-17.6,0c0-12.3,0-24.5,0-36.9c-1.8,0-3.5,0-5.3,0c0,12.3,0,24.5,0,36.9c-3.7,0-7.3,0-11,0
		c0-0.4,0-0.9,0-1.3c0-11.9,0-23.9,0-35.9c0-8.5,5.6-15,14-16.2c1.3-0.2,2.7-0.3,4-0.3c8,0,15.9,0,23.9,0
		C1158.2,8,1158.5,8,1159.2,8.1z"/>
	<path id="XMLID_9417_" class="st0" d="M1222.9-23.6c7.1,0,12.8,5.7,12.8,12.8c0,7.1-5.7,12.8-12.8,12.9c-7.1,0-12.9-5.7-12.9-12.8
		C1210.1-17.9,1215.8-23.6,1222.9-23.6z"/>
	<path id="XMLID_9418_" class="st0" d="M1131.1-10.8c5-5,10-10,15-15c5,5,10,10,14.9,15c-4.9,4.9-10,10-15,15
		C1141.2-0.7,1136.1-5.8,1131.1-10.8z"/>
	<path id="XMLID_9419_" class="st0" d="M1183.3,4.7c-5.7-8.6-11.4-17-17.1-25.7c11.5,0,22.8,0,34.3,0
		C1194.7-12.4,1189.1-3.9,1183.3,4.7z"/>
</g>
</svg>
