<?xml version="1.0" encoding="utf-8"?>
<!-- Generator: Adobe Illustrator 19.0.0, SVG Export Plug-In . SVG Version: 6.00 Build 0)  -->
<svg version="1.1" id="Layer_1" xmlns="http://www.w3.org/2000/svg" xmlns:xlink="http://www.w3.org/1999/xlink" x="0px" y="0px"
	 viewBox="0 0 1200 1200" style="enable-background:new 0 0 1200 1200;" xml:space="preserve">
<style type="text/css">
	.st0{fill:none;stroke:#A3BB3A;stroke-width:8;stroke-miterlimit:10;}
	.st1{fill:#A4BB3A;}
</style>
<g id="XMLID_27_">
	<g id="XMLID_9272_">
		<path id="XMLID_9283_" class="st0" d="M495.1,162.7c111.7,64.5,222.7,128.6,333.8,192.8c-26.1,23.9-53.1,28.3-82.2,10.4
			c-43-26.5-84.9-54.8-127.3-82.4C566.6,248.9,514,214.1,455.7,189c-9.9-4.3-20.1-7.9-30.3-11.3c-31.5-10.5-51.6-37.8-51.1-70.1
			c0.5-31.4,22.1-59.5,52.4-68.2c30.2-8.7,63.2,3.9,80.3,30.6c17.4,27.1,14.8,61.4-6.7,86.4C498.9,158.3,497.3,160.1,495.1,162.7z
			 M446.8,70.2c-21.5-0.1-38.8,16.5-39.2,37.7c-0.4,21.8,16.7,39.6,38.3,39.8c21.7,0.2,39.3-17.3,39.2-38.9
			C485.1,87.4,468.1,70.3,446.8,70.2z"/>
		<path id="XMLID_9286_" class="st0" d="M531.4,244.1c-12.8,7.5-23.8,13.9-32.8,19.2c6.4,14.1,14.5,26.6,17.8,40.3
			c8.9,37.6-14.8,74.5-52.2,84.2c-37.1,9.7-75.3-11.8-86.7-48.7c-11.4-36.8,8.3-75.6,44.4-89c21.5-8,42.6-17.1,64-25.4
			c2.7-1.1,6.5-2.2,8.7-1.1C506.5,229.7,518.1,236.5,531.4,244.1z M446.4,279.3c-21.5,0-38.5,16.8-38.7,38.1
			c-0.2,21.6,17.3,39.4,38.8,39.5c21,0,38.5-17.3,38.7-38.4C485.4,296.6,468.3,279.3,446.4,279.3z"/>
		<path id="XMLID_9300_" class="st0" d="M829.7,71.5c-4.4,2.8-7.2,4.7-10.1,6.4c-70.2,40.6-140.5,81.1-210.6,121.9
			c-6.1,3.6-10.8,4.1-16.9,0.1c-9.3-6.1-19.2-11.3-32-18.8c2.9-1,4.7-1.3,6-2.2c49.8-32.7,99.5-65.5,149.3-98
			c12.2-8,25.1-15,37.6-22.5c16-9.5,32.5-9.5,48.9-1.5C811,61,819.6,66.1,829.7,71.5z"/>
		<path id="XMLID_9301_" class="st1" d="M164.5,231.3c0,7.6,0.4,13.6-0.1,19.5c-0.9,11.4-9.2,18.9-19.9,18.5
			c-10.3-0.4-17.7-7.7-18.1-19.1c-0.4-12.5-0.4-25.1,0-37.6c0.4-12,7.1-18.9,18.9-19.2c12.9-0.4,25.8-0.4,38.6,0
			c10.9,0.4,18.5,8.4,18.5,18.6c0.1,10.2-7.4,18.3-18.2,19.2C178.1,231.7,171.9,231.3,164.5,231.3z"/>
		<path id="XMLID_9302_" class="st1" d="M1065.3,231.4c-7.4,0-13.2,0.3-19.1-0.1c-11.4-0.7-19.1-9-18.9-19.6
			c0.3-10.3,7.8-18,18.9-18.3c12.9-0.4,25.8-0.4,38.7,0c11.2,0.4,18,7.1,18.5,18.5c0.5,12.9,0.5,25.8,0,38.7
			c-0.4,11.2-8.1,18.5-18.4,18.7c-10.7,0.2-18.8-7.4-19.5-18.9C1065,244.6,1065.3,238.7,1065.3,231.4z"/>
		<path id="XMLID_9303_" class="st1" d="M1065.3,1129.3c0-7.4-0.3-13.4,0.1-19.2c0.7-11.4,8.9-19.2,19.5-19
			c10.4,0.2,18.1,7.5,18.5,18.7c0.5,12.9,0.5,25.8,0,38.7c-0.4,11.6-7.8,18.5-19.5,18.8c-12.5,0.3-25.1,0.4-37.6,0
			c-11.3-0.4-19.1-8.8-18.9-19.5c0.2-10.2,7.9-17.9,18.9-18.4C1052,1129,1057.9,1129.3,1065.3,1129.3z"/>
		<path id="XMLID_9304_" class="st1" d="M164.4,1129.3c8.1,0,14.3-0.3,20.5,0.1c10.2,0.7,17.5,8.6,17.6,18.5c0.1,9.8-7,18.6-17,19.1
			c-13.9,0.7-27.9,0.8-41.8,0c-9.7-0.6-16.4-6.7-16.9-16.7c-0.7-13.9-0.7-27.9-0.1-41.8c0.4-10.4,8.5-17.4,18.5-17.5
			c9.8-0.1,18,6.9,19.1,17.2C164.9,1114.7,164.4,1121.3,164.4,1129.3z"/>
		<path id="XMLID_9305_" class="st1" d="M914.4,1167.2c-6.3,0-12.5,0.3-18.8-0.1c-10.7-0.7-18.5-8.7-18.7-18.8
			c-0.1-10.4,8-18.8,19.3-19c12.9-0.3,25.7-0.4,38.6,0c10.7,0.3,18.6,8.5,18.7,18.6c0.1,10-7.7,18.5-18.3,19.2
			C928.3,1167.6,921.4,1167.2,914.4,1167.2z"/>
		<path id="XMLID_9306_" class="st1" d="M314.8,1129.3c6.6,0,13.2-0.3,19.8,0.1c10.2,0.6,17.7,8.3,18.2,18
			c0.5,9.9-7.2,19.2-17.7,19.6c-13.5,0.6-27.1,0.6-40.7,0.1c-10.6-0.4-18.4-9.2-18.2-19.2c0.1-10.1,8-18,18.7-18.6
			C301.6,1129,308.2,1129.3,314.8,1129.3z"/>
		<path id="XMLID_9307_" class="st1" d="M765.3,1167.2c-6.6,0-13.2,0.3-19.8-0.1c-10.8-0.7-18.4-8.6-18.5-18.8
			c-0.1-10.7,7.6-18.7,19.1-19c12.9-0.3,25.7-0.4,38.6,0c10.8,0.3,18.5,8.4,18.6,18.6c0.1,10.1-7.5,18.4-18.2,19.2
			C778.5,1167.6,771.9,1167.2,765.3,1167.2z"/>
		<path id="XMLID_9308_" class="st1" d="M323.9,193.4c6.6,0,13.2-0.3,19.8,0.1c10.5,0.6,17.7,7.9,18.1,17.9
			c0.4,9.9-6.2,19-16.2,19.6c-14.5,0.9-29.2,0.9-43.7,0c-10-0.6-16.4-9.8-16-19.8c0.5-10,7.5-17.1,18.2-17.7
			C310.7,193.1,317.3,193.4,323.9,193.4z"/>
		<path id="XMLID_9309_" class="st1" d="M164.5,382c0,6.3,0.4,12.5-0.1,18.8c-0.9,10.7-9.1,18.4-19.1,18.4c-10,0-18.3-7.6-18.8-18.5
			c-0.5-13.2-0.5-26.4,0-39.6c0.4-10.8,8.8-18.4,18.8-18.4c9.6,0,17.5,7.3,19,17.4c0.1,0.7,0.1,1.4,0.1,2.1
			C164.5,368.8,164.5,375.4,164.5,382C164.5,382,164.5,382,164.5,382z"/>
		<path id="XMLID_9310_" class="st1" d="M1103.3,381.6c0,6.6,0.4,13.2-0.1,19.8c-0.8,10.2-8.7,17.6-18.4,17.8
			c-9.5,0.2-18.6-7-19.2-17.1c-0.8-14.2-0.8-28.5,0.1-42.7c0.6-10,10-17.1,19.5-16.7c9.7,0.4,17.4,7.8,18.1,18.1
			C1103.7,367.7,1103.3,374.7,1103.3,381.6z"/>
		<path id="XMLID_9311_" class="st1" d="M760.5,193.4c6.3,0,12.5-0.3,18.8,0.1c11.1,0.6,18.4,8.1,18.6,18.5
			c0.1,9.8-6.8,18.6-16.9,19.1c-14.2,0.7-28.5,0.8-42.7-0.1c-10-0.6-16.9-9.7-16.5-19.5c0.4-9.8,7.6-17.2,18-18.1
			c0.7-0.1,1.4-0.1,2.1-0.1C748,193.3,754.3,193.3,760.5,193.4C760.5,193.3,760.5,193.4,760.5,193.4z"/>
		<path id="XMLID_9312_" class="st1" d="M1103.4,530.4c0,6.6,0.3,13.2-0.1,19.8c-0.7,11.1-8.3,18.4-18.6,18.5
			c-10.2,0.1-18.7-7.2-19.2-18c-0.6-13.5-0.7-27.1,0.1-40.6c0.6-10.7,9.4-17.7,19.7-17.3c10.1,0.4,17.2,7.2,18,18
			C1103.7,517.1,1103.4,523.8,1103.4,530.4C1103.4,530.4,1103.4,530.4,1103.4,530.4z"/>
		<path id="XMLID_9313_" class="st1" d="M164.5,530.6c0,6.3,0.3,12.5-0.1,18.8c-0.7,11.6-8.5,19.3-19.1,19.3
			c-10.7,0-18.5-7.6-18.9-19.3c-0.4-12.5-0.4-25,0-37.5c0.4-11.8,8.1-19.2,18.9-19.2c10.7,0,18.5,7.6,19.1,19.2
			C164.8,518.1,164.5,524.3,164.5,530.6z"/>
		<path id="XMLID_9314_" class="st1" d="M1103.4,680.4c0,6.6,0.4,13.2-0.1,19.8c-0.7,10.5-8.1,17.7-18,18.2
			c-9.6,0.4-19-6.5-19.6-16.5c-0.9-14.5-0.9-29.2,0.1-43.7c0.7-10,10.3-16.8,19.9-16.1c9.3,0.6,16.4,7.7,17.6,17.5
			c0.1,0.7,0.1,1.4,0.2,2.1C1103.4,667.9,1103.4,674.1,1103.4,680.4C1103.4,680.4,1103.4,680.4,1103.4,680.4z"/>
		<path id="XMLID_9315_" class="st1" d="M164.5,680.9c0,6.3,0.4,12.5-0.1,18.8c-0.8,11.3-9.4,19.1-19.8,18.7
			c-10.2-0.4-17.8-7.9-18.2-19.1c-0.4-12.8-0.5-25.7,0-38.6c0.4-11,8.4-18.6,18.5-18.8c10-0.2,18.4,7.4,19.4,18.1
			C164.9,666.9,164.5,673.9,164.5,680.9C164.5,680.9,164.5,680.9,164.5,680.9z"/>
		<path id="XMLID_9316_" class="st1" d="M464.4,1167.2c-6.6,0-13.2,0.4-19.8-0.1c-10.6-0.8-18.2-9.2-18-19.3
			c0.2-10.2,7.9-18.1,18.7-18.4c13.2-0.4,26.4-0.4,39.6,0c10.4,0.3,17.5,8.1,17.9,18.1c0.4,10.2-7,18.8-17.6,19.6
			C478.3,1167.6,471.3,1167.2,464.4,1167.2z"/>
		<path id="XMLID_9317_" class="st1" d="M614.5,1129.3c6.9,0,13.9-0.3,20.8,0.1c10.3,0.7,17.3,8.3,17.5,18.4
			c0.2,9.9-6.7,18.7-16.8,19.2c-14.2,0.7-28.5,0.7-42.7,0c-10-0.6-16.7-9.4-16.4-19.4c0.3-10,7.4-17.5,17.8-18.1
			C601.3,1129,607.9,1129.3,614.5,1129.3z"/>
		<path id="XMLID_9318_" class="st1" d="M1103.3,979.1c0,6.9,0.4,13.9-0.1,20.8c-0.8,10-7.9,16.8-17.4,17.5
			c-9.8,0.7-19.2-5.9-19.9-15.9c-1-14.5-1-29.2-0.1-43.7c0.6-10.1,9.8-16.9,19.5-16.6c9.8,0.4,17.3,7.6,18,18.1
			C1103.7,965.9,1103.3,972.5,1103.3,979.1C1103.3,979.1,1103.3,979.1,1103.3,979.1z"/>
		<path id="XMLID_9319_" class="st1" d="M912.6,231.4c-6.3,0-12.5,0.3-18.8-0.1c-11.5-0.6-19.3-8.5-19.3-19.1
			c0-10.7,7.7-18.5,19.3-18.8c12.5-0.3,25-0.3,37.5,0c11.7,0.3,19.3,8,19.3,18.8c0,10.6-7.8,18.5-19.3,19.1
			C925.1,231.7,918.8,231.4,912.6,231.4z"/>
		<path id="XMLID_9320_" class="st1" d="M126.4,829.5c0-6.6-0.4-13.2,0.1-19.8c0.8-10.6,8-17.6,18.1-17.9
			c9.9-0.3,18.8,6.2,19.5,16.4c0.9,14.2,0.9,28.5,0.1,42.7c-0.6,10.2-9.4,17.1-19.1,17c-10.3-0.1-17.9-7.5-18.6-18.6
			C126.1,842.7,126.4,836.1,126.4,829.5C126.4,829.5,126.4,829.5,126.4,829.5z"/>
		<path id="XMLID_9321_" class="st1" d="M126.4,979.6c0-6.6-0.3-13.2,0.1-19.8c0.7-11,8.5-18.5,18.7-18.6
			c10.1-0.1,18.7,7.4,19.2,18.2c0.6,13.5,0.7,27.1-0.1,40.6c-0.6,10.7-9.6,17.9-19.8,17.4c-9.9-0.4-17.2-7.5-18-18.1
			C126.1,992.8,126.4,986.2,126.4,979.6C126.4,979.6,126.4,979.6,126.4,979.6z"/>
		<path id="XMLID_9322_" class="st1" d="M1103.3,830.2c0,6.6,0.4,13.2-0.1,19.8c-0.8,10.5-8.2,17.6-18.1,18
			c-9.8,0.3-18.8-6.5-19.4-16.6c-0.9-14.2-0.9-28.5-0.1-42.7c0.6-10.2,9.3-17,19.2-16.9c10,0.2,17.6,7,18.4,17.5
			C1103.7,816.2,1103.3,823.2,1103.3,830.2z"/>
	</g>
	<g id="XMLID_9323_">
		<path id="XMLID_9324_" class="st0" d="M691.7,877.7c-12.3-22.4-25.3-45.9-38-69.4c-1.2-2.2-1.5-5.1-1.5-7.6
			c-0.1-114.3,0-228.6,0-342.9c0-1.2,0.2-2.3,0.4-4.3c33.6,0,67,0,101.4,0c0.1,3,0.4,6.2,0.4,9.3c0,116.1,0.1,232.2-0.2,348.3
			c0,4.8-2.1,10.4-5.1,14.1c-11.2,14.1-23.4,27.4-34.8,41.3C708.6,873.4,703.1,880.1,691.7,877.7z"/>
		<path id="XMLID_9325_" class="st0" d="M613.7,1039.6c-34.3,0-67.5,0-101.8,0c-0.2-3.1-0.5-6.2-0.5-9.3c0-112.8,0-225.6-0.1-338.4
			c0-6.2,1.4-10.7,6.6-14.3c3.6-2.5,6.7-5.8,10.1-8.6c9.3-7.8,16.8-19.4,33.5-15c8.2,14.9,16.2,32.4,26.9,48
			c21,30.5,26.9,63.3,25.9,100c-2.1,75.5-0.6,151.1-0.6,226.7C613.7,1032.2,613.7,1035.6,613.7,1039.6z"/>
		<path id="XMLID_9326_" class="st0" d="M366.7,663.2c11.5,29.2,23.1,58.5,34.4,87.8c0.9,2.4-0.1,5.6-0.6,8.3
			c-1.3,7.8,2.6,14,9.8,15.3c7.7,1.4,13.4-3.2,15.3-11.1c0.9-3.6,2.8-7.6,5.5-10c13.3-12.1,27-23.7,41.6-36.4
			c0,108.2,0,215.1,0,322.5c-35.7,0-71.2,0-107.3,0c0-125.6,0-250.8,0-375.9C365.8,663.5,366.2,663.4,366.7,663.2z"/>
		<path id="XMLID_9327_" class="st0" d="M900.3,1039.6c-35.8,0-71.1,0-107.8,0c0-3.2,0-6.3,0-9.4c0-78.3-0.1-156.6,0.2-234.9
			c0-4.7,2.3-10.2,5.2-14.1c7.3-9.7,15.5-18.6,23.4-27.8c7.5-8.8,13.5-19.6,29.3-17.8c15.2,17.8,31.7,37,48,56.4
			c1.7,2,2.3,5.4,2.3,8.1c0.1,77.7,0.1,155.4,0.1,233.1C901,1035.3,900.6,1037.2,900.3,1039.6z"/>
		<path id="XMLID_9328_" class="st0" d="M406.6,751.8c-14-35.5-27.3-69.2-40.5-103c-0.9-2.4-1.2-5.2-1.2-7.8
			c-0.1-60.8,0-121.7,0-182.5c0-1.5,0.2-2.9,0.3-5.1c36,0,71.8,0,108.1,0c0,3.2,0,6.2,0,9.1c0,77.7-0.1,155.3,0.1,233
			c0,5.8-1.6,9.8-6.1,13.5c-14.7,12.3-28.7,25.5-43.7,37.4C419.4,749.8,412.7,750,406.6,751.8z"/>
		<path id="XMLID_9329_" class="st0" d="M654.1,822.1c10.8,19.6,21.7,39.2,32.2,58.9c1.4,2.6,1,6.2,1.1,9.3
			c0.4,7.7,5.7,12.5,13.4,12c7.3-0.5,13.2-6.6,11.4-13.7c-1.3-5.2,0.6-8.2,3.5-11.6c12.3-14.2,24.5-28.6,37.9-44.3
			c0,70,0,138,0,206.7c-33.7,0-67.2,0-101.1,0c0-72.5,0-144.7,0-216.9C653.2,822.4,653.6,822.3,654.1,822.1z"/>
		<path id="XMLID_9330_" class="st0" d="M900.6,638.5c0,47,0,93.5,0,140.9c-1.3-0.7-2.4-1-3-1.7c-14-16.3-28.1-32.7-41.9-49.2
			c-1.6-1.9-2.3-4.6-3-7.1c-2.1-7.5-7.1-10.6-14.6-9.7c-6.9,0.8-10.5,6.6-10.5,14.1c0,3.6-1,7.9-3.2,10.6
			c-9.8,12.2-20.1,23.9-31.3,37c0-45.8,0-90.1,0-135C828.5,638.5,864.1,638.5,900.6,638.5z"/>
		<path id="XMLID_9331_" class="st0" d="M511.8,670.1c0-37.3,0-72.4,0-108.1c33.8,0,67.3,0,101.3,0c0,56.6,0,113.1,0,171.3
			c-2.1-3.1-3.6-5-4.8-7.1c-12.4-22.5-25-44.8-36.9-67.5c-3-5.7-4.3-12.4-5.7-18.8c-1.4-6.2-4.3-10.3-10.8-11.1
			c-6.7-0.8-13.1,1.9-13.5,8.4c-0.6,8.8-6.3,12.7-11.7,17.4C524.3,659.4,518.8,664.1,511.8,670.1z"/>
	</g>
</g>
</svg>
