<?xml version="1.0" encoding="utf-8"?>
<!-- Generator: Adobe Illustrator 19.0.0, SVG Export Plug-In . SVG Version: 6.00 Build 0)  -->
<svg version="1.1" id="Layer_1" xmlns="http://www.w3.org/2000/svg" xmlns:xlink="http://www.w3.org/1999/xlink" x="0px" y="0px"
	 viewBox="1110 -60 150 150" style="enable-background:new 1110 -60 150 150;" xml:space="preserve">
<style type="text/css">
	.st0{fill:none;stroke:#A3BB3A;stroke-width:2;stroke-miterlimit:10;}
</style>
<g id="XMLID_9069_">
	<path id="XMLID_9076_" class="st0" d="M1218.7-7.4c0.8-2.7,1.6-5.3,2.4-7.9c0.6-1.9,1.3-3.8,2-5.6c0.2-0.6,0.4-1.2,0.9-1.6
		c0.5-0.5,1.3-1,1.9-1c1,0,1.3,0.9,1.5,1.7c0.1,0.6,0.1,1.3,0.1,1.9c-0.5,4.5-1,8.9-1.5,13.4c-0.1,0.8-0.2,1.6-0.4,2.3
		c-0.2,0.8,0.2,1.2,0.8,1.6c0.6,0.5,1,0.1,1.4-0.2c3.8-2.3,7.7-4.4,12.1-5.2c8.1-1.4,13.3,2.4,14.6,10.5c0.9,5.6,0.2,11.2-0.8,16.7
		c-0.6,3-1.4,5.9-2,8.8c-0.2,0.8-0.2,1.6,0.1,2.3c2.8,7.6,4.2,15.4,4.3,23.4c0,2.1-0.3,2.5-2.4,2.5c-25.2,0-50.4,0-75.5,0
		c-0.8,0-1.4,0.1-1.8,1c-1.9,3.2-6.5,3.2-8.3-0.1c-0.4-0.7-0.9-0.9-1.6-0.9c-16.1,0-32.1,0-48.2,0c-2.5,0-2.7-0.3-2.7-2.7
		c0.3-15.4,5.2-29.2,14.4-41.5c0.4-0.5,0.5-0.9,0.3-1.6c-1-3,0.9-6,4-6.4c0.9-0.1,1.3-0.5,1.7-1.3c3.4-6.9,7.4-13.4,13-18.8
		c3.8-3.7,8.1-6.6,13.2-8.3c0.5-0.1,0.9-0.6,1.2-1c2.7-4.5,5.7-8.7,9.8-12.1c3.7-3.1,7.9-5,12.9-4.6c4.5,0.4,8.2,2.6,11.4,5.5
		c4.5,4,7.8,8.8,10.5,14.2c1.8,3.7,3.3,7.6,5,11.4c0.2,0.5,0.7,1.1,1.2,1.4C1215.6-8.8,1217.1-8.1,1218.7-7.4z M1166.9-25.4
		c3,0,5.8-0.2,8.4,0c6.5,0.7,12.4,3.3,17.8,6.8c2.2,1.4,4.1,3.3,6.4,4.4c2.3,1.1,5,1.4,7.5,2.1c0.7,0.2,1.4,0.4,2.2,0.7
		c0-0.3,0-0.4-0.1-0.5c-2.4-6.3-5.4-12.2-9.6-17.5c-2.5-3.2-5.3-6-8.9-7.8c-4.1-2.1-8.2-2.2-12.3,0
		C1173.5-34.7,1170.1-30.3,1166.9-25.4z M1229.4-0.3c8.5,6.9,15,15.1,19.9,24.7c0.7-2.7,1.3-5.3,1.7-8c0.7-4.6,1.2-9.2,0.4-13.8
		c-1.1-6.3-5-8.9-11.2-7.6C1236.3-4.1,1232.9-2.4,1229.4-0.3z M1159.3-10.8c0.1,0.1,0.2,0.2,0.3,0.3c10.6-4.2,21.6-5.7,33-5
		c-2.9-1.7-5.7-3.3-8.7-4.6c-5.8-2.5-11.9-3.4-18.2-2c-0.4,0.1-0.9,0.3-1,0.6C1162.8-17.9,1161.1-14.3,1159.3-10.8z M1160.4-20.4
		c-9.6,4.6-15.3,12.5-20.3,21.6c0.4-0.2,0.6-0.3,0.7-0.4c4.3-3.6,9-6.6,14-9.1c0.3-0.2,0.6-0.5,0.8-0.8
		C1157.1-12.8,1158.7-16.5,1160.4-20.4z M1238.5,33.4c0.7,2.9,1.5,5.6,2.1,8.4c3.7,0,7.3,0,11.2,0c-0.8-2.7-1.5-5.3-2.2-7.9
		c-0.1-0.2-0.5-0.4-0.8-0.4C1245.4,33.4,1242,33.4,1238.5,33.4z M1129.2,53.2c0.4-2.8,0.7-5.5,1.1-8.4c-3.5,0-7.1,0-10.6,0
		c-0.2,0-0.6,0.2-0.6,0.4c-0.3,2.6-0.5,5.2-0.8,8C1122.1,53.2,1125.6,53.2,1129.2,53.2z M1131,41.8c0.3-1.1,0.5-2.2,0.8-3.3
		c0.5-1.6,1-3.2-0.6-4.5c-0.3-0.2-0.6-0.6-1-0.6c-2.5,0-5,0-7.5,0c-0.3,0-0.8,0.2-0.8,0.4c-0.8,2.6-1.5,5.2-2.3,8
		C1123.6,41.8,1127.2,41.8,1131,41.8z M1241.3,44.9c0.3,2.5,0.7,4.9,0.9,7.3c0.1,0.9,0.4,1.1,1.2,1.1c2.8,0,5.6,0,8.5,0
		c0.3,0,0.7,0,1.2-0.1c-0.2-2.8-0.5-5.5-0.7-8.3C1248.6,44.9,1245,44.9,1241.3,44.9z M1187.3,53.2c3.6,0,7.1,0,10.7,0
		c0-2.8,0-5.5,0-8.3c-3.6,0-7.1,0-10.7,0C1187.3,47.7,1187.3,50.4,1187.3,53.2z M1143.9,44.9c-3.5,0-7,0-10.5,0
		c-0.4,2.8-0.8,5.5-1.2,8.3c3.7,0,7.2,0,10.8,0C1143.3,50.4,1143.6,47.7,1143.9,44.9z M1187.3,41.8c3.6,0,7.1,0,10.5,0
		c0-2.8,0-5.6,0-8.3c-3.6,0-7,0-10.5,0C1187.3,36.2,1187.3,39,1187.3,41.8z M1248.6,30.4c-1.4-2.8-2.7-5.4-4-8
		c-0.1-0.2-0.4-0.4-0.6-0.4c-3.1,0-6.3,0-9.5,0c1,2.8,2,5.4,2.9,8c0.1,0.2,0.4,0.4,0.6,0.4C1241.4,30.4,1244.8,30.4,1248.6,30.4z
		 M1157.3,44.9c-3.3,0-6.5,0-9.7,0c-0.2,0-0.6,0.3-0.6,0.5c-0.3,2.6-0.6,5.2-0.9,7.9c3.5,0,6.8,0,10.2,0c0.2,0,0.6-0.5,0.6-0.8
		C1157,50,1157.1,47.5,1157.3,44.9z M1201.1,44.9c0,2.9,0,5.6,0,8.3c3.5,0,7,0,10.7,0c-0.2-2.8-0.3-5.6-0.5-8.3
		C1207.8,44.9,1204.5,44.9,1201.1,44.9z M1197.7,30.3c-0.2-2.9-0.3-5.6-0.5-8.3c-3.4,0-6.6,0-9.9,0c0,2.8,0,5.5,0,8.3
		C1190.8,30.3,1194.1,30.3,1197.7,30.3z M1238.2,44.9c-1.8,0-3.4,0-5,0c-1.4,0-2.5,0.2-3.6,1.5c-1.3,1.5-1.6,2.7-1.3,4.4
		c0.1,0.5,0.1,1,0.1,1.5c0,0.8,0.3,1.1,1.1,1.1c3,0,5.9,0,8.9,0c0.3,0,0.5-0.1,0.9-0.1C1239,50.4,1238.6,47.7,1238.2,44.9z
		 M1147.4,41.8c3.5,0,6.8,0,10.2,0c0.3-2.8,0.7-5.5,1-8.3c-3.2,0-6.3,0-9.5,0C1148.6,36.2,1148,38.9,1147.4,41.8z M1137.2,21.9
		c-3.3,0-6.5,0-9.6,0c-0.3,0-0.6,0.2-0.7,0.4c-1.3,2.6-2.6,5.2-4,8c2.7,0,5.1,0,7.5,0c0.3,0,0.6-0.4,0.8-0.6
		c0.8-1.4,1.9-2.2,3.4-2.6c0.3-0.1,0.7-0.3,0.8-0.5C1136.1,25.1,1136.6,23.6,1137.2,21.9z M1160.3,44.9c-0.2,2.8-0.3,5.5-0.5,8.4
		c2.5,0,4.9,0,7.2,0c0.2,0,0.5-0.4,0.7-0.6c0.7-0.7,1.5-1.5,2.2-2.2c0.2-0.2,0.6-0.5,0.6-0.7c0-1.6,0-3.2,0-4.8
		C1167.1,44.9,1163.8,44.9,1160.3,44.9z M1225.5,53.2c-0.1-1.5-0.2-2.9-0.4-4.3c-0.1-0.4-0.4-0.8-0.8-1.1c-0.7-0.6-1.8-1-2.2-1.8
		c-0.6-1.1-1.3-1.3-2.4-1.2c-0.8,0.1-1.6,0-2.5,0c-1,0-1.9,0-2.9,0c0.2,2.9,0.3,5.6,0.5,8.3C1218.4,53.2,1221.9,53.2,1225.5,53.2z
		 M1210,33.5c-3.1,0-6.1,0-8.9,0c0,2.8,0,5.6,0,8.3c3.4,0,6.6,0,9.9,0C1210.6,39,1210.3,36.3,1210,33.5z M1161.7,33.5
		c-0.3,2.8-0.7,5.5-1,8.3c3.4,0,6.6,0,10,0c0-2.8,0-5.6,0-8.3C1167.7,33.5,1164.7,33.5,1161.7,33.5z M1184.1,53.3c0-2.9,0-5.6,0-8.4
		c-2.6,0-5.1,0-7.6,0c-2,0-1.7-0.3-2.1,1.7c-0.1,0.8-0.2,1.5-0.4,2.3c-0.2,0.9-0.1,1.6,0.9,2.1c0.6,0.3,1,1.2,1.5,1.7
		c0.2,0.2,0.5,0.6,0.7,0.6C1179.5,53.3,1181.8,53.3,1184.1,53.3z M1213,33.4c0.3,2.9,0.7,5.6,1,8.4c2.3,0,4.6,0.4,6.7-0.1
		c1.1-0.3,2.5-1.9,2.7-3.1c0.2-1.6-0.6-3.4-0.9-5.1C1219.3,33.4,1216.3,33.4,1213,33.4z M1184.1,10.5c-2.8,0-5.6,0-8.4,0
		c-0.3,2.8-0.7,5.5-1,8.3c3.3,0,6.3,0,9.4,0C1184.1,16,1184.1,13.3,1184.1,10.5z M1146,33.4c-1.9,0-3.7,0-5.4,0
		c-0.2,0-0.5,0.3-0.6,0.5c-0.9,1.6-2.1,2.5-4,2.8c-0.2,0-0.6,0.2-0.7,0.4c-0.4,1.5-0.8,3.1-1.2,4.6c3.5,0,6.9,0,10.3,0
		C1144.9,39,1145.5,36.2,1146,33.4z M1149.8,30.3c3.1,0,6.2,0,9.3,0c0.5-2.8,1-5.6,1.5-8.4c-2.8,0-5.5,0-8.3,0
		C1151.4,24.7,1150.7,27.5,1149.8,30.3z M1211,21.9c0.4,2.2,0.8,4.3,1.1,6.4c0.3,2,0.3,2,2.4,2c2.4,0,4.7,0,7.2,0
		c-0.9-2.9-1.7-5.7-2.4-8.4C1216.5,21.9,1213.8,21.9,1211,21.9z M1228.6,10.4c1.4,2.8,2.8,5.3,4.1,7.9c0.1,0.3,0.5,0.5,0.8,0.6
		c3,0,5.9,0,8.9,0c0-0.2,0-0.3,0-0.3c-1.9-2.6-3.8-5.2-5.7-7.7c-0.2-0.2-0.5-0.4-0.8-0.4C1233.5,10.4,1231.1,10.4,1228.6,10.4z
		 M1171.4,22c-2.6,0-5.1,0-7.7,0c-0.5,2.8-1,5.5-1.5,8.3c3,0,5.9,0,8.8,0C1171.1,27.5,1171.3,24.8,1171.4,22z M1200.2,22
		c0.2,2.9,0.4,5.6,0.5,8.3c2.9,0,5.8,0,8.8,0c-0.5-2.9-1-5.6-1.6-8.3C1205.3,22,1202.8,22,1200.2,22z M1184.1,41.8
		c0-2.8,0-5.6,0-8.4c-1.7,0-3.3,0-5,0c-0.2,0-0.6,0.2-0.7,0.4c-1,2.6-2.1,5.2-3.1,7.9C1178.4,41.8,1181.3,41.8,1184.1,41.8z
		 M1143,10.4c-1,0-1.9-0.1-2.8,0c-0.4,0-0.9,0.3-1,0.6c-1.3,2.2-3.2,3.1-5.7,2.5c-0.3-0.1-0.8,0-0.9,0.1c-1.2,1.6-2.4,3.2-3.7,5.1
		c3.3,0,6.4,0,9.4,0c0.2,0,0.5-0.2,0.6-0.4C1140.2,15.8,1141.6,13.2,1143,10.4z M1153.3,18.8c2.8,0,5.4,0,8,0
		c0.7-2.8,1.5-5.5,2.2-8.4c-1.3,0-2.6-0.3-3.7,0.1c-1.4,0.5-3.1,1.2-3.9,2.3C1154.7,14.5,1154.2,16.7,1153.3,18.8z M1146.7,30.4
		c0.8-2.9,1.6-5.6,2.4-8.4c-1.6,0-3.1,0-4.5,0c-0.3,0-0.7,0.2-0.9,0.5c-1.4,1.8-2.9,3.6-4.2,5.4c-0.5,0.7,0.5,2.5,1.3,2.5
		C1142.7,30.4,1144.7,30.4,1146.7,30.4z M1164.3,18.8c2.6,0,5,0,7.3,0c0.3-2.8,0.6-5.5,1-8.4c-1.9,0-3.6,0-5.3,0
		c-0.3,0-0.8,0.4-0.9,0.7C1165.8,13.6,1165.1,16.2,1164.3,18.8z M1230.4,30.3c-0.1-2.8-0.7-5.4-1.7-7.9c-0.1-0.2-0.4-0.5-0.6-0.5
		c-1.8,0-3.6,0-5.4,0c0.8,2.9,1.6,5.6,2.3,8.4C1226.7,30.3,1228.5,30.3,1230.4,30.3z M1210.4,18.8c2.6,0,5.2,0,7.9,0
		c-0.6-1.6-1.2-3.1-1.9-4.6c-0.1-0.2-0.5-0.4-0.8-0.4c-1.7-0.2-3-1-4-2.4c-0.1-0.2-0.5-0.5-0.8-0.5c-0.8,0.1-1.6,0.3-2.4,0.5
		C1209.1,13.9,1209.7,16.4,1210.4,18.8z M1182.5,22c-2.6,0-5.3,0-8.1,0c-0.2,2.8-0.3,5.5-0.5,8.4c0.8,0,1.5,0,2.2,0
		c0.3,0,0.7-0.2,0.9-0.4C1178.9,27.3,1180.7,24.6,1182.5,22z M1151.8-1.1c-1.4,0.1-2.9-0.3-3.8,0.3c-3,2.1-5.8,4.5-8.6,6.9
		c-0.2,0.1-0.2,0.6-0.2,0.8c0.1,0.2,0.4,0.5,0.7,0.5c0.8,0.1,1.7-0.1,2.5,0c2,0.3,3.2-0.4,4.3-2.1C1148.1,3.1,1149.9,1.2,1151.8-1.1
		z M1148.8,7c0.1,0.1,0.2,0.3,0.2,0.4c1.7,0,3.3,0,5,0c0.7,0,1-0.2,1.3-0.8c0.9-1.7,1.9-3.3,2.9-5c0.5-0.8,1.1-1.7,1.8-2.7
		c-1,0-1.9,0-2.7,0c-0.5,0-1.2,0.1-1.5,0.4C1153.5,1.9,1151.2,4.5,1148.8,7z M1195.8,10.5c-2.8,0-5.6,0-8.5,0c0,2.4,0,4.8,0,7.3
		c0.4-0.3,0.7-0.5,1-0.7c2.1-1.3,4.2-2.7,6.3-4C1196.2,12.2,1196.2,12.3,1195.8,10.5z M1205.4,12c-2,0.7-3.8,1.3-5.6,2
		c-0.2,0.1-0.4,0.5-0.4,0.7c0.1,1.4,0.3,2.7,0.4,4.1c2.5,0,4.8,0,7.3,0C1206.6,16.6,1206.1,14.4,1205.4,12z M1195.4,7.4
		c-0.3-1.7-0.6-3.2-1-4.8c-2.4,0-4.8,0-7.1,0c0,1.7,0,3.2,0,4.8C1190,7.4,1192.6,7.4,1195.4,7.4z M1233.3,33.5
		c-0.4,2.6-1.2,5.1-2.7,7.4c-0.3,0.5-0.1,1,0.5,1c2.1,0,4.2,0,6.5,0c-0.6-2.4-1.2-4.6-1.8-6.8C1235.3,33.3,1235.3,33.3,1233.3,33.5z
		 M1167.9-1c-1,0-1.7,0.1-2.4,0c-1.1-0.1-1.8,0.3-2.4,1.2c-0.8,1.2-1.6,2.3-2.4,3.5c-0.7,1.1-1.4,2.3-2.3,3.8
		c2.5-1.1,4.7-2.1,6.9-3.1c0.2-0.1,0.4-0.3,0.5-0.5C1166.5,2.3,1167.1,0.8,1167.9-1z M1176.3,7.3c2.7,0,5.3,0,7.9,0c0-1.5,0-3,0-4.6
		c-2.3,0.4-4.5,0.8-6.7,1.2c-0.3,0-0.6,0.4-0.7,0.7C1176.6,5.4,1176.4,6.3,1176.3,7.3z M1152.9,10.4c-1.9,0-3.8,0-5.7,0
		c-0.2,0-0.6,0.2-0.7,0.3c-1.5,2.6-3.1,5.2-4.7,8c0.4,0,0.7,0.1,0.7,0.1C1146,16.1,1149.4,13.3,1152.9,10.4z M1233.1,7.4
		c0-0.1,0.1-0.2,0.1-0.3c-2-1.7-4-3.5-6.1-5.2c-0.2-0.1-0.6-0.1-0.8,0c-0.9,0.6-1.7,1.2-2.5,1.9c0.8,1.1,1.5,2.2,2.3,3.1
		c0.2,0.2,0.5,0.5,0.7,0.5C1228.9,7.4,1231,7.4,1233.1,7.4z M1219.9,11.7c-0.9,0.9-0.9,0.9-0.5,1.8c0.6,1.5,1.2,3.1,1.8,4.6
		c0.1,0.3,0.4,0.8,0.7,0.8c1.6,0.1,3.2,0,5,0C1225,15.8,1222.9,13.4,1219.9,11.7z M1187.3-4.1c1.7,0,3.4,0,5.2,0
		c-1.2-3-2.4-5.8-5.2-7.8C1187.3-9.1,1187.3-6.6,1187.3-4.1z M1179.2-4.1c1.7,0,3.3,0,5,0c0-2.5,0-5,0-7.7
		C1181.5-9.7,1180.3-7,1179.2-4.1z M1203.9,7.4c-0.3-1-0.6-1.7-0.9-2.5c-0.1-0.3-0.4-0.8-0.6-0.9c-1.5-0.4-3-0.7-4.7-1.1
		c0.3,1.4,0.4,2.7,0.7,3.9c0,0.2,0.5,0.5,0.7,0.5C1200.6,7.4,1202.1,7.4,1203.9,7.4z M1228.5,38.8c0.6-1.7,1.2-3.5,1.9-5.4
		c-1.8,0-3.3,0-4.8,0c0.3,1.3,0.6,2.4,0.7,3.6C1226.4,38.3,1227,38.8,1228.5,38.8z M1203.6-1c0.6,1.1,0.9,2.2,1.6,2.6
		c1.9,1,3.9,1.6,6.2,2.5c-1.3-1.7-2.3-3.2-3.4-4.7c-0.1-0.2-0.4-0.4-0.7-0.4C1206.1-1,1205-1,1203.6-1z M1169.6,2.6
		c0.1,0.1,0.2,0.1,0.2,0.1c0.9-0.3,1.9-0.6,2.8-0.8c2-0.6,2.1-0.7,2.2-3c-1,0-1.9,0-2.9,0c-0.3,0-0.6,0.2-0.7,0.4
		C1170.6,0.5,1170.1,1.6,1169.6,2.6z M1184.2,25.4c-0.1,0-0.2-0.1-0.3-0.1c-1.2,1.6-2.4,3.3-3.6,5c1.5,0,2.7,0,3.9,0
		C1184.2,28.6,1184.2,27,1184.2,25.4z M1196.5,15.5c-1.9,1.1-3.5,2.1-5.2,3.1c0,0.1,0.1,0.1,0.1,0.2c1.8,0,3.5,0,5.4,0
		C1196.8,17.8,1196.7,16.8,1196.5,15.5z M1173.2-4.4c0.1,0.1,0.2,0.2,0.3,0.4c0.5,0,1,0,1.5,0c0.3,0,0.9-0.1,1-0.3
		c0.8-1.7,1.5-3.5,2.3-5.3c-0.1-0.1-0.2-0.1-0.2-0.2C1176.4-8,1174.8-6.2,1173.2-4.4z M1198.6-4.2c-1.8-2-3.3-3.8-4.9-5.5
		c-0.1,0.1-0.2,0.2-0.3,0.3c0.3,0.6,0.6,1.1,0.9,1.7c0.3,0.6,0.6,1.3,0.8,1.9c0.8,1.9,0.8,1.9,2.8,1.8C1198-4,1198.1-4.1,1198.6-4.2
		z M1167.8,7.4c1.7,0,3.2,0,4.8,0c0.2,0,0.6-0.3,0.7-0.6c0.2-0.6,0.2-1.3,0.3-1.9C1170.8,5.4,1168.2,6.4,1167.8,7.4z M1205-4.2
		c-2.1-1.6-3.9-3.1-5.7-4.6c-0.1,0.1-0.1,0.2-0.2,0.2c0.7,0.9,1.5,1.8,2,2.8C1201.7-4,1203-3.7,1205-4.2z M1172.6-8.5
		c-0.1-0.1-0.1-0.2-0.2-0.2c-1.8,1.5-3.7,2.9-5.5,4.4c0.1,0.1,0.1,0.2,0.2,0.3c0.5,0,0.9,0.1,1.4,0c0.5-0.1,1.2-0.2,1.5-0.6
		C1170.9-5.8,1171.7-7.2,1172.6-8.5z M1177.8,0.6c2-0.3,3.9-0.5,5.7-0.8c0.2,0,0.4-0.3,0.6-0.5c-0.2-0.1-0.4-0.3-0.6-0.3
		c-1.4,0-2.7,0.1-4.1,0C1178.2-1.1,1177.7-0.6,1177.8,0.6z M1222.7-5.2c0.4-2.6,0.7-5.1,1.1-7.6c-0.9,2-1.4,4-2.1,6
		C1221.4-5.9,1221.6-5.5,1222.7-5.2z M1221.9,1.4c0.8-0.6,1.5-1.1,2.2-1.7c-1.3-1.2-2.7-0.5-4.2-0.4
		C1220.6-0.1,1221.2,0.6,1221.9,1.4z M1160.3-4.3c0.1,0.1,0.1,0.3,0.2,0.4c0.7-0.1,1.7,0,2.2-0.4c1.1-0.9,2-2,2.9-3.1
		c-0.1-0.1-0.1-0.2-0.2-0.2C1163.7-6.5,1162-5.4,1160.3-4.3z M1151.1,15.7c-1.2,1-2.4,2-3.8,3.1
		C1150.2,19.1,1150.2,19.1,1151.1,15.7z M1196.8-0.7c1.1,1.2,2.7,0.8,4.2,1.3C1200.3-1.2,1200-1.3,1196.8-0.7z M1210.5,7.2
		c-1.4-0.7-2.6-1.2-4-1.8C1207,7.6,1207.5,7.8,1210.5,7.2z M1193.5-0.6c0-0.1,0-0.1,0-0.2c-2.1,0-4.1,0-6.2,0c0,0.1,0,0.1,0,0.2
		C1189.4-0.6,1191.4-0.6,1193.5-0.6z M1211.5-4.2c-1.5-1-2.7-1.8-4-2.6c0,0.1-0.1,0.2-0.2,0.2C1208.6-5.6,1208.9-3.5,1211.5-4.2z
		 M1153.4-4.2c2.1,0.6,2.8-1,3.8-2C1156-5.5,1154.8-4.9,1153.4-4.2z M1173.9,33.4c0,1.1,0,2,0,3c0,0,0.1,0,0.2,0c0.4-1,0.8-2,1.2-3
		C1174.8,33.4,1174.4,33.4,1173.9,33.4z M1221.4,5.6c-0.4,0.6-0.7,1.1-1,1.6c0.7,0.1,1.4,0.2,2.1,0.3c0-0.1,0.1-0.2,0.1-0.3
		C1222.2,6.7,1221.9,6.2,1221.4,5.6z M1217.8-4.4c-1-0.5-2-1-3.1-1.6C1216.4-4,1216.4-3.9,1217.8-4.4z M1223.7,10.5
		c0.8,0.7,1.5,1.3,2.2,1.9C1225.1,10.4,1225.1,10.4,1223.7,10.5z M1234.3,30.2c-0.3-0.8-0.5-1.5-0.9-2.5
		C1233.2,30.1,1233.3,30.3,1234.3,30.2z"/>
</g>
</svg>
