<?xml version="1.0" encoding="utf-8"?>
<!-- Generator: Adobe Illustrator 19.0.0, SVG Export Plug-In . SVG Version: 6.00 Build 0)  -->
<svg version="1.1" id="Layer_1" xmlns="http://www.w3.org/2000/svg" xmlns:xlink="http://www.w3.org/1999/xlink" x="0px" y="0px"
	 viewBox="1110 -60 150 150" style="enable-background:new 1110 -60 150 150;" xml:space="preserve">
<style type="text/css">
	.st0{fill:none;stroke:#A3BB3A;stroke-width:2;stroke-miterlimit:10;}
	.st1{fill:#A4BB3A;}
</style>
<path id="XMLID_9283_" class="st0" d="M1169.5-38.8c15.1,8.1,30.2,16.1,45.2,24.1c-3.5,3-7.2,3.5-11.1,1.3
	c-5.8-3.3-11.5-6.9-17.3-10.3c-7.2-4.3-14.3-8.7-22.2-11.8c-1.3-0.5-2.7-1-4.1-1.4c-4.3-1.3-7-4.7-6.9-8.8c0.1-3.9,3-7.4,7.1-8.5
	c4.1-1.1,8.6,0.5,10.9,3.8c2.4,3.4,2,7.7-0.9,10.8C1170-39.4,1169.8-39.1,1169.5-38.8z M1163-50.4c-2.9,0-5.3,2.1-5.3,4.7
	c-0.1,2.7,2.3,5,5.2,5c2.9,0,5.3-2.2,5.3-4.9C1168.2-48.2,1165.8-50.4,1163-50.4z"/>
<path id="XMLID_9286_" class="st0" d="M1174.4-28.6c-1.7,0.9-3.2,1.7-4.4,2.4c0.9,1.8,2,3.3,2.4,5c1.2,4.7-2,9.3-7.1,10.5
	c-5,1.2-10.2-1.5-11.8-6.1c-1.5-4.6,1.1-9.5,6-11.1c2.9-1,5.8-2.1,8.7-3.2c0.4-0.1,0.9-0.3,1.2-0.1
	C1171.1-30.4,1172.6-29.6,1174.4-28.6z M1162.9-24.2c-2.9,0-5.2,2.1-5.2,4.8c0,2.7,2.3,4.9,5.3,4.9c2.8,0,5.2-2.2,5.2-4.8
	C1168.2-22,1165.9-24.2,1162.9-24.2z"/>
<path id="XMLID_9300_" class="st0" d="M1214.9-50.2c-0.6,0.4-1,0.6-1.4,0.8c-9.5,5.1-19,10.2-28.5,15.3c-0.8,0.5-1.5,0.5-2.3,0
	c-1.3-0.8-2.6-1.4-4.3-2.4c0.4-0.1,0.6-0.2,0.8-0.3c6.7-4.1,13.5-8.2,20.2-12.3c1.7-1,3.4-1.9,5.1-2.8c2.2-1.2,4.4-1.2,6.6-0.2
	C1212.3-51.5,1213.5-50.9,1214.9-50.2z"/>
<path id="XMLID_9301_" class="st1" d="M1124.7-30.2c0,1,0.1,1.7,0,2.4c-0.1,1.4-1.2,2.4-2.7,2.3c-1.4-0.1-2.4-1-2.5-2.4
	c-0.1-1.6-0.1-3.1,0-4.7c0.1-1.5,1-2.4,2.6-2.4c1.7-0.1,3.5-0.1,5.2,0c1.5,0.1,2.5,1.1,2.5,2.3c0,1.3-1,2.3-2.5,2.4
	C1126.5-30.2,1125.7-30.2,1124.7-30.2z"/>
<path id="XMLID_9302_" class="st1" d="M1246.8-30.2c-1,0-1.8,0-2.6,0c-1.5-0.1-2.6-1.1-2.6-2.5c0-1.3,1.1-2.3,2.6-2.3
	c1.7-0.1,3.5-0.1,5.2,0c1.5,0.1,2.4,0.9,2.5,2.3c0.1,1.6,0.1,3.2,0,4.8c-0.1,1.4-1.1,2.3-2.5,2.3c-1.5,0-2.5-0.9-2.6-2.4
	C1246.7-28.6,1246.8-29.3,1246.8-30.2z"/>
<path id="XMLID_9303_" class="st1" d="M1246.8,82.2c0-0.9,0-1.7,0-2.4c0.1-1.4,1.2-2.4,2.6-2.4c1.4,0,2.5,0.9,2.5,2.3
	c0.1,1.6,0.1,3.2,0,4.8c-0.1,1.5-1.1,2.3-2.6,2.4c-1.7,0-3.4,0.1-5.1,0c-1.5-0.1-2.6-1.1-2.6-2.4c0-1.3,1.1-2.2,2.6-2.3
	C1245,82.2,1245.8,82.2,1246.8,82.2z"/>
<path id="XMLID_9304_" class="st1" d="M1124.7,82.2c1.1,0,1.9,0,2.8,0c1.4,0.1,2.4,1.1,2.4,2.3c0,1.2-0.9,2.3-2.3,2.4
	c-1.9,0.1-3.8,0.1-5.7,0c-1.3-0.1-2.2-0.8-2.3-2.1c-0.1-1.7-0.1-3.5,0-5.2c0.1-1.3,1.2-2.2,2.5-2.2c1.3,0,2.4,0.9,2.6,2.2
	C1124.8,80.4,1124.7,81.2,1124.7,82.2z"/>
<path id="XMLID_9305_" class="st1" d="M1226.3,87c-0.9,0-1.7,0-2.5,0c-1.5-0.1-2.5-1.1-2.5-2.4c0-1.3,1.1-2.4,2.6-2.4
	c1.7,0,3.5-0.1,5.2,0c1.5,0,2.5,1.1,2.5,2.3c0,1.3-1,2.3-2.5,2.4C1228.2,87,1227.3,87,1226.3,87z"/>
<path id="XMLID_9306_" class="st1" d="M1145.1,82.2c0.9,0,1.8,0,2.7,0c1.4,0.1,2.4,1,2.5,2.3c0.1,1.2-1,2.4-2.4,2.5
	c-1.8,0.1-3.7,0.1-5.5,0c-1.4-0.1-2.5-1.2-2.5-2.4c0-1.3,1.1-2.3,2.5-2.3C1143.3,82.2,1144.2,82.2,1145.1,82.2z"/>
<path id="XMLID_9307_" class="st1" d="M1206.1,87c-0.9,0-1.8,0-2.7,0c-1.5-0.1-2.5-1.1-2.5-2.4c0-1.3,1-2.3,2.6-2.4
	c1.7,0,3.5-0.1,5.2,0c1.5,0,2.5,1.1,2.5,2.3c0,1.3-1,2.3-2.5,2.4C1207.9,87,1207,87,1206.1,87z"/>
<path id="XMLID_9308_" class="st1" d="M1146.3-35c0.9,0,1.8,0,2.7,0c1.4,0.1,2.4,1,2.5,2.2c0.1,1.2-0.8,2.4-2.2,2.5
	c-2,0.1-4,0.1-5.9,0c-1.4-0.1-2.2-1.2-2.2-2.5c0.1-1.3,1-2.1,2.5-2.2C1144.5-35,1145.4-35,1146.3-35z"/>
<path id="XMLID_9309_" class="st1" d="M1124.7-11.4c0,0.8,0.1,1.6,0,2.4c-0.1,1.3-1.2,2.3-2.6,2.3c-1.4,0-2.5-1-2.5-2.3
	c-0.1-1.7-0.1-3.3,0-5c0.1-1.4,1.2-2.3,2.5-2.3c1.3,0,2.4,0.9,2.6,2.2c0,0.1,0,0.2,0,0.3C1124.7-13,1124.7-12.2,1124.7-11.4
	L1124.7-11.4z"/>
<path id="XMLID_9310_" class="st1" d="M1251.9-11.4c0,0.8,0.1,1.7,0,2.5c-0.1,1.3-1.2,2.2-2.5,2.2c-1.3,0-2.5-0.9-2.6-2.1
	c-0.1-1.8-0.1-3.6,0-5.3c0.1-1.3,1.4-2.1,2.6-2.1c1.3,0.1,2.4,1,2.5,2.3C1252-13.1,1251.9-12.3,1251.9-11.4z"/>
<path id="XMLID_9311_" class="st1" d="M1205.5-35c0.9,0,1.7,0,2.5,0c1.5,0.1,2.5,1,2.5,2.3c0,1.2-0.9,2.3-2.3,2.4
	c-1.9,0.1-3.9,0.1-5.8,0c-1.4-0.1-2.3-1.2-2.2-2.4c0.1-1.2,1-2.2,2.4-2.3c0.1,0,0.2,0,0.3,0C1203.8-35,1204.6-35,1205.5-35
	C1205.5-35,1205.5-35,1205.5-35z"/>
<path id="XMLID_9312_" class="st1" d="M1251.9,7.2c0,0.8,0,1.7,0,2.5c-0.1,1.4-1.1,2.3-2.5,2.3c-1.4,0-2.5-0.9-2.6-2.3
	c-0.1-1.7-0.1-3.4,0-5.1c0.1-1.3,1.3-2.2,2.7-2.2c1.4,0.1,2.3,0.9,2.4,2.3C1252,5.6,1251.9,6.4,1251.9,7.2L1251.9,7.2z"/>
<path id="XMLID_9313_" class="st1" d="M1124.7,7.2c0,0.8,0,1.6,0,2.4c-0.1,1.5-1.2,2.4-2.6,2.4c-1.5,0-2.5-1-2.6-2.4
	c-0.1-1.6-0.1-3.1,0-4.7c0.1-1.5,1.1-2.4,2.6-2.4c1.5,0,2.5,1,2.6,2.4C1124.7,5.7,1124.7,6.5,1124.7,7.2z"/>
<path id="XMLID_9314_" class="st1" d="M1251.9,26c0,0.8,0.1,1.7,0,2.5c-0.1,1.3-1.1,2.2-2.4,2.3c-1.3,0.1-2.6-0.8-2.7-2.1
	c-0.1-1.8-0.1-3.7,0-5.5c0.1-1.3,1.4-2.1,2.7-2c1.3,0.1,2.2,1,2.4,2.2c0,0.1,0,0.2,0,0.3C1251.9,24.4,1251.9,25.2,1251.9,26
	L1251.9,26z"/>
<path id="XMLID_9315_" class="st1" d="M1124.7,26.1c0,0.8,0.1,1.6,0,2.4c-0.1,1.4-1.3,2.4-2.7,2.3c-1.4-0.1-2.4-1-2.5-2.4
	c-0.1-1.6-0.1-3.2,0-4.8c0.1-1.4,1.1-2.3,2.5-2.4c1.4,0,2.5,0.9,2.6,2.3C1124.8,24.3,1124.7,25.2,1124.7,26.1L1124.7,26.1z"/>
<path id="XMLID_9316_" class="st1" d="M1165.3,87c-0.9,0-1.8,0.1-2.7,0c-1.4-0.1-2.5-1.2-2.4-2.4c0-1.3,1.1-2.3,2.5-2.3
	c1.8-0.1,3.6-0.1,5.4,0c1.4,0,2.4,1,2.4,2.3c0.1,1.3-0.9,2.4-2.4,2.5C1167.2,87,1166.3,87,1165.3,87z"/>
<path id="XMLID_9317_" class="st1" d="M1185.7,82.2c0.9,0,1.9,0,2.8,0c1.4,0.1,2.3,1,2.4,2.3c0,1.2-0.9,2.3-2.3,2.4
	c-1.9,0.1-3.9,0.1-5.8,0c-1.4-0.1-2.3-1.2-2.2-2.4s1-2.2,2.4-2.3C1183.9,82.2,1184.8,82.2,1185.7,82.2z"/>
<path id="XMLID_9318_" class="st1" d="M1251.9,63.4c0,0.9,0.1,1.7,0,2.6c-0.1,1.3-1.1,2.1-2.4,2.2c-1.3,0.1-2.6-0.7-2.7-2
	c-0.1-1.8-0.1-3.7,0-5.5c0.1-1.3,1.3-2.1,2.6-2.1c1.3,0.1,2.3,1,2.4,2.3C1252,61.8,1251.9,62.6,1251.9,63.4L1251.9,63.4z"/>
<path id="XMLID_9319_" class="st1" d="M1226.1-30.2c-0.9,0-1.7,0-2.5,0c-1.6-0.1-2.6-1.1-2.6-2.4c0-1.3,1-2.3,2.6-2.4
	c1.7,0,3.4,0,5.1,0c1.6,0,2.6,1,2.6,2.4c0,1.3-1.1,2.3-2.6,2.4C1227.8-30.2,1226.9-30.2,1226.1-30.2z"/>
<path id="XMLID_9320_" class="st1" d="M1119.5,44.7c0-0.8-0.1-1.7,0-2.5c0.1-1.3,1.1-2.2,2.5-2.2c1.3,0,2.5,0.8,2.6,2.1
	c0.1,1.8,0.1,3.6,0,5.3c-0.1,1.3-1.3,2.1-2.6,2.1c-1.4,0-2.4-0.9-2.5-2.3C1119.5,46.3,1119.5,45.5,1119.5,44.7L1119.5,44.7z"/>
<path id="XMLID_9321_" class="st1" d="M1119.5,63.5c0-0.8,0-1.7,0-2.5c0.1-1.4,1.2-2.3,2.5-2.3c1.4,0,2.5,0.9,2.6,2.3
	c0.1,1.7,0.1,3.4,0,5.1c-0.1,1.3-1.3,2.2-2.7,2.2c-1.3-0.1-2.3-0.9-2.4-2.3C1119.5,65.1,1119.5,64.3,1119.5,63.5L1119.5,63.5z"/>
<path id="XMLID_9322_" class="st1" d="M1251.9,44.8c0,0.8,0.1,1.7,0,2.5c-0.1,1.3-1.1,2.2-2.5,2.3c-1.3,0-2.5-0.8-2.6-2.1
	c-0.1-1.8-0.1-3.6,0-5.3c0.1-1.3,1.3-2.1,2.6-2.1c1.4,0,2.4,0.9,2.5,2.2C1252,43,1251.9,43.9,1251.9,44.8z"/>
<g id="XMLID_9323_">
	<path id="XMLID_9324_" class="st0" d="M1196.2,50.7c-1.7-2.8-3.4-5.7-5.2-8.7c-0.2-0.3-0.2-0.6-0.2-1c0-14.3,0-28.6,0-42.9
		c0-0.2,0-0.3,0.1-0.5c4.6,0,9.1,0,13.7,0c0,0.4,0.1,0.8,0.1,1.2c0,14.5,0,29.1,0,43.6c0,0.6-0.3,1.3-0.7,1.8
		c-1.5,1.8-3.2,3.4-4.7,5.2C1198.4,50.2,1197.7,51,1196.2,50.7z"/>
	<path id="XMLID_9325_" class="st0" d="M1185.6,71c-4.6,0-9.1,0-13.8,0c0-0.4-0.1-0.8-0.1-1.2c0-14.1,0-28.2,0-42.4
		c0-0.8,0.2-1.3,0.9-1.8c0.5-0.3,0.9-0.7,1.4-1.1c1.3-1,2.3-2.4,4.5-1.9c1.1,1.9,2.2,4.1,3.6,6c2.8,3.8,3.6,7.9,3.5,12.5
		c-0.3,9.5-0.1,18.9-0.1,28.4C1185.6,70.1,1185.6,70.5,1185.6,71z"/>
	<path id="XMLID_9326_" class="st0" d="M1152.1,23.9c1.6,3.7,3.1,7.3,4.7,11c0.1,0.3,0,0.7-0.1,1c-0.2,1,0.4,1.8,1.3,1.9
		c1,0.2,1.8-0.4,2.1-1.4c0.1-0.5,0.4-1,0.7-1.3c1.8-1.5,3.7-3,5.6-4.6c0,13.5,0,26.9,0,40.4c-4.8,0-9.6,0-14.5,0
		c0-15.7,0-31.4,0-47.1C1152,23.9,1152,23.9,1152.1,23.9z"/>
	<path id="XMLID_9327_" class="st0" d="M1224.4,71c-4.9,0-9.6,0-14.6,0c0-0.4,0-0.8,0-1.2c0-9.8,0-19.6,0-29.4
		c0-0.6,0.3-1.3,0.7-1.8c1-1.2,2.1-2.3,3.2-3.5c1-1.1,1.8-2.5,4-2.2c2.1,2.2,4.3,4.6,6.5,7.1c0.2,0.3,0.3,0.7,0.3,1
		c0,9.7,0,19.5,0,29.2C1224.5,70.4,1224.5,70.7,1224.4,71z"/>
	<path id="XMLID_9328_" class="st0" d="M1157.5,34.9c-1.9-4.4-3.7-8.7-5.5-12.9c-0.1-0.3-0.2-0.7-0.2-1c0-7.6,0-15.2,0-22.8
		c0-0.2,0-0.4,0-0.6c4.9,0,9.7,0,14.7,0c0,0.4,0,0.8,0,1.1c0,9.7,0,19.4,0,29.2c0,0.7-0.2,1.2-0.8,1.7c-2,1.5-3.9,3.2-5.9,4.7
		C1159.2,34.7,1158.3,34.7,1157.5,34.9z"/>
	<path id="XMLID_9329_" class="st0" d="M1191.1,43.7c1.5,2.5,2.9,4.9,4.4,7.4c0.2,0.3,0.1,0.8,0.1,1.2c0.1,1,0.8,1.6,1.8,1.5
		c1-0.1,1.8-0.8,1.5-1.7c-0.2-0.7,0.1-1,0.5-1.5c1.7-1.8,3.3-3.6,5.1-5.5c0,8.8,0,17.3,0,25.9c-4.6,0-9.1,0-13.7,0
		c0-9.1,0-18.1,0-27.2C1190.9,43.8,1191,43.8,1191.1,43.7z"/>
	<path id="XMLID_9330_" class="st0" d="M1224.5,20.8c0,5.9,0,11.7,0,17.6c-0.2-0.1-0.3-0.1-0.4-0.2c-1.9-2-3.8-4.1-5.7-6.2
		c-0.2-0.2-0.3-0.6-0.4-0.9c-0.3-0.9-1-1.3-2-1.2c-0.9,0.1-1.4,0.8-1.4,1.8c0,0.5-0.1,1-0.4,1.3c-1.3,1.5-2.7,3-4.2,4.6
		c0-5.7,0-11.3,0-16.9C1214.7,20.8,1219.5,20.8,1224.5,20.8z"/>
	<path id="XMLID_9331_" class="st0" d="M1171.8,24.7c0-4.7,0-9.1,0-13.5c4.6,0,9.1,0,13.7,0c0,7.1,0,14.2,0,21.4
		c-0.3-0.4-0.5-0.6-0.7-0.9c-1.7-2.8-3.4-5.6-5-8.5c-0.4-0.7-0.6-1.6-0.8-2.4c-0.2-0.8-0.6-1.3-1.5-1.4c-0.9-0.1-1.8,0.2-1.8,1.1
		c-0.1,1.1-0.9,1.6-1.6,2.2C1173.5,23.4,1172.7,24,1171.8,24.7z"/>
</g>
</svg>
