<?xml version="1.0" encoding="utf-8"?>
<!-- Generator: Adobe Illustrator 19.0.0, SVG Export Plug-In . SVG Version: 6.00 Build 0)  -->
<svg version="1.1" id="Layer_1" xmlns="http://www.w3.org/2000/svg" xmlns:xlink="http://www.w3.org/1999/xlink" x="0px" y="0px"
	 viewBox="0 0 1200 1200" style="enable-background:new 0 0 1200 1200;" xml:space="preserve">
<style type="text/css">
	.st0{fill:none;stroke:#A3BB3A;stroke-width:8;stroke-miterlimit:10;}
</style>
<g id="XMLID_27_">
	<path id="XMLID_9513_" class="st0" d="M1070.2,758.6c36.6,0,71.6,0,106.5,0c9.3,40.2-11.1,66.9-50.9,66.9
		c-349.1,0.1-698.2,0-1047.3,0.2c-21.1,0-37-8.8-49.8-24.7c-10-12.3-7.3-26.8-7.2-41.9c35.6,0,70.9,0,107.6,0c0-5,0-8.9,0-12.8
		c0-151.2,0-302.4,0-453.6c0-32.3,15.6-47.9,47.8-47.9c280.4,0,560.9,0.3,841.3-0.5c26.4-0.1,52.6,23.9,52.5,52.4
		c-0.8,149.2-0.4,298.4-0.4,447.5C1070.2,748.3,1070.2,752.7,1070.2,758.6z M1028.2,727.5c0-147.6,0-294.3,0-441.5
		c-287.6,0-574.7,0-862.2,0c0,147.4,0,294.3,0,441.5C453.5,727.5,740.3,727.5,1028.2,727.5z M673.4,763.2c-51.2,0-101.7,0-152.7,0
		c0,4,0,7.4,0,11c51.4,0,102.1,0,153.4,0C673.8,770,673.6,766.8,673.4,763.2z"/>
	<path id="XMLID_9517_" class="st0" d="M203.9,392.7c0-45.7,36.9-82.7,82.5-82.7c45.5,0,82.4,37.1,82.4,82.8
		c0,45.6-37,82.7-82.5,82.7C240.8,475.5,203.9,438.4,203.9,392.7z M285.7,315.5c-44.4-1-79.8,37.5-77.3,82.4
		c2.5,44.9,42.9,77.5,89.2,72.1c37.7-4.4,71.9-44.6,65.3-78c-25.3,0-50.8,0-77.2,0C285.7,366,285.7,341.1,285.7,315.5z"/>
	<path id="XMLID_9520_" class="st0" d="M621.4,393c-0.2-45.6,36.7-82.8,82.3-83c45.3-0.2,82.8,37.1,83,82.5
		c0.2,45.4-37,82.8-82.4,83C658.8,475.7,621.6,438.7,621.4,393z M704.4,469.5c27.9,3,58-16.4,70.8-44.7c14-30.9,6.5-66.7-18.8-89.9
		c-24.4-22.4-61.4-26.6-90.5-10.4c-25.5,14.3-43,45.1-38.2,68.8c25,0,50.2,0,76.7,0C704.4,419.4,704.4,444.5,704.4,469.5z"/>
	<path id="XMLID_9523_" class="st0" d="M412.8,393c-0.1-45.7,36.5-82.8,82.1-83c45.4-0.2,82.7,37,82.8,82.4
		c0.1,45.6-36.8,82.8-82.3,83C450,475.7,412.9,438.7,412.8,393z M572.6,392.3c1.5-30.6-19.4-60.9-49.1-72.4
		c-31.2-12.1-66.8-2.9-88.3,22.8c-21.8,26.1-24.3,63-6.1,91.7c15,23.8,45.2,39.6,66.9,34.3c0-24.9,0-50.1,0-76.4
		C522.3,392.3,547.5,392.3,572.6,392.3z"/>
	<g id="XMLID_9526_">
		<path id="XMLID_9527_" class="st0" d="M940.7,379.4c17.9,0,35.5,0,53.5,0c0,102,0,204.1,0,306.4c-17.7,0-35.4,0-53.5,0
			C940.7,583.8,940.7,481.9,940.7,379.4z"/>
		<path id="XMLID_9528_" class="st0" d="M878.1,435c18,0,35.7,0,53.6,0c0,83.7,0,167.1,0,250.7c-17.9,0-35.6,0-53.6,0
			C878.1,602.3,878.1,518.9,878.1,435z"/>
		<path id="XMLID_9529_" class="st0" d="M868.9,685.9c-17.9,0-35.5,0-53.4,0c0-65,0-129.8,0-194.9c17.7,0,35.4,0,53.4,0
			C868.9,555.7,868.9,620.5,868.9,685.9z"/>
		<path id="XMLID_9530_" class="st0" d="M805.3,546.6c0,46.6,0,92.6,0,139.1c-17.9,0-35.8,0-53.8,0c0-46.3,0-92.5,0-139.1
			C769.3,546.6,787.1,546.6,805.3,546.6z"/>
		<path id="XMLID_9531_" class="st0" d="M687.6,602.1c18,0,35.6,0,53.5,0c0,27.9,0,55.7,0,83.7c-17.8,0-35.5,0-53.5,0
			C687.6,658,687.6,630.2,687.6,602.1z"/>
	</g>
</g>
</svg>
