<?xml version="1.0" encoding="utf-8"?>
<!-- Generator: Adobe Illustrator 19.0.0, SVG Export Plug-In . SVG Version: 6.00 Build 0)  -->
<svg version="1.1" id="Layer_1" xmlns="http://www.w3.org/2000/svg" xmlns:xlink="http://www.w3.org/1999/xlink" x="0px" y="0px"
	 viewBox="0 0 1200 1200" style="enable-background:new 0 0 1200 1200;" xml:space="preserve">
<style type="text/css">
	.st0{fill:none;stroke:#A3BB3A;stroke-width:8;stroke-miterlimit:10;}
</style>
<g id="XMLID_27_">
	<path id="XMLID_9414_" class="st0" d="M1169.2,861.2c-30.3,0-59.2,0-89.2,0c0-100.4,0-200.4,0-301.1c-14.4,0-27.8,0-42.1,0
		c0,100,0,200,0,300.8c-84.5,0-168,0-252.5,0c0-100.2,0-200.2,0-300.9c-14.7,0-28.4,0-43.1,0c0,100.3,0,200.3,0,301
		c-30.2,0-59.4,0-89.9,0c0-3.9,0-7.6,0-11.3c0-96.7,0.7-193.4-0.2-290c-0.8-76,52.8-131.9,129.9-136.1c51.7-2.8,103.6-1,155.4-1.1
		c33.8,0,67.6-0.6,101.4,0.8c61,2.5,110.9,41.1,125.6,96.3c2.9,10.9,4.5,22.4,4.6,33.6c0.3,100.1,0.2,200.3,0.2,300.4
		C1169.2,855.9,1169.2,858,1169.2,861.2z"/>
	<path id="XMLID_9415_" class="st0" d="M622.8,861.1c-50.7,0-99.8,0-150,0c0-100.6,0-200.6,0-301.2c-14.5,0-28,0-42.8,0
		c0,100,0,200.2,0,301.1c-30.5,0-59.6,0-90,0c0-4.2,0-7.8,0-11.5c0-96.7,1-193.4-0.3-290c-0.9-72.1,48.9-131.7,128.1-135.5
		c75.3-3.7,151-1.1,226.5-1.3c0.6,0,1.1,0.4,3,1.1c-3,2-5.4,3.6-7.8,5.2c-41.1,26.1-64,64-65.8,112.1c-2.1,54.3-0.8,108.7-0.9,163
		c-0.1,48.7,0,97.3,0,146C622.8,853.4,622.8,856.8,622.8,861.1z"/>
	<path id="XMLID_9416_" class="st0" d="M386.9,423.1c-40.7,22.7-64.5,54.6-73.2,97.2c-2.3,11.3-3.2,23.2-3.2,34.8
		c-0.2,97.9-0.1,195.9-0.1,293.8c0,3.7,0,7.5,0,12c-48,0-95.2,0-143.6,0c0-100.1,0-200.4,0-301.1c-14.9,0-28.6,0-43.3,0
		c0,100.5,0,200.5,0,301.2c-30.1,0-59.3,0-89.5,0c0-3.6,0-7,0-10.4c0-97.6,0-195.3,0-292.9c0-69.6,45.6-122.5,114.5-132.6
		c10.9-1.6,22-2.5,33-2.5c65.1-0.2,130.2-0.1,195.3-0.1C379.1,422.5,381.6,422.8,386.9,423.1z"/>
	<path id="XMLID_9417_" class="st0" d="M907.2,164.7c58-0.1,104.8,46.6,104.9,104.5c0.1,58-46.4,104.8-104.3,105
		c-58.4,0.2-105.7-46.8-105.6-104.9C802.4,211.4,849.3,164.7,907.2,164.7z"/>
	<path id="XMLID_9418_" class="st0" d="M157.2,268.9c40.5-40.5,81.7-81.8,122.3-122.4c40.6,40.7,81.9,81.9,122.1,122.2
		c-40.3,40.3-81.7,81.7-122.3,122.3C239.6,351.2,198.1,309.8,157.2,268.9z"/>
	<path id="XMLID_9419_" class="st0" d="M584,395.5c-46.9-70.2-93-139.2-140-209.6c94,0,185.9,0,280,0
		C677,256.2,630.9,325.2,584,395.5z"/>
</g>
</svg>
