<?xml version="1.0" encoding="utf-8"?>
<!-- Generator: Adobe Illustrator 19.0.0, SVG Export Plug-In . SVG Version: 6.00 Build 0)  -->
<svg version="1.1" id="Layer_1" xmlns="http://www.w3.org/2000/svg" xmlns:xlink="http://www.w3.org/1999/xlink" x="0px" y="0px"
	 viewBox="0 0 1200 1200" style="enable-background:new 0 0 1200 1200;" xml:space="preserve">
<style type="text/css">
	.st0{fill:none;stroke:#000000;stroke-width:7;stroke-miterlimit:10;}
</style>
<g id="XMLID_15956_">
	<g id="XMLID_15935_">
		<path id="XMLID_15942_" d="M901,1169.7c-201.5,0-402.7,0-604.9,0c0-74.8,0-149.7,0-224.5c-0.6-0.2-1.3-0.4-1.9-0.5
			c-17.9,74.9-35.9,149.9-53.9,225.4c-60.1,0-119.8,0-180.9,0c8-39.6,15.8-78.9,23.8-118.1c21.9-106.6,43.7-213.2,65.9-319.7
			c3.8-17.9,9.5-35.5,14.8-53.1c15.3-50.5,50.6-77.5,102.1-82.6c39.6-3.9,79.4-7.1,119.1-7.3c148-0.8,296.1-1.1,444.1,0.1
			c41.1,0.3,82.4,4.6,123.1,10.3c37.6,5.3,63.8,29.1,75.2,64.8c13.3,41.5,24.3,84,33.1,126.7c25.6,124.1,49.7,248.4,74.3,372.7
			c0.3,1.4,0.2,2.9,0.3,5.4c-59.2,0-118.2,0-178.2,0c-18.2-75.5-36.5-151.2-54.8-226.9c-0.4,0-0.9,0.1-1.3,0.1
			C901,1017.9,901,1093.3,901,1169.7z M522.7,969.8c-0.5,36,28.6,66,64.4,66.5c35.6,0.5,65.7-28.5,66.9-64.4
			c1.1-34.5-29.1-65.7-64.8-66.9C554.5,903.8,523.2,934.4,522.7,969.8z M588,892.9c21.6-43.1,41.8-83.6,62.7-125.4
			c-42.6,0-83,0-125.3,0C546.1,809.1,566.2,849.3,588,892.9z M651.5,917.4c16.9,14,28.2,30.8,28.2,53.3c0.1,22.9-12,39.8-28.8,54.7
			c33.3,11,65.1,0.9,81.6-24.9c13.3-20.7,11.2-47.6-5.1-66.3C708,911.9,677.1,904.8,651.5,917.4z M734.2,916.9
			c19.7,13.9,29.7,32.1,30,54c0.3,22.4-11.8,39.9-29.4,54.6c32.3,10.7,62.7,1.9,79.7-21.5c14.6-20.1,14.5-47.3-0.2-66.7
			C796.4,913.7,766.9,905.4,734.2,916.9z M676.3,892.9c21.5-43.1,41.8-83.8,62.9-126.1c-18.8,0-34.7-0.7-50.5,0.4
			c-5,0.4-11.6,4.6-14.1,9c-8.9,15.4-16.5,31.6-24.1,47.7c-1.7,3.7-3.4,9-2,12.2C656.8,854.6,666.1,872.6,676.3,892.9z M760.5,892.9
			c21.4-43,41.7-83.5,62.9-126c-19.8,0-37.1-0.3-54.3,0.3c-3.1,0.1-7.4,2.9-8.9,5.7c-9.3,17.5-18.2,35.2-26.6,53.2
			c-1.6,3.5-1.7,9-0.1,12.4C741.5,855.9,750.5,873,760.5,892.9z"/>
		<path id="XMLID_15936_" d="M396.8,304.6c-0.1-116,93.8-210.8,209-210.7c112.5,0.1,211.6,89.5,212.2,212
			c0.6,117-95.7,212.2-210.4,212.3C489.8,518.3,396.8,424.1,396.8,304.6z M728.6,371.4c8-0.6,19.3-8.3,20,5.9
			c0.6,11.6-8.6,17.5-18.9,16.1c-10.3-1.4-21.3-4.8-29.7-10.6c-11.8-8.1-21.4-19.3-32.1-29c-15.9-14.4-33.6-14.7-52.9-7.7
			c-5.1,1.9-12.2,1.6-17.4-0.3c-19.5-7.1-37.1-5.8-52.8,8.5c-11,10.1-20.9,21.7-33.1,30.1c-7.9,5.5-19,8.6-28.7,8.7
			c-15.2,0.1-18.8-6.7-15.1-24.2c5.8,0.8,11.8,1.5,18.1,2.4c-3.7-11.9-9.6-21.6-23-19.2c-13.3,2.5-15.2,14-15.4,25.6
			c-0.3,18.5,8.1,33.5,25.1,38.4c19.1,5.5,39.8,8.6,59.6,8c29.8-0.9,55.2-14.5,73.9-39.2c3,3.1,4.7,4.9,6.4,6.7
			c29.6,30.9,82.9,43,122.7,27.9c22.2-8.4,33.8-26,30.9-47.1c-1.5-10.5-5.1-20.4-17.4-20.7C737.4,351.5,731.4,359.4,728.6,371.4z"/>
	</g>
	<ellipse id="XMLID_15933_" class="st0" cx="597.3" cy="73.1" rx="242.3" ry="47.1"/>
</g>
</svg>
