<?xml version="1.0" encoding="utf-8"?>
<!-- Generator: Adobe Illustrator 19.0.0, SVG Export Plug-In . SVG Version: 6.00 Build 0)  -->
<svg version="1.1" id="Layer_1" xmlns="http://www.w3.org/2000/svg" xmlns:xlink="http://www.w3.org/1999/xlink" x="0px" y="0px"
	 viewBox="1110 -60 150 150" style="enable-background:new 1110 -60 150 150;" xml:space="preserve">
<style type="text/css">
	.st0{fill:none;stroke:#000000;stroke-width:2;stroke-miterlimit:10;}
</style>
<g id="XMLID_15935_">
	<path id="XMLID_15942_" d="M1222.4,88.9c-25.2,0-50.4,0-75.8,0c0-9.4,0-18.8,0-28.1c-0.1,0-0.2-0.1-0.2-0.1
		c-2.2,9.4-4.5,18.8-6.8,28.2c-7.5,0-15,0-22.7,0c1-5,2-9.9,3-14.8c2.7-13.4,5.5-26.7,8.3-40c0.5-2.2,1.2-4.4,1.9-6.7
		c1.9-6.3,6.3-9.7,12.8-10.3c5-0.5,9.9-0.9,14.9-0.9c18.5-0.1,37.1-0.1,55.6,0c5.1,0,10.3,0.6,15.4,1.3c4.7,0.7,8,3.6,9.4,8.1
		c1.7,5.2,3,10.5,4.1,15.9c3.2,15.5,6.2,31.1,9.3,46.7c0,0.2,0,0.4,0,0.7c-7.4,0-14.8,0-22.3,0c-2.3-9.5-4.6-18.9-6.9-28.4
		c-0.1,0-0.1,0-0.2,0C1222.4,69.9,1222.4,79.4,1222.4,88.9z M1175,63.9c-0.1,4.5,3.6,8.3,8.1,8.3c4.5,0.1,8.2-3.6,8.4-8.1
		c0.1-4.3-3.6-8.2-8.1-8.4C1179,55.6,1175.1,59.5,1175,63.9z M1183.2,54.3c2.7-5.4,5.2-10.5,7.9-15.7c-5.3,0-10.4,0-15.7,0
		C1178,43.8,1180.5,48.8,1183.2,54.3z M1191.2,57.3c2.1,1.8,3.5,3.9,3.5,6.7c0,2.9-1.5,5-3.6,6.9c4.2,1.4,8.2,0.1,10.2-3.1
		c1.7-2.6,1.4-6-0.6-8.3C1198.3,56.7,1194.4,55.8,1191.2,57.3z M1201.5,57.3c2.5,1.7,3.7,4,3.8,6.8c0,2.8-1.5,5-3.7,6.8
		c4,1.3,7.9,0.2,10-2.7c1.8-2.5,1.8-5.9,0-8.4C1209.3,56.9,1205.6,55.8,1201.5,57.3z M1194.3,54.3c2.7-5.4,5.2-10.5,7.9-15.8
		c-2.4,0-4.3-0.1-6.3,0.1c-0.6,0.1-1.5,0.6-1.8,1.1c-1.1,1.9-2.1,4-3,6c-0.2,0.5-0.4,1.1-0.3,1.5C1191.8,49.5,1193,51.7,1194.3,54.3
		z M1204.8,54.3c2.7-5.4,5.2-10.5,7.9-15.8c-2.5,0-4.6,0-6.8,0c-0.4,0-0.9,0.4-1.1,0.7c-1.2,2.2-2.3,4.4-3.3,6.7
		c-0.2,0.4-0.2,1.1,0,1.6C1202.4,49.6,1203.6,51.8,1204.8,54.3z"/>
	<path id="XMLID_15936_" d="M1159.3-19.4c0-14.5,11.8-26.4,26.2-26.4c14.1,0,26.5,11.2,26.6,26.6c0.1,14.7-12,26.6-26.4,26.6
		C1170.9,7.3,1159.3-4.5,1159.3-19.4z M1200.8-11.1c1-0.1,2.4-1,2.5,0.7c0.1,1.5-1.1,2.2-2.4,2c-1.3-0.2-2.7-0.6-3.7-1.3
		c-1.5-1-2.7-2.4-4-3.6c-2-1.8-4.2-1.8-6.6-1c-0.6,0.2-1.5,0.2-2.2,0c-2.4-0.9-4.6-0.7-6.6,1.1c-1.4,1.3-2.6,2.7-4.1,3.8
		c-1,0.7-2.4,1.1-3.6,1.1c-1.9,0-2.4-0.8-1.9-3c0.7,0.1,1.5,0.2,2.3,0.3c-0.5-1.5-1.2-2.7-2.9-2.4c-1.7,0.3-1.9,1.8-1.9,3.2
		c0,2.3,1,4.2,3.1,4.8c2.4,0.7,5,1.1,7.5,1c3.7-0.1,6.9-1.8,9.3-4.9c0.4,0.4,0.6,0.6,0.8,0.8c3.7,3.9,10.4,5.4,15.4,3.5
		c2.8-1.1,4.2-3.3,3.9-5.9c-0.2-1.3-0.6-2.6-2.2-2.6C1201.9-13.5,1201.2-12.6,1200.8-11.1z"/>
</g>
<ellipse id="XMLID_15933_" class="st0" cx="1185.4" cy="-48.4" rx="30.4" ry="5.9"/>
</svg>
