<?xml version="1.0" encoding="utf-8"?>
<!-- Generator: Adobe Illustrator 19.0.0, SVG Export Plug-In . SVG Version: 6.00 Build 0)  -->
<svg version="1.1" id="Layer_1" xmlns="http://www.w3.org/2000/svg" xmlns:xlink="http://www.w3.org/1999/xlink" x="0px" y="0px"
	 viewBox="0 0 1200 1200" style="enable-background:new 0 0 1200 1200;" xml:space="preserve">
<style type="text/css">
	.st0{fill:#F2F2F2;}
	.st1{fill:#C0BFBF;}
	.st2{fill:#E5E5E5;}
</style>
<g id="XMLID_27_">
	<g id="XMLID_10335_">
		<polygon id="XMLID_14868_" class="st0" points="1125.1,322 1092.3,1041 401.3,1176.5 302.9,745.9 413.3,446.6 		"/>
		<polygon id="XMLID_12513_" class="st1" points="413.3,446.6 401.3,1176.5 74.9,846.3 86.2,149.2 		"/>
		<polygon id="XMLID_12508_" class="st2" points="1125.1,322 413.3,446.6 86.2,149.2 750.8,20 		"/>
	</g>
	<g id="XMLID_16054_">
		<path id="XMLID_16061_" d="M804.5,1055.6c-20.9,3.6-39.4,7.6-57.6,9.8c-17.8,2.1-33-2.1-40.6-17.9c-2.1-4.4-3.6-9.5-4.4-14.6
			c-0.6-3.5-2-4.7-5.4-4.8c-5-0.1-9.8-0.6-14.7-1.2c-6-0.7-9-4.3-8.6-10.9c0.9-14.8,1.6-29.5,2.6-44.3c0.2-3.1-0.3-4.8-3.1-5.9
			c-58.6-25.6-95.8-70.7-108.9-137C538.3,699.9,625.1,555.6,750,498.6c93.9-42.9,175.2-36.1,241.3,18.9
			c36.2,30.1,56.7,72,62.5,123.2c7.6,66.8-10.1,132.5-52.8,196.6c-17.3,26-38,49.1-61.8,69.3c-2.9,2.4-3.6,4.3-3.4,7.6
			c0.9,14,1.3,28.2,1.9,42.3c0.2,5.5-2.7,9.8-7.6,12.8c-5.4,3.3-11,6-16.4,9.3c-1.4,0.9-3.1,3-3.4,4.5
			c-5.1,32.1-25.5,46.8-45.6,54.1C844.1,1044.7,823,1050,804.5,1055.6z M918.1,847.3c58-55.5,88.9-142,65.2-214.9
			C959.5,559,884.8,522.7,802.9,544c-83,21.6-154.2,95.5-173.4,179.7c-19.2,84.1,16.9,149.7,66.4,173.5
			c7.8-11.1,15.6-22.1,23.3-33.2c-60.8-37.6-61.1-127-9.7-191.8c50-63,131.3-84.6,184.6-49.1c57.4,38.1,60.4,132.8-1.2,199.3
			C901.2,830.8,909.6,839,918.1,847.3z M711.7,739.3c-6.2,10.7-12,21.2-18.5,31.5c-3.5,5.6-4.2,10.3-3.3,15.9
			c10.1,65.8,78.8,95.3,145.1,61.1c36.7-18.9,63.5-47.8,78.2-87c0.7-1.9,0.8-4.7-0.2-5.9c-6.5-8.4-13.5-16.3-19.9-24.7
			c-1.7-2.3-3.2-3-6.4-1.6c-38.9,16.5-77.4,24.3-115.5,21.9C750.3,749.2,730.3,746.4,711.7,739.3z M714.3,978.3
			c1.5,18.1,2.5,35.3,4.5,52.1c1.4,12.1,9.6,18,21.4,18.3c8.5,0.2,17.3-0.3,26-2.1c24-5,48.1-10.4,72.1-16.8
			c11.5-3.1,23.2-8,34.4-13.6c11.6-5.7,19.2-16,20.5-28.3c1.8-16.4,2.2-32.7,3.2-49.9C835.5,974.1,775.5,987.4,714.3,978.3z
			 M903.3,860.5c-5.7-9.6-13.2-17.3-23.1-22.4c-1.1-0.6-3.6,0.1-4.9,1.1c-4.5,3.2-8.9,6.5-13,10.2c-1.6,1.4-3.3,3.7-3.8,5.6
			c-4.2,16.7-13.8,29.8-29.2,38.6c-16.1,9.2-32.5,12.7-48.6,10.8c-11.2-1.3-21.2-5.7-24.7-16.3c-3.3-9.9-10-13.5-19.1-15.2
			c-0.6-0.1-1.1-0.6-1.7-0.5c-1.3,0.2-2.9,0.4-3.7,1.2c-8.9,9-15.9,19.3-21.4,30.5C766.7,928.9,848.2,909.6,903.3,860.5z M691.2,973
			c-0.6,12.5-1.1,24.2-1.5,35.9c0,0.8,1.1,1.8,1.9,1.9c4.8,0.4,9.7,0.6,15.1,0.9c1.5-11.1,3-21.7,4.3-32.3c0.1-0.8-0.7-2-1.5-2.2
			C703.8,975.8,698,974.6,691.2,973z M839.8,862.8c-23.3,11.2-45.5,16.3-68.6,16.3c8.5,10.6,20.6,10.2,33.3,7.5
			C817.8,883.8,830.6,878.7,839.8,862.8z M920.2,921.9c-3.9,2.7-6.9,4.9-10,6.9c-7.5,5.2-7.5,5.2-6.5,13.2c1,7.5,2.2,14.9,3.3,22.8
			c4.1-2.2,7.7-3.8,11-6c1.4-1,3-3.5,3-5C921.1,943.5,920.6,933.2,920.2,921.9z"/>
		<path id="XMLID_16060_" d="M635.6,987.6c-35.5,43.7-71.2,87.6-106.7,131.3c-16.5-12.7-33.1-25.4-49.5-38
			c35.5-43.7,71.3-87.7,106.7-131.3C602.5,962.1,619.1,974.9,635.6,987.6z"/>
		<path id="XMLID_16058_" d="M809.1,841.9c-26.5,5.8-49,3.2-69.3-6.4c-0.9-0.4-1.8-0.9-2.7-1.4c-2.2-1.2-3.8-2.9-1.6-6.1
			c2.1-3.1,4.4-2.7,6.7-1.5c10.1,5.5,21.3,8.7,33.4,9.7c36.1,3.1,68.2-11.7,96.2-43.4c2.2-2.5,4.4-4.8,7-2.9
			c2.8,2.2,0.8,5.1-1.5,7.7C857.6,820.2,834.6,835.7,809.1,841.9z"/>
		<path id="XMLID_16057_" d="M762,791.1c2.1-6.1,3.5-12.4,6.6-18.1c4.1-7.5,11.1-8.9,16.1-4.1c7.3,7,7.2,24.8-0.2,35.1
			c-4.7,6.5-11.1,8-15.7,3.5c-4.2-4.1-5.4-9.9-5.6-16.2C762.8,791.3,762.4,791.2,762,791.1z"/>
		<path id="XMLID_16055_" d="M821.2,777.9c2.2-6.4,3.4-12.6,6.4-18.1c4.2-7.9,11.7-9.4,16.7-4.2c6.7,7,6.7,23.9,0,33.9
			c-5,7.5-12.5,9.5-16.7,3.6C824.6,788.9,823.4,783.3,821.2,777.9z"/>
	</g>
</g>
</svg>
