<?xml version="1.0" encoding="utf-8"?>
<!-- Generator: Adobe Illustrator 19.0.0, SVG Export Plug-In . SVG Version: 6.00 Build 0)  -->
<svg version="1.1" id="Layer_1" xmlns="http://www.w3.org/2000/svg" xmlns:xlink="http://www.w3.org/1999/xlink" x="0px" y="0px"
	 viewBox="0 0 160 160" style="enable-background:new 0 0 160 160;" xml:space="preserve">
<style type="text/css">
	.st0{fill:#C2D467;}
</style>
<g id="XMLID_3_">
	<path id="XMLID_56_" class="st0" d="M5.2,85.1c0-2.7,0-5.4,0-8c0.4-2.4,0.8-4.9,1.1-7.3C10.5,38.9,35.6,12.6,66.2,7
		c3.6-0.6,7.2-1.1,10.7-1.7c2.7,0,5.4,0,8,0c0.8,0.2,1.5,0.5,2.3,0.6c3.6,0.6,7.2,0.9,10.8,1.7c28.9,6.4,51.6,30.1,57,59.3
		c0.6,3.4,1.1,6.8,1.7,10.2c0,2.7,0,5.4,0,8c-0.4,2.4-0.8,4.7-1.1,7.1c-4.7,31.9-28.6,56.8-60.4,63c-3.4,0.7-6.8,1.1-10.2,1.6
		c-2.7,0-5.4,0-8,0c-0.8-0.2-1.5-0.5-2.3-0.6c-3.6-0.6-7.2-0.9-10.8-1.7c-28.8-6.4-51.7-30.2-57-59.3C6.2,91.9,5.7,88.5,5.2,85.1z
		 M80.8,11.7C42.7,11.8,11.4,43,11.6,81.3c0.2,38.2,30.8,69.1,69.4,69.1c38.7-0.1,69.1-31,69.2-69.2
		C150.3,42.9,118.9,11.7,80.8,11.7z"/>
</g>
</svg>
