<?xml version="1.0" encoding="utf-8"?>
<!-- Generator: Adobe Illustrator 16.0.0, SVG Export Plug-In . SVG Version: 6.00 Build 0)  -->
<!DOCTYPE svg PUBLIC "-//W3C//DTD SVG 1.1//EN" "http://www.w3.org/Graphics/SVG/1.1/DTD/svg11.dtd">
<svg version="1.1" id="Layer_1" xmlns="http://www.w3.org/2000/svg" xmlns:xlink="http://www.w3.org/1999/xlink" x="0px" y="0px"
	 width="25px" height="25px" viewBox="0 0 25 25" enable-background="new 0 0 25 25" xml:space="preserve">
<path fill="#FFFFFF" d="M24.5,5.586c0,0.505-0.409,0.914-0.914,0.914H1.414C0.909,6.5,0.5,6.091,0.5,5.586V1.414
	C0.5,0.909,0.909,0.5,1.414,0.5h22.172c0.505,0,0.914,0.409,0.914,0.914V5.586z"/>
<path fill="#FFFFFF" d="M24.5,14.586c0,0.505-0.409,0.914-0.914,0.914H1.414c-0.505,0-0.914-0.409-0.914-0.914v-4.172
	C0.5,9.909,0.909,9.5,1.414,9.5h22.172c0.505,0,0.914,0.409,0.914,0.914V14.586z"/>
<path fill="#FFFFFF" d="M24.5,23.586c0,0.505-0.409,0.914-0.914,0.914H1.414c-0.505,0-0.914-0.409-0.914-0.914v-4.172
	c0-0.505,0.409-0.914,0.914-0.914h22.172c0.505,0,0.914,0.409,0.914,0.914V23.586z"/>
</svg>
