<?xml version="1.0" encoding="utf-8"?>
<!-- Generator: Adobe Illustrator 19.0.0, SVG Export Plug-In . SVG Version: 6.00 Build 0)  -->
<svg version="1.1" id="Layer_1" xmlns="http://www.w3.org/2000/svg" xmlns:xlink="http://www.w3.org/1999/xlink" x="0px" y="0px"
	 viewBox="0 0 1200 1200" style="enable-background:new 0 0 1200 1200;" xml:space="preserve">
<style type="text/css">
	.st0{fill:none;stroke:#4DBEC0;stroke-width:15;stroke-miterlimit:10;}
	.st1{fill:#4DBEC0;}
</style>
<path id="XMLID_10360_" class="st0" d="M586.6,51.3c9.7,0,19.5,0,29.2,0c28.3,5.3,51,21.5,73.1,39.1c9.9,7.9,19.5,16.5,30.5,22.5
	c14.9,8,30.5,17.5,46.6,19.6c27.4,3.6,55.5,2.1,83.3,2.3c50.7,0.3,91.2,30.5,106.7,80c6.3,20,12.8,40,18.8,60.1
	c7.6,25.6,22.2,45.7,43.3,61.2c17.9,13,36,25.7,53.3,39.6c34.4,27.7,49.8,64.4,41.4,108.5c-5.2,27.1-15.3,53.3-23.6,79.7
	c-7.5,23.9-7.8,47.7-0.2,71.5c6.8,21.4,13.8,42.6,20.4,64.1c15,49-0.2,96.7-40.6,127.1c-16.5,12.5-33.2,24.8-50,36.9
	c-21.6,15.5-36.3,36-44.1,61.9c-6.5,21.8-12.9,43.7-20.6,65.1c-14.6,40.4-42.6,66.5-84.3,72.4c-27,3.8-54.8,2.3-82.3,2.1
	c-26.4-0.1-49.9,7.6-71,23.8c-16.7,12.8-33.6,25.5-50.5,37.9c-40.1,29.4-89.4,29.5-129.5,0c-17.5-12.9-34.9-26.1-52.2-39.2
	c-20.3-15.3-42.9-22.9-68.2-22.5c-21.6,0.3-43.2,0.2-64.7,0.1c-47.6-0.2-87.7-29.4-103.3-75.6c-7-20.9-13.7-41.9-20-63.1
	c-7.9-26.7-22.9-47.7-45.2-63.5c-17.4-12.4-34.6-25.2-51.6-38.2c-37.5-28.9-52.8-77.1-38.8-123.1c6.6-21.8,13.7-43.4,20.7-65.1
	c7.8-24.2,7.9-48.3,0.1-72.5c-6.6-20.3-13.1-40.6-19.4-61c-16-51.2-0.9-99,41.4-130.6c16.9-12.6,33.9-25.1,50.8-37.6
	c20.2-14.9,33.8-34.6,41.3-58.9c6.3-20.4,12.7-40.7,19.1-61.1c9.3-29.5,26.3-53.4,53.8-66.4c15.1-7.2,32.2-11.3,48.8-12.9
	c22.1-2.1,44.5-0.7,66.8-0.4c25.6,0.3,48.2-8,69.2-23C517.3,89,545.5,58.7,586.6,51.3z"/>
<path id="XMLID_10341_" class="st0" d="M230.7,599.8c0.1,209.9,165.8,380,370.4,380.4c204.1,0.3,370.5-170.3,370.7-380
	c0.2-209.6-165.5-379.7-370.4-380.3C397.5,219.2,230.6,390.3,230.7,599.8z"/>
<path id="XMLID_10340_" class="st1" d="M813.5,433.5c-8-5.7-15.4-1.5-21.5,4.6c-54.6,54.5-109.7,108.6-163.6,163.8
	c-24.8,25.4-47.4,53.1-71.5,80.2c-2.5-2.2-5-4.5-7.6-6.7C503.1,637,457,598.4,410.8,560c-7.1-5.9-16-10.4-23.6-3.1
	c-8,7.7-0.1,14.9,4.3,21.4c42.7,61.8,90.5,119.5,140.3,175.4c1.9,2.1,3.7,4.3,5.8,6.1c16.9,14.7,34.9,11.9,52-6.9
	c81.8-90.1,152.6-189,221.6-289.5c1.8-2.6,3.5-5.4,4.5-8.4C818.4,447.5,821.4,439.2,813.5,433.5z"/>
</svg>
