<?xml version="1.0" encoding="utf-8"?>
<!-- Generator: Adobe Illustrator 19.0.0, SVG Export Plug-In . SVG Version: 6.00 Build 0)  -->
<svg version="1.1" id="Layer_1" xmlns="http://www.w3.org/2000/svg" xmlns:xlink="http://www.w3.org/1999/xlink" x="0px" y="0px"
	 viewBox="0 0 1200 1200" style="enable-background:new 0 0 1200 1200;" xml:space="preserve">
<style type="text/css">
	.st0{fill:#F2F2F2;}
	.st1{fill:#C0BFBF;}
	.st2{fill:#E5E5E5;}
</style>
<g id="XMLID_27_">
	<g id="XMLID_10335_">
		<polygon id="XMLID_14868_" class="st0" points="1169.3,320.6 1136.4,1041.8 443.4,1177.7 344.6,745.9 455.4,445.7 		"/>
		<polygon id="XMLID_12513_" class="st1" points="455.4,445.7 443.4,1177.7 116,846.5 127.3,147.4 		"/>
		<polygon id="XMLID_12508_" class="st2" points="1169.3,320.6 455.4,445.7 127.3,147.4 793.9,17.8 		"/>
	</g>
	<g id="XMLID_16096_">
		<g id="XMLID_16121_">
			<path id="XMLID_16094_" d="M575.7,896.1c1.2,4.5,4.7,6.3,8.7,7.5c6.4,2,13.4,2,20.6,1.2c12.5-1.4,24.9-5,36.9-12.1
				c2.5-1.5,4.9-3.3,7.2-5.2c3.2-2.6,5.7-5.8,6.7-10.1c10.4-1.1,20.8-2.4,31.1-3c7.7-0.5,14,2.6,19.6,7.3
				c-19.2,3.3-34.3,13.6-44.2,32c-9.9,18.5-8.8,34.9,1.1,49c-4,1.3-7.7,2.6-11.5,3.8c-19.1,6-38.1,10.7-57.2,14.2
				c-20.4,3.7-40.8,6.5-60.4,5c-6.1-0.5-12-1.5-17.3-4.1c-7.8-3.9-10.8-11-8.6-20.7c2.6-11.7,7.2-23.2,14.2-34
				c7.4-11.3,17.2-18.9,29.1-23c6.8-2.3,13.7-4.4,20.5-6.6C573.3,897.1,574.5,896.6,575.7,896.1z"/>
			<path id="XMLID_16127_" d="M669.8,789.5c0,0.9,0,1.7,0,2.6c0,2,0,3.7,1.6,5.2c1.4,1.3,1.9,3.9,2.1,6.1c0.6,6.3-0.4,12.7-3.3,19.2
				c-1.2,2.6-3.3,5-5,7.5c-0.6,0.9-1.1,1.9-1.5,2.9c-5.3,14.1-12.5,27.3-23.2,38.9c-8,8.6-17.1,15-27.9,16.7
				c-8.3,1.3-15.5-0.5-21.9-4.2c-11.2-6.4-18.7-16.5-24.2-28.3c-0.6-1.4-1.2-2.6-2.9-3c-1.1-0.2-2-1.2-2.6-2.1
				c-4.7-6.7-6.2-14.7-4.4-24c0.4-1.8,2-3.7,3-5.5c0.4-0.7,0.6-1.5,0.7-2.2c1.2-7.7,1.8-15.5,3.6-23.2c3.7-15.9,13.5-28.2,27.7-37
				c15.7-9.7,31.9-13.5,47.7-11.4c17,2.3,26.3,13,29.4,29.9c0.7,3.9,0.9,7.9,1.3,11.9C670,789.4,669.9,789.4,669.8,789.5z
				 M573.7,847.5c0.2,0.1,0.2,0.2,0.3,0.2c0.2,0.6,0.5,1.2,0.7,1.8c4.4,10.7,10.6,19.7,20.5,25.5c12.5,7.3,26.5,4.2,39.2-8.6
				c7.4-7.5,12.8-16.2,17-25.5c1.8-4.1,3.3-8.2,5-12.4c0.1,0.2,0.2,0.3,0.3,0.5c1.1-0.9,2.7-1.7,3.3-2.8c3.7-6.2,5.5-12.6,3.9-18.7
				c-0.7-2.7-1.5-3-4.7-2.1c-0.2-0.8-0.5-1.5-0.7-2.3c-1.7-5.1-3.7-10-7.4-13.8c-0.8-0.8-1.9-1.2-2.9-1.8c-0.1,0.2-0.3,0.4-0.4,0.6
				c0.6,1.5,1.1,3.1,1.9,5c-3.2-0.8-5.8-1.6-8.5-2.2c-4.3-0.9-8.9-0.6-13.4,1.7c-8.6,4.4-17.2,6.6-25.9,6.7c-2.9,0-5.8-0.4-8.7,0.1
				c-8.4,1.6-14.8,6.8-18.6,15.2c-1.6,3.6-2.6,7.5-3.9,11.3c-2.3,0.1-3.7,1-4,3.5c-0.6,5.7-1,11.4,2,15.9
				C569.5,847.3,570.8,848.9,573.7,847.5z"/>
			<path id="XMLID_16123_" d="M701,888.5c21.9-5.1,39.8,8.7,39.8,30.5c0,22-17.9,44-39.9,49.1c-21.9,5-39.7-8.8-39.7-30.7
				C661.2,915.5,679.1,893.6,701,888.5z M692.4,947.8c9.8-12,19.6-24.1,29.2-35.9c-1.8-1.5-3.9-3.2-6.2-5.1
				c-7.6,9.4-15.2,18.8-23.4,28.8c-1.9-1.8-3.7-3.5-5.5-5.2c-2.4,2.9-4.5,5.5-6.5,8C684.2,941.6,688.4,944.8,692.4,947.8z"/>
		</g>
		<g id="XMLID_16109_">
			<path id="XMLID_16087_" d="M959.2,807.6c1.2,4.5,4.7,6.3,8.7,7.5c6.4,2,13.4,2,20.6,1.2c12.5-1.4,24.9-5,36.9-12.1
				c2.5-1.5,4.9-3.3,7.2-5.2c3.2-2.6,5.7-5.8,6.7-10.1c10.4-1.1,20.8-2.4,31.1-3c7.7-0.5,14,2.6,19.6,7.3
				c-19.2,3.3-34.3,13.6-44.2,32c-9.9,18.5-8.8,34.9,1.1,49c-4,1.3-7.7,2.6-11.5,3.8c-19.1,6-38.1,10.7-57.2,14.2
				c-20.4,3.7-40.8,6.5-60.4,5c-6.1-0.5-12-1.5-17.3-4.1c-7.8-3.9-10.8-11-8.6-20.7c2.6-11.7,7.2-23.2,14.2-34
				c7.4-11.3,17.2-18.9,29.1-23c6.8-2.3,13.7-4.4,20.5-6.6C956.8,808.6,957.9,808,959.2,807.6z"/>
			<path id="XMLID_16115_" d="M1053.2,700.9c0,0.9,0,1.7,0,2.6c0,2,0,3.7,1.6,5.2c1.4,1.3,1.9,3.9,2.1,6.1
				c0.6,6.3-0.4,12.7-3.3,19.2c-1.2,2.6-3.3,5-5,7.5c-0.6,0.9-1.1,1.9-1.5,2.9c-5.3,14.1-12.5,27.3-23.2,38.9
				c-8,8.6-17.1,15-27.9,16.7c-8.3,1.3-15.5-0.5-21.9-4.2c-11.2-6.4-18.7-16.5-24.2-28.3c-0.6-1.4-1.2-2.6-2.9-3
				c-1.1-0.2-2-1.2-2.6-2.1c-4.7-6.7-6.2-14.7-4.4-24c0.4-1.8,2-3.7,3-5.5c0.4-0.7,0.6-1.5,0.7-2.2c1.2-7.7,1.8-15.5,3.6-23.2
				c3.7-15.9,13.5-28.2,27.7-37c15.7-9.7,31.9-13.5,47.7-11.4c17,2.3,26.3,13,29.4,29.9c0.7,3.9,0.9,7.9,1.3,11.9
				C1053.4,700.9,1053.3,700.9,1053.2,700.9z M957.1,758.9c0.2,0.1,0.2,0.2,0.3,0.2c0.2,0.6,0.5,1.2,0.7,1.8
				c4.4,10.7,10.6,19.7,20.5,25.5c12.5,7.3,26.5,4.2,39.2-8.6c7.4-7.5,12.8-16.2,17-25.5c1.8-4.1,3.3-8.2,5-12.4
				c0.1,0.2,0.2,0.3,0.3,0.5c1.1-0.9,2.7-1.7,3.3-2.8c3.7-6.2,5.5-12.6,3.9-18.7c-0.7-2.7-1.5-3-4.7-2.1c-0.2-0.8-0.5-1.5-0.7-2.3
				c-1.7-5.1-3.7-10-7.4-13.8c-0.8-0.8-1.9-1.2-2.9-1.8c-0.1,0.2-0.3,0.4-0.4,0.6c0.6,1.5,1.1,3.1,1.9,5c-3.2-0.8-5.8-1.6-8.5-2.2
				c-4.3-0.9-8.9-0.6-13.4,1.7c-8.6,4.4-17.2,6.6-25.9,6.7c-2.9,0-5.8-0.4-8.7,0.1c-8.4,1.6-14.8,6.8-18.6,15.2
				c-1.6,3.6-2.6,7.5-3.9,11.3c-2.3,0.1-3.7,1-4,3.5c-0.6,5.7-1,11.4,2,15.9C952.9,758.7,954.2,760.4,957.1,758.9z"/>
			<path id="XMLID_16111_" d="M1084.4,800c21.9-5.1,39.8,8.7,39.8,30.5c0,22-17.9,44-39.9,49.1c-21.9,5-39.7-8.8-39.7-30.7
				C1044.7,827,1062.5,805,1084.4,800z M1075.8,859.3c9.8-12,19.6-24.1,29.2-35.9c-1.8-1.5-3.9-3.2-6.2-5.1
				c-7.6,9.4-15.2,18.8-23.4,28.8c-1.9-1.8-3.7-3.5-5.5-5.2c-2.4,2.9-4.5,5.5-6.5,8C1067.7,853,1071.8,856.2,1075.8,859.3z"/>
		</g>
		<g id="XMLID_16097_">
			<path id="XMLID_16079_" d="M766.6,627.1c1.2,4.5,4.7,6.3,8.7,7.5c6.4,2,13.4,2,20.6,1.2c12.5-1.4,24.9-5,36.9-12.1
				c2.5-1.5,4.9-3.3,7.2-5.2c3.2-2.6,5.7-5.8,6.7-10.1c10.4-1.1,20.8-2.4,31.1-3c7.7-0.5,14,2.6,19.6,7.3
				c-19.2,3.3-34.3,13.6-44.2,32c-9.9,18.5-8.8,34.9,1.1,49c-4,1.3-7.7,2.6-11.5,3.8c-19.1,6-38.1,10.7-57.2,14.2
				c-20.4,3.7-40.8,6.5-60.4,5c-6.1-0.5-12-1.5-17.3-4.1c-7.8-3.9-10.8-11-8.6-20.7c2.6-11.7,7.2-23.2,14.2-34
				c7.4-11.3,17.2-18.9,29.1-23c6.8-2.3,13.7-4.4,20.5-6.6C764.2,628.1,765.4,627.6,766.6,627.1z"/>
			<path id="XMLID_16103_" d="M860.7,520.5c0,0.9,0,1.7,0,2.6c0,2,0,3.7,1.6,5.2c1.4,1.3,1.9,3.9,2.1,6.1c0.6,6.3-0.4,12.7-3.3,19.2
				c-1.2,2.6-3.3,5-5,7.5c-0.6,0.9-1.1,1.9-1.5,2.9c-5.3,14.1-12.5,27.3-23.2,38.9c-8,8.6-17.1,15-27.9,16.7
				c-8.3,1.3-15.5-0.5-21.9-4.2c-11.2-6.4-18.7-16.5-24.2-28.3c-0.6-1.4-1.2-2.6-2.9-3c-1.1-0.2-2-1.2-2.6-2.1
				c-4.7-6.7-6.2-14.7-4.4-24c0.4-1.8,2-3.7,3-5.5c0.4-0.7,0.6-1.5,0.7-2.2c1.2-7.7,1.8-15.5,3.6-23.2c3.7-15.9,13.5-28.2,27.7-37
				c15.7-9.7,31.9-13.5,47.7-11.4c17,2.3,26.3,13,29.4,29.9c0.7,3.9,0.9,7.9,1.3,11.9C860.9,520.4,860.8,520.5,860.7,520.5z
				 M764.6,578.5c0.2,0.1,0.2,0.2,0.3,0.2c0.2,0.6,0.5,1.2,0.7,1.8c4.4,10.7,10.6,19.7,20.5,25.5c12.5,7.3,26.5,4.2,39.2-8.6
				c7.4-7.5,12.8-16.2,17-25.5c1.8-4.1,3.3-8.2,5-12.4c0.1,0.2,0.2,0.3,0.3,0.5c1.1-0.9,2.7-1.7,3.3-2.8c3.7-6.2,5.5-12.6,3.9-18.7
				c-0.7-2.7-1.5-3-4.7-2.1c-0.2-0.8-0.5-1.5-0.7-2.3c-1.7-5.1-3.7-10-7.4-13.8c-0.8-0.8-1.9-1.2-2.9-1.8c-0.1,0.2-0.3,0.4-0.4,0.6
				c0.6,1.5,1.1,3.1,1.9,5c-3.2-0.8-5.8-1.6-8.5-2.2c-4.3-0.9-8.9-0.6-13.4,1.7c-8.6,4.4-17.2,6.6-25.9,6.7c-2.9,0-5.8-0.4-8.7,0.1
				c-8.4,1.6-14.8,6.8-18.6,15.2c-1.6,3.6-2.6,7.5-3.9,11.3c-2.3,0.1-3.7,1-4,3.5c-0.6,5.7-1,11.4,2,15.9
				C760.4,578.3,761.7,579.9,764.6,578.5z"/>
			<path id="XMLID_16099_" d="M891.9,619.6c21.9-5.1,39.8,8.7,39.8,30.5c0,22-17.9,44-39.9,49.1c-21.9,5-39.7-8.8-39.7-30.7
				C852.1,646.6,870,624.6,891.9,619.6z M883.3,678.9c9.8-12,19.6-24.1,29.2-35.9c-1.8-1.5-3.9-3.2-6.2-5.1
				c-7.6,9.4-15.2,18.8-23.4,28.8c-1.9-1.8-3.7-3.5-5.5-5.2c-2.4,2.9-4.5,5.5-6.5,8C875.1,672.6,879.3,675.8,883.3,678.9z"/>
		</g>
	</g>
</g>
</svg>
