<?xml version="1.0" encoding="utf-8"?>
<!-- Generator: Adobe Illustrator 19.0.0, SVG Export Plug-In . SVG Version: 6.00 Build 0)  -->
<svg version="1.1" id="Layer_1" xmlns="http://www.w3.org/2000/svg" xmlns:xlink="http://www.w3.org/1999/xlink" x="0px" y="0px"
	 viewBox="0 0 1200 1200" style="enable-background:new 0 0 1200 1200;" xml:space="preserve">
<g id="XMLID_15851_">
	<g id="XMLID_15762_">
		<path id="XMLID_15839_" d="M663.3,1067.3c179.9-82.9,312.9-214.8,401.9-391.1c28.4-56.3,45.5-116.2,41.8-180.6
			c-3.5-60.5-40.4-108-97.2-122.9c-41.9-11-83.4-6.4-124.6,4.4c-89.4,23.4-166.1,70.5-237.3,127.6c-17.9,14.4-34.8,29.8-51,44
			c0,0,0,0-0.1-0.1c-0.1,0.1-0.5,0.5-1,1c-0.6,0.5-1.2,1-1.7,1.5c0,0,0.1,0.1,0.1,0.1c-9,9.1-37.5,38.2-38.9,39.8
			C498.7,650.6,451.1,716.6,415.9,791c-25.6,54.2-43.9,110.7-42.4,171.7c2.1,82.1,54,134.2,135.8,137.7
			C563.6,1102.7,614.8,1089.7,663.3,1067.3z M449.1,939.4c-5.7-31.5-1.5-62.8,6.9-93.5c18.2-66.2,52.7-123.9,94.6-177.5
			c12.7-16.3,58.5-64.8,75.9-83.9c0,0,0.1,0.1,0.1,0.1c2.5-2.1,5.3-4.7,8.5-7c38.6-28.4,75.5-59.7,116.3-84.5
			c55.5-33.9,115.6-56.7,183-52c50.6,3.5,89.2,38.2,97.6,88.2c7.9,46.7-2.3,90.9-20.6,133c-64.9,149.9-173.2,259-318.1,332.2
			c-43.2,21.8-89.3,35-138.6,33.4C499.8,1026.2,458.9,992.8,449.1,939.4z"/>
		<path id="XMLID_15834_" d="M697.9,928.1c104.3-47.6,181.5-123.3,233.1-224.4c16.5-32.3,26.4-66.7,24.2-103.6
			c-2-34.7-23.4-62-56.4-70.5c-24.3-6.3-48.4-3.7-72.2,2.5c-51.8,13.4-96.3,40.5-137.6,73.2c-10.9,8.6-21.2,18-30.9,26.4
			c0,0,0,0,0,0c-1.1,1-21.8,22.1-22.7,23.1c-32.9,34.2-60.5,72-80.9,114.7C539.6,800.6,529,833,529.9,868c1.2,47.1,31.3,77,78.8,79
			C640.2,948.4,669.8,941,697.9,928.1z M573.7,854.7c-3.3-18.1-0.9-36.1,4-53.7c10.6-38,30.6-71.1,54.9-101.9
			c7.6-9.6,34.2-38.1,44-48.2c0,0,0.1,0.1,0.1,0.1c1.4-1.2,3.1-2.7,4.9-4c22.4-16.3,43.8-34.2,67.5-48.5
			c32.2-19.4,67.1-32.6,106.2-29.9c29.3,2,51.7,21.9,56.6,50.6c4.6,26.8-1.4,52.2-11.9,76.4c-37.6,86-100.5,148.6-184.5,190.7
			c-25.1,12.5-51.8,20.1-80.4,19.2C603.1,904.5,579.4,885.4,573.7,854.7z"/>
		<path id="XMLID_15771_" d="M1155.2,532.8c-5.6-41.1-26.9-72.2-58.8-97c20.1,36.5,25,75.2,20.3,116.1
			c-6.5,57.1-26.5,109.5-52.9,159.8c-44,83.8-102.9,156-171.9,220.3c-66.4,61.9-139.3,114.6-223.8,148.6
			c-74,29.7-149.4,49.6-227.9,7.8c31.5,40.8,71.8,61.2,121.5,62.5c61.6,1.6,118.3-17,173-43.2c95.7-45.8,176.7-111.2,248.2-188.8
			c55-59.6,101.8-125,135.2-199.1C1145,660.6,1164.3,599.4,1155.2,532.8z"/>
		<path id="XMLID_15769_" d="M704.8,805.3c26-3.9,46.5-17.6,64.3-35.1c0,0-0.1,0-0.1,0c0.4-0.4,0.9-0.8,1.3-1.3c0,0,0,0,0,0
			c0.4-0.4,0.9-0.9,1.3-1.3c3-2.9,6.2-6.3,7.4-7.8c0.6-0.7,1.2-1.3,1.8-2c17-19.2,31.6-40.4,31.7-67.8c0.1-19.3-11-30.4-30.2-28.5
			c-2.1,0.2-4.2,0.5-6.2,0.9l-0.3-0.2c0,0-96.5,15.1-106.5,104.9C663.5,793.9,677.4,809.4,704.8,805.3z"/>
	</g>
	<g id="XMLID_11122_">
		<path id="XMLID_15759_" d="M100.6,142.7c-18.7,1.7-37.3,4.1-58.2,6.6c4.7,5.2,7.8,8.9,11.2,12.3c21.6,21.7,44.1,42.4,64.5,65.1
			c14.6,16.3,29.4,25.1,51.9,18.5c10.8-3.2,22.7-2.7,37.7-4.2c-33.3-33.3-64-64.1-95.1-94.5C109.8,143.8,104.5,142.3,100.6,142.7z"
			/>
		<path id="XMLID_15754_" d="M233.5,218.9c1.5-15,1-26.9,4.1-37.7c6.6-22.5-2.2-37.3-18.6-51.9C196.3,109,175.5,86.5,153.8,65
			c-3.4-3.4-7.1-6.5-12.3-11.2c-2.4,21-4.8,39.6-6.4,58.3c-0.3,3.9,1.1,9.3,3.8,12C169.3,155,200.2,185.6,233.5,218.9z"/>
		<path id="XMLID_15744_" d="M720.8,702.7c-0.2-0.4-0.3-0.9-0.5-1.3c-0.2-0.3-0.3-0.7-0.4-1c-0.1-0.2-0.1-0.4-0.2-0.6
			c-10.8-28.3-20.8-54.3-31.5-82.3c-7.6,14.1-14,26-21.5,40.1C485.6,476.4,305.8,296.6,125.3,116.1c-5.8,5.6-11,10.7-18.6,18.2
			c181.4,181.4,360.9,360.9,541,541c-11.7,6.5-23.5,13-37.5,20.8c29.4,11.4,56.2,21.7,82.9,32l43.1,13.5L720.8,702.7z"/>
	</g>
</g>
</svg>
