<?xml version="1.0" encoding="utf-8"?>
<!-- Generator: Adobe Illustrator 19.0.0, SVG Export Plug-In . SVG Version: 6.00 Build 0)  -->
<svg version="1.1" id="Layer_1" xmlns="http://www.w3.org/2000/svg" xmlns:xlink="http://www.w3.org/1999/xlink" x="0px" y="0px"
	 viewBox="0 0 60 60" style="enable-background:new 0 0 60 60;" xml:space="preserve">
<style type="text/css">
	.st0{opacity:0.9;fill:#3A5B99;}
</style>
<path id="XMLID_11174_" class="st0" d="M48.9,3.1H11.1c-4.6,0-8.3,3.7-8.3,8.3v37.9c0,4.6,3.7,8.3,8.3,8.3h37.9
	c4.6,0,8.3-3.7,8.3-8.3V11.3C57.2,6.8,53.5,3.1,48.9,3.1z M45.6,20L42,20c-2.8,0-3.4,1.3-3.4,3.3v4.4h6.8l-0.9,6.8h-5.9V52h-7V34.5
	h-5.9v-6.8h5.9v-5c0-5.8,3.6-9,8.8-9c2.5,0,4.6,0.2,5.3,0.3V20z"/>
</svg>
