<?xml version="1.0" encoding="utf-8"?>
<!-- Generator: Adobe Illustrator 19.0.0, SVG Export Plug-In . SVG Version: 6.00 Build 0)  -->
<svg version="1.1" id="Layer_1" xmlns="http://www.w3.org/2000/svg" xmlns:xlink="http://www.w3.org/1999/xlink" x="0px" y="0px"
	 viewBox="0 0 60 60" style="enable-background:new 0 0 60 60;" xml:space="preserve">
<style type="text/css">
	.st0{fill:#FFFFFF;}
</style>
<path id="XMLID_11183_" class="st0" d="M50,2H10.8C6,2,2.2,5.8,2.2,10.6v39.3c0,4.7,3.8,8.6,8.6,8.6H50c4.7,0,8.6-3.8,8.6-8.6V10.6
	C58.6,5.8,54.8,2,50,2z M20.9,48.2h-7.8v-24h7.8V48.2z M16.9,21c-2.4,0-4.4-2-4.4-4.4c0-2.4,2-4.4,4.4-4.4s4.4,2,4.4,4.4
	C21.2,19,19.3,21,16.9,21z M48.3,48.1h-7.4V34.2c0,0-0.1-4.6-4.2-4.1c0,0-3.5-0.2-3.9,4.3v13.6h-7.5V24.2h7.1v3.2c0,0,2-3.9,7.2-3.8
	c0,0,8.4-0.9,8.8,8.7V48.1z"/>
</svg>
