<?xml version="1.0" encoding="utf-8"?>
<!-- Generator: Adobe Illustrator 19.0.0, SVG Export Plug-In . SVG Version: 6.00 Build 0)  -->
<svg version="1.1" id="Layer_1" xmlns="http://www.w3.org/2000/svg" xmlns:xlink="http://www.w3.org/1999/xlink" x="0px" y="0px"
	 viewBox="0 0 60 60" style="enable-background:new 0 0 60 60;" xml:space="preserve">
<style type="text/css">
	.st0{opacity:0.7;fill:#62CBEF;}
</style>
<path id="XMLID_11180_" class="st0" d="M48.7,3.2H11.3c-4.5,0-8.2,3.7-8.2,8.2v37.4c0,4.5,3.7,8.2,8.2,8.2h37.4
	c4.5,0,8.2-3.7,8.2-8.2V11.3C56.8,6.8,53.2,3.2,48.7,3.2z M45.7,23.8c0,0.3,0,0.6,0,0.9c0,9.3-7.1,20-20,20c-4,0-7.7-1.2-10.8-3.2
	c0.6,0.1,1.1,0.1,1.7,0.1c3.3,0,6.3-1.1,8.7-3c-3.1-0.1-5.7-2.1-6.6-4.9c0.4,0.1,0.9,0.1,1.3,0.1c0.6,0,1.3-0.1,1.9-0.2
	c-3.2-0.6-5.6-3.5-5.6-6.9v-0.1c0.9,0.5,2,0.8,3.2,0.9c-1.9-1.3-3.1-3.4-3.1-5.9c0-1.3,0.3-2.5,1-3.5c3.5,4.3,8.6,7.1,14.5,7.3
	c-0.1-0.5-0.2-1-0.2-1.6c0-3.9,3.1-7,7-7c2,0,3.8,0.9,5.1,2.2c1.6-0.3,3.1-0.9,4.5-1.7c-0.5,1.6-1.6,3-3.1,3.9
	c1.4-0.2,2.8-0.5,4-1.1C48.2,21.6,47,22.8,45.7,23.8z"/>
</svg>
