<?xml version="1.0" encoding="utf-8"?>
<!-- Generator: Adobe Illustrator 19.0.0, SVG Export Plug-In . SVG Version: 6.00 Build 0)  -->
<svg version="1.1" id="Layer_1" xmlns="http://www.w3.org/2000/svg" xmlns:xlink="http://www.w3.org/1999/xlink" x="0px" y="0px"
	 viewBox="0 0 60 60" style="enable-background:new 0 0 60 60;" xml:space="preserve">
<style type="text/css">
	.st0{opacity:0.9;fill:#FFFFFF;}
</style>
<path id="XMLID_11174_" class="st0" d="M50.1,1.2H9.9c-4.8,0-8.8,3.9-8.8,8.8v40.1c0,4.8,3.9,8.8,8.8,8.8h40.1
	c4.8,0,8.8-3.9,8.8-8.8V9.9C58.8,5.1,54.9,1.2,50.1,1.2z M46.6,19.1l-3.8,0c-3,0-3.6,1.4-3.6,3.5v4.6h7.2l-0.9,7.2h-6.2V53h-7.5
	V34.5h-6.2v-7.2h6.2v-5.3c0-6.2,3.8-9.5,9.3-9.5c2.6,0,4.9,0.2,5.6,0.3V19.1z"/>
</svg>
