<?xml version="1.0" encoding="utf-8"?>
<!-- Generator: Adobe Illustrator 19.0.0, SVG Export Plug-In . SVG Version: 6.00 Build 0)  -->
<svg version="1.1" id="Layer_1" xmlns="http://www.w3.org/2000/svg" xmlns:xlink="http://www.w3.org/1999/xlink" x="0px" y="0px"
	 viewBox="0 0 60 60" style="enable-background:new 0 0 60 60;" xml:space="preserve">
<style type="text/css">
	.st0{fill:#BB2026;}
</style>
<path id="XMLID_11172_" class="st0" d="M29.1,22.9c0.7,0,1.1-0.6,1.1-1.7V16c0-1.1-0.3-1.7-1.1-1.7c-0.7,0-1.1,0.6-1.1,1.7v5.2
	C28.1,22.3,28.4,22.9,29.1,22.9z"/>
<path id="XMLID_11166_" class="st0" d="M50.2,1H9.9C5,1,1.1,4.9,1.1,9.8v40.3c0,4.9,3.9,8.8,8.8,8.8h40.3c4.9,0,8.8-3.9,8.8-8.8V9.8
	C59,4.9,55.1,1,50.2,1z M34.3,12.4h2.2v9.1c0,0.5,0,0.8,0,0.9c0,0.3,0.2,0.5,0.5,0.5c0.4,0,0.9-0.3,1.4-1.1v-9.5h2.2v12.4h-2.2v-1.4
	c-0.9,1-1.7,1.5-2.6,1.5c-0.7,0-1.2-0.3-1.4-0.9c-0.1-0.4-0.2-1-0.2-1.8V12.4z M25.8,16.4c0-1.3,0.2-2.3,0.7-2.9
	c0.6-0.8,1.5-1.3,2.6-1.3c1.1,0,2,0.4,2.6,1.3c0.5,0.6,0.7,1.6,0.7,2.9v4.3c0,1.3-0.2,2.3-0.7,2.9c-0.6,0.8-1.5,1.3-2.6,1.3
	c-1.1,0-2-0.4-2.6-1.3c-0.5-0.6-0.7-1.6-0.7-2.9V16.4z M19.8,8.1l1.8,6.5l1.7-6.5h2.5l-3,9.9v6.7h-2.5V18c-0.2-1.2-0.7-2.9-1.5-5.3
	c-0.5-1.5-1.1-3.1-1.6-4.6H19.8z M47.4,48.5c-0.4,2-2.1,3.4-4,3.6c-4.6,0.5-9.2,0.5-13.8,0.5c-4.6,0-9.2,0-13.8-0.5
	c-1.9-0.2-3.5-1.7-4-3.6c-0.6-2.8-0.6-5.8-0.6-8.7c0-2.9,0-5.9,0.6-8.7c0.4-2,2.1-3.4,4-3.6C20.4,27,25.1,27,29.7,27
	c4.6,0,9.2,0,13.8,0.5c1.9,0.2,3.5,1.7,4,3.6c0.6,2.8,0.6,5.8,0.6,8.7C48.1,42.7,48.1,45.7,47.4,48.5z"/>
<path id="XMLID_11159_" class="st0" d="M21.8,33.6v-2.3H14v2.3h2.6v14.2h2.5V33.6H21.8z M26.2,47.8v-1.3c-0.9,1-1.7,1.5-2.5,1.5
	c-0.7,0-1.2-0.3-1.4-0.9c-0.1-0.4-0.2-1-0.2-1.8v-9.7h2.2v9c0,0.5,0,0.8,0,0.9c0.1,0.3,0.2,0.5,0.5,0.5c0.4,0,0.9-0.3,1.4-1v-9.4
	h2.2v12.3H26.2z M34.7,44.3c0,1.1-0.3,1.7-1,1.7c-0.4,0-0.7-0.2-1.1-0.5v-7.5c0.4-0.4,0.7-0.5,1.1-0.5c0.6,0,1,0.6,1,1.7V44.3z
	 M36.9,44.1v-4.9c0-1.2-0.1-2-0.2-2.5c-0.3-0.9-0.9-1.4-1.8-1.4c-0.8,0-1.6,0.4-2.3,1.3v-5.4h-2.2v16.5h2.2v-1.2
	c0.7,0.9,1.5,1.4,2.3,1.4c0.9,0,1.5-0.5,1.8-1.4C36.8,46.1,36.9,45.2,36.9,44.1z M43.1,40.2h-2.2v-1.1c0-1.1,0.4-1.7,1.1-1.7
	c0.7,0,1.1,0.6,1.1,1.7V40.2z M45.3,43.9v-0.3H43c0,0.9,0,1.4,0,1.5c-0.1,0.6-0.4,0.9-1,0.9c-0.8,0-1.1-0.6-1.1-1.7v-2.2h4.4v-2.5
	c0-1.3-0.2-2.3-0.7-2.9c-0.6-0.8-1.5-1.3-2.6-1.3c-1.1,0-2,0.4-2.7,1.3c-0.5,0.6-0.7,1.6-0.7,2.9v4.3c0,1.3,0.2,2.3,0.7,2.9
	c0.6,0.8,1.5,1.3,2.7,1.3c1.2,0,2.1-0.4,2.7-1.3c0.3-0.4,0.4-0.8,0.5-1.3C45.3,45.1,45.3,44.6,45.3,43.9z"/>
</svg>
