<?xml version="1.0" encoding="utf-8"?>
<!-- Generator: Adobe Illustrator 19.0.0, SVG Export Plug-In . SVG Version: 6.00 Build 0)  -->
<svg version="1.1" id="Layer_1" xmlns="http://www.w3.org/2000/svg" xmlns:xlink="http://www.w3.org/1999/xlink" x="0px" y="0px"
	 viewBox="0 0 60 60" style="enable-background:new 0 0 60 60;" xml:space="preserve">
<style type="text/css">
	.st0{fill:#FFFFFF;}
</style>
<path id="XMLID_80_" class="st0" d="M48.6,3H11c-4.5,0-8.2,3.7-8.2,8.2v37.6c0,4.5,3.7,8.2,8.2,8.2h37.6c4.5,0,8.2-3.7,8.2-8.2V11.2
	C56.8,6.7,53.1,3,48.6,3z M45.5,23.8c0,0.3,0,0.6,0,0.9c0,9.3-7.1,20.1-20.1,20.1c-4,0-7.7-1.2-10.8-3.2c0.6,0.1,1.1,0.1,1.7,0.1
	c3.3,0,6.4-1.1,8.8-3c-3.1-0.1-5.7-2.1-6.6-4.9c0.4,0.1,0.9,0.1,1.3,0.1c0.6,0,1.3-0.1,1.9-0.2C18.4,33,16,30.2,16,26.7v-0.1
	c1,0.5,2,0.8,3.2,0.9c-1.9-1.3-3.1-3.4-3.1-5.9c0-1.3,0.3-2.5,1-3.6c3.5,4.3,8.7,7.1,14.6,7.4c-0.1-0.5-0.2-1.1-0.2-1.6
	c0-3.9,3.2-7.1,7.1-7.1c2,0,3.9,0.9,5.2,2.2c1.6-0.3,3.1-0.9,4.5-1.7c-0.5,1.7-1.6,3-3.1,3.9c1.4-0.2,2.8-0.6,4.1-1.1
	C48.1,21.5,46.9,22.8,45.5,23.8z"/>
</svg>
