<?xml version="1.0" encoding="utf-8"?>
<!-- Generator: Adobe Illustrator 19.0.0, SVG Export Plug-In . SVG Version: 6.00 Build 0)  -->
<svg version="1.1" id="Layer_1" xmlns="http://www.w3.org/2000/svg" xmlns:xlink="http://www.w3.org/1999/xlink" x="0px" y="0px"
	 viewBox="0 0 60 60" style="enable-background:new 0 0 60 60;" xml:space="preserve">
<style type="text/css">
	.st0{fill:#FFFFFF;}
</style>
<g id="XMLID_1_">
	<path id="XMLID_11172_" class="st0" d="M29.3,24c0.7,0,1-0.6,1-1.7v-5.1c0-1.1-0.3-1.7-1-1.7c-0.7,0-1,0.6-1,1.7v5.1
		C28.3,23.4,28.6,24,29.3,24z"/>
	<path id="XMLID_11166_" class="st0" d="M49.8,2.7H10.6C5.8,2.7,2,6.5,2,11.2v39.2c0,4.7,3.8,8.6,8.6,8.6h39.2
		c4.7,0,8.6-3.8,8.6-8.6V11.2C58.3,6.5,54.5,2.7,49.8,2.7z M34.3,13.7h2.2v8.9c0,0.5,0,0.8,0,0.9c0,0.3,0.2,0.5,0.5,0.5
		c0.4,0,0.9-0.3,1.4-1v-9.2h2.2v12.1h-2.2v-1.3c-0.9,1-1.7,1.5-2.5,1.5c-0.7,0-1.2-0.3-1.4-0.9c-0.1-0.4-0.2-0.9-0.2-1.8V13.7z
		 M26.1,17.6c0-1.3,0.2-2.2,0.7-2.8c0.6-0.8,1.5-1.2,2.5-1.2c1.1,0,1.9,0.4,2.6,1.2c0.5,0.6,0.7,1.6,0.7,2.8v4.2
		c0,1.3-0.2,2.2-0.7,2.8c-0.6,0.8-1.5,1.2-2.6,1.2c-1.1,0-1.9-0.4-2.5-1.2c-0.5-0.6-0.7-1.6-0.7-2.8V17.6z M20.2,9.6l1.7,6.4
		l1.7-6.4H26l-2.9,9.6v6.6h-2.4v-6.6c-0.2-1.2-0.7-2.9-1.5-5.1c-0.5-1.5-1-3-1.6-4.5H20.2z M47.1,48.9c-0.4,1.9-2,3.3-3.9,3.5
		c-4.4,0.5-8.9,0.5-13.4,0.5c-4.5,0-9,0-13.4-0.5c-1.9-0.2-3.4-1.6-3.9-3.5c-0.6-2.7-0.6-5.7-0.6-8.5c0-2.8,0-5.7,0.6-8.5
		c0.4-1.9,2-3.3,3.9-3.5c4.4-0.5,8.9-0.5,13.4-0.5c4.5,0,9,0,13.4,0.5c1.9,0.2,3.4,1.6,3.9,3.5c0.6,2.7,0.6,5.7,0.6,8.5
		C47.7,43.2,47.7,46.2,47.1,48.9z"/>
	<path id="XMLID_11159_" class="st0" d="M22.1,34.4v-2.3h-7.5v2.3h2.5v13.8h2.4V34.4H22.1z M26.5,48.2v-1.3c-0.9,1-1.7,1.5-2.5,1.5
		c-0.7,0-1.2-0.3-1.4-0.9c-0.1-0.4-0.2-0.9-0.2-1.8v-9.4h2.2V45c0,0.5,0,0.8,0,0.8c0.1,0.3,0.2,0.5,0.5,0.5c0.4,0,0.9-0.3,1.4-1
		v-9.1h2.2v11.9H26.5z M34.7,44.8c0,1.1-0.3,1.6-0.9,1.6c-0.4,0-0.7-0.2-1.1-0.5v-7.3c0.4-0.4,0.7-0.5,1.1-0.5
		c0.6,0,0.9,0.6,0.9,1.6V44.8z M36.9,44.6v-4.8c0-1.1-0.1-1.9-0.2-2.4c-0.3-0.9-0.9-1.3-1.7-1.3c-0.8,0-1.5,0.4-2.2,1.3v-5.2h-2.2
		v16h2.2V47c0.7,0.9,1.5,1.3,2.2,1.3c0.9,0,1.4-0.5,1.7-1.3C36.8,46.5,36.9,45.7,36.9,44.6z M42.9,40.8h-2.2v-1.1
		c0-1.1,0.4-1.7,1.1-1.7c0.7,0,1.1,0.6,1.1,1.7V40.8z M45,44.3V44h-2.2c0,0.9,0,1.3,0,1.5c-0.1,0.6-0.4,0.9-1,0.9
		c-0.7,0-1.1-0.6-1.1-1.7v-2.1H45v-2.5c0-1.3-0.2-2.2-0.7-2.8c-0.6-0.8-1.5-1.2-2.6-1.2c-1.1,0-2,0.4-2.6,1.2
		c-0.5,0.6-0.7,1.5-0.7,2.8v4.2c0,1.3,0.2,2.2,0.7,2.8c0.6,0.8,1.5,1.2,2.6,1.2c1.1,0,2-0.4,2.6-1.3c0.3-0.4,0.4-0.8,0.5-1.3
		C45,45.5,45,45,45,44.3z"/>
</g>
</svg>
