<?xml version="1.0" encoding="utf-8"?>
<!-- Generator: Adobe Illustrator 19.0.0, SVG Export Plug-In . SVG Version: 6.00 Build 0)  -->
<svg version="1.1" id="Layer_1" xmlns="http://www.w3.org/2000/svg" xmlns:xlink="http://www.w3.org/1999/xlink" x="0px" y="0px"
	 viewBox="0 0 492 522" style="enable-background:new 0 0 492 522;" xml:space="preserve">
<style type="text/css">
	.st0{fill:#4BBEC0;}
</style>
<g id="XMLID_1745_">
	<path id="XMLID_11577_" class="st0" d="M183.5,238.9c-36.2-36.2-47.3-79.7-35.5-128.7c8.2-34.2,33.9-52.1,65.7-61.9
		c10.9-3.4,22.4-4.8,34.2-7.3c-0.6-1.7-1.5-3.8-2.8-7.4c4.6,2.7,8.3,4.7,12.7,7.3c1.6-2.2,3.4-4.6,6-8.2c0,4.5,0,7.1,0,10
		c6.7,2.1,13.9,3.4,20,6.6c13.1,6.9,26.7,13.6,38.4,22.6c23.2,17.9,30.9,43.1,29.7,71.6c-1.1,27.4-7.1,53.4-22.8,76.3
		c-4.3,6.2-9.6,11.7-14.7,17.9c0,0.1,0.1,0.9,0.5,1.3c21.5,18.3,28.3,43.3,31.6,69.8c1.3,10.7,1.7,21.5,2.6,32.2
		c0.8,9.3-0.5,12.1-9.5,14.5c-7.4,2-11.6,5.1-13.5,13.4c-3.2,14.6-14.7,22-28.4,24.3c-32.1,5.3-64.4,5.7-96.6,0.5
		c-16-2.6-26.1-12.8-28.5-29.4c-0.6-4.1-2.4-6.5-6.7-7.3c-3.3-0.6-6.9-1.3-9.7-3.1c-2.4-1.5-5.2-4.6-5.3-6.9
		c-0.3-30.3,1.4-60.4,17.4-87.4C172.6,252.1,178.4,245.7,183.5,238.9z M183.6,138.1c-7.3,10.5-14,19.9-20.4,29.5
		c-1.2,1.8-1.8,4.5-1.5,6.6c5,34.8,30.8,63.9,63.7,72.2c35.7,8.9,71.7-3.7,93-33.1c8.3-11.5,14.1-24.2,15.3-37.5
		c-11.8-2.9-22.6-5.6-34.7-8.7c2.8,2.7,4.7,4.4,7.2,6.7C259.7,177,216.3,173.3,183.6,138.1z M324.3,345.9c9.7,0.3,11.8-4.2,10.9-12
		c-1.4-12.4-1.4-24.9-3.5-37.2c-3.5-20.4-11.2-38.8-29-51.5c-4.4,2.7-8.5,5.3-12.6,7.8c8.7,12,8.7,12-1.2,21.6
		c7.7,7.2,2.6,12.9-2.3,19.1c-9.5,11.9-18,24.5-27.9,35.9c-6.6,7.6-6.6,15.6-5.4,25.2c20.1,0,39.9,0.1,59.6-0.2
		c1.3,0,3.5-2.6,3.6-4.1c0.4-6.1,0.2-12.2,0.2-18.3c0-9.2,0-18.4,0-28.6C319.3,318.3,321.8,332.2,324.3,345.9z M242.2,354.6
		c1.4-9.6,1.1-17.5-5.5-25.1c-9.5-10.9-17.7-22.8-26.5-34.3c-4.9-6.4-12.8-12.2-4.3-20.1c-3.2-4.3-8-7.7-7.8-11
		c0.2-3.8,4.6-7.4,7.4-11.4c-3.8-2.2-7.1-4.1-11-6.3c-29.5,26.1-31,61.1-32.4,96.5c4.7,1.2,8.5,2.2,12.7,3.2
		c2.5-14.2,4.9-27.5,7.3-40.9c0.4,0,0.7,0.1,1.1,0.1c0,16.3,0,32.7,0,49.2C203.3,354.6,222.4,354.6,242.2,354.6z M184.2,364.8
		c3.9,12,12.6,16.6,22.6,17.1c24.4,1,48.9,1.4,73.4,1c7.8-0.1,15.8-3,23.3-5.7c5-1.8,8.8-5.9,9.1-12.3
		C269.9,364.8,227.6,364.8,184.2,364.8z M231.3,308c-2.8-15.1-5.6-30.5-8.8-45.9c-0.4-2-2.8-4.3-4.8-5.1c-1.6-0.6-4.3,0.5-6,1.6
		c-1.7,1.1-2.7,3.2-4.4,5.3c8.1,4.2,11.4,9.5,5.4,17.5c-0.6,0.8,0.4,3.6,1.4,5C219.9,293.9,225.9,301.2,231.3,308z M288.4,263.9
		c-1.6-2-2.8-3.9-4.4-5.3c-3.2-3-10.1-0.9-10.9,3.4c-3.1,15.7-6,31.5-9,47.1c5.8-7.4,12.1-15,17.8-23.1c1.1-1.5,0.6-5.2-0.6-7.1
		c-3.1-4.9-1.9-8.1,2.5-11C285.4,266.8,286.7,265.4,288.4,263.9z M236.4,297.1c6.7-19.8,6.5-23.2-1.6-30.4
		C229.6,276.9,235.6,285.8,236.4,297.1z M259,293.8c0.6-9.1,7.4-18.2,1-28.1C250.1,275.6,256.2,284.7,259,293.8z"/>
	<path id="XMLID_11576_" class="st0" d="M358.3,345.8c0-5.1,0-9.9,0-15.4c36.6,7.4,72.2,15.6,103.1,37.1c4.8,3.3,9.1,7.5,12.9,11.9
		c12,13.7,11,29.9-2.5,44c-13.5,14.2-30.9,22.2-48.9,28.9c-38.1,14.1-77.9,20.6-118.3,24c-38.2,3.2-76.4,3.3-114.5-0.1
		C142,471.7,94.4,464.5,50.7,442c-10.8-5.6-21-13.7-29.4-22.6c-11.3-12-10.6-26.3-0.5-39.4c9.6-12.4,22.9-19.7,36.7-26.1
		c25.3-11.7,52-18.4,79.1-23.3c0.5,0.6,1,0.9,1,1.3c0.5,14.3,0.2,13.5-13.6,18c-16.9,5.5-33.4,12.2-49.8,19.2
		c-5,2.1-9.2,6.5-13.1,10.5c-9,9.3-8.8,20.6,0.1,30.1c10.7,11.5,24.7,17.4,39.1,22.4c33.5,11.8,68.4,16.5,103.6,19.1
		c34.8,2.6,69.6,2.2,104.2-1.5c36.8-3.9,73.4-9.3,107-26.3c7.1-3.6,13.8-8.6,19.4-14.2c9.3-9.2,8.7-20.5-0.3-30
		c-9.7-10.3-22.1-16.2-35.1-20.7C386.1,353.9,372.4,350.1,358.3,345.8z"/>
	<path id="XMLID_11575_" class="st0" d="M164.1,377.1c-1.1,0.7-2,1.1-2.7,1.7c-2.9,2.4-5.7,4.9-8.6,7.3c3.3,2.6,6.2,6.3,10,7.7
		c20.4,7.8,42,9.2,63.5,10c31.1,1.2,62.3,0.8,93-5.8c6.2-1.3,12.2-3.5,18-6c2.4-1,5.9-4.1,5.7-5.8c-0.3-2.5-3.4-4.8-5.7-6.7
		c-1.4-1.2-3.4-1.7-4.8-2.4c-0.3-0.7-0.4-0.9-0.4-1.1c4.1-17.3-1.7-19.8,19.9-12.3c10.2,3.5,20.3,8.7,29,15.1
		c9.4,6.9,8.4,16.4-0.8,24c-12.7,10.5-28,15.1-43.6,18.4c-62,13-124.1,13.4-185.6-2.5c-11.8-3.1-23.4-8.7-33.8-15.3
		c-11.7-7.4-11.3-17.7-0.5-26.4c11.5-9.4,25.5-13.2,39.5-16.9c3.7-1,6.1,0.5,6.3,4.9C162.7,368.8,163.5,372.6,164.1,377.1z"/>
	<path id="XMLID_10983_" class="st0" d="M234.9,203.6c0,2,0.7,4.4-0.1,5.8c-1.9,3-4.1,6.6-7.1,7.9c-4.3,1.8-8.7-0.9-9.5-5.5
		c-0.9-5.4-1.2-11.3,0.2-16.4c0.7-2.6,6.1-6,8.7-5.5c3,0.6,5.6,4.9,7.7,8C235.6,199.2,234.9,201.7,234.9,203.6z"/>
	<path id="XMLID_10982_" class="st0" d="M279.1,206.3c0,0.3,0.7,3.4-0.5,4.9c-2.3,2.7-6,6.3-8.6,5.9c-3.1-0.5-6.6-4.2-8.3-7.4
		c-1.4-2.7-0.4-6.7-0.4-10.1c0-6,3-10.2,9-10.2c6.1,0,8.9,4.2,8.8,10.3C279.1,201.2,279.1,202.7,279.1,206.3z"/>
	<path id="XMLID_10981_" class="st0" d="M248.1,238.3c-5.1-1.3-10.1-2.2-14.9-3.8c-1.3-0.4-3-3.6-2.6-4.2c1-1.5,3.6-3.5,4.8-3.1
		c8.4,3,16.6,2.9,25,0.1c1.2-0.4,3.9,1.2,4.4,2.5c0.4,1.2-0.8,4.2-2,4.6C258.1,236,253.2,237,248.1,238.3z"/>
</g>
</svg>
