<?xml version="1.0" encoding="utf-8"?>
<!-- Generator: Adobe Illustrator 19.0.0, SVG Export Plug-In . SVG Version: 6.00 Build 0)  -->
<svg version="1.1" id="Layer_1" xmlns="http://www.w3.org/2000/svg" xmlns:xlink="http://www.w3.org/1999/xlink" x="0px" y="0px"
	 viewBox="402 -60 150 150" style="enable-background:new 402 -60 150 150;" xml:space="preserve">
<style type="text/css">
	.st0{fill:#4BBEC0;}
</style>
<g id="XMLID_1745_">
	<path id="XMLID_11577_" class="st0" d="M458.9,12.4c-10.7-10.7-14-23.6-10.5-38.2c2.4-10.1,10.1-15.5,19.5-18.4
		c3.2-1,6.6-1.4,10.1-2.2c-0.2-0.5-0.4-1.1-0.8-2.2c1.4,0.8,2.5,1.4,3.8,2.2c0.5-0.7,1-1.4,1.8-2.4c0,1.3,0,2.1,0,3
		c2,0.6,4.1,1,5.9,2c3.9,2,7.9,4,11.4,6.7c6.9,5.3,9.2,12.8,8.8,21.2c-0.3,8.1-2.1,15.8-6.8,22.6c-1.3,1.8-2.8,3.5-4.4,5.3
		c0,0,0,0.3,0.1,0.4c6.4,5.4,8.4,12.8,9.4,20.7c0.4,3.2,0.5,6.4,0.8,9.6c0.2,2.8-0.1,3.6-2.8,4.3c-2.2,0.6-3.4,1.5-4,4
		c-0.9,4.3-4.4,6.5-8.4,7.2c-9.5,1.6-19.1,1.7-28.7,0.1c-4.7-0.8-7.7-3.8-8.5-8.7c-0.2-1.2-0.7-1.9-2-2.2c-1-0.2-2-0.4-2.9-0.9
		c-0.7-0.4-1.5-1.4-1.6-2c-0.1-9,0.4-17.9,5.2-25.9C455.7,16.3,457.4,14.4,458.9,12.4z M459-17.5c-2.2,3.1-4.2,5.9-6.1,8.8
		c-0.4,0.5-0.5,1.3-0.4,2c1.5,10.3,9.1,19,18.9,21.4c10.6,2.6,21.3-1.1,27.6-9.8c2.5-3.4,4.2-7.2,4.5-11.1
		c-3.5-0.9-6.7-1.7-10.3-2.6c0.8,0.8,1.4,1.3,2.1,2C481.5-6,468.7-7.1,459-17.5z M500.7,44.1c2.9,0.1,3.5-1.2,3.2-3.6
		c-0.4-3.7-0.4-7.4-1-11c-1-6.1-3.3-11.5-8.6-15.3c-1.3,0.8-2.5,1.6-3.7,2.3c2.6,3.6,2.6,3.6-0.4,6.4c2.3,2.1,0.8,3.8-0.7,5.7
		c-2.8,3.5-5.3,7.3-8.3,10.6c-2,2.3-2,4.6-1.6,7.5c6,0,11.8,0,17.7-0.1c0.4,0,1-0.8,1.1-1.2c0.1-1.8,0.1-3.6,0.1-5.4
		c0-2.7,0-5.5,0-8.5C499.2,35.9,500,40.1,500.7,44.1z M476.3,46.7c0.4-2.8,0.3-5.2-1.6-7.4c-2.8-3.2-5.3-6.8-7.9-10.2
		c-1.5-1.9-3.8-3.6-1.3-6c-0.9-1.3-2.4-2.3-2.3-3.3c0.1-1.1,1.4-2.2,2.2-3.4c-1.1-0.7-2.1-1.2-3.3-1.9c-8.8,7.7-9.2,18.1-9.6,28.6
		c1.4,0.4,2.5,0.7,3.8,0.9c0.7-4.2,1.5-8.2,2.2-12.1c0.1,0,0.2,0,0.3,0c0,4.8,0,9.7,0,14.6C464.8,46.7,470.5,46.7,476.3,46.7z
		 M459.1,49.7c1.2,3.6,3.7,4.9,6.7,5.1c7.2,0.3,14.5,0.4,21.8,0.3c2.3,0,4.7-0.9,6.9-1.7c1.5-0.5,2.6-1.8,2.7-3.6
		C484.6,49.7,472,49.7,459.1,49.7z M473.1,32.9c-0.8-4.5-1.7-9-2.6-13.6c-0.1-0.6-0.8-1.3-1.4-1.5c-0.5-0.2-1.3,0.1-1.8,0.5
		s-0.8,0.9-1.3,1.6c2.4,1.2,3.4,2.8,1.6,5.2c-0.2,0.2,0.1,1.1,0.4,1.5C469.7,28.7,471.5,30.9,473.1,32.9z M490,19.8
		c-0.5-0.6-0.8-1.2-1.3-1.6c-0.9-0.9-3-0.3-3.2,1c-0.9,4.7-1.8,9.3-2.7,14c1.7-2.2,3.6-4.4,5.3-6.9c0.3-0.4,0.2-1.5-0.2-2.1
		c-0.9-1.5-0.6-2.4,0.7-3.3C489.2,20.7,489.5,20.3,490,19.8z M474.6,29.7c2-5.9,1.9-6.9-0.5-9C472.6,23.7,474.4,26.3,474.6,29.7z
		 M481.3,28.7c0.2-2.7,2.2-5.4,0.3-8.3C478.7,23.3,480.5,26,481.3,28.7z"/>
	<path id="XMLID_11576_" class="st0" d="M510.8,44.1c0-1.5,0-2.9,0-4.6c10.9,2.2,21.4,4.6,30.6,11c1.4,1,2.7,2.2,3.8,3.5
		c3.6,4.1,3.3,8.9-0.7,13.1c-4,4.2-9.2,6.6-14.5,8.6c-11.3,4.2-23.1,6.1-35.1,7.1c-11.3,0.9-22.7,1-34,0
		c-14.3-1.3-28.4-3.5-41.3-10.1c-3.2-1.7-6.2-4.1-8.7-6.7c-3.4-3.6-3.1-7.8-0.1-11.7c2.8-3.7,6.8-5.8,10.9-7.7
		C429.1,43,437,41,445,39.6c0.1,0.2,0.3,0.3,0.3,0.4c0.1,4.2,0.1,4-4,5.3c-5,1.6-9.9,3.6-14.8,5.7c-1.5,0.6-2.7,1.9-3.9,3.1
		c-2.7,2.8-2.6,6.1,0,8.9c3.2,3.4,7.3,5.2,11.6,6.6c9.9,3.5,20.3,4.9,30.7,5.7c10.3,0.8,20.6,0.7,30.9-0.4
		c10.9-1.2,21.8-2.8,31.7-7.8c2.1-1.1,4.1-2.6,5.8-4.2c2.8-2.7,2.6-6.1-0.1-8.9c-2.9-3.1-6.6-4.8-10.4-6.1
		C519,46.5,515,45.4,510.8,44.1z"/>
	<path id="XMLID_11575_" class="st0" d="M453.2,53.4c-0.3,0.2-0.6,0.3-0.8,0.5c-0.9,0.7-1.7,1.5-2.6,2.2c1,0.8,1.8,1.9,3,2.3
		c6.1,2.3,12.5,2.7,18.8,3c9.2,0.4,18.5,0.2,27.6-1.7c1.8-0.4,3.6-1,5.3-1.8c0.7-0.3,1.8-1.2,1.7-1.7c-0.1-0.7-1-1.4-1.7-2
		c-0.4-0.4-1-0.5-1.4-0.7c-0.1-0.2-0.1-0.3-0.1-0.3c1.2-5.1-0.5-5.9,5.9-3.6c3,1,6,2.6,8.6,4.5c2.8,2,2.5,4.9-0.2,7.1
		c-3.8,3.1-8.3,4.5-12.9,5.5c-18.4,3.9-36.8,4-55.1-0.7c-3.5-0.9-6.9-2.6-10-4.5c-3.5-2.2-3.4-5.3-0.1-7.8c3.4-2.8,7.6-3.9,11.7-5
		c1.1-0.3,1.8,0.1,1.9,1.5C452.8,50.9,453,52.1,453.2,53.4z"/>
	<path id="XMLID_10983_" class="st0" d="M474.2,1.9c0,0.6,0.2,1.3,0,1.7c-0.6,0.9-1.2,2-2.1,2.3c-1.3,0.5-2.6-0.3-2.8-1.6
		c-0.3-1.6-0.4-3.4,0.1-4.9c0.2-0.8,1.8-1.8,2.6-1.6c0.9,0.2,1.7,1.5,2.3,2.4C474.4,0.6,474.2,1.4,474.2,1.9z"/>
	<path id="XMLID_10982_" class="st0" d="M487.3,2.7c0,0.1,0.2,1-0.1,1.5c-0.7,0.8-1.8,1.9-2.6,1.7c-0.9-0.1-2-1.2-2.5-2.2
		c-0.4-0.8-0.1-2-0.1-3c0-1.8,0.9-3,2.7-3c1.8,0,2.6,1.2,2.6,3.1C487.3,1.2,487.3,1.7,487.3,2.7z"/>
	<path id="XMLID_10981_" class="st0" d="M478.1,12.2c-1.5-0.4-3-0.7-4.4-1.1c-0.4-0.1-0.9-1.1-0.8-1.2c0.3-0.4,1.1-1,1.4-0.9
		c2.5,0.9,4.9,0.9,7.4,0c0.4-0.1,1.2,0.4,1.3,0.7c0.1,0.4-0.2,1.2-0.6,1.4C481.1,11.5,479.6,11.8,478.1,12.2z"/>
</g>
</svg>
