<?xml version="1.0" encoding="utf-8"?>
<!-- Generator: Adobe Illustrator 19.0.0, SVG Export Plug-In . SVG Version: 6.00 Build 0)  -->
<svg version="1.1" id="Layer_1" xmlns="http://www.w3.org/2000/svg" xmlns:xlink="http://www.w3.org/1999/xlink" x="0px" y="0px"
	 viewBox="0 0 1200 1200" style="enable-background:new 0 0 1200 1200;" xml:space="preserve">
<style type="text/css">
	.st0{fill:#4CBEC0;}
	.st1{fill:none;stroke:#4DBEC0;stroke-width:10;stroke-miterlimit:10;}
</style>
<g id="XMLID_10486_">
	<path id="XMLID_10962_" class="st0" d="M798,479.4c-4.2-3.1-7.6-5.1-10.3-7.7c-11.8-11.6-23.5-23.3-35.1-35
		c-10-10.1-10-13.3,0.3-22.8c45.2-41.6,90.5-83.1,135.8-124.6c64.9-59.5,129.9-118.9,194.8-178.4c10.9-9.9,13.2-9.9,23.9,0.8
		c1.3,1.3,2.5,2.5,3.8,3.8c11,11.1,11.1,13.6,0.8,24.8c-47.4,51.7-94.7,103.3-142.1,155c-53.4,58.3-106.9,116.6-160.4,174.8
		C806.4,473.5,802.2,476.1,798,479.4z"/>
	<path id="XMLID_10959_" class="st0" d="M727.7,450c13.3,13.5,26.1,26.1,38.2,39.4c2,2.2,2.5,8,1,10.7
		c-26.5,49.8-64.6,89.2-111.1,122.5c-5.2-8.8-12.8-11-21.9-7.5c-9.2,3.5-11.4,11.6-11.8,20c-1.7,30.1-15.9,49.7-44.9,60.2
		c-28.2,10.3-55.4,23.4-84.7,36c1.3-4.3,2-7.3,3.2-10.1c10.6-25.9,22.1-51.4,31.6-77.6c10-27.6,28.9-41.5,57.6-44.1
		c6.1-0.5,13-2.7,17.7-6.4c8.4-6.8,6.5-18.7-3.7-28C632.6,517.3,674,477.9,727.7,450z M591.9,649.3c-0.3-10.2-8.8-18-19.1-17.8
		c-10.5,0.3-18,8.2-17.8,18.8c0.3,10.2,8.8,18.4,18.9,18.1C583.8,668.2,592.2,659.2,591.9,649.3z"/>
</g>
<g id="XMLID_10513_">
	<path id="XMLID_10518_" class="st1" d="M987.8,568.1c-64.3,0-128.7,0.2-193-0.2c-4.8,0-9.3,0.2-13.6,1.1H172.8v218.2H1000V568.1
		H987.8z M859.7,734.8H560c-0.1,0.2-0.2,0.5-0.3,0.7H328.6V620.1h490.3c0.1,0.4,0.5,0.3,1.2,0h50.6v51.5
		C870.6,671.6,873.6,734.8,859.7,734.8z"/>
	<path id="XMLID_10517_" class="st1" d="M29.8,891.6c4.8,0,8.3,0,11.8,0c135.5,0,270.9,0,406.4,0c5.8,0,10.2,0.5,14.8,5.8
		c3.6,4.2,11.3,6.9,17.1,6.9c71.1,0.5,142.3,0.4,213.4,0c5.6,0,13.1-2.3,16.3-6.3c5-6.1,10.2-6.4,16.7-6.4
		c134.7,0.1,269.5,0.1,404.2,0.1c3.6,0,7.1,0,10.6,0c7.6,28.9-10.4,51.6-40.5,51.6c-135.5,0.1-270.9,0-406.4,0
		c-206.9,0-413.9,0-620.8,0c-21.6,0-37.3-10.3-41.8-28.4C29.8,907.7,30.4,900.1,29.8,891.6z"/>
	<path id="XMLID_10514_" class="st1" d="M1076.8,244.6c-0.1,0-6,0-8.4,0c-257.7,0-674.9,0-932.6,0c-4.3,0-8.7-0.1-12.9,0.4
		c-21.4,2.5-28,10-28,31.4c0,192.3,0,384.5,0,576.8c0,3.8,0,7.7,0,11.6c328.4,0,655.5,0,981.9,0
		C1076.8,659.4,1076.9,244.6,1076.8,244.6z M1026.5,793c0,17.2-3.7,21-20.6,21c-279.6,0-559.2,0-838.8,0c-16.9,0-20.6-3.7-20.6-21
		c0-158.1,0-316.2,0-474.4c0-19.2,3.1-22.3,22.5-22.3c217.8,0,595.2-0.6,812.9,0.7c0.9,0,1.7,0,2.5,0h41.6v18.7
		c0,0.6-0.1,1.2-0.1,1.8C1026.8,476,1026.5,634.5,1026.5,793z"/>
</g>
</svg>
