<?xml version="1.0" encoding="utf-8"?>
<!-- Generator: Adobe Illustrator 19.0.0, SVG Export Plug-In . SVG Version: 6.00 Build 0)  -->
<svg version="1.1" id="Layer_1" xmlns="http://www.w3.org/2000/svg" xmlns:xlink="http://www.w3.org/1999/xlink" x="0px" y="0px"
	 viewBox="1110 -60 150 150" style="enable-background:new 1110 -60 150 150;" xml:space="preserve">
<style type="text/css">
	.st0{fill:#4CBEC0;}
	.st1{fill:none;stroke:#4DBEC0;stroke-width:2;stroke-miterlimit:10;}
</style>
<g id="XMLID_10486_">
	<path id="XMLID_10962_" class="st0" d="M1211.3,10.5c-0.5-0.4-0.9-0.6-1.2-0.9c-1.4-1.4-2.8-2.8-4.2-4.2c-1.2-1.2-1.2-1.6,0-2.8
		c5.5-5,11-10.1,16.4-15.1c7.9-7.2,15.7-14.4,23.6-21.6c1.3-1.2,1.6-1.2,2.9,0.1c0.2,0.2,0.3,0.3,0.5,0.5c1.3,1.3,1.3,1.6,0.1,3
		c-5.7,6.3-11.5,12.5-17.2,18.8c-6.5,7.1-12.9,14.1-19.4,21.2C1212.3,9.8,1211.8,10.1,1211.3,10.5z"/>
	<path id="XMLID_10959_" class="st0" d="M1202.8,6.9c1.6,1.6,3.2,3.2,4.6,4.8c0.2,0.3,0.3,1,0.1,1.3c-3.2,6-7.8,10.8-13.4,14.8
		c-0.6-1.1-1.5-1.3-2.7-0.9c-1.1,0.4-1.4,1.4-1.4,2.4c-0.2,3.6-1.9,6-5.4,7.3c-3.4,1.2-6.7,2.8-10.2,4.4c0.2-0.5,0.2-0.9,0.4-1.2
		c1.3-3.1,2.7-6.2,3.8-9.4c1.2-3.3,3.5-5,7-5.3c0.7-0.1,1.6-0.3,2.1-0.8c1-0.8,0.8-2.3-0.4-3.4C1191.3,15.1,1196.3,10.3,1202.8,6.9z
		 M1186.3,31c0-1.2-1.1-2.2-2.3-2.2c-1.3,0-2.2,1-2.2,2.3c0,1.2,1.1,2.2,2.3,2.2C1185.4,33.3,1186.4,32.2,1186.3,31z"/>
</g>
<g id="XMLID_10513_">
	<path id="XMLID_10518_" class="st1" d="M1234.2,21.2c-7.8,0-15.6,0-23.4,0c-0.6,0-1.1,0-1.6,0.1h-73.6v26.4h100.1V21.2H1234.2z
		 M1218.7,41.4h-36.3c0,0,0,0.1,0,0.1h-28v-14h59.3c0,0,0.1,0,0.1,0h6.1v6.2C1220.1,33.7,1220.4,41.4,1218.7,41.4z"/>
	<path id="XMLID_10517_" class="st1" d="M1118.3,60.4c0.6,0,1,0,1.4,0c16.4,0,32.8,0,49.2,0c0.7,0,1.2,0.1,1.8,0.7
		c0.4,0.5,1.4,0.8,2.1,0.8c8.6,0.1,17.2,0,25.8,0c0.7,0,1.6-0.3,2-0.8c0.6-0.7,1.2-0.8,2-0.8c16.3,0,32.6,0,48.9,0
		c0.4,0,0.9,0,1.3,0c0.9,3.5-1.3,6.2-4.9,6.2c-16.4,0-32.8,0-49.2,0c-25,0-50.1,0-75.1,0c-2.6,0-4.5-1.2-5.1-3.4
		C1118.3,62.3,1118.4,61.4,1118.3,60.4z"/>
	<path id="XMLID_10514_" class="st1" d="M1245-17.9c0,0-0.7,0-1,0c-31.2,0-81.7,0-112.8,0c-0.5,0-1.1,0-1.6,0
		c-2.6,0.3-3.4,1.2-3.4,3.8c0,23.3,0,46.5,0,69.8c0,0.5,0,0.9,0,1.4c39.7,0,79.3,0,118.8,0C1245,32.3,1245-17.9,1245-17.9z
		 M1238.9,48.4c0,2.1-0.4,2.5-2.5,2.5c-33.8,0-67.7,0-101.5,0c-2,0-2.5-0.4-2.5-2.5c0-19.1,0-38.3,0-57.4c0-2.3,0.4-2.7,2.7-2.7
		c26.4,0,72-0.1,98.4,0.1c0.1,0,0.2,0,0.3,0h5v2.3c0,0.1,0,0.1,0,0.2C1239,10.1,1238.9,29.2,1238.9,48.4z"/>
</g>
</svg>
