<?xml version="1.0" encoding="utf-8"?>
<!-- Generator: Adobe Illustrator 19.0.0, SVG Export Plug-In . SVG Version: 6.00 Build 0)  -->
<svg version="1.1" id="Layer_1" xmlns="http://www.w3.org/2000/svg" xmlns:xlink="http://www.w3.org/1999/xlink" x="0px" y="0px"
	 viewBox="0 0 1200 1200" style="enable-background:new 0 0 1200 1200;" xml:space="preserve">
<style type="text/css">
	.st0{fill:#4CBEC0;}
</style>
<g id="XMLID_15775_">
	<path id="XMLID_11333_" class="st0" d="M310.2,615.2c-2.3,2.5-4.5,4.7-8.6,9.1c-6.7-8.9-13.2-17.5-20-26.5
		c-29.2,29.3-55.6,55.7-84.5,84.8c-7.8-26.1-16.1-49-21.4-72.6c-40.7-178.7,6-333.1,133-463.3c49.8-51.1,113.6-78.1,182.9-92.2
		C578,37.1,664,43.1,750.1,59.5c62.8,11.9,119.3,36.4,168.7,77.3c41.6,34.4,67.1,80.3,91.2,127c11.6,22.4,21.4,45.9,21.9,71.6
		c0.2,9.5-1.5,19.6-5,28.4c-10.6,26.1-9.9,49.1,8.7,72.4c34.7,43.5,67.4,88.6,100.9,133.1c14.5,19.3,11.8,33.3-8.5,46.2
		c-7.7,4.9-15.4,9.8-22.2,15.8c-12.1,10.7-15.5,24.6-11.4,40.1c2.8,10.4,6.9,20.5,9.8,31c5.2,18.5,1.5,25.3-15.5,33.2
		c-6.1,2.8-11.3,7.7-16.8,11.6c4.5,4.5,8.9,9.2,13.6,13.6c2,1.9,4.6,3.2,6.9,4.8c14,9.3,15.5,22.4,4,34.8c-0.5,0.5-0.9,1.1-1.5,1.5
		c-31.9,23.2-34.4,54.5-24.3,89.2c2.8,9.7,5.9,19.4,8.7,29.1c7.5,25.4-0.1,46.3-22.4,60.8c-21.8,14.1-46.6,18.4-71.7,21.4
		c-20.1,2.4-40.4,3.7-60.6,6c-14.4,1.6-24.7,9.9-31.1,22.4c-9.9,19.4-17.3,39.4-17.5,61.9c-0.2,28.3-2.1,56.6-3.3,85.7
		c-131.8,0-263,0-395.3,0c0-4.2,0-7.9,0-11.7c0-29.8,0.1-59.6,0-89.3c-0.1-53.1-10.1-103.9-30.4-153.3
		c-14.1-34.3-26.4-68.8-61.3-88.5c22-21.9,43.1-42.8,65.2-64.8c-9.3-8.2-17.4-15.3-24.9-21.9c4.4-9.1,8.7-9.8,15.9-6
		c195.1,102.1,427.2-2.3,479.7-215.6c44.5-180.9-74.1-365.8-257.9-401.9c-185.8-36.5-362.5,86-392.4,272.9
		c-11.7,73.1,0,142.8,34.6,208.5C307.3,609.4,308.6,612.2,310.2,615.2z"/>
	<path id="XMLID_11330_" class="st0" d="M428,678.9c-23.1,23.1-45.6,45.6-69.5,69.5c7.9,6.7,16.1,13.6,23.9,20.2
		c-90.7,90.6-179.8,179.8-268.1,268c-33.5-33.6-67.6-67.7-100.8-101c87.5-87.5,176.9-176.7,267.4-267.1c5.4,6.5,12.1,14.6,17.8,21.4
		c24.5-24.5,47.1-47.1,70.6-70.5c-50.3-70.6-67.5-150.7-46.6-237.6c16.8-69.6,55.9-124.6,114.6-165.4
		c117.1-81.3,274.4-62.7,372.2,43.5c94.6,102.8,98,263,8,372.4C728.3,740.7,560.7,774.9,428,678.9z M763,588.7
		c65.8-74.6,73.7-205.1-12.4-290.9c-85-84.7-221.9-83.6-306.5,2.3c-81.5,82.8-73,205.5-23.9,269c0-4.5,0-7.9,0-11.3
		c0-23.8-0.3-47.6,0.3-71.4c0.1-3.9,3.1-9.8,6.3-11.3c19.8-9.4,39.9-18.4,60.3-26.3c7.7-3,16.7-2.8,26.2-4.3c0,6.3,0,10.4,0,14.6
		c0,59.9-0.1,119.8,0.1,179.7c0,3.7,0.9,9.7,3.2,10.8c8.5,4.1,17.8,6.7,28.7,10.4c0-70.9,0-139.3,0-209.8c5,2.9,8.6,4.3,11.4,6.6
		c14.8,11.7,29.4,23.7,44.1,35.4c9.8,7.8,19.3,16.3,29.9,22.7c5.7,3.4,7.8,6.1,7.8,12.5c-0.3,41-0.1,82-0.1,122.9
		c0,3.7,0,7.4,0,12.4c7.5-1.9,13.5-3.9,19.6-4.8c9.7-1.5,12.6-6.2,12.5-16.3c-0.7-40.3-0.4-80.6-0.2-120.8c0-3.5,0.5-8.5,2.7-10.2
		c22.8-17.9,46-35.4,69.4-52.6c5.6-4.1,12.5-6.6,20.6-10.8C763,495.5,763,540.9,763,588.7z"/>
	<path id="XMLID_11260_" class="st0" d="M667.1,464.5c26.3-15.3,52.4-30.3,78.2-45.7c2.9-1.7,5.1-6.1,5.9-9.6
		c2.5-11.1,9.7-19,20.2-19.7c10.1-0.6,17.6,4.1,22,13.2c4.2,8.9,1.6,19.2-6.1,25.7c-7.7,6.5-17.1,6.5-27.3,0.9
		c-2.6-1.4-7.4-1.8-9.9-0.4c-25.9,14.6-51.6,29.6-77.2,44.7c-2.5,1.5-4.9,4-6.3,6.6c-6.5,11.7-15,17-24.7,15
		c-11-2.3-16.9-10.3-18.1-23.6c-0.2-2.7-1.7-6.3-3.8-7.5c-24.6-14.8-49.3-29.2-73.9-43.6c-14.6,17-25.1,17.4-40.3,2.5
		c-1.7-1.6-5.7-2.5-8-1.7c-15.3,4.9-30.5,10-45.4,16c-3.1,1.2-5.5,6.2-6.6,10c-3.4,11.2-11.8,17.8-23.2,17.1
		c-10.6-0.6-18.9-8.7-20.1-19.4c-1.2-10.6,4.7-21.1,15.4-23.1c5.9-1.1,13.6-0.1,18.6,3.1c5.3,3.4,9.2,3.3,14.3,1.4
		c11.1-4.1,22.3-8.2,33.6-11.9c9.6-3.1,17.8-6.2,23.7-16.3c8.1-13.8,28.1-10.8,36.4,3.6c2.6,4.5,6.5,8.9,10.9,11.6
		c22.1,13.5,44.6,26.2,66.9,39.5c4.9,2.9,8.7,3.8,14.3,0.9C647.5,448.1,655.9,451.4,667.1,464.5z M632.7,471.1
		c0,1.6,0.1,3.2,0.1,4.7c4.4,3,8.5,7.8,13.2,8.4c6.5,0.8,11.3-4.3,11.1-11.2c-0.2-6.6-4.5-12-11.4-10.7
		C641,463.4,637,468.1,632.7,471.1z M537.6,414c0-1.7,0-3.5,0-5.2c-4.3-2.8-8.3-7.3-13-8c-6.8-1.1-11,3.9-11,10.8
		c0.1,6.7,4.1,11.9,11.1,10.6C529.4,421.3,533.3,416.8,537.6,414z M436.8,446c0.1-1.6,0.2-3.3,0.4-4.9c-4-3.4-7.5-8.7-12-9.7
		c-6.3-1.4-11.2,2.9-11.8,10c-0.6,7.1,3.4,12.2,9.9,11.9C427.9,453.1,432.3,448.6,436.8,446z M776.9,398.9c-1.7-0.1-3.4-0.2-5.2-0.4
		c-3.1,4.1-7.8,7.8-9.1,12.4c-1.6,6.1,2.5,10.8,9.2,11.4c7,0.7,12.5-2.6,12-9.7C783.5,407.9,779.3,403.5,776.9,398.9z"/>
</g>
</svg>
