<?xml version="1.0" encoding="utf-8"?>
<!-- Generator: Adobe Illustrator 19.0.0, SVG Export Plug-In . SVG Version: 6.00 Build 0)  -->
<svg version="1.1" id="Layer_1" xmlns="http://www.w3.org/2000/svg" xmlns:xlink="http://www.w3.org/1999/xlink" x="0px" y="0px"
	 viewBox="0 0 1200 1200" style="enable-background:new 0 0 1200 1200;" xml:space="preserve">
<style type="text/css">
	.st0{fill:none;stroke:#4DBEC0;stroke-width:10;stroke-miterlimit:10;}
	.st1{fill:none;stroke:#4DBEC0;stroke-width:12;stroke-miterlimit:10;}
	.st2{fill:none;stroke:#4DBEC0;stroke-width:8;stroke-miterlimit:10;}
</style>
<path id="XMLID_10333_" class="st0" d="M510.7,666.7c-18.8-9.8-37.9-19.2-55.3-31.5c-8.2-5.8-16-4.7-22.8,2.5
	c-8.7,9.3-17.2,18.7-25.7,28.3c-6.1,6.9-12.6,8.2-21.2,3.8c-49.5-25.2-86.3-62.7-111.3-112.2c-4.4-8.8-2.5-15,4.2-21.1
	c9.5-8.5,18.9-17.1,28.1-25.9c5.9-5.7,7.9-12.1,3.3-20c-11.8-20.1-23.2-40.5-34.8-60.7c-3.3-5.7-7.1-10.7-14.7-10.4
	c-18.2,0.6-34.8,4.7-46.2,20.4c-19.1,26.2-26.5,54-17.6,86.8c23.3,86,77.4,147.5,151.4,193c29.5,18.1,62.7,28.3,91.8,32.1
	c41.2-0.2,73.1-22,81.7-50.7c0.7-3.9,1.4-7.7,2.2-11.6C524.4,679.4,521,672.1,510.7,666.7z"/>
<path id="XMLID_9262_" class="st0" d="M951.8,640.8c-25.1-18.2-54.3-26.2-83.3-34.6c-51.2-5.8-100.9-1.4-147.5,23
	c-87.1,45.6-94.4,132.4-16,190.8c0.5,0.4,1.1,0.8,1.7,1.1c9.6,4.7,8.9,11.5,5.4,20.2c-6.4,16.1-16.8,29.1-28.2,41.6
	c-4.5,4.9-10.4,10-5.2,17.5c4.2,6,10.7,3.9,16.7,2.6c33.4-7.2,64.7-19.4,91.6-40.7c8.5-6.7,17-9.8,27.7-9
	c48.6,3.6,93.7-7.8,135.3-32.9c2.5-2.2,5-4.5,7.6-6.6C1021.5,760.4,1019,689.5,951.8,640.8z"/>
<path id="XMLID_9261_" class="st1" d="M827.2,1064.5c-141.4,0-260.7-94.7-298.1-224.1C481.7,871.5,425,889.7,364,889.7
	c-166.5,0-301.5-135-301.5-301.5c0-166.5,135-301.5,301.5-301.5c31.1,0,61.2,4.7,89.4,13.5c8.1-124.6,111.7-223.2,238.3-223.2
	c131.9,0,238.9,107,238.9,238.9c0,49.8-15.3,96.1-41.4,134.4c141.6,28.7,248.3,153.9,248.3,304.1
	C1137.5,925.6,998.6,1064.5,827.2,1064.5z"/>
<path id="XMLID_9238_" class="st2" d="M622.9,361.3c-49.3,0.2-98.7,0.2-148,0c-11.4-0.1-16.5,4.7-16.5,16c0.1,33.2,0.2,66.4,0,99.6
	c0,1.8,0,3.4,0.2,4.9c-0.5,8.2,4.3,12.6,15.3,11.5c0.6,0,1.2,0.1,1.9,0.1c24.2-0.5,48.4-0.1,72.7-0.1c24.7,0,49.3-0.2,74,0.1
	c11.2,0.1,16.5-4.3,16.5-15.9c-0.2-33.2-0.2-66.4,0-99.6C638.9,366.6,634.4,361.3,622.9,361.3z M613.2,462.4c0,4.4-1.7,6.7-6.3,6.6
	c-41.4-0.8-82.8,1.7-124.2-1.3c0-17.9,0-35.8,0-56.1c15.4,8.8,30.4,15.9,43.6,25.3c15.3,11.1,28.5,12.5,44.1,0.4
	c10.8-8.4,24-13.8,36.1-20.5c4.7,0.7,6.8,3.2,6.7,8.2C613,437.4,613.1,449.9,613.2,462.4z M551.1,428.4c-1.2,0.8-3.8,0.7-5,0
	c-21.1-13-44.2-22.7-63.3-39c2.2-4.6,6.5-4,10.4-4c36.9,0,73.8,0,110.7,0c4,0,8.2-0.4,10.5,4C595.4,405.7,572.2,415.4,551.1,428.4z"
	/>
<path id="XMLID_9196_" class="st2" d="M818.6,186.8c-34.6-0.1-69.2-0.1-103.8,0c-3.3,0-6.7,0.3-9.8,1.4
	c-8.6,2.9-13.2,10.3-13.2,20.7c0,38.6,0,77.3,0,115.9s0,77.3,0,115.9c0,14.8,7.7,22.9,22.5,23c34.9,0.1,69.8,0.1,104.7,0
	c14.8,0,22.5-8.1,22.5-22.9c0-77,0-154,0-231C841.6,194.7,833.7,186.8,818.6,186.8z M766.7,454.7c-7.1,0-12.9-5.8-13-12.9
	c0-7.1,5.8-13,12.9-13c7.1,0,13,5.9,13,12.9C779.6,448.9,773.9,454.7,766.7,454.7z M829,409.8c0,7.9-2.4,10.2-10.4,10.2
	c-34.2,0-68.4,0-102.5,0c-9.8,0-11.7-1.9-11.7-11.5c0-33,0-66.1,0-99.1c0-32.7,0-65.5,0-98.2c0-10.2,1.7-11.9,12.1-11.9
	c34,0,68.1,0,102.1,0c8,0,10.4,2.3,10.4,10.2C829,276.3,829,343,829,409.8z"/>
</svg>
