<?xml version="1.0" encoding="utf-8"?>
<!-- Generator: Adobe Illustrator 19.0.0, SVG Export Plug-In . SVG Version: 6.00 Build 0)  -->
<svg version="1.1" id="Layer_1" xmlns="http://www.w3.org/2000/svg" xmlns:xlink="http://www.w3.org/1999/xlink" x="0px" y="0px"
	 viewBox="1110 -60 150 150" style="enable-background:new 1110 -60 150 150;" xml:space="preserve">
<style type="text/css">
	.st0{fill:none;stroke:#4DBEC0;stroke-width:2;stroke-miterlimit:10;}
	.st1{fill:none;stroke:#4DBEC0;stroke-miterlimit:10;}
</style>
<g>
	<path id="XMLID_10333_" class="st0" d="M1173,28.4c-2.5-1.3-5.1-2.6-7.4-4.2c-1.1-0.8-2.1-0.6-3.1,0.3c-1.2,1.2-2.3,2.5-3.4,3.8
		c-0.8,0.9-1.7,1.1-2.8,0.5c-6.6-3.4-11.5-8.4-14.9-15c-0.6-1.2-0.3-2,0.6-2.8c1.3-1.1,2.5-2.3,3.8-3.5c0.8-0.8,1.1-1.6,0.4-2.7
		c-1.6-2.7-3.1-5.4-4.7-8.1c-0.4-0.8-1-1.4-2-1.4c-2.4,0.1-4.7,0.6-6.2,2.7c-2.6,3.5-3.5,7.2-2.4,11.6c3.1,11.5,10.4,19.7,20.3,25.8
		c3.9,2.4,8.4,3.8,12.3,4.3c5.5,0,9.8-2.9,10.9-6.8c0.1-0.5,0.2-1,0.3-1.6C1174.8,30.1,1174.3,29.1,1173,28.4z"/>
	<path id="XMLID_9262_" class="st0" d="M1232,25c-3.4-2.4-7.3-3.5-11.1-4.6c-6.9-0.8-13.5-0.2-19.7,3.1
		c-11.7,6.1-12.6,17.7-2.1,25.5c0.1,0.1,0.1,0.1,0.2,0.1c1.3,0.6,1.2,1.5,0.7,2.7c-0.9,2.2-2.2,3.9-3.8,5.6
		c-0.6,0.7-1.4,1.3-0.7,2.3c0.6,0.8,1.4,0.5,2.2,0.3c4.5-1,8.7-2.6,12.3-5.4c1.1-0.9,2.3-1.3,3.7-1.2c6.5,0.5,12.5-1,18.1-4.4
		c0.3-0.3,0.7-0.6,1-0.9C1241.3,41,1241,31.5,1232,25z"/>
	<path id="XMLID_9261_" class="st0" d="M1215.3,81.7c-18.9,0-34.9-12.7-39.9-30c-6.3,4.2-13.9,6.6-22.1,6.6
		c-22.3,0-40.3-18.1-40.3-40.3s18.1-40.3,40.3-40.3c4.2,0,8.2,0.6,12,1.8c1.1-16.7,14.9-29.9,31.9-29.9c17.7,0,32,14.3,32,32
		c0,6.7-2,12.9-5.5,18c18.9,3.8,33.2,20.6,33.2,40.7C1256.8,63.1,1238.2,81.7,1215.3,81.7z"/>
	<path id="XMLID_9238_" class="st1" d="M1188-12.5c-6.6,0-13.2,0-19.8,0c-1.5,0-2.2,0.6-2.2,2.1c0,4.4,0,8.9,0,13.3
		c0,0.2,0,0.5,0,0.7c-0.1,1.1,0.6,1.7,2,1.5c0.1,0,0.2,0,0.3,0c3.2-0.1,6.5,0,9.7,0c3.3,0,6.6,0,9.9,0c1.5,0,2.2-0.6,2.2-2.1
		c0-4.4,0-8.9,0-13.3C1190.1-11.7,1189.5-12.5,1188-12.5z M1186.7,1.1c0,0.6-0.2,0.9-0.8,0.9c-5.5-0.1-11.1,0.2-16.6-0.2
		c0-2.4,0-4.8,0-7.5c2.1,1.2,4.1,2.1,5.8,3.4c2,1.5,3.8,1.7,5.9,0.1c1.4-1.1,3.2-1.8,4.8-2.7c0.6,0.1,0.9,0.4,0.9,1.1
		C1186.6-2.3,1186.7-0.6,1186.7,1.1z M1178.4-3.5c-0.2,0.1-0.5,0.1-0.7,0c-2.8-1.7-5.9-3-8.5-5.2c0.3-0.6,0.9-0.5,1.4-0.5
		c4.9,0,9.9,0,14.8,0c0.5,0,1.1-0.1,1.4,0.5C1184.3-6.5,1181.2-5.2,1178.4-3.5z"/>
	<path id="XMLID_9196_" class="st1" d="M1214.2-35.8c-4.6,0-9.3,0-13.9,0c-0.4,0-0.9,0-1.3,0.2c-1.2,0.4-1.8,1.4-1.8,2.8
		c0,5.2,0,10.3,0,15.5s0,10.3,0,15.5c0,2,1,3.1,3,3.1c4.7,0,9.3,0,14,0c2,0,3-1.1,3-3.1c0-10.3,0-20.6,0-30.9
		C1217.2-34.7,1216.2-35.8,1214.2-35.8z M1207.2,0c-1,0-1.7-0.8-1.7-1.7c0-1,0.8-1.7,1.7-1.7c1,0,1.7,0.8,1.7,1.7
		C1208.9-0.7,1208.2,0,1207.2,0z M1215.5-6c0,1.1-0.3,1.4-1.4,1.4c-4.6,0-9.2,0-13.7,0c-1.3,0-1.6-0.3-1.6-1.5c0-4.4,0-8.8,0-13.3
		c0-4.4,0-8.8,0-13.1c0-1.4,0.2-1.6,1.6-1.6c4.6,0,9.1,0,13.7,0c1.1,0,1.4,0.3,1.4,1.4C1215.5-23.8,1215.5-14.9,1215.5-6z"/>
</g>
</svg>
