<?xml version="1.0" encoding="utf-8"?>
<!-- Generator: Adobe Illustrator 19.0.0, SVG Export Plug-In . SVG Version: 6.00 Build 0)  -->
<svg version="1.1" id="Layer_1" xmlns="http://www.w3.org/2000/svg" xmlns:xlink="http://www.w3.org/1999/xlink" x="0px" y="0px"
	 viewBox="0 0 1200 1200" style="enable-background:new 0 0 1200 1200;" xml:space="preserve">
<style type="text/css">
	.st0{fill:none;stroke:#4DBEC0;stroke-width:8;stroke-miterlimit:10;}
	.st1{fill:#4CBEC0;}
</style>
<g id="XMLID_15780_">
	<path id="XMLID_10432_" class="st0" d="M687.8,889.2c22.1,0,43.4,0,64.5,0c5.6,24.3-6.7,40.5-30.8,40.5
		c-211.4,0.1-422.8,0-634.1,0.1c-12.8,0-22.4-5.3-30.2-14.9c-6.1-7.5-4.4-16.2-4.3-25.4c21.5,0,42.9,0,65.1,0c0-3,0-5.4,0-7.8
		c0-91.6,0-183.1,0-274.7c0-19.6,9.4-29,28.9-29c169.8,0,339.6,0.2,509.4-0.3c16,0,31.9,14.5,31.8,31.7c-0.5,90.3-0.2,180.7-0.2,271
		C687.8,883.1,687.8,885.7,687.8,889.2z M662.3,870.4c0-89.4,0-178.2,0-267.3c-174.1,0-348,0-522.1,0c0,89.2,0,178.2,0,267.3
		C314.4,870.4,488.1,870.4,662.3,870.4z M447.5,892c-31,0-61.6,0-92.5,0c0,2.4,0,4.5,0,6.7c31.1,0,61.8,0,92.9,0
		C447.8,896.2,447.6,894.2,447.5,892z"/>
	<g id="XMLID_10202_">
		<path id="XMLID_10898_" class="st1" d="M1047.6,115.4c3.3,2.7,6.7,5.3,9.7,8.3c27.7,27.6,55.4,55.3,83,83c9.5,9.5,9.5,15.5,0,25
			C1075.9,296.1,1011.5,360.6,947,425c-10.1,10.1-15.7,10-25.8,0c-28.2-28.2-56.5-56.5-84.7-84.7c-8.6-8.7-8.7-15-0.2-23.6
			c65.2-65.2,130.3-130.4,195.5-195.5c2.1-2.1,4.7-3.8,7.1-5.7C1041.8,115.4,1044.7,115.4,1047.6,115.4z M947.4,408.6
			c56.4-56.3,113.1-113,168.7-168.6c-31.2-31.2-62.8-62.8-93.6-93.6C966.5,202.3,909.9,258.9,853.7,315
			C884.9,346.2,916.4,377.7,947.4,408.6z M898.1,376.7c-0.5-1.5-0.5-2.5-1-3c-7.3-7.4-14.5-14.8-22.1-21.8c-0.9-0.8-4.7,0-5.7,1.2
			c-1,1.2-0.9,4.7,0.2,5.8c6.6,7.2,13.6,14,20.7,20.7c1,1,3.6,1.2,5,0.7C896.4,379.8,897.2,377.8,898.1,376.7z M1084.1,187.9
			c4.8,0.1,9.5-4.2,9.8-9.2c0.3-5.2-4.2-10-9.4-10.1c-4.9-0.1-9.6,4.2-9.8,9.2C1074.3,182.8,1079,187.8,1084.1,187.9z M913.7,389.6
			c-3.5-2.1-5.5-4.3-7-4c-1.7,0.3-4.1,2.9-4.1,4.5c0,1.5,2.7,4,4.4,4.1C908.6,394.4,910.4,392,913.7,389.6z"/>
		<path id="XMLID_10891_" class="st1" d="M775.3,370.4c3.9,0,7.3,0,10.8,0c6.8,63.8,41.9,99.1,106,106c0.1,0.6,0.3,1.6,0.4,2.6
			c0.1,2.6,0,5.3,0,7.9C836.5,491.8,772.5,438.3,775.3,370.4z"/>
		<path id="XMLID_10890_" class="st1" d="M780.3,599.1c-4.1,0-7.7,0-11.2,0c-1.7-60.8-50.4-104.5-105.6-105.5c0-3.6,0-7.2,0-10.8
			C715.6,477.5,782.4,527.8,780.3,599.1z"/>
		<path id="XMLID_10889_" class="st1" d="M892,447.7c0,4.2,0,8,0,11.7c-46.5,3-91.7-41.1-88.9-88.9c3.7,0,7.5,0,11.7,0
			c0.7,21.3,8,39.7,23,54.6C852.7,439.9,870.8,447.1,892,447.7z"/>
		<path id="XMLID_10888_" class="st1" d="M752.2,599.1c-3.6,0-7.2,0-10.9,0c-4.9-46.6-30.5-72.5-77.7-77.9c0-3.3,0-7,0-10.8
			C708.8,506.1,756,551.7,752.2,599.1z"/>
		<path id="XMLID_10881_" class="st1" d="M725,599.1c-4,0-7.6,0-11.7,0c-3.3-29.7-19.6-46.5-49.9-49.8c-0.1-2.1-0.3-4.1-0.3-6.1
			c0-1.8,0.2-3.6,0.3-5.3C692,535.4,725.6,562,725,599.1z"/>
		<path id="XMLID_10880_" class="st1" d="M891.9,432.2c-38.3-0.3-63.1-33.8-61.2-61.7c3.7,0,7.5,0,11.5,0
			c3.2,29.7,19.6,46.3,49.6,49.7C891.9,424.2,891.9,428.1,891.9,432.2z"/>
	</g>
</g>
</svg>
