<?xml version="1.0" encoding="utf-8"?>
<!-- Generator: Adobe Illustrator 19.0.0, SVG Export Plug-In . SVG Version: 6.00 Build 0)  -->
<svg version="1.1" id="Layer_1" xmlns="http://www.w3.org/2000/svg" xmlns:xlink="http://www.w3.org/1999/xlink" x="0px" y="0px"
	 viewBox="0 0 1200 1200" style="enable-background:new 0 0 1200 1200;" xml:space="preserve">
<g id="XMLID_15932_">
	<g id="XMLID_15929_">
		<path id="XMLID_15930_" d="M508.8,433.9c195.3,116,390.7,231.9,588.9,349.6c-74,18.1-144.7,35.3-217.8,53.2
			c70.2,81.6,138.9,161.5,208.8,242.8c-21.5,18.2-42.7,36.3-64.7,55c-67.4-80.7-134.1-160.7-201.7-241.7
			c-30.8,63.5-60.9,125.5-92.2,189.9C655,865.4,580.8,650.8,506.6,436.1C507.3,435.4,508.1,434.6,508.8,433.9z"/>
	</g>
	<g id="XMLID_15923_">
		<path id="XMLID_15927_" d="M722.4,36.7c-2.4,25.6-4.7,50.5-7,76.3c-146.8-29-280.8-2-397.9,91.8
			c-117.3,93.9-172.8,218.8-176.5,370.6c-12.4-1.9-24.8-3.9-37.2-5.5c-12.6-1.6-25.3-2.7-37.8-4C58.7,244.3,368-38.5,722.4,36.7z"/>
		<path id="XMLID_15926_" d="M711,160.2c-2.3,25.1-4.6,50.3-6.9,75.7c-215.3-56.6-442.7,110.8-440.7,351.9
			c-25.3-2.9-50.8-5.9-76.4-8.8C187.8,295.2,455.8,99.5,711,160.2z"/>
		<path id="XMLID_15924_" d="M385.9,606.1c-23.2-3-45.2-5.8-67.2-8.7c-2.8-0.4-5.6-0.9-8.4-1.4c-8.2-191,177.9-361.8,389.3-313.4
			c-2.3,25.1-4.6,50.3-7.1,77c-79-17.9-151.5-5.5-215.1,45.4C413.8,456.1,385.6,523.9,385.9,606.1z"/>
	</g>
</g>
</svg>
