<?xml version="1.0" encoding="utf-8"?>
<!-- Generator: Adobe Illustrator 19.0.0, SVG Export Plug-In . SVG Version: 6.00 Build 0)  -->
<svg version="1.1" id="Layer_1" xmlns="http://www.w3.org/2000/svg" xmlns:xlink="http://www.w3.org/1999/xlink" x="0px" y="0px"
	 viewBox="1110 -60 150 150" style="enable-background:new 1110 -60 150 150;" xml:space="preserve">
<g id="XMLID_15932_">
	<g id="XMLID_15929_">
		<path id="XMLID_15930_" d="M1173.9-3.1c24.3,14.4,48.6,28.8,73.2,43.5c-9.2,2.3-18,4.4-27.1,6.6c8.7,10.1,17.3,20.1,26,30.2
			c-2.7,2.3-5.3,4.5-8,6.8c-8.4-10-16.7-20-25.1-30c-3.8,7.9-7.6,15.6-11.5,23.6c-9.3-27-18.6-53.7-27.8-80.4
			C1173.7-2.9,1173.8-3,1173.9-3.1z"/>
	</g>
	<g id="XMLID_15923_">
		<path id="XMLID_15927_" d="M1200.5-52.5c-0.3,3.2-0.6,6.3-0.9,9.5c-18.3-3.6-34.9-0.2-49.5,11.4c-14.6,11.7-21.5,27.2-21.9,46.1
			c-1.5-0.2-3.1-0.5-4.6-0.7c-1.6-0.2-3.1-0.3-4.7-0.5C1118-26.7,1156.4-61.8,1200.5-52.5z"/>
		<path id="XMLID_15926_" d="M1199.1-37.1c-0.3,3.1-0.6,6.3-0.9,9.4c-26.8-7-55,13.8-54.8,43.7c-3.1-0.4-6.3-0.7-9.5-1.1
			C1134-20.3,1167.3-44.7,1199.1-37.1z"/>
		<path id="XMLID_15924_" d="M1158.7,18.3c-2.9-0.4-5.6-0.7-8.4-1.1c-0.3,0-0.7-0.1-1-0.2c-1-23.7,22.1-45,48.4-39
			c-0.3,3.1-0.6,6.3-0.9,9.6c-9.8-2.2-18.8-0.7-26.7,5.6C1162.1-0.3,1158.6,8.1,1158.7,18.3z"/>
	</g>
</g>
</svg>
