<?xml version="1.0" encoding="utf-8"?>
<!-- Generator: Adobe Illustrator 19.0.0, SVG Export Plug-In . SVG Version: 6.00 Build 0)  -->
<svg version="1.1" id="Layer_1" xmlns="http://www.w3.org/2000/svg" xmlns:xlink="http://www.w3.org/1999/xlink" x="0px" y="0px"
	 viewBox="0 0 1200 1200" style="enable-background:new 0 0 1200 1200;" xml:space="preserve">
<style type="text/css">
	.st0{fill:#4DBEC0;}
</style>
<path id="XMLID_9178_" class="st0" d="M1138,585.1c0,63.9,1.3,127.9-0.9,191.7c-0.6,16.5-8.5,36.5-19.9,48.2
	c-90.1,92.3-181.3,183.6-273.6,273.6c-11.6,11.3-32.1,19-48.5,19.2c-129,1.6-258,1.8-387,0.2c-16.3-0.2-36.3-8.8-48-20.2
	c-92.4-90-183.6-181.2-274.1-273.2c-10.2-10.3-18.8-27.3-19.1-41.5c-2.9-127.7-3.5-255.5-5.6-383.2c-0.4-26.1,7.5-45.9,26.6-64.6
	c90.4-88.7,178.8-179.5,269.8-267.6c14.1-13.7,37.8-24.1,57.3-24.4c125.5-2.1,251-2,376.5,0.1c18.5,0.3,41,10.2,54.4,23.2
	c90,87.5,177.7,177.3,267.1,265.4c19,18.7,26.5,38.3,25.8,64.7c-1.6,62.7-0.5,125.5-0.5,188.3C1138.1,585.1,1138,585.1,1138,585.1z
	 M1107.7,584.9c-0.1,0-0.2,0-0.3,0c0-61.6,0.8-123.2-0.6-184.8c-0.3-13.7-4.9-30.9-14-40.1c-86.6-87.5-174.1-174.2-262.9-259.6
	C818,89.1,797.9,81,781.5,80.8c-119.7-1.6-239.4-1.6-359.1,0.2c-16.3,0.2-36.3,8.9-48.1,20.3c-85.8,83.5-170.5,168-253.8,254
	c-12,12.4-20,34-20.4,51.5c-2.2,119.7-2.5,239.4-1.5,359c0.1,15.3,7.8,34.1,18.4,45c84.3,86.6,169.6,172.2,256.1,256.6
	c11.7,11.4,31.8,19.5,48.1,19.8c120.8,1.7,241.7,1.9,362.6,0.3c16.4-0.2,36.6-8.2,48.3-19.6c85.8-83.4,170.6-168,253.9-253.9
	c12-12.4,20-33.7,20.7-51.3C1109.2,703.5,1107.7,644.2,1107.7,584.9z"/>
<g id="XMLID_9155_">
	<path id="XMLID_9161_" class="st0" d="M485.2,714h78.4V462.9l-74.4,23.3v-90.3l172-61.8V714h73.1v85H485.2V714z"/>
</g>
</svg>
