<?xml version="1.0" encoding="utf-8"?>
<!-- Generator: Adobe Illustrator 19.0.0, SVG Export Plug-In . SVG Version: 6.00 Build 0)  -->
<svg version="1.1" id="Layer_1" xmlns="http://www.w3.org/2000/svg" xmlns:xlink="http://www.w3.org/1999/xlink" x="0px" y="0px"
	 viewBox="1110 -60 150 150" style="enable-background:new 1110 -60 150 150;" xml:space="preserve">
<style type="text/css">
	.st0{fill:#4DBEC0;}
</style>
<g>
	<path id="XMLID_9178_" class="st0" d="M1257.8,16.7c0,8.6,0.2,17.2-0.1,25.8c-0.1,2.2-1.1,4.9-2.7,6.5
		c-12.1,12.4-24.4,24.7-36.8,36.8c-1.6,1.5-4.3,2.6-6.5,2.6c-17.3,0.2-34.7,0.2-52,0c-2.2,0-4.9-1.2-6.4-2.7
		c-12.4-12.1-24.7-24.3-36.8-36.7c-1.4-1.4-2.5-3.7-2.6-5.6c-0.4-17.2-0.5-34.3-0.8-51.5c-0.1-3.5,1-6.2,3.6-8.7
		c12.1-11.9,24-24.1,36.2-36c1.9-1.8,5.1-3.2,7.7-3.3c16.9-0.3,33.7-0.3,50.6,0c2.5,0,5.5,1.4,7.3,3.1
		c12.1,11.8,23.9,23.8,35.9,35.7c2.6,2.5,3.6,5.1,3.5,8.7C1257.7-0.2,1257.8,8.2,1257.8,16.7C1257.8,16.7,1257.8,16.7,1257.8,16.7z
		 M1253.7,16.6C1253.7,16.6,1253.7,16.6,1253.7,16.6c0-8.3,0.1-16.6-0.1-24.8c0-1.8-0.7-4.2-1.9-5.4c-11.6-11.8-23.4-23.4-35.3-34.9
		c-1.6-1.5-4.3-2.6-6.5-2.6c-16.1-0.2-32.2-0.2-48.2,0c-2.2,0-4.9,1.2-6.5,2.7c-11.5,11.2-22.9,22.6-34.1,34.1
		c-1.6,1.7-2.7,4.6-2.7,6.9c-0.3,16.1-0.3,32.2-0.2,48.2c0,2.1,1,4.6,2.5,6c11.3,11.6,22.8,23.1,34.4,34.5c1.6,1.5,4.3,2.6,6.5,2.7
		c16.2,0.2,32.5,0.3,48.7,0c2.2,0,4.9-1.1,6.5-2.6c11.5-11.2,22.9-22.6,34.1-34.1c1.6-1.7,2.7-4.5,2.8-6.9
		C1253.9,32.6,1253.7,24.6,1253.7,16.6z"/>
	<g id="XMLID_9155_">
		<path id="XMLID_9161_" class="st0" d="M1170.1,34h10.5V0.2l-10,3.1V-8.8l23.1-8.3v51h9.8v11.4h-33.5V34z"/>
	</g>
</g>
</svg>
