<?xml version="1.0" encoding="utf-8"?>
<!-- Generator: Adobe Illustrator 19.0.0, SVG Export Plug-In . SVG Version: 6.00 Build 0)  -->
<svg version="1.1" id="Layer_1" xmlns="http://www.w3.org/2000/svg" xmlns:xlink="http://www.w3.org/1999/xlink" x="0px" y="0px"
	 viewBox="0 0 1200 1200" style="enable-background:new 0 0 1200 1200;" xml:space="preserve">
<style type="text/css">
	.st0{fill:none;stroke:#4DBEC0;stroke-width:12;stroke-miterlimit:10;}
	.st1{fill:#4DBEC0;}
	.st2{fill:#FFFFFF;}
</style>
<path id="XMLID_10338_" class="st0" d="M408.5,671.2c-4.2,121,23.2,237.1,56.8,352c2.8,9.5,4.5,19.9,19.3,19.1
	c47.3-2.8,91.2,14.2,136.2,24.5c92.6,21.1,185.4,39.4,281.3,25c89.3-13.4,131.9-52.4,145.7-136.2c2-12.3,10.1-16.9,17.5-23.7
	c38.7-35.7,54.6-79.2,42.2-131c-3.6-14.9-2.8-25.8,5.5-39.7c28.5-47.9,30.8-97.4,0.4-145.8c-6.1-9.7-7.2-17.3-4-28.4
	c24.8-84.8-12.7-139.9-100.8-151.9c-41-5.6-82.1,2.1-123.2-4.6c-45.7-7.5-45.6-5.3-27.3-49.5c16.9-40.8,41.7-78.1,53.1-121.4
	c20.8-79-6.1-167.8-62.2-202.5c-58.7-36.4-110.2-9.5-113.3,59.1c-1,22.5,2.6,46.4-8.5,66.8c-36.1,66.3-76.7,130.3-134.4,179.7
	c-44,37.7-79.1,80.5-104.7,131.9c-9.2,18.4-17.8,40.8-38.2,46.8c-40.4,11.8-41.1,42.1-41.3,74.2
	C408.4,634.1,408.5,652.7,408.5,671.2z"/>
<path id="XMLID_10337_" class="st1" d="M243,541.1c0,1.4,0,2.7,0,4.1c-39,0-78.2-1.8-117.1,0.5c-37.6,2.2-57.2,24.3-59.3,62.1
	c-8.9,154,15.9,303.3,65,448.9c15.5,46,58.2,68.8,105.7,58c57.1-13.1,113.6-28.4,170.6-41.8c20.7-4.9,25.9-13.6,19.3-34.8
	c-47.8-153.5-74.7-309.7-56.2-471.1c2.4-21.4-6.5-26.7-26.1-26.1C311,541.9,277,541.1,243,541.1z"/>
<path id="XMLID_10335_" class="st2" d="M338,1048.1c-21.1-0.5-41-20.5-41.4-41.7c-0.4-22.2,21.1-43.6,43.2-43.1
	c21,0.5,41.2,20.9,41.6,41.8C381.8,1027.4,360.3,1048.6,338,1048.1z"/>
</svg>
