<?xml version="1.0" encoding="utf-8"?>
<!-- Generator: Adobe Illustrator 19.0.0, SVG Export Plug-In . SVG Version: 6.00 Build 0)  -->
<svg version="1.1" id="Layer_1" xmlns="http://www.w3.org/2000/svg" xmlns:xlink="http://www.w3.org/1999/xlink" x="0px" y="0px"
	 viewBox="0 0 1200 1200" style="enable-background:new 0 0 1200 1200;" xml:space="preserve">
<style type="text/css">
	.st0{fill:none;stroke:#4DBEC0;stroke-width:8;stroke-miterlimit:10;}
</style>
<path id="XMLID_9134_" class="st0" d="M61.1,621.8c0-80.7,0-161.3,0-242c0-21.6,9.6-37.1,27.5-43.2c6.4-2.2,13.6-2.8,20.4-2.8
	c72.2-0.2,144.5-0.2,216.7-0.1c31.5,0.1,47.9,16.6,47.9,47.9c0,160.7,0,321.4,0,482.1c0,31-16.2,47.8-47,47.9
	c-72.8,0.2-145.7,0.2-218.5,0c-30.8-0.1-47-16.9-47-47.9C61.1,783.1,61.1,702.4,61.1,621.8z M87.3,589.7c0,68.9,0,137.8,0,206.8
	c0,20.1,3.9,24,24.4,24c71.3,0,142.7,0,214,0c16.7,0,21.7-4.8,21.7-21.3c0-139.4,0-278.7,0-418.1c0-16.5-5-21.3-21.7-21.3
	c-71,0-142.1,0-213.1,0c-21.7,0-25.3,3.5-25.3,24.9C87.3,453.1,87.3,521.4,87.3,589.7z M217.4,893c14.9-0.1,26.9-12.1,26.9-27.1
	c0-14.8-12.3-27.1-27.1-27c-14.8,0.1-26.9,12.3-26.9,27.2C190.4,880.9,202.6,893,217.4,893z"/>
<path id="XMLID_9129_" class="st0" d="M816.9,589c0-80.6,0-161.2,0-241.7c0-44.9,19.1-67.7,63.6-74.5c15.5-2.4,31.3-3.8,47-3.7
	c46.9,0.1,93.9,0.4,140.7,2.2c13.5,0.5,27.5,4.8,40.2,10.1c25.6,10.7,35.7,32.3,35.7,59c0.1,110.3,0,220.5,0,330.8
	c0,52.7-1,105.4,0.3,158.1c1.3,50.9-28.6,74.4-67.2,83.2c-10.8,2.5-22.2,3.8-33.3,3.9c-44.8,0.3-89.7,0.7-134.5-0.4
	c-26.1-0.6-51-7.4-71-25.9c-15.4-14.2-21.6-32.4-21.6-53C816.9,754.4,816.9,671.7,816.9,589z M1123.5,839.1c0-169.8,0-339.2,0-508.7
	c-95.6,0-190.6,0-285.9,0c0,169.8,0,339.2,0,508.7C933.3,839.1,1028.2,839.1,1123.5,839.1z M981.4,872.8c-9.1,0-18.2-0.6-27.1,0.3
	c-3.6,0.3-9.4,3.3-10,5.9c-1.3,6.4,2.2,12.9,9.1,13.2c18.1,0.8,36.2,0.8,54.3,0c7-0.3,10.4-6.9,9.1-13.3c-0.6-2.6-6.4-5.5-10.1-5.8
	C998.4,872.2,989.9,872.7,981.4,872.8z"/>
<path id="XMLID_9124_" class="st0" d="M752.7,903.5H435.1c-2.4,0-4.3-1.9-4.3-4.3V254.4c0-2.4,1.9-4.3,4.3-4.3h317.6
	c2.4,0,4.3,1.9,4.3,4.3v644.8C757,901.6,755,903.5,752.7,903.5z M713.6,282.1H474.3c-2.4,0-4.3,1.9-4.3,4.3v534.2
	c0,2.4,1.9,4.3,4.3,4.3h239.3c2.4,0,4.3-1.9,4.3-4.3V286.4C717.9,284,716,282.1,713.6,282.1z M613.1,849.2c0-2.4-1.9-4.3-4.3-4.3
	c-10.1,0-19.8-0.1-29.6,0.2c-1.7,0.1-4.6,2.4-4.7,3.8c-0.3,10.2-0.2,20.3-0.2,30.3c0,2.4,1.9,4.3,4.3,4.3h30.2
	c2.4,0,4.3-1.9,4.3-4.3V849.2z"/>
</svg>
