<?xml version="1.0" encoding="utf-8"?>
<!-- Generator: Adobe Illustrator 19.0.0, SVG Export Plug-In . SVG Version: 6.00 Build 0)  -->
<svg version="1.1" id="Layer_1" xmlns="http://www.w3.org/2000/svg" xmlns:xlink="http://www.w3.org/1999/xlink" x="0px" y="0px"
	 viewBox="1110 -60 150 150" style="enable-background:new 1110 -60 150 150;" xml:space="preserve">
<style type="text/css">
	.st0{fill:none;stroke:#4DBEC0;stroke-width:1.5;stroke-miterlimit:10;}
</style>
<path id="XMLID_9134_" class="st0" d="M1114.1,11.6c0-10.6,0-21.1,0-31.7c0-2.8,1.3-4.9,3.6-5.7c0.8-0.3,1.8-0.4,2.7-0.4
	c9.5,0,18.9,0,28.4,0c4.1,0,6.3,2.2,6.3,6.3c0,21.1,0,42.1,0,63.2c0,4.1-2.1,6.3-6.2,6.3c-9.5,0-19.1,0-28.6,0c-4,0-6.2-2.2-6.2-6.3
	C1114.1,32.7,1114.1,22.1,1114.1,11.6z M1117.5,7.4c0,9,0,18.1,0,27.1c0,2.6,0.5,3.1,3.2,3.1c9.3,0,18.7,0,28,0
	c2.2,0,2.8-0.6,2.8-2.8c0-18.3,0-36.5,0-54.8c0-2.2-0.7-2.8-2.8-2.8c-9.3,0-18.6,0-27.9,0c-2.8,0-3.3,0.5-3.3,3.3
	C1117.5-10.5,1117.5-1.6,1117.5,7.4z M1134.5,47.1c2,0,3.5-1.6,3.5-3.6c0-1.9-1.6-3.6-3.6-3.5c-1.9,0-3.5,1.6-3.5,3.6
	C1131,45.5,1132.6,47.1,1134.5,47.1z"/>
<path id="XMLID_9129_" class="st0" d="M1213.1,8.2c0-10.6,0-21.1,0-31.7c0-5.9,2.5-8.9,8.3-9.8c2-0.3,4.1-0.5,6.2-0.5
	c6.1,0,12.3,0.1,18.4,0.3c1.8,0.1,3.6,0.6,5.3,1.3c3.4,1.4,4.7,4.2,4.7,7.7c0,14.5,0,28.9,0,43.3c0,6.9-0.1,13.8,0,20.7
	c0.2,6.7-3.7,9.7-8.8,10.9c-1.4,0.3-2.9,0.5-4.4,0.5c-5.9,0-11.8,0.1-17.6-0.1c-3.4-0.1-6.7-1-9.3-3.4c-2-1.9-2.8-4.2-2.8-6.9
	C1213.1,29.9,1213.1,19,1213.1,8.2z M1253.3,41c0-22.2,0-44.4,0-66.6c-12.5,0-25,0-37.5,0c0,22.2,0,44.4,0,66.6
	C1228.3,41,1240.8,41,1253.3,41z M1234.6,45.4c-1.2,0-2.4-0.1-3.6,0c-0.5,0-1.2,0.4-1.3,0.8c-0.2,0.8,0.3,1.7,1.2,1.7
	c2.4,0.1,4.7,0.1,7.1,0c0.9,0,1.4-0.9,1.2-1.7c-0.1-0.3-0.8-0.7-1.3-0.8C1236.9,45.3,1235.8,45.4,1234.6,45.4z"/>
<path id="XMLID_9124_" class="st0" d="M1204.7,48.5h-41.6c-0.3,0-0.6-0.2-0.6-0.6v-84.5c0-0.3,0.2-0.6,0.6-0.6h41.6
	c0.3,0,0.6,0.2,0.6,0.6v84.5C1205.2,48.2,1205,48.5,1204.7,48.5z M1199.6-32.9h-31.4c-0.3,0-0.6,0.2-0.6,0.6v70
	c0,0.3,0.2,0.6,0.6,0.6h31.4c0.3,0,0.6-0.2,0.6-0.6v-70C1200.1-32.7,1199.9-32.9,1199.6-32.9z M1186.4,41.4c0-0.3-0.2-0.6-0.6-0.6
	c-1.3,0-2.6,0-3.9,0c-0.2,0-0.6,0.3-0.6,0.5c0,1.3,0,2.7,0,4c0,0.3,0.2,0.6,0.6,0.6h4c0.3,0,0.6-0.2,0.6-0.6V41.4z"/>
</svg>
