<?xml version="1.0" encoding="utf-8"?>
<!-- Generator: Adobe Illustrator 19.0.0, SVG Export Plug-In . SVG Version: 6.00 Build 0)  -->
<svg version="1.1" id="Layer_1" xmlns="http://www.w3.org/2000/svg" xmlns:xlink="http://www.w3.org/1999/xlink" x="0px" y="0px"
	 viewBox="0 0 1200 1200" style="enable-background:new 0 0 1200 1200;" xml:space="preserve">
<style type="text/css">
	.st0{fill:#F2F2F2;}
	.st1{fill:#C0BFBF;}
	.st2{fill:#E5E5E5;}
</style>
<g id="XMLID_14892_">
	<polygon id="XMLID_14899_" class="st0" points="103.1,351.1 134.8,1046.6 803.2,1177.8 898.4,761.2 791.6,471.7 	"/>
	<polygon id="XMLID_14896_" class="st1" points="791.6,471.7 803.2,1177.8 1118.9,858.3 1108.1,184 	"/>
	<polygon id="XMLID_14893_" class="st2" points="103.1,351.1 791.6,471.7 1108.1,184 465.1,59 	"/>
</g>
<g id="XMLID_14898_">
	<path id="XMLID_15249_" d="M745,771.8c14.4,5.5,14.4,5.5,14.3,20.4c0,42.6,0,85.1,0,127.7c0,12.2-1,13-13.4,10.6
		c-14-2.7-28-5-41.9-8.3c-7.2-1.7-10.5-0.1-13.5,6.3c-41.2,86.8-112.3,131.4-214.5,128.6c-137.3-3.8-272.3-118.9-308.3-261
		c-42.3-166.8,62.9-308.5,225.2-300.7c104.4,5,190.1,58.1,257.8,151.3c4.3,6,7.7,8.1,14.6,8.2c41.4,0.6,81.6,44.6,79.8,86.5
		C744.7,751.6,745,761.8,745,771.8z M306.7,965.3c2.2-28.1,4.3-55.2,6.3-82.3c3.1-41.5,28.9-69,69.6-72.4c31.3-2.6,63.4,3.8,95,16.5
		c42.3,17,68.6,48.1,75.9,92.5c3.3,20.2,3.8,40.2,5.5,60.3c1,11.5,1.8,22.9,2.8,36C610.3,995.7,644.4,963,666,915
		c-23.1-4.5-44.8-8.7-66.5-12.9c-11.2-2.2-12.3-3.6-12.3-14.6c0-41.3,0-82.6,0-124c0-22.1-2-21.3,19.3-17.7c0.5,0.1,1-0.4,2.7-1
		c-1.1-30.8-4.1-63.5,24.5-80.2C574.6,572.7,471.5,515,370.1,521.7c-106.3,7.1-178.1,80.6-185.5,190.6
		C178,812.2,232.4,909.7,306.7,965.3z M713.6,766.4c0-14.3,1.1-28.1-0.3-42.1c-1.8-18.4-15.2-32.4-33.1-37.1
		c-18.8-4.9-35.4,0.9-38.4,16.4c-2.9,15.3-2.4,31.9-3.3,48.1C664.8,756.9,688.9,761.6,713.6,766.4z"/>
	<path id="XMLID_15167_" d="M521.8,712.3c0,47.9-39.9,79.9-87.8,70.6c-47.8-9.3-87.4-57.1-87.4-105.1c0.1-47.8,40-79.3,88.3-69.9
		C482.3,617.2,521.8,664.7,521.8,712.3z"/>
</g>
</svg>
