<?xml version="1.0" encoding="utf-8"?>
<!-- Generator: Adobe Illustrator 19.0.0, SVG Export Plug-In . SVG Version: 6.00 Build 0)  -->
<svg version="1.1" id="Layer_1" xmlns="http://www.w3.org/2000/svg" xmlns:xlink="http://www.w3.org/1999/xlink" x="0px" y="0px"
	 viewBox="0 0 1200 1200" style="enable-background:new 0 0 1200 1200;" xml:space="preserve">
<style type="text/css">
	.st0{fill:#FFFFFF;}
	.st1{fill:#F2F2F2;}
	.st2{fill:#C0BFBF;}
	.st3{fill:#E5E5E5;}
	.st4{fill:#010101;}
</style>
<g id="XMLID_2_">
	<path id="XMLID_10335_" class="st0" d="M337.6,1102.9c-23.6-0.5-45.9-22.9-46.3-46.6c-0.4-24.9,23.6-48.8,48.3-48.2
		c23.5,0.6,46.2,23.4,46.6,46.8C386.6,1079.7,362.5,1103.5,337.6,1102.9z"/>
	<g id="XMLID_1_">
		<polygon id="XMLID_14868_" class="st1" points="1127,331.7 1096,1011.2 443,1139.3 349.9,732.4 454.3,449.5 		"/>
		<polygon id="XMLID_12513_" class="st2" points="454.3,449.5 443,1139.3 134.5,827.2 145.1,168.4 		"/>
		<polygon id="XMLID_12508_" class="st3" points="1127,331.7 454.3,449.5 145.1,168.4 773.3,46.3 		"/>
	</g>
	<path id="XMLID_14876_" class="st4" d="M1072.4,689.3c-1,33.1-1.2,66-3.3,99.3c-0.5,8.6-4.8,19.6-10.7,26.6
		c-46.8,55.2-94.1,110-142,164.2c-6,6.8-16.4,12.5-24.7,13.9c-65,11.5-130.1,22.2-195,32.1c-8.2,1.2-18.2-1.5-23.9-6.5
		c-45.2-38.9-89.8-78.6-134-118.7c-5-4.5-9-12.6-9-19.9c0.4-65.8,2.1-131.9,2.9-197.8c0.2-13.5,4.5-24.4,14.4-35.6
		c46.9-53.4,92.8-107.6,140-160.7c7.3-8.2,19.4-15.6,29.3-17.4c63.3-11.5,126.5-21.8,189.7-31.1c9.3-1.4,20.5,1.9,27.1,7.5
		c44,37.8,86.9,77.1,130.6,115.3c9.3,8.1,12.8,17.6,12,31.4c-1.7,32.6-2.1,65-3.1,97.4C1072.5,689.2,1072.5,689.2,1072.4,689.3z
		 M1057.2,691.7c-0.1,0-0.1,0-0.2,0c0.9-31.9,2.3-63.8,2.5-95.5c0-7-2-15.6-6.4-19.6c-42.3-38.1-85.1-75.8-128.6-112.6
		c-5.8-4.9-15.8-7.4-24.1-6.2c-60.3,9.1-120.6,19-181,29.7c-8.2,1.5-18.4,7.6-24.5,14.5c-44.5,50.3-88.5,101-131.7,152.4
		c-6.2,7.4-10.6,19.2-11,28.3c-2.9,62.1-4.9,124-6.2,185.9c-0.2,7.9,3.4,17,8.6,21.8c41.2,37.8,82.9,75.1,125.2,111.6
		c5.7,4.9,15.7,7.5,23.9,6.3c60.9-9.1,121.8-19,182.7-29.8c8.3-1.5,18.6-7.3,24.6-14.1c44.5-50.2,88.5-101,131.8-152.3
		c6.3-7.4,10.6-19.1,11.2-28.3C1056.2,752.9,1056.3,722.3,1057.2,691.7z"/>
	<g id="XMLID_14873_">
		<path id="XMLID_14874_" class="st4" d="M755.8,828l39.6-7.1l3.8-129.5l-38,18.7l1.4-46.6l87.9-47.5l-5.7,196l36.9-6.6l-1.3,43.9
			l-125.9,22.6L755.8,828z"/>
	</g>
</g>
</svg>
