<?xml version="1.0" encoding="utf-8"?>
<!-- Generator: Adobe Illustrator 19.0.0, SVG Export Plug-In . SVG Version: 6.00 Build 0)  -->
<svg version="1.1" id="Layer_1" xmlns="http://www.w3.org/2000/svg" xmlns:xlink="http://www.w3.org/1999/xlink" x="0px" y="0px"
	 viewBox="0 0 1200 1200" style="enable-background:new 0 0 1200 1200;" xml:space="preserve">
<style type="text/css">
	.st0{fill:#F2F2F2;}
	.st1{fill:#C0BFBF;}
	.st2{fill:#E5E5E5;}
</style>
<g id="XMLID_1_">
	<g id="XMLID_10335_">
		<polygon id="XMLID_14868_" class="st0" points="1097.9,330.6 1065.6,1037.4 386.4,1170.6 289.7,747.4 398.2,453.1 		"/>
		<polygon id="XMLID_12513_" class="st1" points="398.2,453.1 386.4,1170.6 65.6,846 76.6,160.8 		"/>
		<polygon id="XMLID_12508_" class="st2" points="1097.9,330.6 398.2,453.1 76.6,160.8 730,33.8 		"/>
	</g>
	<g id="XMLID_10053_">
		<path id="XMLID_10054_" d="M667.6,931.9c0.3-8.2,0.4-16.2,0.8-24.3c1.4-29.5,3-59.1,4.3-88.6c0.2-4.3,1.4-6.1,6.2-7.3
			c34.2-8.4,68.3-17.1,102.5-25.8c1.8-0.5,3.7-0.8,6-1.2c-1.1,18.7-1.9,37.1-3.2,55.4c-1.3,19.1-3,38.2-4.4,57.3
			c-0.2,2.7-0.6,4.6-4.1,5.6c-34.9,9.5-69.8,19.2-104.7,28.7C670.1,931.9,669.4,931.8,667.6,931.9z"/>
		<path id="XMLID_10055_" d="M913.8,751.6c-1.3,12.9-2.5,25.7-4,38.4c-2.8,24-5.8,47.9-8.5,71.9c-0.5,4.3-2,6.5-6.7,7.8
			c-33.7,9.2-67.3,18.7-100.9,28.1c-1.6,0.5-3.3,0.8-5.6,1.4c0.9-15.4,1.7-30.3,2.8-45.2c1.7-22.7,3.5-45.4,5.5-68.2
			c0.2-1.7,2.2-4.4,3.8-4.9c37-9.8,74.2-19.4,111.3-29C912.1,751.7,912.7,751.8,913.8,751.6z"/>
		<path id="XMLID_10056_" d="M796.2,666.6c-0.5,7.2-0.9,13.8-1.4,20.4c-2.2,27.7-4.3,55.5-6.7,83.2c-0.2,1.8-1.8,4.8-3.3,5.2
			c-36.6,9.9-73.2,19.6-110.8,29.5c-0.1-4.9-0.4-8.9-0.2-12.9c1.1-30.3,2.4-60.5,3.4-90.8c0.2-5.2,2.4-7.5,7.8-8.8
			c35.4-8.2,70.8-16.7,106.1-25.1C792.3,667.1,793.6,667,796.2,666.6z"/>
		<path id="XMLID_10057_" d="M926.2,636.7c-0.8,9.2-1.4,17.9-2.4,26.5c-2.8,25-5.8,50.1-8.6,75.1c-0.3,2.8-1.1,4.5-4.4,5.3
			c-36.9,9.5-73.8,19.1-110.7,28.7c-0.7,0.2-1.4,0.2-3.2,0.4c0.5-9.1,0.9-17.9,1.6-26.6c1.8-24.2,3.7-48.3,5.6-72.5
			c0.7-9.4,0.7-9.6,10.1-11.7c35.7-8.1,71.3-16.2,107-24.2C922.5,637.3,923.8,637.2,926.2,636.7z"/>
		<path id="XMLID_10058_" d="M663.2,1062c0.4-18.1,0.5-35.9,1.2-53.7c0.8-20.9,2-41.8,3-62.7c0.1-2.8,0.6-5,4.4-6.1
			c35-9.3,69.9-18.8,104.9-28.2c0.4-0.1,0.7,0,1.9-0.1c-0.3,6.6-0.6,13.1-1,19.7c-1.9,29.2-3.7,58.4-5.8,87.6
			c-0.1,1.8-1.9,4.6-3.6,5.2c-34,12.7-68,25.2-102,37.8C665.4,1061.6,664.7,1061.7,663.2,1062z"/>
		<path id="XMLID_10059_" d="M779.3,1019c2.8-37.1,5.5-73.7,8.3-111.2c37-10.2,74-20.4,111.7-30.8c-1.3,14-2.2,26.9-3.6,39.8
			c-2,19.1-4.4,38.2-6.6,57.2c-0.3,2.9-0.7,5.4-4.5,6.7c-34.1,12.3-68.1,24.9-102.2,37.4C781.8,1018.4,781,1018.5,779.3,1019z"/>
		<path id="XMLID_10060_" d="M909.8,865.6c0.8-7.6,1.4-14.7,2.2-21.8c3.4-30.1,7-60.2,10.4-90.2c0.3-2.7,0.7-4.6,4.2-5.5
			c30.3-7.5,60.6-15.3,90.9-23c0.7-0.2,1.4-0.2,2.6-0.4c0,1.6,0.1,3-0.1,4.3c-6.2,35.3-12.4,70.6-18.5,106c-0.7,4-2.4,5.9-6.6,7
			c-26.7,7.3-53.3,14.9-79.9,22.4C913.7,864.8,912.2,865.1,909.8,865.6z"/>
		<path id="XMLID_10061_" d="M1037.9,559.4c-2.5,1.2-3.9,1.9-5.4,2.5c-27.1,10.5-54.1,21.1-81.3,31.3c-2.5,1-6,1-8.5,0.1
			c-21.2-7.1-42.3-14.5-63.4-21.9c-0.8-0.3-1.6-0.7-3.5-1.5c11.5-4.9,22.1-9.4,32.7-13.9c-0.1-0.4-0.2-0.7-0.3-1.1
			c-2.1,0.5-4.2,1-6.3,1.5c-14.4,3.6-28.8,7.3-43.3,10.8c-1.8,0.4-4.6,0.7-5.7-0.2C836.5,553,820,538.7,802.8,524
			c2.3-0.7,3.8-1.3,5.4-1.6c21.4-4.7,42.8-9.5,64.2-13.9c2.6-0.5,6,0.2,8.1,1.5c17.1,10.8,34,21.8,50.8,32.9
			c2.6,1.7,4.8,2.4,7.6,0.6c11.4-7.4,22.4-5.6,34.3-1.9c20.1,6.3,40.8,11.2,61.2,16.7C1035.2,558.5,1036,558.8,1037.9,559.4z"/>
		<path id="XMLID_10062_" d="M1038.9,569.4c-6.2,33.8-12.2,66.4-18.3,98.9c-0.3,1.3-1.4,3.2-2.6,3.7c-26.8,12-53.7,23.9-81.4,36.3
			c0.7-7.4,1.2-13.9,1.9-20.5c2.7-26.3,5.4-52.6,8.3-78.9c0.2-1.7,1.8-4.1,3.4-4.8c28.1-11.4,56.4-22.6,84.6-33.8
			C1035.3,570.1,1036.1,570.1,1038.9,569.4z"/>
		<path id="XMLID_10063_" d="M999.7,850.6c-0.9,5-1.7,9.1-2.4,13.2c-4.3,24.7-8.7,49.5-12.9,74.2c-0.7,4.4-2.9,6.4-7.2,8
			c-24.5,9.1-49,18.4-73.5,27.6c-1.8,0.7-3.6,1.3-6.2,2.2c0-2.1-0.2-3.8,0-5.4c3.5-30.8,7.1-61.6,10.8-92.4c0.2-1.5,1.8-3.8,3.2-4.2
			c27.9-7.7,55.9-15.1,83.9-22.6C996.3,850.9,997.3,850.9,999.7,850.6z"/>
		<path id="XMLID_10064_" d="M655.3,933c-5.7-4.6-10.4-8.4-15.1-12.2c-13.7-11.2-27.6-22.3-41.1-33.6c-1.7-1.5-3-4.4-3-6.7
			c1.1-35.5,2.6-71,3.9-106.5c0-0.9,0.3-1.8,0.6-3.2c7.4,4.8,14.5,9.4,21.6,14.1c11.8,7.8,23.5,15.8,35.4,23.5
			c2.7,1.8,3.8,3.7,3.6,7c-1.5,31.7-2.9,63.4-4.4,95.2C656.6,917.6,655.9,924.7,655.3,933z"/>
		<path id="XMLID_10065_" d="M595.6,895.3c7.5,6,14.4,11.5,21.2,17c11.8,9.6,23.6,19.1,35.2,28.9c1.8,1.5,3.4,4.4,3.2,6.6
			c-1.8,38.2-3.9,76.4-5.9,114.6c-0.1,1.2-0.4,2.4-0.8,4.3c-1.6-1.5-2.8-2.5-3.8-3.6c-17.1-18-34.2-35.9-51.2-54
			c-1.6-1.7-3.1-4.2-3.1-6.4c1.3-34.2,2.8-68.5,4.3-102.7C594.8,898.8,595.2,897.6,595.6,895.3z"/>
		<path id="XMLID_10066_" d="M662.4,801.5c-13.3-8.8-25.2-16.7-37.1-24.6c-6-4-11.7-8.6-17.9-12.3c-4.4-2.7-6.1-6-5.9-11
			c0.8-20.7,1.4-41.5,2.2-62.2c0.4-11.9,1.1-23.8,1.6-35.7c0-0.8,0.3-1.7,0.5-3c20.9,13.3,41.4,26.4,62.1,39.6
			C666.1,727.7,664.3,763.9,662.4,801.5z"/>
		<path id="XMLID_10067_" d="M539.2,610.7c7.4,4.6,14,8.7,20.6,12.9c11.6,7.2,23.2,14.4,34.6,21.8c1.7,1.1,3.4,3.5,3.3,5.3
			c-1.6,33.7-3.5,67.4-5.3,101.1c0,0.5-0.3,1-0.6,2.1c-1.5-0.8-2.9-1.5-4.2-2.3c-15.7-10.4-31.4-21-47.2-31.3
			c-2.9-1.9-4-3.9-3.9-7.4c0.8-31.5,1.3-63,2-94.6C538.6,616.1,538.9,613.9,539.2,610.7z"/>
		<path id="XMLID_10068_" d="M586.1,876.2c-3.3-2.7-6.3-5.1-9.4-7.6c-12.5-10.3-25-20.8-37.7-31c-3-2.5-4.6-5.1-4.6-9.1
			c0.5-26.5,0.8-52.9,1.3-79.4c0.1-6.6,0.4-13.3,0.6-20.7c1.9,1,3.3,1.6,4.5,2.4c15.9,10.5,31.9,20.9,47.7,31.6
			c1.9,1.3,3.7,4.1,3.6,6.3c-1.6,35.1-3.5,70.3-5.3,105.4C586.8,874.7,586.5,875.2,586.1,876.2z"/>
		<path id="XMLID_10069_" d="M737.1,619.2c6.2-1.7,11.8-3.4,17.4-4.8c31-7.8,62.1-15.6,93.1-23.3c1.9-0.5,4.4-0.9,5.9-0.1
			c21.4,11.1,42.6,22.3,65,34.1c-2.8,0.9-4.4,1.5-6,1.8c-36.5,8.4-73.1,16.9-109.6,25.2c-2.2,0.5-5.1,0.5-6.9-0.5
			c-19.2-10.2-38.2-20.7-57.3-31C738.4,620.4,738.1,620,737.1,619.2z"/>
		<path id="XMLID_10070_" d="M580.7,995.6c-10.4-11-20-21.2-29.5-31.3c-2.5-2.6-4.6-5.6-7.4-7.8c-9.7-7.6-12.9-17.1-12.1-29.5
			c1.6-25,1.7-50.1,2.4-75.2c0.1-2,0.4-3.9,0.7-6.8c2.8,2.3,5.2,4.1,7.5,6c13.7,11.2,27.4,22.4,41,33.8c1.7,1.4,3.4,4,3.3,6.1
			c-1.5,33.5-3.3,67.1-5.1,100.6C581.4,992.5,581.2,993.4,580.7,995.6z"/>
		<path id="XMLID_10071_" d="M527.2,711c-8.3-5.4-16.3-10.4-24.1-15.7c-6.6-4.4-13.4-8.8-19.5-13.8c-2.4-1.9-4.5-5.4-4.6-8.3
			c-0.6-25.7-0.7-51.4-0.8-77.1c0-7.3,0.1-14.6,0.2-22.8c2.9,1.5,5.1,2.4,7,3.6c12.9,8.2,25.6,16.5,38.6,24.6
			c4.7,2.9,6.7,6.3,6.5,12.1c-1.2,31.1-1.8,62.3-2.6,93.4C527.9,708.2,527.5,709.2,527.2,711z"/>
		<path id="XMLID_10072_" d="M709.7,616.9c-3.6,1-7.2,2.2-10.8,3.1c-26.6,6.7-53.2,13.3-79.8,19.8c-2,0.5-4.8,0.6-6.3-0.3
			c-19.8-12.6-39.4-25.4-59-38.1c-0.7-0.5-1.2-1.1-2.5-2.3c4-0.8,7.3-1.5,10.6-2.2c24.7-5.2,49.5-10.5,74.2-15.7
			c2.6-0.5,6-0.9,8.1,0.2c22,11,43.9,22.4,65.8,33.6C709.9,615.6,709.8,616.2,709.7,616.9z"/>
		<path id="XMLID_10073_" d="M591.5,494.2c21.3-0.9,41.3-1.8,61.4-2.7c17.2-0.7,34.4-1.7,51.6-2c3.2-0.1,7,1.2,9.3,3.2
			c11,9.8,21.6,20.1,32.4,30.3c1.1,1.1,2.1,2.3,3.8,4c-17.6,1.7-34.3,3.4-51,5c-19.8,1.9-39.6,3.9-59.5,5.6
			c-2.2,0.2-5.3-0.1-6.6-1.4C619.3,522.7,605.9,508.9,591.5,494.2z"/>
		<path id="XMLID_10074_" d="M670.5,571.8c17.6-6.6,33.8-12.7,50.1-18.8c11.1-4.2,22.1-8.4,33.3-12.4c2-0.7,4.6-1.2,6.5-0.7
			c23.7,5.8,47.3,11.8,70.9,17.8c0.9,0.2,1.8,0.5,3.4,1c-2,1.1-3.4,1.9-4.8,2.6c-26.7,12.4-53.4,24.8-80.2,37
			c-2.5,1.1-6.3,1.3-8.8,0.4c-21.8-8-43.5-16.3-65.3-24.5C674.2,573.6,673,573,670.5,571.8z"/>
		<path id="XMLID_10075_" d="M524.8,826c-7.3-6-14.1-11.5-20.8-17.1c-6.5-5.4-12.9-11-19.4-16.5c-4.1-3.4-6-7.5-5.9-13.1
			c0.3-28.4,0.2-56.8,0.3-85.3c0-1.1,0.2-2.1,0.4-4.1c6.7,4.2,12.8,7.9,18.8,11.8c8.8,5.8,17.6,11.6,26.2,17.6
			c1.6,1.2,3.3,3.5,3.3,5.4c-0.5,32.2-1.2,64.4-2,96.7C525.5,822.7,525.2,823.9,524.8,826z"/>
		<path id="XMLID_10076_" d="M784.5,656.3c-35.3,8-69.6,15.8-104,23.5c-1.4,0.3-3.2,0.3-4.3-0.3c-16.9-10.4-33.6-20.9-51.6-32
			c3.1-0.9,4.6-1.5,6.2-1.9c29.2-7.5,58.3-15,87.5-22.3c2.2-0.6,5.1-0.8,6.9,0.2c19.2,10.2,38.3,20.6,57.4,31
			C783.1,654.6,783.3,655.1,784.5,656.3z"/>
		<path id="XMLID_10077_" d="M479.6,800.7c7.6,5.9,14.8,11.3,21.8,16.9c7.1,5.6,14,11.4,20.9,17.2c1.3,1.1,2.7,3.1,2.7,4.7
			c-0.6,30.6-1.5,61.2-2.3,91.8c0,0.3-0.2,0.7-0.5,1.6c-1.3-1.2-2.5-2.1-3.6-3.3c-12.2-12.9-24.5-25.8-36.4-38.9
			c-1.9-2.1-3.3-5.5-3.3-8.4c-0.3-25.5-0.2-51-0.2-76.6C478.7,804.4,479.2,803,479.6,800.7z"/>
		<path id="XMLID_10078_" d="M863.2,494.8c-13.4,2.4-25.3,4.6-37.2,6.7c-9.7,1.8-19.4,3.6-29.2,5.2c-1.7,0.3-4.2,0.3-5.1-0.6
			c-12.5-12.6-24.8-25.3-37.7-38.5c2.1-0.7,3.4-1.2,4.8-1.5c20.6-4.5,41.3-9,61.9-13.6c3.4-0.8,5.5-0.2,7.6,2.4
			c10.2,12,20.6,23.9,30.9,35.8C860.2,491.8,861.3,492.9,863.2,494.8z"/>
		<path id="XMLID_10079_" d="M495,563.5c23-4.1,46.1-7.4,68.9-12.6c14.2-3.2,26-1.7,37.4,5.9c9,6,18.9,10.8,28.4,16.1
			c-0.1,0.5-0.3,0.9-0.4,1.4c-20.9,4.5-41.9,8.9-62.8,13.4c-6.3,1.3-12.7,2.3-19,3.9c-5,1.3-9.1,0.8-13.3-1.9
			c-13.1-8.4-26.4-16.5-39.7-24.8C494.7,564.4,494.9,563.9,495,563.5z"/>
	</g>
</g>
</svg>
