<?xml version="1.0" encoding="utf-8"?>
<!-- Generator: Adobe Illustrator 19.0.0, SVG Export Plug-In . SVG Version: 6.00 Build 0)  -->
<svg version="1.1" id="Layer_1" xmlns="http://www.w3.org/2000/svg" xmlns:xlink="http://www.w3.org/1999/xlink" x="0px" y="0px"
	 viewBox="0 0 1200 1200" style="enable-background:new 0 0 1200 1200;" xml:space="preserve">
<style type="text/css">
	.st0{fill:#F2F2F2;}
	.st1{fill:#C0BFBF;}
	.st2{fill:#E5E5E5;}
	.st3{fill:none;stroke:#000000;stroke-width:6;stroke-miterlimit:10;}
	.st4{fill:none;stroke:#000000;stroke-width:4;stroke-miterlimit:10;}
</style>
<g id="XMLID_14892_">
	<polygon id="XMLID_14899_" class="st0" points="133.7,334.1 165.3,1026.1 830.3,1156.5 925,742.1 818.7,454.1 	"/>
	<polygon id="XMLID_14896_" class="st1" points="818.7,454.1 830.3,1156.5 1144.4,838.7 1133.6,167.8 	"/>
	<polygon id="XMLID_14893_" class="st2" points="133.7,334.1 818.7,454.1 1133.6,167.8 493.9,43.5 	"/>
</g>
<path id="XMLID_14914_" class="st3" d="M781.3,846.5c-14.4,122.2-100.9,196.9-228,196.7c-2.1,0-95.7-16.9-98-17.7
	c-130.4-46.2-230-154.4-262.5-285c-0.5-2.2-7.1-94.1-6.8-96.3c14.4-122.2,100.9-196.9,228-196.7c2.1,0,95.7,16.9,98,17.7
	c130.4,46.2,230,154.4,262.5,285C775,752.4,781.6,844.3,781.3,846.5z M423.8,755.8c1.4,37.9,12.8,76.1,26.2,114.4
	c1.1,3.1,1.9,6.6,6.6,7.1c15.1,1.9,29.6,9.8,44.3,15.6c30.2,12,60.5,23.2,90.9,24.2c28.4,0.9,41.2-8.9,43.7-34.5
	c0.4-3.8,2.9-4.7,5.1-6.5c11.6-9,15.8-21.8,10.6-38.9c-1.5-4.9-1.5-8.3,0.9-12.2c8.1-13.4,7.7-29-3.1-46c-2.2-3.4-2.7-5.9-1.9-9.2
	c6-25.3-7.2-44.9-35.8-53.8c-13.3-4.2-26.3-4.1-39.7-8.6c-14.9-5-14.8-4.3-9.9-17.2c4.5-11.9,11.6-22.2,14.3-35.2
	c4.9-23.7-5.8-53.3-24.5-67.5c-19.7-14.9-35.6-9.4-35.1,12.1c0.2,7,1.9,14.8-1.2,20.6C505,639,493.4,656.8,476,669.1
	c-13.3,9.3-23.6,20.8-30.7,35.6c-2.5,5.3-4.8,11.8-11.2,12.5c-12.7,1.4-12.2,10.9-11.6,21C423,744.1,423.4,749.9,423.8,755.8z
	 M367.7,705.1c0,0.4,0.1,0.9,0.1,1.3c-12.5-2.3-25.2-5.1-37.6-6.6c-12-1.5-17.8,4.4-17.7,16.1c0.6,48.1,11.9,96.6,31,145.4
	c6,15.4,20.2,25.1,35.3,24.4c18-0.8,35.9-2.4,53.9-3.3c6.5-0.3,8-2.8,5.4-9.9c-18.8-51.2-31-102-28.7-151.9c0.3-6.6-2.7-8.8-9-9.7
	C389.6,709.3,378.6,707.1,367.7,705.1z"/>
<path id="XMLID_14901_" class="st4" d="M388.8,865.6c-6.7-1.9-13-9.8-13.1-16.5c-0.1-7.1,6.7-12.1,13.7-10.1
	c6.6,1.9,13,9.9,13.2,16.6C402.6,862.6,395.8,867.6,388.8,865.6z"/>
</svg>
