<?xml version="1.0" encoding="utf-8"?>
<!-- Generator: Adobe Illustrator 19.1.0, SVG Export Plug-In . SVG Version: 6.00 Build 0)  -->
<svg version="1.1" id="Layer_1" xmlns="http://www.w3.org/2000/svg" xmlns:xlink="http://www.w3.org/1999/xlink" x="0px" y="0px"
	 viewBox="-180 272 250 250" style="enable-background:new -180 272 250 250;" xml:space="preserve">
<style type="text/css">
	.st0{fill:#F2F2F2;}
	.st1{fill:#C0BFBF;}
	.st2{fill:#E5E5E5;}
	.st3{fill:#010101;}
</style>
<g id="XMLID_1_">
	<polygon id="XMLID_14868_" class="st0" points="56.5,334.8 53.6,488.6 -93.3,521.5 -116.8,430.1 -94.8,365.5 	"/>
	<polygon id="XMLID_12513_" class="st1" points="-94.8,365.5 -93.3,521.5 -164.8,452.8 -166.4,303.9 	"/>
	<polygon id="XMLID_12508_" class="st2" points="56.5,334.8 -94.8,365.5 -166.4,303.9 -25.3,272.5 	"/>
</g>
<path id="XMLID_14876_" class="st3" d="M46.3,416c0,7.5,0.1,14.9-0.1,22.5c-0.1,1.9-1,4.5-2.3,6.1c-10.2,12.8-20.6,25.4-31.1,38
	c-1.3,1.6-3.6,2.9-5.5,3.3c-14.6,3-29.3,5.8-43.9,8.4c-1.8,0.3-4.1-0.2-5.4-1.3c-10.5-8.5-20.8-17.2-31-26c-1.2-1-2.1-2.8-2.2-4.4
	c-0.3-14.9-0.3-29.8-0.5-44.7c0-3.1,0.9-5.5,3-8.1c10.3-12.4,20.3-24.9,30.7-37.2c1.6-1.9,4.3-3.6,6.5-4.1c14.2-3,28.5-5.7,42.7-8.2
	c2.1-0.4,4.6,0.3,6.2,1.5c10.2,8.3,20.1,16.9,30.2,25.3c2.2,1.8,3,3.9,2.9,7C46.3,401.3,46.4,408.6,46.3,416L46.3,416z M42.9,416.6
	L42.9,416.6c0-7.2,0.1-14.4-0.1-21.6c0-1.6-0.5-3.5-1.6-4.4c-9.8-8.4-19.7-16.6-29.7-24.7c-1.3-1.1-3.6-1.6-5.5-1.3
	c-13.6,2.4-27.1,5-40.7,7.8c-1.8,0.4-4.1,1.8-5.4,3.4c-9.8,11.6-19.4,23.4-28.8,35.2c-1.4,1.7-2.3,4.4-2.3,6.5
	c-0.3,14.1-0.4,28.1-0.3,42c0,1.8,0.9,3.8,2.1,4.9c9.5,8.3,19.2,16.5,29,24.5c1.3,1.1,3.6,1.6,5.4,1.3c13.7-2.4,27.4-5,41.1-7.8
	c1.9-0.4,4.2-1.8,5.5-3.3c9.8-11.6,19.4-23.4,28.9-35.2c1.4-1.7,2.3-4.4,2.4-6.5C43,430.4,42.9,423.5,42.9,416.6z"/>
<g id="XMLID_14873_">
	<path id="XMLID_14874_" class="st3" d="M-24.4,449.2l8.9-1.8l0.1-29.3l-8.5,4.5v-10.5l19.6-11.3l-0.1,44.3l8.3-1.7v9.9l-28.3,5.9
		V449.2z"/>
</g>
</svg>
