<?xml version="1.0" encoding="utf-8"?>
<!-- Generator: Adobe Illustrator 19.0.0, SVG Export Plug-In . SVG Version: 6.00 Build 0)  -->
<svg version="1.1" id="Layer_1" xmlns="http://www.w3.org/2000/svg" xmlns:xlink="http://www.w3.org/1999/xlink" x="0px" y="0px"
	 viewBox="0 0 1200 1200" style="enable-background:new 0 0 1200 1200;" xml:space="preserve">
<style type="text/css">
	.st0{fill:#F2F2F2;}
	.st1{fill:#C0BFBF;}
	.st2{fill:#E5E5E5;}
</style>
<g id="XMLID_1_">
	<g id="XMLID_10335_">
		<polygon id="XMLID_14868_" class="st0" points="1094.9,326.8 1062.8,1029.2 387.9,1161.6 291.8,741 399.6,448.6 		"/>
		<polygon id="XMLID_12513_" class="st1" points="399.6,448.6 387.9,1161.6 69.1,839 80.1,158.1 		"/>
		<polygon id="XMLID_12508_" class="st2" points="1094.9,326.8 399.6,448.6 80.1,158.1 729.3,31.9 		"/>
	</g>
	<g id="XMLID_10385_">
		<path id="XMLID_14891_" d="M820,694.7c-12.8,15.5-25.6,30.9-41.3,49.8c1.9-16.4-5.8-22.9-15.9-27.5c-2.5-2-4.7-4.2-4.5-8
			c32.4-34,65-67.7,96.9-102.2c7.4-8,11.3-6.9,17.5-0.9c5.6,5.4,11.2,8.5,2.9,18.3C856.4,647.2,838.5,671.2,820,694.7z"/>
		<path id="XMLID_14890_" d="M758.5,709.1c-0.3,3.7,2,5.9,4.5,8c-20.8,5-25,9.7-27,30.5c-9.1-2.2-12.7-11.9-21.2-14.4
			c-17.8-19.8-38.6-36.4-59-53.4c-8.9-7.4-11.1-13.4-1.1-23.3c6.2-6.1,10.2-6.5,16.5-2.1c23.3,16.2,46.9,32,70.6,47.8
			C746.7,705.4,751,710.7,758.5,709.1z"/>
		<path id="XMLID_14889_" d="M601.1,831.7c7.8,5.8,12,13.4,5.3,23.1c-6.8,9.8-15.5,9-23.9,3.5C576.4,840.3,581.7,832.8,601.1,831.7z
			"/>
		<path id="XMLID_14888_" d="M661.7,571.9c9.7-0.7,15.5,3.5,15.7,12.8c0.2,9.3-5.3,15.1-14.8,16c-8.8,0.9-14.3-3.7-14.7-12.1
			C647.3,579.5,652.5,573.6,661.7,571.9z"/>
		<path id="XMLID_14887_" d="M849.8,584.5c-9.5,0.6-15.4-3.5-15.5-12.9c-0.1-9.2,5.3-15.1,14.8-16c8.9-0.8,14.2,3.7,14.7,12.2
			C864.4,576.9,859.1,582.8,849.8,584.5z"/>
		<path id="XMLID_14886_" d="M608.9,658.9c-0.3,9.4-5.1,15.6-14.5,16.5c-8.5,0.8-13.9-3.6-14.4-12.4c-0.5-9.4,4.4-15.8,13.6-17
			C602.9,644.6,608.2,649.5,608.9,658.9z"/>
		<path id="XMLID_14885_" d="M931.8,631.1c-0.5,9.4-5.5,15.3-14.9,16c-8.6,0.6-13.8-4-14.1-12.8c-0.3-9.4,4.8-15.7,14-16.7
			C926.2,616.5,931.3,621.6,931.8,631.1z"/>
		<path id="XMLID_14884_" d="M770.3,552.4c-0.8,9.4-6.1,15.3-15.2,15.6c-9.1,0.4-14.1-5.1-13.6-14.5c0.5-8.8,5.6-13.9,14.4-14.7
			C765.4,538,769.9,543.1,770.3,552.4z"/>
		<path id="XMLID_14883_" d="M570.1,770.4c-10,0.2-15.2-4.1-15.1-13.6c0.1-8.8,5-14.1,13.8-15.2c9.4-1.1,15.1,3.6,15.4,12.7
			C584.4,763.6,578.7,769,570.1,770.4z"/>
		<polygon id="XMLID_14881_" points="541.2,858.8 541.9,859 541.4,858.6 		"/>
		<path id="XMLID_12515_" d="M757.7,756.5c-10.2-0.7-16.3-5.3-16-15.9c0.3-10.5,6.8-16.8,16.8-17.5c10.1-0.6,16.3,5.5,16,15.6
			C774.2,748.8,767.7,754.8,757.7,756.5z"/>
		<path id="XMLID_12514_" d="M932.2,816.8c-0.7,9.9-5.6,16-14.7,16.9c-9.8,0.9-15.5-4.6-15.1-14.4c0.3-9.1,6-15,15.2-15.6
			C926.8,803.1,931.4,808.5,932.2,816.8z"/>
		<path id="XMLID_12512_" d="M663.2,924.1c-9.5,0.4-15.3-3.9-15.5-12.9c-0.3-9.7,5.6-16.1,15.4-16.8c9.1-0.6,14.7,4.4,14.6,13.6
			C677.6,917.1,672.1,922.5,663.2,924.1z"/>
		<path id="XMLID_10530_" d="M848.7,907.9c-9.3-0.2-14.7-4.7-14.7-13.9c0.1-9.2,5.8-15.1,14.9-15.9c9.8-0.9,15.6,4.6,15.1,14.4
			C863.6,901.5,857.6,906.7,848.7,907.9z"/>
		<path id="XMLID_10389_" d="M941.8,708.4c8.9-0.3,14.8,3.4,15.1,13c0.3,9.4-4.7,15.4-14.1,16.6c-9.4,1.2-15.1-3.6-15.5-12.8
			C927,716.1,932.2,710.3,941.8,708.4z"/>
		<path id="XMLID_10388_" d="M754.9,941c-9.6-0.5-14.4-5.6-13.8-14.9c0.6-9.5,6.8-14.9,15.8-15.1c9.2-0.1,14.2,5.4,13.6,14.8
			C769.9,935.4,763.9,940.1,754.9,941z"/>
		<path id="XMLID_10387_" d="M935.8,504.4c0,0-146.9-124.1-341.9,14.2c0,0-151.8,108-117,313.9l19.5,8c0,0-15.3-211.8,115.6-304
			c0,0,150.4-127.4,303.7-12.6l-12.5,12.2l50.1,17.9l-5.6-60.8L935.8,504.4z"/>
		<path id="XMLID_10386_" d="M577.6,973.1c0,0,154.5,114.8,342.3-33.8c0,0,146.2-116,99.5-318.6l-20-6.9c0,0,27.5,209.5-98.6,308.7
			c0,0-143.7,135.2-304,30l11.9-12.9l-51.3-14.9l9.1,60.1L577.6,973.1z"/>
	</g>
</g>
</svg>
