<?xml version="1.0" encoding="utf-8"?>
<!-- Generator: Adobe Illustrator 19.0.0, SVG Export Plug-In . SVG Version: 6.00 Build 0)  -->
<svg version="1.1" id="Layer_1" xmlns="http://www.w3.org/2000/svg" xmlns:xlink="http://www.w3.org/1999/xlink" x="0px" y="0px"
	 viewBox="0 0 1200 1200" style="enable-background:new 0 0 1200 1200;" xml:space="preserve">
<style type="text/css">
	.st0{fill:#F2F2F2;}
	.st1{fill:#C0BFBF;}
	.st2{fill:#E5E5E5;}
	.st3{fill:none;stroke:#000000;stroke-width:6;stroke-miterlimit:10;}
</style>
<g id="XMLID_14892_">
	<polygon id="XMLID_14899_" class="st0" points="89.2,328.4 121.1,1027.8 793.3,1159.6 889,740.8 781.6,449.6 	"/>
	<polygon id="XMLID_14896_" class="st1" points="781.6,449.6 793.3,1159.6 1110.8,838.4 1099.8,160.3 	"/>
	<polygon id="XMLID_14893_" class="st2" points="89.2,328.4 781.6,449.6 1099.8,160.3 453.3,34.6 	"/>
</g>
<g id="XMLID_66_">
	<path id="XMLID_10369_" class="st3" d="M172.1,674.6c0-4.8,0-9.5,0-14.3c2.5-13.3,10.2-22.6,18.6-31.4c3.8-4,7.9-7.7,10.7-12.4
		c3.8-6.4,8.3-13,9.3-20.6c1.7-13,1-26.9,1.1-40.5c0.2-24.7,14.5-41.2,38.1-43.3c9.5-0.9,19-1.9,28.6-2.6
		c12.2-0.9,21.8-5.8,29.1-14.4c6.2-7.3,12.2-14.8,18.8-21.7c13.2-13.8,30.7-17.3,51.7-8.3c12.9,5.5,25.4,13.3,38,20.3
		c11.4,6.3,22.7,9,34.1,8c10.2-1,20.3-2.1,30.5-2.9c23.3-1.9,46,10.7,60.6,33.8c5.9,9.5,11.8,18.9,17.6,28.5
		c7.4,12.3,17.1,21.7,29.5,28.3c10.4,5.6,20.8,11.1,31,17.2c19.2,11.6,31.7,28.2,34.5,49.2c1.8,13.6,1.1,27,1,40.4
		c-0.1,12.9,3.6,25.2,11.3,37.3c6.1,9.6,12.1,19.2,18.1,28.9c14,22.9,14,46.9,0,63.3c-6.1,7.2-12.4,14.2-18.7,21.2
		c-7.3,8.2-10.9,18.5-10.7,30.9c0.1,10.6,0.1,21.1,0,31.7c-0.1,23.3-14,39.6-36,42.2c-9.9,1.1-20,2.1-30,2.8
		c-12.7,0.9-22.7,6-30.3,15.1c-5.9,7.1-12,14.2-18.2,21c-13.7,15.2-36.7,17.3-58.6,5.4c-10.4-5.6-20.7-11.5-31-17.3
		c-11.5-6.5-23-9.2-34.5-8c-9.7,1-19.4,1.9-29.1,2.8c-24.4,2.2-47.2-10.5-62.2-34.6c-6-9.6-11.9-19.3-17.9-29
		c-7.1-11.5-16.5-20.3-28-26.7c-9.7-5.3-19.4-10.7-29.1-16c-14.1-7.8-25.4-18.7-31.6-33.6c-3.4-8.1-5.4-17-6.2-25.3
		c-1-11-0.3-21.8-0.2-32.7c0.1-12.5-3.8-24.4-10.9-36.3C190.1,712.7,175.7,695.6,172.1,674.6z"/>
	<path id="XMLID_10368_" class="st3" d="M252.4,686c0,100,81,199.7,181,223c99.7,23.2,181.1-39.3,181.2-139.2
		c0.1-99.8-80.9-199.5-181-223C334,523.5,252.4,586.1,252.4,686z"/>
	<path id="XMLID_10367_" d="M537.3,672.5c-3.9-3.6-7.5-2.4-10.5-0.2c-26.7,19.8-53.6,39.3-80,59.6c-12.1,9.3-23.2,19.9-34.9,30.1
		c-1.2-1.3-2.4-2.7-3.7-4c-22.5-23.5-45.1-47.1-67.7-70.6c-3.5-3.6-7.8-6.8-11.5-4.2c-3.9,2.8-0.1,7.1,2.1,10.7
		c20.9,34.3,44.2,67.1,68.5,99.4c0.9,1.2,1.8,2.5,2.9,3.6c8.2,8.9,17.1,9.6,25.4,2.6c40-33.7,74.6-72.8,108.3-112.9
		c0.9-1,1.7-2.2,2.2-3.5C539.7,679.7,541.1,676.1,537.3,672.5z"/>
</g>
</svg>
