<?xml version="1.0" encoding="utf-8"?>
<!-- Generator: Adobe Illustrator 19.0.0, SVG Export Plug-In . SVG Version: 6.00 Build 0)  -->
<svg version="1.1" id="Layer_1" xmlns="http://www.w3.org/2000/svg" xmlns:xlink="http://www.w3.org/1999/xlink" x="0px" y="0px"
	 viewBox="0 0 1200 1200" style="enable-background:new 0 0 1200 1200;" xml:space="preserve">
<style type="text/css">
	.st0{fill:#F2F2F2;}
	.st1{fill:#C0BFBF;}
	.st2{fill:#E5E5E5;}
</style>
<g id="XMLID_1_">
	<g id="XMLID_10335_">
		<polygon id="XMLID_14868_" class="st0" points="1109.2,328.8 1077,1034.6 398.8,1167.6 302.1,745 410.5,451.1 		"/>
		<polygon id="XMLID_12513_" class="st1" points="410.5,451.1 398.8,1167.6 78.4,843.5 89.4,159.2 		"/>
		<polygon id="XMLID_12508_" class="st2" points="1109.2,328.8 410.5,451.1 89.4,159.2 741.8,32.4 		"/>
	</g>
	<g id="XMLID_9429_">
		<path id="XMLID_12511_" d="M599.4,747.7c38.8-10.1,77.7,10,80,57.1c2,39.3-32.5,85.6-72.6,98.2c-47.2,14.9-83.1-11.2-86.3-51
			C517,806.4,554.2,758.8,599.4,747.7z"/>
		<polygon id="XMLID_10390_" points="624.2,730.9 578.5,741.2 583.8,465.6 629.5,455.2 		"/>
		<polygon id="XMLID_10384_" points="811.5,550.1 765.8,560.5 768.1,440.2 813.8,429.8 		"/>
		<polygon id="XMLID_10383_" points="617.8,1066.4 572.2,1076.8 575.2,914.8 620.9,904.4 		"/>
		<path id="XMLID_10382_" d="M955,689c38.8-11.5,77.7,7.3,80.1,54.3c2,39.2-32.6,86.6-72.6,100.6c-47.2,16.5-83.2-8.3-86.3-48
			C872.5,750.6,909.7,701.7,955,689z"/>
		<polygon id="XMLID_10381_" points="979.7,673.8 934.1,680.9 939.3,405.3 985,398.1 		"/>
		<polygon id="XMLID_10380_" points="973.3,1014 927.6,1022.8 930.7,860.8 976.3,852 		"/>
		<path id="XMLID_10338_" d="M784.8,567.4c38.8-10.1,77.7,10,80,57.1c2,39.3-32.5,85.6-72.6,98.2c-47.2,14.9-83.1-11.2-86.3-51
			C702.4,626.1,739.5,578.5,784.8,567.4z"/>
		<polygon id="XMLID_10337_" points="800.2,1047 754.5,1057.3 760.5,741.9 806.2,731.5 		"/>
	</g>
</g>
</svg>
