<?xml version="1.0" encoding="utf-8"?>
<!-- Generator: Adobe Illustrator 19.0.0, SVG Export Plug-In . SVG Version: 6.00 Build 0)  -->
<svg version="1.1" id="Layer_1" xmlns="http://www.w3.org/2000/svg" xmlns:xlink="http://www.w3.org/1999/xlink" x="0px" y="0px"
	 viewBox="0 0 1200 1200" style="enable-background:new 0 0 1200 1200;" xml:space="preserve">
<style type="text/css">
	.st0{fill:#F2F2F2;}
	.st1{fill:#C0BFBF;}
	.st2{fill:#E5E5E5;}
</style>
<g id="XMLID_27_">
	<g id="XMLID_14892_">
		<polygon id="XMLID_14899_" class="st0" points="103.4,328.3 135.9,1040.8 820.6,1175.2 918.2,748.4 808.8,451.8 		"/>
		<polygon id="XMLID_14896_" class="st1" points="808.8,451.8 820.6,1175.2 1144.1,847.9 1133,157.1 		"/>
		<polygon id="XMLID_14893_" class="st2" points="103.4,328.3 808.8,451.8 1133,157.1 474.2,29 		"/>
	</g>
	<path id="XMLID_16144_" d="M791.7,799.3c-0.6-6.3-3.7-9.8-10-11c-8.2-1.7-16.5-3.2-25.6-5c-0.1-2.9-0.2-5.2-0.2-7.5
		c-1.7-50.7-3.3-101.4-5-152.1c-0.4-11.5-4.9-16.7-16.5-19c-189.5-36.7-379-73.5-568.5-110.2c-12.5-2.4-16.9,1.3-16.5,13.6
		c3,90.3,6,180.6,8.9,270.9c0.5,14.2,0.9,28.5,1.4,42.7c0.5,13.2,8.2,22.1,21.3,24.6c68.8,13.3,137.6,26.7,206.4,40
		c2.2,0.4,4.5,0.9,7.1,1.4c-1.5,14.8-3,28.7-4.3,42.7c-0.3,2.9-1.5,4-4.6,3.8c-5.4-0.3-10.8-0.3-16.1-0.1c-1.2,0-2.1,1.3-3.1,2
		c1.3,0.9,2.5,2.1,3.8,2.7c1.1,0.5,2.3,0.5,3.5,0.8c56.4,10.9,112.8,21.9,169.3,32.8c1.2,0.2,2.5,0.8,3.5,0.6
		c1.4-0.3,2.5-1.3,3.8-1.9c-1.1-1.3-2.2-3.3-3.5-3.8c-5.4-2.1-10.9-3.6-16.4-5.6c-1.4-0.5-3.7-2.1-3.9-3.2
		c-2.7-15.4-5.2-30.8-7.7-46.3c17.6,3.4,34.6,6.7,52,10.1c0.5,14.6,0.9,28.8,1.4,43c0.4,10.4,2.8,13.3,13.1,15.3
		c67,13,134.1,26,201.1,39c10.9,2.1,12.6,0.7,12.3-10c-2.3-68.7-4.5-137.3-6.8-206C791.8,802,791.8,800.6,791.7,799.3z M567.4,823.7
		c0.8,18.4,1.3,36.7,1.9,55.5c-129.6-25.1-259-50.2-388.9-75.4c-3.1-93.1-6.2-186.4-9.3-280.2c186.3,36.1,372.2,72.1,558.4,108.2
		c1.6,48.9,3.2,97.6,4.9,147.2c-1.9-0.4-4-0.8-6-1.2c-34-6.6-68-13.2-102-19.8c-9-1.7-11.8,0.7-11.5,9.6c0.6,19.1,1.3,38.2,1.9,58.3
		c-2-0.4-3.9-0.8-5.8-1.1c-12.2-2.4-24.4-4.6-36.6-7.1C569.2,816.7,567.1,818.4,567.4,823.7z M614.8,978.2c-5-1.2-7.9-4.3-8.2-8.7
		c-0.3-4.5,2.3-6.8,6.9-6c4.6,0.8,7.5,4,7.8,8.5C621.6,976.4,618.9,978.4,614.8,978.2z M649.1,964.6c-23.6-4.6-46.7-9.1-70.1-13.6
		c-1.2-34.9-2.3-69.5-3.5-104.6c23.2,4.5,46.5,9,70.1,13.6C646.8,894.7,647.9,929.4,649.1,964.6z M723.4,1003.5
		c-3.9-0.8-7.2-4.5-7.3-8.4c-0.1-3.9,2.9-6.4,6.8-5.7s7.2,4.5,7.3,8.4C730.4,1001.7,727.3,1004.3,723.4,1003.5z M783.7,997.5
		c-41.9-8.1-84.1-16.3-126.9-24.6c-0.6-18.7-1.2-37.1-1.8-55.4c-0.8-24.6-1.6-49.2-2.4-73.7c-0.3-10.1-0.9-10.8-11.4-13.1
		c-0.8-0.2-1.5-0.4-2.7-0.7c-0.5-13.8-0.9-27.5-1.4-41.6c46.8,9.1,93.5,18.1,140.7,27.3C779.7,876,781.7,936.6,783.7,997.5z"/>
</g>
</svg>
