<?xml version="1.0" encoding="utf-8"?>
<!-- Generator: Adobe Illustrator 19.0.0, SVG Export Plug-In . SVG Version: 6.00 Build 0)  -->
<svg version="1.1" id="Layer_1" xmlns="http://www.w3.org/2000/svg" xmlns:xlink="http://www.w3.org/1999/xlink" x="0px" y="0px"
	 viewBox="0 0 1200 1200" style="enable-background:new 0 0 1200 1200;" xml:space="preserve">
<style type="text/css">
	.st0{fill:#4CBEC0;}
</style>
<g id="XMLID_15774_">
	<path id="XMLID_11002_" class="st0" d="M254.1,663.6c0-11.7,0-23.4,0-35.1c0.1-11.3,7-18.2,18.3-18.2c9.9,0,19.9,0,29.8,0
		c7.4,0,13.5,3,17.9,8.7c2,2.6,3.5,6.3,3.5,9.6c0.3,23.2,0.2,46.5,0.1,69.7c0,7.7-6.7,15-16,15.6c-13.7,0.8-27.6,0.7-41.3,0.1
		c-7.3-0.3-12.3-7.1-12.4-14.7C254.1,687.4,254.1,675.5,254.1,663.6z"/>
	<path id="XMLID_11001_" class="st0" d="M1009.3,179.4c0-11.7,0-23.4,0-35.1c0.1-11.1,6.9-18,18-18c9.9-0.1,19.9,0.1,29.8,0
		c6.8-0.1,12.4,2.5,17.2,7.2c3.2,3.2,4.8,6.9,4.8,11.6c-0.1,22.8-0.1,45.5,0,68.3c0,5.6-1.9,10-6.7,12.4c-4.5,2.2-9.5,4.3-14.3,4.6
		c-10.5,0.7-21.2,0.3-31.7,0.2c-11.1-0.1-17.1-6.3-17.1-17.4C1009.3,201.8,1009.3,190.6,1009.3,179.4z"/>
	<path id="XMLID_11000_" class="st0" d="M50.4,1115.5c0-11.9-0.1-23.7,0-35.6c0.1-10.7,6.7-17.3,17.4-17.5c10.1-0.1,20.2,0,30.3,0
		c6.8,0,12.8,2.3,17,7.5c2.4,3,4.4,7.3,4.5,11c0.4,22.1,0.2,44.2,0.2,66.4c0,10.4-4.6,16.3-14.8,18.6c-3.2,0.7-6.7,0.8-10,0.9
		c-9.1,0.1-18.3,0.1-27.4,0c-11.3-0.1-17.2-6-17.2-17.1C50.4,1138.2,50.4,1126.8,50.4,1115.5z"/>
	<path id="XMLID_10993_" class="st0" d="M498.5,685c0-12,0-24,0-36.1c0-9.7,7-16.6,16.7-16.6c10.7,0,21.5-0.1,32.2,0
		c11.9,0.1,20.4,8.7,20.4,20.5c0,21.5,0,43,0,64.4c0,11-6.6,18.4-17.7,18.9c-12.6,0.5-25.3,0.4-38,0c-7.9-0.2-13.6-6.8-13.6-14.6
		C498.5,709.4,498.5,697.2,498.5,685z"/>
	<path id="XMLID_10992_" class="st0" d="M359.8,1032c0-12,0-24,0-36.1c0-9.9,7-16.8,16.9-16.8c10.6,0,21.2-0.1,31.7,0
		c12.2,0.1,20.6,8.6,20.6,20.8c0,21.3,0,42.6,0,64c0,11.3-6.6,18.7-18,19.1c-12.5,0.4-25,0.3-37.5,0c-8.1-0.2-13.8-6.7-13.8-14.9
		C359.8,1056,359.8,1044,359.8,1032z"/>
	<path id="XMLID_10991_" class="st0" d="M159.5,858c0-11.5,0-23.1,0-34.6c0-10.8,6.9-17.6,17.8-17.6c10.4,0,20.8-0.1,31.3,0
		c11.9,0.1,20.5,8.7,20.5,20.4c0,21.5,0,43,0,64.4c0,11.1-6.8,18.6-18.2,19c-12.3,0.4-24.7,0.3-37,0c-8.2-0.2-14.2-6.8-14.3-15.1
		C159.5,882.3,159.5,870.1,159.5,858z"/>
	<path id="XMLID_10989_" class="st0" d="M796.2,827.9c0-11.9,0-23.7,0-35.6c0-10.5,6.9-17.4,17.5-17.4c10.4,0,20.8-0.1,31.3,0
		c12.2,0.1,20.7,8.7,20.7,20.8c0,21.3,0,42.6,0,64c0,11.3-6.6,18.8-17.9,19.1c-12.5,0.4-25,0.3-37.5,0c-8.1-0.2-13.9-6.8-13.9-14.8
		C796.2,851.9,796.2,839.9,796.2,827.9z"/>
	<path id="XMLID_10988_" class="st0" d="M1099.6,627.9c0-11.9,0-23.7,0-35.6c0-10.1,6.8-16.9,16.8-17c10.6-0.1,21.2,0,31.7,0
		c7.1,0,12.9,2.9,17.1,8.3c2,2.5,3.5,6.3,3.5,9.5c0.3,23.4,0.1,46.8,0.2,70.2c0,4.7-1.5,8.6-5.3,10.6c-4.7,2.4-9.9,4.9-15,5.3
		c-10.8,0.8-21.8,0.3-32.7,0.2c-10.4-0.1-16.4-6.1-16.4-16.4C1099.6,651.4,1099.6,639.7,1099.6,627.9z"/>
	<path id="XMLID_10987_" class="st0" d="M1117.1,1034c0,10.4,0,20.8,0,31.3c0,11.7-6.4,19.1-18.1,19.5c-12.3,0.5-24.7,0.4-37,0
		c-8.5-0.2-14.3-6.9-14.3-15.5c0-23.7,0-47.5,0-71.2c0-10.2,6.9-17.1,17.2-17.2c10.4-0.1,20.8,0.1,31.3,0c6.7-0.1,12.4,2.5,16.5,7.4
		c2.3,2.8,4.1,7,4.3,10.6C1117.4,1010.6,1117.1,1022.3,1117.1,1034z"/>
	<path id="XMLID_10986_" class="st0" d="M642.1,314.6c0-11.7,0-23.4,0-35.1c0-10.9,6.8-17.8,17.6-17.9c10.1-0.1,20.2,0,30.3,0
		c7.5,0,13.8,3.1,18.3,9c1.9,2.5,3,6.1,3.1,9.2c0.3,22.3,0.1,44.6,0.1,66.8c0,10.5-4.9,17.7-15.2,18.5c-14,1.1-28.2,0.8-42.2,0.1
		c-7.1-0.3-11.8-6.9-11.9-14C642,339,642.1,326.8,642.1,314.6z"/>
	<path id="XMLID_10985_" class="st0" d="M414.5,453.6c0-11.9-0.1-23.7,0-35.6c0.1-10.9,6.9-17.7,17.7-17.7c9.9,0,19.9,0,29.8,0
		c6.6,0,12.2,2.5,16.9,6.9c3.4,3.2,5.2,7,5.1,11.9c-0.2,22.1-0.1,44.2-0.1,66.4c0,10.3-5.2,17.6-15.5,18.3
		c-13.9,1-27.9,0.8-41.8,0.2c-7.3-0.3-12.1-6.8-12.2-14.3C414.4,477.7,414.5,465.7,414.5,453.6z"/>
	<path id="XMLID_10984_" class="st0" d="M757.4,607.7c0-11.7,0-23.4,0-35.1c0.1-11.1,6.6-17.5,17.7-17.6c10.1-0.1,20.2,0.1,30.3,0
		c6.5-0.1,11.8,2.4,16.4,6.7c3.4,3.2,5.2,7,5.1,11.9c-0.2,21.8-0.1,43.6-0.1,65.4c0,12-6.7,19.5-18.8,20c-12,0.5-24.1,0.4-36.1,0
		c-9-0.3-14.5-6.7-14.6-15.7C757.4,631.5,757.4,619.6,757.4,607.7z"/>
	<path id="XMLID_10983_" class="st0" d="M144.9,178.5c0-11.9,0-23.8,0-35.6c0.1-10.8,6.6-17.3,17.4-17.4c10.3-0.1,20.5,0.1,30.8,0
		c6.7-0.1,12.1,2.7,16.7,7.3c3.1,3.1,4.6,6.6,4.6,11.2c-0.2,23-0.2,45.9,0,68.9c0,5.3-1.7,9.4-6.1,11.7c-4.6,2.3-9.7,4.6-14.7,4.9
		c-10.7,0.7-21.5,0.3-32.3,0.2c-10.5-0.1-16.4-6.1-16.5-16.4C144.9,201.7,144.9,190.1,144.9,178.5z"/>
	<path id="XMLID_10982_" class="st0" d="M236.4,160.1c-0.3-0.3-1.6-1.3-2.9-2.3c1.3-0.8,2.6-2.2,4-2.3c35.7-2.7,71.3-5.2,107-7.8
		c37.4-2.7,74.9-5.6,112.3-8.3c28.8-2.1,57.6-4,86.4-6.1c33.1-2.4,66.2-5,99.3-7.4c28.8-2.1,57.6-4,86.4-6.1
		c28.6-2.1,57.3-4.3,85.9-6.4c24.3-1.8,48.6-3.4,73-5.2c28.6-2.1,57.3-4.2,85.9-6.4c9-0.7,17.9-1.4,26.9-1.9c1.2-0.1,2.5,1.3,3.7,2
		c-1.1,0.9-2.1,2.4-3.3,2.5c-11.3,1-22.7,1.9-34.1,2.7c-25,1.8-49.9,3.7-74.9,5.5c-24.2,1.7-48.3,3.4-72.5,5.2
		c-24.5,1.8-48.9,3.6-73.4,5.4c-23.8,1.7-47.7,3.4-71.5,5.2c-25,1.8-49.9,3.7-74.9,5.5c-24.2,1.7-48.3,3.4-72.5,5.2
		c-24.5,1.8-48.9,3.6-73.4,5.4c-23.8,1.7-47.7,3.4-71.5,5.2c-25,1.8-49.9,3.7-74.9,5.5C284.3,156.8,261.1,158.4,236.4,160.1z"/>
	<path id="XMLID_10981_" class="st0" d="M740.4,1049.3c-90.3,1.3-180.7,2.6-271,3.8c-1.8,0-3.6,0.3-5.3-0.1c-1-0.2-1.8-1.4-2.7-2.2
		c0.9-0.8,1.7-1.8,2.7-2.3c0.8-0.4,1.9-0.1,2.9-0.1c124.4-1.7,248.7-3.3,373.1-5c57.6-0.8,115.2-1.8,172.8-2.5c2.3,0,6-1.9,6.3,2.5
		c0,0.5-4.1,1.9-6.3,1.9C922.1,1046.8,831.2,1048.1,740.4,1049.3C740.4,1049.4,740.4,1049.4,740.4,1049.3z"/>
	<path id="XMLID_10980_" class="st0" d="M177.7,503.8c0.8,60.2,1.8,138.3,2.7,216.5c0,2.3-1.7,6.8-2.1,6.8c-4.2-0.6-2.3-4.2-2.4-6.5
		c-2-154.5-3.9-309.1-5.8-463.6c0-2.9-0.3-5.8,0.1-8.7c0.2-1.5,1.5-2.9,2.3-4.4c0.8,1.5,2.2,3,2.2,4.6c0.4,19.1,0.6,38.2,0.8,57.3
		C176.2,365.8,176.9,425.8,177.7,503.8z"/>
	<path id="XMLID_10979_" class="st0" d="M445.9,391.5c-12.7,0-22.5-9.9-22.5-22.5c0-12.6,10-22.6,22.5-22.7
		c12.4,0,22.7,10.2,22.7,22.6C468.6,381.4,458.5,391.5,445.9,391.5z"/>
	<path id="XMLID_10978_" class="st0" d="M696,230.3c0,12.7-9.9,22.5-22.6,22.5c-12.5,0-22.7-10.1-22.6-22.6
		c0-12.4,10.4-22.6,22.8-22.6C686.1,207.6,696.1,217.7,696,230.3z"/>
	<path id="XMLID_10977_" class="st0" d="M552.5,601c-0.1,12.5-10.4,22.6-22.8,22.4c-12.4-0.2-22.5-10.6-22.4-23
		c0.1-12.5,10.3-22.3,22.9-22.2C542.9,578.3,552.5,588.3,552.5,601z"/>
	<path id="XMLID_10976_" class="st0" d="M413.8,947.4c0,12.6-10,22.7-22.5,22.8c-12.3,0-22.7-10.3-22.7-22.7
		c0-12.5,10-22.5,22.6-22.6C403.9,925,413.7,934.8,413.8,947.4z"/>
	<path id="XMLID_10975_" class="st0" d="M827.8,720.8c12.7,0,22.5,9.9,22.5,22.6c0,12.6-10.1,22.7-22.6,22.6
		c-12.3-0.1-22.7-10.5-22.6-22.8C805,730.8,815.1,720.8,827.8,720.8z"/>
	<path id="XMLID_10974_" class="st0" d="M1101.7,949.3c0,12.6-10,22.8-22.5,22.8c-12.3,0.1-22.7-10.3-22.8-22.6
		c-0.1-12.4,10.1-22.6,22.6-22.6C1091.7,926.7,1101.7,936.7,1101.7,949.3z"/>
	<path id="XMLID_10973_" class="st0" d="M191,751.6c12.7-0.1,22.6,9.8,22.7,22.4c0.1,12.5-10,22.7-22.5,22.8
		c-12.3,0.1-22.7-10.2-22.8-22.6C168.3,761.9,178.5,751.7,191,751.6z"/>
	<path id="XMLID_10972_" class="st0" d="M1153.5,543.9c0,12.5-10.3,22.7-22.7,22.6c-12.4-0.1-22.6-10.5-22.5-22.9
		c0.1-12.5,10.3-22.5,22.8-22.4C1143.8,521.3,1153.6,531.2,1153.5,543.9z"/>
	<path id="XMLID_10971_" class="st0" d="M811.5,523.7c-0.1,12.4-10.5,22.7-22.9,22.5c-12.5-0.2-22.4-10.4-22.3-22.9
		c0.1-12.4,10.4-22.6,22.8-22.4C801.6,501,811.6,511.2,811.5,523.7z"/>
	<path id="XMLID_10970_" class="st0" d="M1018.4,94.8c-0.1-12.6,10-22.8,22.4-22.8c12.2-0.1,22.7,10.3,22.8,22.6
		c0.1,12.4-10.1,22.6-22.6,22.7C1028.5,117.4,1018.5,107.4,1018.4,94.8z"/>
	<path id="XMLID_10969_" class="st0" d="M198.9,94.2c-0.1,12.4-10.6,22.7-22.9,22.4c-12.5-0.2-22.4-10.5-22.3-23
		c0.1-12.5,10.4-22.5,22.9-22.3C189.1,71.5,199,81.6,198.9,94.2z"/>
	<path id="XMLID_10968_" class="st0" d="M59.3,1031.1c0-12.5,10-22.7,22.4-22.9c12.3-0.1,22.7,10.2,22.8,22.6
		c0.1,12.5-9.9,22.6-22.5,22.7C69.4,1053.6,59.3,1043.7,59.3,1031.1z"/>
	<path id="XMLID_10967_" class="st0" d="M263.3,578.6c0.2-12.6,10.2-22.4,22.8-22.3c12.3,0.1,22.7,10.7,22.4,22.9
		c-0.3,12.6-10.7,22.5-23.5,22.3C272.8,601.2,263.1,591,263.3,578.6z"/>
	<path id="XMLID_10966_" class="st0" d="M456.1,1016.8c-0.7-0.5-1.7-0.7-1.9-1.3c-0.2-0.8-0.2-2.1,0.3-2.5c1.2-1,2.7-1.7,4.1-2.5
		c99.9-51.9,199.9-103.7,299.8-155.6c0.7-0.4,1.4-1,2.1-1c1.2-0.1,2.5,0.2,3.8,0.3c-0.6,1.2-1.1,2.6-1.9,3.7c-0.5,0.7-1.6,1-2.5,1.4
		c-99.5,51.6-199,103.2-298.5,154.8C459.7,1015.1,458,1015.9,456.1,1016.8z"/>
	<path id="XMLID_10965_" class="st0" d="M1018,246.1c-1,1.7-1.9,3.2-2.8,4.6c-35.2,55.9-70.5,111.7-105.7,167.6
		c-20.1,31.9-40.2,63.7-60.3,95.6c-0.2,0.3-0.3,0.6-0.5,0.8c-1.6,1.2-3.2,2.3-4.8,3.4c0.3-1.9,0.1-4.2,1-5.8
		C900.4,424.1,956,336,1011.7,247.9c0.7-1.1,1.3-2.3,2.2-3.1c0.6-0.5,1.7-0.7,2.6-0.5C1017,244.4,1017.4,245.3,1018,246.1z"/>
	<path id="XMLID_10964_" class="st0" d="M726.2,263.7c-0.6-0.5-1.9-1.1-2-1.9c-0.1-0.8,0.8-2.2,1.5-2.5c2.9-1.3,6-2.3,9-3.4
		c87.6-31,175.2-62,262.9-92.9c1.9-0.7,6-0.7,6.1-0.2c1.2,4-2.7,3.5-4.7,4.3c-89.4,31.8-178.8,63.5-268.2,95.1
		C729.4,262.7,728,263.1,726.2,263.7z"/>
	<path id="XMLID_10955_" class="st0" d="M749.7,569c-1.6,0.2-3.4,1-4.9,0.6c-10.2-2.8-20.3-5.8-30.4-8.8c-66-19.5-132-39-197.9-58.5
		c-0.8-0.2-1.7-0.3-2.3-0.7c-1.1-0.9-2-2-2.9-3.1c1.5-0.4,3.1-1.5,4.3-1.1c14.5,4.1,28.9,8.4,43.3,12.6c62,18.3,124,36.6,186,54.9
		c1.7,0.5,3.3,1.4,4.9,2.2C749.8,567.7,749.7,568.4,749.7,569z"/>
	<path id="XMLID_10954_" class="st0" d="M385.6,406.8c-0.5,0.7-0.8,1.7-1.3,1.9c-0.8,0.3-2,0.3-2.6-0.2c-1-0.7-1.7-1.9-2.5-2.9
		c-47-59.3-94-118.7-141-178c-0.1-0.1-0.2-0.2-0.3-0.4c-0.6-1.9-1.1-3.9-1.7-5.8c1.7,1,4,1.5,5.1,3
		c47.2,59.4,94.3,118.9,141.4,178.4C383.6,404,384.5,405.3,385.6,406.8z"/>
	<path id="XMLID_10953_" class="st0" d="M883.7,796.5c-0.8-0.5-1.9-0.7-2.1-1.3c-0.3-0.7-0.2-2,0.2-2.5c0.9-1.1,2.2-1.8,3.4-2.7
		c61.6-43.7,123.2-87.5,184.9-131.2c1.8-1.3,6-2.4,6.3-2c2.2,3.8-2,4.3-3.9,5.6c-61.5,43.8-123.2,87.6-184.8,131.3
		C886.4,794.7,885.1,795.5,883.7,796.5z"/>
	<path id="XMLID_10952_" class="st0" d="M1107.8,498.8c-0.4,0.5-1.3,1.4-2.1,2.3c-0.8-1-2.2-1.9-2.3-3c-1.7-10.3-3.2-20.6-4.7-30.9
		c-4.3-29.8-8.6-59.6-13-89.4c-4-27.7-8.1-55.5-12.1-83.2c-0.9-5.9-1.9-11.7-2.5-17.6c-0.1-1.4,1-2.9,1.6-4.3
		c0.9,1.2,2.5,2.3,2.7,3.6c4.9,33.1,9.7,66.2,14.5,99.4c4.3,29.8,8.7,59.6,13.1,89.4C1104.6,476.1,1106.1,487,1107.8,498.8z"/>
	<path id="XMLID_10951_" class="st0" d="M962.1,594.2c-25.2-1.1-50.3-2.3-75.5-3.4c-9.8-0.4-19.5-0.8-29.3-1.2
		c-0.8,0-1.7,0.1-2.4-0.3c-1-0.6-1.7-1.6-2.6-2.4c0.9-0.7,1.8-1.6,2.8-2c0.8-0.3,1.9,0,2.9,0c34.1,1.5,68.2,3.1,102.4,4.6
		c31.9,1.4,63.8,2.8,95.6,4.2c4.3,0.2,8.7,0.4,13,0.8c0.8,0.1,1.6,1.2,2.4,1.9c-0.9,0.8-1.7,1.6-2.6,2.3c-0.3,0.2-0.9,0-1.4,0
		C1032.2,597.3,997.1,595.8,962.1,594.2C962,594.3,962,594.3,962.1,594.2z"/>
	<path id="XMLID_10950_" class="st0" d="M1130.8,700.7c-3,13.2-5.7,25.5-8.5,37.8c-12.1,53.5-24.2,107.1-36.4,160.6
		c-0.5,2.3-3.1,6.3-3.5,6.1c-4-1.5-1.4-4.6-0.9-6.8c14.7-65.4,29.5-130.8,44.4-196.2c0.3-1.5,2-2.8,3.1-4.1
		C1129.6,699.1,1130.4,700.1,1130.8,700.7z"/>
	<path id="XMLID_10949_" class="st0" d="M1035.2,1013.4c-1.2,0.3-2.6,1.1-3.7,0.8c-1.1-0.3-2-1.5-3-2.3
		c-48.9-42-97.7-84.1-146.6-126.1c-0.7-0.6-1.7-1.2-2-2c-0.4-0.8-0.5-2.3,0-2.9c0.5-0.5,2.2-0.7,2.8-0.3c1.9,1.2,3.5,2.8,5.2,4.3
		c48.1,41.4,96.2,82.8,144.4,124.2c1.1,0.9,2.6,1.4,3.9,2C1035.9,1011.9,1035.5,1012.7,1035.2,1013.4z"/>
	<path id="XMLID_10948_" class="st0" d="M335.1,1062.7c-2.9,1.4-4.5,2.4-6.2,2.9c-21.7,6.8-43.4,13.5-65.1,20.2
		c-37.9,11.7-75.9,23.4-113.8,35.1c-0.5,0.1-0.9,0.5-1.3,0.5c-1.8-0.3-3.6-0.6-5.4-1c1.3-1.1,2.4-2.8,3.9-3.3
		c16.2-5.1,32.4-10.1,48.6-15.1c43.9-13.6,87.7-27.2,131.6-40.8c1.1-0.3,2.2-1,3.2-0.9C331.8,1060.6,332.8,1061.5,335.1,1062.7z"/>
	<path id="XMLID_10947_" class="st0" d="M588.4,685.3c-0.6-0.4-1.7-0.8-2-1.4c-0.3-0.7,0-2,0.5-2.5c0.9-0.8,2.2-1.3,3.4-1.7
		c46.5-19.6,92.9-39.2,139.4-58.7c0.1-0.1,0.3-0.1,0.5-0.1c1.9,0,3.7,0,5.6,0c-1.2,1.3-2.2,3.3-3.7,3.9
		c-13.1,5.7-26.2,11.2-39.3,16.7c-33.5,14.1-67,28.2-100.5,42.3C591.1,684.2,589.9,684.7,588.4,685.3z"/>
	<path id="XMLID_10946_" class="st0" d="M629.9,354.7c-2.2,2-3.3,3.3-4.6,4.3c-27.2,20.6-54.5,41.1-81.8,61.7
		c-12.4,9.4-24.8,18.7-37.2,28.1c-1,0.8-2,1.8-3.1,2.2c-0.9,0.3-2.3,0-2.9-0.6c-0.4-0.5-0.1-2,0.4-2.8c0.6-0.9,1.7-1.5,2.6-2.2
		c39.8-30,79.6-60,119.4-90c0.9-0.7,1.8-1.7,2.7-1.8C626.5,353.3,627.7,354,629.9,354.7z"/>
	<path id="XMLID_10945_" class="st0" d="M473.7,687.2c-25.9-2.3-50.1-4.4-74.4-6.5c-18.7-1.6-37.4-3.1-56-4.9
		c-1.6-0.1-3-1.8-4.5-2.8c1.8-0.6,3.6-1.7,5.4-1.6c24.9,2,49.8,4.2,74.7,6.3c18.4,1.6,36.7,3.1,55.1,4.9c1.2,0.1,2.2,1.6,3.3,2.5
		C475.7,686,474.1,686.9,473.7,687.2z"/>
	<path id="XMLID_10944_" class="st0" d="M713.1,377.6c0.9,1,1.9,1.8,2.5,2.8c21.7,34.7,43.4,69.3,64.9,104c0.8,1.2,0.2,3.3,0.2,5
		c-1.3-0.8-3.2-1.3-4-2.5c-21.8-34.6-43.4-69.3-65-104c-0.7-1.1-0.8-2.6-0.8-3.9C710.9,378.7,712.1,378.2,713.1,377.6z"/>
	<path id="XMLID_10943_" class="st0" d="M128.7,1045.5c0-1.6-0.5-3.4,0.1-4.8c4.3-10.7,8.8-21.3,13.3-31.9
		c9.6-22.9,19.2-45.8,28.7-68.7c0.4-1,0.6-2.3,1.4-3c0.8-0.7,2.2-1,3.2-0.9c0.4,0,1,1.9,0.8,2.7c-0.5,2-1.5,3.9-2.3,5.8
		c-13.5,32.2-26.9,64.4-40.4,96.5c-0.7,1.6-1.8,3.1-2.7,4.6C130.1,1045.7,129.4,1045.6,128.7,1045.5z"/>
	<path id="XMLID_10942_" class="st0" d="M245.2,918.3c1,0.5,2,1,2.9,1.6c30.2,20.3,60.4,40.6,90.5,61c1.2,0.8,1.6,2.6,2.4,4
		c-1.7-0.1-3.8,0.5-4.9-0.3c-30.2-20.2-60.4-40.5-90.5-60.9c-1.1-0.8-1.9-2.3-2.4-3.7c-0.3-0.8,0.4-1.9,0.7-2.8
		C244.3,917.5,244.8,917.9,245.2,918.3z"/>
	<path id="XMLID_10941_" class="st0" d="M414.3,522.1c-0.9,1-1.6,2.1-2.5,2.9c-23.2,20.2-46.4,40.4-69.8,60.5
		c-1.1,0.9-3.2,0.6-4.8,0.9c0.7-1.4,1-3.3,2-4.2c23.2-20.3,46.4-40.4,69.7-60.6c1-0.8,2.4-1.2,3.7-1.5
		C413,520,413.6,521.2,414.3,522.1z"/>
	<path id="XMLID_10940_" class="st0" d="M280.1,729c-0.5,1.5-0.9,2.7-1.3,3.9c-8.8,22.3-17.6,44.6-26.5,66.9c-0.4,1-0.7,2.3-1.4,3
		c-0.7,0.6-2,0.9-2.9,0.7c-0.5-0.1-1-1.5-1-2.3c0.1-1.1,0.6-2.1,1-3.2c8.8-22.5,17.7-44.9,26.6-67.4c0.4-0.9,0.6-2,1.2-2.6
		c0.7-0.6,1.9-1.1,2.8-1C279.1,727.1,279.6,728.4,280.1,729z"/>
</g>
</svg>
