<?xml version="1.0" encoding="utf-8"?>
<!-- Generator: Adobe Illustrator 19.0.0, SVG Export Plug-In . SVG Version: 6.00 Build 0)  -->
<svg version="1.1" id="Layer_1" xmlns="http://www.w3.org/2000/svg" xmlns:xlink="http://www.w3.org/1999/xlink" x="0px" y="0px"
	 viewBox="0 0 1200 1200" style="enable-background:new 0 0 1200 1200;" xml:space="preserve">
<style type="text/css">
	.st0{fill:none;stroke:#4DBEC0;stroke-width:8;stroke-miterlimit:10;}
</style>
<g id="XMLID_10329_">
	<path id="XMLID_10332_" class="st0" d="M333.4,1020.3c55.2-55.4,110.3-110.9,165.6-166.2c58.8-58.8,118-117.3,176.4-176.5
		c4.4-4.5,6.3-13.2,6.3-19.9c0.3-154.9,0.3-309.9,0.3-464.8c0-5.9,0-11.9,0-17.9c143,15.1,326.9,127.5,385.5,336.8
		c57,203.5-27.8,420.2-207.4,531.6C685.2,1151.8,474,1130.2,333.4,1020.3z"/>
	<path id="XMLID_10331_" class="st0" d="M208.1,338.5C326,456.4,443.9,574.3,560.7,691.1C444,807.8,325.8,925.9,207.8,1044
		C32,851.9,30.8,533,208.1,338.5z"/>
	<path id="XMLID_10330_" class="st0" d="M615.1,642.4c-144.8-145.5-287.8-289.2-431-433c65-77.8,293.6-169,431-170.7
		C615.1,239.2,615.1,439.6,615.1,642.4z"/>
</g>
</svg>
