<?xml version="1.0" encoding="utf-8"?>
<!-- Generator: Adobe Illustrator 19.0.0, SVG Export Plug-In . SVG Version: 6.00 Build 0)  -->
<svg version="1.1" id="Layer_1" xmlns="http://www.w3.org/2000/svg" xmlns:xlink="http://www.w3.org/1999/xlink" x="0px" y="0px"
	 viewBox="1110 -60 150 150" style="enable-background:new 1110 -60 150 150;" xml:space="preserve">
<style type="text/css">
	.st0{fill:#4CBEC0;}
</style>
<g id="XMLID_10465_">
	<path id="XMLID_10476_" class="st0" d="M1229.2,15.4c0,20,0,39.9,0,59.9c0,5.5-2.9,9.6-7.7,11.1c-1,0.3-2.1,0.5-3.1,0.5
		c-21.1,0-42.2,0-63.2,0c-6.2,0-11-4.8-11.1-10.9c-0.1-2.5,0-5,0-7.4c0-37.7,0-75.4,0-113.1c0-5.6,2.9-9.7,7.9-11.2
		c1-0.3,2-0.5,3-0.5c21.2,0,42.5,0,63.7,0c6,0,10.6,4.9,10.6,11.3c0,12.7,0,25.4,0,38.2C1229.2,0.5,1229.2,8,1229.2,15.4z
		 M1148.7,64.5c25.4,0,50.7,0,76,0c0-35.1,0-70.1,0-105.1c-25.4,0-50.7,0-76,0C1148.7-5.5,1148.7,29.4,1148.7,64.5z M1186.8,82.4
		c3.7,0,6.8-3,6.7-6.8c-0.1-3.7-3-6.6-6.7-6.6c-3.7,0-6.7,2.9-6.7,6.6C1180,79.4,1183,82.4,1186.8,82.4z M1186.7-46.2
		c2.9,0,5.8,0,8.7,0c1.1,0,1.9-0.4,2.3-1.4c0.7-1.6-0.5-3.1-2.5-3.1c-5.6,0-11.2,0-16.8,0c-1.9,0-2.7,0.7-2.7,2.3
		c0,1.5,0.9,2.2,2.7,2.2C1181.2-46.2,1183.9-46.2,1186.7-46.2z"/>
	<path id="XMLID_10475_" class="st0" d="M1186.7-35.6c6,0.2,11.6,1.6,16.8,4.6c1.4,0.8,1.5,1.3,0.6,2.6
		c-5.7,8.2-11.5,16.3-17.2,24.5c-0.6,0.8-1.2,1.1-2.2,1c-7.9-0.7-15.7-1.4-23.6-2.1c-2.1-0.2-4.2-0.4-6.3-0.5
		c-1.3-0.1-1.7-0.6-1.5-1.9c1.9-13.3,13.7-25.2,27-27.4C1182.4-35.2,1184.5-35.3,1186.7-35.6z"/>
	<path id="XMLID_10474_" class="st0" d="M1185.6,15.7c0,4.8,0,9.6,0,14.4c0,1.7-0.3,2-1.9,1.9c-14.6-1-27.4-12.4-30.1-26.8
		c-0.4-2.2-0.6-4.5-0.7-6.7c-0.1-1.7,0.2-1.9,1.9-1.8c8.1,0.7,16.3,1.4,24.4,2.1c1.5,0.1,3,0.2,4.5,0.3c1.6,0.1,1.9,0.4,1.9,2
		C1185.6,6,1185.6,10.8,1185.6,15.7z"/>
	<path id="XMLID_10473_" class="st0" d="M1220.5-2.2c-0.1,6.5-1.4,12-4.4,17.2c-1,1.7-1.3,1.8-2.9,0.7c-7.8-5.5-15.6-10.9-23.4-16.4
		c-1.6-1.1-1.6-1.3-0.5-2.8c5.5-7.8,11-15.7,16.5-23.5c1-1.5,1.4-1.5,2.8-0.3C1216.3-20.6,1220.3-12,1220.5-2.2z"/>
	<path id="XMLID_10472_" class="st0" d="M1179.6,49.2c2.6-4.8,6.7-5.8,12-2.8c4.7-3.4,9.4-6.7,14.2-10.2c0.2-0.2,0.4-0.7,0.3-1.1
		c-0.6-4.1,2-8,6-8.7c4.2-0.7,8.1,1.8,8.9,6c0.6,3.1-0.4,5.7-3,7.6c-2.6,1.9-5.4,2-8.2,0.5c-0.2-0.1-0.4-0.2-0.6-0.4
		c-0.1-0.1-0.3-0.2-0.5-0.3c-4.7,3.4-9.5,6.8-14.2,10.2c-0.3,0.2-0.4,0.8-0.4,1.1c0.4,4.3-1.8,7.6-5.8,8.5c-3.7,0.9-7.3-1.1-8.9-5
		c-0.2-0.4-0.7-0.8-1.2-0.9c-3.5-0.7-7.1-1.4-10.6-2.1c-0.7-0.1-1.2-0.1-1.8,0.7c-2.2,3-5.8,4-9.2,2.6c-3.2-1.4-5-4.7-4.5-8.2
		c0.5-3.5,3.5-6.1,7.2-6.3c3.4-0.2,6.6,2.1,7.6,5.6c0.2,0.7,0.5,1,1.2,1.2C1171.9,47.8,1175.7,48.5,1179.6,49.2z"/>
	<path id="XMLID_10471_" class="st0" d="M1187.7,16.7c0-4.5,0-9,0-13.5c0-0.5,0.2-1.4,0.6-1.6c0.4-0.2,1.2,0.1,1.6,0.4
		c7.4,5.2,14.8,10.4,22.2,15.5c1.3,0.9,1.3,1.3,0.3,2.5c-6.1,7-13.7,11.1-23,11.9c-1.4,0.1-1.8-0.2-1.8-1.7
		C1187.7,25.8,1187.7,21.2,1187.7,16.7z"/>
</g>
</svg>
