<?xml version="1.0" encoding="utf-8"?>
<!-- Generator: Adobe Illustrator 19.0.0, SVG Export Plug-In . SVG Version: 6.00 Build 0)  -->
<svg version="1.1" id="Layer_1" xmlns="http://www.w3.org/2000/svg" xmlns:xlink="http://www.w3.org/1999/xlink" x="0px" y="0px"
	 viewBox="0 0 1200 1200" style="enable-background:new 0 0 1200 1200;" xml:space="preserve">
<style type="text/css">
	.st0{fill:#4CBEC0;}
</style>
<g id="XMLID_10465_">
	<path id="XMLID_10476_" class="st0" d="M927,607.2c0,153.2,0,306.4,0,459.6c0,42-22.2,73.9-59.4,84.9c-7.7,2.3-15.9,3.5-23.9,3.5
		c-161.7,0.2-323.4,0.2-485.1,0.1c-47.3,0-84.4-36.5-85.3-84c-0.4-19-0.1-38-0.1-56.9c0-289.1,0-578.3,0-867.4
		c0-42.7,22.4-74.8,60.6-86.3c7.4-2.2,15.3-3.6,22.9-3.6c163-0.2,326.1-0.3,489.1-0.1c45.7,0,81,37.7,81.1,86.4
		c0.2,97.6,0.1,195.2,0.1,292.9C927,493.3,927,550.2,927,607.2z M309.4,984c195.1,0,389.1,0,583.2,0c0-269.2,0-537.8,0-806.3
		c-194.8,0-388.8,0-583.2,0C309.4,446.6,309.4,715,309.4,984z M601.2,1121.3c28.7,0,51.8-23.3,51.4-51.8
		c-0.4-28.3-23.2-50.7-51.5-50.6c-28.4,0-51.1,22.4-51.4,50.7C549.5,1098.1,572.6,1121.3,601.2,1121.3z M600.7,134.3
		c22.3,0,44.6-0.1,67,0c8.2,0,14.5-3,18-10.6c5.7-12.4-3.5-23.6-19.5-23.7c-43-0.1-85.9,0-128.9,0c-14.3,0-21,5.6-21,17.4
		c0.1,11.2,6.8,16.9,20.5,16.9C558.1,134.3,579.4,134.3,600.7,134.3z"/>
	<path id="XMLID_10475_" class="st0" d="M600.3,216.2c46.1,1.2,89.2,12.2,129.1,35.3c10.9,6.3,11.7,9.7,4.5,20
		C690,334.2,646,396.8,602.2,459.6c-4.5,6.5-9.5,8.4-17.1,7.7c-60.4-5.5-120.7-10.7-181.1-16c-16.2-1.4-32.4-2.7-48.6-4.2
		c-10.2-1-12.8-4.6-11.3-14.9c14.9-101.8,105-193.6,206.8-210.3C567.3,219.2,583.8,218,600.3,216.2z"/>
	<path id="XMLID_10474_" class="st0" d="M591.8,609.6c0,36.9,0,73.9,0,110.8c0,13.1-2.1,15.1-14.6,14.2c-112.2-8-210.2-95-231-205.7
		c-3.2-16.9-4.3-34.2-5.3-51.4c-0.7-13,1.8-14.9,14.6-13.8c62.4,5.3,124.8,10.7,187.2,16.1c11.5,1,23,1.8,34.4,2.6
		c12.3,0.9,14.7,3.2,14.7,15.4C591.8,535,591.8,572.3,591.8,609.6z"/>
	<path id="XMLID_10473_" class="st0" d="M859.6,472.5c-0.6,49.8-11.1,92.3-33.6,131.7c-7.3,12.8-10.3,13.5-22,5.3
		c-59.9-42-119.8-84-179.6-126c-12.1-8.5-12.4-9.7-4.1-21.6c42.1-60.2,84.2-120.4,126.3-180.6c7.9-11.3,11-11.8,21.6-2.5
		C828,331.4,858.7,397.4,859.6,472.5z"/>
	<path id="XMLID_10472_" class="st0" d="M546.3,866.6c20.1-37,51.2-44.3,92-21.8c36.1-25.8,72.5-51.7,108.7-77.9
		c1.9-1.4,2.7-5.7,2.3-8.5c-4.6-31.6,15.7-61.2,45.9-66.5c32.3-5.6,62.5,14,68.3,45.8c4.4,23.6-3.1,43.8-22.8,58.1
		c-19.9,14.4-41.3,15.3-63.1,3.6c-1.5-0.8-2.8-1.8-4.3-2.7c-1.1-0.7-2.3-1.3-4-2.2c-36.4,25.9-72.8,51.8-109,78
		c-2.1,1.5-3.3,5.8-3,8.6c3,32.9-13.9,58-44.6,65.4c-28.5,6.9-55.9-8.6-68-38c-1.3-3.2-5.6-6.5-9.1-7.2c-27.1-5.7-54.4-10.7-81.6-16
		c-5.6-1.1-9.5-0.7-13.6,5c-16.8,23.3-44.8,30.7-70.3,19.7c-24.6-10.7-38.5-36.2-34.4-62.9c4.1-26.5,26.7-46.5,54.9-48.6
		c26.1-1.9,51,16.1,58.1,42.9c1.5,5.5,3.8,8,9.1,9C487.3,855.5,516.5,861,546.3,866.6z"/>
	<path id="XMLID_10471_" class="st0" d="M608.3,617.2c0-34.5-0.2-69.1,0.2-103.6c0-4.2,1.8-10.4,4.6-11.9c3-1.5,9.1,0.6,12.5,3
		c56.9,39.6,113.7,79.5,170.4,119.3c9.8,6.9,10.3,9.9,2.1,19.4c-46.5,54-105.1,84.8-176.2,91.4c-11.1,1-13.7-1.5-13.7-13
		C608.3,687,608.3,652.1,608.3,617.2z"/>
</g>
</svg>
