<?xml version="1.0" encoding="utf-8"?>
<!-- Generator: Adobe Illustrator 19.0.0, SVG Export Plug-In . SVG Version: 6.00 Build 0)  -->
<svg version="1.1" id="Layer_1" xmlns="http://www.w3.org/2000/svg" xmlns:xlink="http://www.w3.org/1999/xlink" x="0px" y="0px"
	 viewBox="1110 -60 150 150" style="enable-background:new 1110 -60 150 150;" xml:space="preserve">
<style type="text/css">
	.st0{fill:none;stroke:#4DBEC0;stroke-width:2;stroke-miterlimit:10;}
</style>
<g id="XMLID_10329_">
	<path id="XMLID_10332_" class="st0" d="M1149.8,71.6c7.1-7.1,14.2-14.3,21.3-21.4c7.6-7.6,15.2-15.1,22.7-22.7
		c0.6-0.6,0.8-1.7,0.8-2.6c0-19.9,0-39.9,0-59.8c0-0.8,0-1.5,0-2.3c18.4,1.9,42.1,16.4,49.6,43.4c7.3,26.2-3.6,54.1-26.7,68.4
		C1195.1,88.6,1167.9,85.8,1149.8,71.6z"/>
	<path id="XMLID_10331_" class="st0" d="M1133.7-16.1C1148.8-1,1164,14.2,1179,29.2c-15,15-30.2,30.2-45.4,45.4
		C1111,50,1110.8,8.9,1133.7-16.1z"/>
	<path id="XMLID_10330_" class="st0" d="M1186.1,23c-18.6-18.7-37-37.2-55.5-55.7c8.4-10,37.8-21.8,55.5-22
		C1186.1-28.9,1186.1-3.1,1186.1,23z"/>
</g>
</svg>
