<?xml version="1.0" encoding="utf-8"?>
<!-- Generator: Adobe Illustrator 19.0.0, SVG Export Plug-In . SVG Version: 6.00 Build 0)  -->
<svg version="1.1" id="Layer_1" xmlns="http://www.w3.org/2000/svg" xmlns:xlink="http://www.w3.org/1999/xlink" x="0px" y="0px"
	 viewBox="0 0 1200 1200" style="enable-background:new 0 0 1200 1200;" xml:space="preserve">
<g id="XMLID_16045_">
	<path id="XMLID_16048_" d="M628.5,1159.6c-81.9,1.1-163.4-3.6-242.4-28.1c-44.2-13.7-85.3-33.6-117.9-67.4
		c-44.7-46.3-58.8-103.5-53.3-165.7c8.4-94.6,39.7-183.7,71.6-272.2c26.3-73.1,60.3-142.5,110.2-202.8
		c63.2-76.3,143-118.3,243.8-113.3c89,4.4,159.9,45.6,217.5,111.6c71.1,81.5,111.3,178.7,140,281.2c19.5,69.7,36.2,140.3,36.3,213.4
		c0.3,113.5-51.2,182.2-160.2,215.7c-57.7,17.8-117.1,24.6-177,27.4C674.3,1160.5,651.4,1159.6,628.5,1159.6z M592.3,495
		c-3.6,1.5-6.4,3-9.5,3.9c-46.1,12.8-72.2,44.1-78.2,90.4c-6.3,48.9,4.1,92.1,50.3,120.2c29.8,18.1,57.9,39,87.9,56.6
		c26.1,15.3,33.1,36.9,28.9,64.9c-4,26.7-20.9,41.9-47.6,41.7c-25.5-0.2-45.1-17-48.3-42c-1.2-9.2-1.2-18.5-1.4-27.7
		c-0.5-20.2-5-24.7-25.5-24.9c-45.8-0.5-45.8-0.5-45.5,45.3c0.4,54.5,27.5,90.6,79.5,106c3,0.9,5.9,2.5,9.3,4c0,10.7,0.1,21,0,31.4
		c-0.2,12.9,6.2,19.6,18.8,19.3c34.6-0.7,49.7,9.3,46.9-41.4c-0.2-4.4,5-12.1,9.2-13.4c47.5-14.9,72.9-46.9,77.7-96.2
		c5.1-52.1-6.6-95.8-56.1-123.8c-29.8-16.9-57.8-37-86.6-55.5c-17.7-11.4-27.9-25.9-26.5-48.6c1.8-29.7,17.7-48.5,45.3-49.6
		c30.3-1.2,50,15.7,52.8,45.5c0.5,4.9,0.5,9.8,0.3,14.7c-0.6,13.6,6.5,20,19.4,21.2c36.5,3.3,49.2-0.6,52.2-16.3
		c8.2-42.1-16.2-95.3-56.5-112c-23.4-9.7-36.8-19.4-32.3-46.7c1.8-11.1-7.8-18.4-19.1-17.2c-15.6,1.6-35-8.7-44.9,12.7
		c-1.3,2.7-0.5,6.5-0.5,9.7C592.2,476.3,592.3,485.5,592.3,495z"/>
	<path id="XMLID_16046_" d="M854.4,87.7c-11.1,15.8-23.9,33.9-36.7,52.1c-28.9,40.9-58,81.7-86.7,122.9c-4.9,7.1-9.1,10.4-18.4,7.7
		c-58.9-17.3-118-17.2-177.2-0.7c-4.6,1.3-13.2-1.3-15.9-5.1C476.9,205.4,434.9,145.7,393,86.4c29.3-14.5,57-31.1,86.8-42
		c27-9.9,53.5-1.8,76.5,16.3c43.3,34.2,93.4,33.4,137.8-0.7c30.6-23.5,64.4-25.3,98.3-8.5C813.5,61.9,833.1,75.1,854.4,87.7z"/>
</g>
</svg>
