<?xml version="1.0" encoding="utf-8"?>
<!-- Generator: Adobe Illustrator 16.0.0, SVG Export Plug-In . SVG Version: 6.00 Build 0)  -->
<!DOCTYPE svg PUBLIC "-//W3C//DTD SVG 1.1//EN" "http://www.w3.org/Graphics/SVG/1.1/DTD/svg11.dtd">
<svg version="1.1" id="Layer_1" xmlns="http://www.w3.org/2000/svg" xmlns:xlink="http://www.w3.org/1999/xlink" x="0px" y="0px"
	 width="25px" height="25px" viewBox="0 0 25 25" enable-background="new 0 0 25 25" xml:space="preserve">
<g>
	<title>Layer 1</title>
	<path id="path12423" fill="#FFFFFF" d="M2.811,2.814c-3.742,3.753-3.751,9.899-0.009,13.651c3.17,3.18,8.06,3.664,11.753,1.454
		l6.602,6.438c0.908,0.884,2.342,0.852,3.209-0.073c0.868-0.925,0.845-2.38-0.063-3.265l-6.501-6.318
		c2.279-3.716,1.816-8.675-1.386-11.887C12.673-0.938,6.553-0.938,2.811,2.814L2.811,2.814L2.811,2.814z M5.556,5.567
		c2.257-2.264,5.858-2.264,8.114,0c2.257,2.263,2.257,5.874,0,8.137c-2.256,2.264-5.857,2.264-8.114,0
		C3.298,11.441,3.298,7.83,5.556,5.567z"/>
</g>
</svg>
