<?xml version="1.0" encoding="utf-8"?>
<!-- Generator: Adobe Illustrator 19.0.0, SVG Export Plug-In . SVG Version: 6.00 Build 0)  -->
<svg version="1.1" id="Layer_1" xmlns="http://www.w3.org/2000/svg" xmlns:xlink="http://www.w3.org/1999/xlink" x="0px" y="0px"
	 viewBox="0 0 1200 684" style="enable-background:new 0 0 1200 684;" xml:space="preserve">
<style type="text/css">
	.st0{fill:#4CBEC0;}
</style>
<g id="XMLID_15784_">
	<path id="XMLID_11294_" class="st0" d="M469.3,434.2c0-25.2,0-49.8,0-74.8c74.7,0,149.4,0,224.5,0c0-12.5,0-24.7,0-36.6
		c24.8,24.8,49.5,49.5,73.9,73.9c-24.2,24.2-49,49-73.7,73.7c0-11.7,0-23.7,0-36.2C619.1,434.2,544.3,434.2,469.3,434.2z"/>
	<g id="XMLID_10930_">
		<path id="XMLID_10935_" class="st0" d="M1078.5,337.7c0,80.3,0,160.6,0,240.9c0,22-9.6,38.7-25.7,44.5c-3.3,1.2-6.9,1.8-10.3,1.8
			c-69.9,0.1-139.7,0.1-209.6,0.1c-20.5,0-36.4-19.1-36.9-44c-0.2-9.9,0-19.9,0-29.8c0-151.5,0-303.1,0-454.6
			c0-22.4,9.7-39.2,26.2-45.2c3.2-1.2,6.6-1.9,9.9-1.9c70.4-0.1,140.9-0.1,211.3,0c19.8,0,35,19.8,35.1,45.3
			c0.1,51.2,0,102.3,0,153.5C1078.5,278,1078.5,307.8,1078.5,337.7z M811.7,535.2c84.3,0,168.1,0,252,0c0-141.1,0-281.8,0-422.6
			c-84.2,0-168,0-252,0C811.7,253.6,811.7,394.2,811.7,535.2z M937.8,607.1c12.4,0,22.4-12.2,22.2-27.2c-0.2-14.8-10-26.5-22.3-26.5
			c-12.3,0-22.1,11.8-22.2,26.6C915.4,595,925.4,607.1,937.8,607.1z M937.5,89.9c9.6,0,19.3,0,28.9,0c3.5,0,6.3-1.6,7.8-5.6
			c2.4-6.5-1.5-12.4-8.4-12.4c-18.6-0.1-37.1,0-55.7,0c-6.2,0-9.1,2.9-9.1,9.1c0,5.9,2.9,8.8,8.9,8.9
			C919.1,89.9,928.3,89.9,937.5,89.9z"/>
		<path id="XMLID_10934_" class="st0" d="M916,135.8c7-1.4,14.2-2,21.3-3"/>
		<path id="XMLID_10933_" class="st0" d="M823.2,463.3"/>
		<path id="XMLID_10932_" class="st0" d="M838,496.3"/>
		<path id="XMLID_10931_" class="st0" d="M942.8,515.4"/>
	</g>
	<g id="XMLID_10923_">
		<path id="XMLID_10924_" class="st0" d="M406.5,348c0,82.2-0.5,164.4,0.3,246.6c0.3,29.9-22.2,46.1-46.3,46
			c-76.5-0.1-153,0-229.5-0.1c-22,0-39.5-12-44.4-30.7c-1.2-4.7-1.5-9.8-1.5-14.7c-0.1-164.9,0.2-329.9-0.3-494.8
			c-0.1-30,22.1-46.1,46.2-46c33.8,0.1,67.5,0,101.3,0c42.7,0,85.5,0,128.2,0c12.7,0,24.2,3.7,33.6,12.6
			c9.1,8.6,12.4,19.4,12.4,31.7C406.5,181.8,406.5,264.9,406.5,348z M391.3,578c0-158.1,0-315.6,0-473.1c-97.3,0-194.2,0-291.1,0
			c0,157.9,0,315.4,0,473.1C197.4,578,294.2,578,391.3,578z M246,599c-11.3,0-22.7,0-34,0c-7.8,0-10.2,2.5-10.2,10.1
			c-0.1,9.1,2.1,11.8,10.2,11.9c22.5,0.1,45,0.1,67.5,0c8.1,0,10.3-2.8,10.2-11.9c-0.1-7.6-2.5-10.1-10.3-10.1
			C268.4,598.9,257.2,599,246,599z M245.6,79.5c8.6,0,17.2,0.1,25.8-0.1c1.6,0,3.1-1.6,4.6-2.5c-1.6-0.9-3.2-2.5-4.7-2.5
			c-17-0.2-34-0.2-51.1,0c-1.5,0-3,1.7-4.5,2.7c1.6,0.8,3.1,2.3,4.7,2.4C228.7,79.6,237.1,79.5,245.6,79.5z M340.3,70.1
			c-4.5-0.3-8.2,2.9-8.6,7.3c-0.4,4.5,2.7,8.3,7.1,8.7c4.7,0.4,8.7-2.9,8.9-7.5C347.9,74,344.8,70.4,340.3,70.1z"/>
	</g>
	<path id="XMLID_10913_" class="st0" d="M531.3,233.4c75.3,0,149.9,0,224.8,0c0,24.9,0,49.6,0,74.7c-74.6,0-149.3,0-224.4,0
		c0,12.5,0,24.7,0,36.6c-24.8-24.8-49.5-49.5-73.9-73.9c24.2-24.2,48.9-48.9,73.6-73.6C531.3,208.7,531.3,220.8,531.3,233.4z"/>
</g>
</svg>
