<?xml version="1.0" encoding="utf-8"?>
<!-- Generator: Adobe Illustrator 19.0.0, SVG Export Plug-In . SVG Version: 6.00 Build 0)  -->
<svg version="1.1" id="Layer_1" xmlns="http://www.w3.org/2000/svg" xmlns:xlink="http://www.w3.org/1999/xlink" x="0px" y="0px"
	 viewBox="1110 -60 150 150" style="enable-background:new 1110 -60 150 150;" xml:space="preserve">
<style type="text/css">
	.st0{fill:none;stroke:#4DBEC0;stroke-width:2;stroke-miterlimit:10;}
	.st1{fill:#4DBEC0;}
</style>
<g id="XMLID_9148_">
	<path id="XMLID_9160_" class="st0" d="M1216.5,71.7c-4.9-11.2-5.2-22.1,0.2-32.4c-0.2,0-0.4,0-0.5,0c-5.6,0-10.9-1.4-15.7-4.3
		c-2.1-1.6-4.2-3.3-6.3-4.9c-1.2-1.3-2.4-2.6-3.4-4c-0.1,0-0.2,0.1-0.4,0.1c-3.1,1-6.1,0.5-8.8-1.2c-0.7-0.5-1.4-0.5-2.3-0.5
		c-1.8,0-3.7,0-5.5-0.4c-1.6-0.3-2.6-1.6-3.1-3.3c1.3-0.2,2.6-0.3,3.8-0.6c4.6-1.1,8.1-3.9,11.1-7.3c-0.2-1.4-0.4-2.7-0.5-4.1
		c-0.7-0.2-1.5,0.1-2.2,0.7c-1.8,1.6-3.6,3.5-5.6,4.8c-3.7,2.5-7.7,2.7-11.6,0.6c-3.9-2.1-5.8-5.6-5.3-10c0.1-0.5,0.1-1,0.1-1.3
		c-3.2-0.4-6.5-0.5-9.6-1.2c-3.2-0.7-5.8-2.6-7.7-5.5c0.3-0.1,0.6-0.3,0.8-0.3c3.8-0.8,6.3-3.1,7.9-6.5c0.6-1.3,0.2-2.6-0.9-3.1
		c-1.2-0.5-2.3-0.1-2.9,1.3c-1.5,3.2-4,4.6-7.4,4.3c-0.6-0.1-1.4-0.3-1.9-0.6c-3.5-2.3-5.1-5.6-4.6-9.7c0.5-4.2,3.5-7.4,7.4-8.4
		c0.5-0.1,0.9-0.2,1.2-0.3c0-1.3-0.2-2.7,0-3.9c0.4-2,1.8-3.1,3.7-3.6c0.6-0.2,0.9,0,1.2,0.6c0.4,1,0.9,2,1.6,2.9
		c2.6,3.5,7.9,3.8,10.9,0.5c0.8-0.8,0.8-1.8,0.2-2.7c-0.6-0.9-1.7-1.2-2.7-0.6c-0.6,0.3-1.2,0.8-1.9,1c-1.4,0.6-2.2,0.3-3.1-0.9
		c-1.5-2.1-1.4-3.2,0.5-4.9c2.6-2.3,6.4-2.9,9.5-1.4c0.3,0.2,0.7,0.3,1,0.5c3.1-6.3,9.4-6.9,13.7-3.8c3.8-4.7,10.3-5,14.4-0.1
		c3.8-1.9,8.2-1.1,10.8,3.8c2.2-1.1,4.5-1.3,6.7,0.1c2.2,1.3,3.1,3.3,3.2,5.8c4.6-1.2,7.2,2.6,6.1,6.1c0.5,0.1,1.1,0.2,1.6,0.3
		c2.4,0.6,4,2.7,4.2,5c2.6,0.7,5,1.8,7.4,3.1c1.1,0.9,2.3,1.8,3.4,2.7c-1.4-7.1-4-13.6-8.5-19.3c-6.2-7.8-14.3-12.6-23.7-15.5
		c-11.6-3.6-23.5-4.3-35.5-2.3c-17.6,2.9-30.5,12.5-38.6,28.4c-3.6,7.2-4.9,14.9-2.8,22.8c0.7,2.6,0.3,4.7-1.3,6.8
		c-2.8,3.8-5.5,7.7-8.1,11.7c-1.3,2.1-2.5,4.3-3.5,6.5c-0.9,2.1,0.1,4.1,2.2,4.8c1.3,0.5,2.5,1,3.8,1.4c3.2,0.8,4.7,3.1,5.1,6.1
		c0.5,3.8,0.7,7.5,1,11.3c-0.1,0-0.2,0-0.3,0c0,1.5,0,3,0,4.5c0,1.5,0,3,0.1,4.5c0.3,3.8,2.4,6.5,6.1,7.2c2.4,0.5,5,0.4,7.5,0.4
		c1.7,0,3.4-0.6,5.1-0.7c5.8-0.6,9.4,2.3,9.9,8.1c0.1,1.5,0.1,3,0.2,4.5c0.1,2.6,1.4,4.4,3.8,5.2c2.4,0.8,4.8,1.5,7.2,2
		c8.8,1.9,17.6,2.2,26.5,1.3c8.4-0.8,16.5-2.7,24.4-5.5c1.8-0.7,2.5-2.3,1.7-4.1C1217.2,73.3,1216.8,72.5,1216.5,71.7z"/>
	<path id="XMLID_9159_" class="st0" d="M1188.3-5.8c0.6-1.3,1.2-2.6,2.1-3.8c-2.3-1.1-3.6-3.1-4.6-6.3c-0.4-1.4-1.4-2-2.7-1.7
		c-1.1,0.3-1.8,1.4-1.5,2.7C1182.7-10.8,1184.8-7.7,1188.3-5.8z"/>
	<path id="XMLID_9158_" class="st0" d="M1196.9-31.7c-0.5-1.2-1-2.5-1.5-3.6c-0.6-1.3-0.4-2.5,0.6-3.1c1.1-0.7,2.4-0.3,3.1,1
		c0.7,1.3,1.3,2.7,1.7,4.1c0.3,0.9,0.6,1.1,1.5,1.1c4.3,0.2,7.7,2.1,9.9,5.9c0.8,1.3,0.6,2.6-0.5,3.2c-1.1,0.7-2.3,0.3-3.1-1
		c-2.3-3.5-5.5-4.7-10-3.6c-1,0.2-1.9,0.6-2.9,1c-1.3,0.5-2.5,0.1-3-1.1c-0.5-1.1,0-2.2,1.2-2.8
		C1194.8-30.9,1195.8-31.3,1196.9-31.7z"/>
	<path id="XMLID_9157_" class="st0" d="M1181.5-34.5c-0.1,3.7-1.1,6.2-3.3,8.1c-2.3,2.1-5.1,3.1-8.2,3.6c-1.5,0.2-2.6-0.5-2.7-1.8
		c-0.2-1.2,0.6-2,2.1-2.5c1.6-0.5,3.3-0.9,4.8-1.7c2.6-1.4,3.5-3.7,2.9-6.6c-0.1-0.6-0.3-1.2-0.4-1.7c-0.2-1.1,0.4-2.2,1.4-2.5
		c1-0.3,2.3,0.1,2.6,1.3C1181-36.9,1181.3-35.3,1181.5-34.5z"/>
	<path id="XMLID_9156_" class="st0" d="M1168.1-8.2c0.1-4.2,1.1-7.3,3.4-10c1-1.2,2.3-1.4,3.3-0.5c1,0.9,1,2,0,3.3
		c-2.3,2.8-2.9,6-1.9,9.5c0.5,1.6,0,2.8-1.3,3.1c-1.3,0.4-2.4-0.3-2.8-1.9C1168.4-6.1,1168.2-7.5,1168.1-8.2z"/>
</g>
<g id="XMLID_9144_">
	<path id="XMLID_9145_" class="st1" d="M1237.8,25.9c6.8,6.6,13.5,13.1,20.2,19.6c-1.6,1.6-2.9,2.9-4.1,4.1
		c-6.7-6.5-13.4-13.1-20.1-19.6c-13.3,10.7-31.2,6.4-39.7-4.8c-8.5-11.3-7.4-27.2,2.8-37s26-10.5,36.9-1.6
		C1244.9-4.5,1248.1,12.7,1237.8,25.9z M1216.2-16.8c-13.8,0-24.9,11.2-24.9,25.2c-0.1,13.4,11.2,24.7,24.7,24.8
		c13.9,0.1,25.2-11,25.2-24.8C1241.2-5.6,1230.1-16.8,1216.2-16.8z"/>
</g>
</svg>
