<?xml version="1.0" encoding="utf-8"?>
<!-- Generator: Adobe Illustrator 19.0.0, SVG Export Plug-In . SVG Version: 6.00 Build 0)  -->
<svg version="1.1" id="Layer_1" xmlns="http://www.w3.org/2000/svg" xmlns:xlink="http://www.w3.org/1999/xlink" x="0px" y="0px"
	 viewBox="0 0 1200 1200" style="enable-background:new 0 0 1200 1200;" xml:space="preserve">
<style type="text/css">
	.st0{fill:none;stroke:#4DBEC0;stroke-width:8;stroke-miterlimit:10;}
	.st1{fill:#4DBEC0;}
</style>
<g id="XMLID_40_">
	<g id="XMLID_9148_">
		<path id="XMLID_9160_" class="st0" d="M830.9,1023.7c-36.8-83.9-38.7-164.6,1.5-241.5c-1.4,0-2.8,0-4.1-0.1
			c-42-0.1-81.2-10.7-117.5-31.8c-15.7-12.1-31.4-24.3-47.1-36.4c-9.3-9.4-17.7-19.3-25.2-29.8c-0.9,0.2-1.7,0.4-2.7,0.7
			c-23,7.4-45.3,4-65.9-8.8c-5.5-3.4-10.5-3.7-16.8-3.5c-13.8,0.3-27.9-0.1-41.3-3.1c-12-2.6-19.5-12.2-23.1-24.9
			c10-1.5,19.4-2.2,28.5-4.4c34.3-8.3,60.5-28.8,83.1-54.4c-1.4-10.2-2.7-20.3-4.1-30.5c-5.3-1.2-11.2,0.6-16.1,5
			c-13.7,12.3-26.5,26-41.7,36.1c-27.4,18.3-57.1,20.1-86.8,4.5c-29.3-15.4-43.3-41.9-39.9-74.9c0.4-3.8,0.9-7.6,1.1-9.9
			c-24.2-2.7-48.3-3.8-71.6-8.6c-24.1-4.9-43.1-19.5-57.3-41.2c2.5-1,4.3-2,6.2-2.4c28.1-5.7,46.9-22.9,58.9-48.2
			c4.7-10,1.7-19.5-7-23.5c-8.6-3.9-17.2-0.6-21.8,9.4c-11,23.8-29.7,34-55.3,31.8c-4.8-0.4-10.2-1.9-14.1-4.6
			c-25.8-17.3-37.9-41.8-34-72.7c3.9-31.2,25.9-55,55.4-62.5c3.4-0.9,6.8-1.6,8.6-2c0-10-1.5-19.9,0.3-29
			c3-14.6,13.5-23.2,27.8-27.1c4.6-1.2,6.7-0.2,8.7,4.3c3.3,7.5,6.9,15.2,11.7,21.7c19.3,26.4,59.2,28,81.1,3.6
			c5.6-6.2,6-13.2,1.3-20.1c-4.6-6.7-12.9-8.7-20.3-4.8c-4.8,2.5-9.2,5.7-14.2,7.8c-10.1,4.4-16.7,2.3-23.1-6.7
			c-11.1-15.6-10.2-23.8,4.1-36.6c19.5-17.5,47.5-21.7,71.2-10.6c2.5,1.2,5,2.5,7.5,3.7c23.4-46.8,70-51.3,102.4-28.6
			c28-35,76.8-37.1,107.3-0.7c28.6-13.9,61.5-8,80.6,28.2c16.5-8.2,33.4-9.5,49.8,0.4c16.1,9.6,23.1,24.7,23.8,43
			c34.7-8.8,54.1,19.5,45.7,45.2c4,0.8,8,1.5,11.8,2.5c18,4.6,30.1,20.1,31.7,37.2c19.2,5.3,37.6,13.1,55.4,23.4
			c8.5,6.6,17,13.2,25.6,19.8c-10.1-52.8-29.5-101.4-63.1-143.8c-46.1-58.2-107-94.1-176.9-115.8c-86.9-27-175.7-32.1-265.2-17.3
			c-131.7,21.8-227.6,93.6-287.8,212.2c-27.2,53.7-36.4,111.2-20.9,170.5c5.1,19.4,2.1,35.2-9.4,51c-20.7,28.6-41,57.5-60.3,87.1
			c-10,15.3-18.6,31.9-26.1,48.6c-6.9,15.3,1,30.3,16.7,36c9.5,3.5,18.9,7.8,28.7,10.3c24.2,6,35.4,23.1,38.2,45.8
			c3.5,28,5,56.3,7.4,84.5c-0.8,0.1-1.6,0.1-2.5,0.2c0,11.1-0.1,22.3,0,33.4c0.1,11.1-0.1,22.3,0.8,33.4
			c2.5,28.3,17.8,48.3,45.7,54.1c18,3.8,37.2,3.3,55.8,2.9c12.6-0.3,25.1-4.2,37.7-5.5c43.2-4.5,69.8,17.3,73.6,60.4
			c1,11.1,0.9,22.3,1.4,33.4c0.8,19.2,10.1,32.9,28.3,39c17.7,5.9,35.8,11.3,54.1,15.2c65.3,13.9,131.2,16.2,197.5,9.8
			c62.4-6,122.9-19.8,181.9-40.7c13.7-4.9,18.5-17.5,12.5-30.9C836.7,1035.8,833.6,1029.8,830.9,1023.7z"/>
		<path id="XMLID_9159_" class="st0" d="M620.9,445.3c4.2-10,9.3-19.5,15.3-28.4c-16.9-8.4-27-23.1-34-47.2
			c-3-10.3-10.5-15.2-19.9-12.9c-8.5,2.1-13.5,10.1-11.1,20.1C578.6,408.1,594.7,431.6,620.9,445.3z"/>
		<path id="XMLID_9158_" class="st0" d="M685.2,252c-3.9-9.2-7.3-18.3-11.5-27c-4.7-10-3.3-18.5,4.8-23.4c8.2-4.9,18.2-2.2,23.1,7.6
			c5,9.9,9.5,20.2,12.5,30.7c1.9,6.6,4.6,8.1,11,8.4c32.4,1.7,57.6,16,74.2,44.4c5.8,10,4.3,19.1-4,24.1c-8.1,5-17.2,2.1-23.4-7.3
			c-17-26.1-41.1-34.8-74.7-26.6c-7.4,1.8-14.5,4.7-21.6,7.3c-10,3.7-18.5,0.6-22.2-8.3c-3.5-8.4-0.2-16.6,9.3-21
			C669.5,257.8,676.7,255.3,685.2,252z"/>
		<path id="XMLID_9157_" class="st0" d="M569.7,231.3c-0.5,27.4-8.3,45.9-24.7,60.4c-17.5,15.4-38.4,23.5-61.1,26.9
			c-11.4,1.7-19.1-3.7-20.5-13.4c-1.3-8.9,4.8-15.2,15.5-18.3c12.1-3.5,24.7-6.8,35.6-12.7c19.4-10.5,26-27.7,21.4-49.3
			c-0.9-4.3-2.3-8.6-3.2-13c-1.7-8.5,2.8-16.4,10.7-18.9c7.8-2.5,16.9,1.1,19.5,9.4C566.3,213.5,568.3,225.2,569.7,231.3z"/>
		<path id="XMLID_9156_" class="st0" d="M470,427.7c0.7-31.1,8.4-54.5,25.2-74.5c7.7-9.1,17.4-10.6,24.9-4
			c7.3,6.4,7.3,15.2-0.1,24.5c-17,21.2-21.6,44.7-14.2,70.8c3.4,11.8-0.3,20.6-9.8,23.2c-9.8,2.7-17.8-2.2-21-14
			C472.4,443.5,471.1,433.1,470,427.7z"/>
	</g>
	<g id="XMLID_9144_">
		<path id="XMLID_9145_" class="st1" d="M990.3,681.9c50.4,48.9,100.7,97.8,150.6,146.2c-11.7,11.6-21.6,21.6-30.7,30.6
			c-49.7-48.6-99.9-97.6-150.1-146.6c-99.5,79.7-233.2,47.5-296.3-36.1c-63.6-84.2-55.2-203.1,20.7-276.1
			c75.9-73,194-78.1,275.4-12.3C1043.3,455.1,1067,583.6,990.3,681.9z M828.7,363.2c-102.7-0.2-185.6,83.5-186,188
			c-0.4,100,83.7,184.3,184.3,184.8c104.1,0.5,188.3-82.4,188.4-185.4C1015.4,446.7,932.4,363.4,828.7,363.2z"/>
	</g>
</g>
</svg>
