<?xml version="1.0" encoding="utf-8"?>
<!-- Generator: Adobe Illustrator 19.0.0, SVG Export Plug-In . SVG Version: 6.00 Build 0)  -->
<svg version="1.1" id="Layer_1" xmlns="http://www.w3.org/2000/svg" xmlns:xlink="http://www.w3.org/1999/xlink" x="0px" y="0px"
	 viewBox="1110 -60 150 150" style="enable-background:new 1110 -60 150 150;" xml:space="preserve">
<g id="XMLID_27_">
	<g id="XMLID_15965_">
		<path id="XMLID_15966_" d="M1159.1,31.6c-2.7,0-5.1,0-7.6,0c-4.9,0-9.9-0.1-14.8,0c-2.3,0.1-3.8-0.9-4.4-3
			c-0.9-3.1-1.8-6.2-2.2-9.3c-1.5-10.3-1.6-20.7-0.6-31c0.5-4.7,1.5-9.4,2.6-14c0.7-3,1.9-3.5,5-3.5c6.9,0,13.9,0,20.8,0
			c0.6,0,1.3,0,2.1,0c0,16.2,0,32.1,0,48.2c0.7-0.2,1.2-0.3,1.7-0.5c2.4-0.6,4.2,0.2,5.8,1.9c0.5,0.5,0.8,1.2,1.1,1.8
			c2.1,3.8,2.1,3.7,6.4,3.7c1.2,0,2.2-0.4,2.3-1.6c0.1-0.9-0.2-2.1-0.8-2.6c-0.8-0.7-1-1.3-1-2.2c0-1.8,0-3.6,0-5.3
			c0-1.3-0.2-2.5,1.3-3.4c1.3-0.8,0.9-2.7-0.4-3.7c-1.7-1.2-0.7-3-0.6-4.4c0-0.5,1.5-1.4,2.3-1.4c7.6-0.1,15.2-0.1,22.8-0.1
			c2,0,2.7,1.8,3.9,2.8c0.6,0.5,1.4,1.1,2.2,1.1c3.5,0.3,6,1.9,7.4,5.1c1.4,3.2,0.9,6.2-1.4,8.8c-2.4,2.7-5.4,3.5-8.7,2.4
			c-1.3-0.4-2-0.1-2.7,0.9c-0.6,1.1-0.5,2.1,0.4,2.9c0.5,0.4,1.3,0.6,2,0.6c3.8,0.1,7.7,0,11.5,0c3.2,0,4.4,1.3,4.4,4.4
			c0,17.7,0,35.3,0,53c0,3.3-1.2,4.5-4.5,4.5c-17.3,0-34.7,0-52,0c-3.3,0-4.4-1.1-4.4-4.4c0-16.6,0-33.1,0-49.7
			C1159.1,33.1,1159.1,32.5,1159.1,31.6z M1206.9,16.9c1.9,0,3.3-1.6,3.3-3.4c-0.1-1.8-1.5-3.2-3.3-3.2c-1.8,0-3.4,1.6-3.4,3.4
			C1203.5,15.4,1205.1,16.9,1206.9,16.9z M1196.8,13.9c-1.3,0-2.5,1.2-2.5,2.6c0,1.3,1.1,2.4,2.4,2.4c1.3,0,2.5-1.1,2.5-2.4
			C1199.4,15.2,1198.2,13.9,1196.8,13.9z M1192.1,9.1c0-1.4-1.2-2.5-2.6-2.4c-1.3,0.1-2.4,1.2-2.3,2.5c0,1.4,1.2,2.4,2.6,2.4
			C1191.1,11.5,1192.1,10.4,1192.1,9.1z M1192.1,23.7c0-1.3-1-2.4-2.3-2.5c-1.4-0.1-2.6,1-2.6,2.4c0,1.3,1.1,2.4,2.4,2.5
			C1190.9,26.1,1192,25.1,1192.1,23.7z M1184.8,16.3c0-1.3-1.2-2.4-2.4-2.4c-1.3,0-2.5,1.2-2.4,2.6c0.1,1.3,1.1,2.4,2.4,2.4
			C1183.7,18.9,1184.8,17.7,1184.8,16.3z M1203.3,6.8c-1.4,0.4-2,1.2-1.9,2.4c0,1.2,0.7,2,1.9,2.2C1203.3,9.9,1203.3,8.4,1203.3,6.8
			z"/>
	</g>
	<g id="XMLID_15957_">
		<path id="XMLID_15960_" d="M1203.3-24.7c3.1-2.8,6.5-3.4,10.3-1.8c-3.2,2.1-5.5,4.8-6.5,8.5c-0.4,1.5-0.5,3.1-0.8,4.6
			c-1.4,5.9-5.1,9.9-10.7,12c-5.7,2.2-11.4,2-16.7-1.2c-4-2.3-6.2-6-7-10.5c-0.2-1.3-0.3-2.7-0.3-4c0-1.3,0.2-2.7,0.4-4.2
			c0.6,0.8,1.1,1.5,1.7,2.1c0.7,0.7,1.5,1.4,2.4,2c1.2,0.7,2.3,0.3,3-0.8c0.8-1.3,0.8-2.7,0.2-4.1c-0.6-1.5-1.4-3-2-4.5
			c-0.5-1.1-0.9-2.3-1.1-3.5c-0.8-4,2.2-7.2,5.5-8.2c0.7-0.2,1.5-0.3,2.4-0.4c-0.5,1.7-0.7,3.3-0.4,4.9c0.3,1.4,0.9,2.6,2.2,3.3
			c2.4,1.4,4.5,0.2,4.7-2.5c0.1-1.6-0.4-3-1.1-4.4c-0.4-0.8-0.8-1.6-1.4-2.2c-1.5-1.7-1.8-3.7-1.4-5.9c0.4-2.3,1.4-4.5,2.5-6.7
			c0.1,1,0.2,1.7,0.3,2.5c0.6,2.8,2.4,4.8,4.7,6.3c1.6,1.1,3.4,2.1,5.2,3c2.8,1.4,4.1,3.7,4.5,6.7c0.4,2.9-0.1,5.7-0.7,8.5
			C1203.4-25.1,1203.4-25,1203.3-24.7z M1187.8-21.2c0.1,0.1,0.1,0.2,0.1,0.4c0.6,1.5,0.4,2.5-0.8,3.5c-0.4,0.4-0.9,0.7-1.3,1.1
			c-0.9,0.8-1.6,1.7-2,2.9c-1.1,3.7,0.6,6.7,4.3,7.4c1,0.2,2,0.2,3,0.2c4.4-0.1,7-3.5,5.9-7.8C1196.1-17.5,1192.7-20.3,1187.8-21.2z
			"/>
		<path id="XMLID_15959_" d="M1198.2-55.7c-0.1,0.9-0.2,1.8-0.3,2.7c-0.2,1.1,0,2.1,0.7,3c0.3,0.4,0.6,0.9,0.8,1.3
			c1,1.7,0.5,3.7-1.2,4.9c-0.4-1.7-1.4-3-2.4-4.3c-1.4-1.8-1.3-3.3,0-5.2c0.7-0.9,1.5-1.6,2.2-2.5
			C1198-55.8,1198.1-55.7,1198.2-55.7z"/>
	</g>
</g>
</svg>
