<?xml version="1.0" encoding="utf-8"?>
<!-- Generator: Adobe Illustrator 19.0.0, SVG Export Plug-In . SVG Version: 6.00 Build 0)  -->
<svg version="1.1" id="Layer_1" xmlns="http://www.w3.org/2000/svg" xmlns:xlink="http://www.w3.org/1999/xlink" x="0px" y="0px"
	 viewBox="0 0 1200 1200" style="enable-background:new 0 0 1200 1200;" xml:space="preserve">
<g id="XMLID_27_">
	<g id="XMLID_15965_">
		<path id="XMLID_15966_" d="M479.1,722.3c-21.2,0-40.4,0-59.6,0c-39,0-78-0.5-116.9,0.2c-18,0.4-30-6.8-34.7-23.5
			c-6.8-24.3-13.8-48.8-17.5-73.6c-12-81.3-12.6-163.2-4.8-244.8c3.6-37.2,11.8-74.1,20.7-110.4c5.8-23.7,14.8-27.8,39.4-27.8
			c54.7,0,109.5,0,164.2,0c5.1,0,10.3,0,16.6,0c0,127.4,0,253.3,0,380.4c5.4-1.5,9.4-2.6,13.5-3.7c18.6-4.9,33.5,1.4,45.7,15.2
			c3.7,4.2,6.3,9.5,9,14.4c16.8,29.7,16.7,29.5,50.8,29.1c9.7-0.1,17.5-3.4,18.4-12.7c0.6-6.8-1.7-16.6-6.5-20.5
			c-6.5-5.3-7.9-10.2-7.7-17.5c0.3-14,0.1-28,0.1-42c0-10.1-1.5-19.5,10-26.9c10.2-6.6,7.3-21-3.5-28.8c-13.3-9.7-5.7-23.3-5-34.7
			c0.3-4.2,11.5-10.9,17.9-11c60-0.8,120-0.5,180-0.5c15.6,0,21.2,13.8,31,21.9c4.9,4.1,11.3,8.3,17.3,8.8
			c27.5,2.2,47.6,15.1,58.4,40.1c10.7,24.9,7.3,49-11,69.7c-18.6,21-42.3,27.4-68.9,19.3c-9.9-3-16-0.9-20.9,7.2
			c-5,8.3-3.6,16.7,3.1,22.7c3.7,3.3,10.2,4.7,15.5,4.7c30.2,0.4,60.4,0.1,90.7,0.2c25.2,0.1,35,9.9,35,35c0,139.3,0,278.5,0,417.8
			c0,26.2-9.3,35.4-35.6,35.4c-136.6,0-273.3,0-409.9,0c-25.9,0-34.8-8.9-34.8-34.6c0-130.5,0-261,0-391.5
			C479.1,734.5,479.1,729.3,479.1,722.3z M856.1,606.4c14.7-0.2,26.3-12.4,25.8-27.1c-0.5-14.3-11.9-25.5-26.1-25.5
			c-14.3,0-27.1,12.5-27,26.5C828.9,594.4,841.7,606.6,856.1,606.4z M776.6,582.8C766,582.6,757,592,757.1,603
			c0.1,10.3,9,19,19.2,19.1c10.1,0,19.5-8.9,19.9-18.8C796.6,592.8,787.1,582.9,776.6,582.8z M739,545c-0.3-11.1-9.4-19.4-20.6-18.8
			c-10.3,0.6-18.7,9.6-18.5,19.8c0.3,10.8,9.6,19.1,20.8,18.6C731.2,564.1,739.3,555.5,739,545z M739,659.8
			c0.3-10.3-8-19.1-18.4-19.6c-11.1-0.5-20.4,8-20.7,18.8c-0.2,10.1,8.3,19.2,18.6,19.8C729.4,679.4,738.7,670.8,739,659.8z
			 M681.8,601.8c-0.3-10.3-9.2-19.1-19.2-19.1c-10.6,0.1-19.7,9.7-19.3,20.4c0.4,10.5,8.9,18.9,19.3,19
			C673.2,622.1,682,612.8,681.8,601.8z M827.9,527.1c-10.8,2.8-15.5,9.3-15.2,18.9c0.3,9.5,5.3,15.6,15.2,17.7
			C827.9,551.3,827.9,539.7,827.9,527.1z"/>
	</g>
	<g id="XMLID_15957_">
		<path id="XMLID_15960_" d="M827.9,278.4c24.5-22,51-27.1,81-13.8c-25.3,16.6-43.4,38-51,67c-3.1,12-3.7,24.6-6.6,36.6
			c-11.2,46.3-39.9,77.7-84,94.6c-45.1,17.3-89.6,15.7-131.8-9.1c-31.4-18.5-49-47-55-82.7c-1.7-10.4-2.4-21.1-2.3-31.7
			c0.1-10.5,1.9-21.1,3.1-33.2c5.1,6.3,8.8,11.9,13.5,16.4c5.8,5.7,11.8,11.3,18.7,15.5c9.5,5.7,18.1,2.7,24-6.6
			c6.6-10.5,6-21.5,1.8-32.3c-4.7-12.1-10.8-23.7-15.6-35.8c-3.6-9-7.1-18.3-9-27.8c-6.3-31.7,17.5-56.9,43.7-64.4
			c5.8-1.6,11.9-2,18.9-3.2c-4.3,13.5-5.4,25.9-2.8,38.5c2.2,11,7.1,20.4,17.1,26.3c18.6,10.9,35.7,1.6,36.8-20
			c0.6-12.4-3-23.8-8.6-34.6c-3.2-6.1-6.6-12.3-11.2-17.5c-12.1-13.6-14.1-29.3-11.1-46.3c3.3-18.5,10.8-35.2,20.1-52.9
			c1,7.5,1.4,13.7,2.7,19.7c4.6,22.2,18.9,37.7,37.1,49.6c13,8.6,26.7,16.6,40.7,23.4c22.2,10.9,32.4,29.2,35.7,52.6
			c3.2,22.9-0.8,45.1-5.6,67.3C828.4,275.3,828.3,276.3,827.9,278.4z M705.6,306.5c0.4,1.1,0.7,1.9,1.1,2.8
			c4.7,11.7,3,19.4-6.5,27.9c-3.3,3-6.8,5.9-10.2,8.8c-7.1,6.3-12.9,13.5-15.8,22.8c-9,29,4.4,52.5,33.9,58.2
			c7.7,1.5,15.8,1.7,23.7,1.6c35-0.6,54.9-27.4,46.5-61.4C770.5,335.5,743.8,313.5,705.6,306.5z"/>
		<path id="XMLID_15959_" d="M787.3,34.5c-0.9,7-1.4,14-2.6,20.9c-1.5,8.7,0.3,16.5,5.4,23.7c2.3,3.3,4.4,6.8,6.4,10.4
			c7.5,13.4,3.6,29.1-9.8,38.3c-3.1-13.3-11.3-23.6-19.2-34.2c-10.7-14.5-10.6-26.4,0.3-40.8c5.2-7,11.7-13,17.7-19.5
			C786,33.7,786.7,34.1,787.3,34.5z"/>
	</g>
</g>
</svg>
