<?xml version="1.0" encoding="utf-8"?>
<!-- Generator: Adobe Illustrator 16.0.0, SVG Export Plug-In . SVG Version: 6.00 Build 0)  -->
<!DOCTYPE svg PUBLIC "-//W3C//DTD SVG 1.1//EN" "http://www.w3.org/Graphics/SVG/1.1/DTD/svg11.dtd">
<svg version="1.1" id="Layer_1" xmlns="http://www.w3.org/2000/svg" xmlns:xlink="http://www.w3.org/1999/xlink" x="0px" y="0px"
	 width="25px" height="25px" viewBox="0 0 25 25" enable-background="new 0 0 25 25" xml:space="preserve">
<g>
	<path fill-rule="evenodd" clip-rule="evenodd" fill="#FFFFFF" d="M24.976,12.928c-8.324,0-16.635,0-24.955,0
		c-0.007-0.077-0.016-0.142-0.016-0.207c-0.001-1.696-0.01-3.394,0.002-5.09c0.007-1.113,0.696-1.988,1.728-2.216
		c0.235-0.051,0.483-0.06,0.725-0.061C3.92,5.35,5.382,5.352,6.844,5.352c0.089,0,0.179,0,0.296,0c0-0.529-0.004-1.031,0.001-1.532
		c0.004-0.328-0.008-0.658,0.042-0.979c0.09-0.577,0.583-0.999,1.166-1.043c0.116-0.01,0.234-0.013,0.352-0.013
		c2.545-0.001,5.09,0,7.635-0.001c0.322,0,0.637,0.023,0.915,0.214c0.413,0.284,0.609,0.68,0.609,1.177c0,0.713,0,1.424,0,2.177
		c0.114,0,0.213,0,0.309,0c1.48,0,2.958,0.003,4.436-0.002c0.636-0.001,1.21,0.157,1.683,0.608c0.371,0.353,0.668,0.774,0.677,1.284
		C24.992,9.129,24.976,11.019,24.976,12.928z M8.947,5.335c2.387,0,4.742,0,7.11,0c0-0.591,0-1.165,0-1.753c-2.374,0-4.736,0-7.11,0
		C8.947,4.171,8.947,4.746,8.947,5.335z"/>
	<path fill-rule="evenodd" clip-rule="evenodd" fill="#FFFFFF" d="M9.375,14.311c0,0.693,0,1.366,0,2.035
		c0.003,0.724,0.339,1.063,1.063,1.065c1.38,0,2.756,0,4.132,0c0.71-0.003,1.052-0.342,1.054-1.046c0.003-0.681,0-1.361,0-2.061
		c3.127,0,6.228,0,9.359,0c0.006,0.077,0.015,0.158,0.015,0.235c0,2.119,0.006,4.233,0,6.353c-0.003,1.131-0.681,2.016-1.712,2.256
		c-0.211,0.049-0.433,0.065-0.648,0.065c-6.762,0.003-13.521,0.003-20.281,0c-1.367,0-2.336-0.911-2.349-2.255
		c-0.018-2.169-0.004-4.332-0.004-6.501c0-0.044,0.006-0.082,0.012-0.147C3.125,14.311,6.233,14.311,9.375,14.311z"/>
	<path fill-rule="evenodd" clip-rule="evenodd" fill="#FFFFFF" d="M14.275,16.062c-1.193,0-2.359,0-3.542,0c0-0.582,0-1.155,0-1.754
		c1.174,0,2.352,0,3.542,0C14.275,14.89,14.275,15.464,14.275,16.062z"/>
</g>
</svg>
