<?xml version="1.0" encoding="utf-8"?>
<!-- Generator: Adobe Illustrator 19.0.0, SVG Export Plug-In . SVG Version: 6.00 Build 0)  -->
<svg version="1.1" id="Layer_1" xmlns="http://www.w3.org/2000/svg" xmlns:xlink="http://www.w3.org/1999/xlink" x="0px" y="0px"
	 viewBox="0 0 1200 1200" style="enable-background:new 0 0 1200 1200;" xml:space="preserve">
<style type="text/css">
	.st0{fill:#4CBEC0;}
</style>
<g id="XMLID_9233_">
	<path id="XMLID_10809_" class="st0" d="M154.4,568.6C122.3,536.4,92,506,61.7,475.8c-10.6-10.5-16.5-22.9-14.5-37.9
		c2.3-17.7,12.1-30.3,28.9-36.3c17.4-6.2,33-2,45.9,10.9c30,29.7,59.7,59.7,89.6,89.5c2.5,2.5,5.1,4.9,6.7,6.5
		c38.2-26.3,75.5-52.1,113.6-78.4c-10.6-17.5-21.8-36.1-33.1-54.8c-9.3-15.4-18.8-30.7-27.9-46.1c-13.4-22.7-7.5-48.9,13.6-61.8
		c21.4-13,47.2-6.5,61.1,16.1c20.4,33.1,40.3,66.5,60.4,99.8c1.8,3,3.8,6,4.9,7.8c31.4-9,61.8-18.8,92.8-26.1
		c21.5-5,43.8-6.9,65.9-9.4c6.9-0.8,8.6-3,8.6-9.5c-0.2-38-0.4-75.9,0-113.9c0.2-22.2,16-39.3,37.6-42.1
		c21.7-2.8,41.5,9.7,47.5,30.6c1.6,5.5,1.8,11.6,1.9,17.4c0.2,36.3,0.1,72.7,0.1,109c0,3.6,0,7.1,0,9c41.7,11.7,82.3,23,124,34.7
		c20.8-34.4,42.6-70.4,64.3-106.5c8.3-13.8,19.9-22.3,36.4-23.2c17.2-0.9,30.7,6,39.7,20.5c9.1,14.9,9.1,30.5,0.3,45.6
		c-15.3,25.9-31,51.5-46.6,77.2c-5.2,8.7-10.5,17.4-15.4,25.5c37.7,26,75.2,51.9,113.6,78.4c1.6-1.5,4.2-3.9,6.7-6.3
		c29.9-29.8,59.7-59.8,89.6-89.5c13-12.9,28.5-17.2,45.9-11c16.8,6,26.7,18.5,29,36.3c2,15-3.8,27.4-14.4,37.9
		c-27.8,27.7-55.5,55.6-83.3,83.3c-2.5,2.5-5.4,4.7-10.8,11.5c3.3,1.6,7.3,2.4,9.8,4.8c39.5,38.4,76.4,79.1,109.5,123.1
		c13.4,17.7,13.9,34,0.6,51.2c-87.6,113.3-190.2,209.7-316.9,278.3c-60.5,32.8-124.7,55.3-193.3,63.6
		c-87.5,10.6-171.1-5.1-251.6-39.8c-86.3-37.2-161.5-91-230.6-153.9c-48.8-44.4-93.4-92.6-133.4-145c-16-21-16-35.6,0-56.7
		c32.4-42.9,68.5-82.6,107-120.1C147.7,573.4,150.7,571.5,154.4,568.6z M600.5,464.9C457.3,464.6,341,580,340.5,722.9
		C340,866.5,455.7,983.7,598.5,984c143.7,0.4,260.4-115.1,261-258.2C860,581.6,744.5,465.2,600.5,464.9z M846.5,938.4
		c92.6-56.9,170.4-130.2,239.1-213.4c-41.7-61.6-203.8-205.8-239.5-213.6C950.3,632.3,953.6,812.8,846.5,938.4z M353.4,939.3
		C247.2,795.1,247,652.5,353.9,509.1c-92.7,58-170.8,131.5-240.1,215.3C183.5,808.4,261.1,881.5,353.4,939.3z"/>
	<path id="XMLID_10677_" class="st0" d="M570.8,577.7c44.5-12.6,118.2,4.1,157.3,67.8c36.5,59.5,27.4,136.7-22.1,185.7
		c-49.9,49.4-127.5,57.7-186.7,20.1c-60.3-38.3-81.4-111-63.5-167.5c16.9,26.3,40.3,40.7,71.1,40.4c22.1-0.2,41.2-9,56.7-25.1
		C611.2,670.2,617.8,615,570.8,577.7z"/>
</g>
</svg>
