<?xml version="1.0" encoding="utf-8"?>
<!-- Generator: Adobe Illustrator 19.0.0, SVG Export Plug-In . SVG Version: 6.00 Build 0)  -->
<svg version="1.1" id="Layer_1" xmlns="http://www.w3.org/2000/svg" xmlns:xlink="http://www.w3.org/1999/xlink" x="0px" y="0px"
	 viewBox="1110 -60 150 150" style="enable-background:new 1110 -60 150 150;" xml:space="preserve">
<style type="text/css">
	.st0{fill:#4CBEC0;}
</style>
<g id="XMLID_9233_">
	<path id="XMLID_10809_" class="st0" d="M1132.2,6.3c-3.8-3.8-7.4-7.4-10.9-10.9c-1.2-1.2-1.9-2.7-1.7-4.5c0.3-2.1,1.4-3.6,3.4-4.3
		c2.1-0.7,3.9-0.2,5.4,1.3c3.5,3.5,7,7,10.6,10.5c0.3,0.3,0.6,0.6,0.8,0.8c4.5-3.1,8.9-6.1,13.4-9.2c-1.2-2.1-2.6-4.3-3.9-6.5
		c-1.1-1.8-2.2-3.6-3.3-5.4c-1.6-2.7-0.9-5.8,1.6-7.3c2.5-1.5,5.6-0.8,7.2,1.9c2.4,3.9,4.7,7.8,7.1,11.8c0.2,0.4,0.4,0.7,0.6,0.9
		c3.7-1.1,7.3-2.2,10.9-3.1c2.5-0.6,5.2-0.8,7.8-1.1c0.8-0.1,1-0.4,1-1.1c0-4.5,0-8.9,0-13.4c0-2.6,1.9-4.6,4.4-5
		c2.6-0.3,4.9,1.1,5.6,3.6c0.2,0.6,0.2,1.4,0.2,2.1c0,4.3,0,8.6,0,12.8c0,0.4,0,0.8,0,1.1c4.9,1.4,9.7,2.7,14.6,4.1
		c2.5-4.1,5-8.3,7.6-12.5c1-1.6,2.3-2.6,4.3-2.7c2-0.1,3.6,0.7,4.7,2.4c1.1,1.8,1.1,3.6,0,5.4c-1.8,3.1-3.7,6.1-5.5,9.1
		c-0.6,1-1.2,2.1-1.8,3c4.4,3.1,8.9,6.1,13.4,9.2c0.2-0.2,0.5-0.5,0.8-0.7c3.5-3.5,7-7,10.6-10.5c1.5-1.5,3.4-2,5.4-1.3
		c2,0.7,3.1,2.2,3.4,4.3c0.2,1.8-0.4,3.2-1.7,4.5c-3.3,3.3-6.5,6.6-9.8,9.8c-0.3,0.3-0.6,0.6-1.3,1.4c0.4,0.2,0.9,0.3,1.2,0.6
		c4.7,4.5,9,9.3,12.9,14.5c1.6,2.1,1.6,4,0.1,6c-10.3,13.4-22.4,24.7-37.3,32.8c-7.1,3.9-14.7,6.5-22.8,7.5
		c-10.3,1.2-20.2-0.6-29.6-4.7c-10.2-4.4-19-10.7-27.2-18.1c-5.8-5.2-11-10.9-15.7-17.1c-1.9-2.5-1.9-4.2,0-6.7
		c3.8-5.1,8.1-9.7,12.6-14.2C1131.4,6.8,1131.8,6.6,1132.2,6.3z M1184.8-6c-16.9,0-30.6,13.6-30.6,30.4
		c-0.1,16.9,13.6,30.7,30.4,30.8c16.9,0,30.7-13.6,30.8-30.4C1215.4,7.8,1201.8-5.9,1184.8-6z M1213.8,49.8
		c10.9-6.7,20.1-15.3,28.2-25.1c-4.9-7.3-24-24.2-28.2-25.2C1226,13.8,1226.4,35,1213.8,49.8z M1155.7,49.9
		c-12.5-17-12.5-33.8,0.1-50.7c-10.9,6.8-20.1,15.5-28.3,25.4C1135.7,34.5,1144.8,43.1,1155.7,49.9z"/>
	<path id="XMLID_10677_" class="st0" d="M1181.3,7.3c5.2-1.5,13.9,0.5,18.5,8c4.3,7,3.2,16.1-2.6,21.9c-5.9,5.8-15,6.8-22,2.4
		c-7.1-4.5-9.6-13.1-7.5-19.7c2,3.1,4.7,4.8,8.4,4.8c2.6,0,4.9-1.1,6.7-3C1186,18.2,1186.8,11.7,1181.3,7.3z"/>
</g>
</svg>
