<?xml version="1.0" encoding="utf-8"?>
<!-- Generator: Adobe Illustrator 19.0.0, SVG Export Plug-In . SVG Version: 6.00 Build 0)  -->
<svg version="1.1" id="Layer_1" xmlns="http://www.w3.org/2000/svg" xmlns:xlink="http://www.w3.org/1999/xlink" x="0px" y="0px"
	 viewBox="685 -85 200 200" style="enable-background:new 685 -85 200 200;" xml:space="preserve">
<style type="text/css">
	.st0{fill:#4DBFC0;}
</style>
<g id="XMLID_11043_">
	<path id="XMLID_11044_" class="st0" d="M686.3-79.8c0.4,0.7,0.7,1.3,1,1.8c11.4,22.9,22.8,45.8,34.2,68.7
		c12.7,25.4,25.3,50.8,37.9,76.2c7.2,14.4,14.3,28.8,21.4,43.2c1,2,2.3,2.9,4.6,2.9c5.3-0.2,10.6-0.1,15.8,0
		c2.2,0.1,3.5-0.7,4.3-2.7c8-18.4,16-36.7,24.1-55.1c9-20.5,17.9-40.9,26.9-61.4c3.7-8.4,7.3-16.7,11-25.1c1.4-3.2,0.1-5.3-3.5-5.3
		c-15.2,0-30.3,0-45.5,0c-2.6,0-3.4,0.6-4.2,3C808.2-15.2,802,3,795.8,21.3c-0.5,1.6-1.3,2.9-3.1,2.9c-1.8,0.1-2.8-1-3.5-2.5
		c-11.1-23.5-22.2-47-33.3-70.5C750.7-59.9,745.5-71,740.3-82c-0.3-0.6-0.6-1.2-0.9-1.8c0.6-0.4,1.2-0.2,1.8-0.2
		c46.7,0,93.3,0,140,0c3.3,0,4.1,0.8,4.1,4.2c0,63.6,0,127.1,0,190.7c0,3.4-0.9,4.3-4.3,4.3c-63.6,0-127.1,0-190.7,0
		c-3.4,0-4.2-0.8-4.2-4.1c0-62.9,0-125.9,0-188.8C686-78.4,685.9-79,686.3-79.8z"/>
</g>
</svg>
