<?xml version="1.0" encoding="utf-8"?>
<!-- Generator: Adobe Illustrator 19.1.0, SVG Export Plug-In . SVG Version: 6.00 Build 0)  -->
<svg version="1.1" id="Layer_1" xmlns="http://www.w3.org/2000/svg" xmlns:xlink="http://www.w3.org/1999/xlink" x="0px" y="0px"
	 viewBox="344 246 300 300" style="enable-background:new 344 246 300 300;" xml:space="preserve">
<style type="text/css">
	.st0{fill:#F5835F;}
</style>
<g id="XMLID_11043_">
	<path id="XMLID_11037_" class="st0" d="M353.4,261c0.5,1,1,1.8,1.4,2.7c16.6,33.2,33.2,66.4,49.7,99.7
		c18.3,36.8,36.7,73.7,55,110.6c10.4,20.9,20.8,41.8,31.1,62.7c1.5,3,3.3,4.3,6.7,4.2c7.7-0.2,15.3-0.2,23,0c3.1,0.1,5-1,6.3-3.9
		c11.6-26.7,23.3-53.3,34.9-80c13-29.7,26-59.4,39-89.1c5.3-12.1,10.6-24.2,16-36.4c2-4.7,0.1-7.7-5-7.7c-22,0-44,0-66,0
		c-3.7,0-5,0.9-6.1,4.4c-9,26.5-18,53-27,79.5c-0.8,2.3-1.8,4.1-4.5,4.3c-2.7,0.1-4-1.4-5-3.7c-16.1-34.1-32.2-68.2-48.3-102.4
		c-7.6-16-15.1-32.1-22.7-48.1c-0.4-0.9-0.9-1.7-1.4-2.6c0.8-0.6,1.7-0.3,2.6-0.3c67.7,0,135.4,0,203.1,0c4.8,0,6,1.2,6,6.1
		c0,92.2,0,184.5,0,276.7c0,4.9-1.4,6.3-6.2,6.3c-92.2,0-184.5,0-276.7,0c-4.9,0-6.1-1.2-6.1-6c0-91.3,0-182.7,0-274
		C352.9,263.1,352.7,262.1,353.4,261z"/>
</g>
</svg>
