<?xml version="1.0" encoding="utf-8"?>
<!-- Generator: Adobe Illustrator 19.0.0, SVG Export Plug-In . SVG Version: 6.00 Build 0)  -->
<svg version="1.1" id="Layer_1" xmlns="http://www.w3.org/2000/svg" xmlns:xlink="http://www.w3.org/1999/xlink" x="0px" y="0px"
	 viewBox="685 -85 200 200" style="enable-background:new 685 -85 200 200;" xml:space="preserve">
<style type="text/css">
	.st0{fill:#F5835F;}
</style>
<g id="XMLID_11043_">
	<path id="XMLID_11037_" class="st0" d="M685.3-80.7c0.4,0.7,0.7,1.3,1,1.8c11.5,23,22.9,46,34.4,68.9c12.7,25.5,25.4,51,38.1,76.5
		c7.2,14.4,14.4,28.9,21.5,43.4c1,2.1,2.3,3,4.6,2.9c5.3-0.1,10.6-0.1,15.9,0c2.2,0.1,3.5-0.7,4.3-2.7c8-18.5,16.1-36.9,24.1-55.3
		c9-20.6,18-41.1,27-61.6c3.7-8.4,7.4-16.8,11-25.2c1.4-3.3,0.1-5.3-3.5-5.3c-15.2,0-30.4,0-45.7,0c-2.6,0-3.4,0.6-4.2,3
		c-6.2,18.3-12.5,36.6-18.7,55c-0.5,1.6-1.3,2.9-3.1,3c-1.8,0.1-2.8-1-3.5-2.5c-11.1-23.6-22.3-47.2-33.4-70.8
		c-5.2-11.1-10.5-22.2-15.7-33.3c-0.3-0.6-0.6-1.2-0.9-1.8c0.6-0.4,1.2-0.2,1.8-0.2c46.8,0,93.7,0,140.5,0c3.3,0,4.1,0.8,4.1,4.2
		c0,63.8,0,127.6,0,191.4c0,3.4-0.9,4.3-4.3,4.3c-63.8,0-127.6,0-191.4,0c-3.4,0-4.2-0.8-4.2-4.1c0-63.2,0-126.4,0-189.6
		C685-79.4,684.9-80,685.3-80.7z"/>
</g>
</svg>
