<?xml version="1.0" encoding="utf-8"?>
<!-- Generator: Adobe Illustrator 19.1.0, SVG Export Plug-In . SVG Version: 6.00 Build 0)  -->
<svg version="1.1" id="Layer_1" xmlns="http://www.w3.org/2000/svg" xmlns:xlink="http://www.w3.org/1999/xlink" x="0px" y="0px"
	 viewBox="344 246 300 300" style="enable-background:new 344 246 300 300;" xml:space="preserve">
<style type="text/css">
	.st0{fill:#4DBFC0;}
</style>
<g id="XMLID_11043_">
	<path id="XMLID_11044_" class="st0" d="M348.5,256.4c0.6,1,1.1,1.8,1.5,2.7c16.8,33.7,33.6,67.3,50.3,101
		c18.6,37.3,37.2,74.7,55.8,112c10.5,21.2,21.1,42.3,31.5,63.5c1.5,3,3.4,4.3,6.8,4.2c7.7-0.2,15.5-0.2,23.3,0
		c3.2,0.1,5.1-1.1,6.4-4c11.7-27,23.6-54,35.4-81c13.2-30.1,26.3-60.2,39.5-90.2c5.4-12.3,10.8-24.6,16.1-36.8
		c2.1-4.7,0.1-7.8-5.1-7.8c-22.3,0-44.6,0-66.9,0c-3.8,0-5,0.9-6.2,4.5c-9.1,26.8-18.3,53.7-27.4,80.5c-0.8,2.3-1.8,4.2-4.6,4.3
		c-2.7,0.1-4.1-1.4-5.1-3.7c-16.3-34.6-32.6-69.1-48.9-103.7c-7.7-16.3-15.3-32.5-23-48.8c-0.4-0.9-0.9-1.7-1.4-2.6
		c0.9-0.6,1.8-0.3,2.6-0.3c68.6,0,137.2,0,205.8,0c4.9,0,6.1,1.2,6.1,6.2c0,93.4,0,186.9,0,280.4c0,5-1.4,6.3-6.3,6.3
		c-93.4,0-186.9,0-280.4,0c-4.9,0-6.2-1.2-6.2-6.1c0-92.5,0-185.1,0-277.6C348.2,258.5,347.9,257.5,348.5,256.4z"/>
</g>
</svg>
