<?xml version="1.0" encoding="utf-8"?>
<!-- Generator: Adobe Illustrator 19.0.0, SVG Export Plug-In . SVG Version: 6.00 Build 0)  -->
<svg version="1.1" id="Layer_1" xmlns="http://www.w3.org/2000/svg" xmlns:xlink="http://www.w3.org/1999/xlink" x="0px" y="0px"
	 viewBox="0 0 1200 1200" style="enable-background:new 0 0 1200 1200;" xml:space="preserve">
<style type="text/css">
	.st0{fill:#4CBEC0;}
</style>
<g id="XMLID_41_">
	<path id="XMLID_10597_" class="st0" d="M504.3,291.9c0-40.7-0.5-81,0.2-121.3c0.3-17.1,16.3-31,34.2-32c19.3-1.1,35.5,10,39.5,27.5
		c1,4.1,1.4,8.5,1.5,12.7c0.1,34.2-0.1,68.3,0.2,102.5c0.1,8.5-1.9,13.5-11.8,13.2c-10-0.2-9.8-6.4-9.7-13.5
		c0.2-17.5,0.1-35,0.1-53.3c-11.2,0-21.4,0-33.3,0c0,17.3,0.1,34.3,0,51.3C525,295.1,523.4,296.2,504.3,291.9z M558.3,204.9
		c0-11.6,1.8-21.9-0.6-31.2c-1.5-5.8-8.7-13-14.5-14.1c-4.7-0.9-14.9,5.3-15.8,9.7c-2.3,11.4-0.8,23.6-0.8,35.6
		C537.8,204.9,547.2,204.9,558.3,204.9z"/>
	<path id="XMLID_10593_" class="st0" d="M442.7,138c23.4-0.1,41.5,20.3,37.7,43.3c-0.6,3.3-6.5,8.2-9.6,8.1
		c-4.1-0.2-11-4.6-11.3-7.7c-0.8-10.6-1.3-21-14.1-22.5c-5-0.6-12.4,2.7-15.6,6.7c-8.6,10.8,1.4,18.1,7.2,25.7
		c10.9,14.3,22.1,28.5,33.2,42.7c12.9,16.5,14,29.3,3.8,43.8c-9.7,13.8-28.2,19.5-44.3,13.7c-15.7-5.6-25.3-21.4-25-39.2
		c0.2-9.1,4.2-11.2,12.3-11.1c10.1,0,9.6,6.5,9.9,13.5c0.6,13.3,8.4,20.2,19.6,17.9c12.1-2.5,16.1-14.7,8-25.3
		c-13.2-17.3-26.3-34.8-40.4-51.4c-10.3-12.1-11.8-24.3-4.7-38C416.2,144.7,427.7,138.3,442.7,138z"/>
	<path id="XMLID_10592_" class="st0" d="M706.5,158.4c0,16,0,30.4,0,46.6c7.6,0,14.6,0.2,21.5-0.1c8.1-0.3,12.3,3.8,10.2,11.1
		c-1.2,4-5.9,8.8-9.9,9.8c-6.6,1.6-13.9,0.4-21.7,0.4c0,16,0,30.4,0,46.7c6.8,0,13.3,0.3,19.8-0.1c7.9-0.4,12.5,1.6,12.5,10.9
		c-0.1,8.6-4.4,10.3-11.6,10.3c-50.9-0.1-42.8,4-43.2-40.3c-0.3-33.2,0.2-66.5-0.2-99.7c-0.2-11.4,3.9-16.9,15.7-16.4
		c10,0.4,20-0.7,29.9,0.5c3.4,0.4,9,6.1,8.7,8.8c-0.5,4-4.7,9.9-8.4,10.8C722.5,159.6,714.7,158.4,706.5,158.4z"/>
	<g id="XMLID_40_">
		<g id="XMLID_10605_">
			<path id="XMLID_10606_" class="st0" d="M905.1,591.7c0,159.7-0.9,319.4,0.5,479.1c0.5,58.1-43.1,89.5-89.9,89.4
				c-148.7-0.2-297.3,0-446-0.1c-42.7,0-76.7-23.4-86.3-59.7c-2.4-9.1-2.9-19-2.9-28.5c-0.1-320.5,0.4-640.9-0.6-961.4
				c-0.2-58.2,42.9-89.5,89.8-89.4c65.6,0.2,131.2,0,196.8,0c83.1,0,166.1,0,249.2,0c24.8,0,47,7.1,65.3,24.5
				c17.7,16.8,24.1,37.7,24.1,61.7C905,268.7,905.1,430.2,905.1,591.7z M875.5,1038.5c0-307.2,0-613.2,0-919.2
				c-189,0-377.3,0-565.6,0c0,306.8,0,612.8,0,919.2C498.8,1038.5,686.8,1038.5,875.5,1038.5z M593.3,1079.2
				c-22.1,0-44.1-0.1-66.2,0c-15.1,0.1-19.7,4.8-19.9,19.7c-0.2,17.8,4.1,23,19.9,23.1c43.7,0.2,87.5,0.2,131.2,0
				c15.8-0.1,20.1-5.3,19.9-23.1c-0.1-14.8-4.8-19.6-19.9-19.6C636.7,1079.1,615,1079.2,593.3,1079.2z M592.4,69.8
				c16.7,0,33.4,0.3,50.1-0.2c3-0.1,5.9-3.2,8.9-4.9c-3.1-1.7-6.1-4.8-9.2-4.8c-33.1-0.4-66.1-0.4-99.2,0c-3,0-5.9,3.4-8.8,5.1
				c3.1,1.6,6.1,4.5,9.2,4.6C559.7,70.1,576,69.8,592.4,69.8z M776.4,51.5c-8.7-0.6-16,5.6-16.8,14.3c-0.8,8.8,5.2,16.1,13.9,16.9
				c9.2,0.9,16.8-5.6,17.3-14.7C791.3,59.2,785.1,52.2,776.4,51.5z"/>
		</g>
		<path id="XMLID_10602_" class="st0" d="M423.3,535.2c0-65.1,0-130.3,0-195.4c0-17.7,0.4-18.1,15.2-18.1c103.4,0,206.9,0,310.3,0
			c14.3,0,15.3,1.2,15.3,18.4c0,129.8,0,259.6,0,389.4c0,17.6-1.4,19.3-16.1,19.3c-103.1,0-206.1,0-309.2,0
			c-14.8,0-15.5-1-15.6-19.6C423.3,664.6,423.3,599.9,423.3,535.2z M438.2,729.6c104.1,0,206.9,0,310.3,0c0-130.4,0-259.9,0-389.8
			c-103.9,0-207,0-310.3,0C438.2,470.1,438.2,599.3,438.2,729.6z"/>
		<path id="XMLID_10601_" class="st0" d="M606.8,848.1c59.1,0,118.3,0,177.4,0c4,0,8.4-0.8,12,0.5c3.2,1.2,8.2,5.5,7.7,7.2
			c-0.9,3.5-4.4,7.1-7.8,8.9c-2.8,1.5-7,0.5-10.6,0.5c-119.6,0-239.3,0-358.9,0c-1.8,0-4,0.7-5.3-0.1c-4.6-2.8-9-6.1-13.4-9.2
			c4.5-2.6,8.9-7.4,13.4-7.5c40.8-0.6,81.5-0.4,122.3-0.4C564.7,848.1,585.8,848.1,606.8,848.1z"/>
		<path id="XMLID_10600_" class="st0" d="M606.5,887.9c59.6,0,119.2,0,178.8,0c3.6,0,7.7-1,10.6,0.5c3.4,1.7,7.1,5.3,8.1,8.7
			c0.5,1.8-4.4,5.9-7.5,7.5c-2.5,1.3-6.1,0.5-9.3,0.5c-120.5,0-241.1,0-361.6,0c-2.2,0-5,0.8-6.6-0.2c-4-2.5-7.4-5.8-11.1-8.8
			c3.5-2.7,6.6-6.2,10.5-7.9c3-1.3,7.1-0.3,10.6-0.3C488.2,887.9,547.4,887.9,606.5,887.9z"/>
		<path id="XMLID_10596_" class="st0" d="M606.8,808.6c59.6,0,119.2,0,178.7,0c3.6,0,7.5-0.8,10.6,0.5c3.2,1.3,5.7,4.6,8.4,7
			c-2.8,3-5.1,6.9-8.5,8.6c-2.9,1.5-7,0.4-10.6,0.4c-119.6,0-239.2,0-358.8,0c-2.7,0-5.9,0.9-7.9-0.2c-4-2.3-7.3-5.8-10.9-8.8
			c3.6-2.5,7.1-7,10.8-7.1c21.9-0.7,43.9-0.4,65.8-0.4C525.2,808.6,566,808.6,606.8,808.6z"/>
		<path id="XMLID_10595_" class="st0" d="M606.8,984.4c-60,0-120,0-180.1,0c-4,0-8.3,0.7-12-0.6c-2.7-0.9-6.7-4.7-6.4-6.7
			c0.4-3.1,3.4-6.9,6.3-8.5c2.8-1.5,7-0.6,10.6-0.6c120.5,0,241,0,361.5,0c3.1,0,6.9-1,9.3,0.3c3.4,1.9,5.8,5.6,8.6,8.5
			c-2.7,2.5-5.1,5.8-8.3,7.1c-3.1,1.2-7.1,0.4-10.6,0.4C726,984.4,666.4,984.4,606.8,984.4z"/>
		<path id="XMLID_10594_" class="st0" d="M606.8,944.7c-59.6,0-119.2,0-178.7,0c-4,0-8.4,0.8-12-0.5c-3.2-1.1-8.1-5.4-7.6-7
			c0.9-3.5,4.4-6.9,7.7-8.8c2.3-1.4,6.1-0.4,9.2-0.4c120.5,0,241,0,361.5,0c3.1,0,6.9-1,9.3,0.4c3.4,2,5.7,5.7,8.5,8.7
			c-2.8,2.5-5.2,5.9-8.4,7.1c-3.6,1.3-8,0.6-12,0.6C725,944.7,665.9,944.7,606.8,944.7z"/>
		<path id="XMLID_10591_" class="st0" d="M627.2,273.1c8.9,0,15.5,0.2,22.1-0.1c7.4-0.3,11.5,1.9,11.6,10.3
			c0.1,8.2-3.5,11.2-11.1,10.9c-0.5,0-0.9,0-1.4,0c-49.8-0.1-41.4,4-41.9-39.9c-0.4-34.7,0-69.3-0.2-104c0-7.5,0.7-12.7,10.4-12.7
			c9.7,0,10.5,5.3,10.4,12.8c-0.2,35.1-0.1,70.3-0.1,105.4C627.2,261,627.2,266.1,627.2,273.1z"/>
		<path id="XMLID_10583_" class="st0" d="M593.4,675.6c-22.9,0-45.9-0.2-68.8,0.1c-9,0.1-12.5-3.1-12.4-12c0.3-29-0.2-57.9,0.3-86.9
			c0.1-8.2-2.5-13-10.3-15.4c-2.9-0.9-5.7-2.5-8.5-3.8c-23-10.7-23.2-5.6-18-34c6.1-33.4,25.5-59.7,53.5-78.8
			c7-4.8,19.2-2.6,29.1-2.4c1.8,0,4.4,5.6,5.1,9c3.2,14.9,13.2,23.3,28.4,23.3c15.3,0,26.1-8.3,28.3-23.1c1.1-7.6,4.5-10.2,12-10.8
			c13.2-1.1,23.9,2.3,33.9,11.2c23.9,21.5,41.3,46.3,46.5,78.3c2.6,16.1,2.4,19-13.3,24.1c-19.7,6.3-26.6,17.1-24.6,37.6
			c2.2,23.4,0.3,47.2,0.6,70.9c0.1,9.1-3.4,13.1-13.1,12.9C639.3,675.3,616.4,675.6,593.4,675.6z M669.9,552.7
			c7.5-3.4,13.6-6.8,20.2-9.1c7.2-2.4,9-6.2,7.7-13.6c-5-28.2-20.8-49.7-42.3-67.6c-5.2-4.3-12.9-5.8-19.8-8.8
			c-7.1,22.8-20.3,34.3-41.4,35.1c-23.7,0.9-38.5-11.3-45.9-34.2c-5.2,1.4-10.9,1.4-14.3,4.1c-22.8,17.9-38.5,40.5-44.6,69
			c-1.7,7.9-0.3,13.2,8.7,16.6c20.3,7.7,14,10.7,29-6.4c1.8-2,3.1-4.8,5.4-5.9c4-1.9,8.4-2.8,12.7-4c-0.6,4.3,0.5,10.5-2,12.7
			c-15.3,13.1-18.1,29.3-17.1,48.1c1.3,23.8,0.3,47.8,0.3,72.1c45.1,0,88.8,0,133.7,0c0-21.2-1-41.7,0.3-62.2
			c1.4-22.5-0.7-43.1-20.4-58.2c-0.3-0.2-0.7-0.6-0.7-0.9c-0.4-3.7-0.7-7.5-1-11.2c4,0.7,9.3,0.1,11.8,2.4
			C657.2,537.3,663.1,544.9,669.9,552.7z"/>
	</g>
</g>
</svg>
