<?xml version="1.0" encoding="utf-8"?>
<!-- Generator: Adobe Illustrator 19.0.0, SVG Export Plug-In . SVG Version: 6.00 Build 0)  -->
<svg version="1.1" id="Layer_1" xmlns="http://www.w3.org/2000/svg" xmlns:xlink="http://www.w3.org/1999/xlink" x="0px" y="0px"
	 viewBox="1110 -60 150 150" style="enable-background:new 1110 -60 150 150;" xml:space="preserve">
<style type="text/css">
	.st0{fill:#4CBEC0;}
</style>
<g id="XMLID_41_">
	<path id="XMLID_10597_" class="st0" d="M1175.9-23.1c0-5.3-0.1-10.5,0-15.7c0-2.2,2.1-4,4.4-4.1c2.5-0.1,4.6,1.3,5.1,3.5
		c0.1,0.5,0.2,1.1,0.2,1.6c0,4.4,0,8.8,0,13.2c0,1.1-0.2,1.7-1.5,1.7c-1.3,0-1.3-0.8-1.3-1.7c0-2.3,0-4.5,0-6.9c-1.4,0-2.8,0-4.3,0
		c0,2.2,0,4.4,0,6.6C1178.6-22.6,1178.4-22.5,1175.9-23.1z M1182.9-34.3c0-1.5,0.2-2.8-0.1-4c-0.2-0.7-1.1-1.7-1.9-1.8
		c-0.6-0.1-1.9,0.7-2,1.3c-0.3,1.5-0.1,3-0.1,4.6C1180.2-34.3,1181.5-34.3,1182.9-34.3z"/>
	<path id="XMLID_10593_" class="st0" d="M1168-42.9c3,0,5.4,2.6,4.9,5.6c-0.1,0.4-0.8,1.1-1.2,1c-0.5,0-1.4-0.6-1.5-1
		c-0.1-1.4-0.2-2.7-1.8-2.9c-0.6-0.1-1.6,0.3-2,0.9c-1.1,1.4,0.2,2.3,0.9,3.3c1.4,1.8,2.9,3.7,4.3,5.5c1.7,2.1,1.8,3.8,0.5,5.7
		c-1.3,1.8-3.6,2.5-5.7,1.8c-2-0.7-3.3-2.8-3.2-5.1c0-1.2,0.5-1.4,1.6-1.4c1.3,0,1.2,0.8,1.3,1.7c0.1,1.7,1.1,2.6,2.5,2.3
		c1.6-0.3,2.1-1.9,1-3.3c-1.7-2.2-3.4-4.5-5.2-6.6c-1.3-1.6-1.5-3.1-0.6-4.9C1164.5-42,1166-42.9,1168-42.9z"/>
	<path id="XMLID_10592_" class="st0" d="M1202-40.3c0,2.1,0,3.9,0,6c1,0,1.9,0,2.8,0c1,0,1.6,0.5,1.3,1.4c-0.2,0.5-0.8,1.1-1.3,1.3
		c-0.9,0.2-1.8,0.1-2.8,0.1c0,2.1,0,3.9,0,6c0.9,0,1.7,0,2.6,0c1-0.1,1.6,0.2,1.6,1.4c0,1.1-0.6,1.3-1.5,1.3c-6.6,0-5.5,0.5-5.6-5.2
		c0-4.3,0-8.6,0-12.9c0-1.5,0.5-2.2,2-2.1c1.3,0.1,2.6-0.1,3.9,0.1c0.4,0.1,1.2,0.8,1.1,1.1c-0.1,0.5-0.6,1.3-1.1,1.4
		C1204.1-40.1,1203.1-40.3,1202-40.3z"/>
	<g id="XMLID_40_">
		<g id="XMLID_10605_">
			<path id="XMLID_10606_" class="st0" d="M1227.6,15.6c0,20.6-0.1,41.2,0.1,61.8c0.1,7.5-5.6,11.5-11.6,11.5c-19.2,0-38.4,0-57.6,0
				c-5.5,0-9.9-3-11.1-7.7c-0.3-1.2-0.4-2.5-0.4-3.7c0-41.4,0.1-82.7-0.1-124.1c0-7.5,5.5-11.5,11.6-11.5c8.5,0,16.9,0,25.4,0
				c10.7,0,21.4,0,32.2,0c3.2,0,6.1,0.9,8.4,3.2c2.3,2.2,3.1,4.9,3.1,8C1227.6-26,1227.6-5.2,1227.6,15.6z M1223.8,73.3
				c0-39.6,0-79.1,0-118.6c-24.4,0-48.7,0-73,0c0,39.6,0,79.1,0,118.6C1175.2,73.3,1199.5,73.3,1223.8,73.3z M1187.4,78.5
				c-2.9,0-5.7,0-8.5,0c-1.9,0-2.5,0.6-2.6,2.5c0,2.3,0.5,3,2.6,3c5.6,0,11.3,0,16.9,0c2,0,2.6-0.7,2.6-3c0-1.9-0.6-2.5-2.6-2.5
				C1193,78.5,1190.2,78.5,1187.4,78.5z M1187.3-51.7c2.2,0,4.3,0,6.5,0c0.4,0,0.8-0.4,1.1-0.6c-0.4-0.2-0.8-0.6-1.2-0.6
				c-4.3-0.1-8.5-0.1-12.8,0c-0.4,0-0.8,0.4-1.1,0.7c0.4,0.2,0.8,0.6,1.2,0.6C1183.1-51.7,1185.2-51.7,1187.3-51.7z M1211-54.1
				c-1.1-0.1-2.1,0.7-2.2,1.8c-0.1,1.1,0.7,2.1,1.8,2.2c1.2,0.1,2.2-0.7,2.2-1.9C1213-53.1,1212.2-54,1211-54.1z"/>
		</g>
		<path id="XMLID_10602_" class="st0" d="M1165.5,8.3c0-8.4,0-16.8,0-25.2c0-2.3,0.1-2.3,2-2.3c13.3,0,26.7,0,40,0
			c1.8,0,2,0.2,2,2.4c0,16.8,0,33.5,0,50.3c0,2.3-0.2,2.5-2.1,2.5c-13.3,0-26.6,0-39.9,0c-1.9,0-2-0.1-2-2.5
			C1165.5,25,1165.5,16.7,1165.5,8.3z M1167.4,33.4c13.4,0,26.7,0,40,0c0-16.8,0-33.5,0-50.3c-13.4,0-26.7,0-40,0
			C1167.4-0.1,1167.4,16.6,1167.4,33.4z"/>
		<path id="XMLID_10601_" class="st0" d="M1189.1,48.7c7.6,0,15.3,0,22.9,0c0.5,0,1.1-0.1,1.5,0.1c0.4,0.2,1.1,0.7,1,0.9
			c-0.1,0.5-0.6,0.9-1,1.1c-0.4,0.2-0.9,0.1-1.4,0.1c-15.4,0-30.9,0-46.3,0c-0.2,0-0.5,0.1-0.7,0c-0.6-0.4-1.2-0.8-1.7-1.2
			c0.6-0.3,1.1-1,1.7-1c5.3-0.1,10.5-0.1,15.8-0.1C1183.7,48.7,1186.4,48.7,1189.1,48.7z"/>
		<path id="XMLID_10600_" class="st0" d="M1189.1,53.9c7.7,0,15.4,0,23.1,0c0.5,0,1-0.1,1.4,0.1c0.4,0.2,0.9,0.7,1,1.1
			c0.1,0.2-0.6,0.8-1,1c-0.3,0.2-0.8,0.1-1.2,0.1c-15.6,0-31.1,0-46.7,0c-0.3,0-0.6,0.1-0.9,0c-0.5-0.3-1-0.7-1.4-1.1
			c0.5-0.3,0.9-0.8,1.4-1c0.4-0.2,0.9,0,1.4,0C1173.8,53.9,1181.5,53.9,1189.1,53.9z"/>
		<path id="XMLID_10596_" class="st0" d="M1189.1,43.6c7.7,0,15.4,0,23.1,0c0.5,0,1-0.1,1.4,0.1c0.4,0.2,0.7,0.6,1.1,0.9
			c-0.4,0.4-0.7,0.9-1.1,1.1c-0.4,0.2-0.9,0.1-1.4,0.1c-15.4,0-30.9,0-46.3,0c-0.3,0-0.8,0.1-1,0c-0.5-0.3-0.9-0.7-1.4-1.1
			c0.5-0.3,0.9-0.9,1.4-0.9c2.8-0.1,5.7-0.1,8.5-0.1C1178.6,43.6,1183.9,43.6,1189.1,43.6z"/>
		<path id="XMLID_10595_" class="st0" d="M1189.1,66.3c-7.7,0-15.5,0-23.2,0c-0.5,0-1.1,0.1-1.5-0.1c-0.3-0.1-0.9-0.6-0.8-0.9
			c0.1-0.4,0.4-0.9,0.8-1.1c0.4-0.2,0.9-0.1,1.4-0.1c15.6,0,31.1,0,46.7,0c0.4,0,0.9-0.1,1.2,0c0.4,0.2,0.7,0.7,1.1,1.1
			c-0.3,0.3-0.7,0.7-1.1,0.9c-0.4,0.2-0.9,0.1-1.4,0.1C1204.5,66.3,1196.8,66.3,1189.1,66.3z"/>
		<path id="XMLID_10594_" class="st0" d="M1189.1,61.2c-7.7,0-15.4,0-23.1,0c-0.5,0-1.1,0.1-1.5-0.1c-0.4-0.1-1-0.7-1-0.9
			c0.1-0.5,0.6-0.9,1-1.1c0.3-0.2,0.8-0.1,1.2-0.1c15.6,0,31.1,0,46.7,0c0.4,0,0.9-0.1,1.2,0.1c0.4,0.3,0.7,0.7,1.1,1.1
			c-0.4,0.3-0.7,0.8-1.1,0.9c-0.5,0.2-1,0.1-1.5,0.1C1204.4,61.2,1196.8,61.2,1189.1,61.2z"/>
		<path id="XMLID_10591_" class="st0" d="M1191.8-25.5c1.1,0,2,0,2.9,0c1,0,1.5,0.2,1.5,1.3c0,1.1-0.5,1.4-1.4,1.4
			c-0.1,0-0.1,0-0.2,0c-6.4,0-5.3,0.5-5.4-5.1c-0.1-4.5,0-8.9,0-13.4c0-1,0.1-1.6,1.3-1.6c1.3,0,1.4,0.7,1.3,1.7c0,4.5,0,9.1,0,13.6
			C1191.8-27,1191.8-26.4,1191.8-25.5z"/>
		<path id="XMLID_10583_" class="st0" d="M1187.4,26.5c-3,0-5.9,0-8.9,0c-1.2,0-1.6-0.4-1.6-1.5c0-3.7,0-7.5,0-11.2
			c0-1.1-0.3-1.7-1.3-2c-0.4-0.1-0.7-0.3-1.1-0.5c-3-1.4-3-0.7-2.3-4.4c0.8-4.3,3.3-7.7,6.9-10.2c0.9-0.6,2.5-0.3,3.8-0.3
			c0.2,0,0.6,0.7,0.7,1.2c0.4,1.9,1.7,3,3.7,3c2,0,3.4-1.1,3.7-3c0.1-1,0.6-1.3,1.5-1.4c1.7-0.1,3.1,0.3,4.4,1.4
			c3.1,2.8,5.3,6,6,10.1c0.3,2.1,0.3,2.5-1.7,3.1c-2.5,0.8-3.4,2.2-3.2,4.9c0.3,3,0,6.1,0.1,9.1c0,1.2-0.4,1.7-1.7,1.7
			C1193.3,26.4,1190.4,26.5,1187.4,26.5z M1197.3,10.6c1-0.4,1.8-0.9,2.6-1.2c0.9-0.3,1.2-0.8,1-1.8c-0.6-3.6-2.7-6.4-5.5-8.7
			c-0.7-0.6-1.7-0.7-2.6-1.1c-0.9,2.9-2.6,4.4-5.3,4.5c-3.1,0.1-5-1.5-5.9-4.4c-0.7,0.2-1.4,0.2-1.8,0.5c-2.9,2.3-5,5.2-5.8,8.9
			c-0.2,1,0,1.7,1.1,2.1c2.6,1,1.8,1.4,3.7-0.8c0.2-0.3,0.4-0.6,0.7-0.8c0.5-0.2,1.1-0.4,1.6-0.5c-0.1,0.6,0.1,1.4-0.3,1.6
			c-2,1.7-2.3,3.8-2.2,6.2c0.2,3.1,0,6.2,0,9.3c5.8,0,11.5,0,17.3,0c0-2.7-0.1-5.4,0-8c0.2-2.9-0.1-5.6-2.6-7.5c0,0-0.1-0.1-0.1-0.1
			c-0.1-0.5-0.1-1-0.1-1.4c0.5,0.1,1.2,0,1.5,0.3C1195.6,8.6,1196.4,9.6,1197.3,10.6z"/>
	</g>
</g>
</svg>
