<?xml version="1.0" encoding="utf-8"?>
<!-- Generator: Adobe Illustrator 19.1.0, SVG Export Plug-In . SVG Version: 6.00 Build 0)  -->
<svg version="1.1" id="Layer_1" xmlns="http://www.w3.org/2000/svg" xmlns:xlink="http://www.w3.org/1999/xlink" x="0px" y="0px"
	 viewBox="-417 218 125 125" style="enable-background:new -417 218 125 125;" xml:space="preserve">
<style type="text/css">
	.st0{fill:none;stroke:#7B7B7B;stroke-width:2;stroke-miterlimit:10;}
	.st1{fill:#7B7B7B;}
</style>
<g id="XMLID_18_">
	<path id="XMLID_19_" class="st0" d="M-307,303.2c3.7,0,7.2,0,10.7,0c0.9,4-1.1,6.7-5.1,6.7c-35.3,0-70.4,0-105.7,0
		c-2.1,0-3.7-0.9-5-2.5c-1-1.3-0.8-2.7-0.8-4.3c3.6,0,7.1,0,10.8,0c0-0.5,0-0.9,0-1.3c0-15.3,0-30.5,0-45.8c0-3.3,1.6-4.9,4.8-4.9
		c28.3,0,56.6,0,84.9-0.1c2.7,0,5.3,2.4,5.3,5.3c-0.1,15-0.1,30.1-0.1,45.2C-307,302.2-307,302.6-307,303.2z M-311.2,300
		c0-14.9,0-29.7,0-44.6c-29,0-58,0-87,0c0,14.9,0,29.7,0,44.6C-369.2,300-340.3,300-311.2,300z M-347.1,303.6c-5.2,0-10.2,0-15.4,0
		c0,0.4,0,0.8,0,1.1c5.2,0,10.3,0,15.4,0C-347,304.3-347,304-347.1,303.6z"/>
</g>
<g id="XMLID_11_">
	<path id="XMLID_6_" class="st1" d="M-370.8,293.3c11.7,0,23.3,0,34.8,0c0,0.8,0,1.5,0,2.3c-12.3,0-24.8,0-37.2,0
		c0-12.4,0-24.8,0-37.2c0.8,0,1.5,0,2.3,0C-370.8,270-370.8,281.7-370.8,293.3z"/>
	<path id="XMLID_5_" class="st1" d="M-340.5,291c-1.5,0-3,0-4.6,0c0-7.2,0-14.4,0-21.8c0.7,0.8,1.3,1.7,2.1,2.5
		c0.8-2.2,1.6-4.3,2.4-6.4h0.1C-340.5,273.9-340.5,282.3-340.5,291z"/>
	<path id="XMLID_4_" class="st1" d="M-347.5,268.7c0,7.5,0,14.9,0,22.2c-1.5,0-3,0-4.6,0c0-0.2,0-0.3,0-0.6c0-5.8,0-11.7,0-17.5
		c0-0.3,0.1-0.6,0.4-0.8c1.3-1,2.5-2.1,3.8-3.1C-347.8,268.9-347.7,268.8-347.5,268.7z"/>
	<path id="XMLID_3_" class="st1" d="M-347.4,262.6c-0.8-0.9-1.4-1.8-2.2-2.7c3.1-0.5,6.1-1,9.2-1.5c-1.1,2.9-2.2,5.7-3.3,8.6
		c-0.8-0.9-1.5-1.8-2.2-2.7c-6.5,5.3-12.8,10.5-19.4,15.9c-0.5-0.6-0.9-1.2-1.5-1.8C-360.3,273.2-354,267.9-347.4,262.6z"/>
	<path id="XMLID_2_" class="st1" d="M-354.5,291c-1.5,0-3,0-4.6,0c0-0.2,0-0.3,0-0.5c0-3.9,0-7.9,0-11.8c0-0.3,0.1-0.6,0.4-0.8
		c1.4-1.1,2.8-2.3,4.2-3.4C-354.5,279.9-354.5,285.5-354.5,291z"/>
	<path id="XMLID_1_" class="st1" d="M-361.4,280.1c0,3.7,0,7.3,0,10.9c-1.5,0-3,0-4.6,0c0-2.6,0-5.2,0-7.8c0.2,0.1,0.3,0.3,0.4,0.3
		C-364.3,282.3-362.9,281.3-361.4,280.1z"/>
</g>
</svg>
