<?xml version="1.0" encoding="utf-8"?>
<!-- Generator: Adobe Illustrator 19.0.0, SVG Export Plug-In . SVG Version: 6.00 Build 0)  -->
<svg version="1.1" id="Layer_1" xmlns="http://www.w3.org/2000/svg" xmlns:xlink="http://www.w3.org/1999/xlink" x="0px" y="0px"
	 viewBox="410 -60 150 150" style="enable-background:new 410 -60 150 150;" xml:space="preserve">
<style type="text/css">
	.st0{fill:none;stroke:#F5825E;stroke-width:2;stroke-miterlimit:10;}
	.st1{fill:#F5825E;}
</style>
<g id="XMLID_18_">
	<path id="XMLID_19_" class="st0" d="M541.9,40.2c4.4,0,8.6,0,12.8,0c1.1,4.8-1.3,8-6.1,8c-42,0-83.9,0-125.9,0c-2.5,0-4.4-1.1-6-3
		c-1.2-1.5-0.9-3.2-0.9-5.1c4.3,0,8.5,0,12.9,0c0-0.6,0-1.1,0-1.5c0-18.2,0-36.3,0-54.5c0-3.9,1.9-5.8,5.7-5.8
		c33.7,0,67.4,0,101.1-0.1c3.2,0,6.3,2.9,6.3,6.3c-0.1,17.9-0.1,35.9-0.1,53.8C541.9,39,541.9,39.5,541.9,40.2z M536.9,36.4
		c0-17.7,0-35.4,0-53.1c-34.6,0-69.1,0-103.6,0c0,17.7,0,35.4,0,53.1C467.8,36.4,502.3,36.4,536.9,36.4z M494.2,40.7
		c-6.2,0-12.2,0-18.3,0c0,0.5,0,0.9,0,1.3c6.2,0,12.3,0,18.4,0C494.3,41.5,494.3,41.2,494.2,40.7z"/>
</g>
<g id="XMLID_11_">
	<path id="XMLID_6_" class="st1" d="M466,28.5c13.9,0,27.7,0,41.5,0c0,0.9,0,1.8,0,2.7c-14.7,0-29.5,0-44.3,0c0-14.8,0-29.5,0-44.3
		c0.9,0,1.8,0,2.7,0C466,0.7,466,14.6,466,28.5z"/>
	<path id="XMLID_5_" class="st1" d="M502,25.7c-1.8,0-3.6,0-5.5,0c0-8.6,0-17.2,0-26c0.8,1,1.6,2,2.5,3c1-2.6,1.9-5.1,2.9-7.6
		c0,0,0.1,0,0.1,0C502,5.3,502,15.4,502,25.7z"/>
	<path id="XMLID_4_" class="st1" d="M493.7-0.9c0,8.9,0,17.7,0,26.5c-1.8,0-3.6,0-5.5,0c0-0.2,0-0.4,0-0.7c0-6.9,0-13.9,0-20.8
		c0-0.4,0.1-0.7,0.5-1c1.5-1.2,3-2.5,4.5-3.7C493.3-0.6,493.5-0.7,493.7-0.9z"/>
	<path id="XMLID_3_" class="st1" d="M493.8-8.1c-0.9-1.1-1.7-2.1-2.6-3.2c3.7-0.6,7.3-1.2,10.9-1.8c-1.3,3.4-2.6,6.8-3.9,10.3
		c-0.9-1.1-1.8-2.1-2.6-3.2c-7.7,6.3-15.3,12.5-23.1,18.9c-0.6-0.7-1.1-1.4-1.8-2.1C478.4,4.5,486-1.8,493.8-8.1z"/>
	<path id="XMLID_2_" class="st1" d="M485.4,25.7c-1.8,0-3.6,0-5.5,0c0-0.2,0-0.4,0-0.6c0-4.7,0-9.4,0-14c0-0.4,0.1-0.7,0.5-1
		c1.7-1.3,3.3-2.7,5-4.1C485.4,12.5,485.4,19.1,485.4,25.7z"/>
	<path id="XMLID_1_" class="st1" d="M477.1,12.7c0,4.4,0,8.7,0,13c-1.8,0-3.6,0-5.5,0c0-3.1,0-6.2,0-9.3c0.2,0.1,0.3,0.3,0.5,0.4
		C473.7,15.4,475.4,14.1,477.1,12.7z"/>
</g>
</svg>
