<?xml version="1.0" encoding="utf-8"?>
<!-- Generator: Adobe Illustrator 19.0.0, SVG Export Plug-In . SVG Version: 6.00 Build 0)  -->
<svg version="1.1" id="Layer_1" xmlns="http://www.w3.org/2000/svg" xmlns:xlink="http://www.w3.org/1999/xlink" x="0px" y="0px"
	 viewBox="1110 -60 150 150" style="enable-background:new 1110 -60 150 150;" xml:space="preserve">
<style type="text/css">
	.st0{fill:#4CBEC0;}
</style>
<g id="XMLID_11009_">
	<path id="XMLID_11010_" class="st0" d="M1181.4,19.9c0,16.4-0.1,32.9,0.1,49.3c0.1,6-4.5,9.2-9.4,9.2c-15.6,0-31.1,0-46.7,0
		c-4.5,0-8-2.4-9-6.1c-0.2-0.9-0.3-1.9-0.3-2.9c0-33,0-65.9-0.1-98.9c0-6,4.5-9.2,9.4-9.2c6.9,0,13.7,0,20.6,0c8.7,0,17.4,0,26.1,0
		c2.6,0,4.9,0.7,6.8,2.5c1.9,1.7,2.5,3.9,2.5,6.3C1181.4-13.3,1181.4,3.3,1181.4,19.9z M1178.3,65.9c0-31.6,0-63.1,0-94.5
		c-19.8,0-39.5,0-59.2,0c0,31.6,0,63,0,94.5C1138.9,65.9,1158.6,65.9,1178.3,65.9z M1148.8,70.1c-2.3,0-4.6,0-6.9,0
		c-1.6,0-2.1,0.5-2.1,2c0,1.8,0.4,2.4,2.1,2.4c4.6,0,9.2,0,13.7,0c1.6,0,2.1-0.5,2.1-2.4c0-1.5-0.5-2-2.1-2
		C1153.3,70,1151,70.1,1148.8,70.1z M1148.7-33.8c1.8,0,3.5,0,5.2,0c0.3,0,0.6-0.3,0.9-0.5c-0.3-0.2-0.6-0.5-1-0.5
		c-3.5,0-6.9,0-10.4,0c-0.3,0-0.6,0.3-0.9,0.5c0.3,0.2,0.6,0.5,1,0.5C1145.2-33.7,1147-33.8,1148.7-33.8z M1167.9-35.7
		c-0.9-0.1-1.7,0.6-1.8,1.5c-0.1,0.9,0.5,1.7,1.5,1.7c1,0.1,1.8-0.6,1.8-1.5C1169.5-34.9,1168.8-35.6,1167.9-35.7z"/>
</g>
<g id="XMLID_10921_">
	<path id="XMLID_11003_" class="st0" d="M1184,11.5c1.4-2,2.8-4.1,4.4-6c1.2-1.4,2.7-2.6,3.8-4c4-5.1,6.9-11,9.6-16.9
		c1.5-3.3,2.9-6.7,4.3-10.1c0.3-0.6,0.3-1.4,0.4-2.1c0.1-1.7-0.1-3.3,0.2-5c0.9-5.3,3.7-7.1,8.9-5.8c6.1,1.4,9.9,6.1,10.3,12.3
		c0.3,4.7-0.8,9.2-2.1,13.6c-1,3.5-1.8,7.1-2.6,10.6c-0.1,0.4-0.1,0.8-0.1,1.2c0,0.2,0,0.5,0.1,0.8c2.4-0.5,4.8-1,7.2-1.3
		c6.2-0.9,12.3-1.4,18.4,0.4c1.9,0.5,3.8,1.4,5.3,2.6c4,3,5.2,7.7,3.6,12.7c-0.2,0.7-0.2,1.2,0.2,1.8c3.1,4.6,3,9.7-0.1,14.3
		c-0.4,0.6-0.5,1.1-0.3,1.8c1.5,5.2,0.3,9.8-3.4,13.7c-0.6,0.7-0.9,1.2-0.8,2.2c0.3,4.5-1.5,8.2-5,11c-3.2,2.6-7,3.8-10.9,4.5
		c-4.7,0.8-9.4,0.8-14.2,0.5c-4.3-0.2-8.7-0.1-13-0.3c-7.4-0.3-14.7-0.9-22.1-2c-0.4-0.1-0.9,0.1-1.3,0.3c-1.5,0.9-3.1,1.4-4.8,1.4
		c-4.2,0-8.5,0-12.7,0c-5.5,0-9.2-3.7-9.2-9.2c0-11.5,0-22.9,0-34.4c0-0.2,0-0.4,0-0.5c0.2-5,4-8.7,9-8.7c4.3,0,8.6-0.1,12.8,0
		C1181.1,10.7,1182.6,11.2,1184,11.5z M1188.7,56.7c6.8,1,13.8,1.5,20.7,1.8c3.3,0.1,6.6-0.1,9.9,0.1c4.5,0.2,9,0.5,13.5-0.1
		c3.4-0.5,6.6-1.2,9.5-3.2c2.9-2.1,4-5,3.1-8.4c-0.3-1.4,0-2.4,1.1-3.3c0.2-0.2,0.5-0.4,0.7-0.5c3.4-2.9,4.2-6.7,2.2-10.7
		c-0.6-1.2-0.5-2.2,0.4-3.2c0.4-0.4,0.8-0.9,1.1-1.3c2.3-3.1,2.3-6.4-0.4-9.3c-1.4-1.6-1.6-2.9-0.6-4.8c1.9-3.7,0.6-7.3-3.3-8.7
		c-1.8-0.7-3.8-1.1-5.8-1.3c-6.5-0.6-12.8,0.5-19,2c-2.7,0.6-5-0.5-5.7-3.1c-0.4-1.8-0.6-3.7-0.3-5.5c0.7-3.8,1.7-7.6,2.8-11.4
		c1-3.7,2-7.3,1.8-11.2c-0.2-4.4-2.7-7.1-7-7.8c-0.9-0.1-1.2,0.2-1.3,1c-0.1,1.6-0.1,3.2-0.1,4.8c0,0.8,0.1,1.6-0.2,2.3
		c-3,8-6.4,15.8-10.7,23.1c-2.2,3.8-4.6,7.5-7.9,10.5c-2.3,2.1-3.8,4.7-4.8,7.6c-0.1,0.4-0.1,0.9-0.1,1.3c0.1,1,0.3,2,0.3,3
		C1188.7,32.4,1188.7,44.5,1188.7,56.7z M1172.5,55.7c2.5,0,4.6-2,4.6-4.5c0-2.5-2-4.5-4.6-4.5c-2.5,0-4.6,2-4.6,4.5
		C1167.9,53.7,1169.9,55.7,1172.5,55.7z"/>
</g>
</svg>
