<?xml version="1.0" encoding="utf-8"?>
<!-- Generator: Adobe Illustrator 19.1.0, SVG Export Plug-In . SVG Version: 6.00 Build 0)  -->
<svg version="1.1" id="Layer_1" xmlns="http://www.w3.org/2000/svg" xmlns:xlink="http://www.w3.org/1999/xlink" x="0px" y="0px"
	 viewBox="-417 218 125 125" style="enable-background:new -417 218 125 125;" xml:space="preserve">
<style type="text/css">
	.st0{fill:#7B7B7B;}
</style>
<g id="XMLID_15875_">
	<path id="XMLID_15870_" class="st0" d="M-414.1,220.9c39.8,0,79.5,0,119.2,0c0,39.8,0,79.5,0,119.3c-39.7,0-79.4,0-119.2,0
		C-414.1,300.4-414.1,260.8-414.1,220.9z M-411.3,223.8c0,38,0,75.9,0,113.7c38,0,75.8,0,113.7,0c0-38,0-75.8,0-113.7
		C-335.6,223.8-373.4,223.8-411.3,223.8z"/>
	<path id="XMLID_15869_" class="st0" d="M-304.8,330.3c-8.5,0-16.9,0-25.4,0c0-25.1,0-50.1,0-75.2c8.5,0,16.9,0,25.4,0
		C-304.8,280-304.8,305-304.8,330.3z"/>
	<path id="XMLID_15867_" class="st0" d="M-304.8,230.9c0,5.6,0,11.2,0,16.8c-33.1,0-66.2,0-99.4,0c0-5.5,0-11.1,0-16.8
		C-371.1,230.9-338,230.9-304.8,230.9z"/>
	<path id="XMLID_15863_" class="st0" d="M-368.7,281.8c0-9.1,0-17.9,0-26.8c9.4,0,18.7,0,28.2,0c0,8.9,0,17.8,0,26.8
		C-349.8,281.8-359.2,281.8-368.7,281.8z M-365.9,279c7.7,0,15.2,0,22.7,0c0-7.1,0-14,0-21c-7.6,0-15.1,0-22.7,0
		C-365.9,265-365.9,271.9-365.9,279z"/>
	<path id="XMLID_15861_" class="st0" d="M-340.3,314.8c0,0.9,0,1.7,0,2.6c-21.3,0-42.5,0-63.9,0c0-0.8,0-1.7,0-2.6
		C-383,314.8-361.7,314.8-340.3,314.8z"/>
	<path id="XMLID_15860_" class="st0" d="M-340.4,327.8c0,0.9,0,1.7,0,2.5c-21.3,0-42.6,0-63.9,0c0-0.9,0-1.6,0-2.5
		C-383,327.8-361.7,327.8-340.4,327.8z"/>
	<path id="XMLID_15858_" class="st0" d="M-404.2,294.6c0-0.9,0-1.7,0-2.6c21.3,0,42.5,0,63.8,0c0,0.8,0,1.6,0,2.6
		C-361.6,294.6-382.8,294.6-404.2,294.6z"/>
	<path id="XMLID_15857_" class="st0" d="M-340.4,303.5c0,0.9,0,1.7,0,2.6c-21.3,0-42.5,0-63.8,0c0-0.8,0-1.6,0-2.6
		C-383,303.5-361.7,303.5-340.4,303.5z"/>
	<path id="XMLID_15855_" class="st0" d="M-404.3,281.8c0-0.9,0-1.7,0-2.6c8.5,0,17,0,25.5,0c0,0.9,0,1.7,0,2.6
		C-387.2,281.8-395.6,281.8-404.3,281.8z"/>
	<path id="XMLID_15854_" class="st0" d="M-378.8,266.4c0,0.9,0,1.7,0,2.6c-8.5,0-16.9,0-25.4,0c0-0.8,0-1.6,0-2.6
		C-395.8,266.4-387.3,266.4-378.8,266.4z"/>
	<path id="XMLID_15852_" class="st0" d="M-378.7,255c0,0.9,0,1.6,0,2.5c-8.4,0-16.9,0-25.5,0c0-0.7,0-1.5,0-2.5
		C-395.8,255-387.4,255-378.7,255z"/>
</g>
</svg>
