<?xml version="1.0" encoding="utf-8"?>
<!-- Generator: Adobe Illustrator 19.1.0, SVG Export Plug-In . SVG Version: 6.00 Build 0)  -->
<svg version="1.1" id="Layer_1" xmlns="http://www.w3.org/2000/svg" xmlns:xlink="http://www.w3.org/1999/xlink" x="0px" y="0px"
	 viewBox="-417 218 125 125" style="enable-background:new -417 218 125 125;" xml:space="preserve">
<style type="text/css">
	.st0{fill:#7B7B7B;}
</style>
<g id="XMLID_15786_">
	<g id="XMLID_9545_">
		<path id="XMLID_9546_" class="st0" d="M-321,257.5c2.2,0,4.3,0,6.5,0c0,12.4,0,24.8,0,37.3c-2.2,0-4.3,0-6.5,0
			C-321,282.4-321,269.9-321,257.5z"/>
		<path id="XMLID_9547_" class="st0" d="M-328.6,264.2c2.2,0,4.3,0,6.6,0c0,10.2,0,20.3,0,30.5c-2.2,0-4.3,0-6.6,0
			C-328.6,284.6-328.6,274.4-328.6,264.2z"/>
		<path id="XMLID_9548_" class="st0" d="M-329.7,294.8c-2.2,0-4.3,0-6.5,0c0-7.9,0-15.8,0-23.7c2.2,0,4.3,0,6.5,0
			C-329.7,278.9-329.7,286.9-329.7,294.8z"/>
		<path id="XMLID_9549_" class="st0" d="M-337.5,277.8c0,5.7,0,11.2,0,16.9c-2.2,0-4.3,0-6.6,0c0-5.6,0-11.2,0-16.9
			C-341.8,277.8-339.7,277.8-337.5,277.8z"/>
		<path id="XMLID_9550_" class="st0" d="M-351.8,284.6c2.2,0,4.3,0,6.5,0c0,3.4,0,6.7,0,10.2c-2.2,0-4.3,0-6.5,0
			C-351.8,291.3-351.8,288-351.8,284.6z"/>
	</g>
	<path id="XMLID_10472_" class="st0" d="M-384.2,293.3c1.3-2.4,3.3-2.8,5.9-1.4c2.3-1.6,4.7-3.4,7-5c0.1-0.1,0.2-0.3,0.2-0.5
		c-0.3-2.1,1-4,2.9-4.3c2.1-0.3,4.1,0.9,4.4,2.9c0.3,1.6-0.2,2.8-1.5,3.7c-1.3,0.9-2.7,0.9-4.1,0.3c-0.1-0.1-0.2-0.1-0.3-0.2
		c-0.1-0.1-0.2-0.1-0.3-0.2c-2.3,1.6-4.7,3.4-7,5c-0.2,0.1-0.3,0.3-0.2,0.5c0.2,2.2-0.9,3.7-2.8,4.2c-1.8,0.4-3.6-0.5-4.4-2.4
		c-0.1-0.2-0.3-0.4-0.6-0.4c-1.7-0.3-3.5-0.7-5.3-1c-0.3-0.1-0.6-0.1-0.9,0.3c-1.1,1.5-2.8,2-4.5,1.3c-1.6-0.7-2.5-2.3-2.2-4.1
		c0.3-1.7,1.7-3,3.5-3.1c1.6-0.2,3.3,1,3.7,2.8c0.1,0.3,0.3,0.5,0.6,0.6C-388,292.6-386.1,293-384.2,293.3z"/>
	<g id="XMLID_10465_">
		<path id="XMLID_10475_" class="st0" d="M-381.3,257.4c1.9,0.1,3.6,0.5,5.2,1.4c0.4,0.3,0.4,0.4,0.2,0.8c-1.7,2.5-3.5,5-5.3,7.6
			c-0.2,0.3-0.3,0.3-0.7,0.3c-2.4-0.3-4.8-0.4-7.2-0.7c-0.7-0.1-1.3-0.1-2-0.2c-0.4-0.1-0.5-0.2-0.4-0.6c0.6-4.1,4.2-7.8,8.3-8.5
			C-382.6,257.5-382,257.5-381.3,257.4z"/>
		<path id="XMLID_10474_" class="st0" d="M-381.6,273.2c0,1.5,0,2.9,0,4.5c0,0.5-0.1,0.6-0.6,0.6c-4.5-0.3-8.5-3.8-9.3-8.3
			c-0.2-0.7-0.2-1.4-0.3-2.1c0-0.5,0.1-0.6,0.6-0.5c2.5,0.3,5,0.4,7.5,0.7c0.4,0.1,0.9,0.1,1.4,0.1s0.6,0.2,0.6,0.6
			C-381.6,270.2-381.6,271.8-381.6,273.2z"/>
		<path id="XMLID_10473_" class="st0" d="M-370.9,267.7c0,2-0.4,3.7-1.4,5.3c-0.3,0.5-0.4,0.5-0.9,0.3c-2.4-1.7-4.8-3.4-7.2-5.1
			c-0.5-0.3-0.5-0.4-0.2-0.9c1.7-2.4,3.4-4.8,5.1-7.2c0.3-0.4,0.4-0.5,0.9-0.1C-372.1,262.1-370.9,264.7-370.9,267.7z"/>
		<path id="XMLID_10471_" class="st0" d="M-380.9,273.6c0-1.4,0-2.8,0-4.1c0-0.2,0.1-0.4,0.2-0.5s0.3,0,0.5,0.1
			c2.3,1.6,4.6,3.2,6.8,4.8c0.4,0.3,0.4,0.4,0.1,0.8c-1.9,2.2-4.2,3.5-7.1,3.7c-0.4,0.1-0.5-0.1-0.5-0.5
			C-381,276.3-380.9,274.9-380.9,273.6z"/>
	</g>
	<path id="XMLID_9181_" class="st0" d="M-305.8,305.1c3.8,0,7.4,0,11,0c0.9,4.4-1.1,7.3-5.3,7.3c-36.1,0-72.1,0-108.2,0
		c-2.2,0-3.8-0.9-5.2-2.7c-1-1.4-0.8-2.9-0.8-4.6c3.7,0,7.3,0,11.1,0c0-0.5,0-0.9,0-1.4c0-16.6,0-33.1,0-49.6c0-3.5,1.6-5.3,4.9-5.3
		c29,0,57.9,0,86.9-0.1c2.8,0,5.4,2.6,5.4,5.7c-0.1,16.3-0.1,32.6-0.1,48.9C-305.8,303.9-305.8,304.5-305.8,305.1z M-310.2,301.7
		c0-16.1,0-32.2,0-48.2c-29.7,0-59.4,0-89.1,0c0,16.1,0,32.2,0,48.2C-369.5,301.7-339.9,301.7-310.2,301.7z M-346.8,305.6
		c-5.3,0-10.5,0-15.8,0c0,0.4,0,0.8,0,1.2c5.4,0,10.5,0,15.9,0C-346.8,306.4-346.8,305.9-346.8,305.6z"/>
</g>
</svg>
