<?xml version="1.0" encoding="utf-8"?>
<!-- Generator: Adobe Illustrator 19.1.0, SVG Export Plug-In . SVG Version: 6.00 Build 0)  -->
<svg version="1.1" id="Layer_1" xmlns="http://www.w3.org/2000/svg" xmlns:xlink="http://www.w3.org/1999/xlink" x="0px" y="0px"
	 viewBox="-354 156 250 250" style="enable-background:new -354 156 250 250;" xml:space="preserve">
<style type="text/css">
	.st0{fill:#F2F2F2;}
	.st1{fill:#C0BFBF;}
	.st2{fill:#E5E5E5;}
	.st3{fill:none;}
</style>
<g id="XMLID_10335_">
	<polygon id="XMLID_14868_" class="st0" points="-120.1,221 -123.9,371.4 -267.7,402.5 -290.1,313 -268.3,250.1 	"/>
	<polygon id="XMLID_12513_" class="st1" points="-268.3,250.1 -267.7,402.5 -337.3,335 -337.9,189.3 	"/>
	<polygon id="XMLID_12508_" class="st2" points="-120.1,221 -268.3,250.1 -337.9,189.3 -199.6,159.5 	"/>
</g>
<g>
	<g id="XMLID_10914_">
		<path id="XMLID_10915_" d="M-133.8,294.7c-0.2,12.5-0.5,25.1-0.5,37.6c0,4.5-3.5,7.8-7.2,8.7c-11.8,2.7-23.6,5.5-35.3,8.2
			c-3.4,0.8-6-0.4-6.8-3.1c-0.2-0.7-0.2-1.4-0.2-2.2c0.4-25.1,0.8-50.3,1.1-75.4c0.1-4.6,3.5-7.8,7.2-8.7c5.2-1.2,10.4-2.4,15.6-3.6
			c6.6-1.5,13.2-3.1,19.7-4.6c2-0.5,3.7-0.3,5.1,0.7c1.4,1,1.9,2.5,1.8,4.4C-133.5,269.4-133.6,282.1-133.8,294.7z M-136.7,330.4
			c0.4-24.1,0.7-48.1,1.1-72.1c-15,3.5-29.9,7-44.8,10.4c-0.4,24.1-0.7,48.1-1.1,72.1C-166.6,337.3-151.7,333.8-136.7,330.4z
			 M-159.1,338.8c-1.7,0.4-3.5,0.8-5.2,1.2c-1.2,0.3-1.6,0.7-1.6,1.9c0,1.4,0.3,1.7,1.5,1.4c3.5-0.8,6.9-1.6,10.4-2.4
			c1.3-0.3,1.6-0.8,1.6-2.2c0-1.2-0.4-1.4-1.6-1.2C-155.7,337.9-157.4,338.4-159.1,338.8z M-158,259.6c1.3-0.3,2.6-0.6,4-0.9
			c0.2-0.1,0.5-0.4,0.7-0.6c-0.2-0.1-0.5-0.3-0.7-0.2c-2.6,0.6-5.2,1.2-7.9,1.8c-0.2,0.1-0.5,0.4-0.7,0.6c0.2,0.1,0.5,0.2,0.7,0.2
			C-160.6,260.2-159.3,259.9-158,259.6z M-143.4,254.7c-0.7,0.1-1.3,0.7-1.3,1.4c-0.1,0.7,0.4,1.2,1.1,1.1c0.7-0.1,1.3-0.8,1.4-1.5
			C-142.2,255.1-142.7,254.6-143.4,254.7z"/>
	</g>
	<g>
		<path d="M-210.6,316.1c4-2.3,8.1-3.6,12.2-4.6c4.3-1.1,8.7-1.8,12.8-1.5c0.8,0.1,1.6,0.2,2.3,0.4c1.5,0.5,2.3,1.5,2.3,3.4
			c-0.2,11.8-0.4,23.6-0.5,35.4c0,2.6-0.5,4-3.6,5.7c-2.7,1.5-5.6,2.7-8.4,3.7c-5.1,1.7-10.2,2.7-15.2,2.7c-1.5,0-2.9-0.3-4.3-0.6
			c-1.4-0.4-2-1.5-2-3.2c0.1-3.1,0.1-6.2,0.2-9.1c-3.7,1.4-7.3,2.8-11.1,4.3c0,2.1-0.1,4.3-0.1,6.6c0,3.2-0.7,4.5-3.7,6.1
			c-2.7,1.4-5.5,2.7-8.3,3.6c-5.1,1.7-10.2,2.7-15.1,2.7c-1.6,0-3.1-0.3-4.6-0.7c-1.2-0.3-1.7-1.4-1.7-2.8
			c0.1-7.2,0.3-14.3,0.3-21.5c0-1.6,0.7-2.8,2-3.9c2.1-1.8,4.5-2.8,6.8-3.7c2-0.7,4-1.4,6.1-2.1c0-0.5,0-1.1,0-1.6
			c0.1-6.9,0.3-13.9,0.3-20.8c0-2.1,0.9-3.7,2.7-4.8c2.4-1.4,4.9-2.7,7.5-3.6c5.7-2.1,11.3-3.3,16.9-3.3c1.6,0,3.2,0.3,4.7,0.7
			c1.2,0.3,1.7,1.4,1.7,2.8C-210.6,309.6-210.6,312.8-210.6,316.1z M-210.8,331.3c-0.1,3.8-0.9,3.6,3.1,3.7c5.1,0.1,10.4-1.1,15.6-3
			c2.1-0.8,4.2-1.9,6.3-2.9c0.3-0.2,0.8-0.7,0.8-1c0.1-0.9,0.1-1.8,0.1-2.8C-193.6,329.5-202.2,331.6-210.8,331.3z M-229.8,358.1
			c-8.7,4.3-17.3,6.3-25.9,6.1c-0.6,3.1-0.3,3.6,2.5,3.7c0.1,0,0.1,0,0.2,0c5,0,10.2-1,15.3-2.8c2.3-0.8,4.6-2,6.9-3.1
			c0.4-0.2,0.8-0.8,0.9-1.1C-229.7,359.9-229.8,359-229.8,358.1z M-185.1,340.1c-4.3,2.4-8.6,3.8-13,4.8c-4.4,1-8.7,1.7-12.9,1.3
			c-0.2,3.9-0.8,3.5,2.7,3.8c0.2,0,0.4,0,0.5,0c5.1-0.1,10.4-1.2,15.6-3c2.1-0.7,4.1-1.8,6.1-2.8c0.3-0.2,0.8-0.7,0.9-1
			C-185.1,342.2-185.1,341.2-185.1,340.1z M-211.2,353.8c-0.1,3.9-0.8,3.6,3,3.6c5,0.1,10-1,15.1-2.7c2.3-0.8,4.5-2,6.8-3
			c0.4-0.2,0.9-0.7,0.9-1.1c0.1-1,0.1-1.9,0.1-2.8C-194,352-202.5,354-211.2,353.8z M-229.7,350.5c-4.4,2.5-8.7,3.8-13.1,4.8
			c-4.3,1-8.6,1.7-12.8,1.3c-0.6,3.3-0.4,3.7,2.4,3.7c0.2,0,0.4,0,0.6,0c5.2-0.1,10.5-1.2,15.8-3.1c2.1-0.7,4.1-1.8,6.1-2.8
			c0.3-0.2,0.7-0.7,0.8-1.1C-229.6,352.5-229.7,351.6-229.7,350.5z M-185,332.8c-8.8,4.3-17.4,6.3-26,6.1c0,0.8,0,1.5-0.1,2.3
			c-0.1,0.9,0.3,1.2,1,1.3c1.1,0,2.1,0.2,3.2,0.1c5.1-0.2,10.2-1.4,15.4-3.2c1.9-0.7,3.7-1.7,5.6-2.6c0.3-0.2,0.8-0.8,0.8-1.2
			C-184.9,334.6-185,333.7-185,332.8z M-184.8,317.7c-4.3,2.4-8.7,3.8-13,4.8c-4.4,1-8.7,1.7-12.9,1.3c-0.1,0.1-0.1,0.2-0.1,0.2
			c-0.3,3.3-0.1,3.6,3,3.6c4.7,0,9.4-1,14.1-2.5c2.6-0.8,5.2-2.2,7.8-3.3c0.4-0.2,0.9-0.8,0.9-1.1
			C-184.7,319.7-184.8,318.8-184.8,317.7z M-240.4,331.8c0,0.6,0,1.1,0,1.7c0,1.7-0.1,1.9,1.6,1.9c2.8-0.1,5.6-0.2,8.4-0.6
			c4.5-0.7,9-2,13.4-4.2c2.5-1.2,2.5-1.3,2.5-3.8c0-0.3,0-0.7,0-1C-223.2,330-231.7,332-240.4,331.8z M-214.4,318.3
			c-8.7,4.2-17.3,6.2-25.9,6c0,0.5,0,0.9,0,1.4c0,2.1-0.1,2.3,2,2.2c2.2,0,4.5-0.1,6.8-0.5c5-0.8,10-2.1,14.9-4.5
			c2.2-1.1,2.1-1.1,2.2-3.3C-214.4,319.2-214.4,318.8-214.4,318.3z M-255.5,349.2c-0.2,3.9-0.7,3.4,2.9,3.7c0.4,0,0.8,0,1.2,0
			c5.1-0.2,10.2-1.4,15.4-3.2c1.9-0.7,3.7-1.7,5.6-2.6c0.3-0.2,0.8-0.6,0.8-0.9c0.1-1,0.1-2,0.1-2.9
			C-238.3,347.4-246.8,349.4-255.5,349.2z M-214.3,310.8c-8.7,4.3-17.3,6.2-25.9,6c0,0.5,0,0.9,0,1.3c0,2.2-0.1,2.4,2.1,2.3
			c2.9-0.1,5.9-0.3,8.9-0.9c4.4-0.8,8.9-2.1,13.2-4.4c1.7-0.9,1.7-0.9,1.7-2.7C-214.3,311.9-214.3,311.4-214.3,310.8z M-189.8,313.8
			c-0.8,0.1-1.7,0.1-2.6,0.3 M-192.4,314.1c-6.7,0.9-15,3.5-17.5,5.8c3.4,0.8,11.2-0.5,17.4-2.5c0.4-0.1,1.6-0.5,2.5-0.9
			c1.9-0.7,3.5-1.6,4.6-2.4c-1.1-0.3-2.6-0.3-4.4-0.2 M-254.7,345.1c4.4,1.5,20.3-2.3,24.5-5.7C-234.9,338-250.5,341.7-254.7,345.1z
			 M-214.6,307.1c-5-1.4-21.3,2.4-25,5.9C-231.2,313.2-223.1,311.4-214.6,307.1z M-214.6,333.4c-3.8,1.4-7.5,2.8-11.1,4.2
			c0,1.1,0,2.3-0.1,3.5c1.4-0.4,2.6-0.7,3.9-1.2c2.1-0.9,4.2-1.8,6.3-2.9c0.4-0.2,0.8-0.8,0.9-1.1
			C-214.6,335.1-214.6,334.2-214.6,333.4z M-225.9,348.7c1.1-0.3,2.1-0.6,3.1-1c2.3-1,4.7-2,7-3.1c0.4-0.2,0.9-0.7,0.9-1
			c0.1-1,0.1-2,0.1-2.7c-3.7,1.4-7.4,2.8-11.1,4.2C-225.8,346.2-225.8,347.3-225.9,348.7z"/>
	</g>
</g>
<path class="st3" d="M-184.5,304.6C-184.5,304.6-184.5,304.6-184.5,304.6"/>
<path class="st3" d="M-183.8,304.6C-183.8,304.6-183.7,304.6-183.8,304.6"/>
</svg>
