<?xml version="1.0" encoding="utf-8"?>
<!-- Generator: Adobe Illustrator 19.1.0, SVG Export Plug-In . SVG Version: 6.00 Build 0)  -->
<svg version="1.1" id="Layer_1" xmlns="http://www.w3.org/2000/svg" xmlns:xlink="http://www.w3.org/1999/xlink" x="0px" y="0px"
	 viewBox="-417 218 125 125" style="enable-background:new -417 218 125 125;" xml:space="preserve">
<style type="text/css">
	.st0{fill:#FFFFFF;}
</style>
<g>
	<path class="st0" d="M-305.1,331c0,3.5,0,6.9,0,10.7c-2.2-2.1-4.1-3.8-5.9-5.6c-1.1-1.1-2.2-2.8-3.4-3c-1.2-0.2-2.6,1.2-3.9,2
		c-5.3,3-11.2,4.2-17.2,4.3c-15.6,0.3-31.2,0.4-46.8,0.3c-6.3,0-12.6-1-18.5-3.5c-8.1-3.4-12.3-9.8-13.4-18.3
		c-0.9-7.2-0.5-14.4,0.7-21.5c1.5-8.1,6-14.1,12.7-18.6c2.1-1.4,4.2-2.8,6.4-3.7c2.7-1.1,5.5-0.4,8.1,0.8c3.6,1.6,7.2,3.4,10.8,5.2
		c5.3,2.6,10.8,4.5,16.8,4c4.6-0.4,8.7-2.1,12.8-4.2c3.2-1.7,6.3-3.4,9.6-4.9c4.2-2,8.3-1.9,12.2,1c4.8,3.5,9.3,7.1,12.3,12.3
		c0.9,1.7,1.7,3.4,2.3,5.2c0.4,1.1,0.9,1.7,2.2,1.6c1.8-0.1,3.7-0.1,5.6,0c4,0.2,7.3,3.4,7.4,7.4c0.1,7,0.1,13.9,0,20.9
		c-0.1,4.2-3.6,7.3-8.1,7.6C-303.2,331.1-304,331-305.1,331z M-320.7,331c-0.6,0-1.1,0-1.7,0c-6.2,0-12.3-0.1-18.5,0
		c-5.4,0.1-9.4-3.5-9.2-9.2c0.2-5.9,0.2-11.8,0-17.8c-0.2-5.1,3.4-9.2,9.1-9.1c8.5,0.2,17.1,0.1,25.6,0.1c0.6,0,1.2,0,2,0
		c-0.1-0.4-0.1-0.6-0.2-0.8c-0.3-0.8-0.6-1.5-0.9-2.2c-2.6-5.3-6.9-8.9-11.5-12.3c-3.1-2.3-6-2.4-9.2-0.7c-3.5,1.8-7.1,3.7-10.6,5.5
		c-9.4,4.8-19,5.2-28.6,0.7c-3.4-1.6-6.9-3.2-10.1-5c-5-2.9-9.4-2.7-14,1c-4.8,3.9-9,8.1-10.4,14.3c-1.8,7.6-2.1,15.3-0.9,23
		s5.8,12.6,13.1,14.8c5.2,1.6,10.6,2.2,15.9,2.3c8.1,0.1,16.2,0.2,24.4,0.1c8.1-0.1,16.1-0.3,24.1-0.8
		C-328.3,334.6-324.3,333.5-320.7,331z M-304.4,304.2c-11.8,0-23.6,0-35.4,0c0,0.7,0,1.2,0,1.9c11.8,0,23.6,0,35.4,0
		C-304.4,305.4-304.4,304.8-304.4,304.2z M-304.4,311.3c-11.9,0-23.6,0-35.4,0c0,0.7,0,1.3,0,1.9c11.8,0,23.6,0,35.4,0
		C-304.4,312.6-304.4,312-304.4,311.3z M-339.8,320.4c7.3,0,14.3,0,21.5,0c0-0.7-0.1-1.3-0.1-1.8c-7.2,0-14.3,0-21.4,0
		C-339.8,319.2-339.8,319.8-339.8,320.4z"/>
	<path class="st0" d="M-391.1,250.1c0.1-17.2,14-30.9,31.3-30.8c16.8,0.1,30.7,14.1,30.7,31c-0.1,17.1-14.1,31-31.1,31
		C-377.3,281.2-391.2,267.2-391.1,250.1z M-360.1,223.5c-14.8,0-26.8,11.9-26.8,26.7c0,14.8,12,26.9,26.7,26.9s26.8-12,26.9-26.8
		C-333.2,235.6-345.4,223.5-360.1,223.5z"/>
</g>
</svg>
