<?xml version="1.0" encoding="utf-8"?>
<!-- Generator: Adobe Illustrator 19.1.0, SVG Export Plug-In . SVG Version: 6.00 Build 0)  -->
<svg version="1.1" id="Layer_1" xmlns="http://www.w3.org/2000/svg" xmlns:xlink="http://www.w3.org/1999/xlink" x="0px" y="0px"
	 viewBox="-417 218 125 125" style="enable-background:new -417 218 125 125;" xml:space="preserve">
<style type="text/css">
	.st0{fill:#7B7B7B;stroke:#7B7B7B;stroke-miterlimit:10;}
	.st1{fill:none;stroke:#7B7B7B;stroke-miterlimit:10;}
	.st2{fill:none;}
	.st3{fill:#FFFFFF;stroke:#000000;stroke-miterlimit:10;}
	.st4{fill:#FFFFFF;stroke:#7B7B7B;stroke-miterlimit:10;}
</style>
<path class="st0" d="M-320.3,322.4"/>
<path class="st0" d="M-327.8,280.5c0,18.7,0,37.3,0,56c0,3.4-0.9,4.3-4.3,4.3c-17.4,0-34.8,0-52.2,0c-3.4,0-4.4-1-4.4-4.5
	c0-37.2,0-74.4,0-111.6c0-3.5,1-4.5,4.4-4.5c17.4,0,34.8,0,52.2,0c3.4,0,4.3,0.9,4.4,4.3C-327.8,243.2-327.8,261.8-327.8,280.5z
	 M-330.7,325c0.3-0.2,0.2-0.9,0-1.2c0,0,0,0,0,0c0-0.4,0-0.6,0-0.7c-0.1-1.3,0-44.6,0-85.3c0-0.6-0.1-1.2-0.1-1.9
	c-18.5,0-36.8,0-55.2,0c0,29.8,0,59.4,0,89.2c3.6,0,9,0,15.6-0.1c4.8-0.1,8.5,0,12.3,0c3.8,0,4.7,0,9.7,0.1c1.6,0-0.2,0,7,0
	c3.4,0,3.9-0.1,5.6-0.1c1,0,2.1-0.1,3.1,0.1c0.6,0.1,1.2,0,1.8,0C-330.9,325.1-330.8,325.1-330.7,325z M-379.7,334.3
	c0,0.2,0.4,0.5,2,1.1c0.1-0.1,0.2-0.3,0.3-0.4c-0.1-0.2-0.2-0.4-0.5-0.6C-378.6,333.9-379.6,334.1-379.7,334.3z"/>
<path class="st1" d="M-384.5,264.2c17.5,0,34.8,0,52.2,0c0,8.5,0,16.9,0,25.4c-17.4,0-34.7,0-52.2,0
	C-384.5,281.2-384.5,272.8-384.5,264.2z"/>
<path class="st1" d="M-357.5,316.6c0-8.5,0-16.9,0-25.4c8.5,0,16.8,0,25.3,0c0,8.5,0,16.9,0,25.4
	C-340.7,316.6-349,316.6-357.5,316.6z"/>
<path class="st1" d="M-359.2,316.6c-8.4,0-16.8,0-25.2,0c0-8.4,0-16.8,0-25.4c8.3,0,16.7,0,25.2,0
	C-359.2,299.7-359.2,308-359.2,316.6z"/>
<path class="st2" d="M-358.5,333.5c1.2,0,2.4,0,3.6,0c0,1,0,2.1,0,3.2c-1.2-0.2-2.4-0.3-3.6-0.5
	C-358.5,335.2-358.5,334.4-358.5,333.5z"/>
<path class="st2" d="M-358.5,330.5c1.2-0.2,2.4-0.4,3.7-0.5c0,1.1,0,2.1,0,3.2c-1.2,0-2.4,0-3.7,0
	C-358.5,332.2-358.5,331.4-358.5,330.5z"/>
<path class="st2" d="M-358.8,336c-3-0.4-3-0.4-2.8-2.5c0.9,0,1.8,0,2.8,0C-358.8,334.3-358.8,335.1-358.8,336z"/>
<path class="st2" d="M-361.8,333.1c-0.1-2.2-0.1-2.2,2.8-2.5c0,0.8,0,1.6,0,2.5C-359.8,333.1-360.8,333.1-361.8,333.1z"/>
<path class="st1" d="M-332.3,239c0,3.6,0,7.1,0,10.6c-3.4,0-6.8,0-10.4,0c0-3.5,0-7,0-10.6C-339.3,239-335.8,239-332.3,239z"/>
<path class="st1" d="M-332.2,262.2c-3.5,0-7,0-10.5,0c0-3.6,0-7.1,0-10.7c3.5,0,6.9,0,10.5,0C-332.2,255-332.2,258.5-332.2,262.2z"
	/>
<path class="st1" d="M-384.5,262.3c0-7.8,0-15.4,0-23.2c8.2,0,16.3,0,24.6,0c0,7.7,0,15.4,0,23.2C-368,262.3-376,262.3-384.5,262.3z
	"/>
<path class="st1" d="M-356.3,249.7c0-3.6,0-7.1,0-10.7c3.6,0,7,0,10.6,0c0,3.6,0,7,0,10.7C-349,249.7-352.5,249.7-356.3,249.7z"/>
<path class="st1" d="M-345.7,251.5c0,3.6,0,7.1,0,10.7c-3.5,0-7,0-10.6,0c0-3.6,0-7.1,0-10.7C-352.7,251.5-349.3,251.5-345.7,251.5z
	"/>
<path class="st2" d="M-380.3,333.1"/>
<path class="st3" d="M-341.1,322.9"/>
<path class="st4" d="M-354.4,332.6h-3.7c-0.1,0-0.2-0.1-0.2-0.2v-3.2c0-0.1,0.1-0.2,0.2-0.2h3.7c0.1,0,0.2,0.1,0.2,0.2v3.2
	C-354.2,332.5-354.3,332.6-354.4,332.6z"/>
<path class="st4" d="M-354.3,336.5h-3.7c-0.1,0-0.2-0.1-0.2-0.2v-3.2c0-0.1,0.1-0.2,0.2-0.2h3.7c0.1,0,0.2,0.1,0.2,0.2v3.2
	C-354.1,336.4-354.2,336.5-354.3,336.5z"/>
<path class="st4" d="M-358.6,336.5h-3.7c-0.1,0-0.2-0.1-0.2-0.2v-3.2c0-0.1,0.1-0.2,0.2-0.2h3.7c0.1,0,0.2,0.1,0.2,0.2v3.2
	C-358.5,336.4-358.5,336.5-358.6,336.5z"/>
<path class="st4" d="M-358.6,332.6h-3.7c-0.1,0-0.2-0.1-0.2-0.2v-3.2c0-0.1,0.1-0.2,0.2-0.2h3.7c0.1,0,0.2,0.1,0.2,0.2v3.2
	C-358.5,332.5-358.5,332.6-358.6,332.6z"/>
</svg>
