<?xml version="1.0" encoding="utf-8"?>
<!-- Generator: Adobe Illustrator 19.1.0, SVG Export Plug-In . SVG Version: 6.00 Build 0)  -->
<svg version="1.1" id="Layer_1" xmlns="http://www.w3.org/2000/svg" xmlns:xlink="http://www.w3.org/1999/xlink" x="0px" y="0px"
	 viewBox="-417 218 125 125" style="enable-background:new -417 218 125 125;" xml:space="preserve">
<style type="text/css">
	.st0{fill:#7B7B7B;}
</style>
<g>
	<path class="st0" d="M-380.9,279.5c6.3,1.6,8.1,6.4,4.9,10.5c0.5,0.3,1,0.6,1.5,1c3.5,2.5,3.5,6.9-0.1,9.2
		c-1.1,0.7-1.2,1.4-1.2,2.6c-0.1,6.1,1.5,11.9,3.4,17.6c1.1,3.4,2.9,6,6.3,7.4c2.1,0.9,4.1,2.2,6.4,3.4c-0.3-3.5-0.5-6.8-0.8-10.1
		c-0.5-6.3-1.1-12.6-1.6-18.9c-0.4-4.4-0.2-9-1.2-13.2c-1.5-6.7,2.4-10.9,5.9-15.3c3.8-4.7,8.9-7.7,14.8-9.3
		c0.6-0.2,1.2-0.7,1.6-1.3c3.1-4.9,9.5-4.9,12.5,0c0.4,0.6,1.2,1.2,1.9,1.4c9.7,3,16.4,9.2,20.3,18.5c0.6,1.5,0.9,2.9,0.3,4.7
		c-0.7,2.1-0.6,4.6-0.8,6.9c-0.6,7.7-1.2,15.4-1.8,23.1c-0.4,4.5-0.7,9.1-1.1,13.6c0,0.5-0.2,1-0.3,1.6c-15.6,0-31.2,0-46.9,0
		c0.2,0.7,0.4,1.1,0.5,1.6c0.5,1.8-0.6,3.7-2.5,4c-2.7,0.5-5.4,0.9-8.1,1.2c-2.2,0.2-4.4,0.2-6.6,0.4c-0.4,0-0.8,0.2-1,0.4
		c-1.5,1.5-3.3,1.2-5.1,0.9c-0.8-0.1-1.7,0.1-2.6,0.1c-1.4,0-2.8,0-4.1-0.1c-0.7,0-1.4-0.1-2.1,0c-0.8,0.1-1.7,0.6-2.5,0.4
		c-1.9-0.4-3.7-0.5-5.7-0.1c-0.3,0.1-1-0.4-1.2-0.8c-3.8-6-5.7-12.6-5.3-19.7c0.2-3.6,0.2-7.3,0.8-10.8c0.3-1.9,1.5-3.7,2.4-5.5
		c0.6-1.2,1.4-2.3,2.2-3.6c-2.5-1.2-4.6-2.8-4.7-5.6c-0.1-2.8,1.7-4.4,4.1-5.7c-1.6-2.1-2.2-4.3-1-6.7c1.2-2.3,3.4-3.2,5.8-3.9
		c0-0.8,0-1.5,0-2.3c0-16.2,0-32.3,0-48.5c0-1.8,0.3-3.8,0.9-5.5c0.8-2.4,2.7-4,5.4-4c2.7,0,4.5,1.7,5.4,4.1
		c0.6,1.6,0.8,3.4,0.8,5.2c0.1,16.3,0,32.5,0,48.8C-380.9,278-380.9,278.7-380.9,279.5z M-354.9,327.9c0.4,0.1,0.6,0.2,0.8,0.2
		c12.8,0,25.6,0,38.4,0c1,0,1.3-0.4,1.3-1.3c0.2-3.2,0.5-6.5,0.7-9.7c0.5-6.3,1-12.7,1.6-19c0.2-2.7,0.4-5.5,0.6-8.3
		c-15.7,0-31,0-46.5,0C-357,302.5-355.9,315.1-354.9,327.9z M-365.1,335c0-0.3,0-0.5,0-0.8c-1.6-0.9-3.2-1.7-4.8-2.6
		c-2.4-1.2-4.4-3-5.5-5.4c-2.6-5.4-4.4-11.2-5.1-17.2c-0.5-4.1,0-8.3-3.2-11.7c2.3-1,4.8,0.1,7-2c-1.4-0.3-2.4-0.8-3.4-0.8
		c-4.7-0.1-9.3-0.1-14,0c-1,0-2,0.5-3.4,0.8c2.3,2,4.6,1,7.1,1.7c-1.8,3.7-3.5,7.3-5.3,10.9c-0.6,1.2-1.3,2.3-1.6,3.5
		c-1.2,5.7-1,11.5-0.2,17.3c0.5,3.5,1.5,6.9,5.7,7.8c0.1,0,0.2,0.1,0.3,0.1c0.5,0,1,0.2,1.4,0.1c1.8-0.7,3.6-0.4,5.5,0
		c1.8,0.4,3.7-0.1,5.6-0.2c0.1,0,0.1,0.1,0.2,0.1c0.5-0.1,1.2-0.1,1.6-0.5c1.1-0.9,2.2-1.2,3.6-1.1C-370.8,335.1-368,335-365.1,335z
		 M-332.4,268.6c-0.1-1.7-0.1-3.8-2.4-3.9c-2.4,0-1.9,2.3-2.4,3.9c-9.8,1.4-16.8,6.6-21.1,15.8c15.8,0,31.3,0,47,0
		C-315.5,275.2-322.5,270.1-332.4,268.6z M-386.7,224.5c-0.3,0-0.6,0-0.9,0c-0.2,1.4-0.6,2.8-0.6,4.1c0,17.2,0,34.4,0,51.7
		c0,1.4,0,2.8,0,4.3c-1.1,0.1-2.3,0.1-3.4,0.2c-1.2,0-2.4,0.1-3.1,1.3c2,2.2,13.5,2.1,15.2-0.2c-1.9-1.9-4.4-0.8-6.6-1.4
		c0-0.3,0-0.5,0-0.8c0-18.7,0.1-37.4,0.1-56.1C-386,226.5-386.5,225.5-386.7,224.5z"/>
</g>
</svg>
