<?xml version="1.0" encoding="utf-8"?>
<!-- Generator: Adobe Illustrator 19.1.0, SVG Export Plug-In . SVG Version: 6.00 Build 0)  -->
<svg version="1.1" id="Layer_1" xmlns="http://www.w3.org/2000/svg" xmlns:xlink="http://www.w3.org/1999/xlink" x="0px" y="0px"
	 viewBox="-417 218 125 125" style="enable-background:new -417 218 125 125;" xml:space="preserve">
<style type="text/css">
	.st0{fill:#FFFFFF;}
</style>
<g id="XMLID_10046_">
	<path id="XMLID_10047_" class="st0" d="M-356.2,218.8c1.1,0,2.2,0,3.4,0c3.3,0.6,5.9,2.4,8.4,4.4c1.1,0.9,2.3,1.9,3.5,2.5
		c1.7,0.9,3.5,2,5.4,2.2c3.2,0.4,6.4,0.2,9.6,0.3c5.9,0,10.5,3.4,12.3,9c0.7,2.3,1.5,4.5,2.2,6.8c0.9,2.9,2.6,5.1,5,6.9
		c2.1,1.5,4.2,2.9,6.1,4.4c4,3.1,5.8,7.2,4.8,12.2c-0.6,3-1.8,6-2.7,9c-0.9,2.7-0.9,5.4,0,8c0.8,2.4,1.6,4.8,2.4,7.2
		c1.7,5.5,0,10.9-4.7,14.3c-1.9,1.4-3.8,2.8-5.8,4.2c-2.5,1.7-4.2,4-5.1,7c-0.8,2.5-1.5,4.9-2.4,7.3c-1.7,4.5-4.9,7.5-9.7,8.1
		c-3.1,0.4-6.3,0.3-9.5,0.2c-3.1,0-5.8,0.9-8.2,2.7c-1.9,1.4-3.9,2.9-5.8,4.3c-4.6,3.3-10.3,3.3-14.9,0c-2-1.4-4-2.9-6-4.4
		c-2.3-1.7-5-2.6-7.9-2.5c-2.5,0-5,0-7.5,0c-5.5,0-10.1-3.3-11.9-8.5c-0.8-2.3-1.6-4.7-2.3-7.1c-0.9-3-2.6-5.4-5.2-7.1
		c-2-1.4-4-2.8-6-4.3c-4.3-3.2-6.1-8.7-4.5-13.8c0.8-2.5,1.6-4.9,2.4-7.3c0.9-2.7,0.9-5.4,0-8.2c-0.8-2.3-1.5-4.6-2.2-6.9
		c-1.9-5.8-0.1-11.1,4.8-14.7c1.9-1.4,3.9-2.8,5.9-4.2c2.3-1.7,3.9-3.9,4.8-6.6c0.7-2.3,1.5-4.6,2.2-6.9c1.1-3.3,3-6,6.2-7.5
		c1.7-0.8,3.7-1.3,5.6-1.5c2.5-0.2,5.1-0.1,7.7-0.1c3,0,5.6-0.9,8-2.6C-364.2,223-360.9,219.6-356.2,218.8z M-397.3,280.5
		c0,23.6,19.1,42.7,42.7,42.8c23.6,0,42.8-19.2,42.8-42.7c0-23.6-19.1-42.7-42.7-42.8C-378,237.7-397.3,256.9-397.3,280.5z"/>
	<path id="XMLID_10050_" class="st0" d="M-389.5,280.4c0.1-19.5,15.8-35.1,35.1-35c19.5,0.1,35,15.7,35,35.2
		c-0.1,19.4-15.8,35.1-35.1,34.9C-374.1,315.4-389.6,299.8-389.5,280.4z M-363.1,289.7c-0.3-0.2-0.6-0.5-0.9-0.8
		c-5.3-4.3-10.6-8.7-16-13c-0.8-0.7-1.8-1.2-2.7-0.4c-0.9,0.9,0,1.7,0.5,2.4c4.9,7,10.4,13.4,16.2,19.7c0.2,0.2,0.4,0.5,0.7,0.7
		c1.9,1.7,4,1.3,6-0.8c9.4-10.1,17.6-21.3,25.6-32.6c0.2-0.3,0.4-0.6,0.5-0.9c0.3-0.8,0.6-1.8-0.3-2.4s-1.8-0.2-2.5,0.5
		c-6.3,6.1-12.7,12.2-18.9,18.4C-357.7,283.6-360.3,286.7-363.1,289.7z"/>
</g>
</svg>
