<?xml version="1.0" encoding="utf-8"?>
<!-- Generator: Adobe Illustrator 19.1.0, SVG Export Plug-In . SVG Version: 6.00 Build 0)  -->
<svg version="1.1" id="Layer_1" xmlns="http://www.w3.org/2000/svg" xmlns:xlink="http://www.w3.org/1999/xlink" x="0px" y="0px"
	 viewBox="-354 156 250 250" style="enable-background:new -354 156 250 250;" xml:space="preserve">
<style type="text/css">
	.st0{fill:#F2F2F2;}
	.st1{fill:#C0BFBF;}
	.st2{fill:#E5E5E5;}
	.st3{fill:none;}
</style>
<g id="XMLID_10335_">
	<polygon id="XMLID_14868_" class="st0" points="-120.1,221 -123.9,371.4 -267.7,402.5 -290.1,313 -268.3,250.1 	"/>
	<polygon id="XMLID_12513_" class="st1" points="-268.3,250.1 -267.7,402.5 -337.3,335 -337.9,189.3 	"/>
	<polygon id="XMLID_12508_" class="st2" points="-120.1,221 -268.3,250.1 -337.9,189.3 -199.6,159.5 	"/>
</g>
<path class="st3" d="M-184.5,304.6C-184.5,304.6-184.5,304.6-184.5,304.6"/>
<path class="st3" d="M-183.8,304.6C-183.8,304.6-183.7,304.6-183.8,304.6"/>
<g>
	<path d="M-186,362.2c-24.9-7.7-49.7-15.3-74.7-23c8.6-20.4,17.2-40.7,25.9-61.3c12.5,3.8,24.8,7.6,37.3,11.5c0.6-2.2,1-4.2,1.7-6.2
		c4.8-13.9,16.6-23.8,30.7-26.2c8.7-1.5,16.8-1.1,23.8,3.4c8,5.1,12.4,12.7,12.9,22.8c0.3,6,0,12-2.3,18c-2.1,5.2-5,9.9-9.2,13.8
		c-1.4,1.3-1.7,2.5-0.6,3.6c2,2.1,4.1,4.2,6.4,6.2c1.5,1.3,2.3,3.1,1.6,5.1c-0.8,2-2.2,3.5-4.4,3.7c-7.9,0.6-15.3-0.3-20.8-5.6
		c-1.9-1.8-3.7-2.2-6.3-1.7c-1.6,0.3-3.3,0.4-4.9,0.4c-1.5,0-2.3,0.4-2.9,2c-4.4,10.6-8.9,21.1-13.3,31.7
		C-185.4,360.9-185.7,361.5-186,362.2z M-145.1,326.1c-1.2-3.2-2.4-6.2-3.5-9.3c-0.5-1.4-0.1-2.6,1.3-3.7
		c7.7-6.1,11.8-13.9,12.3-23.1c0.4-7-0.6-13.5-4.9-18.7c-6.9-8.3-16.3-9.6-27.3-6.8c-10.5,2.7-17.7,9.5-21.7,19.8
		c-1.8,4.6-1.7,9.2-1.6,13.7c0.4,9.1,4.6,15.4,12.1,19.4c5.8,3,12.3,2.7,19,1.2c2.4-0.5,3.9,0,5.1,1.9
		C-152.2,323.8-148.9,325.6-145.1,326.1z M-251.1,334c20.5,6.3,40.8,12.6,61.3,18.9c3.9-9.2,7.7-18.2,11.2-26.7
		c-3.7-2.4-7.2-4.6-10.5-7c-1-0.8-1.9-1-3.2-0.6c-4.7,1.6-9.3,3.1-14,4.7c-3.7,1.2-7,0.2-8.7-2.6c-4.7-7.8-9.4-15.6-14.1-23.4
		c-1.4-2.4-1.4-3.5,0.1-4.6c1.5-1.1,2.6-0.6,4,1.7c4.1,6.8,8.3,13.6,12.4,20.4c3.1,5.1,2.3,5.1,8.6,3c3.5-1.2,7-2.3,10.5-3.5
		c-1.1-2.6-2.3-4.9-3-7.4c-0.7-2.5-1-5.2-1.3-7.9c-0.1-1.2-0.5-1.8-1.7-2.1c-9.3-2.8-18.5-5.7-27.8-8.5c-1.3-0.4-2.7-0.8-4.1-1.2
		C-237.9,302.8-244.5,318.3-251.1,334z"/>
	<path d="M-189.3,346.7c-0.7,0.8-1.5,2.1-2.3,2.3c-1,0.3-2.5-0.1-3-0.8c-1.6-2.3-2.9-5-4.3-7.5c-2-3.6-4.1-7.3-6.1-10.9
		c-1.1-2-0.8-3.4,0.9-4.5c1.5-1,2.9-0.6,3.9,1.2c3.4,6,6.7,12,10.1,17.9C-189.8,345.1-189.6,345.7-189.3,346.7z"/>
	<path d="M-221.7,319.7c1.7-0.2,2.7,0.3,2.9,1.8c0.3,1.7-0.6,2.8-2.2,3.4c-4.4,1.6-8.9,3.2-13.3,4.7c-2.6,0.9-5.3,1.9-8,2.8
		c-2.2,0.7-3.5,0.2-3.9-1.4c-0.4-1.6,0.7-3,2.9-3.8c6.8-2.4,13.5-4.8,20.3-7.2C-222.5,319.9-222,319.8-221.7,319.7z"/>
</g>
</svg>
