<?xml version="1.0" encoding="utf-8"?>
<!-- Generator: Adobe Illustrator 19.1.0, SVG Export Plug-In . SVG Version: 6.00 Build 0)  -->
<svg version="1.1" id="Layer_1" xmlns="http://www.w3.org/2000/svg" xmlns:xlink="http://www.w3.org/1999/xlink" x="0px" y="0px"
	 viewBox="-354 156 250 250" style="enable-background:new -354 156 250 250;" xml:space="preserve">
<style type="text/css">
	.st0{fill:#F2F2F2;}
	.st1{fill:#C0BFBF;}
	.st2{fill:#E5E5E5;}
	.st3{fill:none;}
</style>
<g>
	<g id="XMLID_10335_">
		<polygon id="XMLID_14868_" class="st0" points="-189.9,250.3 -168.5,313.3 -191.4,402.7 -335,370.8 -338,220.4 		"/>
		<polygon id="XMLID_12513_" class="st1" points="-120,189.9 -121.4,335.6 -191.4,402.7 -189.9,250.3 		"/>
		<polygon id="XMLID_12508_" class="st2" points="-258.2,159.3 -120,189.9 -189.9,250.3 -338,220.4 		"/>
	</g>
	<g>
		<g id="XMLID_10914_">
			<path id="XMLID_10915_" d="M-325,256.2c-0.1-1.9,0.4-3.4,1.8-4.4s3.1-1.2,5.1-0.7c6.5,1.5,13.1,3.2,19.7,4.7
				c5.2,1.2,10.4,2.5,15.6,3.7c3.7,0.9,7.1,4.1,7.2,8.7c0.2,25.1,0.4,50.3,0.7,75.4c0,0.8,0,1.5-0.2,2.2c-0.8,2.7-3.4,3.9-6.8,3.1
				c-11.7-2.8-23.5-5.6-35.3-8.4c-3.7-0.9-7.2-4.2-7.2-8.7c0.1-12.5-0.2-25.1-0.3-37.6C-324.8,281.6-324.8,268.9-325,256.2z
				 M-277.2,340.5c-0.3-24-0.4-48-0.7-72.1c-14.9-3.5-29.8-7.1-44.7-10.6c0.3,24,0.4,48,0.7,72.1
				C-307,333.4-292.1,336.9-277.2,340.5z M-304.7,337.1c-1.2-0.2-1.6,0-1.6,1.2c0,1.4,0.3,1.9,1.6,2.2c3.5,0.8,6.9,1.6,10.4,2.5
				c1.2,0.3,1.5,0,1.5-1.4c0-1.2-0.4-1.6-1.6-1.9c-1.7-0.4-3.5-0.8-5.2-1.2C-301.3,338-303,337.5-304.7,337.1z M-296.4,260.1
				c0.2,0,0.5-0.1,0.7-0.2c-0.2-0.2-0.5-0.5-0.7-0.6c-2.7-0.6-5.3-1.2-7.9-1.8c-0.2-0.1-0.5,0.1-0.7,0.2c0.2,0.2,0.5,0.5,0.7,0.6
				c1.4,0.3,2.7,0.6,4,0.9S-297.7,259.8-296.4,260.1z M-316.1,255.2c0.1,0.7,0.7,1.4,1.4,1.5c0.7,0.1,1.2-0.4,1.1-1.1
				c0-0.7-0.6-1.3-1.3-1.4C-315.6,254.1-316.1,254.6-316.1,255.2z"/>
		</g>
		<g>
			<path d="M-248.1,306.3c0-1.4,0.5-2.5,1.7-2.8c1.5-0.4,3.1-0.7,4.7-0.7c5.6,0,11.2,1.3,16.9,3.4c2.6,0.9,5.1,2.2,7.5,3.6
				c1.8,1.1,2.7,2.7,2.7,4.8c0,6.9,0.1,13.9,0.2,20.8c0,0.5,0,1.1,0,1.6c2.1,0.7,4.1,1.4,6.1,2.1c2.3,0.9,4.7,1.9,6.8,3.7
				c1.3,1.1,2,2.3,2,3.9c0,7.2,0.1,14.3,0.2,21.5c0,1.4-0.5,2.5-1.7,2.8c-1.5,0.4-3,0.7-4.6,0.7c-4.9,0-10-1.1-15.1-2.8
				c-2.8-0.9-5.6-2.2-8.3-3.6c-3-1.6-3.7-2.9-3.7-6.1c0-2.3-0.1-4.5-0.1-6.6c-3.8-1.5-7.4-2.9-11.1-4.4c0.1,2.9,0.1,6,0.2,9.1
				c0,1.7-0.6,2.8-2,3.2c-1.4,0.3-2.8,0.6-4.3,0.6c-5,0-10.1-1.1-15.2-2.8c-2.8-1-5.7-2.2-8.4-3.7c-3.1-1.7-3.6-3.1-3.6-5.7
				c0-11.8-0.2-23.6-0.3-35.4c0-1.9,0.8-2.9,2.3-3.4c0.7-0.2,1.5-0.3,2.3-0.4c4.1-0.3,8.5,0.4,12.8,1.6c4.1,1,8.2,2.3,12.2,4.7
				C-248,312.7-248,309.5-248.1,306.3z M-273.7,325c0,1,0,1.9,0.1,2.8c0,0.3,0.5,0.8,0.8,1c2.1,1,4.2,2.1,6.3,2.9
				c5.2,1.9,10.5,3.2,15.6,3.1c4-0.1,3.2,0.1,3.1-3.7C-256.5,331.4-265.1,329.3-273.7,325z M-228.9,360.9c0.1,0.3,0.5,0.9,0.9,1.1
				c2.3,1.1,4.6,2.3,6.9,3.1c5.1,1.8,10.3,2.9,15.3,2.9c0.1,0,0.1,0,0.2,0c2.8-0.1,3.1-0.6,2.5-3.7c-8.6,0.2-17.2-1.9-25.9-6.2
				C-229,359-229.1,359.9-228.9,360.9z M-273.5,342.9c0.1,0.3,0.6,0.8,0.9,1c2,1,4,2.1,6.1,2.8c5.2,1.8,10.5,3,15.6,3.1
				c0.1,0,0.3,0,0.5,0c3.5-0.3,2.9,0.1,2.7-3.8c-4.2,0.4-8.5-0.3-12.9-1.4c-4.4-1-8.7-2.4-13-4.9
				C-273.6,340.9-273.6,341.9-273.5,342.9z M-273.5,347.5c0,0.9,0,1.8,0.1,2.8c0,0.4,0.5,0.9,0.9,1.1c2.3,1,4.5,2.2,6.8,3
				c5.1,1.7,10.1,2.9,15.1,2.8c3.8,0,3.1,0.3,3-3.6C-256.3,353.8-264.8,351.8-273.5,347.5z M-228.9,353.3c0.1,0.4,0.5,0.9,0.8,1.1
				c2,1,4,2.1,6.1,2.8c5.3,1.9,10.6,3.1,15.8,3.2c0.2,0,0.4,0,0.6,0c2.8,0,3-0.4,2.4-3.7c-4.2,0.4-8.5-0.3-12.8-1.4
				c-4.4-1-8.7-2.3-13.1-4.9C-229.1,351.6-229.2,352.5-228.9,353.3z M-273.6,335.3c0,0.4,0.5,1,0.8,1.2c1.9,0.9,3.7,1.9,5.6,2.6
				c5.2,1.8,10.3,3.1,15.4,3.3c1.1,0.1,2.1-0.1,3.2-0.1c0.7-0.1,1.1-0.4,1-1.3c-0.1-0.8-0.1-1.5-0.1-2.3c-8.6,0.2-17.2-1.9-26-6.2
				C-273.7,333.4-273.8,334.3-273.6,335.3z M-273.6,320.4c0,0.3,0.5,0.9,0.9,1.1c2.6,1.1,5.2,2.5,7.8,3.3c4.7,1.5,9.4,2.6,14.1,2.6
				c3.1,0,3.3-0.3,3-3.6c0,0,0-0.1-0.1-0.2c-4.2,0.4-8.5-0.3-12.9-1.4c-4.3-1-8.7-2.4-13-4.9C-273.8,318.5-273.9,319.4-273.6,320.4z
				 M-244.1,325.7c0,0.3,0,0.7,0,1c0,2.5,0,2.6,2.5,3.8c4.4,2.2,8.9,3.5,13.4,4.3c2.8,0.4,5.6,0.5,8.4,0.6c1.7,0,1.6-0.2,1.6-1.9
				c0-0.6,0-1.1,0-1.7C-227,332-235.5,329.9-244.1,325.7z M-244.2,319.5c0.1,2.2,0,2.2,2.2,3.3c4.9,2.4,9.9,3.8,14.9,4.6
				c2.3,0.4,4.6,0.5,6.8,0.5c2.1,0.1,2-0.1,2-2.2c0-0.5,0-0.9,0-1.4c-8.6,0.2-17.2-1.9-25.9-6.1
				C-244.2,318.7-244.2,319.1-244.2,319.5z M-229.2,343.3c0,0.9,0,1.9,0.1,2.9c0,0.3,0.5,0.7,0.8,0.9c1.9,0.9,3.7,1.9,5.6,2.6
				c5.2,1.8,10.3,3.1,15.4,3.3c0.4,0,0.8,0,1.2,0c3.6-0.3,3.1,0.2,2.9-3.7C-212,349.5-220.5,347.4-229.2,343.3z M-244.3,312.3
				c0,1.8,0,1.8,1.7,2.7c4.3,2.3,8.8,3.6,13.2,4.5c3,0.6,6,0.8,8.9,0.9c2.2,0.1,2.1-0.1,2.1-2.3c0-0.4,0-0.8,0-1.3
				c-8.6,0.2-17.2-1.8-25.9-6.1C-244.3,311.3-244.3,311.8-244.3,312.3z M-266.2,313.9c-0.9-0.2-1.8-0.2-2.6-0.3 M-268.8,313.7
				c-1.8-0.1-3.3-0.1-4.4,0.2c1.1,0.8,2.7,1.7,4.6,2.4c0.9,0.4,2.1,0.8,2.5,0.9c6.2,2,14,3.4,17.4,2.6c-2.5-2.3-10.8-5-17.5-5.9
				 M-228.5,339.4c4.2,3.4,20.1,7.3,24.5,5.8C-208.2,341.8-223.8,338-228.5,339.4z M-219,313c-3.7-3.5-20-7.4-25-6
				C-235.5,311.3-227.4,313.2-219,313z M-244,335.8c0.1,0.3,0.5,0.9,0.9,1.1c2.1,1.1,4.2,2,6.3,2.9c1.3,0.5,2.5,0.8,3.9,1.2
				c-0.1-1.2-0.1-2.4-0.1-3.5c-3.6-1.4-7.3-2.8-11.1-4.3C-244.1,334.1-244.1,335-244,335.8z M-232.9,345.1
				c-3.7-1.4-7.4-2.8-11.1-4.3c0,0.7,0,1.7,0.1,2.7c0,0.3,0.5,0.8,0.9,1c2.3,1.1,4.7,2.1,7,3.1c1,0.4,2,0.7,3.1,1
				C-233,347.3-233,346.2-232.9,345.1z"/>
		</g>
	</g>
	<path class="st3" d="M-274,304.3L-274,304.3"/>
	<path class="st3" d="M-274.7,304.3C-274.8,304.3-274.7,304.3-274.7,304.3"/>
</g>
</svg>
