<?xml version="1.0" encoding="utf-8"?>
<!-- Generator: Adobe Illustrator 19.1.0, SVG Export Plug-In . SVG Version: 6.00 Build 0)  -->
<svg version="1.1" id="Layer_1" xmlns="http://www.w3.org/2000/svg" xmlns:xlink="http://www.w3.org/1999/xlink" x="0px" y="0px"
	 viewBox="-417 218 125 125" style="enable-background:new -417 218 125 125;" xml:space="preserve">
<style type="text/css">
	.st0{fill:#7B7B7B;}
</style>
<g>
	<path class="st0" d="M-354.4,221.9c15.7,0,31.4,0,47.1,0c8.3,0,14,5.6,14.1,13.9c0.1,19.2,0.1,38.4,0,57.6
		c0,8.3-5.8,13.9-14.1,13.9c-3.1,0-6.2,0-9.2,0c-2.1,0-3.3-1-3.3-2.7s1.2-2.6,3.3-2.6c3.2,0,6.4,0,9.6,0c4.7,0,7.9-3,8.3-7.7
		c0-0.5,0.1-1.1,0.1-1.6c0-18.7,0-37.4,0-56.2c0-4.9-2.2-8.1-6.4-9c-0.8-0.2-1.6-0.2-2.5-0.2c-31.5,0-62.9,0-94.4,0
		c-5.4,0-8.7,3.2-8.8,8.5c-0.1,19.2-0.1,38.4,0,57.6c0,5.4,3.4,8.5,8.8,8.5c3.1,0,6.2,0,9.2,0c2.1,0,3.3,1,3.2,2.7
		c0,1.7-1.2,2.6-3.3,2.6c-3.4,0-6.8,0-10.1,0c-6.7-0.1-12.5-5.5-13-12.1c-0.1-0.6-0.1-1.3-0.1-2c0-19,0-38,0-57.1
		c0-5.7,2.3-10.1,7.5-12.7c1.8-0.9,4.1-1.4,6.1-1.4C-386.3,221.8-370.3,221.9-354.4,221.9z"/>
	<path class="st0" d="M-325.2,309.8c0.1,16-13,29.3-29,29.4c-16.3,0.1-29.6-13.1-29.6-29.3c0-16.1,13.1-29.2,29.1-29.3
		C-338.5,280.4-325.3,293.5-325.2,309.8z M-330.5,309.9c0.1-13.1-10.7-24-23.9-24c-13.2-0.1-23.9,10.6-24.1,23.9
		c-0.2,13.1,10.6,24,23.8,24.1C-341.4,333.9-330.6,323.2-330.5,309.9z"/>
	<path class="st0" d="M-354.6,269.9c-3.1,0.1-5.8-1-8.3-2.7c-13.5-9.7-27-19.5-40.5-29.2c-0.2-0.2-0.5-0.3-0.7-0.5
		c-1.2-1.1-1.4-2.5-0.6-3.7c0.9-1.2,2.3-1.5,3.7-0.6c2.5,1.7,4.9,3.5,7.4,5.3c11.1,8,22.3,16.1,33.4,24.1c3.9,2.8,7.2,2.8,11.1,0
		c0.4-0.3,0.8-0.6,1.2-0.8c12.9-9.3,25.7-18.6,38.6-27.9c0.1-0.1,0.3-0.2,0.4-0.3c1.9-1.3,3.3-1.3,4.4,0.1c1,1.3,0.5,2.9-1.2,4.2
		c-4.9,3.6-9.9,7.1-14.8,10.7c-8.5,6.1-17,12.3-25.5,18.4C-348.5,268.8-351.4,269.9-354.6,269.9z"/>
	<path class="st0" d="M-303.9,293.3c-0.1,2.5-2.1,3.7-3.8,2.8c-0.6-0.3-1-0.8-1.5-1.2c-8.3-8.2-16.5-16.5-24.7-24.7
		c-0.5-0.5-1-0.9-1.3-1.4c-0.7-1.1-0.7-2.3,0.2-3.2c0.9-1,2-1.2,3.2-0.5c0.5,0.3,0.9,0.7,1.4,1.1c8.3,8.3,16.7,16.7,25,25
		C-304.8,291.9-304.3,292.9-303.9,293.3z"/>
	<path class="st0" d="M-401.9,296.5c-2.5,0-3.8-2.2-2.8-4c0.4-0.6,0.9-1.1,1.4-1.6c8.2-8.3,16.5-16.5,24.7-24.7
		c0.5-0.5,1-0.9,1.5-1.2c1.2-0.8,2.5-0.5,3.1,0.6c0.5,0.8,0.4,2.1,0.2,3.1c-0.1,0.5-0.7,0.9-1.1,1.3c-8.3,8.3-16.7,16.7-25,25
		C-400.6,295.6-401.5,296.1-401.9,296.5z"/>
	<path class="st0" d="M-351.9,304.6c0,3.5,0.1,7-0.1,10.5c-0.1,0.9-1,2.1-1.8,2.5c-0.7,0.3-1.9-0.2-2.7-0.7
		c-0.5-0.3-0.7-1.2-0.7-1.9c0-7-0.1-14,0-21c0-1.7,1.2-2.8,2.6-2.8c1.5,0,2.6,1.1,2.7,2.9C-351.8,297.6-351.9,301.1-351.9,304.6
		L-351.9,304.6z"/>
	<path class="st0" d="M-354.6,323.2c1.4-0.1,2.6,1.1,2.7,2.5s-1,2.7-2.4,2.7c-1.5,0.1-2.7-1.1-2.8-2.6
		C-357.1,324.4-356,323.3-354.6,323.2z"/>
</g>
</svg>
