<?xml version="1.0" encoding="utf-8"?>
<!-- Generator: Adobe Illustrator 19.1.0, SVG Export Plug-In . SVG Version: 6.00 Build 0)  -->
<svg version="1.1" id="Layer_1" xmlns="http://www.w3.org/2000/svg" xmlns:xlink="http://www.w3.org/1999/xlink" x="0px" y="0px"
	 viewBox="-354 156 250 250" style="enable-background:new -354 156 250 250;" xml:space="preserve">
<style type="text/css">
	.st0{fill:#F2F2F2;}
	.st1{fill:#C0BFBF;}
	.st2{fill:#E5E5E5;}
	.st3{fill:none;}
</style>
<g id="XMLID_10335_">
	<polygon id="XMLID_14868_" class="st0" points="-120.1,221 -123.9,371.4 -267.7,402.5 -290.1,313 -268.3,250.1 	"/>
	<polygon id="XMLID_12513_" class="st1" points="-268.3,250.1 -267.7,402.5 -337.3,335 -337.9,189.3 	"/>
	<polygon id="XMLID_12508_" class="st2" points="-120.1,221 -268.3,250.1 -337.9,189.3 -199.6,159.5 	"/>
</g>
<path class="st3" d="M-184.5,304.6C-184.5,304.6-184.5,304.6-184.5,304.6"/>
<path class="st3" d="M-183.8,304.6C-183.8,304.6-183.7,304.6-183.8,304.6"/>
<g>
	<g>
		<path d="M-222.8,288.4c2.7,2.2,5.1,4.3,7.6,6.2c0.2,0.2,1.1-0.2,1.5-0.6c3.9-3.4,7.8-6.8,11.6-10.4c4.9-4.6,10-8.6,15.3-12.3
			c5.6-3.9,11.3-8,16.9-12c1.5-1.1,3-1.9,4.3-1.7c1.7,0.3,2.6,1.6,2.4,3.7c-0.2,2.2-1.6,4.5-3.8,6c-4.1,3-8.3,5.9-12.4,8.8
			c-3.8,2.7-7.7,5.4-11.5,8.2c-1.7,1.2-3.3,2.7-4.9,4.2c-6.2,5.5-12.4,11-18.5,16.7c-1.9,1.8-3.6,4.2-5.3,6.4
			c-0.2,0.3-0.2,0.9-0.2,1.3c1.1,7.1,2.4,14.2,3.4,21.4c0.3,1.9-0.2,4.2-0.5,6.3c-1,8.1-2.1,16.3-3.2,24.5c-0.2,1.3-0.6,2.8-1.2,4.1
			c-1.2,2.3-3.3,3.8-5.2,4c-1.9,0.2-3.3-1-3.1-3.2c0.3-3.6,0.8-7.4,1.3-11c0.8-6.3,1.8-12.6,2.4-18.7c0.2-2.2-0.5-4.2-0.8-6.2
			c-0.7-4-1.3-8.1-2.1-12c-0.1-0.5-0.6-0.8-1.1-1.1c-0.7-0.4-1.7-0.5-2.4-1c-1.3-0.9-2.5-1.9-3.6-2.9c-0.6-0.5-1.2-0.5-2.2,0.1
			c-5.4,3.4-10.9,6.7-16.3,10.1c-1.7,1.1-3.2,1.7-4.3,0.7c-1.1-1-0.8-2.6-0.1-4.5c2.6-7,5.2-13.9,7.9-20.9c0.7-1.9,1.9-3.8,3.2-5.5
			c2.7-3.6,5.6-7.1,8.2-10.8c2.6-3.7,5.4-5.1,8.5-5.3c4.4-0.4,8.8-0.7,13.2-0.9c1.3-0.1,2.2-0.7,3.3-1.9c4.4-5,8.8-10,13.2-14.9
			c2.5-2.8,5.4-2.8,5.7-0.2c0.2,1.7-0.7,3.3-2.1,4.9c-4.5,5-9,9.9-13.3,15.1c-2.9,3.5-5.6,5.4-8.8,5
			C-220.5,288.1-221.5,288.3-222.8,288.4z M-241.8,312.2c-1.6-1.3-3-2.5-4.5-3.7c-1.1,3-2.1,5.6-3.2,8.5
			C-246.8,315.3-244.4,313.8-241.8,312.2z"/>
		<path d="M-248.9,291.7c-5.2,2.3-9.4-0.1-9.3-5.4c0.1-5.3,4.4-11.7,9.4-14c5.1-2.3,9.4,0.2,9.3,5.5
			C-239.6,283.1-243.8,289.3-248.9,291.7z"/>
	</g>
	<path d="M-164.8,281.1c1.5-2.1,3-4.2,4.6-6.3c3.5,2.4,7,4.9,10.5,7.3c1-1.4,2-2.7,3-4.1c2.5,1.8,5,3.5,7.6,5.3
		c-1,1.3-1.9,2.6-2.9,4.1c3.6,2.5,7.1,4.9,10.6,7.4c-1.6,2.2-3,4.2-4.6,6.3C-145.6,294.4-155.2,287.7-164.8,281.1z M-148.4,288.2
		c4,2.7,7.9,5.5,11.9,8.2c0.2,0.1,0.5,0.1,0.8,0.2c-0.1-0.2-0.2-0.6-0.4-0.7c-7.9-5.5-15.8-11-23.7-16.5c-0.1-0.1-0.2-0.2-0.4-0.2
		c-0.1,0-0.3,0-0.5,0c0,0.2,0,0.4,0.1,0.5c0.1,0.1,0.2,0.2,0.4,0.3C-156.2,282.7-152.3,285.5-148.4,288.2z"/>
	<g>
		<path d="M-141.5,297.9c-6.3,15.1-12.6,30.2-18.9,45.4c-9.2-0.3-18.3-0.6-27.5-0.9c5.2-15.1,10.4-30.3,15.6-45.5
			C-162,297.2-151.8,297.5-141.5,297.9z M-170.9,300.1c-1,3-2,5.9-3,8.8c-3.4,9.8-6.7,19.6-10.1,29.4c-0.3,0.7-0.2,0.9,0.4,1
			c3.3,0.1,6.5,0.2,9.8,0.3c3.8,0.1,7.6,0.2,11.4,0.4c0.4,0,0.7,0,1-0.7c2.3-5.5,4.6-11,6.9-16.5c1.9-4.6,3.8-9.2,5.8-13.8
			c1.1-2.7,2.2-5.3,3.3-8C-153.9,300.7-162.3,300.4-170.9,300.1z"/>
		<path d="M-169.8,333.8c-0.8,0-1.6-0.1-2.5-0.1c3.5-9.2,6.9-18.3,10.4-27.5c0.8,0,1.6,0.1,2.5,0.1
			C-162.8,315.5-166.3,324.6-169.8,333.8z"/>
		<path d="M-169,306.1c0.9,0,1.7-0.1,2.6-0.1c-3.2,9.2-6.3,18.4-9.5,27.6c-0.9,0-1.7-0.1-2.6-0.1
			C-175.3,324.5-172.2,315.4-169,306.1z"/>
		<path d="M-163.6,334c-0.9,0-1.7-0.1-2.6-0.1c3.8-9.2,7.7-18.4,11.5-27.6c0.8,0.1,1.6,0.2,2.5,0.3
			C-156,315.8-159.8,324.9-163.6,334z"/>
	</g>
</g>
</svg>
