<?xml version="1.0" encoding="utf-8"?>
<!-- Generator: Adobe Illustrator 19.1.0, SVG Export Plug-In . SVG Version: 6.00 Build 0)  -->
<svg version="1.1" id="Layer_1" xmlns="http://www.w3.org/2000/svg" xmlns:xlink="http://www.w3.org/1999/xlink" x="0px" y="0px"
	 viewBox="-417 218 125 125" style="enable-background:new -417 218 125 125;" xml:space="preserve">
<style type="text/css">
	.st0{fill:none;stroke:#7B7B7B;stroke-width:3;stroke-miterlimit:10;}
	.st1{enable-background:new    ;}
	.st2{fill:#7B7B7B;}
</style>
<path id="XMLID_9271_" class="st0" d="M-296.3,296.3h-116.3c-0.7,0-1.2-0.5-1.2-1.2v-29.2c0-0.7,0.5-1.2,1.2-1.2h116.3
	c0.7,0,1.2,0.5,1.2,1.2v29.2C-295.1,295.8-295.6,296.3-296.3,296.3z"/>
<g id="XMLID_9270_" class="st1">
	<path class="st2" d="M-393.7,286.4v-11.7h5.2c2,0,3.3,1.2,3.3,3c0,1.5-1,2.5-2.1,2.7c1.2,0.2,2.3,1.5,2.3,2.9
		c0,1.9-1.2,3.2-3.4,3.2H-393.7z M-386.7,277.8c0-1.1-0.7-1.9-2-1.9h-3.5v3.8h3.5C-387.4,279.7-386.7,278.9-386.7,277.8z
		 M-386.5,283c0-1.1-0.7-2-2.2-2h-3.6v4h3.6C-387.3,285.1-386.5,284.3-386.5,283z"/>
	<path class="st2" d="M-382.7,281.8v-7.2h1.5v7.1c0,2.1,1.1,3.5,3.3,3.5c2.2,0,3.3-1.4,3.3-3.5v-7.1h1.5v7.2c0,2.9-1.6,4.8-4.8,4.8
		C-381,286.6-382.7,284.7-382.7,281.8z"/>
	<path class="st2" d="M-366.9,286.4v-5l-4.6-6.8h1.7l3.6,5.5l3.6-5.5h1.7l-4.6,6.8v5H-366.9z"/>
	<path class="st2" d="M-346.4,286.4l-6.8-9.4v9.4h-1.5v-11.7h1.5l6.8,9.2v-9.2h1.5v11.7H-346.4z"/>
	<path class="st2" d="M-342.8,280.5c0-3.5,2.4-6.1,5.8-6.1c3.5,0,5.8,2.6,5.8,6.1c0,3.5-2.4,6.1-5.8,6.1
		C-340.4,286.6-342.8,284-342.8,280.5z M-332.6,280.5c0-2.7-1.7-4.8-4.3-4.8c-2.6,0-4.3,2-4.3,4.8c0,2.7,1.7,4.8,4.3,4.8
		C-334.3,285.3-332.6,283.2-332.6,280.5z"/>
	<path class="st2" d="M-320.2,286.4l-2.6-9.5l-2.6,9.5h-1.6l-3.3-11.7h1.6l2.6,9.8l2.7-9.8h1.2l2.7,9.8l2.6-9.8h1.6l-3.4,11.7
		H-320.2z"/>
</g>
</svg>
