<?xml version="1.0" encoding="utf-8"?>
<!-- Generator: Adobe Illustrator 19.1.0, SVG Export Plug-In . SVG Version: 6.00 Build 0)  -->
<svg version="1.1" id="Layer_1" xmlns="http://www.w3.org/2000/svg" xmlns:xlink="http://www.w3.org/1999/xlink" x="0px" y="0px"
	 viewBox="0 0 125 125" style="enable-background:new 0 0 125 125;" xml:space="preserve">
<style type="text/css">
	.st0{fill:#7B7B7B;}
	.st1{fill:none;stroke:#7B7B7B;stroke-width:1.5;stroke-miterlimit:10;}
	.st2{fill:none;stroke:#7B7B7B;stroke-miterlimit:10;}
	.st3{fill:none;stroke:#7B7B7B;stroke-width:2;stroke-miterlimit:10;}
	.st4{fill:none;stroke:#7B7B7B;stroke-width:0.5;stroke-miterlimit:10;}
</style>
<g>
	<path d="M-540.8-224.6c2.4,0.6,5.8,1.6,9.2,2.4c5,1.3,3.8,1.9,7.2-2.3c1.8-2.2,3.6-4.5,5.4-6.7c3.4-4.2,7.4-4.2,10.7,0
		c2.3,2.8,4.6,5.6,6.8,8.4c1,1.3,2,1.7,3.7,1.2c3.7-1.1,7.4-2.1,11.1-3.1c4.3-1.1,7.5,1.2,7.8,5.7c0.3,3.8,0.5,7.7,0.7,11.5
		c0,1.6,0.7,2.5,2.2,3c3.6,1.3,7.1,2.6,10.6,4c4.4,1.8,5.6,5.4,3.1,9.5c-2,3.3-4.2,6.5-6.3,9.7c-0.8,1.2-0.9,2.2,0,3.4
		c2.1,3,4,6.1,6,9.2c3,4.6,1.8,8.1-3.3,10.1c-3.4,1.3-6.8,2.7-10.3,3.9c-1.4,0.5-2,1.3-2.1,2.8c-0.1,3.8-0.4,7.6-0.6,11.3
		c-0.4,5-3.6,7.3-8.5,6c-3.5-0.9-7.1-1.8-10.6-2.8c-1.5-0.4-2.4-0.1-3.3,1.1c-2.3,3-4.7,6-7.1,8.9c-3.1,3.7-7,3.8-10.1,0.1
		c-2.5-2.9-4.9-5.9-7.3-8.9c-0.9-1.1-1.7-1.4-3-1c-3.5,1-7,1.9-10.4,2.8c-5.5,1.6-9-1-9.2-6.7c-0.1-3.5-0.4-6.9-0.5-10.4
		c-0.1-1.5-0.7-2.3-2.1-2.9c-3.4-1.2-6.7-2.5-10.1-3.8c-5.2-2-6.4-5.6-3.4-10.3c2-3.1,3.9-6.2,6-9.2c0.8-1.2,0.9-2.2,0.1-3.4
		c-2.1-3-4-6.1-6-9.2c-3.1-4.7-1.9-8.2,3.3-10.3c3.3-1.3,6.7-2.7,10.1-3.9c1.7-0.6,2.2-1.5,2.2-3.1c0.1-3.7,0.3-7.4,0.6-11.2
		C-548.1-222.7-545.9-224.8-540.8-224.6z M-526.1-171.6c0.6,2.1,1.1,3.8,1.7,5.5c1.3,3.4,3.7,5.3,7.5,5.3c3.1,0,6.2,0.4,9.3,0.2
		c3-0.1,6.1-0.4,9-1.1c3.1-0.8,4.2-2.8,4.2-6c0-0.6,0.4-1.3,0.8-1.7c1.4-1.6,1.9-3.4,1.5-5.5c-0.2-0.8,0.1-1.8,0.5-2.5
		c1.1-1.9,1.2-3.7,0.1-5.6c-0.4-0.6-0.5-1.6-0.3-2.3c0.6-2.8-0.4-4.8-3.1-5.8c-1-0.4-2.2-0.7-3.3-0.7c-3.2,0.2-6.4,0.5-9.6,0.9
		c-1.6,0.2-2.2-0.3-2-1.7c0.3-2.1,0.9-4.2,1.3-6.4c0.4-2.2,0.9-4.5,1-6.8c0.1-2.3-1.3-4-3.5-4.8c-2.4-0.9-3.5-0.1-3.7,2.5
		c-0.1,1.3-0.2,2.7-0.6,4c-2.5,7.2-6.4,13.5-11.3,18.6c-3-0.1-6-0.2-8.9-0.2c-2.7,0-4.4,1.7-4.5,4.5c-0.1,5.5-0.1,11.1,0,16.6
		c0,2.7,1.9,4.4,4.5,4.4c1.9,0,3.9,0,5.8,0c2.6,0,3.5-0.8,3.6-3.4C-526.1-166.1-526.1-168.7-526.1-171.6z"/>
</g>
<g>
	<path class="st0" d="M11.8-151.6c0,6.4,0,12.8,0,19.2c-23.1,0-46.2,0-69.3,0c0-6.4,0-12.8,0-19.2
		C-34.4-151.6-11.3-151.6,11.8-151.6z M-27.8-142.1c0-0.1,0-0.1,0-0.2c-9-2.4-18.1-4.7-27.1-7.1c0,4.8,0,9.5,0,14.3
		C-45.8-137.4-36.8-139.8-27.8-142.1z M9.2-149.4C0-147-9-144.7-18.4-142.2c9.4,2.4,18.4,4.8,27.6,7.2
		C9.2-139.9,9.2-144.6,9.2-149.4z M-47.3-134.8c0,0.1,0,0.1,0,0.2c16.6,0,33.1,0,50,0c-0.5-0.2-0.8-0.3-1-0.4
		c-7.8-2-15.6-4.1-23.4-6.1c-0.5-0.1-1.1-0.1-1.6,0c-4,1-7.9,2-11.9,3.1C-39.3-136.9-43.3-135.8-47.3-134.8z M1.3-149.2
		c0-0.1,0-0.1,0-0.2c-15.8,0-31.7,0-47.5,0c0.2,0.2,0.4,0.3,0.7,0.4c7.4,1.9,14.8,3.9,22.2,5.8c0.6,0.1,1.3,0.1,1.9-0.1
		c4.9-1.3,9.9-2.5,14.8-3.8C-4-147.8-1.3-148.6,1.3-149.2z"/>
	<path class="st0" d="M-57.5-129.3c10.8,0,21.5,0,32.3,0c0,6.4,0,12.8,0,19.3c-10.8,0-21.5,0-32.3,0
		C-57.5-116.4-57.5-122.8-57.5-129.3z M-54.9-126c0,4.4,0,8.6,0,12.8c9.1,0,18.1,0,27.1,0c0-4.3,0-8.5,0-12.8
		C-36.9-126-45.9-126-54.9-126z"/>
	<path class="st0" d="M10.9-117c0,0.7,0,1.4,0,2.1c-9.3,0-18.6,0-28,0c0-0.7,0-1.3,0-2.1C-7.8-117,1.5-117,10.9-117z"/>
	<path class="st0" d="M10.9-111.2c-9.4,0-18.7,0-28,0c0-0.7,0-1.4,0-2.1c9.3,0,18.6,0,28,0C10.9-112.6,10.9-111.9,10.9-111.2z"/>
	<path class="st0" d="M10.9-120.8c0,0.7,0,1.4,0,2.1c-9.3,0-18.6,0-28,0c0-0.7,0-1.3,0-2.1C-7.8-120.8,1.5-120.8,10.9-120.8z"/>
	<path class="st0" d="M-18.7-112.5c0,0.7-0.8,1.4-1.6,1.4c-0.8,0-1.6-0.7-1.5-1.3c0.1-0.8,0.6-1.3,1.6-1.3
		C-19.3-113.7-18.8-113.2-18.7-112.5z"/>
	<path class="st0" d="M-20.1-117.5c0.8,0,1.3,0.5,1.4,1.3c0.1,0.7-0.7,1.3-1.5,1.3c-0.9,0-1.5-0.5-1.6-1.3
		C-21.9-116.9-21.1-117.5-20.1-117.5z"/>
	<path class="st0" d="M-20.3-121.4c0.8,0,1.6,0.6,1.6,1.3c0,0.8-0.5,1.3-1.5,1.3c-1,0-1.5-0.5-1.6-1.3
		C-21.9-120.7-21.1-121.3-20.3-121.4z"/>
	<g>
		<path class="st0" d="M-69.4-99.8c0-1.1,0-1.8,0-2.6c0-18.8,0-37.6,0-56.3c0-3.7,1-4.7,4.7-4.7c28.1,0,56.1,0,84.2,0
			c3.8,0,4.7,0.9,4.7,4.8c0,18.8,0,37.6,0,56.3c0,0.7,0,1.5,0,2.4c3.8,0,7.3,0,10.9,0c2,0,2.9,1,2.6,2.9c-0.1,0.6-0.8,1.5-1.4,1.7
			c-3.3,0.9-6.6,2.2-9.9,2.2c-32.7,0.2-65.4,0.2-98.2,0c-3.3,0-6.6-1.3-9.9-2.1c-1.5-0.4-1.6-1.6-1.4-2.8c0.2-1.3,1.1-1.9,2.4-1.9
			c3,0,5.9,0,8.9,0C-71-99.8-70.3-99.8-69.4-99.8z M22.8-99.8c0-0.9,0-1.5,0-2.1c0-19,0-37.9,0-56.9c0-2.8-0.5-3.2-3.3-3.2
			c-28.1,0-56.1,0-84.2,0c-2.9,0-3.3,0.4-3.3,3.2c0,19,0,37.9,0,56.9c0,0.7,0.1,1.3,0.1,2.1c0.9,0,1.5,0,2.2,0c9.5,0,19,0,28.4,0
			c1.3,0,2.8-0.6,3.5,1.3c0.1,0.2,0.8,0.3,1.2,0.3c6.7,0,13.3,0,20,0c0.5,0,1.2-0.2,1.3-0.4c0.4-1.5,1.6-1.2,2.6-1.2
			c9.7,0,19.5,0,29.2,0C21.2-99.8,21.9-99.8,22.8-99.8z M-22.6-94.2c16.3,0,32.7,0.1,49-0.1c3.1,0,6.1-1.2,9.1-1.9
			c0.4-0.1,0.7-0.9,0.7-1.4c0-0.2-0.7-0.6-1.2-0.7c-0.4-0.1-0.9,0-1.3,0c-13.4,0-26.8,0-40.1,0c-1.6,0-3.4-0.5-4.6,1.2
			c-0.2,0.3-1.1,0.3-1.6,0.3c-6.7,0-13.4,0-20.2,0c-0.7,0-1.4-0.4-2.1-0.6c-0.8-0.3-1.6-0.9-2.5-0.9c-9.3-0.1-18.6,0-27.9,0
			c-5,0-9.9,0-14.9,0c-0.5,0-1,0.5-1.5,0.7c0.3,0.5,0.6,1.4,1,1.5c3.1,0.7,6.2,1.8,9.3,1.9C-55-94.1-38.8-94.2-22.6-94.2z"/>
		<path class="st0" d="M-22.8-103.7c-13,0-26,0-39,0c-1.7,0-2.3-0.4-2.2-2.2c0.1-16.2,0.1-32.4,0-48.6c0-1.6,0.4-2.2,2.1-2.2
			c26.3,0.1,52.5,0,78.8,0c1.5,0,2.1,0.4,2.1,2c-0.1,16.3-0.1,32.7,0,49c0,1.6-0.6,2-2.1,2C3.6-103.7-9.6-103.7-22.8-103.7z
			 M-62.5-105.2c26.8,0,53.3,0,79.8,0c0-16.7,0-33.4,0-49.9c-26.7,0-53.2,0-79.8,0C-62.5-138.5-62.5-121.9-62.5-105.2z"/>
	</g>
</g>
<g>
	<g>
		<path class="st0" d="M64.8-94.2c0-1,0-1.8,0-2.5c0-18.1,0-36.3,0-54.4c0-3.6,0.9-4.5,4.5-4.5c27.1,0,54.2,0,81.3,0
			c3.7,0,4.6,0.9,4.6,4.6c0,18.1,0,36.3,0,54.4c0,0.7,0,1.4,0,2.4c3.6,0,7.1,0,10.5,0c2,0,2.8,0.9,2.5,2.8c-0.1,0.6-0.8,1.5-1.3,1.6
			c-3.1,0.8-6.3,2.1-9.5,2.1c-31.6,0.2-63.2,0.2-94.7,0c-3.2,0-6.4-1.3-9.5-2c-1.5-0.3-1.6-1.5-1.4-2.7c0.2-1.3,1.1-1.8,2.3-1.8
			c2.8,0,5.7,0,8.5,0C63.3-94.2,63.9-94.2,64.8-94.2z M153.8-94.2c0-0.9,0-1.5,0-2.1c0-18.3,0-36.6,0-54.9c0-2.7-0.4-3.1-3.2-3.1
			c-27.1,0-54.2,0-81.3,0c-2.8,0-3.2,0.4-3.2,3.1c0,18.3,0,36.6,0,54.9c0,0.6,0.1,1.3,0.1,2.1c0.8,0,1.5,0,2.1,0
			c9.2,0,18.3,0,27.5,0c1.2,0,2.7-0.5,3.3,1.3c0.1,0.2,0.8,0.2,1.2,0.3c6.4,0,12.8,0,19.3,0c0.4,0,1.2-0.2,1.3-0.4
			c0.4-1.4,1.5-1.2,2.5-1.2c9.4,0,18.8,0,28.2,0C152.3-94.2,152.9-94.2,153.8-94.2z M110-88.8c15.8,0,31.5,0.1,47.3-0.1
			c3,0,5.9-1.1,8.8-1.9c0.4-0.1,0.7-0.9,0.7-1.4c0-0.2-0.7-0.6-1.2-0.7c-0.4-0.1-0.8,0-1.3,0c-12.9,0-25.8,0-38.7,0
			c-1.6,0-3.2-0.5-4.5,1.1c-0.2,0.3-1,0.3-1.5,0.3c-6.5,0-13,0-19.5,0c-0.7,0-1.4-0.3-2-0.6c-0.8-0.3-1.6-0.8-2.4-0.8
			c-9-0.1-17.9,0-26.9,0c-4.8,0-9.6,0-14.4,0c-0.5,0-0.9,0.5-1.4,0.7c0.3,0.5,0.5,1.3,0.9,1.4c3,0.7,6,1.8,9,1.8
			C78.7-88.7,94.4-88.8,110-88.8z"/>
		<path class="st0" d="M109.8-97.9c-12.5,0-25.1,0-37.6,0c-1.7,0-2.2-0.4-2.2-2.1c0.1-15.6,0.1-31.3,0-46.9c0-1.5,0.3-2.1,2-2.1
			c25.3,0.1,50.7,0,76,0c1.5,0,2,0.4,2,1.9c-0.1,15.8-0.1,31.5,0,47.3c0,1.6-0.5,1.9-2,1.9C135.3-97.9,122.5-97.9,109.8-97.9z
			 M71.4-99.4c25.8,0,51.4,0,77,0c0-16.2,0-32.2,0-48.2c-25.8,0-51.4,0-77,0C71.4-131.5,71.4-115.5,71.4-99.4z"/>
	</g>
	<g>
		<path class="st0" d="M137.6-192.6c-0.4,0.6-0.8,1.1-1.3,1.7c-8-5.4-16.8-8.2-26.4-8.2c-9.6,0-18.3,2.8-26.4,8.2
			c-0.1-0.2-0.3-0.4-0.4-0.6c-0.3-0.4-0.6-0.8-0.8-1.2C97.1-203.9,121-204.6,137.6-192.6z"/>
		<path class="st0" d="M87.8-184.9c12-9.1,32.4-9.1,44.2,0c-0.4,0.5-0.8,1.1-1.3,1.8c-6.3-4.2-13.3-6.4-20.8-6.4
			c-7.5,0-14.5,2.2-20.8,6.4C88.6-183.8,88.2-184.3,87.8-184.9z"/>
		<path class="st0" d="M126.4-177.1c-0.4,0.6-0.8,1.1-1.3,1.7c-10.1-5.9-20.2-6.1-30.4-0.1c-0.2-0.2-0.5-0.5-0.7-0.7
			c-0.2-0.2-0.4-0.5-0.6-0.8C101.2-183.3,116.2-184.5,126.4-177.1z"/>
		<path class="st0" d="M100.4-167.8c-0.5-0.6-0.9-1.1-1.2-1.6c4.5-4.4,16.1-4.4,21.6,0c-0.4,0.5-0.8,1-1.3,1.7
			C113.2-171.3,106.9-171.5,100.4-167.8z"/>
		<path class="st0" d="M115.2-161.8c-0.5,0.6-0.9,1.2-1.3,1.8c-2.6-1.2-5.1-1.4-7.8,0c-0.4-0.6-0.9-1.1-1.4-1.8
			C108.3-163.5,111.7-163.7,115.2-161.8z"/>
	</g>
</g>
<g>
	<path class="st0" d="M-1017.4,157.5c6.1,0,12.1,0,18.1,0c7.2,0,10.8-4.3,9.5-11.4c-2.4-13-4.8-26.1-7.2-39.1
		c-0.8-4.1-3.2-6.6-7-7.3c-3.4-0.6-6.4,0.8-8.3,4.7c-2.4,4.8-4.4,9.7-6.4,14.7c-0.6,1.6-1.5,2-3.1,2c-4.9-0.1-9.8-0.1-14.7,0
		c-4.9,0.1-7.6,4.7-5.2,8.9c1.1,1.9,2.8,2.9,5,2.9c6.8,0,13.5,0,20.3,0c3.2,0,5.2-1.9,6.5-4.8c1,5.2,1.9,10.4,3,15.9
		c-0.9,0-1.7,0-2.5,0c-4.1,0-8.2,0-12.3,0c-3.6,0-5.8,1.5-6.8,5.1c-3,11.7-6,23.3-8.8,35c-0.9,3.8,1.3,7.3,4.9,8.2
		c3.3,0.8,6.6-1.4,7.6-5.2c2.3-9.1,4.6-18.3,6.9-27.4C-1017.8,159-1017.7,158.3-1017.4,157.5z"/>
	<path class="st0" d="M-1002.2,84.3c-0.2-7.3-5.7-12.8-12.6-12.5c-6.7,0.2-11.9,6.2-11.7,13.3c0.2,7,5.8,12.5,12.4,12.4
		C-1007.4,97.3-1002,91.2-1002.2,84.3z"/>
	<path class="st0" d="M-1057,122.8c0.5,0,1.1-0.1,1.9-0.1c0.1-0.7,0.1-1.2,0.2-1.8c0.3,1.2,0.6,2.2,2.3,1.2
		c-2.2-17.1-4.3-34.3-6.5-52c-0.9,0.7-1.5,1.2-1.9,1.5c-0.6-0.2-1.3-0.5-2.3-0.9c0.2,1.8,0.3,3,0.4,4.3c0.3,2.2-0.3,4.2-1.6,6
		c-0.3,0.5-0.6,1.2-0.5,1.8C-1063.8,96.4-1061.7,109.8-1057,122.8z"/>
	<path class="st0" d="M-1047.3,132.8c0-0.7,0-1.2,0-1.7c-0.2-0.1-0.3-0.2-0.4-0.2c-4.2-1.1-8.4-2.2-12.5-3.4
		c-2.1-0.6-4.1-1.4-6.1-1.8c-4.5-0.8-8,2.5-7.5,7.1C-1065,132.8-1056.2,132.8-1047.3,132.8z"/>
	<path class="st0" d="M-1061.2,112.4c-1.1,4.3-2.2,8.6-3.3,13c1.5,0.5,2.8,0.9,4,1.3C-1057.4,121.7-1059.5,117.1-1061.2,112.4z"/>
</g>
<g>
	<path class="st0" d="M-959,97.7v33.3h90.3V97.7H-959z M-869.9,129h-87.4V99.5h87.4V129z"/>
	<path class="st0" d="M-961.7,134.4c16.7,0,33.2,0,49.8,0c0,6.9,0,13.7,0,20.6c-16.6,0-33.2,0-49.8,0
		C-961.7,148.1-961.7,141.3-961.7,134.4z M-957.7,137.9c0,4.7,0,9.1,0,13.6c14,0,27.8,0,41.8,0c0-4.6,0-9.1,0-13.6
		C-929.9,137.9-943.7,137.9-957.7,137.9z"/>
	<path class="st0" d="M-871,144.3c0,0.9,0,1.8,0,2.8c-12.5,0-24.9,0-37.4,0c0-0.9,0-1.8,0-2.8C-896,144.3-883.6,144.3-871,144.3z"/>
	<path class="st0" d="M-871,152.1c-12.5,0-24.9,0-37.4,0c0-0.9,0-1.8,0-2.8c12.4,0,24.9,0,37.4,0C-871,150.2-871,151.1-871,152.1z"
		/>
	<path class="st0" d="M-871,139.3c0,0.9,0,1.8,0,2.8c-12.5,0-24.9,0-37.4,0c0-0.9,0-1.8,0-2.8C-896,139.3-883.5,139.3-871,139.3z"/>
	<g>
		<path class="st0" d="M-967.1,162.1c-0.1-1.3-0.2-2.5-0.2-3.6c0-20.6,0-41.2,0-61.8c0-3.9,0.8-4.7,4.6-4.7c32.6,0,65.2,0,97.8,0
			c3.7,0,4.6,0.9,4.6,4.6c0,20.7,0,41.4,0,62.1c0,1.1-0.1,2.1-0.2,3.4c0.9,0,1.9,0,2.8,0c2.3,0.1,3.8,1.6,3.7,3.8
			c0,2.1-1.4,3.6-3.6,3.8c-0.4,0-0.8,0-1.2,0c-37.2,0-74.3,0-111.5,0c-1.9,0-3.6-0.3-4.4-2.2c-1.2-2.6,0.5-5.3,3.4-5.4
			C-969.9,162.1-968.5,162.1-967.1,162.1z M-864.2,95.9c-0.8,0-1.3,0-1.8,0c-31.9,0-63.7,0-95.6,0c-1.5,0-2,0.4-2,1.9
			c0.1,20,0,40,0,60c0,0.6,0.1,1.1,0.1,1.7c33.2,0,66.2,0,99.2,0C-864.2,138.3-864.2,117.2-864.2,95.9z M-866.9,167
			c2.4,0,4.4,0,6.7,0C-861.3,165.7-865.6,165.6-866.9,167z"/>
	</g>
	<g>
		<path class="st0" d="M-932.4,120.1c-3.9-0.4-7.7-0.8-11.5-1.2c-0.8-0.1-1.5-0.1-2.3-0.2c-0.6-0.1-1.5,0-1.5-1
			c0.1-0.9,0.9-0.7,1.5-0.7c2.9,0.1,5.9,0.2,8.8,0.3c5,0.2,10.1,0.4,15.2,0.6c0.3-1.7,0.8-3.3,2-4.6c1.1-1.3,2.6-2.2,4.1-2.7
			c-0.1-0.9-0.4-1.8-0.2-2.5c0.2-0.7,1-1.2,1.4-1.8c0.2-0.2,0.3-0.4,0.3-0.7c0-1.1,0-2.1,0-3.2c-2.6-0.2-5.2-0.4-7.8-0.6
			c0,0-0.1-0.1-0.2-0.3c0.3,0,0.6-0.1,0.9-0.1c1.9,0,3.8,0,5.7,0c0.6,0,1.1-0.3,1.7-0.3c0.5,0,1,0.3,1.5,0.3c1.5,0,3,0,4.5,0
			c0.9,0,1.9,0,2.8,0c0,0.1,0,0.2,0.1,0.4c-0.3,0.1-0.6,0.2-1,0.2c-2.1,0.1-4.3,0.2-6.4,0.3c-0.2,0-0.4,0.1-0.7,0.1
			c0.1,1.2,0.1,2.3,0.2,3.4c0,0.2,0.2,0.3,0.3,0.5c1.8,1.3,2,2,1.1,4.2c3.5,1.2,5.6,3.5,6.1,7.2c1.4,0,2.8,0,4.2,0
			c6.6-0.2,13.2-0.5,19.9-0.7c0.1,0,0.2,0,0.3,0c0.6,0,1.3,0,1.3,0.8c0,0.8-0.7,0.8-1.2,0.9c-1.5,0.2-2.9,0.3-4.4,0.5
			c-3.2,0.3-6.4,0.7-9.7,1c0.9,2,0.8,3.7-1,5.1c-1.2,0.9-2.5,1-3.9,0.4c-1.9-1-2.3-2.6-1.9-4.7c-1.3,0.1-2.5,0.2-3.6,0.4
			c-0.2,0-0.4,0.4-0.6,0.6c-1.5,3.3-4.1,5.1-7.6,5.1c-3.6,0-6.1-1.8-7.7-5c-0.2-0.3-0.6-0.6-1-0.7c-1-0.2-2-0.2-3.2-0.3
			c0.5,2.2-0.1,4-2.2,4.9c-1.4,0.6-2.8,0.3-4-0.8C-933.1,123.7-933.3,122.3-932.4,120.1z M-913.9,125.2c3.7,0,6.6-2.9,6.7-6.5
			c0-3.7-2.8-6.7-6.5-6.7c-3.6-0.1-6.7,3-6.7,6.6C-920.5,122.2-917.5,125.2-913.9,125.2z M-929.3,124.6c1.3,0,2.3-1,2.3-2.3
			c0-1.3-1.1-2.4-2.4-2.4c-1.3,0-2.3,1-2.3,2.3C-931.6,123.5-930.6,124.6-929.3,124.6z M-896.1,122.2c0-1.2-1.1-2.3-2.3-2.3
			c-1.3,0-2.4,1.1-2.3,2.4c0,1.3,1.1,2.3,2.4,2.3C-897.1,124.5-896.1,123.5-896.1,122.2z M-913.8,110.3c0.8,0,1.6-0.7,1.6-1.5
			c0-0.8-0.7-1.5-1.5-1.5c-0.8,0-1.5,0.6-1.5,1.4C-915.3,109.6-914.7,110.2-913.8,110.3z"/>
		<path class="st0" d="M-913.9,124.6c-1.3,0-2.3-1-2.3-2.3c0-1.3,1.1-2.4,2.4-2.3c1.2,0,2.3,1.1,2.3,2.3
			C-911.5,123.6-912.5,124.6-913.9,124.6z"/>
		<path class="st0" d="M-914.3,115.1c0,0.8,0,1.4,0,2.2c-1.7-0.2-3.3-0.3-4.9-0.5c0.4-1.5,0.5-1.6,1.9-1.6
			C-916.3,115.1-915.4,115.1-914.3,115.1z"/>
		<path class="st0" d="M-913.4,117.3c-0.4-2.1-0.4-2.2,1.6-2.2c0.4,0,0.9,0,1.3,0c1.4,0,1.5,0.1,2,1.6
			C-910.1,116.9-911.7,117.1-913.4,117.3z"/>
	</g>
</g>
<g>
	<path class="st0" d="M-755.6,71.5c-4.6,4.1-4.6,6.4-0.4,10.1c-0.4,0.6-0.8,1.2-1.1,1.9c-0.6,1.6-0.5,3.5,1,4.3
		c1.5,0.8,1.9,1.9,2.1,3.4c0.1,0.6,0.4,1.3,0.9,1.5c1.9,0.8,2.3,2.5,3,4.2c1,2.6,4.4,3.3,6.7,1.5c0.7-0.5,1.2-1.3,1.7-1.9
		c2.8,2.9,3.7,3,7,0.7c0.3-0.2,0.8-0.3,1.1-0.2c4,0.8,5.7-0.2,7.2-4c0.1-0.3,0.2-0.5,0.5-1.3c2.2,3.6,4.4,6.9,6.1,10.4
		c13.4,27.5,4,58.9-22.3,74.6c-7.3,4.3-15.2,6.6-23.6,7.3c-4.3,0.3-8.6,0.9-12.9,0.7c-13.8-0.4-25.8-5.4-36-14.7
		c-12.1-11.1-18.1-25.1-18.2-41.4c-0.2-25.2,17.3-47.5,41.6-54.2c9.1-2.5,18.1-4.2,27.5-3.7C-761,70.9-758.5,71.2-755.6,71.5z
		 M-758.6,73.2c-24.1-5.4-52.4,6.5-63.1,35c-9.9,26.4,2.1,55.9,27.2,68.2c25.6,12.5,56.1,3.5,71.3-21c13.2-21.3,8.5-47-2.2-60
		c-0.1,0.2-0.2,0.3-0.2,0.5c-1.3,4.1-3.9,5.4-7.9,4c-0.5-0.2-1.4,0.1-1.9,0.4c-2.4,1.6-4.3,1.4-6.2-0.7c-0.3-0.3-0.4-0.7-0.7-1.2
		c-1.6,2.3-3.4,3.5-5.8,3c-2.4-0.5-3.5-2.2-3.9-4.6c-0.1-0.5-0.6-1-1.1-1.2c-1.6-0.7-2.4-1.8-2.6-3.5c-0.1-0.7-0.7-1.5-1.3-1.9
		c-1.3-0.8-2.4-1.8-2.3-3.3c0.1-1.3,0.7-2.5,1-3.8C-762.8,80.4-763,76.8-758.6,73.2z M-796.3,178c-18.9-11.1-29.9-27.4-30.8-49.4
		c-0.9-22.3,9.2-39,28.6-50.5c-16.1,7.2-31.9,25.9-31.3,50.7c0.3,12.9,4.6,24.4,12.9,34.3C-811.2,169.7-804.4,174.8-796.3,178z"/>
	<path class="st0" d="M-752.8,83c-0.8-1.2-1.7-1.9-1.7-2.5c0.1-0.6,1.1-1.6,1.7-1.6c0.6,0,1.6,1,1.7,1.6
		C-751.1,81.1-752,81.8-752.8,83z"/>
	<path class="st0" d="M-725.4,84.7c0.8,1.2,1.7,1.9,1.6,2.5c-0.1,0.6-1.1,1.6-1.6,1.6c-0.6,0-1.6-1-1.7-1.6
		C-727.2,86.6-726.3,85.9-725.4,84.7z"/>
	<path class="st0" d="M-753.9,73c0.8-0.5,1.2-1,1.7-1c0.3,0,0.9,0.8,0.9,1.1c-0.1,0.4-0.7,0.9-1.1,1
		C-752.8,74.1-753.2,73.5-753.9,73z"/>
	<path class="st0" d="M-732.8,93.5c-0.5-0.7-1-1-1-1.4c0-0.3,0.5-0.6,0.8-1c0.4,0.3,0.9,0.6,1,1C-731.9,92.4-732.4,92.8-732.8,93.5z
		"/>
	<path class="st0" d="M-797.3,138.7c0-5.2,4.2-9.4,9.3-9.5c5.2,0,9.4,4.3,9.4,9.6c0,5.1-4.2,9.2-9.4,9.2
		C-793.1,148.1-797.3,143.9-797.3,138.7z M-788.6,141.1c0-2-1.5-3.6-3.4-3.6c-1.9,0-3.6,1.6-3.6,3.5c0,1.9,1.6,3.5,3.5,3.6
		C-790.2,144.7-788.7,143.1-788.6,141.1z"/>
	<path class="st0" d="M-731,113.6c4.1,0.1,7.3,3.3,7.2,7.3c-0.1,3.9-3.4,7.2-7.3,7.1c-4,0-7.4-3.5-7.2-7.4
		C-738.1,116.6-734.9,113.5-731,113.6z M-733.9,126c2-0.1,2.7-0.8,2.7-2.1c0-1.2-0.8-2-2-2c-1.3,0-2.2,0.8-2,2.1
		C-735.1,124.8-734.2,125.5-733.9,126z"/>
	<path class="st0" d="M-780.9,155.5c3.8,0,6.9,3.2,6.9,7c0,3.7-3.3,6.9-7,6.9c-3.7,0-7-3.3-6.9-7
		C-787.8,158.7-784.6,155.5-780.9,155.5z M-787,162.9c0.8,0.6,1.3,1.3,1.7,1.3c0.5,0,1.3-0.8,1.3-1.1c-0.1-0.6-0.7-1.3-1.2-1.4
		C-785.5,161.6-786.1,162.3-787,162.9z"/>
	<path class="st0" d="M-761.5,110.3c3.7,0,6.8,3.2,6.9,7c0,3.7-3.2,6.9-7,6.9c-3.8,0-7.1-3.3-7-7.1
		C-768.6,113.4-765.3,110.3-761.5,110.3z M-764,121.4c0.8,0.7,1.4,1.4,1.7,1.4c0.5-0.1,1-0.8,1.5-1.3c-0.4-0.4-0.8-1.1-1.3-1.2
		C-762.6,120.2-763.1,120.8-764,121.4z"/>
	<path class="st0" d="M-775,80.3c3.7,0,6.6,2.9,6.6,6.5c0,3.8-3,6.9-6.7,6.9c-3.8,0-6.6-3-6.6-6.9C-781.7,83.1-778.8,80.3-775,80.3z
		 M-779.6,90c0.9,0.6,1.4,1.2,1.9,1.1c0.5,0,0.8-0.8,1.3-1.2c-0.4-0.4-0.8-1.1-1.3-1.2C-778.1,88.7-778.7,89.4-779.6,90z"/>
	<path class="st0" d="M-814.1,129.4c-3.8,0.1-6.9-3-7-6.9c-0.1-3.7,3.1-6.9,6.8-6.9c3.7-0.1,7,3.1,7,6.9
		C-807.3,126.2-810.4,129.3-814.1,129.4z M-819.9,124.2c0,1.4,1.1,2.6,2.5,2.6c1.4,0,2.6-1.1,2.6-2.5c0-1.4-1.2-2.6-2.5-2.6
		C-818.7,121.7-819.8,122.8-819.9,124.2z"/>
	<path class="st0" d="M-804.2,96.9c4,0,7.3,3.1,7.2,7.1c0,4-3.2,7.1-7.3,7.1c-3.8,0-6.9-3.2-6.9-7
		C-811.1,100.1-808.1,96.9-804.2,96.9z M-805.7,105.7c0,1.7,1.5,3.1,3.2,3.1c1.7,0,3.1-1.4,3.1-3.2c0-1.8-1.4-3.1-3.2-3.1
		C-804.3,102.6-805.7,104.1-805.7,105.7z"/>
	<path class="st0" d="M-753.8,165.9c0,3.6-2.9,6.4-6.5,6.3c-3.5-0.1-6.3-2.9-6.3-6.4c0-3.6,2.8-6.4,6.5-6.4
		C-756.5,159.4-753.8,162.2-753.8,165.9z M-762.4,164.4c-0.3,0-0.6,0-0.9,0c-0.5,0.8-1.4,1.5-1.5,2.3c-0.2,1.2,0.8,2.3,2.1,2
		c0.8-0.2,1.7-1.3,1.8-2C-760.9,165.9-761.9,165.1-762.4,164.4z"/>
	<path class="st0" d="M-750.9,145.1c-3,0-5.4-2.5-5.4-5.6c0-3.1,2.5-5.5,5.5-5.5c3.1,0,5.6,2.6,5.5,5.7
		C-745.3,142.8-747.8,145.2-750.9,145.1z M-747.9,137.3c-0.7,1-1.6,1.7-1.4,2.2c0.1,0.6,0.9,1.4,1.6,1.5c0.4,0.1,1.4-0.9,1.4-1.4
		C-746.3,139-747.1,138.4-747.9,137.3z"/>
	<path class="st0" d="M-734.3,161.8c-2.4,1.1-4.7,0.6-5.9-1.4c-1.2-1.9-0.7-4.6,1.2-5.9c1.8-1.3,4.3-1.1,5.8,0.6
		c1.5,1.7,1.6,4.2,0,5.9c-0.2,0.2-0.5,0.3-0.8,0.4c-0.2-0.6-0.5-1.3-0.7-1.9c-0.5,0.2-1.2,0.3-1.3,0.6c-0.2,0.3,0,1.1,0.3,1.4
		C-735.4,161.8-734.7,161.7-734.3,161.8z"/>
	<path class="st0" d="M-785.8,109.1c0-1.8,1.7-3.3,3.4-3.2c1.7,0.1,3,1.6,3,3.4c0,1.8-1.4,3.1-3.2,3.1
		C-784.5,112.3-785.8,110.9-785.8,109.1z"/>
	<path class="st0" d="M-816.1,150.8c-1.6-1.2-2-2.8-1.1-4.4c0.9-1.5,2.7-2.1,4.3-1.5c1.6,0.6,2.6,2.4,2.2,4c-0.5,1.8-2,2.9-3.9,2.6
		c-0.4-0.1-0.8-0.3-1.2-0.4c0.3,0,0.6,0,0.9,0c1.4,0,2.4-0.7,2-2.1c-0.2-0.7-1.2-1.5-2-1.6c-1.2-0.2-1.9,1.1-1.6,2.5
		C-816.3,150.2-816.2,150.5-816.1,150.8z"/>
	<path class="st0" d="M-803.2,157c-1.3-0.1-2.2-0.7-2.2-2.1c0-1.4,0.8-2.2,2.1-2.3c1.4-0.1,2.2,0.8,2.3,2.2
		C-801,156.1-801.8,156.9-803.2,157z"/>
	<path class="st0" d="M-768.8,144.5c1.1-0.7,1.7-1.5,2.2-1.4c0.5,0.1,1.2,1,1.3,1.6c0.1,0.4-0.9,1.2-1.4,1.2
		C-767.2,145.9-767.8,145.2-768.8,144.5z"/>
	<path class="st0" d="M-721.1,144.4c-0.8-1-1.6-1.6-1.5-2.1c0.1-0.6,0.9-1,1.4-1.5c0.5,0.5,1.2,1,1.4,1.6
		C-719.7,142.8-720.4,143.4-721.1,144.4z"/>
</g>
<g>
	<path class="st1" d="M87.2,12.6c-0.1,3,1.3,4.7,4.2,5.3c3.3,0.7,4,1.9,2.8,5c-0.9,2.6-0.1,4.7,2.3,6.1c2.8,1.6,3.1,3.1,1,5.6
		c-1.8,2.2-1.8,4.4,0,6.6c2.1,2.5,1.8,4-1,5.6c-2.5,1.4-3.2,3.5-2.2,6.2c1.1,2.9,0.3,4.3-2.7,4.9c-3.2,0.6-4.5,2.2-4.4,5.5
		c0,2.6-1.2,3.8-3.8,3.4c-3.7-0.5-5.1,0.2-6.4,3.7c-0.9,2.3-2.6,2.9-4.7,1.7c-3.2-1.8-4.9-1.5-7.3,1.3c-1.6,1.9-3.4,1.9-5,0
		c-2.3-2.8-4.1-3.1-7.3-1.3c-2.2,1.3-3.9,0.7-4.7-1.7c-1.3-3.5-2.7-4.3-6.4-3.7c-2.6,0.4-3.9-0.7-3.9-3.4c0.1-3.3-1.2-4.9-4.4-5.5
		c-3-0.6-3.8-1.9-2.7-4.8c1-2.7,0.2-4.8-2.2-6.2c-2.8-1.6-3.1-3.1-1-5.6c1.8-2.2,1.8-4.4,0-6.6c-2-2.5-1.8-4,1-5.6
		c2.5-1.4,3.2-3.6,2.2-6.2c-1.1-2.9-0.3-4.3,2.7-4.8c3.2-0.6,4.5-2.2,4.4-5.5c0-2.7,1.2-3.8,3.8-3.4c3.7,0.5,5-0.2,6.4-3.7
		c0.9-2.3,2.5-2.9,4.7-1.7c3.2,1.8,4.9,1.5,7.3-1.3c1.6-1.9,3.4-1.9,5,0c2.4,2.8,4.1,3.1,7.3,1.3c2.2-1.3,3.9-0.6,4.8,1.8
		c1.2,3.2,2.7,4.1,6.1,3.6C86.1,8.6,87.3,9.7,87.2,12.6z M36.4,38.1c-0.1,14.3,11.5,26.1,26,26.2c14.4,0.1,26.1-11.5,26.2-26
		C88.7,24,77.1,12.1,62.9,12C48.2,11.9,36.5,23.4,36.4,38.1z"/>
	<path class="st2" d="M71.5,74.2c0.6,0.3,1,0.6,1.5,0.8c2.6,1.5,4.5,0.8,5.4-2c0.7-2.1,1.9-3.5,4-4c1.4-0.3,2.3-0.1,2.7,1.6
		c2.7,11.2,5.4,22.4,8.2,33.7c1,4.1,2,8.3,3.1,12.7c-2.8-0.6-5.5-1.1-8.1-1.6c-2.4-0.5-5-1.7-7.1-1.2c-2.2,0.5-4,2.7-5.9,4.2
		c-2.3,1.8-4.7,3.6-7.2,5.6c-0.3-0.9-0.5-1.6-0.7-2.4c-1.1-4.6-2.3-9.3-3.4-13.9c-0.2-0.9-0.3-1.9,0-2.8c2.4-9.9,4.8-19.8,7.2-29.7
		C71.2,75,71.3,74.7,71.5,74.2z"/>
	<path class="st2" d="M28.6,117.1c3.2-13.1,6.3-25.8,9.4-38.5c0.7-2.7,1.4-5.4,1.9-8.1c0.3-1.3,1-1.7,2.1-1.5
		c0.9,0.2,2.1,0.4,2.6,1.1c1.8,2.2,3.6,4.5,2.8,7.8c-2.9,11.8-5.8,23.6-8.6,35.5c-0.3,1.2-0.7,1.8-2,2
		C34.2,115.9,31.6,116.5,28.6,117.1z"/>
	<path class="st2" d="M59.3,76.3c2.7,2.5,4,2.3,6.3-0.2c0.8-0.9,2.1-1.5,3.1-2.3c0.2,0.2,0.3,0.3,0.5,0.5c-4,16.5-8.1,33-12.2,49.8
		c-2.6-2.1-5.1-3.9-7.5-5.9c-0.3-0.2-0.2-1.1-0.1-1.6c2.6-11,5.3-21.9,8-32.8C58.1,81.4,58.7,78.9,59.3,76.3z"/>
	<path class="st2" d="M39.9,115c1.1-4.6,2.1-8.6,3.1-12.6C45,94,47,85.5,49.2,77.1c0.1-0.5,0.7-0.9,1.2-1.2c0.6-0.4,1.3-0.7,2-1
		c1-0.4,2-0.8,3.1-0.9c2.4-0.1,2.9,0.7,2.3,2.9c-3.2,13.3-6.4,26.5-9.7,40.1C45.7,115,43.5,112.8,39.9,115z"/>
	<g>
		<path class="st2" d="M62.8,20.6c0.4,1.2,0.8,2.3,1.1,3.5c1,3.1,2,6.1,3,9.2c0.1,0.3,0.3,0.4,0.6,0.4c4.3,0,8.5,0,12.8,0
			c0.2,0,0.4,0,0.7,0c-0.2,0.2-0.4,0.3-0.5,0.4c-3.4,2.5-6.9,5-10.3,7.5c-0.3,0.3-0.4,0.5-0.3,0.8c1.3,4.1,2.7,8.1,4,12.2
			c0,0.1,0.1,0.3,0.2,0.5c-3.8-2.8-7.5-5.5-11.3-8.2c-3.7,2.7-7.4,5.4-11.3,8.2c1.5-4.5,2.9-8.8,4.3-13.3c-3.7-2.7-7.4-5.4-11.1-8.1
			c0,0,0-0.1,0-0.1c0.2,0,0.4,0,0.5,0c4.3,0,8.5,0,12.8,0c0.4,0,0.5-0.1,0.6-0.5c1.3-4.1,2.6-8.2,4-12.2c0-0.1,0.1-0.3,0.1-0.4
			C62.7,20.6,62.7,20.6,62.8,20.6z"/>
	</g>
</g>
<g>
	<g>
		<path class="st0" d="M-556.2,58v33.6h36.3V58H-556.2z M-520.4,89.6h-35.2V59.8h35.2V89.6z"/>
		<path class="st0" d="M-613.9,95.1c16.9,0,33.5,0,50.4,0c0,6.9,0,13.8,0,20.8c-16.8,0-33.5,0-50.4,0
			C-613.9,109-613.9,102.1-613.9,95.1z M-609.8,98.6c0,4.7,0,9.2,0,13.8c14.1,0,28.1,0,42.2,0c0-4.6,0-9.2,0-13.8
			C-581.7,98.6-595.7,98.6-609.8,98.6z"/>
		<path class="st0" d="M-614.2,68c18.1,0,35.9,0,54,0c0,6.9,0,13.8,0,20.8c-18,0-35.9,0-54,0C-614.2,81.9-614.2,75.1-614.2,68z
			 M-609.9,71.6c0,4.7,0,9.2,0,13.8c15.2,0,30.2,0,45.3,0c0-4.6,0-9.2,0-13.8C-579.7,71.6-594.7,71.6-609.9,71.6z"/>
		<path class="st0" d="M-522.2,105.1c0,1,0,1.8,0,2.8c-12.6,0-25.1,0-37.8,0c0-0.9,0-1.8,0-2.8
			C-547.4,105.1-534.9,105.1-522.2,105.1z"/>
		<path class="st0" d="M-522.2,113c-12.6,0-25.2,0-37.8,0c0-1,0-1.8,0-2.8c12.6,0,25.1,0,37.8,0C-522.2,111.1-522.2,112-522.2,113z"
			/>
		<path class="st0" d="M-522.2,100c0,1,0,1.8,0,2.8c-12.6,0-25.1,0-37.8,0c0-0.9,0-1.8,0-2.8C-547.4,100-534.9,100-522.2,100z"/>
		<g>
			<path class="st0" d="M-619.4,123.1c-0.1-1.3-0.2-2.5-0.2-3.7c0-20.8,0-41.6,0-62.4c0-3.9,0.8-4.8,4.7-4.8c33,0,65.9,0,98.9,0
				c3.7,0,4.6,0.9,4.6,4.7c0,20.9,0,41.8,0,62.8c0,1.1-0.1,2.1-0.2,3.4c0.9,0,1.9,0,2.9,0c2.3,0.1,3.8,1.6,3.8,3.9
				c0,2.2-1.4,3.7-3.7,3.8c-0.4,0-0.8,0-1.3,0c-37.6,0-75.1,0-112.7,0c-1.9,0-3.6-0.3-4.4-2.3c-1.2-2.6,0.5-5.3,3.4-5.5
				C-622.1,123.1-620.7,123.1-619.4,123.1z M-515.3,56.2c-0.8,0-1.3,0-1.9,0c-32.2,0-64.4,0-96.6,0c-1.5,0-2,0.4-2,2
				c0.1,20.2,0,40.4,0,60.6c0,0.6,0.1,1.1,0.1,1.7c33.5,0,66.9,0,100.3,0C-515.3,99-515.3,77.7-515.3,56.2z M-518.1,128
				c2.4,0,4.5,0,6.8,0C-512.4,126.7-516.7,126.7-518.1,128z"/>
		</g>
		<rect x="-613.9" y="58.4" class="st2" width="54" height="6.8"/>
		<g>
			<path class="st0" d="M-581.4,63v-1.5c0-0.4-0.2-0.5-0.5-0.5c-0.3,0-0.5,0.2-0.6,0.3V63h-0.5v-2.4h0.5v0.3
				c0.2-0.2,0.5-0.4,0.9-0.4c0.5,0,0.8,0.3,0.8,0.8V63H-581.4z"/>
			<path class="st0" d="M-580.3,61.8c0-0.7,0.5-1.3,1.2-1.3c0.7,0,1.2,0.6,1.2,1.3V62h-1.9c0,0.4,0.3,0.7,0.8,0.7
				c0.2,0,0.5-0.1,0.7-0.3l0.2,0.3c-0.2,0.2-0.6,0.4-1,0.4C-579.8,63.1-580.3,62.6-580.3,61.8z M-579.1,61c-0.4,0-0.7,0.3-0.7,0.6
				h1.4C-578.4,61.3-578.6,61-579.1,61z"/>
			<path class="st0" d="M-575.3,63l-0.6-1.8l-0.6,1.8h-0.6l-0.8-2.4h0.5l0.5,1.8l0.6-1.8h0.5l0.6,1.8l0.5-1.8h0.6l-0.8,2.4H-575.3z"
				/>
			<path class="st0" d="M-573.8,62.7l0.2-0.4c0.2,0.2,0.5,0.3,0.8,0.3c0.3,0,0.5-0.1,0.5-0.3c0-0.5-1.5-0.1-1.5-1.1
				c0-0.4,0.3-0.7,1-0.7c0.4,0,0.7,0.1,0.9,0.3l-0.2,0.4c-0.1-0.2-0.4-0.3-0.7-0.3c-0.3,0-0.4,0.1-0.4,0.3c0,0.4,1.5,0.1,1.5,1.1
				c0,0.4-0.4,0.8-1,0.8C-573.2,63.1-573.6,63-573.8,62.7z"/>
			<path class="st0" d="M-571.3,62.7c0-0.2,0.2-0.3,0.4-0.3c0.2,0,0.4,0.2,0.4,0.3c0,0.2-0.2,0.4-0.4,0.4
				C-571.2,63.1-571.3,62.9-571.3,62.7z"/>
			<path class="st0" d="M-570.2,61.8c0-0.7,0.5-1.3,1.2-1.3c0.5,0,0.8,0.2,0.9,0.4l-0.3,0.3c-0.1-0.2-0.3-0.3-0.6-0.3
				c-0.4,0-0.7,0.3-0.7,0.8c0,0.5,0.3,0.8,0.7,0.8c0.2,0,0.4-0.1,0.6-0.3l0.3,0.3c-0.2,0.2-0.5,0.4-0.9,0.4
				C-569.7,63.1-570.2,62.6-570.2,61.8z"/>
			<path class="st0" d="M-567.7,61.8c0-0.7,0.5-1.3,1.2-1.3c0.8,0,1.2,0.6,1.2,1.3c0,0.7-0.5,1.3-1.2,1.3
				C-567.3,63.1-567.7,62.5-567.7,61.8z M-565.8,61.8c0-0.4-0.2-0.8-0.7-0.8c-0.4,0-0.7,0.4-0.7,0.8c0,0.4,0.3,0.8,0.7,0.8
				C-566,62.6-565.8,62.3-565.8,61.8z"/>
			<path class="st0" d="M-561.7,63v-1.6c0-0.3-0.1-0.4-0.4-0.4c-0.2,0-0.5,0.2-0.6,0.3V63h-0.5v-1.6c0-0.3-0.1-0.4-0.4-0.4
				c-0.2,0-0.5,0.2-0.6,0.3V63h-0.5v-2.4h0.5v0.3c0.1-0.1,0.4-0.4,0.8-0.4c0.4,0,0.6,0.2,0.7,0.4c0.1-0.2,0.5-0.4,0.8-0.4
				c0.4,0,0.7,0.2,0.7,0.7V63H-561.7z"/>
		</g>
		<g>
			<path class="st0" d="M-534.5,87.7c-0.9-0.3-1.7-0.6-2.6-0.8c-0.8-0.3-1.7-0.3-2.5,0c-0.8,0.3-1.6,0.6-2.5,0.8c0-0.4,0-0.8,0-1.1
				c0-0.1,0.1-0.2,0.2-0.3c0.8-0.6,1.6-1.1,2.4-1.7c0.2-0.1,0.3-0.3,0.3-0.6c-0.2-1.7-0.3-3.4-0.5-5.1c-0.1-1.1-0.2-2.3-0.3-3.5
				c-3.1,1.1-6.1,2.3-9.2,3.4c0.1-0.9,0.1-1.8,0.2-2.6c0-0.1,0.2-0.3,0.3-0.4c2.7-1.9,5.5-3.9,8.2-5.8c0.2-0.2,0.3-0.3,0.4-0.6
				c0.2-2,0.4-4,0.6-6c0.1-0.5,0.3-1,0.5-1.4c0.3-0.5,0.8-0.5,1.1,0c0.3,0.5,0.6,1.1,0.6,1.7c0.2,1.7,0.3,3.5,0.5,5.3
				c0,0.4,0.2,0.6,0.5,0.8c3,2,5.9,4,8.8,5.9c0.3,0.2,0.4,0.4,0.4,0.7c0,0.7,0.1,1.3,0.2,2.1c-3.3-1.1-6.6-2.1-9.9-3.2
				c-0.1,0.4-0.1,0.7-0.2,1c-0.3,2.6-0.6,5.1-0.9,7.7c0,0.3,0,0.4,0.3,0.6c0.8,0.5,1.6,1.1,2.5,1.6c0.4,0.2,0.6,0.5,0.5,0.9
				C-534.5,87.3-534.5,87.4-534.5,87.7z"/>
		</g>
	</g>
	<g>
		<path class="st0" d="M-531.7,65.8l0.4-0.5c0.3,0.3,0.6,0.5,1,0.5c0.5,0,0.8-0.3,0.8-0.7c0-0.4-0.3-0.7-0.8-0.7
			c-0.3,0-0.6,0.1-0.8,0.3l-0.5-0.1v-2.1h2.5v0.6h-1.8v1.1c0.2-0.2,0.5-0.3,0.9-0.3c0.6,0,1.2,0.4,1.2,1.2c0,0.8-0.6,1.3-1.5,1.3
			C-530.9,66.4-531.4,66.1-531.7,65.8z"/>
		<path class="st0" d="M-528.4,63.4c0-0.5,0.4-1,1-1c0.6,0,0.9,0.4,0.9,1c0,0.5-0.4,0.9-0.9,0.9C-528,64.3-528.4,63.9-528.4,63.4z
			 M-526.9,63.4c0-0.3-0.2-0.6-0.5-0.6c-0.3,0-0.5,0.2-0.5,0.6c0,0.3,0.2,0.6,0.5,0.6C-527.2,63.9-526.9,63.7-526.9,63.4z
			 M-527.8,66.3l2.4-3.8h0.4l-2.4,3.8H-527.8z M-526.3,65.4c0-0.5,0.4-0.9,0.9-0.9s1,0.4,1,0.9c0,0.5-0.4,0.9-1,0.9
			S-526.3,65.9-526.3,65.4z M-524.9,65.4c0-0.3-0.2-0.6-0.5-0.6c-0.3,0-0.5,0.2-0.5,0.6c0,0.3,0.2,0.6,0.5,0.6
			C-525.1,66-524.9,65.7-524.9,65.4z"/>
	</g>
</g>
<g>
	<path class="st0" d="M-848.6,389.5v33.9h92.1v-33.9H-848.6z M-757.8,421.4h-89.1v-30.1h89.1V421.4z"/>
	<path class="st0" d="M-848.6,426.9c16.1,0,31.9,0,48,0c0,7,0,14,0,21c-16,0-31.9,0-48,0C-848.6,440.9-848.6,434-848.6,426.9z
		 M-844.7,430.5c0,4.7,0,9.3,0,13.9c13.5,0,26.8,0,40.2,0c0-4.7,0-9.2,0-13.9C-817.9,430.5-831.2,430.5-844.7,430.5z"/>
	<path class="st0" d="M-758.8,437c0,1,0,1.8,0,2.8c-12.7,0-25.3,0-38.1,0c0-0.9,0-1.8,0-2.8C-784.3,437-771.7,437-758.8,437z"/>
	<path class="st0" d="M-758.9,444.9c-12.7,0-25.4,0-38.1,0c0-1,0-1.8,0-2.8c12.7,0,25.4,0,38.1,0
		C-758.9,443-758.9,443.9-758.9,444.9z"/>
	<path class="st0" d="M-758.8,431.9c0,1,0,1.8,0,2.8c-12.7,0-25.3,0-38.1,0c0-0.9,0-1.8,0-2.8C-784.3,431.9-771.7,431.9-758.8,431.9
		z"/>
	<g>
		<path class="st0" d="M-856.9,455.2c-0.1-1.4-0.2-2.5-0.2-3.7c0-21,0-42,0-62.9c0-3.9,0.8-4.8,4.7-4.8c33.2,0,66.5,0,99.7,0
			c3.7,0,4.6,0.9,4.6,4.7c0,21.1,0,42.2,0,63.3c0,1.1-0.1,2.1-0.2,3.4c0.9,0,1.9,0,2.9,0c2.3,0.1,3.8,1.7,3.8,3.9
			c0,2.2-1.5,3.7-3.7,3.9c-0.4,0-0.8,0-1.3,0c-37.9,0-75.7,0-113.6,0c-1.9,0-3.6-0.3-4.5-2.3c-1.2-2.6,0.5-5.4,3.4-5.5
			C-859.7,455.1-858.2,455.2-856.9,455.2z M-752,387.6c-0.8,0-1.3,0-1.9,0c-32.5,0-64.9,0-97.4,0c-1.6,0-2,0.4-2,2
			c0.1,20.4,0,40.8,0,61.1c0,0.6,0.1,1.1,0.1,1.7c33.8,0,67.4,0,101.1,0C-752,430.8-752,409.4-752,387.6z M-754.7,460.1
			c2.4,0,4.5,0,6.8,0C-749,458.8-753.3,458.7-754.7,460.1z"/>
	</g>
</g>
<g>
	<g>
		<path class="st0" d="M-177,14.4c-4.6,4.1-4.6,6.4-0.4,10.1c-0.4,0.6-0.8,1.2-1.1,1.9c-0.6,1.6-0.5,3.5,1,4.3
			c1.5,0.8,1.9,1.9,2.1,3.4c0.1,0.6,0.4,1.3,0.9,1.5c1.9,0.8,2.3,2.5,3,4.2c1,2.6,4.4,3.3,6.7,1.5c0.7-0.5,1.2-1.3,1.7-1.9
			c2.8,2.9,3.7,3,7,0.7c0.3-0.2,0.8-0.3,1.1-0.2c4,0.8,5.7-0.2,7.2-4c0.1-0.3,0.2-0.5,0.5-1.3c2.2,3.6,4.4,6.9,6.1,10.4
			c13.4,27.5,4,58.9-22.3,74.6c-7.3,4.3-15.2,6.6-23.6,7.3c-4.3,0.3-8.6,0.9-12.9,0.7c-13.8-0.4-25.8-5.4-36-14.7
			c-12.1-11.1-18.1-25.1-18.2-41.4c-0.2-25.2,17.3-47.5,41.6-54.2c9.1-2.5,18.1-4.2,27.5-3.7C-182.4,13.7-179.9,14.1-177,14.4z
			 M-180,16c-24.1-5.4-52.4,6.5-63.1,35c-9.9,26.4,2.1,55.9,27.2,68.2c25.6,12.5,56.1,3.5,71.3-21c13.2-21.3,8.5-47-2.2-60
			c-0.1,0.2-0.2,0.3-0.2,0.5c-1.3,4.1-3.9,5.4-7.9,4c-0.5-0.2-1.4,0.1-1.9,0.4c-2.4,1.6-4.3,1.4-6.2-0.7c-0.3-0.3-0.4-0.7-0.7-1.2
			c-1.6,2.3-3.4,3.5-5.8,3c-2.4-0.5-3.5-2.2-3.9-4.6c-0.1-0.5-0.6-1-1.1-1.2c-1.6-0.7-2.4-1.8-2.6-3.5c-0.1-0.7-0.7-1.5-1.3-1.9
			c-1.3-0.8-2.4-1.8-2.3-3.3c0.1-1.3,0.7-2.5,1-3.8C-184.2,23.2-184.4,19.7-180,16z M-217.6,120.9c-18.9-11.1-29.9-27.4-30.8-49.4
			c-0.9-22.3,9.2-39,28.6-50.5c-16.1,7.2-31.9,25.9-31.3,50.7c0.3,12.9,4.6,24.4,12.9,34.3C-232.6,112.6-225.8,117.7-217.6,120.9z"
			/>
		<path class="st0" d="M-174.2,25.8c-0.8-1.2-1.7-1.9-1.7-2.5c0.1-0.6,1.1-1.6,1.7-1.6c0.6,0,1.6,1,1.7,1.6
			C-172.5,23.9-173.4,24.7-174.2,25.8z"/>
		<path class="st0" d="M-146.8,27.5c0.8,1.2,1.7,1.9,1.6,2.5c-0.1,0.6-1.1,1.6-1.6,1.6c-0.6,0-1.6-1-1.7-1.6
			C-148.6,29.5-147.7,28.8-146.8,27.5z"/>
		<path class="st0" d="M-175.3,15.8c0.8-0.5,1.2-1,1.7-1c0.3,0,0.9,0.8,0.9,1.1c-0.1,0.4-0.7,0.9-1.1,1
			C-174.2,16.9-174.6,16.4-175.3,15.8z"/>
		<path class="st0" d="M-154.2,36.3c-0.5-0.7-1-1-1-1.4c0-0.3,0.5-0.6,0.8-1c0.4,0.3,0.9,0.6,1,1C-153.3,35.2-153.8,35.7-154.2,36.3
			z"/>
		<path class="st0" d="M-218.7,81.6c0-5.2,4.2-9.4,9.3-9.5c5.2,0,9.4,4.3,9.4,9.6c0,5.1-4.2,9.2-9.4,9.2
			C-214.5,90.9-218.7,86.8-218.7,81.6z M-210,84c0-2-1.5-3.6-3.4-3.6c-1.9,0-3.6,1.6-3.6,3.5c0,1.9,1.6,3.5,3.5,3.6
			C-211.6,87.5-210.1,86-210,84z"/>
		<path class="st0" d="M-152.4,56.4c4.1,0.1,7.3,3.3,7.2,7.3c-0.1,3.9-3.4,7.2-7.3,7.1c-4,0-7.4-3.5-7.2-7.4
			C-159.5,59.4-156.3,56.3-152.4,56.4z M-155.3,68.8c2-0.1,2.7-0.8,2.7-2.1c0-1.2-0.8-2-2-2c-1.3,0-2.2,0.8-2,2.1
			C-156.4,67.6-155.6,68.3-155.3,68.8z"/>
		<path class="st0" d="M-202.3,98.4c3.8,0,6.9,3.2,6.9,7c0,3.7-3.3,6.9-7,6.9c-3.7,0-7-3.3-6.9-7C-209.2,101.5-206,98.4-202.3,98.4z
			 M-208.3,105.7c0.8,0.6,1.3,1.3,1.7,1.3c0.5,0,1.3-0.8,1.3-1.1c-0.1-0.6-0.7-1.3-1.2-1.4C-206.9,104.4-207.5,105.1-208.3,105.7z"
			/>
		<path class="st0" d="M-182.9,53.2c3.7,0,6.8,3.2,6.9,7c0,3.7-3.2,6.9-7,6.9c-3.8,0-7.1-3.3-7-7.1C-190,56.2-186.7,53.1-182.9,53.2
			z M-185.3,64.2c0.8,0.7,1.4,1.4,1.7,1.4c0.5-0.1,1-0.8,1.5-1.3c-0.4-0.4-0.8-1.1-1.3-1.2C-183.9,63-184.5,63.7-185.3,64.2z"/>
		<path class="st0" d="M-196.4,23.2c3.7,0,6.6,2.9,6.6,6.5c0,3.8-3,6.9-6.7,6.9c-3.8,0-6.6-3-6.6-6.9
			C-203.1,25.9-200.2,23.1-196.4,23.2z M-200.9,32.8c0.9,0.6,1.4,1.2,1.9,1.1c0.5,0,0.8-0.8,1.3-1.2c-0.4-0.4-0.8-1.1-1.3-1.2
			C-199.5,31.6-200.1,32.2-200.9,32.8z"/>
		<path class="st0" d="M-235.5,72.2c-3.8,0.1-6.9-3-7-6.9c-0.1-3.7,3.1-6.9,6.8-6.9c3.7-0.1,7,3.1,7,6.9
			C-228.7,69-231.8,72.1-235.5,72.2z M-241.3,67.1c0,1.4,1.1,2.6,2.5,2.6c1.4,0,2.6-1.1,2.6-2.5c0-1.4-1.2-2.6-2.5-2.6
			C-240.1,64.5-241.2,65.6-241.3,67.1z"/>
		<path class="st0" d="M-225.6,39.7c4,0,7.3,3.1,7.2,7.1c0,4-3.2,7.1-7.3,7.1c-3.8,0-6.9-3.2-6.9-7
			C-232.5,42.9-229.5,39.8-225.6,39.7z M-227.1,48.6c0,1.7,1.5,3.1,3.2,3.1c1.7,0,3.1-1.4,3.1-3.2c0-1.8-1.4-3.1-3.2-3.1
			C-225.7,45.4-227.1,46.9-227.1,48.6z"/>
		<path class="st0" d="M-175.2,108.7c0,3.6-2.9,6.4-6.5,6.3c-3.5-0.1-6.3-2.9-6.3-6.4c0-3.6,2.8-6.4,6.5-6.4
			C-177.9,102.3-175.2,105-175.2,108.7z M-183.8,107.2c-0.3,0-0.6,0-0.9,0c-0.5,0.8-1.4,1.5-1.5,2.3c-0.2,1.2,0.8,2.3,2.1,2
			c0.8-0.2,1.7-1.3,1.8-2C-182.3,108.8-183.3,108-183.8,107.2z"/>
		<path class="st0" d="M-172.3,88c-3,0-5.4-2.5-5.4-5.6c0-3.1,2.5-5.5,5.5-5.5c3.1,0,5.6,2.6,5.5,5.7C-166.7,85.6-169.2,88-172.3,88
			z M-169.3,80.2c-0.7,1-1.6,1.7-1.4,2.2c0.1,0.6,0.9,1.4,1.6,1.5c0.4,0.1,1.4-0.9,1.4-1.4C-167.7,81.8-168.5,81.2-169.3,80.2z"/>
		<path class="st0" d="M-155.7,104.7c-2.4,1.1-4.7,0.6-5.9-1.4c-1.2-1.9-0.7-4.6,1.2-5.9c1.8-1.3,4.3-1.1,5.8,0.6
			c1.5,1.7,1.6,4.2,0,5.9c-0.2,0.2-0.5,0.3-0.8,0.4c-0.2-0.6-0.5-1.3-0.7-1.9c-0.5,0.2-1.2,0.3-1.3,0.6c-0.2,0.3,0,1.1,0.3,1.4
			C-156.8,104.6-156.1,104.6-155.7,104.7z"/>
		<path class="st0" d="M-207.2,52c0-1.8,1.7-3.3,3.4-3.2c1.7,0.1,3,1.6,3,3.4c0,1.8-1.4,3.1-3.2,3.1
			C-205.9,55.1-207.2,53.7-207.2,52z"/>
		<path class="st0" d="M-237.5,93.6c-1.6-1.2-2-2.8-1.1-4.4c0.9-1.5,2.7-2.1,4.3-1.5c1.6,0.6,2.6,2.4,2.2,4c-0.5,1.8-2,2.9-3.9,2.6
			c-0.4-0.1-0.8-0.3-1.2-0.4c0.3,0,0.6,0,0.9,0c1.4,0,2.4-0.7,2-2.1c-0.2-0.7-1.2-1.5-2-1.6c-1.2-0.2-1.9,1.1-1.6,2.5
			C-237.7,93-237.6,93.3-237.5,93.6z"/>
		<path class="st0" d="M-224.6,99.9c-1.3-0.1-2.2-0.7-2.2-2.1c0-1.4,0.8-2.2,2.1-2.3c1.4-0.1,2.2,0.8,2.3,2.2
			C-222.4,99-223.2,99.7-224.6,99.9z"/>
		<path class="st0" d="M-190.2,87.3c1.1-0.7,1.7-1.5,2.2-1.4c0.5,0.1,1.2,1,1.3,1.6c0.1,0.4-0.9,1.2-1.4,1.2
			C-188.6,88.7-189.2,88-190.2,87.3z"/>
		<path class="st0" d="M-142.5,87.2c-0.8-1-1.6-1.6-1.5-2.1c0.1-0.6,0.9-1,1.4-1.5c0.5,0.5,1.2,1,1.4,1.6
			C-141.1,85.6-141.8,86.2-142.5,87.2z"/>
	</g>
	<g>
		<line class="st3" x1="-262.1" y1="6.6" x2="-125.9" y2="134.4"/>
		<line class="st3" x1="-126.9" y1="6.6" x2="-263.1" y2="134.4"/>
	</g>
</g>
<g>
	<g>
		<g>
			<path class="st0" d="M-453.6,74.5v-0.5c1.5-1.1,2.1-1.6,2.1-2.2c0-0.4-0.4-0.6-0.7-0.6c-0.5,0-0.8,0.2-1,0.5l-0.4-0.4
				c0.3-0.4,0.9-0.6,1.4-0.6c0.7,0,1.4,0.4,1.4,1.2c0,0.7-0.7,1.3-1.7,2.1h1.7v0.6H-453.6z"/>
			<path class="st0" d="M-450.2,74l0.4-0.5c0.3,0.3,0.6,0.5,1,0.5c0.5,0,0.8-0.3,0.8-0.7c0-0.4-0.3-0.7-0.8-0.7
				c-0.3,0-0.6,0.1-0.8,0.3l-0.5-0.1v-2.1h2.5v0.6h-1.8v1.1c0.2-0.2,0.5-0.3,0.9-0.3c0.7,0,1.2,0.5,1.2,1.2c0,0.8-0.6,1.3-1.5,1.3
				C-449.4,74.6-449.8,74.3-450.2,74z"/>
			<path class="st0" d="M-446.9,71.5c0-0.5,0.4-1,1-1c0.6,0,1,0.4,1,1c0,0.5-0.4,1-1,1C-446.5,72.5-446.9,72.1-446.9,71.5z
				 M-445.4,71.5c0-0.3-0.2-0.6-0.5-0.6c-0.3,0-0.5,0.2-0.5,0.6c0,0.3,0.2,0.6,0.5,0.6C-445.6,72.1-445.4,71.9-445.4,71.5z
				 M-446.3,74.5l2.5-3.8h0.4l-2.5,3.8H-446.3z M-444.8,73.6c0-0.5,0.4-1,1-1c0.6,0,1,0.4,1,1c0,0.5-0.4,1-1,1
				C-444.4,74.6-444.8,74.1-444.8,73.6z M-443.3,73.6c0-0.3-0.2-0.6-0.5-0.6c-0.3,0-0.5,0.2-0.5,0.6c0,0.3,0.2,0.6,0.5,0.6
				C-443.5,74.2-443.3,73.9-443.3,73.6z"/>
			<path class="st0" d="M-441,72.6c0-1.1,0.8-2,2-2c1.1,0,2,0.8,2,2s-0.8,2-2,2C-440.2,74.6-441,73.7-441,72.6z M-437.7,72.6
				c0-0.8-0.5-1.4-1.3-1.4c-0.8,0-1.3,0.6-1.3,1.4c0,0.8,0.5,1.4,1.3,1.4C-438.2,74-437.7,73.4-437.7,72.6z"/>
			<path class="st0" d="M-436.4,74.5v-3.8h2.6v0.6h-2v1h1.9v0.6h-1.9v1.7H-436.4z"/>
			<path class="st0" d="M-433.1,74.5v-3.8h2.6v0.6h-2v1h1.9v0.6h-1.9v1.7H-433.1z"/>
		</g>
		<path class="st0" d="M-462.2,64.7v33.9h92.1V64.7H-462.2z M-371.5,96.7h-89.1V66.6h89.1V96.7z"/>
		<path class="st0" d="M-462.2,102.1c16.1,0,31.9,0,48,0c0,7,0,14,0,21c-16,0-31.9,0-48,0C-462.2,116.1-462.2,109.2-462.2,102.1z
			 M-458.3,105.7c0,4.7,0,9.3,0,13.9c13.5,0,26.8,0,40.2,0c0-4.7,0-9.2,0-13.9C-431.6,105.7-444.9,105.7-458.3,105.7z"/>
		<path class="st0" d="M-372.5,112.2c0,1,0,1.8,0,2.8c-12.7,0-25.3,0-38.1,0c0-0.9,0-1.8,0-2.8C-398,112.2-385.3,112.2-372.5,112.2z
			"/>
		<path class="st0" d="M-372.5,120.2c-12.7,0-25.4,0-38.1,0c0-1,0-1.8,0-2.8c12.7,0,25.4,0,38.1,0
			C-372.5,118.3-372.5,119.2-372.5,120.2z"/>
		<path class="st0" d="M-372.5,107.1c0,1,0,1.8,0,2.8c-12.7,0-25.3,0-38.1,0c0-0.9,0-1.8,0-2.8C-398,107.1-385.3,107.1-372.5,107.1z
			"/>
		<g>
			<path class="st0" d="M-470.5,130.4c-0.1-1.4-0.2-2.5-0.2-3.7c0-21,0-42,0-62.9c0-3.9,0.8-4.8,4.7-4.8c33.2,0,66.5,0,99.7,0
				c3.7,0,4.6,0.9,4.6,4.7c0,21.1,0,42.2,0,63.3c0,1.1-0.1,2.1-0.2,3.4c0.9,0,1.9,0,2.9,0c2.3,0.1,3.8,1.7,3.8,3.9
				c0,2.2-1.5,3.7-3.7,3.9c-0.4,0-0.8,0-1.3,0c-37.9,0-75.7,0-113.6,0c-1.9,0-3.6-0.3-4.5-2.3c-1.2-2.6,0.5-5.4,3.4-5.5
				C-473.4,130.4-471.9,130.4-470.5,130.4z M-365.6,62.9c-0.8,0-1.3,0-1.9,0c-32.5,0-64.9,0-97.4,0c-1.6,0-2,0.4-2,2
				c0.1,20.4,0,40.8,0,61.1c0,0.6,0.1,1.1,0.1,1.7c33.8,0,67.4,0,101.1,0C-365.6,106.1-365.6,84.6-365.6,62.9z M-368.4,135.3
				c2.4,0,4.5,0,6.8,0C-362.7,134-367,134-368.4,135.3z"/>
		</g>
		<g>
			<path class="st0" d="M-435.2,87.6c-4-0.4-7.9-0.8-11.8-1.2c-0.8-0.1-1.6-0.1-2.3-0.2c-0.6-0.1-1.6,0-1.5-1
				c0.1-0.9,0.9-0.7,1.6-0.7c3,0.1,6,0.2,9,0.3c5.1,0.2,10.3,0.4,15.5,0.6c0.3-1.8,0.8-3.4,2-4.7c1.2-1.4,2.6-2.3,4.2-2.7
				c-0.1-0.9-0.4-1.8-0.2-2.5c0.2-0.7,1-1.2,1.5-1.8c0.2-0.2,0.3-0.5,0.3-0.7c0-1.1,0-2.2,0-3.3c-2.7-0.2-5.3-0.4-7.9-0.6
				c0,0-0.1-0.1-0.2-0.3c0.4,0,0.7-0.1,1-0.1c1.9,0,3.9,0,5.8,0c0.6,0,1.2-0.3,1.7-0.3c0.5,0,1,0.3,1.5,0.3c1.5,0,3.1,0,4.6,0
				c0.9,0,1.9,0,2.8,0c0,0.1,0,0.2,0.1,0.4c-0.3,0.1-0.6,0.2-1,0.3c-2.2,0.1-4.4,0.2-6.5,0.3c-0.2,0-0.4,0.1-0.7,0.1
				c0.1,1.2,0.1,2.3,0.2,3.5c0,0.2,0.2,0.4,0.3,0.5c1.8,1.4,2,2,1.2,4.3c3.5,1.2,5.7,3.6,6.2,7.3c1.4,0,2.8,0,4.2,0
				c6.7-0.2,13.5-0.5,20.2-0.7c0.1,0,0.2,0,0.3,0c0.6,0,1.3,0,1.3,0.8c0,0.8-0.7,0.8-1.2,0.9c-1.5,0.2-3,0.3-4.5,0.5
				c-3.3,0.3-6.5,0.7-9.9,1c0.9,2,0.8,3.8-1,5.2c-1.2,0.9-2.6,1.1-4,0.4c-1.9-1-2.4-2.7-1.9-4.8c-1.3,0.1-2.5,0.2-3.7,0.4
				c-0.2,0-0.5,0.4-0.6,0.6c-1.5,3.3-4.1,5.2-7.8,5.2c-3.7,0-6.2-1.8-7.8-5.1c-0.2-0.3-0.6-0.7-1-0.7c-1-0.2-2.1-0.2-3.3-0.3
				c0.5,2.3-0.1,4-2.2,4.9c-1.5,0.6-2.9,0.3-4.1-0.8C-435.9,91.2-436,89.8-435.2,87.6z M-416.3,92.7c3.8,0,6.8-2.9,6.8-6.6
				c0-3.8-2.9-6.8-6.7-6.9c-3.7-0.1-6.8,3-6.8,6.7C-423,89.7-420,92.7-416.3,92.7z M-431.9,92.1c1.3,0,2.3-1.1,2.4-2.3
				c0-1.3-1.1-2.4-2.4-2.4c-1.3,0-2.3,1.1-2.3,2.3C-434.3,91.1-433.3,92.1-431.9,92.1z M-398.1,89.7c0-1.3-1.1-2.3-2.4-2.3
				c-1.3,0-2.4,1.1-2.4,2.4c0,1.3,1.2,2.4,2.5,2.3C-399.1,92.1-398.1,91-398.1,89.7z M-416.2,77.6c0.8,0,1.6-0.7,1.6-1.5
				c0-0.9-0.7-1.5-1.6-1.5c-0.8,0-1.5,0.7-1.5,1.5C-417.7,76.8-417.1,77.5-416.2,77.6z"/>
			<path class="st0" d="M-416.2,92.1c-1.3,0-2.3-1.1-2.3-2.4c0-1.3,1.1-2.4,2.4-2.4c1.3,0,2.3,1.1,2.3,2.4
				C-413.8,91.1-414.9,92.1-416.2,92.1z"/>
			<path class="st0" d="M-416.6,82.5c0,0.8,0,1.4,0,2.2c-1.7-0.2-3.4-0.4-5-0.5c0.4-1.6,0.5-1.7,1.9-1.7
				C-418.7,82.5-417.8,82.5-416.6,82.5z"/>
			<path class="st0" d="M-415.7,84.7c-0.4-2.2-0.4-2.2,1.6-2.2c0.4,0,0.9,0,1.3,0c1.5,0,1.5,0.1,2,1.7
				C-412.4,84.4-414.1,84.5-415.7,84.7z"/>
		</g>
	</g>
	<g>
		<path class="st0" d="M-383.9,93.3v-3.8h1.9c0.7,0,1.1,0.4,1.1,1c0,0.5-0.3,0.8-0.7,0.9c0.4,0.1,0.7,0.5,0.7,0.9c0,0.6-0.4,1-1.1,1
			H-383.9z M-381.6,90.5c0-0.3-0.2-0.5-0.5-0.5h-1.1v1h1.1C-381.8,91-381.6,90.8-381.6,90.5z M-381.5,92.2c0-0.3-0.2-0.5-0.6-0.5
			h-1.1v1.1h1.1C-381.7,92.7-381.5,92.5-381.5,92.2z"/>
		<path class="st0" d="M-378.3,93.3v-0.4c-0.2,0.2-0.5,0.4-1,0.4c-0.6,0-0.9-0.3-0.9-0.9v-2h0.6v1.7c0,0.4,0.2,0.6,0.6,0.6
			c0.3,0,0.6-0.2,0.7-0.4v-2h0.6v2.8H-378.3z"/>
		<path class="st0" d="M-376.9,93.8c0.1,0,0.2,0,0.2,0c0.2,0,0.3-0.1,0.4-0.2l0.1-0.3l-1.1-2.8h0.7l0.8,2.1l0.8-2.1h0.6l-1.3,3.3
			c-0.2,0.5-0.5,0.6-1,0.6c-0.1,0-0.3,0-0.3,0L-376.9,93.8z"/>
	</g>
	<rect x="-385.6" y="88.3" class="st4" width="12.2" height="6.7"/>
</g>
</svg>
