<?xml version="1.0" encoding="utf-8"?>
<!-- Generator: Adobe Illustrator 19.1.0, SVG Export Plug-In . SVG Version: 6.00 Build 0)  -->
<svg version="1.1" id="Layer_1" xmlns="http://www.w3.org/2000/svg" xmlns:xlink="http://www.w3.org/1999/xlink" x="0px" y="0px"
	 viewBox="-389 191 180 180" style="enable-background:new -389 191 180 180;" xml:space="preserve">
<style type="text/css">
	.st0{fill:#4ABEC0;}
	.st1{enable-background:new    ;}
	.st2{fill:#344860;}
</style>
<g id="XMLID_3_">
	<path id="XMLID_56_" class="st0" d="M-386.4,285.7c0-3.1,0-6.2,0-9.2c0.5-2.7,0.9-5.7,1.3-8.4c4.9-35.6,33.8-66,69.1-72.5
		c4.2-0.7,8.3-1.3,12.4-1.9c3.1,0,6.2,0,9.2,0c0.9,0.2,1.7,0.6,2.6,0.7c4.2,0.7,8.3,1,12.5,1.9c33.4,7.4,59.6,34.7,65.7,68.4
		c0.7,4,1.3,7.8,1.9,11.8c0,3.1,0,6.2,0,9.2c-0.5,2.7-0.9,5.4-1.3,8.2c-5.4,36.8-33,65.6-69.7,72.7c-4,0.8-7.8,1.3-11.8,1.8
		c-3.1,0-6.2,0-9.2,0c-0.9-0.2-1.7-0.6-2.6-0.7c-4.2-0.7-8.3-1-12.5-1.9c-33.2-7.4-59.6-34.9-65.7-68.4
		C-385.3,293.5-385.8,289.5-386.4,285.7z M-299.2,200.9c-43.9,0.1-80,36.1-79.8,80.3c0.2,44.1,35.5,79.8,80,79.8
		c44.6-0.1,79.7-35.8,79.8-79.9C-219,236.9-255.2,200.9-299.2,200.9z"/>
</g>
<g class="st1">
	<path class="st2" d="M-332.3,299v-5.8h-17.3v-8.3l13.1-21.8h15.1v20.6h4.1v9.5h-4.1v5.8H-332.3z M-332.3,272.4l-6.8,11.3h6.8V272.4
		z"/>
	<path class="st2" d="M-305.8,299v-26.4h-9.6V263h30.1v9.5h-9.6V299H-305.8z"/>
	<path class="st2" d="M-281.4,299V263h21.8c7.5,0,10.6,4.9,10.6,9.1c0,4.5-2.6,7.5-6.2,8.3c3.9,0.6,6.8,4.1,6.8,8.8
		c0,5-3.4,9.8-10.6,9.8H-281.4z M-260,274.1c0-1.2-1-2-2.2-2h-8.4v4.2h8.4C-261,276.3-260,275.4-260,274.1z M-259.3,287.7
		c0-1.3-0.9-2.3-2.5-2.3h-8.7v4.6h8.7C-260.3,289.9-259.3,289-259.3,287.7z"/>
</g>
</svg>
