<?xml version="1.0" encoding="utf-8"?>
<!-- Generator: Adobe Illustrator 19.1.0, SVG Export Plug-In . SVG Version: 6.00 Build 0)  -->
<svg version="1.1" id="Layer_1" xmlns="http://www.w3.org/2000/svg" xmlns:xlink="http://www.w3.org/1999/xlink" x="0px" y="0px"
	 viewBox="-389 191 180 180" style="enable-background:new -389 191 180 180;" xml:space="preserve">
<style type="text/css">
	.st0{fill:#4ABEC0;}
	.st1{enable-background:new    ;}
	.st2{fill:#344860;}
</style>
<g id="XMLID_3_">
	<path id="XMLID_56_" class="st0" d="M-386.4,285.6c0-3.1,0-6.3,0-9.2c0.5-2.8,0.9-5.6,1.2-8.4c4.8-35.7,33.8-66,69.1-72.4
		c4.2-0.7,8.3-1.2,12.3-1.9c3.1,0,6.3,0,9.2,0c0.9,0.2,1.7,0.6,2.7,0.7c4.2,0.7,8.3,1,12.5,1.9c33.3,7.4,59.6,34.7,65.8,68.4
		c0.7,3.9,1.2,7.9,1.9,11.8c0,3.1,0,6.3,0,9.2c-0.5,2.8-0.9,5.4-1.2,8.2c-5.4,36.8-33,65.5-69.7,72.6c-3.9,0.8-7.9,1.2-11.8,1.8
		c-3.1,0-6.3,0-9.2,0c-0.9-0.2-1.7-0.6-2.7-0.7c-4.2-0.7-8.3-1-12.5-1.9c-33.2-7.4-59.7-34.8-65.8-68.4
		C-385.3,293.5-385.9,289.6-386.4,285.6z M-299.2,201c-44,0.1-80.1,36.1-79.9,80.3c0.2,44.1,35.6,79.7,80.1,79.7
		c44.7-0.1,79.8-35.8,79.9-79.8C-219,236.9-255.2,201-299.2,201z"/>
</g>
<g class="st1">
	<path class="st2" d="M-364.4,284.1v-6.9l23.9-9.5v6.6l-17.6,6.4l17.6,6.3v6.6L-364.4,284.1z"/>
	<path class="st2" d="M-337.4,294l5.7-7.5c2.4,2,5.8,3.1,8.9,3.1c3.5,0,5-1.4,5-2.9c0-1.6-1.4-2.9-4.6-2.9c-2.7,0-4.8,0.7-6.5,2.4
		l-7.3-1.7V263h26.9v9.3h-16.2v5c1.7-1.6,4.4-2.7,7.3-2.7c6,0,11.3,4.5,11.3,11.5c0,7.8-5.8,12.7-15.7,12.7
		C-328.9,299-333.9,297.1-337.4,294z"/>
	<path class="st2" d="M-270.9,298.3v-14.9c0-1.5-0.8-2.8-2.9-2.8s-3.3,1.2-3.9,2v15.7h-9.5v-14.9c0-1.5-0.7-2.8-2.9-2.8
		c-2,0-3.2,1.2-3.9,2v15.7h-9.5V273h9.5v2.9c1.1-1.4,4.3-3.5,8.4-3.5c3.6,0,6.2,1.3,7.3,4.5c1.5-2.2,4.8-4.5,8.9-4.5
		c4.7,0,7.9,2.4,7.9,7.6v18.5h-9.5V298.3z"/>
	<path class="st2" d="M-258.2,295.1l3.8-6.4c2,1.6,6.4,3.2,9.2,3.2c1.9,0,2.6-0.4,2.6-1.1c0-2.4-14.4,0.7-14.4-10
		c0-4.6,4-8.6,11.4-8.6c4.2,0,8,1.3,11.1,3.3l-3.4,6.2c-1.6-1.3-4.5-2.7-7.5-2.7c-1.4,0-2.4,0.4-2.4,1.1c0,2.1,14.4-0.5,14.4,10.1
		c0,5-4.5,8.8-12.1,8.8C-250.4,299-255.5,297.4-258.2,295.1z"/>
</g>
</svg>
