<?xml version="1.0" encoding="utf-8"?>
<!-- Generator: Adobe Illustrator 19.1.0, SVG Export Plug-In . SVG Version: 6.00 Build 0)  -->
<svg version="1.1" id="Layer_1" xmlns="http://www.w3.org/2000/svg" xmlns:xlink="http://www.w3.org/1999/xlink" x="0px" y="0px"
	 viewBox="-389 191 180 180" style="enable-background:new -389 191 180 180;" xml:space="preserve">
<style type="text/css">
	.st0{fill:#4ABEC0;}
	.st1{enable-background:new    ;}
	.st2{fill:#344860;}
</style>
<g id="XMLID_3_">
	<path id="XMLID_56_" class="st0" d="M-386.4,285.6c0-3.1,0-6.3,0-9.2c0.5-2.7,0.9-5.7,1.3-8.4c4.8-35.6,33.8-66,69.2-72.5
		c4.1-0.7,8.3-1.3,12.3-1.9c3.1,0,6.3,0,9.2,0c0.9,0.2,1.7,0.6,2.6,0.7c4.1,0.7,8.3,1,12.4,1.9c33.3,7.4,59.6,34.7,65.8,68.5
		c0.7,3.9,1.3,7.9,1.9,11.8c0,3.1,0,6.3,0,9.2c-0.5,2.7-0.9,5.5-1.3,8.2c-5.5,36.9-33,65.5-69.7,72.7c-3.9,0.8-7.9,1.3-11.8,1.8
		c-3.1,0-6.3,0-9.2,0c-0.9-0.2-1.7-0.6-2.6-0.7c-4.1-0.7-8.3-1-12.4-1.9c-33.2-7.4-59.7-34.8-65.8-68.5
		C-385.3,293.4-385.8,289.5-386.4,285.6z M-299.1,200.8c-44,0.1-80.1,36.2-79.9,80.3c0.2,44.1,35.6,79.8,80.1,79.8
		c44.7-0.1,79.8-35.7,79.9-79.9C-218.9,236.9-255.1,200.8-299.1,200.8z"/>
</g>
<g class="st1">
	<path class="st2" d="M-315.8,299.3v-22.2l-6.1,6.1l-6.2-6.5l13.8-13.5h9.4v36.1H-315.8z"/>
	<path class="st2" d="M-299.7,299.3v-8.5c16.5-11.6,18.1-13,18.1-15.7c0-1.7-1.8-2.8-4.1-2.8c-3.9,0-6.7,1.4-9.5,3.7l-5.9-7.2
		c4.1-4.4,10.2-6.1,15.3-6.1c9.3,0,15.5,5.2,15.5,12.4c0,4.9-2.8,9-11.4,14.6h11.8v9.5L-299.7,299.3L-299.7,299.3z"/>
</g>
</svg>
