<?xml version="1.0" encoding="utf-8"?>
<!-- Generator: Adobe Illustrator 19.1.0, SVG Export Plug-In . SVG Version: 6.00 Build 0)  -->
<svg version="1.1" id="Layer_1" xmlns="http://www.w3.org/2000/svg" xmlns:xlink="http://www.w3.org/1999/xlink" x="0px" y="0px"
	 viewBox="-389 191 180 180" style="enable-background:new -389 191 180 180;" xml:space="preserve">
<style type="text/css">
	.st0{fill:#4ABEC0;}
	.st1{enable-background:new    ;}
	.st2{fill:#344860;}
</style>
<g id="XMLID_3_">
	<path id="XMLID_56_" class="st0" d="M-386.4,285.7c0-3.1,0-6.3,0-9.3c0.5-2.7,0.9-5.6,1.3-8.5c4.8-35.6,33.8-66,69.1-72.4
		c4.1-0.7,8.3-1.3,12.3-1.9c3.1,0,6.3,0,9.3,0c0.9,0.2,1.7,0.6,2.6,0.7c4.1,0.7,8.3,1,12.5,1.9c33.4,7.4,59.5,34.7,65.8,68.4
		c0.7,3.9,1.3,7.9,1.9,11.8c0,3.1,0,6.3,0,9.3c-0.5,2.7-0.9,5.4-1.3,8.2c-5.4,36.8-33,65.6-69.7,72.7c-3.9,0.8-7.9,1.3-11.8,1.8
		c-3.1,0-6.3,0-9.3,0c-0.9-0.2-1.7-0.6-2.6-0.7c-4.1-0.7-8.3-1-12.5-1.9c-33.2-7.4-59.6-34.8-65.8-68.4
		C-385.3,293.6-385.8,289.6-386.4,285.7z M-299.2,201c-44,0.1-80.1,36.1-79.9,80.3c0.2,44.1,35.5,79.7,80.1,79.7
		c44.7-0.1,79.7-35.8,79.9-79.9C-219,237-255.2,201-299.2,201z"/>
</g>
<g class="st1">
	<path class="st2" d="M-347.7,298.3v-5.5h-16.7v-8.1l12.7-21.1h14.6v20.1h4v9.2h-4v5.5L-347.7,298.3L-347.7,298.3z M-347.7,272.6
		l-6.6,10.9h6.6V272.6z"/>
	<path class="st2" d="M-331.3,281c0-9.4,5-18,15.4-18c10.4,0,15.4,8.5,15.4,18c0,9.4-5,18-15.4,18C-326.2,299-331.3,290.4-331.3,281
		z M-311,281c0-5.9-1.5-8.6-4.8-8.6s-4.8,2.7-4.8,8.6c0,5.9,1.5,8.7,4.8,8.7S-311,286.9-311,281z"/>
	<path class="st2" d="M-289.2,298.3v-25.6h-9.3v-9.2h29.1v9.2h-9.2v25.6H-289.2z"/>
	<path class="st2" d="M-265.6,298.3v-34.8h21.1c7.2,0,10.3,4.8,10.3,8.9c0,4.3-2.6,7.2-6,8c3.8,0.6,6.6,4,6.6,8.5
		c0,4.8-3.3,9.4-10.3,9.4L-265.6,298.3L-265.6,298.3z M-244.8,274.3c0-1.2-1-2-2.1-2h-8.1v4h8.1
		C-245.9,276.4-244.8,275.5-244.8,274.3z M-244.2,287.4c0-1.2-1-2.2-2.5-2.2h-8.4v4.4h8.4C-245.1,289.6-244.2,288.7-244.2,287.4z"/>
</g>
</svg>
