<?xml version="1.0" encoding="utf-8"?>
<!-- Generator: Adobe Illustrator 19.1.0, SVG Export Plug-In . SVG Version: 6.00 Build 0)  -->
<svg version="1.1" id="Layer_1" xmlns="http://www.w3.org/2000/svg" xmlns:xlink="http://www.w3.org/1999/xlink" x="0px" y="0px"
	 viewBox="0 0 612 792" style="enable-background:new 0 0 612 792;" xml:space="preserve">
<style type="text/css">
	.st0{fill:#90D3CD;}
</style>
<g>
	<path class="st0" d="M487.5,522.4c-116.3,0-232.2,0-348.6,0c0-112.6,0-224.9,0-337.7c116.1,0,232.1,0,348.6,0
		C487.5,297.1,487.5,409.5,487.5,522.4z M164.3,209.7c0,96.2,0,191.9,0,287.6c99.5,0,198.6,0,298,0c0-96,0-191.7,0-287.6
		C362.8,209.7,263.7,209.7,164.3,209.7z"/>
	<path class="st0" d="M218.1,292.1c0-8.2,0-16.2,0-24.5c63.4,0,126.5,0,190.2,0c0,8.1,0,16.1,0,24.5
		C345,292.1,281.8,292.1,218.1,292.1z"/>
	<path class="st0" d="M218.1,364.1c0-8.3,0-16.2,0-24.5c63.4,0,126.6,0,190.2,0c0,8.1,0,16.1,0,24.5
		C345,364.1,281.8,364.1,218.1,364.1z"/>
	<path class="st0" d="M218.1,436.1c0-8.2,0-16.2,0-24.5c63.4,0,126.5,0,190.2,0c0,8,0,16.1,0,24.5
		C345,436.1,281.8,436.1,218.1,436.1z"/>
</g>
</svg>
