<?xml version="1.0" encoding="utf-8"?>
<!-- Generator: Adobe Illustrator 19.1.0, SVG Export Plug-In . SVG Version: 6.00 Build 0)  -->
<svg version="1.1" id="Layer_1" xmlns="http://www.w3.org/2000/svg" xmlns:xlink="http://www.w3.org/1999/xlink" x="0px" y="0px"
	 viewBox="0 0 612 792" style="enable-background:new 0 0 612 792;" xml:space="preserve">
<style type="text/css">
	.st0{fill:#FFFFFF;}
</style>
<g>
	<path class="st0" d="M497.5,562.9c-116.3,0-232.2,0-348.6,0c0-112.6,0-224.9,0-337.7c116.1,0,232.1,0,348.6,0
		C497.5,337.6,497.5,450,497.5,562.9z M174.3,250.2c0,96.2,0,191.9,0,287.6c99.5,0,198.6,0,298,0c0-96,0-191.7,0-287.6
		C372.8,250.2,273.7,250.2,174.3,250.2z"/>
	<path class="st0" d="M228.1,332.6c0-8.2,0-16.2,0-24.5c63.4,0,126.5,0,190.2,0c0,8.1,0,16.1,0,24.5
		C355,332.6,291.9,332.6,228.1,332.6z"/>
	<path class="st0" d="M228.1,404.6c0-8.3,0-16.2,0-24.5c63.4,0,126.6,0,190.2,0c0,8.1,0,16.1,0,24.5
		C355,404.6,291.8,404.6,228.1,404.6z"/>
	<path class="st0" d="M228.1,476.5c0-8.2,0-16.2,0-24.5c63.4,0,126.5,0,190.2,0c0,8,0,16.1,0,24.5
		C355,476.5,291.9,476.5,228.1,476.5z"/>
</g>
</svg>
