<?xml version="1.0" encoding="utf-8"?>
<!-- Generator: Adobe Illustrator 19.1.0, SVG Export Plug-In . SVG Version: 6.00 Build 0)  -->
<svg version="1.1" id="Layer_1" xmlns="http://www.w3.org/2000/svg" xmlns:xlink="http://www.w3.org/1999/xlink" x="0px" y="0px"
	 viewBox="0 0 30.3 31" style="enable-background:new 0 0 30.3 31;" xml:space="preserve">
<g>
	<path d="M0.1,15C0.4,6.7,7.3,0.2,15.7,0.5c8.1,0.3,14.7,7,14.4,15.4c-0.2,8.3-7.2,14.8-15.4,14.6C6.4,30.2-0.1,23.3,0.1,15z
		 M15.1,2.3C7.9,2.3,1.9,8.2,1.9,15.5c0,7.3,6,13.2,13.2,13.2c7.2,0,13.2-5.8,13.2-13.2C28.4,8.3,22.5,2.3,15.1,2.3z"/>
	<path d="M24.1,14.6c0,0.6,0,1.2,0,1.8c-6,0-12,0-18,0c0-0.6,0-1.1,0-1.8C12.1,14.6,18.1,14.6,24.1,14.6z"/>
</g>
</svg>
