<?xml version="1.0" encoding="utf-8"?>
<!-- Generator: Adobe Illustrator 19.0.0, SVG Export Plug-In . SVG Version: 6.00 Build 0)  -->
<svg version="1.1" id="Layer_1" xmlns="http://www.w3.org/2000/svg" xmlns:xlink="http://www.w3.org/1999/xlink" x="0px" y="0px"
	 viewBox="0 0 250 97.3" style="enable-background:new 0 0 250 97.3;" xml:space="preserve">
<style type="text/css">
	.st0{fill:#4ABEBF;}
	.st1{fill-rule:evenodd;clip-rule:evenodd;fill:#4ABEBF;}
	.st2{fill-rule:evenodd;clip-rule:evenodd;fill:#787878;}
	.st3{fill:#FFFFFF;}
</style>
<g id="XMLID_30_">
	<g id="XMLID_40_">
		<path id="XMLID_55_" class="st0" d="M69.6,41.5h-6.9c-3.3,0-5.9-0.9-7.7-2.6c-1.8-1.8-2.7-4.3-2.7-7.6V11.3c0-3.3,0.9-5.8,2.7-7.6
			c1.8-1.8,4.4-2.6,7.7-2.6h6.9c3.3,0,5.8,0.9,7.6,2.7c1.8,1.8,2.7,4.3,2.7,7.6v3c0,0.9-0.5,1.4-1.4,1.4h-5.3
			c-0.9,0-1.3-0.5-1.3-1.4v-2.6c0-1.3-0.3-2.3-0.8-2.9C70.6,8.3,69.6,8,68.3,8H64c-1.3,0-2.2,0.3-2.8,0.8c-0.6,0.6-0.8,1.5-0.8,2.9
			v19.2c0,1.3,0.3,2.3,0.8,2.9c0.6,0.6,1.5,0.8,2.8,0.8h4.3c1.3,0,2.3-0.3,2.9-0.8c0.6-0.6,0.8-1.5,0.8-2.9v-2.6
			c0-0.9,0.4-1.4,1.3-1.4h5.3c0.9,0,1.4,0.5,1.4,1.4v3c0,3.3-0.9,5.8-2.7,7.6C75.4,40.6,72.9,41.5,69.6,41.5z"/>
		<path id="XMLID_52_" class="st0" d="M100.6,41.5H95c-3.3,0-5.9-0.9-7.7-2.6c-1.8-1.8-2.7-4.3-2.7-7.6V19.7c0-3.3,0.9-5.9,2.7-7.6
			c1.8-1.8,4.4-2.6,7.7-2.6h5.6c3.3,0,5.8,0.9,7.6,2.7c1.8,1.8,2.7,4.3,2.7,7.6v11.6c0,3.3-0.9,5.8-2.7,7.6
			C106.4,40.6,103.9,41.5,100.6,41.5z M96.2,34.7h3.2c1.3,0,2.3-0.3,2.9-0.8c0.6-0.5,0.8-1.5,0.8-2.8V19.9c0-1.3-0.3-2.3-0.8-2.8
			c-0.6-0.5-1.5-0.8-2.9-0.8h-3.2c-1.3,0-2.3,0.3-2.8,0.8c-0.5,0.5-0.8,1.5-0.8,2.8V31c0,1.3,0.3,2.3,0.8,2.8
			C93.9,34.4,94.9,34.7,96.2,34.7z"/>
		<path id="XMLID_50_" class="st0" d="M123,41.5h-5.3c-0.9,0-1.3-0.4-1.3-1.3V10.8c0-0.9,0.4-1.3,1.3-1.3h5.3c0.9,0,1.3,0.4,1.3,1.3
			v2.1h0.3c0.9-2.3,3-3.4,6.2-3.4h2c6.6,0,9.9,3.4,9.9,10.3v20.5c0,0.9-0.5,1.3-1.4,1.3h-5.3c-0.9,0-1.3-0.4-1.3-1.3V20.1
			c0-1.3-0.3-2.3-0.8-2.9c-0.6-0.6-1.5-0.8-2.9-0.8h-2.3c-2.9,0-4.3,1.6-4.3,4.8v19.1C124.3,41.1,123.9,41.5,123,41.5z"/>
		<path id="XMLID_48_" class="st0" d="M146.9,9.4h5.5c0.8,0,1.3,0.4,1.5,1.3l5.4,23.6h0.4l5.3-23.6c0.2-0.9,0.7-1.3,1.6-1.3h5.5
			c0.9,0,1.2,0.4,0.9,1.3l-7.9,29.4c-0.2,0.9-0.7,1.4-1.7,1.4h-8c-0.9,0-1.4-0.5-1.7-1.4l-7.9-29.4C145.7,9.9,146,9.4,146.9,9.4z"/>
		<path id="XMLID_45_" class="st0" d="M200.4,41.5h-13.9c-3.3,0-5.9-0.9-7.7-2.6c-1.8-1.8-2.7-4.3-2.7-7.6V19.7
			c0-3.3,0.9-5.9,2.7-7.6c1.8-1.8,4.4-2.6,7.7-2.6h5c3.3,0,5.9,0.9,7.7,2.6c1.8,1.8,2.7,4.3,2.7,7.6v8c0,0.9-0.4,1.3-1.3,1.3h-15.8
			c-0.5,0-0.8,0.2-0.8,0.7v1.4c0,1.3,0.3,2.2,0.8,2.8c0.6,0.6,1.5,0.8,2.9,0.8h12.7c0.9,0,1.3,0.5,1.3,1.4v4.2c0,0.5-0.1,0.8-0.3,1
			C201.3,41.4,200.9,41.5,200.4,41.5z M184.7,23.7h8.6c0.5,0,0.7-0.2,0.7-0.7v-3c0-1.3-0.3-2.3-0.8-2.8c-0.5-0.5-1.5-0.8-2.8-0.8
			h-2.6c-1.3,0-2.3,0.3-2.8,0.8c-0.5,0.5-0.8,1.5-0.8,2.8v3C184.1,23.4,184.3,23.7,184.7,23.7z"/>
		<path id="XMLID_43_" class="st0" d="M213.5,41.5h-5.3c-0.9,0-1.3-0.4-1.3-1.3V10.8c0-0.9,0.4-1.3,1.3-1.3h5.3
			c0.9,0,1.3,0.4,1.3,1.3v2.1h0.3c0.5-1.1,1.3-2,2.5-2.6c1.2-0.6,2.4-0.9,3.7-0.9h2.3c0.8,0,1.3,0.4,1.3,1.3v4.3
			c0,0.5-0.1,0.8-0.3,1c-0.2,0.2-0.5,0.3-1,0.2h-4.3c-2.9,0-4.3,1.6-4.3,4.9v18.9C214.9,41.1,214.4,41.5,213.5,41.5z"/>
		<path id="XMLID_41_" class="st0" d="M228.6,16.4h-2.5c-0.5,0-0.8-0.1-1-0.3c-0.2-0.2-0.3-0.5-0.3-1v-4.3c0-0.9,0.4-1.3,1.3-1.3
			h2.5c0.5,0,0.7-0.2,0.7-0.7v-6c0-0.9,0.5-1.3,1.4-1.3h5.3c0.9,0,1.3,0.4,1.3,1.3v6c0,0.5,0.3,0.7,0.8,0.7h4.9
			c0.9,0,1.3,0.4,1.3,1.3v4.3c0,0.5-0.1,0.8-0.3,1c-0.2,0.2-0.5,0.3-1,0.3H238c-0.5,0-0.8,0.2-0.8,0.7V31c0,1.3,0.3,2.2,0.9,2.8
			c0.6,0.6,1.6,0.8,2.9,0.8h2.5c0.9,0,1.3,0.4,1.3,1.3v4.3c0,0.5-0.1,0.8-0.3,1c-0.2,0.2-0.5,0.3-1,0.3h-3.8c-3.3,0-5.9-0.9-7.7-2.6
			c-1.8-1.8-2.7-4.3-2.7-7.5V17.1C229.3,16.6,229,16.4,228.6,16.4z"/>
	</g>
	<path id="XMLID_39_" class="st1" d="M44.7,1c-9.1,0-18.2,0-27.3,0c-0.3,0-0.6,0-1,0c0.1,0.3,0.2,0.5,0.3,0.7
		c3.2,6.9,6.5,13.7,9.7,20.6c0.1,0.3,0.5,0.5,0.8,0.8c0.3-0.3,0.6-0.6,0.8-0.9c1.2-3.5,2.4-7,3.6-10.5c0.2-0.6,0.5-0.9,1.2-0.9
		c2.9,0,5.8,0,8.7,0c0.9,0,1.1,0.3,0.8,1.2c-4.1,9.4-8.3,18.9-12.4,28.3c-0.2,0.5-0.6,0.8-1.1,0.8c-0.9,0-1.7,0-2.6,0
		c-0.7,0-1.1-0.3-1.4-0.9c-1.6-3.3-3.3-6.6-4.9-9.9c-4.1-8.3-8.2-16.6-12.3-24.8C7,4.2,6.4,3,5.8,1.9c-0.1,0-0.1,0-0.2,0.1
		c0,3.8,0,7.6,0,11.4c0,0,0,0-0.1,0v9.8c0,0,0,0,0,0c0,3,0,5.9,0,8.8c0,0,0,0,0,0V39c0,0,0,0,0.1,0c0,0.4,0,0.6,0,0.9
		c0,1.5,0.1,1.6,1.6,1.6c12.5,0,24.9,0,37.4,0c1.4,0,1.5-0.1,1.5-1.4c0-12.6,0-25.1,0-37.7C46.1,1.1,46,1,44.7,1z"/>
	<path id="XMLID_38_" class="st2" d="M243.9,92.3c0,1.7-1.4,3.1-3.1,3.1H170c-1.7,0-3.1-1.4-3.1-3.1V51.1c0-1.7,1.4-3.1,3.1-3.1
		h70.8c1.7,0,3.1,1.4,3.1,3.1V92.3z"/>
	<g id="XMLID_32_">
		<path id="XMLID_36_" class="st3" d="M189,84.5h-4.6c-2.3,0-4-0.6-5.3-1.8c-1.2-1.2-1.9-3-1.9-5.2V63.8c0-2.3,0.6-4,1.9-5.2
			c1.2-1.2,3-1.8,5.3-1.8h4.6c2.3,0,4,0.6,5.2,1.8c1.2,1.2,1.9,3,1.9,5.2V65c0,0.6-0.3,0.9-0.9,0.9h-3.7c-0.6,0-0.9-0.3-0.9-0.9v-1
			c0-0.9-0.2-1.6-0.6-2c-0.4-0.4-1-0.6-1.9-0.6h-2.8c-0.9,0-1.5,0.2-1.9,0.6c-0.4,0.4-0.6,1-0.6,2v13.2c0,0.9,0.2,1.6,0.6,2
			c0.4,0.4,1,0.6,1.9,0.6h2.8c0.9,0,1.6-0.2,1.9-0.6c0.4-0.4,0.6-1,0.6-2v-2.7c0-0.3-0.2-0.5-0.5-0.5h-2.6c-0.6,0-0.9-0.3-0.9-0.9
			v-2.9c0-0.6,0.3-0.9,0.9-0.9h7.6c0.7,0,1,0.3,1,1v7.2c0,2.3-0.6,4-1.9,5.2C193,83.9,191.2,84.5,189,84.5z"/>
		<path id="XMLID_33_" class="st3" d="M212.8,84.5H208c-2.3,0-4-0.6-5.3-1.8c-1.2-1.2-1.9-3-1.9-5.2V63.8c0-2.3,0.6-4,1.9-5.2
			c1.2-1.2,3-1.8,5.3-1.8h4.8c2.3,0,4,0.6,5.3,1.8c1.2,1.2,1.9,3,1.9,5.2v13.7c0,2.3-0.6,4-1.9,5.2
			C216.8,83.9,215.1,84.5,212.8,84.5z M208.8,79.7h3.1c0.9,0,1.6-0.2,2-0.6c0.4-0.4,0.6-1,0.6-2V64c0-0.9-0.2-1.6-0.6-2
			c-0.4-0.4-1-0.6-2-0.6h-3.1c-0.9,0-1.6,0.2-1.9,0.6c-0.4,0.4-0.6,1-0.6,2v13.2c0,0.9,0.2,1.6,0.6,2
			C207.3,79.5,207.9,79.7,208.8,79.7z"/>
	</g>
	<path id="XMLID_31_" class="st0" d="M231.4,63.2c-0.9-0.9-2.5-0.9-3.4,0c-0.9,0.9-0.9,2.5,0,3.4l5.1,5.1l-5.1,5.1
		c-0.9,0.9-0.9,2.5,0,3.4c0.9,0.9,2.5,0.9,3.4,0l6.8-6.8c0.1-0.1,0.2-0.2,0.3-0.4c0.3-0.4,0.4-0.9,0.4-1.3c0-0.6-0.2-1.2-0.7-1.7
		L231.4,63.2z"/>
</g>
</svg>
