<?xml version="1.0" encoding="utf-8"?>
<!-- Generator: Adobe Illustrator 19.0.0, SVG Export Plug-In . SVG Version: 6.00 Build 0)  -->
<svg version="1.1" id="objects" xmlns="http://www.w3.org/2000/svg" xmlns:xlink="http://www.w3.org/1999/xlink" x="0px" y="0px"
	 viewBox="0 0 1920 1080" style="enable-background:new 0 0 1920 1080;" xml:space="preserve">
<style type="text/css">
	.st0{opacity:0.15;fill-rule:evenodd;clip-rule:evenodd;fill:#6AB7B7;stroke:#FFFFFF;stroke-miterlimit:10;}
	.st1{opacity:0.1;fill-rule:evenodd;clip-rule:evenodd;fill:#6AB7B7;stroke:#FFFFFF;stroke-miterlimit:10;}
	.st2{opacity:0.2;fill-rule:evenodd;clip-rule:evenodd;fill:#6AB7B7;stroke:#FFFFFF;stroke-miterlimit:10;}
</style>
<g>
	<path class="st0" d="M1776.3,461.8h-103.2c-2.6,0-4.6-2.1-4.6-4.6V353.9c0-2.6,2.1-4.6,4.6-4.6h103.2c2.6,0,4.6,2.1,4.6,4.6v103.2
		C1780.9,459.7,1778.9,461.8,1776.3,461.8z"/>
	<path class="st1" d="M1859.1,704.4h-103.2c-2.6,0-4.6-2.1-4.6-4.6V596.5c0-2.6,2.1-4.6,4.6-4.6h103.2c2.6,0,4.6,2.1,4.6,4.6v103.2
		C1863.8,702.3,1861.7,704.4,1859.1,704.4z"/>
	<path class="st0" d="M1776.3,648.1h-103.2c-2.6,0-4.6-2.1-4.6-4.6V540.3c0-2.6,2.1-4.6,4.6-4.6h103.2c2.6,0,4.6,2.1,4.6,4.6v103.2
		C1780.9,646.1,1778.9,648.1,1776.3,648.1z"/>
	<path class="st0" d="M1095.6,440.5H992.3c-2.6,0-4.6-2.1-4.6-4.6V332.6c0-2.6,2.1-4.6,4.6-4.6h103.2c2.6,0,4.6,2.1,4.6,4.6v103.2
		C1100.2,438.4,1098.1,440.5,1095.6,440.5z"/>
	<path class="st1" d="M1095.6,574.6H992.3c-2.6,0-4.6-2.1-4.6-4.6V466.7c0-2.6,2.1-4.6,4.6-4.6h103.2c2.6,0,4.6,2.1,4.6,4.6v103.2
		C1100.2,572.5,1098.1,574.6,1095.6,574.6z"/>
	<path class="st1" d="M1151.8,630.8h-103.2c-2.6,0-4.6-2.1-4.6-4.6V523c0-2.6,2.1-4.6,4.6-4.6h103.2c2.6,0,4.6,2.1,4.6,4.6v103.2
		C1156.4,628.7,1154.4,630.8,1151.8,630.8z"/>
	<path class="st0" d="M1227.8,496.7h-103.2c-2.6,0-4.6-2.1-4.6-4.6V388.8c0-2.6,2.1-4.6,4.6-4.6h103.2c2.6,0,4.6,2.1,4.6,4.6v103.2
		C1232.5,494.6,1230.4,496.7,1227.8,496.7z"/>
	<path class="st1" d="M1362.6,496.7h-103.2c-2.6,0-4.6-2.1-4.6-4.6V388.8c0-2.6,2.1-4.6,4.6-4.6h103.2c2.6,0,4.6,2.1,4.6,4.6v103.2
		C1367.3,494.6,1365.2,496.7,1362.6,496.7z"/>
	<path class="st0" d="M1915.4,648.1h-103.2c-2.6,0-4.6-2.1-4.6-4.6V540.3c0-2.6,2.1-4.6,4.6-4.6h103.2c2.6,0,4.6,2.1,4.6,4.6v103.2
		C1920,646.1,1917.9,648.1,1915.4,648.1z"/>
	<path class="st1" d="M1915.4,461.8h-103.2c-2.6,0-4.6-2.1-4.6-4.6V353.9c0-2.6,2.1-4.6,4.6-4.6h103.2c2.6,0,4.6,2.1,4.6,4.6v103.2
		C1920,459.7,1917.9,461.8,1915.4,461.8z"/>
	<path class="st1" d="M1284.1,440.5h-103.2c-2.6,0-4.6-2.1-4.6-4.6V332.6c0-2.6,2.1-4.6,4.6-4.6h103.2c2.6,0,4.6,2.1,4.6,4.6v103.2
		C1288.7,438.4,1286.6,440.5,1284.1,440.5z"/>
	<path class="st1" d="M1284.1,630.8h-103.2c-2.6,0-4.6-2.1-4.6-4.6V523c0-2.6,2.1-4.6,4.6-4.6h103.2c2.6,0,4.6,2.1,4.6,4.6v103.2
		C1288.7,628.7,1286.6,630.8,1284.1,630.8z"/>
	<path class="st0" d="M1420.5,552.9h-103.2c-2.6,0-4.6-2.1-4.6-4.6V445.1c0-2.6,2.1-4.6,4.6-4.6h103.2c2.6,0,4.6,2.1,4.6,4.6v103.2
		C1425.1,550.9,1423,552.9,1420.5,552.9z"/>
	<path class="st1" d="M1555.7,630.8h-103.2c-2.6,0-4.6-2.1-4.6-4.6V523c0-2.6,2.1-4.6,4.6-4.6h103.2c2.6,0,4.6,2.1,4.6,4.6v103.2
		C1560.3,628.7,1558.3,630.8,1555.7,630.8z"/>
	<path class="st1" d="M1611.9,687.1h-103.2c-2.6,0-4.6-2.1-4.6-4.6V579.2c0-2.6,2.1-4.6,4.6-4.6h103.2c2.6,0,4.6,2.1,4.6,4.6v103.2
		C1616.6,685,1614.5,687.1,1611.9,687.1z"/>
	<path class="st0" d="M1340.3,687.1h-103.2c-2.6,0-4.6-2.1-4.6-4.6V579.2c0-2.6,2.1-4.6,4.6-4.6h103.2c2.6,0,4.6,2.1,4.6,4.6v103.2
		C1345,685,1342.9,687.1,1340.3,687.1z"/>
	<path class="st2" d="M1475.4,687.1h-103.2c-2.6,0-4.6-2.1-4.6-4.6V579.2c0-2.6,2.1-4.6,4.6-4.6h103.2c2.6,0,4.6,2.1,4.6,4.6v103.2
		C1480,685,1477.9,687.1,1475.4,687.1z"/>
	<path class="st2" d="M1038.4,384.2H935.2c-2.6,0-4.6-2.1-4.6-4.6V276.4c0-2.6,2.1-4.6,4.6-4.6h103.2c2.6,0,4.6,2.1,4.6,4.6v103.2
		C1043.1,382.1,1041,384.2,1038.4,384.2z"/>
	<path class="st0" d="M1695.9,591.9h-103.2c-2.6,0-4.6-2.1-4.6-4.6V484c0-2.6,2.1-4.6,4.6-4.6h103.2c2.6,0,4.6,2.1,4.6,4.6v103.2
		C1700.6,589.8,1698.5,591.9,1695.9,591.9z"/>
	<path class="st0" d="M1015.2,707H912c-2.6,0-4.6-2.1-4.6-4.6V599.1c0-2.6,2.1-4.6,4.6-4.6h103.2c2.6,0,4.6,2.1,4.6,4.6v103.2
		C1019.9,704.9,1017.8,707,1015.2,707z"/>
	<path class="st2" d="M1208.1,707h-103.2c-2.6,0-4.6-2.1-4.6-4.6V599.1c0-2.6,2.1-4.6,4.6-4.6h103.2c2.6,0,4.6,2.1,4.6,4.6v103.2
		C1212.7,704.9,1210.6,707,1208.1,707z"/>
	<path class="st1" d="M1832.5,518h-103.2c-2.6,0-4.6-2.1-4.6-4.6V410.2c0-2.6,2.1-4.6,4.6-4.6h103.2c2.6,0,4.6,2.1,4.6,4.6v103.2
		C1837.2,516,1835.1,518,1832.5,518z"/>
</g>
<g>
	<path class="st0" d="M868.9,455.7H765.7c-2.6,0-4.6-2.1-4.6-4.6V347.8c0-2.6,2.1-4.6,4.6-4.6h103.2c2.6,0,4.6,2.1,4.6,4.6V451
		C873.6,453.6,871.5,455.7,868.9,455.7z"/>
	<path class="st1" d="M951.8,698.3H848.5c-2.6,0-4.6-2.1-4.6-4.6V590.4c0-2.6,2.1-4.6,4.6-4.6h103.2c2.6,0,4.6,2.1,4.6,4.6v103.2
		C956.4,696.2,954.3,698.3,951.8,698.3z"/>
	<path class="st0" d="M868.9,642H765.7c-2.6,0-4.6-2.1-4.6-4.6V534.2c0-2.6,2.1-4.6,4.6-4.6h103.2c2.6,0,4.6,2.1,4.6,4.6v103.2
		C873.6,639.9,871.5,642,868.9,642z"/>
	<path class="st0" d="M188.2,434.3H85c-2.6,0-4.6-2.1-4.6-4.6V326.5c0-2.6,2.1-4.6,4.6-4.6h103.2c2.6,0,4.6,2.1,4.6,4.6v103.2
		C192.8,432.2,190.8,434.3,188.2,434.3z"/>
	<path class="st1" d="M188.2,568.4H85c-2.6,0-4.6-2.1-4.6-4.6V460.6c0-2.6,2.1-4.6,4.6-4.6h103.2c2.6,0,4.6,2.1,4.6,4.6v103.2
		C192.8,566.4,190.8,568.4,188.2,568.4z"/>
	<path class="st1" d="M244.4,624.7H141.2c-2.6,0-4.6-2.1-4.6-4.6V516.8c0-2.6,2.1-4.6,4.6-4.6h103.2c2.6,0,4.6,2.1,4.6,4.6v103.2
		C249.1,622.6,247,624.7,244.4,624.7z"/>
	<path class="st0" d="M320.5,490.6H217.3c-2.6,0-4.6-2.1-4.6-4.6V382.7c0-2.6,2.1-4.6,4.6-4.6h103.2c2.6,0,4.6,2.1,4.6,4.6v103.2
		C325.1,488.5,323,490.6,320.5,490.6z"/>
	<path class="st1" d="M455.3,490.6H352.1c-2.6,0-4.6-2.1-4.6-4.6V382.7c0-2.6,2.1-4.6,4.6-4.6h103.2c2.6,0,4.6,2.1,4.6,4.6v103.2
		C459.9,488.5,457.8,490.6,455.3,490.6z"/>
	<path class="st0" d="M1008,642H904.8c-2.6,0-4.6-2.1-4.6-4.6V534.2c0-2.6,2.1-4.6,4.6-4.6H1008c2.6,0,4.6,2.1,4.6,4.6v103.2
		C1012.6,639.9,1010.6,642,1008,642z"/>
	<path class="st1" d="M1008,455.7H904.8c-2.6,0-4.6-2.1-4.6-4.6V347.8c0-2.6,2.1-4.6,4.6-4.6H1008c2.6,0,4.6,2.1,4.6,4.6V451
		C1012.6,453.6,1010.6,455.7,1008,455.7z"/>
	<path class="st1" d="M376.7,434.3H273.5c-2.6,0-4.6-2.1-4.6-4.6V326.5c0-2.6,2.1-4.6,4.6-4.6h103.2c2.6,0,4.6,2.1,4.6,4.6v103.2
		C381.3,432.2,379.3,434.3,376.7,434.3z"/>
	<path class="st1" d="M376.7,624.7H273.5c-2.6,0-4.6-2.1-4.6-4.6V516.8c0-2.6,2.1-4.6,4.6-4.6h103.2c2.6,0,4.6,2.1,4.6,4.6v103.2
		C381.3,622.6,379.3,624.7,376.7,624.7z"/>
	<path class="st0" d="M513.1,546.8H409.9c-2.6,0-4.6-2.1-4.6-4.6V439c0-2.6,2.1-4.6,4.6-4.6h103.2c2.6,0,4.6,2.1,4.6,4.6v103.2
		C517.7,544.7,515.6,546.8,513.1,546.8z"/>
	<path class="st1" d="M648.3,624.7H545.1c-2.6,0-4.6-2.1-4.6-4.6V516.8c0-2.6,2.1-4.6,4.6-4.6h103.2c2.6,0,4.6,2.1,4.6,4.6v103.2
		C653,622.6,650.9,624.7,648.3,624.7z"/>
	<path class="st1" d="M704.6,680.9H601.4c-2.6,0-4.6-2.1-4.6-4.6V573.1c0-2.6,2.1-4.6,4.6-4.6h103.2c2.6,0,4.6,2.1,4.6,4.6v103.2
		C709.2,678.9,707.1,680.9,704.6,680.9z"/>
	<path class="st0" d="M433,680.9H329.7c-2.6,0-4.6-2.1-4.6-4.6V573.1c0-2.6,2.1-4.6,4.6-4.6H433c2.6,0,4.6,2.1,4.6,4.6v103.2
		C437.6,678.9,435.5,680.9,433,680.9z"/>
	<path class="st2" d="M568,680.9H464.8c-2.6,0-4.6-2.1-4.6-4.6V573.1c0-2.6,2.1-4.6,4.6-4.6H568c2.6,0,4.6,2.1,4.6,4.6v103.2
		C572.7,678.9,570.6,680.9,568,680.9z"/>
	<path class="st2" d="M131.1,378.1H27.8c-2.6,0-4.6-2.1-4.6-4.6V270.2c0-2.6,2.1-4.6,4.6-4.6h103.2c2.6,0,4.6,2.1,4.6,4.6v103.2
		C135.7,376,133.6,378.1,131.1,378.1z"/>
	<path class="st0" d="M788.6,585.8H685.4c-2.6,0-4.6-2.1-4.6-4.6V477.9c0-2.6,2.1-4.6,4.6-4.6h103.2c2.6,0,4.6,2.1,4.6,4.6v103.2
		C793.2,583.7,791.1,585.8,788.6,585.8z"/>
	<path class="st0" d="M107.9,700.8H4.6c-2.6,0-4.6-2.1-4.6-4.6V593c0-2.6,2.1-4.6,4.6-4.6h103.2c2.6,0,4.6,2.1,4.6,4.6v103.2
		C112.5,698.8,110.4,700.8,107.9,700.8z"/>
	<path class="st2" d="M300.7,700.8H197.5c-2.6,0-4.6-2.1-4.6-4.6V593c0-2.6,2.1-4.6,4.6-4.6h103.2c2.6,0,4.6,2.1,4.6,4.6v103.2
		C305.3,698.8,303.3,700.8,300.7,700.8z"/>
	<path class="st1" d="M925.2,511.9H822c-2.6,0-4.6-2.1-4.6-4.6V404.1c0-2.6,2.1-4.6,4.6-4.6h103.2c2.6,0,4.6,2.1,4.6,4.6v103.2
		C929.8,509.8,927.7,511.9,925.2,511.9z"/>
</g>
</svg>
