<?xml version="1.0" encoding="utf-8"?>
<!-- Generator: Adobe Illustrator 19.1.0, SVG Export Plug-In . SVG Version: 6.00 Build 0)  -->
<svg version="1.1" id="Layer_1" xmlns="http://www.w3.org/2000/svg" xmlns:xlink="http://www.w3.org/1999/xlink" x="0px" y="0px"
	 viewBox="-417 218 125 125" style="enable-background:new -417 218 125 125;" xml:space="preserve">
<style type="text/css">
	.st0{fill:#7B7B7B;}
</style>
<g id="XMLID_1_">
	<path id="XMLID_11150_" class="st0" d="M-342.5,316.7c-0.9-0.2-1.9-0.3-2.8-0.4c-0.3-0.1-0.8-0.3-0.9-0.5c-0.4-2.7-0.8-5.4-1.1-8.1
		h6.8v-7.9h-67.9v-51.3H-307v23.8h3.9c0-8.7,0-17.4,0-26.1c0-2.1-0.8-2.9-2.9-2.9c-34.4,0-68.8,0-103.2,0c-2.2,0-3,0.9-3,3
		c0,19,0,38.1,0,57.1c0,0.3,0,0.5,0,0.8c0.1,2,1.5,3.3,3.4,3.3c12.6,0,25.1,0,37.7,0h1.4c-0.4,3-0.8,5.9-1.2,8.7
		c-1.3,0.3-2.5,0.4-3.6,0.7c-0.3,0.1-0.4,0.3-0.6,0.5c0.3,0.1,0.4,0.3,0.7,0.3c0.2,0.1,0.3,0,0.5,0h30.8c0.2,0,0.4,0.1,0.6,0
		c0.3-0.1,0.5-0.3,0.7-0.5C-342.1,317-342.3,316.8-342.5,316.7z"/>
	<g id="XMLID_9163_">
		<path id="XMLID_11141_" class="st0" d="M-322.6,314v-1.2c0-7.5,0-14.9,0-22.5c0-2,0-2-2-2.1c-0.2,0-8.4,0-10.3,0
			c-3.6,0-3.1-0.3-3.1,3.1c0,2.7,0,5.6,0,8.5v7.9c0,2.7,0,5.4,0,8c0,1.7,0.4,2.1,2.1,2.1c4.9,0,8.4,0,13.2,0L-322.6,314L-322.6,314z
			 M-329.2,290c0,0.1,0,0.2,0,0.3h-2.4c0-0.1,0-0.2,0-0.3H-329.2z M-330.3,316.3c-0.8,0-1.5-0.6-1.4-1.4s0.5-1.3,1.3-1.3
			s1.3,0.5,1.4,1.2C-328.9,315.7-329.6,316.3-330.3,316.3z M-323.8,312.5h-12.7v-19.1h12.7V312.5z"/>
		<path id="XMLID_11153_" class="st0" d="M-296.8,277.3c0-1.4-0.5-1.9-1.9-1.9c-1.5,0-2.9,0-4.5,0h-5c-6.2,0-12.3,0-18.5,0
			c-1.5,0-2.1,0.5-2.1,2.1c0,2.7,0,5.5,0,8.4h3.9v-5.2h25.5v33.2h-21.4v3.8c7.3,0,14.6,0,21.9,0c1.8,0,2.1-0.3,2.1-2.1
			c0-9.9,0-19.7,0-29.6C-296.8,283-296.8,280.2-296.8,277.3z"/>
	</g>
</g>
</svg>
