<?xml version="1.0" encoding="utf-8"?>
<!-- Generator: Adobe Illustrator 19.1.0, SVG Export Plug-In . SVG Version: 6.00 Build 0)  -->
<svg version="1.1" id="Layer_1" xmlns="http://www.w3.org/2000/svg" xmlns:xlink="http://www.w3.org/1999/xlink" x="0px" y="0px"
	 viewBox="0 0 800 800" style="enable-background:new 0 0 800 800;" xml:space="preserve">
<style type="text/css">
	.st0{fill:#FFFFFF;}
</style>
<g>
	<path class="st0" d="M116.7,162.2c7.5-7.8,14.2-14.6,20.9-21.5c85.6,85.6,171.5,171.5,257.3,257.3
		c87.3-87.3,173.3-173.3,259.5-259.5c8.4,8.7,15.1,15.7,21.9,22.8C590.9,246.7,505.2,332.5,420,417.6
		c86.8,86.8,172.8,172.7,259.3,259.3c-9.3,9-16.4,15.8-23.9,23.1c-85.8-85.8-171.5-171.5-257.4-257.5
		C311.4,529.1,225.4,615,139.1,701.4c-8-8.3-14.6-15.2-21.7-22.6c85.7-85.7,171.6-171.6,258-257.9
		C288.2,333.7,202.3,247.8,116.7,162.2z"/>
</g>
</svg>
