<?xml version="1.0" encoding="utf-8"?>
<!-- Generator: Adobe Illustrator 19.0.0, SVG Export Plug-In . SVG Version: 6.00 Build 0)  -->
<svg version="1.1" id="Layer_1" xmlns="http://www.w3.org/2000/svg" xmlns:xlink="http://www.w3.org/1999/xlink" x="0px" y="0px"
	 viewBox="1110 -60 150 150" style="enable-background:new 1110 -60 150 150;" xml:space="preserve">
<style type="text/css">
	.st0{fill:#4BBEC0;}
</style>
<g id="XMLID_10053_">
	<path id="XMLID_10054_" class="st0" d="M1177.4,56.9c-0.3-1.9-0.6-3.7-0.8-5.5c-0.9-6.7-1.7-13.5-2.6-20.2c-0.1-1,0.1-1.4,1-1.8
		c7.1-2.8,14.2-5.8,21.3-8.6c0.4-0.2,0.8-0.3,1.3-0.4c0.5,4.3,1.1,8.5,1.5,12.7c0.5,4.4,0.9,8.8,1.3,13.1c0.1,0.6,0.1,1.1-0.7,1.4
		c-7.2,3.1-14.5,6.3-21.7,9.4C1178,56.8,1177.8,56.8,1177.4,56.9z"/>
	<path id="XMLID_10055_" class="st0" d="M1223.9,9.2c0.2,3,0.5,5.9,0.7,8.8c0.4,5.5,0.7,11,1,16.6c0.1,1-0.2,1.5-1.1,2
		c-7,3-13.9,6.1-20.9,9.1c-0.3,0.2-0.7,0.3-1.2,0.5c-0.4-3.5-0.8-6.9-1.2-10.3c-0.6-5.2-1.1-10.4-1.5-15.6c0-0.4,0.3-1.1,0.6-1.2
		c7.7-3.2,15.4-6.4,23.1-9.6C1223.5,9.3,1223.7,9.3,1223.9,9.2z"/>
	<path id="XMLID_10056_" class="st0" d="M1194.8-6.9c0.2,1.7,0.4,3.2,0.5,4.7c0.6,6.4,1.3,12.7,1.9,19.1c0,0.4-0.2,1.1-0.5,1.3
		c-7.6,3.3-15.2,6.4-23,9.7c-0.2-1.1-0.4-2-0.6-2.9c-1-6.9-1.9-13.8-2.9-20.7c-0.2-1.2,0.2-1.8,1.3-2.2c7.4-2.8,14.8-5.7,22.1-8.6
		C1194-6.6,1194.3-6.7,1194.8-6.9z"/>
	<path id="XMLID_10057_" class="st0" d="M1222-17.2c0.2,2.1,0.4,4.1,0.5,6.1c0.4,5.8,0.8,11.5,1.1,17.3c0,0.6-0.1,1-0.8,1.3
		c-7.7,3.2-15.3,6.3-23,9.5c-0.1,0.1-0.3,0.1-0.7,0.2c-0.3-2.1-0.5-4.1-0.7-6.1c-0.6-5.5-1.1-11.1-1.7-16.6
		c-0.2-2.2-0.2-2.2,1.7-2.9c7.4-2.8,14.9-5.6,22.4-8.4C1221.2-17,1221.5-17,1222-17.2z"/>
	<path id="XMLID_10058_" class="st0" d="M1181.7,86.5c-0.6-4.1-1.3-8.2-1.9-12.2c-0.7-4.8-1.2-9.5-1.9-14.3
		c-0.1-0.6-0.1-1.2,0.7-1.5c7.3-3.1,14.5-6.2,21.7-9.3c0.1,0,0.2,0,0.4-0.1c0.2,1.5,0.4,3,0.6,4.5c0.8,6.7,1.5,13.4,2.3,20
		c0,0.4-0.2,1.1-0.6,1.3c-6.9,3.8-13.8,7.6-20.7,11.4C1182.2,86.4,1182,86.4,1181.7,86.5z"/>
	<path id="XMLID_10059_" class="st0" d="M1205.3,73.6c-0.9-8.5-1.8-16.9-2.7-25.5c7.7-3.3,15.3-6.6,23.1-10c0.3,3.2,0.6,6.2,0.8,9.1
		c0.3,4.4,0.6,8.8,0.9,13.2c0.1,0.7,0.1,1.2-0.7,1.7c-6.9,3.7-13.9,7.5-20.8,11.3C1205.8,73.4,1205.7,73.4,1205.3,73.6z"/>
	<path id="XMLID_10060_" class="st0" d="M1227.6,35.2c-0.1-1.7-0.3-3.4-0.4-5c-0.5-6.9-0.9-13.9-1.4-20.8c0-0.6,0-1.1,0.7-1.3
		c6.3-2.5,12.6-5.1,18.9-7.7c0.2-0.1,0.3-0.1,0.6-0.2c0.1,0.4,0.2,0.7,0.2,1c0.1,8.2,0.1,16.4,0.2,24.6c0,0.9-0.3,1.4-1.1,1.8
		c-5.5,2.4-11,4.8-16.5,7.3C1228.4,34.9,1228.1,35,1227.6,35.2z"/>
	<path id="XMLID_10061_" class="st0" d="M1243.2-37.8c-0.5,0.3-0.8,0.5-1.1,0.7c-5.5,3.1-11,6.3-16.5,9.3c-0.5,0.3-1.3,0.4-1.8,0.3
		c-4.9-1-9.8-2.1-14.7-3.2c-0.2,0-0.4-0.1-0.8-0.3c2.3-1.4,4.4-2.7,6.6-4c0-0.1-0.1-0.2-0.1-0.2c-0.4,0.2-0.9,0.3-1.3,0.5
		c-3,1.2-6,2.4-9,3.6c-0.4,0.2-1,0.3-1.2,0.1c-4.2-2.7-8.4-5.5-12.7-8.4c0.5-0.2,0.8-0.4,1.1-0.5c4.5-1.7,8.9-3.3,13.4-4.9
		c0.5-0.2,1.3-0.1,1.8,0.1c4.2,2,8.3,4,12.4,6.1c0.6,0.3,1.1,0.4,1.7-0.1c2.2-2,4.7-1.9,7.4-1.4c4.6,0.9,9.3,1.4,14,2.1
		C1242.6-37.9,1242.8-37.9,1243.2-37.8z"/>
	<path id="XMLID_10062_" class="st0" d="M1243.8-35.6c0,7.8,0,15.4,0,23c0,0.3-0.2,0.8-0.4,0.9c-5.4,3.5-10.7,6.9-16.3,10.5
		c-0.2-1.7-0.3-3.2-0.4-4.7c-0.5-6-0.9-12.1-1.4-18.1c0-0.4,0.2-1,0.5-1.2c5.7-3.4,11.4-6.7,17.1-10
		C1243.1-35.3,1243.2-35.3,1243.8-35.6z"/>
	<path id="XMLID_10063_" class="st0" d="M1246.6,29.4c0,1.2,0,2.1,0,3.1c0.1,5.7,0.1,11.5,0.2,17.2c0,1-0.4,1.5-1.2,2
		c-5,2.7-9.9,5.5-14.9,8.3c-0.4,0.2-0.7,0.4-1.3,0.7c-0.1-0.5-0.2-0.9-0.2-1.2c-0.5-7.1-0.9-14.2-1.4-21.3c0-0.3,0.2-0.9,0.5-1
		c5.8-2.5,11.6-5,17.4-7.4C1245.9,29.5,1246.1,29.5,1246.6,29.4z"/>
	<path id="XMLID_10064_" class="st0" d="M1174.8,57.4c-1.4-0.9-2.6-1.6-3.8-2.4c-3.4-2.2-6.9-4.3-10.3-6.5c-0.4-0.3-0.8-0.9-0.9-1.4
		c-1.2-8.1-2.3-16.2-3.4-24.3c0-0.2,0-0.4,0-0.7c1.8,0.9,3.6,1.8,5.3,2.6c2.9,1.5,5.8,3,8.7,4.4c0.7,0.3,1,0.7,1.1,1.5
		c0.9,7.2,1.9,14.5,2.9,21.7C1174.5,53.9,1174.6,55.6,1174.8,57.4z"/>
	<path id="XMLID_10065_" class="st0" d="M1160.3,50.5c1.9,1.2,3.6,2.2,5.3,3.3c3,1.9,5.9,3.7,8.8,5.6c0.5,0.3,0.9,0.9,1,1.4
		c1.1,8.7,2.2,17.5,3.3,26.2c0,0.3,0,0.6,0,1c-0.4-0.3-0.7-0.5-1-0.7c-4.5-3.6-8.9-7.2-13.3-10.9c-0.4-0.3-0.9-0.9-0.9-1.4
		c-1.1-7.8-2.1-15.6-3.2-23.4C1160.2,51.3,1160.3,51,1160.3,50.5z"/>
	<path id="XMLID_10066_" class="st0" d="M1171.1,27.4c-3.2-1.6-6.2-3.1-9.1-4.6c-1.5-0.8-2.9-1.6-4.4-2.3c-1.1-0.5-1.6-1.2-1.7-2.3
		c-0.7-4.7-1.3-9.4-2-14.2c-0.4-2.7-0.7-5.4-1.1-8.1c0-0.2,0-0.4,0-0.7c5.1,2.4,10.1,4.9,15.1,7.3
		C1168.9,10.5,1170,18.8,1171.1,27.4z"/>
	<path id="XMLID_10067_" class="st0" d="M1136.5-12.5c1.8,0.8,3.4,1.6,5,2.4c2.8,1.3,5.6,2.6,8.4,4c0.4,0.2,0.9,0.7,0.9,1.1
		c1,7.7,2,15.4,2.9,23.1c0,0.1,0,0.2,0,0.5c-0.4-0.2-0.7-0.3-1-0.4c-3.8-1.9-7.7-3.9-11.6-5.8c-0.7-0.3-1-0.8-1.1-1.6
		c-1.1-7.2-2.2-14.3-3.4-21.5C1136.6-11.3,1136.6-11.8,1136.5-12.5z"/>
	<path id="XMLID_10068_" class="st0" d="M1157.4,46.4c-0.8-0.5-1.6-1-2.3-1.5c-3.2-2-6.3-4-9.5-6c-0.8-0.5-1.2-1-1.4-1.9
		c-1-6-1.9-12-2.9-18.1c-0.2-1.5-0.4-3-0.7-4.7c0.4,0.2,0.8,0.3,1.1,0.4c3.9,1.9,7.8,3.9,11.7,5.9c0.5,0.2,1,0.8,1,1.3
		c1.1,8,2.1,16,3.1,24.1C1157.5,46.1,1157.5,46.2,1157.4,46.4z"/>
	<path id="XMLID_10069_" class="st0" d="M1180-16c1.3-0.6,2.4-1.1,3.6-1.6c6.4-2.6,12.9-5.2,19.4-7.8c0.4-0.2,0.9-0.3,1.3-0.2
		c5.1,1.9,10.2,3.9,15.6,6c-0.6,0.3-0.9,0.5-1.2,0.6c-7.6,2.9-15.3,5.8-22.9,8.7c-0.5,0.2-1.1,0.2-1.5,0.1
		c-4.6-1.8-9.2-3.6-13.7-5.5C1180.4-15.8,1180.3-15.9,1180-16z"/>
	<path id="XMLID_10070_" class="st0" d="M1161.1,73.7c-2.7-2.2-5.2-4.3-7.7-6.3c-0.6-0.5-1.2-1.1-1.9-1.6c-2.4-1.5-3.5-3.5-3.8-6.4
		c-0.7-5.7-1.7-11.4-2.5-17.1c-0.1-0.4-0.1-0.9-0.1-1.6c0.7,0.4,1.3,0.8,1.9,1.2c3.4,2.2,6.9,4.3,10.3,6.6c0.4,0.3,0.9,0.8,1,1.3
		c1,7.7,2,15.3,2.9,23C1161.1,73,1161.1,73.2,1161.1,73.7z"/>
	<path id="XMLID_10071_" class="st0" d="M1137.9,10.5c-2-1-4-1.9-5.9-2.9c-1.6-0.8-3.3-1.6-4.8-2.6c-0.6-0.4-1.2-1.1-1.3-1.8
		c-1.2-5.8-2.2-11.6-3.3-17.5c-0.3-1.7-0.6-3.3-0.9-5.2c0.7,0.3,1.2,0.4,1.7,0.6c3.1,1.5,6.3,3.1,9.4,4.5c1.1,0.5,1.7,1.2,1.9,2.6
		c1,7.1,2.1,14.2,3.2,21.3C1138,9.9,1137.9,10.1,1137.9,10.5z"/>
	<path id="XMLID_10072_" class="st0" d="M1173.9-15.8c-0.7,0.3-1.5,0.7-2.2,1c-5.5,2.2-11.1,4.5-16.6,6.7c-0.4,0.2-1,0.3-1.4,0.1
		c-4.8-2.3-9.6-4.7-14.4-7.1c-0.2-0.1-0.3-0.2-0.6-0.5c0.8-0.3,1.5-0.5,2.2-0.8c5.2-1.9,10.4-3.7,15.6-5.6c0.6-0.2,1.3-0.4,1.8-0.2
		c5.2,1.9,10.5,3.9,15.7,5.8C1173.9-16.1,1173.9-16,1173.9-15.8z"/>
	<path id="XMLID_10073_" class="st0" d="M1143.3-40.4c4.6-0.8,8.9-1.5,13.3-2.3c3.7-0.6,7.4-1.3,11.2-1.9c0.7-0.1,1.6,0.1,2.1,0.5
		c2.8,1.9,5.5,4,8.3,6c0.3,0.2,0.6,0.5,1,0.8c-3.8,0.9-7.3,1.7-10.9,2.5c-4.2,1-8.5,2-12.7,2.9c-0.5,0.1-1.2,0.1-1.5-0.1
		C1150.4-34.7,1147-37.5,1143.3-40.4z"/>
	<path id="XMLID_10074_" class="st0" d="M1163.6-25c3.6-2,6.9-3.8,10.2-5.6c2.2-1.2,4.5-2.5,6.8-3.7c0.4-0.2,0.9-0.4,1.4-0.3
		c5.4,0.7,10.8,1.4,16.2,2.1c0.2,0,0.4,0.1,0.8,0.1c-0.4,0.3-0.7,0.5-0.9,0.7c-5.3,3.5-10.6,7.1-16,10.6c-0.5,0.3-1.3,0.5-1.9,0.3
		c-5.1-1.2-10.1-2.5-15.2-3.8C1164.5-24.7,1164.2-24.8,1163.6-25z"/>
	<path id="XMLID_10075_" class="st0" d="M1142,36.7c-1.8-1.2-3.5-2.2-5.2-3.3c-1.6-1.1-3.3-2.2-4.9-3.2c-1-0.7-1.6-1.6-1.8-2.8
		c-1.1-6.5-2.2-12.9-3.4-19.4c0-0.2,0-0.5-0.1-0.9c1.6,0.8,3.1,1.4,4.6,2.2c2.2,1.1,4.3,2.1,6.4,3.3c0.4,0.2,0.9,0.7,0.9,1.1
		c1.2,7.3,2.3,14.7,3.5,22C1142.1,35.9,1142,36.2,1142,36.7z"/>
	<path id="XMLID_10076_" class="st0" d="M1191.8-8.9c-7.4,2.8-14.5,5.5-21.7,8.2c-0.3,0.1-0.7,0.2-0.9,0c-4.1-1.9-8.2-3.8-12.5-5.9
		c0.6-0.3,0.9-0.5,1.3-0.6c6.1-2.5,12.1-5,18.2-7.5c0.5-0.2,1.1-0.3,1.5-0.2c4.6,1.8,9.2,3.6,13.8,5.5
		C1191.5-9.2,1191.5-9.1,1191.8-8.9z"/>
	<path id="XMLID_10077_" class="st0" d="M1131.2,32.2c1.9,1.1,3.7,2.2,5.4,3.2c1.8,1.1,3.5,2.2,5.2,3.3c0.3,0.2,0.7,0.6,0.8,1
		c1.1,7,2.1,13.9,3.2,20.9c0,0.1,0,0.2-0.1,0.4c-0.3-0.2-0.6-0.4-0.9-0.6c-3.2-2.6-6.4-5.2-9.5-7.8c-0.5-0.4-0.9-1.2-1.1-1.8
		c-1.1-5.8-2.1-11.6-3.1-17.4C1131.1,33.1,1131.2,32.7,1131.2,32.2z"/>
	<path id="XMLID_10078_" class="st0" d="M1202.5-47.7c-2.8,0.9-5.3,1.7-7.8,2.5c-2,0.7-4.1,1.3-6.2,2c-0.4,0.1-0.9,0.2-1.1,0
		c-3.2-2.5-6.4-5.1-9.8-7.7c0.4-0.2,0.7-0.4,1-0.5c4.3-1.6,8.6-3.2,12.9-4.8c0.7-0.3,1.2-0.2,1.8,0.3c2.7,2.5,5.4,4.9,8.2,7.3
		C1201.7-48.3,1202-48.1,1202.5-47.7z"/>
	<path id="XMLID_10079_" class="st0" d="M1125-22.1c4.8-1.6,9.8-2.9,14.5-4.7c3-1.1,5.6-1.1,8.4,0.3c2.2,1.1,4.6,1.9,6.8,2.9
		c0,0.1,0,0.2,0,0.3c-4.4,1.6-8.8,3.2-13.2,4.7c-1.3,0.5-2.7,0.9-4,1.4c-1,0.4-2,0.4-3-0.1c-3.2-1.6-6.4-3-9.7-4.5
		C1124.9-21.8,1125-22,1125-22.1z"/>
</g>
</svg>
