<?xml version="1.0" encoding="utf-8"?>
<!-- Generator: Adobe Illustrator 19.1.0, SVG Export Plug-In . SVG Version: 6.00 Build 0)  -->
<svg version="1.1" id="Layer_1" xmlns="http://www.w3.org/2000/svg" xmlns:xlink="http://www.w3.org/1999/xlink" x="0px" y="0px"
	 viewBox="-417 218 125 125" style="enable-background:new -417 218 125 125;" xml:space="preserve">
<style type="text/css">
	.st0{fill:#7B7B7B;}
</style>
<g id="XMLID_15772_">
	<g id="XMLID_9164_">
		<path id="XMLID_11058_" class="st0" d="M-318.5,220.9c0.3,0.2,0.7,0.3,1,0.5c1.9,0.9,3,2.5,3.1,4.6c0,0.3,0,0.5,0,0.7
			c0,35.9,0,71.6,0,107.5c0,3-1.6,5.1-4.2,5.7c-0.4,0.1-0.8,0.1-1.3,0.1c-23,0-46.1,0-69,0c-3.2,0-5.6-2.3-5.6-5.6
			c0-35.9,0-71.9,0-107.8c0-3,1.6-4.7,4.3-5.7C-366.3,220.9-342.5,220.9-318.5,220.9z M-390.5,328.5c0.4,0,0.8,0.1,1.1,0.1
			c23.5,0,46.8,0,70.3,0c0.9,0,1.2-0.3,1.2-1.3c0-31.2,0-62.3,0-93.6c0-0.9-0.3-1.2-1.2-1.2c-23.5,0-46.8,0-70.3,0
			c-0.3,0-0.7,0-1.1,0C-390.5,264.5-390.5,296.5-390.5,328.5z M-354.5,337.5c1.8,0,3.1-1.4,3.1-3.1s-1.4-3-3.1-3
			c-1.8,0-3.2,1.4-3.2,3.1C-357.7,336-356.2,337.5-354.5,337.5z M-354.5,228.3c0.4-0.6,0.8-0.9,0.8-1.3c0-0.3-0.5-0.6-0.8-0.8
			c-0.3,0.3-0.8,0.5-0.8,0.8C-355.3,227.4-355,227.8-354.5,228.3z"/>
	</g>
	<path id="XMLID_11118_" class="st0" d="M-354.2,273.8c0-5.6,0-11.1,0-16.7c0-1.5,0-1.5,1.5-1.5c10.2,0,20.4,0,30.6,0
		c1.4,0,1.5,0.1,1.5,1.6c0,11.1,0,22.2,0,33.3c0,1.5-0.2,1.7-1.6,1.7c-10.2,0-20.3,0-30.5,0c-1.4,0-1.5-0.1-1.5-1.7
		C-354.2,285-354.2,279.3-354.2,273.8z M-352.8,290.5c10.3,0,20.4,0,30.6,0c0-11.1,0-22.3,0-33.3c-10.3,0-20.4,0-30.6,0
		C-352.8,268.3-352.8,279.3-352.8,290.5z"/>
	<g id="XMLID_15768_">
		<path id="XMLID_11113_" class="st0" d="M-353.8,302c9.2,0,18.5,0,27.7,0c0.6,0,1.3-0.1,1.9,0.1c0.6,0.2,1.3,0.9,1.2,1.2
			c-0.2,0.6-0.7,1.2-1.3,1.4c-0.4,0.3-1.1,0.1-1.7,0.1c-18.6,0-37.4,0-56,0c-0.3,0-0.6,0.1-0.8,0c-0.8-0.4-1.4-1-2.1-1.5
			c0.7-0.4,1.4-1.2,2.1-1.2c6.3-0.1,12.7-0.1,19.1-0.1C-360.3,302-357.2,302-353.8,302z"/>
		<path id="XMLID_11112_" class="st0" d="M-354,308.5c9.3,0,18.6,0,27.9,0c0.6,0,1.2-0.2,1.7,0.1c0.5,0.3,1.1,0.8,1.3,1.4
			c0.1,0.3-0.7,0.9-1.2,1.2c-0.4,0.2-0.9,0.1-1.4,0.1c-18.8,0-37.6,0-56.4,0c-0.3,0-0.8,0.2-1,0c-0.6-0.4-1.2-0.9-1.7-1.4
			c0.5-0.4,1-1,1.6-1.3c0.5-0.2,1.1-0.1,1.7-0.1C-372.3,308.5-363,308.5-354,308.5z"/>
		<path id="XMLID_11102_" class="st0" d="M-353.8,295.5c9.3,0,18.6,0,27.9,0c0.6,0,1.2-0.1,1.7,0.1s0.8,0.8,1.3,1.1
			c-0.4,0.5-0.8,1.1-1.3,1.4c-0.4,0.3-1.1,0.1-1.7,0.1c-18.6,0-37.4,0-56,0c-0.4,0-0.9,0.2-1.3,0c-0.6-0.3-1.1-0.9-1.7-1.4
			c0.6-0.4,1.1-1.1,1.7-1.2c3.5-0.1,6.8-0.1,10.3-0.1C-366.5,295.5-360.3,295.5-353.8,295.5z"/>
		<path id="XMLID_11101_" class="st0" d="M-353.8,324c-9.4,0-18.7,0-28.1,0c-0.6,0-1.3,0.1-1.9-0.1c-0.4-0.2-1-0.8-1-1.1
			c0.1-0.5,0.5-1.1,1-1.3c0.4-0.3,1.1-0.1,1.7-0.1c18.8,0,37.6,0,56.4,0c0.5,0,1.1-0.2,1.4,0.1c0.5,0.3,0.9,0.9,1.3,1.3
			c-0.4,0.4-0.8,0.9-1.3,1.2c-0.5,0.2-1.1,0.1-1.7,0.1C-335.2,324-344.5,324-353.8,324z"/>
		<path id="XMLID_11100_" class="st0" d="M-353.8,317.7c-9.3,0-18.6,0-27.9,0c-0.6,0-1.3,0.1-1.9-0.1c-0.6-0.2-1.3-0.8-1.2-1.1
			c0.2-0.6,0.7-1.1,1.2-1.4c0.3-0.3,0.9-0.1,1.4-0.1c18.8,0,37.6,0,56.4,0c0.5,0,1.1-0.2,1.4,0.1c0.5,0.3,0.9,0.9,1.3,1.4
			c-0.4,0.4-0.8,0.9-1.3,1.2c-0.6,0.2-1.3,0.1-1.9,0.1C-335.3,317.7-344.7,317.7-353.8,317.7z"/>
	</g>
	<g id="XMLID_15754_">
		<path id="XMLID_11106_" class="st0" d="M-364.3,249.1c0-3.5-0.1-6.8,0-10.2c0-1.4,2.1-2.6,4.4-2.7c2.5-0.1,4.6,0.8,5.1,2.3
			c0.1,0.3,0.2,0.7,0.2,1.1c0,2.9,0,5.7,0,8.6c0,0.7-0.3,1.1-1.5,1.1s-1.3-0.5-1.3-1.1c0-1.4,0-3,0-4.5c-1.4,0-2.8,0-4.3,0
			c0,1.4,0,2.9,0,4.3C-361.8,249.3-362,249.4-364.3,249.1z M-357.5,241.8c0-1,0.3-1.9-0.1-2.6c-0.2-0.5-1.1-1.1-1.9-1.2
			c-0.6-0.1-1.9,0.4-2,0.8c-0.3,0.9-0.1,1.9-0.1,3C-360,241.8-358.8,241.8-357.5,241.8z"/>
		<path id="XMLID_11099_" class="st0" d="M-372.3,236.3c3,0,5.4,1.7,4.9,3.6c-0.1,0.3-0.8,0.7-1.3,0.7s-1.4-0.4-1.4-0.7
			c-0.1-0.9-0.2-1.8-1.9-1.9c-0.7-0.1-1.6,0.3-2,0.6c-1.1,0.9,0.2,1.5,0.9,2.2c1.4,1.2,2.9,2.4,4.3,3.5c1.7,1.3,1.8,2.4,0.5,3.6
			c-1.3,1.2-3.6,1.6-5.7,1.2c-2-0.5-3.3-1.8-3.2-3.3c0-0.8,0.5-0.9,1.6-0.9c1.3,0,1.3,0.5,1.3,1.1c0.1,1.1,1.1,1.7,2.5,1.5
			c1.5-0.2,2.1-1.3,1-2.1c-1.7-1.4-3.4-3-5.2-4.3c-1.3-1-1.5-2-0.6-3.2C-375.8,236.8-374.3,236.3-372.3,236.3z"/>
		<path id="XMLID_11098_" class="st0" d="M-338.3,237.8c0,1.3,0,2.5,0,3.9c1,0,1.9,0,2.8,0c1,0,1.6,0.3,1.3,0.9
			c-0.2,0.3-0.8,0.8-1.3,0.8c-0.8,0.2-1.8,0-2.8,0c0,1.3,0,2.5,0,4c0.9,0,1.7,0,2.5,0c1,0,1.6,0.2,1.6,0.9s-0.6,0.8-1.5,0.8
			c-6.6,0-5.6,0.3-5.6-3.4c0-2.8,0-5.6,0-8.4c0-0.9,0.5-1.4,2-1.3c1.3,0,2.6-0.1,3.9,0c0.4,0,1.2,0.5,1.1,0.8
			c-0.1,0.3-0.6,0.8-1.1,0.9C-336.2,238.1-337.2,237.8-338.3,237.8z"/>
		<path id="XMLID_11097_" class="st0" d="M-348.5,247.6c1.2,0,2,0,2.9,0c0.9,0,1.5,0.2,1.5,0.8c0,0.7-0.4,0.9-1.4,0.9
			c-0.1,0-0.1,0-0.2,0c-6.4,0-5.4,0.3-5.4-3.4c0-2.9,0-5.8,0-8.7c0-0.6,0.1-1.1,1.3-1.1c1.2,0,1.3,0.4,1.3,1.1c0,3,0,5.9,0,8.9
			C-348.5,246.4-348.5,246.9-348.5,247.6z"/>
	</g>
	<g id="XMLID_15766_">
		<path id="XMLID_11096_" class="st0" d="M-370.8,270.7c4.1,0,8.3-0.1,12.4,0.1c1,0,1.9,0.8,3,1.2c-0.9,0.4-1.9,1.3-2.8,1.3
			c-8.4,0.1-16.9,0.1-25.3,0.1c-1.3,0-2.9,0.1-2.6-1.3c0.1-0.5,1.8-1.2,2.8-1.2C-379.3,270.5-375,270.7-370.8,270.7z"/>
		<path id="XMLID_11092_" class="st0" d="M-371.2,258c4.4,0,8.8-0.1,13.2,0.1c0.8,0,1.6,0.8,2.4,1.2c-0.8,0.4-1.6,1.2-2.4,1.2
			c-8.7,0.1-17.5,0.1-26.2,0c-0.8,0-1.6-0.8-2.4-1.2c0.8-0.4,1.6-1.1,2.4-1.1C-379.8,258-375.5,258-371.2,258z"/>
		<path id="XMLID_11091_" class="st0" d="M-371.2,285.8c-4.3,0-8.6,0.1-12.9-0.1c-0.8,0-1.6-0.8-2.4-1.1c0.8-0.4,1.6-1.2,2.4-1.2
			c8.7-0.1,17.5-0.1,26.2,0c0.8,0,1.6,0.8,2.4,1.2c-0.8,0.4-1.6,1.1-2.4,1.2C-362.3,285.8-366.8,285.8-371.2,285.8z"/>
		<path id="XMLID_11090_" class="st0" d="M-371.2,279.5c-4.2,0-8.4,0-12.7,0c-1.1,0-2.7,0.2-2.4-1.2c0.1-0.5,1.6-1.2,2.4-1.2
			c8.5-0.1,17.1-0.1,25.6,0c0.9,0,1.8,0.8,2.6,1.2c-0.9,0.4-1.8,1.1-2.6,1.2C-362.5,279.5-366.8,279.5-371.2,279.5z"/>
		<path id="XMLID_11089_" class="st0" d="M-370.8,266.8c-4.3,0-8.6,0.1-12.9-0.1c-0.8,0-1.7-0.8-2.6-1.2c0.8-0.4,1.8-1.2,2.6-1.2
			c8.5-0.1,17.1-0.1,25.6-0.1c1.2,0,2.7-0.1,2.4,1.2c-0.1,0.5-1.6,1.2-2.5,1.2C-362.5,267-366.7,266.8-370.8,266.8z"/>
	</g>
	<path id="XMLID_11078_" class="st0" d="M-337.3,284.8c-2.3,0-4.6,0-6.8,0c-0.9,0-1.3-0.3-1.2-1.2c0-2.9,0-5.7,0-8.6
		c0-0.8-0.3-1.3-1-1.5c-0.3-0.1-0.6-0.3-0.8-0.3c-2.3-1-2.3-0.6-1.8-3.4c0.6-3.3,2.5-5.9,5.3-7.8c0.7-0.5,1.9-0.3,2.9-0.3
		c0.2,0,0.4,0.6,0.5,0.9c0.3,1.4,1.3,2.3,2.8,2.3s2.6-0.8,2.8-2.3c0.1-0.8,0.4-1,1.2-1.1c1.3-0.1,2.4,0.3,3.4,1.1
		c2.4,2.1,4,4.6,4.6,7.8c0.3,1.6,0.3,1.9-1.3,2.4c-1.9,0.6-2.6,1.7-2.4,3.7c0.3,2.3,0,4.6,0.1,7c0,0.9-0.3,1.3-1.3,1.3
		C-332.8,284.8-335,284.8-337.3,284.8z M-329.8,272.8c0.8-0.3,1.3-0.7,2-0.9c0.7-0.3,0.9-0.6,0.8-1.3c-0.5-2.8-2-4.9-4.2-6.7
		c-0.5-0.4-1.3-0.6-1.9-0.8c-0.7,2.3-2,3.4-4,3.5c-2.4,0.1-3.8-1.1-4.6-3.4c-0.5,0.2-1.1,0.2-1.4,0.4c-2.3,1.8-3.8,4-4.4,6.8
		c-0.2,0.8,0,1.3,0.8,1.6c2,0.8,1.3,1,2.9-0.6c0.2-0.2,0.3-0.5,0.5-0.6c0.4-0.2,0.8-0.3,1.3-0.4c-0.1,0.4,0.1,1-0.2,1.3
		c-1.5,1.3-1.8,2.9-1.7,4.7c0.1,2.4,0,4.7,0,7.1c4.5,0,8.8,0,13.2,0c0-2.1-0.1-4.1,0-6.2c0.2-2.2-0.1-4.2-2-5.7l-0.1-0.1
		c0-0.3-0.1-0.8-0.1-1.1c0.4,0.1,0.9,0,1.2,0.3C-331,271.3-330.5,272-329.8,272.8z"/>
</g>
</svg>
