<?xml version="1.0" encoding="utf-8"?>
<!-- Generator: Adobe Illustrator 19.0.0, SVG Export Plug-In . SVG Version: 6.00 Build 0)  -->
<svg version="1.1" id="Layer_1" xmlns="http://www.w3.org/2000/svg" xmlns:xlink="http://www.w3.org/1999/xlink" x="0px" y="0px"
	 viewBox="1110 -60 150 150" style="enable-background:new 1110 -60 150 150;" xml:space="preserve">
<style type="text/css">
	.st0{fill:none;stroke:#4DBEC0;stroke-width:2;stroke-miterlimit:10;}
	.st1{fill:#4DBEC0;}
</style>
<g id="XMLID_10282_">
	<g id="XMLID_131_">
		<path id="XMLID_132_" class="st0" d="M1148.3,13.6c0-18.8,0-37.7,0-56.5c0-6.3,3.7-8.8,9.4-10.3c1.2-0.3,2.5-0.4,3.8-0.4
			c18,0,26,0,44,0c7.4,0,13,3,13,10.4c0,38,0,76,0,113.9c0,7.4-5.6,12.9-13,12.9c-18.1,0-26.2,0-44.3,0c-7.5,0-13-5.5-13-13
			C1148.3,51.6,1148.3,32.6,1148.3,13.6z M1213.1,7.4c0-15.7,0-31.4,0-47.1c0-3.6-1.7-5.4-5.3-5.4c-16.2,0-32.5,0-48.7,0
			c-3.6,0-5.3,1.7-5.3,5.3c0,31.4,0,62.8,0,94.2c0,3.5,1.8,5.3,5.4,5.3c16.2,0,32.4,0,48.6,0c3.6,0,5.4-1.8,5.4-5.4
			C1213.2,38.7,1213.1,23.1,1213.1,7.4z M1189,72.3c0-3.1-2.4-5.5-5.5-5.5c-3.1,0-5.6,2.4-5.6,5.6c0,3.1,2.4,5.5,5.5,5.6
			C1186.5,78,1189,75.5,1189,72.3z"/>
	</g>
</g>
<g id="XMLID_10268_">
	<path id="XMLID_10281_" class="st1" d="M1185.8,17c-1.3,0-2.6,0-3.9,0c0-13.4,0-28.2,0-41.6c1.3,0,2.6,0,3.9,0
		C1185.8-11.3,1185.8,3.5,1185.8,17z"/>
	<path id="XMLID_10280_" class="st1" d="M1170.1,17c-1.1,0-2.2,0-3.3,0c0-13.5,0-28.2,0-41.6c1.1,0,2.2,0,3.3,0
		C1170.1-11.3,1170.1,3.5,1170.1,17z"/>
	<path id="XMLID_10279_" class="st1" d="M1159.7-24.7c0.8,0,1.5,0,2.3,0c0,15.8,0,32.9,0,48.7c-0.7,0-1.5,0-2.3,0
		C1159.7,8.2,1159.7-8.9,1159.7-24.7z"/>
	<path id="XMLID_10278_" class="st1" d="M1207.2,24c-0.8,0-1.5,0-2.3,0c0-15.8,0-32.9,0-48.7c0.8,0,1.5,0,2.3,0
		C1207.2-8.9,1207.2,8.2,1207.2,24z"/>
	<path id="XMLID_10277_" class="st1" d="M1200.2,17c-0.7,0-1.3,0-1.9,0c0-13.5,0-28.2,0-41.6c0.6,0,1.3,0,1.9,0
		C1200.2-11.3,1200.2,3.5,1200.2,17z"/>
	<path id="XMLID_10276_" class="st1" d="M1175.6-24.7c0.5,0,1,0,1.5,0c0,13.4,0,28.2,0,41.7c-0.5,0-0.9,0-1.5,0
		C1175.6,3.5,1175.6-11.2,1175.6-24.7z"/>
	<path id="XMLID_10275_" class="st1" d="M1194.6-24.7c0.5,0,0.9,0,1.4,0c0,13.4,0,28.2,0,41.6c-0.5,0-0.9,0-1.4,0
		C1194.6,3.5,1194.6-11.2,1194.6-24.7z"/>
	<path id="XMLID_10274_" class="st1" d="M1172.4-24.7c0.3,0,0.5,0,0.8,0c0,13.4,0,28.2,0,41.6c-0.3,0-0.5,0-0.8,0
		C1172.4,3.5,1172.4-11.3,1172.4-24.7z"/>
	<path id="XMLID_10273_" class="st1" d="M1179.7,17c-0.3,0-0.5,0-0.8,0c0-13.5,0-28.2,0-41.7c0.2,0,0.5,0,0.8,0
		C1179.7-11.3,1179.7,3.5,1179.7,17z"/>
	<path id="XMLID_10272_" class="st1" d="M1191.5,17c-0.3,0-0.5,0-0.7,0c0-13.4,0-28.2,0-41.7c0.2,0,0.4,0,0.7,0
		C1191.5-11.3,1191.5,3.5,1191.5,17z"/>
	<path id="XMLID_10271_" class="st1" d="M1188-24.7c0.2,0,0.5,0,0.7,0c0,13.4,0,28.2,0,41.7c-0.2,0-0.4,0-0.7,0
		C1188,3.5,1188-11.2,1188-24.7z"/>
	<path id="XMLID_10270_" class="st1" d="M1164.2-24.7c0.7-0.2,0.6,0.2,0.6,0.6c0,4.4,0,8.8,0,13.2c0,11,0,23.3,0,34.2
		c0,0.4,0.2,0.9-0.6,0.7C1164.2,8.2,1164.2-8.9,1164.2-24.7z"/>
	<path id="XMLID_10269_" class="st1" d="M1202.3-24.8c0.2,0,0.4,0,0.6,0c0,15.8,0,32.9,0,48.7c-0.2,0-0.3,0-0.6,0.1
		C1202.3,8.1,1202.3-9,1202.3-24.8z"/>
</g>
</svg>
