<?xml version="1.0" encoding="utf-8"?>
<!-- Generator: Adobe Illustrator 19.1.0, SVG Export Plug-In . SVG Version: 6.00 Build 0)  -->
<svg version="1.1" id="Layer_1" xmlns="http://www.w3.org/2000/svg" xmlns:xlink="http://www.w3.org/1999/xlink" x="0px" y="0px"
	 viewBox="-417 218 125 125" style="enable-background:new -417 218 125 125;" xml:space="preserve">
<style type="text/css">
	.st0{fill:none;stroke:#FFFFFF;stroke-width:2;stroke-miterlimit:10;}
	.st1{fill:#FFFFFF;}
</style>
<g>
	<g id="XMLID_10282_">
		<g id="XMLID_131_">
			<path id="XMLID_132_" class="st0" d="M-383.9,279.3c0-15.8,0-31.6,0-47.4c0-5.3,3.1-7.4,7.9-8.6c1-0.3,2.1-0.3,3.2-0.3
				c15.1,0,21.8,0,36.9,0c6.2,0,10.9,2.5,10.9,8.7c0,31.9,0,63.8,0,95.6c0,6.2-4.7,10.8-10.9,10.8c-15.2,0-22,0-37.2,0
				c-6.3,0-10.9-4.6-10.9-10.9C-383.9,311.2-383.9,295.3-383.9,279.3z M-329.5,274.1c0-13.2,0-26.4,0-39.5c0-3-1.4-4.5-4.4-4.5
				c-13.6,0-27.3,0-40.9,0c-3,0-4.4,1.4-4.4,4.4c0,26.4,0,52.7,0,79.1c0,2.9,1.5,4.4,4.5,4.4c13.6,0,27.2,0,40.8,0
				c3,0,4.5-1.5,4.5-4.5C-329.4,300.4-329.5,287.3-329.5,274.1z M-349.8,328.6c0-2.6-2-4.6-4.6-4.6s-4.7,2-4.7,4.7
				c0,2.6,2,4.6,4.6,4.7C-351.9,333.4-349.8,331.3-349.8,328.6z"/>
		</g>
	</g>
	<g id="XMLID_10268_">
		<path id="XMLID_10281_" class="st1" d="M-352.4,282.2c-1.1,0-2.2,0-3.3,0c0-11.2,0-23.7,0-34.9c1.1,0,2.2,0,3.3,0
			C-352.4,258.4-352.4,270.8-352.4,282.2z"/>
		<path id="XMLID_10280_" class="st1" d="M-365.6,282.2c-0.9,0-1.8,0-2.8,0c0-11.3,0-23.7,0-34.9c0.9,0,1.8,0,2.8,0
			C-365.6,258.4-365.6,270.8-365.6,282.2z"/>
		<path id="XMLID_10279_" class="st1" d="M-374.3,247.2c0.7,0,1.3,0,1.9,0c0,13.3,0,27.6,0,40.9c-0.6,0-1.3,0-1.9,0
			C-374.3,274.8-374.3,260.4-374.3,247.2z"/>
		<path id="XMLID_10278_" class="st1" d="M-334.5,288.1c-0.7,0-1.3,0-1.9,0c0-13.3,0-27.6,0-40.9c0.7,0,1.3,0,1.9,0
			C-334.5,260.4-334.5,274.8-334.5,288.1z"/>
		<path id="XMLID_10277_" class="st1" d="M-340.4,282.2c-0.6,0-1.1,0-1.6,0c0-11.3,0-23.7,0-34.9c0.5,0,1.1,0,1.6,0
			C-340.4,258.4-340.4,270.8-340.4,282.2z"/>
		<path id="XMLID_10276_" class="st1" d="M-361,247.2c0.4,0,0.8,0,1.3,0c0,11.2,0,23.7,0,35c-0.4,0-0.8,0-1.3,0
			C-361,270.8-361,258.5-361,247.2z"/>
		<path id="XMLID_10275_" class="st1" d="M-345.1,247.2c0.4,0,0.8,0,1.2,0c0,11.2,0,23.7,0,34.9c-0.4,0-0.8,0-1.2,0
			C-345.1,270.8-345.1,258.5-345.1,247.2z"/>
		<path id="XMLID_10274_" class="st1" d="M-363.7,247.2c0.3,0,0.4,0,0.7,0c0,11.2,0,23.7,0,34.9c-0.3,0-0.4,0-0.7,0
			C-363.7,270.8-363.7,258.4-363.7,247.2z"/>
		<path id="XMLID_10273_" class="st1" d="M-357.6,282.2c-0.3,0-0.4,0-0.7,0c0-11.3,0-23.7,0-35c0.2,0,0.4,0,0.7,0
			C-357.6,258.4-357.6,270.8-357.6,282.2z"/>
		<path id="XMLID_10272_" class="st1" d="M-347.7,282.2c-0.3,0-0.4,0-0.6,0c0-11.2,0-23.7,0-35c0.2,0,0.3,0,0.6,0
			C-347.7,258.4-347.7,270.8-347.7,282.2z"/>
		<path id="XMLID_10271_" class="st1" d="M-350.6,247.2c0.2,0,0.4,0,0.6,0c0,11.2,0,23.7,0,35c-0.2,0-0.3,0-0.6,0
			C-350.6,270.8-350.6,258.5-350.6,247.2z"/>
		<path id="XMLID_10270_" class="st1" d="M-370.6,247.2c0.6-0.2,0.5,0.2,0.5,0.5c0,3.7,0,7.4,0,11.1c0,9.2,0,19.6,0,28.7
			c0,0.3,0.2,0.8-0.5,0.6C-370.6,274.8-370.6,260.4-370.6,247.2z"/>
		<path id="XMLID_10269_" class="st1" d="M-338.6,247.1c0.2,0,0.3,0,0.5,0c0,13.3,0,27.6,0,40.9c-0.2,0-0.3,0-0.5,0.1
			C-338.6,274.7-338.6,260.4-338.6,247.1z"/>
	</g>
</g>
</svg>
