<?xml version="1.0" encoding="utf-8"?>
<!-- Generator: Adobe Illustrator 19.0.0, SVG Export Plug-In . SVG Version: 6.00 Build 0)  -->
<svg version="1.1" id="Layer_1" xmlns="http://www.w3.org/2000/svg" xmlns:xlink="http://www.w3.org/1999/xlink" x="0px" y="0px"
	 viewBox="0 0 170 170" style="enable-background:new 0 0 170 170;" xml:space="preserve">
<style type="text/css">
	.st0{fill:#FFD846;stroke:#F7C31C;stroke-width:3;stroke-miterlimit:10;}
	.st1{fill:#3A3A3A;}
	.st2{fill:#666666;}
</style>
<path class="st0" d="M157.8,169.2h-145c-5.9,0-10.8-4.9-10.8-10.8v-145C2,7.4,6.9,2.6,12.8,2.6h145c5.9,0,10.8,4.9,10.8,10.8v145
	C168.6,164.3,163.8,169.2,157.8,169.2z"/>
<g>
	<path class="st1" d="M341.2,106.2c5.4,1.4,9.6,4,11.8,8.8c0.7,1.6,1.1,3.5,1.2,5.2c0.2,2.1-1.3,3.6-3.3,3.7
		c-1.9,0.1-3.4-1.3-3.6-3.3c-0.3-3.5-2.2-5.9-5.9-7.5c0,5.4,0,10.6,0,15.8c9.6,3.8,13.3,8.2,12.9,15.6c-0.3,6-5,10.8-13.1,13.3
		c0,1.5,0,3.1,0,4.7c0,2.6-1.4,4.1-3.6,4.1c-2.2,0-3.4-1.5-3.4-4c0-1.6,0-3.2,0-4.8c-3.9-0.9-7.1-2.5-9.6-5.3
		c-2.1-2.4-3.3-5.1-3.6-8.2c-0.2-2.3,1-3.9,3.1-4.1c2.1-0.2,3.7,1,3.9,3.3c0.3,3.5,2.3,5.7,6,7.4c0-2.2,0-4.1,0-6
		c0-2.7-0.1-5.5,0-8.2c0.1-1.4-0.5-1.9-1.9-2.4c-9.1-2.8-13.5-11.3-10.1-19.2c1.9-4.3,5.4-7.1,10.1-8.5c1.5-0.4,1.9-1,1.8-2.4
		c-0.1-1.7-0.1-3.3,0.1-5c0.2-1.8,1.7-2.9,3.5-2.9c1.9,0.1,3.3,1.4,3.4,3.2C341.3,101.9,341.2,104,341.2,106.2z M341.4,136.2
		c0,4.9,0,9.7,0,14.6c3.7-1.3,5.9-4.2,5.9-7.5C347.2,140.1,344.9,137.3,341.4,136.2z M334,113.3c-4,1.4-6,4.3-5.8,7.9
		c0.2,3.1,2.6,5.9,5.8,6.6C334,123,334,118.3,334,113.3z"/>
	<path class="st2" d="M410.7,91c-7.3-0.8-14.1-0.6-21,0.7c-9.3,1.7-17.8,5.3-25.5,10.4c-0.9,0.6-2.1,1.4-3,1.3
		c-1.2-0.2-2.7-1.1-3.3-2.1c-0.9-1.4-0.2-2.9,1.3-3.8c5-2.8,9.8-5.9,15.1-8.1c12-5,24.6-6.5,37.6-4.9c1.3,0.2,1.8-0.2,2.2-1.2
		c0.8-2.1,1.7-4.1,2.7-6.1c0.3-0.6,1.1-1.4,1.8-1.4c0.6,0,1.5,0.7,1.9,1.3c3,5,6,10.1,8.9,15.1c1.1,1.9,0.7,2.7-1.4,3.3
		c-5.8,1.5-11.5,3-17.3,4.4c-0.8,0.2-2.2,0.1-2.5-0.3c-0.4-0.6-0.3-1.7,0-2.5C408.8,95.1,409.7,93.2,410.7,91z"/>
	<path class="st2" d="M344.7,190.3c-2.2,1.4-4.2,2.7-6.3,3.9c-0.6,0.4-1.8,0.6-2.3,0.3c-0.5-0.3-0.9-1.3-0.9-2
		c0.5-5.8,1.1-11.7,1.7-17.5c0.2-1.6,1.2-2.1,2.7-1.7c6,1.8,12.1,3.6,18.1,5.5c1.9,0.6,2,2.1,0.4,3.2c-2.4,1.6-4.9,3.1-7.4,4.7
		c6.3,7.7,13.9,13.8,23.1,17.9c3.5,1.6,7.2,2.7,10.9,3.9c2.9,0.9,4.2,2.3,3.5,4.4c-0.6,2.1-2.6,2.8-5.5,2
		c-14.8-4.1-27.1-11.7-36.7-22.9C345.7,191.4,345.3,190.9,344.7,190.3z"/>
	<path class="st2" d="M473.3,162.3c2.8,0.8,5.4,1.6,8.1,2.5c0.7,0.2,1.7,0.9,1.7,1.4c0,0.7-0.6,1.6-1.3,2
		c-5.1,3.1-10.3,6.2-15.4,9.2c-2.1,1.2-2.9,1-3.7-1.2c-2-5.1-4.1-10.3-6-15.4c-0.3-0.7-0.4-2,0.1-2.3c0.6-0.5,1.9-0.5,2.7-0.3
		c2.3,0.5,4.5,1.3,7,2c1-5.4,1-10.5,0.4-15.7c-0.7-6.6-2.7-12.9-5.8-19c-0.5-0.9-1-2.2-0.6-3c0.5-1,1.8-2.1,3-2.5
		c1.6-0.4,3,0.5,3.6,2c2,5,4.2,10,5.6,15.1C474.8,145.4,474.7,153.8,473.3,162.3z"/>
	<path class="st1" d="M461.4,95c-0.1,3.8-3,7.3-5.9,7.3c-2.9,0-5.9-3.3-5.9-6.8c0-2.8,1.3-5.2,3.6-7c1.4-1.1,3.1-1.2,4.5,0
		C460,90.2,461.2,92.6,461.4,95z M457.8,95.5c0.1,0.1,0.2,0.1,0.3,0.2c-0.6,1-1.1,1.9-1.7,2.9c-0.2,0.4-0.2,0.8-0.3,1.2
		c0.5-0.1,1.3,0,1.4-0.2c0.7-1.4,1.5-2.9,1.8-4.5c0.1-0.6-0.7-1.5-1.1-2.2c-0.2,0.7-0.4,1.5-0.5,2.2
		C457.8,95.3,457.8,95.4,457.8,95.5z"/>
	<path class="st1" d="M464.7,110.1c0-3,2.6-6.4,4.9-6.5c2.3-0.1,5.2,3.5,5.2,6.6c0,2.9-2.5,5.9-5,5.9
		C467.2,116.1,464.7,113.2,464.7,110.1z M473.5,110.9c-0.1-0.7-0.1-1-0.2-1.1c-0.3-0.6-0.7-1.2-1-1.7c-0.2,0.6-0.5,1.2-0.7,1.7
		c-0.4,1-0.8,2-1.1,3.1c-0.1,0.4-0.1,0.8-0.2,1.2c0.5-0.1,1.3,0.1,1.4-0.2C472.5,112.8,473,111.6,473.5,110.9z"/>
	<path class="st1" d="M443.6,100.4c0,4.1-2.5,7.1-5.1,7.1c-2.6,0-5.3-3.1-4.9-6.1c0.3-1.8,1.3-3.6,2.4-5.1c1.4-1.8,3.5-1.8,4.9-0.1
		C442.3,97.7,443.1,99.5,443.6,100.4z M442.6,101.7c-0.1-0.1-0.2-0.1-0.4-0.2c0-0.2,0-0.4-0.1-0.6c-0.4-0.5-0.8-1.1-1.2-1.6
		c-0.2,0.6-0.4,1.1-0.5,1.7c-0.3,1-0.7,2.1-1,3.1c-0.1,0.4-0.1,0.9-0.2,1.4c0.5-0.1,1.3-0.1,1.5-0.4
		C441.4,104.1,441.9,102.9,442.6,101.7z"/>
	<path class="st1" d="M456.4,228.2c0,2.5,0,4.9,0,7.4c0,1.1-0.3,2.3-1.8,2.3c-1.5,0-1.9-1.1-1.9-2.2c0-4.9,0-9.8,0-14.8
		c0-1.2,0.2-2.4,1.9-2.4c1.5,0,1.7,1.2,1.7,2.3C456.4,223.3,456.4,225.7,456.4,228.2z"/>
	<path class="st1" d="M426.5,231.5c0-1.3,0-2.7,0-4c0-1.5,0.9-2.4,2.5-2.5c1.6-0.1,2.7,0.8,2.8,2.2c0.1,2.8,0.1,5.7,0,8.5
		c-0.1,1.4-1.2,2.3-2.8,2.1c-1.5-0.1-2.3-1-2.4-2.4C426.4,234.1,426.5,232.8,426.5,231.5C426.5,231.5,426.5,231.5,426.5,231.5z"/>
	<path class="st1" d="M401.9,228.2c0-2.6-0.1-5.2,0.1-7.8c0-0.7,1-1.3,1.6-2c0.6,0.6,1.8,1.2,1.8,1.8c0.1,5.3,0.1,10.5,0,15.8
		c0,0.6-1.2,1.2-1.8,1.8c-0.5-0.6-1.5-1.2-1.5-1.8C401.8,233.4,401.9,230.8,401.9,228.2z"/>
	<path class="st1" d="M424.9,171c0.9-1.8,1.7-3.7,2.8-5.4c0.3-0.4,2-0.6,2.5-0.2c1.9,1.3,3.2,5.6,2.1,7.7c-0.7,1.2-2,2.7-3.3,2.9
		c-1.9,0.3-2.8-1.5-3.4-3c-0.2-0.5-0.2-1.2-0.4-1.7C425.2,171.2,425,171.1,424.9,171z"/>
	<path class="st1" d="M425.6,190.8c-4-0.1-7.1-2.3-7.8-5.5c-0.4-1.8,0.4-2.7,2.3-2.7c4.2,0.1,7.3,2.2,8,5.4
		C428.4,190.1,427.7,190.9,425.6,190.8z"/>
	<path class="st1" d="M432.3,182.7c-1.6,0-2.4-0.6-2.3-2.2c0.2-3.5,5.4-6.9,9-5.9c1.4,0.4,1.7,1.3,1.4,2.5
		C439.8,180.3,436.4,182.7,432.3,182.7z"/>
	<path class="st1" d="M438.1,207.1c2,0,2.7,0.9,2.3,2.7c-0.7,3.3-5.1,6-8.7,5.4c-1.4-0.2-1.8-1.1-1.7-2.3
		C430.4,209.6,433.9,207.1,438.1,207.1z"/>
	<path class="st1" d="M425.5,182.6c-4-0.2-6.9-2.2-7.7-5.3c-0.5-2,0.4-3,2.5-2.8c4.1,0.2,7.1,2.4,7.7,5.5
		C428.4,182,427.7,182.7,425.5,182.6z"/>
	<path class="st1" d="M432.5,190.8c-1.9,0-2.6-0.7-2.4-2.4c0.5-3.5,5.4-6.6,9-5.6c1.4,0.4,1.6,1.4,1.3,2.5
		C439.8,188.5,436.4,190.8,432.5,190.8z"/>
	<path class="st1" d="M432.6,207c-2.2,0-2.8-0.7-2.4-2.7c0.6-3.3,5.4-6.2,8.9-5.3c1.4,0.3,1.6,1.3,1.4,2.5
		C439.9,204.7,436.7,206.9,432.6,207z"/>
	<path class="st1" d="M420.3,207.1c4.2,0.2,7.5,2.6,7.8,5.8c0.1,1.3-0.3,2.1-1.7,2.3c-3.6,0.5-7.7-2-8.6-5.3
		C417.3,207.9,418.1,207,420.3,207.1z"/>
	<path class="st1" d="M425.5,207c-4.1-0.1-7.1-2.2-7.7-5.4c-0.4-1.8,0.4-2.6,2.4-2.6c3.9,0,7.2,2.2,7.9,5.3
		C428.5,206.3,427.8,207,425.5,207z"/>
	<path class="st1" d="M420.3,190.8c3.9,0.1,7,2.2,7.7,5.2c0.5,2.1-0.2,2.9-2.5,2.8c-3.9-0.1-6.9-2.1-7.7-5.2
		C417.3,191.6,418,190.8,420.3,190.8z"/>
	<path class="st1" d="M437.9,190.8c2.3,0,3,0.8,2.5,2.8c-0.9,3.4-5.2,5.9-8.8,5.2c-1.3-0.3-1.6-1.1-1.5-2.2
		C430.4,193.4,433.7,190.9,437.9,190.8z"/>
	<path class="st1" d="M420.4,215.2c4,0.1,7.2,2.4,7.7,5.5c0.3,1.9-0.4,2.6-2.4,2.6c-3.9-0.1-6.9-2.1-7.8-5.2
		C417.3,216,418,215.1,420.4,215.2z"/>
	<path class="st1" d="M438,215.2c2.1,0,2.8,0.9,2.3,2.8c-0.8,3.3-4.9,5.8-8.6,5.3c-1.4-0.2-1.9-1-1.8-2.2
		C430.3,217.8,433.8,215.2,438,215.2z"/>
	<path class="st1" d="M451.6,182c0.6-1.3,1.2-2.8,2.1-4.3c0.2-0.3,1.4-0.5,1.7-0.2c1.7,1.2,2.7,5.4,1.6,7.2c-0.5,0.8-1.5,2-2.2,1.9
		c-0.9-0.1-1.8-1.1-2.4-2C451.8,184,451.9,183.1,451.6,182z"/>
	<path class="st1" d="M406.7,181.9c0,2.5-1.6,4.8-2.9,4.8c-1.3,0-3-2.2-2.7-4c0.2-1.6,1-3.3,1.7-4.8c0.5-1.1,1.5-1.1,2,0
		C405.6,179.3,406.3,181,406.7,181.9z"/>
	<path class="st1" d="M395.7,209.5c3.7,0.2,6.5,2.2,6.8,5c0.1,0.5-0.6,1.4-1,1.5c-3.1,0.6-6.9-1.9-7.5-4.7
		C393.8,209.9,394.3,209.3,395.7,209.5z"/>
	<path class="st1" d="M400.9,199.7c-3.6-0.1-6.5-2.2-6.8-4.9c-0.1-0.5,0.5-1.4,0.9-1.5c3.1-0.6,6.6,1.6,7.5,4.4
		C403,199.3,402.5,199.9,400.9,199.7z"/>
	<path class="st1" d="M456.3,216c-0.2-0.4-0.7-1-0.6-1.5c0.2-2.9,4.6-5.7,7.6-4.9c0.4,0.1,0.9,1.1,0.8,1.6
		C463.6,214.1,460.4,216.1,456.3,216z"/>
	<path class="st1" d="M457.1,199.7c-1.7,0.2-1.8-0.7-1.5-1.9c0.7-2.8,4.4-5,7.5-4.4c0.4,0.1,1,1,1,1.5
		C463.7,197.6,460.8,199.6,457.1,199.7z"/>
	<path class="st1" d="M401,207.8c-3.6-0.1-6.4-1.9-6.8-4.7c-0.1-0.5,0.5-1.6,1-1.7c3.1-0.6,6.7,1.8,7.4,4.6
		C402.9,207.4,402.5,208,401,207.8z"/>
	<path class="st1" d="M411.7,193.3c1.5-0.1,1.8,0.6,1.4,1.8c-0.8,2.8-4.3,5.1-7.5,4.5c-0.4-0.1-1.1-1.1-1-1.7
		C405.1,195.3,408.2,193.2,411.7,193.3z"/>
	<path class="st1" d="M457.3,207.8c-1.7,0.3-2-0.5-1.6-1.9c0.7-2.7,4.4-5,7.4-4.4c0.5,0.1,1.1,1,1,1.5
		C463.8,205.6,461.1,207.6,457.3,207.8z"/>
	<path class="st1" d="M451.9,207.8c-3.6-0.1-6-1.8-6.8-4.5c-0.4-1.4,0-2,1.6-2c3.3,0.2,6.1,2,6.8,4.5
		C453.9,207.1,453.7,208.1,451.9,207.8z"/>
	<path class="st1" d="M406.2,207.8c-1.7,0.3-1.9-0.6-1.6-1.9c0.7-2.7,4.5-5.1,7.5-4.5c0.5,0.1,1.1,1.1,1,1.7
		C412.6,205.8,409.9,207.6,406.2,207.8z"/>
	<path class="st1" d="M447,193.3c3.3,0.2,6,2.1,6.6,4.6c0.3,1.2,0,1.9-1.6,1.8c-3.3-0.1-5.9-1.7-6.8-4.4
		C444.6,193.6,445,193.2,447,193.3z"/>
	<path class="st1" d="M451.8,216c-3.6-0.2-6.1-2-6.8-4.7c-0.4-1.3,0.1-1.9,1.6-1.8c3.4,0.1,6.3,2,6.9,4.6
		C453.8,215.3,453.6,216.2,451.8,216z"/>
	<path class="st1" d="M406.1,216c-1.4,0.1-1.7-0.6-1.5-1.7c0.5-2.9,4.6-5.5,7.7-4.7c0.4,0.1,0.9,1.1,0.8,1.6
		C412.6,213.9,409.7,215.9,406.1,216z"/>
	<path class="st1" d="M447,185.2c3.2,0.1,5.8,1.9,6.5,4.4c0.4,1.4,0.1,2.2-1.7,2.1c-3.2-0.2-5.7-1.8-6.6-4.4
		C444.6,185.5,444.9,185.1,447,185.2z"/>
	<path class="st1" d="M462.6,185.2c1.7-0.2,1.9,0.6,1.5,2.1c-0.9,2.7-4.2,4.7-7.2,4.3c-0.5-0.1-1.2-1.1-1.1-1.5
		C456,187.3,459,185.2,462.6,185.2z"/>
	<path class="st1" d="M401,191.6c-3.4-0.2-6-1.9-6.8-4.2c-0.6-1.8-0.2-2.3,1.8-2.2c3.2,0.2,5.7,1.9,6.5,4.5
		C403,191.2,402.4,191.8,401,191.6z"/>
	<path class="st1" d="M406.1,191.6c-1.4,0.2-1.8-0.5-1.5-1.8c0.6-2.8,4.5-5.3,7.6-4.6c0.4,0.1,1,1.1,0.9,1.6
		C412.6,189.5,409.6,191.6,406.1,191.6z"/>
</g>
<g>
	<path class="st1" d="M213,274.4c12.7,3.8,15.1,3.6,27,0c0,0.6,0.1,1.2,0.1,1.7c0,20.1,0,40.2,0,60.3c0,6.7-4.5,12.1-10.8,13
		c-7.6,1.1-13.8-2.3-15.8-8.9c-0.4-1.2-0.6-2.5-0.6-3.7c0-20.5,0-41,0-61.5C212.9,275.1,213,274.8,213,274.4z"/>
	<path class="st1" d="M299.7,271.6c-14-3.3-14-3.3-26.8,0c0-0.5-0.1-1-0.1-1.5c0-19.6,0-39.1,0-58.7c0-6.4,4.1-11.4,9.9-12.7
		c7.2-1.5,13.5,1.3,16.1,7.4c0.6,1.4,1,3.1,1,4.7c0.1,20,0,40.1,0,60.1C299.8,271.1,299.7,271.3,299.7,271.6z"/>
	<path class="st1" d="M154.1,264.7c0-6.1,0-11.9,0-17.7c0-11.9,0-23.8,0-35.8c0-6.7,4.7-11.9,11.5-12.8c7.2-0.9,13.4,2.8,15.2,9.3
		c0.3,1.2,0.5,2.5,0.5,3.8c0,17.1,0,34.2,0,51.3c0,0.5-0.1,1-0.1,1.8C172.2,260.8,163.3,260.8,154.1,264.7z"/>
	<path class="st2" d="M226.5,270.3c-11.9,0-21.7-9.8-21.7-21.7c0-12,9.8-21.7,21.7-21.7c11.9,0,21.7,9.8,21.7,21.7
		C248.3,260.5,238.5,270.3,226.5,270.3z"/>
	<path class="st2" d="M286,319.2c-12.3-0.4-21.8-10.2-21.5-22.2c0.3-12,10.3-21.6,22-21.3c12.2,0.4,22,10.4,21.5,22
		C307.5,310,297.7,319.6,286,319.2z"/>
	<path class="st2" d="M167.2,268.5c10.6-0.4,21.4,7.6,22.3,20.8c0.7,11-8.5,21.6-19.4,22.5c-12.9,1.2-22.9-8.3-23.9-19.5
		C144.9,279.6,154.8,268.8,167.2,268.5z"/>
	<path class="st1" d="M154.1,315.8c9.1,3.9,18,3.9,26.8,0.2c0.2,0.2,0.3,0.3,0.3,0.4c0,7.1,0.3,14.2,0,21.3
		c-0.4,7.7-6.3,12.3-14.9,11.9c-7-0.3-12.2-5.8-12.2-13.1C154.1,329.7,154.1,322.9,154.1,315.8z"/>
	<path class="st1" d="M272.7,323c9.1,3.8,18,3.9,26.9,0.1c0,5.6,0.4,10.9-0.1,16.2c-0.6,5.8-6,10-11.9,10.3
		c-7.7,0.3-13-3.2-14.6-9.8c-0.2-0.7-0.3-1.5-0.3-2.2C272.7,332.9,272.7,328.1,272.7,323z"/>
	<path class="st1" d="M240.1,223c-9.1-3.9-18-3.9-27.5,0.1c0.3-5.5-0.1-10.6,0.9-15.5c1.2-6.4,7.5-9.9,14.7-9.3
		c6.5,0.6,11.4,5.6,11.8,12.1C240.3,214.6,240.1,218.7,240.1,223z"/>
</g>
<g>
	<path class="st1" d="M532.8,185.2c-2.2-2.7-4.2-5.3-6.5-8.1c16.8,0,33.3,0,50.1,0c-5.8,14.8-11.6,29.4-17.5,44.5
		c-1.7-2.5-3.2-4.7-4.8-7.1c-6,2.9-11.4,6.6-16.3,11c-5.9,5.3-10.6,11.4-13.1,19c-3,9.2-2,18.2,1.9,26.9c5.3,11.9,13.5,21.5,24,29
		c2.7,1.9,5.8,3.2,8.5,4.6c-5.3,0.2-11,0.4-16.8,0.5c-7.8,0.2-15.6,0.3-23.4,0.6c-5.7,0.2-10.2-2.2-14.3-5.6
		c-7.7-6.3-11.7-14.8-13.8-24.2c-6.5-28.2,1.1-52.9,19.8-74.3C516.6,195.2,524.2,189.6,532.8,185.2z"/>
	<path class="st1" d="M607.3,328.8c1.9,2.6,3.7,5.2,5.7,8.1c-16.8,0-33.3,0-50.2,0c5.9-14.7,11.8-29.2,17.8-43.8
		c1.9,2.1,3.7,4.2,5.6,6.3c13.5-8.2,24.1-17.5,26.6-33.2c1.2-7.3,1.2-14.5-0.9-21.7c-1.2-4.1-3-7.8-6-10.9c-0.4-0.4-0.8-1.5-0.6-2
		c2.9-6.2,6.3-12.2,12-16.4c3.6-2.7,7.6-4.3,12.3-3.1c1,0.3,2.1,0.8,3,1.4c8,5.6,12.8,13.5,15.1,22.7c4.7,19.2,3.7,37.9-4.6,56.1
		c-4.6,10.2-12.2,18-20.7,24.9C617.5,321.1,612.5,324.8,607.3,328.8z"/>
	<path class="st2" d="M617.7,208.7c-8.5,3.2-12.7,10.2-15.8,17.9c-7.2,18-14.2,36-21.5,54c-2.3,5.7-5.5,11.1-8.3,16.6
		c-0.7,1.4-1.8,2.6-2.9,3.7c-1.6,1.7-3.3,2.2-5.8,1.3c-9.7-3.7-17.3-10-23.3-18.3c-0.4-0.6-0.6-1.8-0.3-2.5
		c8-16.5,13.9-33.8,19.4-51.2c2-6.2,4.9-11.9,9.6-16.5c3.1-3.1,6.9-4.9,11.3-4.9C592.6,208.7,605.2,208.7,617.7,208.7z"/>
</g>
<g>
	<path class="st1" d="M90.2,124.7c0,4.5,0,8.9,0,13.4c7.7,0,15.5,0,23.3,0c0,1.7,0,3.3,0,5c-19,0-37.9,0-57.1,0c0-1.6,0-3.2,0-4.9
		c7.7,0,15.4,0,23.3,0c0-4.5,0-8.9,0-13.5c-0.7,0-1.4,0-2.1,0c-23.4,0-46.7,0-70.1,0c-0.7,0-1.5,0.2-2-0.1c-0.6-0.4-1.1-1.1-1.5-1.8
		c-0.2-0.3,0-0.7,0-1.1c0-30.6,0-61.2,0-91.8c0-2.7,0.3-3,3-3c52,0,103.9,0,155.9,0c2.7,0,3,0.4,3,3c0,30.5,0,61.1,0,91.6
		c0,2.9-0.3,3.2-3.2,3.2c-23.4,0-46.8,0-70.3,0C91.8,124.7,91.1,124.7,90.2,124.7z M9.3,32.1c0,28.1,0,56,0,84.1
		c50.5,0,101,0,151.5,0c0-28.1,0-56,0-84.1C110.2,32.1,59.8,32.1,9.3,32.1z"/>
	<path class="st2" d="M9.3,32.1c50.5,0,101,0,151.5,0c0,28.1,0,56,0,84.1c-50.5,0-101,0-151.5,0C9.3,88.1,9.3,60.1,9.3,32.1z"/>
</g>
</svg>
