<?xml version="1.0" encoding="utf-8"?>
<!-- Generator: Adobe Illustrator 19.1.0, SVG Export Plug-In . SVG Version: 6.00 Build 0)  -->
<svg version="1.1" id="Layer_1" xmlns="http://www.w3.org/2000/svg" xmlns:xlink="http://www.w3.org/1999/xlink" x="0px" y="0px"
	 viewBox="-5 0 388 800" style="enable-background:new -5 0 388 800;" xml:space="preserve">
<style type="text/css">
	.st0{fill:none;stroke:#FFFFFF;stroke-width:2;stroke-miterlimit:10;}
	.st1{fill:none;}
	.st2{enable-background:new    ;}
	.st3{fill:#FFFFFF;}
</style>
<path class="st0" d="M293.6,247c0,6.5-5.2,11.7-11.7,11.7h-75.7c-6.5,0-11.7-5.2-11.7-11.7v-74.9c0-6.5,5.2-11.7,11.7-11.7h75.7
	c6.5,0,11.7,5.2,11.7,11.7V247z"/>
<g>
	<g>
		<rect x="198.9" y="228.8" class="st1" width="90.3" height="32"/>
	</g>
	<g class="st2">
		<path class="st3" d="M209,238.8v-4.3l-4-5.7h1l3.4,4.9l3.4-4.9h1l-4,5.7v4.3H209z"/>
		<path class="st3" d="M212.9,235.2c0-2.1,1.3-3.8,3.5-3.8c2.1,0,3.5,1.7,3.5,3.8s-1.3,3.8-3.5,3.8
			C214.3,239,212.9,237.3,212.9,235.2z M219,235.2c0-1.6-0.9-3.1-2.7-3.1c-1.7,0-2.6,1.5-2.6,3.1c0,1.6,1,3.1,2.6,3.1
			C218.1,238.3,219,236.8,219,235.2z"/>
		<path class="st3" d="M226.8,238.8v-1.1c-0.6,0.7-1.6,1.2-2.6,1.2c-1.5,0-2.3-0.7-2.3-2.3v-5.1h0.8v4.9c0,1.4,0.7,1.8,1.8,1.8
			c0.9,0,1.9-0.6,2.4-1.2v-5.5h0.8v7.2H226.8z"/>
		<path class="st3" d="M230,238.8v-7.2h0.8v1.2c0.6-0.8,1.4-1.4,2.4-1.4v0.9c-0.1,0-0.2,0-0.4,0c-0.7,0-1.7,0.7-2.1,1.3v5.3H230z"/>
		<path class="st3" d="M247.2,238.8v-5.1c0-1-0.4-1.7-1.5-1.7c-0.8,0-1.7,0.6-2.1,1.2v5.5h-0.8v-5.1c0-1-0.4-1.7-1.4-1.7
			c-0.8,0-1.7,0.6-2.1,1.2v5.5h-0.8v-7.2h0.8v1.1c0.3-0.5,1.3-1.3,2.3-1.3c1.1,0,1.7,0.7,1.9,1.4c0.4-0.7,1.4-1.4,2.4-1.4
			c1.3,0,2,0.8,2,2.2v5.2H247.2z"/>
		<path class="st3" d="M250,235.2c0-2.1,1.3-3.8,3.5-3.8c2.1,0,3.5,1.7,3.5,3.8s-1.3,3.8-3.5,3.8C251.4,239,250,237.3,250,235.2z
			 M256.2,235.2c0-1.6-0.9-3.1-2.7-3.1c-1.7,0-2.6,1.5-2.6,3.1c0,1.6,1,3.1,2.6,3.1C255.2,238.3,256.2,236.8,256.2,235.2z"/>
		<path class="st3" d="M259,238.8v-10h0.8v3.9c0.6-0.8,1.5-1.3,2.5-1.3c1.9,0,3.2,1.5,3.2,3.8c0,2.3-1.3,3.8-3.2,3.8
			c-1.1,0-2-0.6-2.5-1.3v1.2H259z M262.2,238.3c1.6,0,2.5-1.3,2.5-3.1s-0.9-3.1-2.5-3.1c-1,0-2,0.6-2.4,1.3v3.6
			C260.2,237.7,261.2,238.3,262.2,238.3z"/>
		<path class="st3" d="M267.4,229.8c0-0.3,0.3-0.6,0.6-0.6c0.3,0,0.6,0.3,0.6,0.6s-0.3,0.6-0.6,0.6
			C267.7,230.4,267.4,230.1,267.4,229.8z M267.6,238.8v-7.2h0.8v7.2H267.6z"/>
		<path class="st3" d="M270.8,238.8v-10h0.8v10H270.8z"/>
		<path class="st3" d="M273.6,235.2c0-2.1,1.5-3.8,3.5-3.8c2.2,0,3.4,1.7,3.4,3.8v0.2h-6.1c0.1,1.6,1.1,2.9,2.8,2.9
			c0.9,0,1.8-0.3,2.4-1l0.4,0.5c-0.7,0.8-1.6,1.2-2.8,1.2C275.1,239,273.6,237.4,273.6,235.2z M277.1,232.1c-1.7,0-2.6,1.5-2.6,2.8
			h5.3C279.7,233.6,278.9,232.1,277.1,232.1z"/>
	</g>
	<g class="st2">
		<path class="st3" d="M226.1,252.5l-2-6.2l-2,6.2h-0.8l-2.4-7.2h0.8l1.9,6.2l2-6.2h0.7l2,6.2l1.9-6.2h0.8l-2.4,7.2H226.1z"/>
		<path class="st3" d="M230.3,248.9c0-2.1,1.5-3.8,3.5-3.8c2.2,0,3.4,1.7,3.4,3.8v0.2h-6.1c0.1,1.6,1.1,2.9,2.8,2.9
			c0.9,0,1.8-0.3,2.4-1l0.4,0.5c-0.7,0.8-1.6,1.2-2.8,1.2C231.8,252.7,230.3,251.1,230.3,248.9z M233.7,245.8
			c-1.7,0-2.6,1.5-2.6,2.8h5.3C236.3,247.3,235.5,245.8,233.7,245.8z"/>
		<path class="st3" d="M239.2,252.5v-10h0.8v3.9c0.6-0.8,1.5-1.3,2.5-1.3c1.9,0,3.2,1.5,3.2,3.8c0,2.3-1.3,3.8-3.2,3.8
			c-1.1,0-2-0.6-2.5-1.3v1.2H239.2z M242.3,252c1.6,0,2.5-1.3,2.5-3.1s-0.9-3.1-2.5-3.1c-1,0-2,0.6-2.4,1.3v3.6
			C240.4,251.4,241.3,252,242.3,252z"/>
		<path class="st3" d="M247.1,251.5l0.5-0.6c0.5,0.6,1.3,1.1,2.3,1.1c1.2,0,1.9-0.6,1.9-1.5c0-2-4.6-0.9-4.6-3.5c0-1.1,0.9-2,2.6-2
			c1.2,0,2.1,0.5,2.6,1.1l-0.4,0.6c-0.4-0.6-1.2-1-2.2-1c-1.1,0-1.8,0.6-1.8,1.3c0,1.8,4.6,0.7,4.6,3.5c0,1.2-0.9,2.1-2.7,2.1
			C248.7,252.7,247.8,252.3,247.1,251.5z"/>
		<path class="st3" d="M254.4,243.5c0-0.3,0.3-0.6,0.6-0.6c0.3,0,0.6,0.3,0.6,0.6s-0.3,0.6-0.6,0.6
			C254.7,244.1,254.4,243.8,254.4,243.5z M254.6,252.5v-7.2h0.8v7.2H254.6z"/>
		<path class="st3" d="M258,251.1v-5.2h-1.2v-0.7h1.2v-2h0.8v2h1.5v0.7h-1.5v5c0,0.6,0.2,1,0.8,1c0.3,0,0.6-0.2,0.8-0.3l0.3,0.6
			c-0.3,0.3-0.6,0.4-1.2,0.4C258.4,252.7,258,252.1,258,251.1z"/>
		<path class="st3" d="M261.5,248.9c0-2.1,1.5-3.8,3.5-3.8c2.2,0,3.4,1.7,3.4,3.8v0.2h-6.1c0.1,1.6,1.1,2.9,2.8,2.9
			c0.9,0,1.8-0.3,2.4-1l0.4,0.5c-0.7,0.8-1.6,1.2-2.8,1.2C263,252.7,261.5,251.1,261.5,248.9z M265,245.8c-1.7,0-2.6,1.5-2.6,2.8
			h5.3C267.6,247.3,266.8,245.8,265,245.8z"/>
	</g>
</g>
<g>
	<path class="st3" d="M263.2,176h-38.3c-3.6,0-6.5,2.9-6.5,6.5v25.6c0,3.6,2.9,6.5,6.5,6.5h20.4v-5.2h-18.2v-28.3h36.1
		c0.7,0,1.3,0.6,1.3,1.3v0.5h2c1.2,0,2.3,0.3,3.2,0.9v-1.3C269.7,178.9,266.8,176,263.2,176L263.2,176z M222.8,192.9
		c1.4,0,2.5,1.1,2.5,2.5s-1.1,2.5-2.5,2.5c-1.3,0-2.5-1.1-2.5-2.5C220.4,194,221.5,192.9,222.8,192.9L222.8,192.9z"/>
	<path class="st3" d="M231.4,198.2c-0.5,0-0.9,0.4-0.9,0.9v6.9c0,0.5,0.4,0.9,0.9,0.9h11.3c0.5,0,0.9-0.4,0.9-0.9v-7
		c0-0.5-0.4-0.9-0.9-0.9L231.4,198.2L231.4,198.2z"/>
	<path class="st3" d="M231.2,195.1c0,0.5,0.4,0.9,0.9,0.9h13.3v-1.7h-13.3C231.6,194.3,231.2,194.7,231.2,195.1L231.2,195.1z"/>
	<path class="st3" d="M231.2,191.7c0,0.5,0.4,0.9,0.9,0.9h13.3v-1.7h-13.3C231.6,190.8,231.2,191.2,231.2,191.7L231.2,191.7z"/>
	<path class="st3" d="M231.2,188.2c0,0.5,0.4,0.9,0.9,0.9h13.4c0.1-0.6,0.2-1.2,0.4-1.7h-13.8C231.6,187.3,231.2,187.7,231.2,188.2
		L231.2,188.2z"/>
	<path class="st3" d="M231.2,184.8c0,0.5,0.4,0.9,0.9,0.9h14.7c0.5-0.7,1.2-1.3,2-1.7h-16.7C231.6,183.9,231.2,184.3,231.2,184.8
		L231.2,184.8z"/>
	<path class="st3" d="M266.5,186.4H252c-1.8,0-3.2,1.5-3.2,3.2V217c0,1.8,1.4,3.2,3.2,3.2h14.5c1.8,0,3.2-1.5,3.2-3.2v-27.4
		C269.7,187.9,268.3,186.4,266.5,186.4L266.5,186.4z M252.3,189.9h14v24.2h-14V189.9z M257.7,217c0-0.9,0.7-1.6,1.6-1.6
		s1.6,0.7,1.6,1.6c0,0.9-0.7,1.6-1.6,1.6C258.4,218.6,257.7,217.9,257.7,217L257.7,217z"/>
	<path class="st3" d="M255.5,196.5h7.7c0.5,0,0.9-0.4,0.9-0.9v-1.8c0-0.5-0.4-0.9-0.9-0.9h-7.7c-0.5,0-0.9,0.4-0.9,0.9v1.8
		C254.6,196.1,255,196.5,255.5,196.5L255.5,196.5z"/>
	<path class="st3" d="M264.1,198.2h-9.5c-0.5,0-0.9,0.4-0.9,0.9s0.4,0.9,0.9,0.9h9.5c0.5,0,0.9-0.4,0.9-0.9
		C265,198.5,264.6,198.2,264.1,198.2L264.1,198.2z"/>
	<path class="st3" d="M264.1,201.6h-9.5c-0.5,0-0.9,0.4-0.9,0.9s0.4,0.9,0.9,0.9h9.5c0.5,0,0.9-0.4,0.9-0.9S264.6,201.6,264.1,201.6
		L264.1,201.6z"/>
	<path class="st3" d="M264.1,205.1h-9.5c-0.5,0-0.9,0.4-0.9,0.9s0.4,0.9,0.9,0.9h9.5c0.5,0,0.9-0.4,0.9-0.9S264.6,205.1,264.1,205.1
		L264.1,205.1z"/>
	<path class="st3" d="M264.1,208.5h-9.5c-0.5,0-0.9,0.4-0.9,0.9s0.4,0.9,0.9,0.9h9.5c0.5,0,0.9-0.4,0.9-0.9S264.6,208.5,264.1,208.5
		L264.1,208.5z"/>
</g>
<g>
	<g>
		<rect x="25.6" y="30.9" class="st1" width="324.7" height="20.2"/>
	</g>
	<g class="st2">
		<path class="st3" d="M119.8,37.3c0-3.7,2.4-6.6,6.2-6.6c3.7,0,6.2,2.8,6.2,6.6s-2.5,6.6-6.2,6.6C122.2,43.8,119.8,41,119.8,37.3z
			 M130.9,37.3c0-3.2-2-5.6-5-5.6c-3.1,0-5,2.4-5,5.6c0,3.2,2,5.6,5,5.6C129,42.8,130.9,40.5,130.9,37.3z"/>
		<path class="st3" d="M142.6,43.6l-2.6-7.8l-2.6,7.8h-0.9l-3-9.2h1.1l2.4,7.8l2.6-7.8h0.9l2.6,7.8l2.4-7.8h1.1l-3,9.2H142.6z"/>
		<path class="st3" d="M154.6,43.6v-6.2c0-1.8-0.9-2.3-2.2-2.3c-1.2,0-2.4,0.7-3,1.6v6.9h-1v-9.2h1v1.4c0.7-0.8,2-1.6,3.3-1.6
			c1.9,0,2.9,0.9,2.9,3v6.4H154.6z"/>
		<path class="st3" d="M158.1,39c0-2.7,1.9-4.8,4.4-4.8c2.8,0,4.3,2.2,4.3,4.9v0.3h-7.7c0.1,2,1.4,3.6,3.6,3.6c1.2,0,2.2-0.4,3-1.3
			l0.5,0.6c-0.9,1-2.1,1.5-3.6,1.5C160,43.8,158.1,41.8,158.1,39z M162.5,35c-2.2,0-3.2,1.9-3.3,3.5h6.7C165.8,37,164.8,35,162.5,35
			z"/>
		<path class="st3" d="M176.2,43.6v-1.5c-0.6,1-1.8,1.7-3.2,1.7c-2.4,0-4.1-1.9-4.1-4.8c0-2.9,1.7-4.8,4.1-4.8
			c1.3,0,2.5,0.7,3.2,1.7v-5h1v12.7H176.2z M176.2,41.3v-4.5c-0.5-0.9-1.7-1.7-3-1.7c-2,0-3.2,1.7-3.2,3.9s1.2,3.9,3.2,3.9
			C174.5,42.9,175.6,42.2,176.2,41.3z"/>
		<path class="st3" d="M184.7,39c0-2.7,1.7-4.8,4.4-4.8c1.6,0,2.5,0.6,3.2,1.6l-0.7,0.6c-0.7-0.9-1.5-1.3-2.5-1.3
			c-2.1,0-3.5,1.7-3.5,3.9c0,2.2,1.3,3.9,3.5,3.9c1,0,1.8-0.4,2.5-1.3l0.7,0.6c-0.7,0.9-1.7,1.6-3.2,1.6
			C186.4,43.8,184.7,41.7,184.7,39z"/>
		<path class="st3" d="M200.8,43.6v-6.3c0-1.8-0.9-2.3-2.2-2.3c-1.2,0-2.4,0.7-3,1.6v6.9h-1V30.9h1v4.9c0.7-0.8,2-1.6,3.3-1.6
			c1.9,0,2.9,0.9,2.9,2.9v6.5H200.8z"/>
		<path class="st3" d="M210.7,43.6v-1.1c-0.8,0.9-1.8,1.3-3.1,1.3c-1.6,0-3.2-1.1-3.2-3.1c0-2,1.6-3,3.2-3c1.3,0,2.3,0.4,3.1,1.3
			v-1.9c0-1.4-1.1-2.1-2.5-2.1c-1.2,0-2.1,0.4-2.9,1.3l-0.6-0.7c0.9-1,2-1.5,3.5-1.5c1.9,0,3.3,0.9,3.3,2.9v6.5H210.7z M210.7,41.8
			v-2c-0.6-0.9-1.7-1.3-2.8-1.3c-1.5,0-2.5,1-2.5,2.3c0,1.3,1,2.3,2.5,2.3C209,43,210,42.6,210.7,41.8z"/>
		<path class="st3" d="M220.9,43.6v-6.2c0-1.8-0.9-2.3-2.2-2.3c-1.2,0-2.4,0.7-3,1.6v6.9h-1v-9.2h1v1.4c0.7-0.8,2-1.6,3.3-1.6
			c1.9,0,2.9,0.9,2.9,3v6.4H220.9z"/>
		<path class="st3" d="M231.2,43.6v-6.2c0-1.8-0.9-2.3-2.2-2.3c-1.2,0-2.4,0.7-3,1.6v6.9h-1v-9.2h1v1.4c0.7-0.8,2-1.6,3.3-1.6
			c1.9,0,2.9,0.9,2.9,3v6.4H231.2z"/>
		<path class="st3" d="M234.7,39c0-2.7,1.9-4.8,4.4-4.8c2.8,0,4.3,2.2,4.3,4.9v0.3h-7.7c0.1,2,1.4,3.6,3.6,3.6c1.2,0,2.2-0.4,3-1.3
			l0.5,0.6c-0.9,1-2.1,1.5-3.6,1.5C236.6,43.8,234.7,41.8,234.7,39z M239.1,35c-2.2,0-3.2,1.9-3.3,3.5h6.7
			C242.5,37,241.4,35,239.1,35z"/>
		<path class="st3" d="M246,43.6V30.9h1v12.7H246z"/>
		<path class="st3" d="M249.3,42.4l0.6-0.7c0.6,0.7,1.7,1.3,3,1.3c1.5,0,2.5-0.8,2.5-1.9c0-2.5-5.8-1.1-5.8-4.4
			c0-1.4,1.2-2.5,3.3-2.5c1.6,0,2.6,0.6,3.3,1.3l-0.6,0.7c-0.5-0.7-1.5-1.2-2.7-1.2c-1.4,0-2.3,0.7-2.3,1.7c0,2.3,5.8,0.9,5.8,4.4
			c0,1.5-1.1,2.7-3.4,2.7C251.3,43.8,250.2,43.4,249.3,42.4z"/>
	</g>
</g>
<path class="st0" d="M181.7,136.5c0,6.5-5.2,11.7-11.7,11.7H94.2c-6.5,0-11.7-5.2-11.7-11.7V61.6c0-6.5,5.2-11.7,11.7-11.7H170
	c6.5,0,11.7,5.2,11.7,11.7V136.5z"/>
<path class="st0" d="M293.6,136.5c0,6.5-5.2,11.7-11.7,11.7h-75.7c-6.5,0-11.7-5.2-11.7-11.7V61.6c0-6.5,5.2-11.7,11.7-11.7h75.7
	c6.5,0,11.7,5.2,11.7,11.7V136.5z"/>
<g>
	<g>
		<rect x="93.4" y="126.5" class="st1" width="77.3" height="24.5"/>
	</g>
	<g class="st2">
		<path class="st3" d="M118.2,135.1l0.6-0.6c0.6,0.7,1.7,1.5,3.1,1.5c2,0,2.6-1.1,2.6-2c0-2.9-6-1.4-6-4.9c0-1.6,1.5-2.7,3.3-2.7
			c1.5,0,2.6,0.5,3.4,1.4l-0.6,0.6c-0.7-0.9-1.7-1.3-2.9-1.3c-1.3,0-2.3,0.8-2.3,1.8c0,2.6,6,1.2,6,4.9c0,1.3-0.9,2.8-3.6,2.8
			C120.2,136.7,118.9,136,118.2,135.1z"/>
		<path class="st3" d="M135.9,136.5v-8.9l-3.6,8.9H132l-3.7-8.9v8.9h-0.9v-10h1.3l3.4,8.3l3.4-8.3h1.3v10H135.9z"/>
		<path class="st3" d="M138.7,135.1l0.6-0.6c0.6,0.7,1.7,1.5,3.1,1.5c2,0,2.6-1.1,2.6-2c0-2.9-6-1.4-6-4.9c0-1.6,1.5-2.7,3.3-2.7
			c1.5,0,2.6,0.5,3.4,1.4l-0.6,0.6c-0.7-0.9-1.7-1.3-2.9-1.3c-1.3,0-2.3,0.8-2.3,1.8c0,2.6,6,1.2,6,4.9c0,1.3-0.9,2.8-3.6,2.8
			C140.7,136.7,139.5,136,138.7,135.1z"/>
	</g>
</g>
<g>
	<g>
		<rect x="205.4" y="126.5" class="st1" width="77.3" height="24.5"/>
	</g>
	<g class="st2">
		<path class="st3" d="M228,136.5v-10h6.3v0.8h-5.5v3.7h5.4v0.8h-5.4v4h5.5v0.8H228z"/>
		<path class="st3" d="M245.1,136.5v-5.1c0-1-0.4-1.7-1.5-1.7c-0.8,0-1.7,0.6-2.1,1.2v5.5h-0.8v-5.1c0-1-0.4-1.7-1.4-1.7
			c-0.8,0-1.7,0.6-2.1,1.2v5.5h-0.8v-7.2h0.8v1.1c0.3-0.5,1.3-1.3,2.3-1.3c1.1,0,1.7,0.7,1.9,1.4c0.4-0.7,1.4-1.4,2.4-1.4
			c1.3,0,2,0.8,2,2.2v5.2H245.1z"/>
		<path class="st3" d="M252.9,136.5v-0.9c-0.6,0.7-1.5,1-2.5,1c-1.2,0-2.5-0.9-2.5-2.4c0-1.6,1.3-2.4,2.5-2.4c1,0,1.8,0.3,2.5,1
			v-1.5c0-1.1-0.9-1.7-1.9-1.7c-0.9,0-1.6,0.3-2.3,1.1l-0.4-0.5c0.8-0.8,1.6-1.2,2.8-1.2c1.5,0,2.6,0.7,2.6,2.3v5.1H252.9z
			 M252.9,135.1v-1.6c-0.5-0.7-1.3-1-2.2-1c-1.2,0-2,0.8-2,1.8c0,1,0.8,1.8,2,1.8C251.6,136.1,252.4,135.8,252.9,135.1z"/>
		<path class="st3" d="M255.9,127.6c0-0.3,0.3-0.6,0.6-0.6c0.3,0,0.6,0.3,0.6,0.6s-0.3,0.6-0.6,0.6
			C256.2,128.2,255.9,127.9,255.9,127.6z M256.1,136.5v-7.2h0.8v7.2H256.1z"/>
		<path class="st3" d="M259.3,136.5v-10h0.8v10H259.3z"/>
	</g>
</g>
<g>
	<path class="st3" d="M154.6,83.7h-1.4v15.8c0,2.5-1.4,4.7-4.3,4.7h-28.2v0.8c0,2.2,2.5,4.4,5,4.4h21.6l8.2,4.8l-1.2-4.8h0.3
		c2.5,0,3.7-2.2,3.7-4.4V87.5C158.4,85.3,157.3,83.7,154.6,83.7L154.6,83.7z"/>
	<path class="st3" d="M144.8,72.7H112c-2.9,0-6.2,2.6-6.2,5v19.8c0,2.3,2.8,3.9,5.5,4.2l-1.8,6.7l11.2-6.6h24c2.9,0,5.5-1.8,5.5-4.2
		V77.7C150.3,75.3,147.5,72.7,144.8,72.7L144.8,72.7z M116.9,89.4c-1.6,0-3-1.3-3-3c0-1.6,1.3-3,3-3c1.6,0,3,1.3,3,3
		S118.6,89.4,116.9,89.4L116.9,89.4z M128,89.4c-1.6,0-3-1.3-3-3c0-1.6,1.3-3,3-3c1.6,0,3,1.3,3,3C130.9,88.1,129.6,89.4,128,89.4
		L128,89.4z M139,89.4c-1.6,0-3-1.3-3-3c0-1.6,1.3-3,3-3c1.6,0,3,1.3,3,3S140.6,89.4,139,89.4L139,89.4z"/>
</g>
<g>
	<g>
		<rect x="71.2" y="290.5" class="st1" width="233.6" height="49"/>
	</g>
	<g class="st2">
		<path class="st3" d="M89.9,303.2v-12.7h4.7c2.4,0,3.8,1.7,3.8,3.7c0,2-1.4,3.7-3.8,3.7h-3.7v5.3H89.9z M97.3,294.3
			c0-1.6-1.1-2.7-2.8-2.7h-3.6v5.4h3.6C96.2,297,97.3,295.8,97.3,294.3z"/>
		<path class="st3" d="M100.7,303.2V294h1v1.6c0.8-1,1.8-1.8,3.1-1.8v1.1c-0.2,0-0.3,0-0.5,0c-0.9,0-2.2,0.8-2.6,1.6v6.7H100.7z"/>
		<path class="st3" d="M106.2,298.6c0-2.7,1.7-4.8,4.4-4.8c2.7,0,4.4,2.1,4.4,4.8s-1.7,4.8-4.4,4.8
			C107.9,303.4,106.2,301.3,106.2,298.6z M113.9,298.6c0-2-1.2-3.9-3.4-3.9c-2.1,0-3.3,1.9-3.3,3.9c0,2.1,1.2,3.9,3.3,3.9
			C112.7,302.6,113.9,300.7,113.9,298.6z"/>
		<path class="st3" d="M117.6,305.6l0.6-0.8c0.8,0.9,1.7,1.3,3.1,1.3c1.7,0,3.1-0.8,3.1-2.9v-1.5c-0.6,1-1.8,1.7-3.2,1.7
			c-2.4,0-4.1-1.8-4.1-4.8c0-2.9,1.7-4.8,4.1-4.8c1.3,0,2.5,0.7,3.2,1.7V294h1v9.1c0,2.8-1.9,3.8-4.1,3.8
			C119.6,306.9,118.6,306.7,117.6,305.6z M124.3,300.8v-4.5c-0.5-0.9-1.7-1.7-3-1.7c-2,0-3.2,1.7-3.2,3.9s1.2,3.9,3.2,3.9
			C122.6,302.5,123.8,301.7,124.3,300.8z"/>
		<path class="st3" d="M128.4,303.2V294h1v1.6c0.8-1,1.8-1.8,3.1-1.8v1.1c-0.2,0-0.3,0-0.5,0c-0.9,0-2.2,0.8-2.6,1.6v6.7H128.4z"/>
		<path class="st3" d="M140.2,303.2v-1.1c-0.8,0.9-1.8,1.3-3.1,1.3c-1.6,0-3.2-1.1-3.2-3.1c0-2,1.6-3,3.2-3c1.3,0,2.3,0.4,3.1,1.3
			v-1.9c0-1.4-1.1-2.1-2.5-2.1c-1.2,0-2.1,0.4-2.9,1.3l-0.6-0.7c0.9-1,2-1.5,3.5-1.5c1.9,0,3.3,0.9,3.3,2.9v6.5H140.2z M140.2,301.4
			v-2c-0.6-0.9-1.7-1.3-2.8-1.3c-1.5,0-2.5,1-2.5,2.3c0,1.3,1,2.3,2.5,2.3C138.6,302.7,139.6,302.2,140.2,301.4z"/>
		<path class="st3" d="M155.2,303.2v-6.4c0-1.3-0.6-2.1-1.8-2.1c-1,0-2.1,0.7-2.6,1.6v7h-1v-6.4c0-1.3-0.5-2.1-1.8-2.1
			c-1,0-2.1,0.7-2.6,1.6v6.9h-1V294h1v1.4c0.4-0.6,1.6-1.6,3-1.6c1.4,0,2.2,0.8,2.4,1.7c0.5-0.9,1.7-1.7,3-1.7
			c1.7,0,2.5,0.9,2.5,2.8v6.6H155.2z"/>
		<path class="st3" d="M170.2,303.2v-6.4c0-1.3-0.6-2.1-1.8-2.1c-1,0-2.1,0.7-2.6,1.6v7h-1v-6.4c0-1.3-0.5-2.1-1.8-2.1
			c-1,0-2.1,0.7-2.6,1.6v6.9h-1V294h1v1.4c0.4-0.6,1.6-1.6,3-1.6c1.4,0,2.2,0.8,2.4,1.7c0.5-0.9,1.7-1.7,3-1.7
			c1.7,0,2.5,0.9,2.5,2.8v6.6H170.2z"/>
		<path class="st3" d="M180.1,303.2v-1.1c-0.8,0.9-1.8,1.3-3.1,1.3c-1.6,0-3.2-1.1-3.2-3.1c0-2,1.6-3,3.2-3c1.3,0,2.3,0.4,3.1,1.3
			v-1.9c0-1.4-1.1-2.1-2.5-2.1c-1.2,0-2.1,0.4-2.9,1.3l-0.6-0.7c0.9-1,2-1.5,3.5-1.5c1.9,0,3.3,0.9,3.3,2.9v6.5H180.1z M180.1,301.4
			v-2c-0.6-0.9-1.7-1.3-2.8-1.3c-1.5,0-2.5,1-2.5,2.3c0,1.3,1,2.3,2.5,2.3C178.4,302.7,179.5,302.2,180.1,301.4z"/>
		<path class="st3" d="M184.4,301.5v-6.5h-1.5V294h1.5v-2.5h1v2.5h1.9v0.9h-1.9v6.4c0,0.7,0.3,1.3,1,1.3c0.4,0,0.8-0.2,1-0.4
			l0.4,0.8c-0.4,0.3-0.8,0.6-1.6,0.6C184.9,303.4,184.4,302.7,184.4,301.5z"/>
		<path class="st3" d="M189.1,291.8c0-0.4,0.4-0.7,0.8-0.7c0.4,0,0.8,0.3,0.8,0.7s-0.3,0.8-0.8,0.8
			C189.5,292.6,189.1,292.3,189.1,291.8z M189.4,303.2V294h1v9.2H189.4z"/>
		<path class="st3" d="M192.9,298.6c0-2.7,1.7-4.8,4.4-4.8c1.6,0,2.5,0.6,3.2,1.6L200,296c-0.7-0.9-1.5-1.3-2.5-1.3
			c-2.1,0-3.5,1.7-3.5,3.9c0,2.2,1.3,3.9,3.5,3.9c1,0,1.8-0.4,2.5-1.3l0.7,0.6c-0.7,0.9-1.7,1.6-3.2,1.6
			C194.7,303.4,192.9,301.3,192.9,298.6z"/>
		<path class="st3" d="M207.8,303.2v-12.7h1v5c0.7-1,1.9-1.7,3.2-1.7c2.5,0,4.1,1.9,4.1,4.8c0,2.9-1.7,4.8-4.1,4.8
			c-1.4,0-2.5-0.7-3.2-1.7v1.5H207.8z M211.8,302.6c2.1,0,3.2-1.7,3.2-3.9s-1.2-3.9-3.2-3.9c-1.3,0-2.5,0.8-3,1.7v4.5
			C209.3,301.8,210.5,302.6,211.8,302.6z"/>
		<path class="st3" d="M224.8,303.2v-1.3c-0.7,0.8-2,1.6-3.3,1.6c-1.9,0-2.9-0.9-2.9-2.9V294h1v6.2c0,1.8,0.9,2.3,2.2,2.3
			c1.2,0,2.4-0.7,3-1.5v-7h1v9.2H224.8z"/>
		<path class="st3" d="M228.4,305.9c0.2,0.1,0.6,0.2,0.8,0.2c0.6,0,1-0.2,1.4-1.1l0.7-1.6l-3.9-9.3h1.1l3.3,8l3.3-8h1.1l-4.7,11.2
			c-0.5,1.2-1.3,1.7-2.3,1.7c-0.3,0-0.7-0.1-1-0.1L228.4,305.9z"/>
		<path class="st3" d="M237.7,291.8c0-0.4,0.4-0.7,0.8-0.7c0.4,0,0.8,0.3,0.8,0.7s-0.3,0.8-0.8,0.8
			C238.1,292.6,237.7,292.3,237.7,291.8z M238,303.2V294h1v9.2H238z"/>
		<path class="st3" d="M248.3,303.2V297c0-1.8-0.9-2.3-2.2-2.3c-1.2,0-2.4,0.7-3,1.6v6.9h-1V294h1v1.4c0.7-0.8,2-1.6,3.3-1.6
			c1.9,0,2.9,0.9,2.9,3v6.4H248.3z"/>
		<path class="st3" d="M252.4,305.6l0.6-0.8c0.8,0.9,1.7,1.3,3.1,1.3c1.7,0,3.1-0.8,3.1-2.9v-1.5c-0.6,1-1.8,1.7-3.2,1.7
			c-2.4,0-4.1-1.8-4.1-4.8c0-2.9,1.7-4.8,4.1-4.8c1.3,0,2.5,0.7,3.2,1.7V294h1v9.1c0,2.8-1.9,3.8-4.1,3.8
			C254.4,306.9,253.4,306.7,252.4,305.6z M259.1,300.8v-4.5c-0.5-0.9-1.7-1.7-3-1.7c-2,0-3.2,1.7-3.2,3.9s1.2,3.9,3.2,3.9
			C257.4,302.5,258.6,301.7,259.1,300.8z"/>
		<path class="st3" d="M267.6,298.6c0-2.7,1.7-4.8,4.4-4.8c2.7,0,4.4,2.1,4.4,4.8s-1.7,4.8-4.4,4.8
			C269.3,303.4,267.6,301.3,267.6,298.6z M275.3,298.6c0-2-1.2-3.9-3.4-3.9c-2.1,0-3.3,1.9-3.3,3.9c0,2.1,1.2,3.9,3.3,3.9
			C274.1,302.6,275.3,300.7,275.3,298.6z"/>
		<path class="st3" d="M285.1,303.2V297c0-1.8-0.9-2.3-2.2-2.3c-1.2,0-2.4,0.7-3,1.6v6.9h-1V294h1v1.4c0.7-0.8,2-1.6,3.3-1.6
			c1.9,0,2.9,0.9,2.9,3v6.4H285.1z"/>
	</g>
	<g class="st2">
		<path class="st3" d="M104.9,319.6v5h-1v-12.7h1v1.4c0.6-0.9,1.8-1.7,3.2-1.7c2.5,0,4.1,1.9,4.1,4.8c0,2.9-1.7,4.8-4.1,4.8
			C106.8,321.3,105.6,320.7,104.9,319.6z M111.1,316.5c0-2.2-1.2-3.9-3.2-3.9c-1.3,0-2.5,0.8-3,1.6v4.5c0.5,0.9,1.7,1.7,3,1.7
			C110,320.5,111.1,318.7,111.1,316.5z"/>
		<path class="st3" d="M120.5,321.1V320c-0.8,0.9-1.8,1.3-3.1,1.3c-1.6,0-3.2-1.1-3.2-3.1c0-2,1.6-3,3.2-3c1.3,0,2.3,0.4,3.1,1.3
			v-1.9c0-1.4-1.1-2.1-2.5-2.1c-1.2,0-2.1,0.4-2.9,1.3l-0.6-0.7c0.9-1,2-1.5,3.5-1.5c1.9,0,3.3,0.9,3.3,2.9v6.5H120.5z M120.5,319.3
			v-2c-0.6-0.9-1.7-1.3-2.8-1.3c-1.5,0-2.5,1-2.5,2.3c0,1.3,1,2.3,2.5,2.3C118.9,320.6,119.9,320.1,120.5,319.3z"/>
		<path class="st3" d="M124.3,309.7c0-0.4,0.4-0.7,0.8-0.7c0.4,0,0.8,0.3,0.8,0.7s-0.3,0.8-0.8,0.8
			C124.7,310.5,124.3,310.2,124.3,309.7z M124.6,321.1v-9.2h1v9.2H124.6z"/>
		<path class="st3" d="M135.4,321.1v-1.5c-0.6,1-1.8,1.7-3.2,1.7c-2.4,0-4.1-1.9-4.1-4.8c0-2.9,1.7-4.8,4.1-4.8
			c1.3,0,2.5,0.7,3.2,1.7v-5h1v12.7H135.4z M135.4,318.8v-4.5c-0.5-0.9-1.7-1.7-3-1.7c-2,0-3.2,1.7-3.2,3.9s1.2,3.9,3.2,3.9
			C133.7,320.5,134.9,319.7,135.4,318.8z"/>
		<path class="st3" d="M143.9,316.5c0-2.7,1.7-4.8,4.4-4.8c1.6,0,2.5,0.6,3.2,1.6l-0.7,0.6c-0.7-0.9-1.5-1.3-2.5-1.3
			c-2.1,0-3.5,1.7-3.5,3.9c0,2.2,1.3,3.9,3.5,3.9c1,0,1.8-0.4,2.5-1.3l0.7,0.6c-0.7,0.9-1.7,1.6-3.2,1.6
			C145.7,321.3,143.9,319.2,143.9,316.5z"/>
		<path class="st3" d="M160,321.1v-6.3c0-1.8-0.9-2.3-2.2-2.3c-1.2,0-2.4,0.7-3,1.6v6.9h-1v-12.7h1v4.9c0.7-0.8,2-1.6,3.3-1.6
			c1.9,0,2.9,0.9,2.9,2.9v6.5H160z"/>
		<path class="st3" d="M169.9,321.1V320c-0.8,0.9-1.8,1.3-3.1,1.3c-1.6,0-3.2-1.1-3.2-3.1c0-2,1.6-3,3.2-3c1.3,0,2.3,0.4,3.1,1.3
			v-1.9c0-1.4-1.1-2.1-2.5-2.1c-1.2,0-2.1,0.4-2.9,1.3l-0.6-0.7c0.9-1,2-1.5,3.5-1.5c1.9,0,3.3,0.9,3.3,2.9v6.5H169.9z M169.9,319.3
			v-2c-0.6-0.9-1.7-1.3-2.8-1.3c-1.5,0-2.5,1-2.5,2.3c0,1.3,1,2.3,2.5,2.3C168.2,320.6,169.3,320.1,169.9,319.3z"/>
		<path class="st3" d="M180.2,321.1v-6.2c0-1.8-0.9-2.3-2.2-2.3c-1.2,0-2.4,0.7-3,1.6v6.9h-1v-9.2h1v1.4c0.7-0.8,2-1.6,3.3-1.6
			c1.9,0,2.9,0.9,2.9,3v6.4H180.2z"/>
		<path class="st3" d="M190.4,321.1v-6.2c0-1.8-0.9-2.3-2.2-2.3c-1.2,0-2.4,0.7-3,1.6v6.9h-1v-9.2h1v1.4c0.7-0.8,2-1.6,3.3-1.6
			c1.9,0,2.9,0.9,2.9,3v6.4H190.4z"/>
		<path class="st3" d="M194,316.5c0-2.7,1.9-4.8,4.4-4.8c2.8,0,4.3,2.2,4.3,4.9v0.3H195c0.1,2,1.4,3.6,3.6,3.6c1.2,0,2.2-0.4,3-1.3
			l0.5,0.6c-0.9,1-2.1,1.5-3.6,1.5C195.9,321.3,194,319.4,194,316.5z M198.4,312.6c-2.2,0-3.2,1.9-3.3,3.5h6.7
			C201.7,314.5,200.7,312.6,198.4,312.6z"/>
		<path class="st3" d="M205.3,321.1v-12.7h1v12.7H205.3z"/>
		<path class="st3" d="M208.5,319.9l0.6-0.7c0.6,0.7,1.7,1.3,3,1.3c1.5,0,2.5-0.8,2.5-1.9c0-2.5-5.8-1.1-5.8-4.4
			c0-1.4,1.2-2.5,3.3-2.5c1.6,0,2.6,0.6,3.3,1.3l-0.6,0.7c-0.5-0.7-1.5-1.2-2.7-1.2c-1.4,0-2.3,0.7-2.3,1.7c0,2.3,5.8,0.9,5.8,4.4
			c0,1.5-1.1,2.7-3.4,2.7C210.6,321.3,209.4,320.9,208.5,319.9z"/>
		<path class="st3" d="M224.8,324.9c-1.6-2.5-2.5-5.3-2.5-8.4s0.9-5.9,2.5-8.4l0.6,0.4c-1.2,2.5-2,4.7-2,8c0,3.3,0.8,5.5,2,7.9
			L224.8,324.9z"/>
		<path class="st3" d="M239.7,321.1l-3.6-5.2h-2.8v5.2h-1.1v-12.7h4.7c2.2,0,3.9,1.4,3.9,3.7c0,2.3-1.6,3.6-3.5,3.6l3.7,5.3H239.7z
			 M239.7,312.1c0-1.6-1.1-2.7-2.8-2.7h-3.6v5.5h3.6C238.6,314.9,239.7,313.7,239.7,312.1z"/>
		<path class="st3" d="M246.6,321.1v-11.7h-4.1v-1h9.4v1h-4.1v11.7H246.6z"/>
		<path class="st3" d="M254.1,321.1v-12.7h5.2c2.1,0,3.5,1.2,3.5,3.2c0,1.6-1.1,2.7-2.2,2.9c1.3,0.2,2.5,1.6,2.5,3.1
			c0,2.1-1.4,3.4-3.6,3.4H254.1z M261.6,311.8c0-1.3-0.9-2.4-2.5-2.4h-4v4.7h4C260.8,314.1,261.6,313.1,261.6,311.8z M261.9,317.6
			c0-1.3-0.9-2.5-2.7-2.5h-4.1v5h4.1C260.9,320.1,261.9,319.2,261.9,317.6z"/>
		<path class="st3" d="M269.4,324.4c1.2-2.4,2-4.7,2-7.9c0-3.3-0.8-5.5-2-8l0.6-0.4c1.6,2.5,2.5,5.3,2.5,8.4s-0.9,5.9-2.5,8.4
			L269.4,324.4z"/>
	</g>
</g>
<path class="st0" d="M352.4,425.6c0,6.5-5.2,11.7-11.7,11.7H39.3c-6.5,0-11.7-5.2-11.7-11.7v-74.9c0-6.5,5.2-11.7,11.7-11.7h301.4
	c6.5,0,11.7,5.2,11.7,11.7V425.6z"/>
<rect x="65.6" y="406" class="st1" width="248.9" height="27.3"/>
<g class="st2">
	<path class="st3" d="M80.2,413v-0.7c3.4-2.7,5.7-4.7,5.7-6.6c0-1.4-1.2-2-2.3-2c-1.2,0-2.2,0.5-2.7,1.3l-0.6-0.5
		c0.7-1,1.9-1.5,3.3-1.5c1.5,0,3.1,0.8,3.1,2.8c0,2.2-2.3,4.2-5.2,6.6h5.3v0.8H80.2z"/>
	<path class="st3" d="M89.9,413l4.2-9.2h-5.5V403h6.6v0.6l-4.3,9.4H89.9z"/>
	<path class="st3" d="M96.4,408c0-2.4,1-5.2,3.7-5.2c2.7,0,3.7,2.8,3.7,5.2c0,2.4-1,5.2-3.7,5.2C97.5,413.2,96.4,410.4,96.4,408z
		 M102.9,408c0-2.1-0.7-4.4-2.8-4.4c-2.1,0-2.8,2.3-2.8,4.4c0,2.1,0.7,4.4,2.8,4.4C102.2,412.4,102.9,410.1,102.9,408z"/>
	<path class="st3" d="M108.8,408.3v3.3h-0.7v-3.3h-3v-0.6h3v-3.2h0.7v3.2h2.9v0.6H108.8z"/>
	<path class="st3" d="M122.6,413v-1.2c-0.5,0.8-1.4,1.3-2.5,1.3c-1.9,0-3.2-1.5-3.2-3.8c0-2.3,1.3-3.8,3.2-3.8c1,0,2,0.5,2.5,1.3
		V403h0.8v10H122.6z M122.6,411.2v-3.6c-0.4-0.7-1.4-1.3-2.4-1.3c-1.6,0-2.5,1.3-2.5,3.1s0.9,3.1,2.5,3.1
		C121.2,412.5,122.2,411.9,122.6,411.2z"/>
	<path class="st3" d="M125.6,404c0-0.3,0.3-0.6,0.6-0.6c0.3,0,0.6,0.3,0.6,0.6s-0.3,0.6-0.6,0.6C125.9,404.6,125.6,404.4,125.6,404z
		 M125.8,413v-7.2h0.8v7.2H125.8z"/>
	<path class="st3" d="M128.4,412.1l0.5-0.6c0.5,0.6,1.3,1.1,2.3,1.1c1.2,0,1.9-0.6,1.9-1.5c0-2-4.6-0.9-4.6-3.5c0-1.1,0.9-2,2.6-2
		c1.2,0,2.1,0.5,2.6,1.1l-0.4,0.6c-0.4-0.6-1.2-1-2.2-1c-1.1,0-1.8,0.6-1.8,1.3c0,1.8,4.6,0.7,4.6,3.5c0,1.2-0.9,2.1-2.7,2.1
		C130,413.2,129.1,412.9,128.4,412.1z"/>
	<path class="st3" d="M136.7,411.9v3.9h-0.8v-10h0.8v1.1c0.5-0.7,1.4-1.3,2.5-1.3c1.9,0,3.2,1.5,3.2,3.8c0,2.3-1.3,3.8-3.2,3.8
		C138.2,413.2,137.3,412.7,136.7,411.9z M141.6,409.4c0-1.8-0.9-3.1-2.5-3.1c-1,0-2,0.6-2.4,1.3v3.6c0.4,0.7,1.4,1.3,2.4,1.3
		C140.7,412.5,141.6,411.2,141.6,409.4z"/>
	<path class="st3" d="M144.4,413v-10h0.8v10H144.4z"/>
	<path class="st3" d="M152.2,413v-0.9c-0.6,0.7-1.5,1-2.5,1c-1.2,0-2.5-0.9-2.5-2.4c0-1.6,1.3-2.4,2.5-2.4c1,0,1.8,0.3,2.5,1V408
		c0-1.1-0.9-1.7-1.9-1.7c-0.9,0-1.6,0.3-2.3,1.1l-0.4-0.5c0.8-0.8,1.6-1.2,2.8-1.2c1.5,0,2.6,0.7,2.6,2.3v5.1H152.2z M152.2,411.6
		V410c-0.5-0.7-1.3-1-2.2-1c-1.2,0-2,0.8-2,1.8c0,1,0.8,1.8,2,1.8C150.9,412.6,151.7,412.3,152.2,411.6z"/>
	<path class="st3" d="M155.1,415.1c0.2,0.1,0.4,0.1,0.6,0.1c0.5,0,0.8-0.2,1.1-0.9l0.6-1.3l-3.1-7.3h0.9l2.6,6.3l2.6-6.3h0.9
		l-3.8,8.8c-0.4,0.9-1,1.3-1.8,1.3c-0.3,0-0.6,0-0.8-0.1L155.1,415.1z"/>
	<path class="st3" d="M166.1,409.4c0-2.1,1.4-3.8,3.5-3.8c1.3,0,2,0.5,2.6,1.2l-0.5,0.5c-0.5-0.7-1.2-1-2-1c-1.7,0-2.7,1.3-2.7,3.1
		s1,3.1,2.7,3.1c0.8,0,1.5-0.3,2-1l0.5,0.5c-0.6,0.8-1.3,1.2-2.6,1.2C167.5,413.2,166.1,411.5,166.1,409.4z"/>
	<path class="st3" d="M178.8,413v-4.9c0-1.4-0.7-1.8-1.8-1.8c-0.9,0-1.9,0.6-2.4,1.2v5.5h-0.8v-10h0.8v3.9c0.5-0.6,1.6-1.3,2.6-1.3
		c1.5,0,2.3,0.7,2.3,2.3v5.1H178.8z"/>
	<path class="st3" d="M186.6,413v-0.9c-0.6,0.7-1.5,1-2.5,1c-1.2,0-2.5-0.9-2.5-2.4c0-1.6,1.3-2.4,2.5-2.4c1,0,1.8,0.3,2.5,1V408
		c0-1.1-0.9-1.7-1.9-1.7c-0.9,0-1.6,0.3-2.3,1.1l-0.4-0.5c0.8-0.8,1.6-1.2,2.8-1.2c1.5,0,2.6,0.7,2.6,2.3v5.1H186.6z M186.6,411.6
		V410c-0.5-0.7-1.3-1-2.2-1c-1.2,0-2,0.8-2,1.8c0,1,0.8,1.8,2,1.8C185.3,412.6,186.1,412.3,186.6,411.6z"/>
	<path class="st3" d="M194.7,413v-4.9c0-1.4-0.7-1.8-1.8-1.8c-0.9,0-1.9,0.6-2.4,1.2v5.5h-0.8v-7.2h0.8v1.1c0.5-0.6,1.6-1.3,2.6-1.3
		c1.5,0,2.3,0.7,2.3,2.4v5.1H194.7z"/>
	<path class="st3" d="M202.8,413v-4.9c0-1.4-0.7-1.8-1.8-1.8c-0.9,0-1.9,0.6-2.4,1.2v5.5h-0.8v-7.2h0.8v1.1c0.5-0.6,1.6-1.3,2.6-1.3
		c1.5,0,2.3,0.7,2.3,2.4v5.1H202.8z"/>
	<path class="st3" d="M205.6,409.4c0-2.1,1.5-3.8,3.5-3.8c2.2,0,3.4,1.7,3.4,3.8v0.2h-6.1c0.1,1.6,1.1,2.9,2.8,2.9
		c0.9,0,1.8-0.3,2.4-1l0.4,0.5c-0.7,0.8-1.6,1.2-2.8,1.2C207.1,413.2,205.6,411.6,205.6,409.4z M209.1,406.3c-1.7,0-2.6,1.5-2.6,2.8
		h5.3C211.7,407.8,210.9,406.3,209.1,406.3z"/>
	<path class="st3" d="M214.6,413v-10h0.8v10H214.6z"/>
	<path class="st3" d="M217.1,412.1l0.5-0.6c0.5,0.6,1.3,1.1,2.3,1.1c1.2,0,1.9-0.6,1.9-1.5c0-2-4.6-0.9-4.6-3.5c0-1.1,0.9-2,2.6-2
		c1.2,0,2.1,0.5,2.6,1.1l-0.4,0.6c-0.4-0.6-1.2-1-2.2-1c-1.1,0-1.8,0.6-1.8,1.3c0,1.8,4.6,0.7,4.6,3.5c0,1.2-0.9,2.1-2.7,2.1
		C218.8,413.2,217.9,412.9,217.1,412.1z"/>
	<path class="st3" d="M228.1,409.4c0-2.1,1.3-3.8,3.5-3.8c2.1,0,3.5,1.7,3.5,3.8s-1.3,3.8-3.5,3.8
		C229.5,413.2,228.1,411.5,228.1,409.4z M234.2,409.4c0-1.6-0.9-3.1-2.7-3.1c-1.7,0-2.6,1.5-2.6,3.1c0,1.6,1,3.1,2.6,3.1
		C233.3,412.5,234.2,411,234.2,409.4z"/>
	<path class="st3" d="M242,413v-4.9c0-1.4-0.7-1.8-1.8-1.8c-0.9,0-1.9,0.6-2.4,1.2v5.5h-0.8v-7.2h0.8v1.1c0.5-0.6,1.6-1.3,2.6-1.3
		c1.5,0,2.3,0.7,2.3,2.4v5.1H242z"/>
	<path class="st3" d="M254.4,413v-1.2c-0.5,0.8-1.4,1.3-2.5,1.3c-1.9,0-3.2-1.5-3.2-3.8c0-2.3,1.3-3.8,3.2-3.8c1,0,2,0.5,2.5,1.3
		V403h0.8v10H254.4z M254.4,411.2v-3.6c-0.4-0.7-1.4-1.3-2.4-1.3c-1.6,0-2.5,1.3-2.5,3.1s0.9,3.1,2.5,3.1
		C253.1,412.5,254,411.9,254.4,411.2z"/>
	<path class="st3" d="M257.2,409.4c0-2.1,1.5-3.8,3.5-3.8c2.2,0,3.4,1.7,3.4,3.8v0.2h-6.1c0.1,1.6,1.1,2.9,2.8,2.9
		c0.9,0,1.8-0.3,2.4-1l0.4,0.5c-0.7,0.8-1.6,1.2-2.8,1.2C258.7,413.2,257.2,411.6,257.2,409.4z M260.7,406.3c-1.7,0-2.6,1.5-2.6,2.8
		h5.3C263.3,407.8,262.5,406.3,260.7,406.3z"/>
	<path class="st3" d="M265.5,412.1l0.5-0.6c0.5,0.6,1.3,1.1,2.3,1.1c1.2,0,1.9-0.6,1.9-1.5c0-2-4.6-0.9-4.6-3.5c0-1.1,0.9-2,2.6-2
		c1.2,0,2.1,0.5,2.6,1.1l-0.4,0.6c-0.4-0.6-1.2-1-2.2-1c-1.1,0-1.8,0.6-1.8,1.3c0,1.8,4.6,0.7,4.6,3.5c0,1.2-0.9,2.1-2.7,2.1
		C267.1,413.2,266.2,412.9,265.5,412.1z"/>
	<path class="st3" d="M278.1,413l-2.9-3.5l-1.3,1.3v2.2H273v-10h0.8v6.9l4.3-4.1h1l-3.4,3.3l3.4,4H278.1z"/>
	<path class="st3" d="M280.8,411.6v-5.2h-1.2v-0.7h1.2v-2h0.8v2h1.5v0.7h-1.5v5c0,0.6,0.2,1,0.8,1c0.3,0,0.6-0.2,0.8-0.3l0.3,0.6
		c-0.3,0.3-0.6,0.4-1.2,0.4C281.2,413.2,280.8,412.6,280.8,411.6z"/>
	<path class="st3" d="M284.3,409.4c0-2.1,1.4-3.8,3.5-3.8c2.1,0,3.5,1.7,3.5,3.8s-1.3,3.8-3.5,3.8
		C285.7,413.2,284.3,411.5,284.3,409.4z M290.5,409.4c0-1.6-0.9-3.1-2.7-3.1c-1.7,0-2.6,1.5-2.6,3.1c0,1.6,1,3.1,2.6,3.1
		C289.5,412.5,290.5,411,290.5,409.4z"/>
	<path class="st3" d="M294.1,411.9v3.9h-0.8v-10h0.8v1.1c0.5-0.7,1.4-1.3,2.5-1.3c1.9,0,3.2,1.5,3.2,3.8c0,2.3-1.3,3.8-3.2,3.8
		C295.6,413.2,294.7,412.7,294.1,411.9z M299,409.4c0-1.8-0.9-3.1-2.5-3.1c-1,0-2,0.6-2.4,1.3v3.6c0.4,0.7,1.4,1.3,2.4,1.3
		C298.1,412.5,299,411.2,299,409.4z"/>
</g>
<g class="st2">
	<path class="st3" d="M104.1,426.7v-0.9c-0.6,0.7-1.5,1-2.5,1c-1.2,0-2.5-0.9-2.5-2.4c0-1.6,1.3-2.4,2.5-2.4c1,0,1.8,0.3,2.5,1v-1.5
		c0-1.1-0.9-1.7-1.9-1.7c-0.9,0-1.6,0.3-2.3,1.1l-0.4-0.5c0.8-0.8,1.6-1.2,2.8-1.2c1.5,0,2.6,0.7,2.6,2.3v5.1H104.1z M104.1,425.3
		v-1.6c-0.5-0.7-1.3-1-2.2-1c-1.2,0-2,0.8-2,1.8c0,1,0.8,1.8,2,1.8C102.8,426.3,103.6,426,104.1,425.3z"/>
	<path class="st3" d="M112.2,426.7v-4.9c0-1.4-0.7-1.8-1.8-1.8c-0.9,0-1.9,0.6-2.4,1.2v5.5h-0.8v-7.2h0.8v1.1
		c0.5-0.6,1.6-1.3,2.6-1.3c1.5,0,2.3,0.7,2.3,2.4v5.1H112.2z"/>
	<path class="st3" d="M120.8,426.7v-1.2c-0.5,0.8-1.4,1.3-2.5,1.3c-1.9,0-3.2-1.5-3.2-3.8c0-2.3,1.3-3.8,3.2-3.8c1,0,2,0.5,2.5,1.3
		v-3.9h0.8v10H120.8z M120.8,424.9v-3.6c-0.4-0.7-1.4-1.3-2.4-1.3c-1.6,0-2.5,1.3-2.5,3.1s0.9,3.1,2.5,3.1
		C119.4,426.2,120.4,425.6,120.8,424.9z"/>
	<path class="st3" d="M131.9,426.7V424h-4.7v-0.8l4.4-6.5h1.2v6.5h1.5v0.8h-1.5v2.7H131.9z M131.9,417.6l-3.9,5.6h3.9V417.6z"/>
	<path class="st3" d="M135.7,421.7c0-2.4,1-5.2,3.7-5.2c2.7,0,3.7,2.8,3.7,5.2c0,2.4-1,5.2-3.7,5.2
		C136.7,426.9,135.7,424.1,135.7,421.7z M142.1,421.7c0-2.1-0.7-4.4-2.8-4.4c-2.1,0-2.8,2.3-2.8,4.4c0,2.1,0.7,4.4,2.8,4.4
		C141.5,426.1,142.1,423.8,142.1,421.7z"/>
	<path class="st3" d="M148,422v3.3h-0.7V422h-3v-0.6h3v-3.2h0.7v3.2h2.9v0.6H148z"/>
	<path class="st3" d="M156.1,423.1c0-2.1,1.4-3.8,3.5-3.8c2.1,0,3.5,1.7,3.5,3.8s-1.3,3.8-3.5,3.8
		C157.4,426.9,156.1,425.2,156.1,423.1z M162.2,423.1c0-1.6-0.9-3.1-2.7-3.1c-1.7,0-2.6,1.5-2.6,3.1c0,1.6,1,3.1,2.6,3.1
		C161.2,426.2,162.2,424.7,162.2,423.1z"/>
	<path class="st3" d="M169.9,426.7v-4.9c0-1.4-0.7-1.8-1.8-1.8c-0.9,0-1.9,0.6-2.4,1.2v5.5H165v-7.2h0.8v1.1
		c0.5-0.6,1.6-1.3,2.6-1.3c1.5,0,2.3,0.7,2.3,2.4v5.1H169.9z"/>
	<path class="st3" d="M185.6,426.7v-5.1c0-1-0.4-1.7-1.5-1.7c-0.8,0-1.7,0.6-2.1,1.2v5.5h-0.8v-5.1c0-1-0.4-1.7-1.4-1.7
		c-0.8,0-1.7,0.6-2.1,1.2v5.5H177v-7.2h0.8v1.1c0.3-0.5,1.3-1.3,2.3-1.3c1.1,0,1.7,0.7,1.9,1.4c0.4-0.7,1.4-1.4,2.4-1.4
		c1.3,0,2,0.8,2,2.2v5.2H185.6z"/>
	<path class="st3" d="M188.4,423.1c0-2.1,1.3-3.8,3.5-3.8c2.1,0,3.5,1.7,3.5,3.8s-1.3,3.8-3.5,3.8
		C189.8,426.9,188.4,425.2,188.4,423.1z M194.6,423.1c0-1.6-0.9-3.1-2.7-3.1c-1.7,0-2.6,1.5-2.6,3.1c0,1.6,1,3.1,2.6,3.1
		C193.6,426.2,194.6,424.7,194.6,423.1z"/>
	<path class="st3" d="M197.4,426.7v-10h0.8v3.9c0.6-0.8,1.5-1.3,2.5-1.3c1.9,0,3.2,1.5,3.2,3.8c0,2.3-1.3,3.8-3.2,3.8
		c-1.1,0-2-0.6-2.5-1.3v1.2H197.4z M200.6,426.2c1.6,0,2.5-1.3,2.5-3.1s-0.9-3.1-2.5-3.1c-1,0-2,0.6-2.4,1.3v3.6
		C198.6,425.6,199.6,426.2,200.6,426.2z"/>
	<path class="st3" d="M205.8,417.7c0-0.3,0.3-0.6,0.6-0.6c0.3,0,0.6,0.3,0.6,0.6s-0.3,0.6-0.6,0.6
		C206,418.3,205.8,418.1,205.8,417.7z M206,426.7v-7.2h0.8v7.2H206z"/>
	<path class="st3" d="M209.2,426.7v-10h0.8v10H209.2z"/>
	<path class="st3" d="M212,423.1c0-2.1,1.5-3.8,3.5-3.8c2.2,0,3.4,1.7,3.4,3.8v0.2h-6.1c0.1,1.6,1.1,2.9,2.8,2.9
		c0.9,0,1.8-0.3,2.4-1l0.4,0.5c-0.7,0.8-1.6,1.2-2.8,1.2C213.5,426.9,212,425.3,212,423.1z M215.4,420c-1.7,0-2.6,1.5-2.6,2.8h5.3
		C218.1,421.5,217.3,420,215.4,420z"/>
	<path class="st3" d="M224.4,423.1c0-2.1,1.4-3.8,3.5-3.8c1.3,0,2,0.5,2.6,1.2l-0.5,0.5c-0.5-0.7-1.2-1-2-1c-1.7,0-2.7,1.3-2.7,3.1
		s1,3.1,2.7,3.1c0.8,0,1.5-0.3,2-1l0.5,0.5c-0.6,0.8-1.3,1.2-2.6,1.2C225.8,426.9,224.4,425.2,224.4,423.1z"/>
	<path class="st3" d="M237.1,426.7v-4.9c0-1.4-0.7-1.8-1.8-1.8c-0.9,0-1.9,0.6-2.4,1.2v5.5h-0.8v-10h0.8v3.9
		c0.5-0.6,1.6-1.3,2.6-1.3c1.5,0,2.3,0.7,2.3,2.3v5.1H237.1z"/>
	<path class="st3" d="M244.9,426.7v-0.9c-0.6,0.7-1.5,1-2.5,1c-1.2,0-2.5-0.9-2.5-2.4c0-1.6,1.3-2.4,2.5-2.4c1,0,1.8,0.3,2.5,1v-1.5
		c0-1.1-0.9-1.7-1.9-1.7c-0.9,0-1.6,0.3-2.3,1.1l-0.4-0.5c0.8-0.8,1.6-1.2,2.8-1.2c1.5,0,2.6,0.7,2.6,2.3v5.1H244.9z M244.9,425.3
		v-1.6c-0.5-0.7-1.3-1-2.2-1c-1.2,0-2,0.8-2,1.8c0,1,0.8,1.8,2,1.8C243.6,426.3,244.4,426,244.9,425.3z"/>
	<path class="st3" d="M253,426.7v-4.9c0-1.4-0.7-1.8-1.8-1.8c-0.9,0-1.9,0.6-2.4,1.2v5.5h-0.8v-7.2h0.8v1.1c0.5-0.6,1.6-1.3,2.6-1.3
		c1.5,0,2.3,0.7,2.3,2.4v5.1H253z"/>
	<path class="st3" d="M261.1,426.7v-4.9c0-1.4-0.7-1.8-1.8-1.8c-0.9,0-1.9,0.6-2.4,1.2v5.5h-0.8v-7.2h0.8v1.1
		c0.5-0.6,1.6-1.3,2.6-1.3c1.5,0,2.3,0.7,2.3,2.4v5.1H261.1z"/>
	<path class="st3" d="M263.9,423.1c0-2.1,1.5-3.8,3.5-3.8c2.2,0,3.4,1.7,3.4,3.8v0.2h-6.1c0.1,1.6,1.1,2.9,2.8,2.9
		c0.9,0,1.8-0.3,2.4-1l0.4,0.5c-0.7,0.8-1.6,1.2-2.8,1.2C265.4,426.9,263.9,425.3,263.9,423.1z M267.4,420c-1.7,0-2.6,1.5-2.6,2.8
		h5.3C270,421.5,269.2,420,267.4,420z"/>
	<path class="st3" d="M272.8,426.7v-10h0.8v10H272.8z"/>
	<path class="st3" d="M275.4,425.8l0.5-0.6c0.5,0.6,1.3,1.1,2.3,1.1c1.2,0,1.9-0.6,1.9-1.5c0-2-4.6-0.9-4.6-3.5c0-1.1,0.9-2,2.6-2
		c1.2,0,2.1,0.5,2.6,1.1l-0.4,0.6c-0.4-0.6-1.2-1-2.2-1c-1.1,0-1.8,0.6-1.8,1.3c0,1.8,4.6,0.7,4.6,3.5c0,1.2-0.9,2.1-2.7,2.1
		C277,426.9,276.1,426.6,275.4,425.8z"/>
</g>
<g>
	<path class="st3" d="M227.4,85.3v-2.9c0-1.7,1.4-3,3-3h27.5c1.7,0,3,1.3,3,3v2.9l3.9-3.9c0.2-0.2,0.2-0.4,0.2-0.6s-0.1-0.4-0.3-0.6
		L246,65.7c-1.1-0.8-2.6-0.8-3.7,0l-18.7,14.5c-0.2,0.1-0.3,0.4-0.3,0.6s0.1,0.5,0.2,0.6L227.4,85.3z"/>
	<path class="st3" d="M268.4,83.7c-0.3-0.1-0.6-0.1-0.9,0.2L247,104.4c-0.8,0.8-1.8,1.2-3,1.2c-1.1,0-2.2-0.4-2.9-1.2l-20.5-20.5
		c-0.2-0.2-0.6-0.3-0.9-0.2c-0.3,0.1-0.5,0.4-0.5,0.7v26c0,1.8,1.5,3.3,3.3,3.3h43c1.8,0,3.3-1.5,3.3-3.3v-26
		C268.9,84.2,268.7,83.9,268.4,83.7L268.4,83.7z"/>
	<path class="st3" d="M253.3,83.9H235c-0.9,0-1.7,0.7-1.7,1.7c0,0.9,0.7,1.7,1.7,1.7h18.3c0.9,0,1.7-0.7,1.7-1.7
		C254.9,84.7,254.2,83.9,253.3,83.9L253.3,83.9z"/>
	<path class="st3" d="M253.3,90.5H235c-0.9,0-1.7,0.7-1.7,1.7c0,0.9,0.7,1.7,1.7,1.7h18.3c0.9,0,1.7-0.7,1.7-1.7
		C254.9,91.3,254.2,90.5,253.3,90.5L253.3,90.5z"/>
</g>
<path class="st0" d="M181.2,247c0,6.5-5.2,11.7-11.7,11.7H93.8c-6.5,0-11.7-5.2-11.7-11.7v-74.9c0-6.5,5.2-11.7,11.7-11.7h75.7
	c6.5,0,11.7,5.2,11.7,11.7V247z"/>
<g>
	<g>
		<rect x="70.6" y="223.3" class="st1" width="122" height="33"/>
	</g>
	<g class="st2">
		<path class="st3" d="M117.4,233.3v-10h3.7c1.9,0,3,1.4,3,2.9c0,1.6-1.1,2.9-3,2.9h-2.9v4.2H117.4z M123.2,226.2
			c0-1.3-0.9-2.1-2.2-2.1h-2.8v4.3h2.8C122.4,228.4,123.2,227.5,123.2,226.2z"/>
		<path class="st3" d="M130.8,233.3v-1.1c-0.6,0.7-1.6,1.2-2.6,1.2c-1.5,0-2.3-0.7-2.3-2.3v-5.1h0.8v4.9c0,1.4,0.7,1.8,1.8,1.8
			c0.9,0,1.9-0.6,2.4-1.2v-5.5h0.8v7.2H130.8z"/>
		<path class="st3" d="M133.4,232.3l0.5-0.6c0.5,0.6,1.3,1.1,2.3,1.1c1.2,0,1.9-0.6,1.9-1.5c0-2-4.6-0.9-4.6-3.5c0-1.1,0.9-2,2.6-2
			c1.2,0,2.1,0.5,2.6,1.1l-0.4,0.6c-0.4-0.6-1.2-1-2.2-1c-1.1,0-1.8,0.6-1.8,1.3c0,1.8,4.6,0.7,4.6,3.5c0,1.2-0.9,2.1-2.7,2.1
			C135,233.5,134.1,233.1,133.4,232.3z"/>
		<path class="st3" d="M145.8,233.3v-4.9c0-1.4-0.7-1.8-1.8-1.8c-0.9,0-1.9,0.6-2.4,1.2v5.5h-0.8v-10h0.8v3.9
			c0.5-0.6,1.6-1.3,2.6-1.3c1.5,0,2.3,0.7,2.3,2.3v5.1H145.8z"/>
	</g>
	<g class="st2">
		<path class="st3" d="M104.7,248.4l-6.3-8.6v8.6h-0.9v-10h0.9l6.3,8.5v-8.5h0.9v10H104.7z"/>
		<path class="st3" d="M107.6,244.8c0-2.1,1.3-3.8,3.5-3.8c2.1,0,3.5,1.7,3.5,3.8s-1.3,3.8-3.5,3.8
			C109,248.6,107.6,246.9,107.6,244.8z M113.7,244.8c0-1.6-0.9-3.1-2.7-3.1c-1.7,0-2.6,1.5-2.6,3.1c0,1.6,1,3.1,2.6,3.1
			C112.8,247.9,113.7,246.4,113.7,244.8z"/>
		<path class="st3" d="M116.7,247v-5.2h-1.2v-0.7h1.2v-2h0.8v2h1.5v0.7h-1.5v5c0,0.6,0.2,1,0.7,1c0.3,0,0.6-0.2,0.8-0.3l0.3,0.6
			c-0.3,0.3-0.6,0.4-1.2,0.4C117.2,248.6,116.7,248,116.7,247z"/>
		<path class="st3" d="M120.5,239.4c0-0.3,0.3-0.6,0.6-0.6c0.3,0,0.6,0.3,0.6,0.6s-0.3,0.6-0.6,0.6
			C120.8,240,120.5,239.8,120.5,239.4z M120.7,248.4v-7.2h0.8v7.2H120.7z"/>
		<path class="st3" d="M124.2,248.4v-6.6H123v-0.7h1.2v-0.7c0-1.4,0.8-2.3,2-2.3c0.4,0,0.7,0.1,1,0.2l-0.2,0.6
			c-0.2-0.1-0.4-0.2-0.7-0.2c-0.8,0-1.2,0.6-1.2,1.5v0.7h1.5v0.7H125v6.6H124.2z M127.7,239.4c0-0.3,0.3-0.6,0.6-0.6
			c0.3,0,0.6,0.3,0.6,0.6s-0.3,0.6-0.6,0.6C128,240,127.7,239.8,127.7,239.4z M127.9,248.4v-7.2h0.8v7.2H127.9z"/>
		<path class="st3" d="M130.7,244.8c0-2.1,1.4-3.8,3.5-3.8c1.3,0,2,0.5,2.6,1.2l-0.5,0.5c-0.5-0.7-1.2-1-2-1c-1.7,0-2.7,1.3-2.7,3.1
			s1,3.1,2.7,3.1c0.8,0,1.5-0.3,2-1l0.5,0.5c-0.6,0.8-1.3,1.2-2.6,1.2C132.1,248.6,130.7,246.9,130.7,244.8z"/>
		<path class="st3" d="M143.1,248.4v-0.9c-0.6,0.7-1.5,1-2.5,1c-1.2,0-2.5-0.9-2.5-2.4c0-1.6,1.3-2.4,2.5-2.4c1,0,1.8,0.3,2.5,1
			v-1.5c0-1.1-0.9-1.7-1.9-1.7c-0.9,0-1.6,0.3-2.3,1.1l-0.4-0.5c0.8-0.8,1.6-1.2,2.8-1.2c1.5,0,2.6,0.7,2.6,2.3v5.1H143.1z
			 M143.1,247v-1.6c-0.5-0.7-1.3-1-2.2-1c-1.2,0-2,0.8-2,1.8c0,1,0.8,1.8,2,1.8C141.8,248,142.6,247.6,143.1,247z"/>
		<path class="st3" d="M146.5,247v-5.2h-1.2v-0.7h1.2v-2h0.8v2h1.5v0.7h-1.5v5c0,0.6,0.2,1,0.7,1c0.3,0,0.6-0.2,0.8-0.3l0.3,0.6
			c-0.3,0.3-0.6,0.4-1.2,0.4C146.9,248.6,146.5,248,146.5,247z"/>
		<path class="st3" d="M150.2,239.4c0-0.3,0.3-0.6,0.6-0.6c0.3,0,0.6,0.3,0.6,0.6s-0.3,0.6-0.6,0.6
			C150.5,240,150.2,239.8,150.2,239.4z M150.5,248.4v-7.2h0.8v7.2H150.5z"/>
		<path class="st3" d="M153.3,244.8c0-2.1,1.4-3.8,3.5-3.8c2.1,0,3.5,1.7,3.5,3.8s-1.3,3.8-3.5,3.8
			C154.6,248.6,153.3,246.9,153.3,244.8z M159.4,244.8c0-1.6-0.9-3.1-2.7-3.1c-1.7,0-2.6,1.5-2.6,3.1c0,1.6,1,3.1,2.6,3.1
			C158.4,247.9,159.4,246.4,159.4,244.8z"/>
		<path class="st3" d="M167.1,248.4v-4.9c0-1.4-0.7-1.8-1.8-1.8c-0.9,0-1.9,0.6-2.4,1.2v5.5h-0.8v-7.2h0.8v1.1
			c0.5-0.6,1.6-1.3,2.6-1.3c1.5,0,2.3,0.7,2.3,2.4v5.1H167.1z"/>
	</g>
</g>
<g>
	<path class="st3" d="M120.9,176.8l-3.1-3.1c-5.3,4-8.8,10.1-9.2,17.1h4.4C113.4,185,116.3,179.9,120.9,176.8L120.9,176.8z
		 M150.3,190.9h4.4c-0.4-7-3.7-13.2-9-17.1l-3.1,3.1C147,179.9,149.9,185,150.3,190.9L150.3,190.9z M145.9,192
		c0-6.8-4.6-12.3-11-13.8v-1.5c0-1.8-1.5-3.3-3.3-3.3c-1.7,0-3.3,1.5-3.3,3.3v1.5c-6.4,1.5-11,7-11,13.8v12.1l-4.4,4.4v2.2h37.4
		v-2.2l-4.4-4.4V192z M131.7,217.3h0.9c1.5-0.2,2.6-1.3,3.1-2.6c0.2-0.4,0.4-1.1,0.4-1.8h-8.8C127.3,215.3,129.2,217.3,131.7,217.3
		L131.7,217.3z"/>
</g>
<g>
	<path class="st3" d="M160.4,349.4h1.6v19.9h-1.6v-1.7c-0.9,1.2-2.6,2-4.1,2c-3.4,0-5.6-2.5-5.6-7.3c0-4.9,2.2-7.3,5.6-7.3
		c1.6,0,3.1,0.7,4.1,1.8V349.4z M160.4,358.8c-0.7-1.3-2.3-2.3-4-2.3c-2.4,0-4.1,1.8-4.1,5.8c0,4.2,1.6,5.8,4.1,5.8
		c1.6,0,3.3-1.2,4-2.5V358.8z"/>
	<path class="st3" d="M169.8,355c3.9,0,6.1,2.9,6.1,7.3s-2.2,7.3-6.1,7.3s-6.1-3-6.1-7.4C163.7,357.9,165.8,355,169.8,355z
		 M174.3,362.3c0-3.4-1.7-5.8-4.5-5.8s-4.4,2.4-4.4,5.8s1.7,5.9,4.5,5.9C172.6,368.2,174.3,365.7,174.3,362.3z"/>
	<path class="st3" d="M182.2,369.7c-3,0-4.7-1.4-4.7-4.3v-10h1.6v9.8c0,2.2,1.1,3,3.3,3c1.8,0,3.4-1.3,4.1-2.7v-10h1.6v13.9h-1.6
		v-1.9C185.7,368.6,183.8,369.7,182.2,369.7z"/>
	<path class="st3" d="M192.3,369.3h-1.6v-19.9h1.6v7.4c1-1.1,2.6-1.8,4.1-1.8c3.4,0,5.6,2.4,5.6,7.3s-2.2,7.3-5.6,7.3
		c-1.5,0-3.2-0.8-4.1-2V369.3z M192.3,365.6c0.7,1.3,2.4,2.5,4,2.5c2.5,0,4.1-1.7,4.1-5.8c0-4-1.7-5.8-4.1-5.8c-1.7,0-3.3,0.9-4,2.3
		V365.6z"/>
	<path class="st3" d="M204.3,349.4h1.6v19.9h-1.6V349.4z"/>
	<path class="st3" d="M213.9,368.2c2,0,3.4-1,3.8-3.7l1.6,0.3c-0.5,3.4-2.6,4.9-5.4,4.9c-3.6,0-5.8-2.5-5.8-7.4
		c0-4.4,1.9-7.2,5.6-7.2c3.9,0,5.6,3.1,5.6,7.1v0.5h-9.6C209.8,366.5,211.5,368.2,213.9,368.2z M217.6,361.1L217.6,361.1
		c-0.1-2.7-1.4-4.6-3.9-4.6c-2.4,0-3.8,1.8-4,4.6H217.6z"/>
	<path class="st3" d="M222.5,362.3c0,3.3,1.2,5.8,4.3,5.8c2,0,3.6-1.1,4.1-3.7l1.6,0.3c-0.5,3.4-2.9,4.9-5.7,4.9
		c-3.9,0-5.9-2.9-5.9-7.3c0-4.6,2-7.3,5.8-7.3c2.9,0,5.1,1.5,5.6,4.8l-1.6,0.3c-0.5-2.7-2.1-3.6-4.1-3.6
		C223.6,356.5,222.5,359.1,222.5,362.3z"/>
	<path class="st3" d="M234.6,349.4h1.6v19.9h-1.6V349.4z"/>
	<path class="st3" d="M239.3,350.3h1.6v2.8h-1.6V350.3z M239.3,355.4h1.6v13.9h-1.6V355.4z"/>
	<path class="st3" d="M244.8,362.3c0,3.3,1.2,5.8,4.3,5.8c2,0,3.6-1.1,4.1-3.7l1.6,0.3c-0.5,3.4-2.9,4.9-5.7,4.9
		c-3.9,0-5.9-2.9-5.9-7.3c0-4.6,2-7.3,5.8-7.3c2.9,0,5.1,1.5,5.6,4.8l-1.6,0.3c-0.5-2.7-2.1-3.6-4.1-3.6
		C245.9,356.5,244.8,359.1,244.8,362.3z"/>
	<path class="st3" d="M267.8,369.3H266l-4.3-7.6l-3.1,3.5v4.1H257v-19.9h1.6v13.7l7-7.8h2l-4.7,5.1L267.8,369.3z"/>
	<g>
		<g>
			<path class="st3" d="M152.1,385.3H151v-8.2h1.1v3c0.4-0.5,1.1-0.8,1.8-0.8c1.5,0,2.6,1,2.6,3.1c0,2-1.1,3.1-2.6,3.1
				c-0.7,0-1.4-0.3-1.8-0.8V385.3z M152.1,383.4c0.3,0.6,0.9,1.1,1.6,1.1c1,0,1.7-0.7,1.7-2.2c0-1.4-0.7-2.2-1.7-2.2
				c-0.7,0-1.4,0.4-1.6,1V383.4z"/>
			<path class="st3" d="M161.2,379.4h1.1l-1.9,5.7c-0.5,1.5-1.1,2.3-2.6,2.3c-0.2,0-0.5,0-0.7-0.1v-0.9c0.1,0.1,0.4,0.1,0.5,0.1
				c0.8,0,1.2-0.3,1.4-0.9l0.1-0.3l-2.4-5.9h1.2l1.7,4.6L161.2,379.4z"/>
		</g>
		<g>
			<path class="st3" d="M202,384.4l-0.6,0.6c-0.1,0.1-0.3,0.2-0.4,0.2c-0.4,0.2-0.9,0.2-1.3,0.2c-0.4,0-1.1,0-1.7-0.5
				c-0.9-0.6-1.3-1.7-1.3-2.7c0-2,1.6-3,3-3c0.5,0,0.9,0.1,1.3,0.4c0.6,0.4,0.8,1,0.9,1.3l-3,1.2l-1,0.1c0.3,1.6,1.4,2.6,2.7,2.6
				C201.1,384.8,201.5,384.6,202,384.4C201.9,384.4,202,384.3,202,384.4z M200.1,381.1c0.3-0.1,0.4-0.2,0.4-0.3
				c0-0.5-0.6-1.1-1.3-1.1c-0.5,0-1.5,0.4-1.5,1.8c0,0.2,0,0.5,0,0.7L200.1,381.1z"/>
			<path class="st3" d="M195.6,384.3c0,0.5,0.1,0.6,0.5,0.6c0.2,0,0.4,0,0.7,0.1l-0.5,0.3H194c0.3-0.4,0.4-0.4,0.4-0.7v-0.3v-7.7h-1
				l1-0.5h1.8c-0.4,0.2-0.5,0.4-0.6,0.8L195.6,384.3L195.6,384.3z"/>
			<path class="st3" d="M192.1,379.9c0.3,0.3,0.9,0.8,0.9,1.7c0,0.9-0.5,1.4-1.1,1.8c-0.2,0.2-0.4,0.3-0.4,0.6
				c0,0.3,0.2,0.4,0.3,0.6l0.5,0.4c0.6,0.5,1.1,0.9,1.1,1.8c0,1.2-1.2,2.4-3.4,2.4c-1.9,0-2.8-0.9-2.8-1.8c0-0.5,0.2-1.1,1-1.6
				s1.9-0.6,2.5-0.6c-0.2-0.2-0.4-0.5-0.4-0.9c0-0.2,0.1-0.3,0.1-0.5c-0.1,0-0.3,0-0.4,0c-1.4,0-2.1-1-2.1-2c0-0.6,0.3-1.2,0.8-1.7
				c0.7-0.6,1.6-0.7,2.3-0.7h2.7l-0.8,0.5L192.1,379.9L192.1,379.9z M191.2,385.6c-0.1,0-0.2,0-0.3,0s-0.8,0-1.4,0.2
				c-0.3,0.1-1.1,0.4-1.1,1.3s0.9,1.6,2.3,1.6c1.2,0,1.9-0.6,1.9-1.4C192.6,386.6,192.2,386.3,191.2,385.6z M191.5,383.1
				c0.3-0.3,0.3-0.7,0.3-0.9c0-0.9-0.6-2.4-1.6-2.4c-0.3,0-0.7,0.2-0.9,0.4c-0.2,0.3-0.3,0.6-0.3,1c0,0.9,0.5,2.3,1.6,2.3
				C191,383.5,191.3,383.4,191.5,383.1z"/>
			<path class="st3" d="M184.1,385.4c-2,0-3.1-1.6-3.1-3c0-1.7,1.4-3.1,3.3-3.1c1.9,0,3.1,1.5,3.1,3
				C187.4,383.8,186.2,385.4,184.1,385.4z M185.7,384.4c0.3-0.4,0.4-0.9,0.4-1.4c0-1.1-0.5-3.3-2.1-3.3c-0.4,0-0.9,0.2-1.2,0.4
				c-0.5,0.5-0.6,1-0.6,1.6c0,1.3,0.6,3.4,2.2,3.4C184.9,385,185.4,384.8,185.7,384.4z"/>
			<path class="st3" d="M177.2,385.4c-2.1,0-3.1-1.6-3.1-3c0-1.7,1.4-3.1,3.3-3.1c1.9,0,3.1,1.5,3.1,3S179.3,385.4,177.2,385.4z
				 M178.8,384.4c0.3-0.4,0.4-0.9,0.4-1.4c0-1.1-0.5-3.3-2.1-3.3c-0.4,0-0.9,0.2-1.2,0.4c-0.5,0.5-0.6,1-0.6,1.6
				c0,1.3,0.6,3.4,2.2,3.4C178,385,178.5,384.8,178.8,384.4z"/>
			<path class="st3" d="M173.3,385l-1.7,0.4c-0.7,0.1-1.3,0.2-2,0.2c-3.3,0-4.6-2.5-4.6-4.4c0-2.4,1.8-4.5,4.9-4.5
				c0.7,0,1.3,0.1,1.9,0.3c0.9,0.3,1.3,0.6,1.6,0.8l-1,1l-0.4,0.1l0.3-0.5c-0.4-0.4-1.2-1.1-2.6-1.1c-1.9,0-3.4,1.5-3.4,3.6
				c0,2.3,1.6,4.4,4.3,4.4c0.8,0,1.2-0.2,1.5-0.3v-1.9l-1.8,0.1l1-0.5h2.6l-0.3,0.3c-0.1,0.1-0.1,0.1-0.1,0.2s0,0.5,0,0.6v1.2H173.3
				z"/>
			<g>
				<path class="st3" d="M202.5,379.4v0.8l0,0V379.4h-0.4v-0.1h0.6v0.1H202.5z"/>
				<path class="st3" d="M203.6,380.2v-0.8l0,0l-0.2,0.8h-0.1l-0.2-0.8l0,0v0.8H203v-0.9h0.1l0.2,0.7l0,0l0.2-0.7h0.2L203.6,380.2
					L203.6,380.2z"/>
			</g>
		</g>
	</g>
	<path class="st3" d="M127.2,364.4c5.5,0,10.4,3,13,7.5c1.3-2.2,2-4.8,2-7.5c0-8.3-6.7-15-15-15s-15,6.7-15,15c0,2.7,0.7,5.3,2,7.5
		C116.9,367.4,121.7,364.4,127.2,364.4z"/>
	<path class="st3" d="M127.2,379.4c-5.5,0-10.4-3-12.9-7.5c-1.3,2.2-2,4.8-2,7.5c0,8.3,6.7,15,15,15c8.3,0,15-6.7,15-15
		c0-2.7-0.7-5.3-2-7.5C137.6,376.4,132.8,379.4,127.2,379.4z"/>
</g>
<path class="st0" d="M352.4,539.1c0,6.5-5.2,11.7-11.7,11.7H39.3c-6.5,0-11.7-5.2-11.7-11.7v-74.9c0-6.5,5.2-11.7,11.7-11.7h301.4
	c6.5,0,11.7,5.2,11.7,11.7V539.1z"/>
<rect x="35.2" y="519.9" class="st1" width="309.6" height="29.5"/>
<g class="st2">
	<path class="st3" d="M37.5,530.5l0.6-0.6c0.6,0.7,1.7,1.5,3.1,1.5c2,0,2.6-1.1,2.6-2c0-2.9-6-1.4-6-4.9c0-1.6,1.5-2.7,3.3-2.7
		c1.5,0,2.6,0.5,3.4,1.4l-0.6,0.6c-0.7-0.9-1.7-1.3-2.9-1.3c-1.3,0-2.3,0.8-2.3,1.8c0,2.6,6,1.2,6,4.9c0,1.3-0.9,2.8-3.6,2.8
		C39.5,532.1,38.2,531.4,37.5,530.5z"/>
	<path class="st3" d="M46.3,528.3c0-2.1,1.4-3.8,3.5-3.8c2.1,0,3.5,1.7,3.5,3.8s-1.3,3.8-3.5,3.8C47.7,532.1,46.3,530.4,46.3,528.3z
		 M52.4,528.3c0-1.6-0.9-3.1-2.7-3.1c-1.7,0-2.6,1.5-2.6,3.1c0,1.6,1,3.1,2.6,3.1C51.5,531.4,52.4,529.9,52.4,528.3z"/>
	<path class="st3" d="M54.9,528.3c0-2.1,1.4-3.8,3.5-3.8c1.3,0,2,0.5,2.6,1.2l-0.5,0.5c-0.5-0.7-1.2-1-2-1c-1.7,0-2.7,1.3-2.7,3.1
		s1,3.1,2.7,3.1c0.8,0,1.5-0.3,2-1l0.5,0.5c-0.6,0.8-1.3,1.2-2.6,1.2C56.3,532.1,54.9,530.4,54.9,528.3z"/>
	<path class="st3" d="M62.5,522.9c0-0.3,0.3-0.6,0.6-0.6c0.3,0,0.6,0.3,0.6,0.6s-0.3,0.6-0.6,0.6C62.8,523.5,62.5,523.3,62.5,522.9z
		 M62.7,531.9v-7.2h0.8v7.2H62.7z"/>
	<path class="st3" d="M70.5,531.9v-0.9c-0.6,0.7-1.5,1-2.5,1c-1.2,0-2.5-0.9-2.5-2.4c0-1.6,1.3-2.4,2.5-2.4c1,0,1.8,0.3,2.5,1v-1.5
		c0-1.1-0.9-1.7-1.9-1.7c-0.9,0-1.6,0.3-2.3,1.1l-0.4-0.5c0.8-0.8,1.6-1.2,2.8-1.2c1.5,0,2.6,0.7,2.6,2.3v5.1H70.5z M70.5,530.5
		v-1.6c-0.5-0.7-1.3-1-2.2-1c-1.2,0-2,0.8-2,1.8c0,1,0.8,1.8,2,1.8C69.2,531.5,70,531.1,70.5,530.5z"/>
	<path class="st3" d="M73.7,531.9v-10h0.8v10H73.7z"/>
	<path class="st3" d="M80.4,528.3c0-2.1,1.4-3.8,3.5-3.8c1.3,0,2,0.5,2.6,1.2l-0.5,0.5c-0.5-0.7-1.2-1-2-1c-1.7,0-2.7,1.3-2.7,3.1
		s1,3.1,2.7,3.1c0.8,0,1.5-0.3,2-1l0.5,0.5c-0.6,0.8-1.3,1.2-2.6,1.2C81.8,532.1,80.4,530.4,80.4,528.3z"/>
	<path class="st3" d="M93.1,531.9V527c0-1.4-0.7-1.8-1.8-1.8c-0.9,0-1.9,0.6-2.4,1.2v5.5h-0.8v-10H89v3.9c0.5-0.6,1.6-1.3,2.6-1.3
		c1.5,0,2.3,0.7,2.3,2.3v5.1H93.1z"/>
	<path class="st3" d="M100.9,531.9v-0.9c-0.6,0.7-1.5,1-2.5,1c-1.2,0-2.5-0.9-2.5-2.4c0-1.6,1.3-2.4,2.5-2.4c1,0,1.8,0.3,2.5,1v-1.5
		c0-1.1-0.9-1.7-1.9-1.7c-0.9,0-1.6,0.3-2.3,1.1l-0.4-0.5c0.8-0.8,1.6-1.2,2.8-1.2c1.5,0,2.6,0.7,2.6,2.3v5.1H100.9z M100.9,530.5
		v-1.6c-0.5-0.7-1.3-1-2.2-1c-1.2,0-2,0.8-2,1.8c0,1,0.8,1.8,2,1.8C99.6,531.5,100.4,531.1,100.9,530.5z"/>
	<path class="st3" d="M109,531.9V527c0-1.4-0.7-1.8-1.8-1.8c-0.9,0-1.9,0.6-2.4,1.2v5.5h-0.8v-7.2h0.8v1.1c0.5-0.6,1.6-1.3,2.6-1.3
		c1.5,0,2.3,0.7,2.3,2.4v5.1H109z"/>
	<path class="st3" d="M117.1,531.9V527c0-1.4-0.7-1.8-1.8-1.8c-0.9,0-1.9,0.6-2.4,1.2v5.5h-0.8v-7.2h0.8v1.1
		c0.5-0.6,1.6-1.3,2.6-1.3c1.5,0,2.3,0.7,2.3,2.4v5.1H117.1z"/>
	<path class="st3" d="M119.9,528.3c0-2.1,1.5-3.8,3.5-3.8c2.2,0,3.4,1.7,3.4,3.8v0.2h-6.1c0.1,1.6,1.1,2.9,2.8,2.9
		c0.9,0,1.8-0.3,2.4-1l0.4,0.5c-0.7,0.8-1.6,1.2-2.8,1.2C121.4,532.1,119.9,530.5,119.9,528.3z M123.4,525.2c-1.7,0-2.6,1.5-2.6,2.8
		h5.3C126,526.7,125.2,525.2,123.4,525.2z"/>
	<path class="st3" d="M128.8,531.9v-10h0.8v10H128.8z"/>
	<path class="st3" d="M131.4,530.9l0.5-0.6c0.5,0.6,1.3,1.1,2.3,1.1c1.2,0,1.9-0.6,1.9-1.5c0-2-4.6-0.9-4.6-3.5c0-1.1,0.9-2,2.6-2
		c1.2,0,2.1,0.5,2.6,1.1l-0.4,0.6c-0.4-0.6-1.2-1-2.2-1c-1.1,0-1.8,0.6-1.8,1.3c0,1.8,4.6,0.7,4.6,3.5c0,1.2-0.9,2.1-2.7,2.1
		C133,532.1,132.1,531.7,131.4,530.9z"/>
	<path class="st3" d="M142.9,531.9v-10h6.3v0.8h-5.5v3.7h5.4v0.8h-5.4v4.7H142.9z"/>
	<path class="st3" d="M155.6,531.9v-0.9c-0.6,0.7-1.5,1-2.5,1c-1.2,0-2.5-0.9-2.5-2.4c0-1.6,1.3-2.4,2.5-2.4c1,0,1.8,0.3,2.5,1v-1.5
		c0-1.1-0.9-1.7-1.9-1.7c-0.9,0-1.6,0.3-2.3,1.1l-0.4-0.5c0.8-0.8,1.6-1.2,2.8-1.2c1.5,0,2.6,0.7,2.6,2.3v5.1H155.6z M155.6,530.5
		v-1.6c-0.5-0.7-1.3-1-2.2-1c-1.2,0-2,0.8-2,1.8c0,1,0.8,1.8,2,1.8C154.2,531.5,155.1,531.1,155.6,530.5z"/>
	<path class="st3" d="M158.4,528.3c0-2.1,1.4-3.8,3.5-3.8c1.3,0,2,0.5,2.6,1.2l-0.5,0.5c-0.5-0.7-1.2-1-2-1c-1.7,0-2.7,1.3-2.7,3.1
		s1,3.1,2.7,3.1c0.8,0,1.5-0.3,2-1l0.5,0.5c-0.6,0.8-1.3,1.2-2.6,1.2C159.7,532.1,158.4,530.4,158.4,528.3z"/>
	<path class="st3" d="M165.8,528.3c0-2.1,1.5-3.8,3.5-3.8c2.2,0,3.4,1.7,3.4,3.8v0.2h-6.1c0.1,1.6,1.1,2.9,2.8,2.9
		c0.9,0,1.8-0.3,2.4-1l0.4,0.5c-0.7,0.8-1.6,1.2-2.8,1.2C167.3,532.1,165.8,530.5,165.8,528.3z M169.2,525.2c-1.7,0-2.6,1.5-2.6,2.8
		h5.3C171.9,526.7,171.1,525.2,169.2,525.2z"/>
	<path class="st3" d="M174.7,531.9v-10h0.8v3.9c0.6-0.8,1.5-1.3,2.5-1.3c1.9,0,3.2,1.5,3.2,3.8c0,2.3-1.3,3.8-3.2,3.8
		c-1.1,0-2-0.6-2.5-1.3v1.2H174.7z M177.8,531.4c1.6,0,2.5-1.3,2.5-3.1s-0.9-3.1-2.5-3.1c-1,0-2,0.6-2.4,1.3v3.6
		C175.9,530.8,176.8,531.4,177.8,531.4z"/>
	<path class="st3" d="M182.8,528.3c0-2.1,1.3-3.8,3.5-3.8c2.1,0,3.5,1.7,3.5,3.8s-1.3,3.8-3.5,3.8
		C184.2,532.1,182.8,530.4,182.8,528.3z M189,528.3c0-1.6-0.9-3.1-2.7-3.1c-1.7,0-2.6,1.5-2.6,3.1c0,1.6,1,3.1,2.6,3.1
		C188,531.4,189,529.9,189,528.3z"/>
	<path class="st3" d="M191.4,528.3c0-2.1,1.4-3.8,3.5-3.8c2.1,0,3.5,1.7,3.5,3.8s-1.3,3.8-3.5,3.8
		C192.8,532.1,191.4,530.4,191.4,528.3z M197.5,528.3c0-1.6-0.9-3.1-2.7-3.1c-1.7,0-2.6,1.5-2.6,3.1c0,1.6,1,3.1,2.6,3.1
		C196.6,531.4,197.5,529.9,197.5,528.3z"/>
	<path class="st3" d="M205.4,531.9l-2.9-3.5l-1.3,1.3v2.2h-0.8v-10h0.8v6.9l4.3-4.1h1l-3.4,3.3l3.4,4H205.4z"/>
	<path class="st3" d="M208,533.7l-0.4-0.4c0.5-0.3,0.8-0.9,0.9-1.4c0,0-0.1,0-0.2,0c-0.4,0-0.6-0.3-0.6-0.6c0-0.3,0.3-0.6,0.6-0.6
		c0.4,0,0.8,0.3,0.8,1C209.1,532.5,208.6,533.3,208,533.7z"/>
	<path class="st3" d="M217.7,531.9v-9.2h-3.3v-0.8h7.4v0.8h-3.3v9.2H217.7z"/>
	<path class="st3" d="M228.8,531.9l-2-6.2l-2,6.2H224l-2.4-7.2h0.8l1.9,6.2l2-6.2h0.7l2,6.2l1.9-6.2h0.8l-2.4,7.2H228.8z"/>
	<path class="st3" d="M233.1,522.9c0-0.3,0.3-0.6,0.6-0.6c0.3,0,0.6,0.3,0.6,0.6s-0.3,0.6-0.6,0.6
		C233.4,523.5,233.1,523.3,233.1,522.9z M233.3,531.9v-7.2h0.8v7.2H233.3z"/>
	<path class="st3" d="M236.7,530.5v-5.2h-1.2v-0.7h1.2v-2h0.8v2h1.5v0.7h-1.5v5c0,0.6,0.2,1,0.8,1c0.3,0,0.6-0.2,0.8-0.3l0.3,0.6
		c-0.3,0.3-0.6,0.4-1.2,0.4C237.2,532.1,236.7,531.5,236.7,530.5z"/>
	<path class="st3" d="M240.8,530.5v-5.2h-1.2v-0.7h1.2v-2h0.8v2h1.5v0.7h-1.5v5c0,0.6,0.2,1,0.8,1c0.3,0,0.6-0.2,0.8-0.3l0.3,0.6
		c-0.3,0.3-0.6,0.4-1.2,0.4C241.3,532.1,240.8,531.5,240.8,530.5z"/>
	<path class="st3" d="M244.4,528.3c0-2.1,1.5-3.8,3.5-3.8c2.2,0,3.4,1.7,3.4,3.8v0.2h-6.1c0.1,1.6,1.1,2.9,2.8,2.9
		c0.9,0,1.8-0.3,2.4-1l0.4,0.5c-0.7,0.8-1.6,1.2-2.8,1.2C245.9,532.1,244.4,530.5,244.4,528.3z M247.9,525.2c-1.7,0-2.6,1.5-2.6,2.8
		h5.3C250.5,526.7,249.7,525.2,247.9,525.2z"/>
	<path class="st3" d="M253.3,531.9v-7.2h0.8v1.2c0.6-0.8,1.4-1.4,2.4-1.4v0.9c-0.1,0-0.2,0-0.4,0c-0.7,0-1.7,0.7-2.1,1.3v5.3H253.3z
		"/>
	<path class="st3" d="M266.6,531.9v-0.9c-0.6,0.7-1.5,1-2.5,1c-1.2,0-2.5-0.9-2.5-2.4c0-1.6,1.3-2.4,2.5-2.4c1,0,1.8,0.3,2.5,1v-1.5
		c0-1.1-0.9-1.7-1.9-1.7c-0.9,0-1.6,0.3-2.3,1.1l-0.4-0.5c0.8-0.8,1.6-1.2,2.8-1.2c1.5,0,2.6,0.7,2.6,2.3v5.1H266.6z M266.6,530.5
		v-1.6c-0.5-0.7-1.3-1-2.2-1c-1.2,0-2,0.8-2,1.8c0,1,0.8,1.8,2,1.8C265.2,531.5,266,531.1,266.6,530.5z"/>
	<path class="st3" d="M274.7,531.9V527c0-1.4-0.7-1.8-1.8-1.8c-0.9,0-1.9,0.6-2.4,1.2v5.5h-0.8v-7.2h0.8v1.1
		c0.5-0.6,1.6-1.3,2.6-1.3c1.5,0,2.3,0.7,2.3,2.4v5.1H274.7z"/>
	<path class="st3" d="M283.2,531.9v-1.2c-0.5,0.8-1.4,1.3-2.5,1.3c-1.9,0-3.2-1.5-3.2-3.8c0-2.3,1.3-3.8,3.2-3.8
		c1,0,1.9,0.5,2.5,1.3v-3.9h0.8v10H283.2z M283.2,530.1v-3.6c-0.4-0.7-1.4-1.3-2.4-1.3c-1.6,0-2.5,1.3-2.5,3.1s0.9,3.1,2.5,3.1
		C281.8,531.4,282.8,530.8,283.2,530.1z"/>
	<path class="st3" d="M290.1,531.9v-10h0.9v9.2h4.8v0.8H290.1z"/>
	<path class="st3" d="M297.4,522.9c0-0.3,0.3-0.6,0.6-0.6c0.3,0,0.6,0.3,0.6,0.6s-0.3,0.6-0.6,0.6
		C297.7,523.5,297.4,523.3,297.4,522.9z M297.6,531.9v-7.2h0.8v7.2H297.6z"/>
	<path class="st3" d="M305.7,531.9V527c0-1.4-0.7-1.8-1.8-1.8c-0.9,0-1.9,0.6-2.4,1.2v5.5h-0.8v-7.2h0.8v1.1
		c0.5-0.6,1.6-1.3,2.6-1.3c1.5,0,2.3,0.7,2.3,2.4v5.1H305.7z"/>
	<path class="st3" d="M313.9,531.9l-2.9-3.5l-1.3,1.3v2.2h-0.8v-10h0.8v6.9l4.3-4.1h1l-3.4,3.3l3.4,4H313.9z"/>
	<path class="st3" d="M316,528.3c0-2.1,1.5-3.8,3.5-3.8c2.2,0,3.4,1.7,3.4,3.8v0.2h-6.1c0.1,1.6,1.1,2.9,2.8,2.9
		c0.9,0,1.8-0.3,2.4-1l0.4,0.5c-0.7,0.8-1.6,1.2-2.8,1.2C317.5,532.1,316,530.5,316,528.3z M319.5,525.2c-1.7,0-2.6,1.5-2.6,2.8h5.3
		C322.1,526.7,321.3,525.2,319.5,525.2z"/>
	<path class="st3" d="M330.3,531.9v-1.2c-0.5,0.8-1.4,1.3-2.5,1.3c-1.9,0-3.2-1.5-3.2-3.8c0-2.3,1.3-3.8,3.2-3.8
		c1,0,1.9,0.5,2.5,1.3v-3.9h0.8v10H330.3z M330.3,530.1v-3.6c-0.4-0.7-1.4-1.3-2.4-1.3c-1.6,0-2.5,1.3-2.5,3.1s0.9,3.1,2.5,3.1
		C328.9,531.4,329.9,530.8,330.3,530.1z"/>
	<path class="st3" d="M333.5,531.9v-10h0.9v10H333.5z"/>
	<path class="st3" d="M341.7,531.9V527c0-1.4-0.7-1.8-1.8-1.8c-0.9,0-1.9,0.6-2.4,1.2v5.5h-0.8v-7.2h0.8v1.1
		c0.5-0.6,1.6-1.3,2.6-1.3c1.5,0,2.3,0.7,2.3,2.4v5.1H341.7z"/>
</g>
<path class="st0" d="M352.4,649.9c0,6.5-5.2,11.7-11.7,11.7H39.3c-6.5,0-11.7-5.2-11.7-11.7V575c0-6.5,5.2-11.7,11.7-11.7h301.4
	c6.5,0,11.7,5.2,11.7,11.7V649.9z"/>
<rect x="48.7" y="639.9" class="st1" width="278.4" height="15.7"/>
<g>
	<g class="st2">
		<path class="st3" d="M122.9,631.9v-10h0.9v10H122.9z"/>
		<path class="st3" d="M131.1,631.9V627c0-1.4-0.7-1.8-1.8-1.8c-0.9,0-1.9,0.6-2.4,1.2v5.5h-0.8v-7.2h0.8v1.1
			c0.5-0.6,1.6-1.3,2.6-1.3c1.5,0,2.3,0.7,2.3,2.4v5.1H131.1z"/>
		<path class="st3" d="M133.5,628.6v-0.7h3.6v0.7H133.5z"/>
		<path class="st3" d="M143.4,631.9V631c-0.6,0.7-1.5,1-2.5,1c-1.2,0-2.5-0.9-2.5-2.4c0-1.6,1.3-2.4,2.5-2.4c1,0,1.8,0.3,2.5,1v-1.5
			c0-1.1-0.9-1.7-1.9-1.7c-0.9,0-1.6,0.3-2.3,1.1l-0.4-0.5c0.8-0.8,1.6-1.2,2.8-1.2c1.5,0,2.6,0.7,2.6,2.3v5.1H143.4z M143.4,630.5
			v-1.6c-0.5-0.7-1.3-1-2.2-1c-1.2,0-2,0.8-2,1.8c0,1,0.8,1.8,2,1.8C142.1,631.4,142.9,631.1,143.4,630.5z"/>
		<path class="st3" d="M147.4,630.7v3.9h-0.8v-10h0.8v1.1c0.5-0.7,1.4-1.3,2.5-1.3c1.9,0,3.2,1.5,3.2,3.8c0,2.3-1.3,3.8-3.2,3.8
			C148.9,632.1,148,631.5,147.4,630.7z M152.3,628.3c0-1.8-0.9-3.1-2.5-3.1c-1,0-2,0.6-2.4,1.3v3.6c0.4,0.7,1.4,1.3,2.4,1.3
			C151.4,631.4,152.3,630,152.3,628.3z"/>
		<path class="st3" d="M155.9,630.7v3.9h-0.8v-10h0.8v1.1c0.5-0.7,1.4-1.3,2.5-1.3c1.9,0,3.2,1.5,3.2,3.8c0,2.3-1.3,3.8-3.2,3.8
			C157.4,632.1,156.5,631.5,155.9,630.7z M160.8,628.3c0-1.8-0.9-3.1-2.5-3.1c-1,0-2,0.6-2.4,1.3v3.6c0.4,0.7,1.4,1.3,2.4,1.3
			C159.9,631.4,160.8,630,160.8,628.3z"/>
		<path class="st3" d="M172.1,631.9V631c-0.6,0.7-1.5,1-2.5,1c-1.2,0-2.5-0.9-2.5-2.4c0-1.6,1.3-2.4,2.5-2.4c1,0,1.8,0.3,2.5,1v-1.5
			c0-1.1-0.9-1.7-1.9-1.7c-0.9,0-1.6,0.3-2.3,1.1l-0.4-0.5c0.8-0.8,1.6-1.2,2.8-1.2c1.5,0,2.6,0.7,2.6,2.3v5.1H172.1z M172.1,630.5
			v-1.6c-0.5-0.7-1.3-1-2.2-1c-1.2,0-2,0.8-2,1.8c0,1,0.8,1.8,2,1.8C170.8,631.4,171.6,631.1,172.1,630.5z"/>
		<path class="st3" d="M180.7,631.9v-1.2c-0.5,0.8-1.4,1.3-2.5,1.3c-1.9,0-3.2-1.5-3.2-3.8c0-2.3,1.3-3.8,3.2-3.8c1,0,2,0.5,2.5,1.3
			v-3.9h0.8v10H180.7z M180.7,630.1v-3.6c-0.4-0.7-1.4-1.3-2.4-1.3c-1.6,0-2.5,1.3-2.5,3.1s0.9,3.1,2.5,3.1
			C179.3,631.4,180.3,630.8,180.7,630.1z"/>
		<path class="st3" d="M183.3,630.9l0.5-0.6c0.5,0.6,1.3,1.1,2.3,1.1c1.2,0,1.9-0.6,1.9-1.5c0-2-4.6-0.9-4.6-3.5c0-1.1,0.9-2,2.6-2
			c1.2,0,2.1,0.5,2.6,1.1l-0.4,0.6c-0.4-0.6-1.2-1-2.2-1c-1.1,0-1.8,0.6-1.8,1.3c0,1.8,4.6,0.7,4.6,3.5c0,1.2-0.9,2.1-2.7,2.1
			C184.9,632.1,184,631.7,183.3,630.9z"/>
		<path class="st3" d="M194.3,628.3c0-2.1,1.3-3.8,3.5-3.8c2.1,0,3.5,1.7,3.5,3.8s-1.3,3.8-3.5,3.8
			C195.6,632.1,194.3,630.4,194.3,628.3z M200.4,628.3c0-1.6-0.9-3.1-2.7-3.1c-1.7,0-2.6,1.5-2.6,3.1c0,1.6,1,3.1,2.6,3.1
			C199.4,631.4,200.4,629.9,200.4,628.3z"/>
		<path class="st3" d="M208.1,631.9V627c0-1.4-0.7-1.8-1.8-1.8c-0.9,0-1.9,0.6-2.4,1.2v5.5h-0.8v-7.2h0.8v1.1
			c0.5-0.6,1.6-1.3,2.6-1.3c1.5,0,2.3,0.7,2.3,2.4v5.1H208.1z"/>
		<path class="st3" d="M223.8,631.9v-5.1c0-1-0.4-1.7-1.5-1.7c-0.8,0-1.7,0.6-2.1,1.2v5.5h-0.8v-5.1c0-1-0.4-1.7-1.4-1.7
			c-0.8,0-1.7,0.6-2.1,1.2v5.5h-0.8v-7.2h0.8v1.1c0.3-0.5,1.3-1.3,2.3-1.3c1.1,0,1.7,0.7,1.9,1.4c0.4-0.7,1.4-1.4,2.4-1.4
			c1.3,0,2,0.8,2,2.2v5.2H223.8z"/>
		<path class="st3" d="M226.7,628.3c0-2.1,1.3-3.8,3.5-3.8c2.1,0,3.5,1.7,3.5,3.8s-1.3,3.8-3.5,3.8
			C228,632.1,226.7,630.4,226.7,628.3z M232.8,628.3c0-1.6-0.9-3.1-2.7-3.1c-1.7,0-2.6,1.5-2.6,3.1c0,1.6,1,3.1,2.6,3.1
			C231.8,631.4,232.8,629.9,232.8,628.3z"/>
		<path class="st3" d="M235.6,631.9v-10h0.8v3.9c0.6-0.8,1.5-1.3,2.5-1.3c1.9,0,3.2,1.5,3.2,3.8c0,2.3-1.3,3.8-3.2,3.8
			c-1.1,0-2-0.6-2.5-1.3v1.2H235.6z M238.8,631.4c1.6,0,2.5-1.3,2.5-3.1s-0.9-3.1-2.5-3.1c-1,0-2,0.6-2.4,1.3v3.6
			C236.8,630.8,237.8,631.4,238.8,631.4z"/>
		<path class="st3" d="M244,622.9c0-0.3,0.3-0.6,0.6-0.6c0.3,0,0.6,0.3,0.6,0.6s-0.3,0.6-0.6,0.6C244.3,623.5,244,623.2,244,622.9z
			 M244.2,631.9v-7.2h0.8v7.2H244.2z"/>
		<path class="st3" d="M247.4,631.9v-10h0.8v10H247.4z"/>
		<path class="st3" d="M250.2,628.3c0-2.1,1.5-3.8,3.5-3.8c2.2,0,3.4,1.7,3.4,3.8v0.2H251c0.1,1.6,1.1,2.9,2.8,2.9
			c0.9,0,1.8-0.3,2.4-1l0.4,0.5c-0.7,0.8-1.6,1.2-2.8,1.2C251.7,632.1,250.2,630.5,250.2,628.3z M253.7,625.1
			c-1.7,0-2.6,1.5-2.6,2.8h5.3C256.3,626.7,255.5,625.1,253.7,625.1z"/>
	</g>
	<g>
		<path class="st3" d="M157.2,605.1c0,2,0,4,0,5.9c0,0.9-0.3,1.1-1.1,1c-1.3-0.1-2.9,0.4-3.7-0.2c-0.8-0.7-0.2-2.4-0.3-3.6
			c0-3-0.1-5.9,0-8.9c0.2-5.3,2.8-8.2,8.1-8.8c2.6-0.3,5.3-0.3,7.9,0.1c1.6,0.2,3,0.8,4.3,1.8c0.4,0.3,0.6,0.5,1.1,0.1
			c1.4-1.2,3.2-1.8,5.1-1.9c2.8-0.2,5.7-0.3,8.5,0.2c4.2,0.7,6.8,3.7,6.9,8.4c0.1,4,0,8.1,0.1,12.1c0,0.6-0.2,0.9-0.8,0.8
			c-1,0-2.1-0.1-3.1,0c-0.9,0.1-1-0.3-1-1.1c0-3.6,0-7.3,0-10.9c0-3.7-1.4-5.1-5.1-5.1c-1.3,0-2.6,0-3.9,0c-3,0.1-4.5,1.6-4.5,4.6
			c0,3.7,0,7.5,0,11.2c0,0.9-0.1,1.4-1.2,1.3c-1.2-0.1-2.8,0.5-3.5-0.2s-0.2-2.3-0.2-3.5c0-2.9,0-5.8,0-8.8s-1.5-4.5-4.4-4.6
			c-1.6,0-3.1,0-4.7,0c-2.9,0.1-4.4,1.6-4.4,4.4C157.2,601.3,157.2,603.2,157.2,605.1z"/>
		<path class="st3" d="M148.4,605c0,2-0.1,4,0,5.9c0,1-0.3,1.2-1.2,1.1c-0.9-0.1-1.8-0.1-2.7,0c-0.8,0.1-1.1-0.2-1-1
			c0-3.7,0-7.4,0-11.1c0-3.5-1.4-5-5-5c-1.3,0-2.7,0-4,0c-3.1,0.1-4.5,1.5-4.6,4.6c0,3.8,0,7.6,0,11.3c0,0.9-0.2,1.3-1.2,1.2
			c-1.2-0.1-2.8,0.4-3.5-0.2c-0.8-0.6-0.2-2.3-0.2-3.5c0-3.1-0.1-6.1,0-9.2c0.1-4.9,2.7-7.9,7.6-8.6c2.9-0.4,5.9-0.4,8.9,0.1
			c4.2,0.7,6.8,3.8,6.9,8.2C148.4,600.9,148.4,603,148.4,605L148.4,605z"/>
		<path class="st3" d="M200.3,596.1c0.7-0.1,1.4-0.7,2.3-0.5c-1.2,2.7-0.6,5.5-0.7,8.3c-0.1,2.7,1.4,4.1,4.1,4.1c4.8,0,9.6,0,14.4,0
			c0.4,0,0.9-0.3,0.8,0.5c-0.5,0.6-0.9,0.9-1.6,1.4c-3,1.7-6.2,2.4-9.6,2.2c-2.1-0.1-4.3,0.3-6.4-0.3c-3.8-0.9-6.1-3.9-6.1-7.7
			c0-1.2,0-2.4,0-3.6c-0.1-1.5,0.4-2.7,1.6-3.6C199.8,596.4,199.9,596.3,200.3,596.1z"/>
		<path class="st3" d="M264.2,601.3c0,3.1-0.1,6.3,0,9.4c0,1.1-0.3,1.4-1.4,1.3c-1-0.1-2,0-3,0c-0.6,0-0.8-0.2-0.8-0.8
			c0-6.6,0-13.3,0-20c0-0.7,0.3-0.9,1-0.9c1,0,2.1,0.1,3.1,0c0.9-0.1,1,0.3,1,1.1C264.2,594.8,264.2,598.1,264.2,601.3z"/>
		<path class="st3" d="M116,601.3c0-3.2,0-6.5,0-9.7c0-0.8,0.1-1.2,1.1-1.1c0.9,0.1,1.9,0.1,2.8,0c1-0.1,1.2,0.3,1.2,1.2
			c0,6.4,0,12.8,0,19.3c0,0.9-0.2,1.3-1.2,1.2c-1.2-0.1-2.9,0.4-3.6-0.2c-0.8-0.7-0.2-2.4-0.2-3.6C116,605.9,116,603.6,116,601.3z"
			/>
		<path class="st3" d="M222.1,593.2c0.2,0.7,0.7,1.4,0.7,2.4c-1.6-1.4-3.5-1.1-5.3-1.1c-4,0-7.9,0-11.9,0c-2,0-3.9,0.4-5.7,1.4
			c-0.6,0.3-0.7,0.4-1.2,0.8c-0.4,0.2-0.8,0.5-1.1,1.1c-0.2-2.1,1.2-4.6,3.4-5.9c1.4-0.9,3-1.3,4.7-1.3c3.4,0,6.8,0.1,10.2,0
			C218.5,590.3,220.6,591.1,222.1,593.2z"/>
		<path class="st3" d="M221.6,608.8c1.4-1.4,2.2-3,2.1-5c-0.1-2.6,0.2-5.3-0.2-7.9c-0.2-1.1-0.4-2.1-1.1-3c-0.4-1-1.3-1.5-2.1-2.3
			c5,0.6,7.8,3.7,7.8,8.6c0,1.4-0.1,2.9,0,4.3c0.3,5.5-4.3,8.2-7.9,8.5c-1.2,0.1-2.5,0-4.1,0c1.5-0.7,2.8-1,3.8-1.9
			C220.6,609.6,221.1,609.2,221.6,608.8z"/>
		<path class="st3" d="M253.8,600.9c-0.3-0.2-0.5-0.5-0.2-0.9c0.8-1.3,0.7-2.8,0.7-4.3c-0.2-2.8-1.6-4.4-4.3-4.9
			c-0.9-0.2-1.8-0.3-2.7-0.3c-4.9,0-9.8,0-14.7,0c-1,0-1.2,0.3-1.2,1.2c0.1,3.1,0,6.3,0,9.4c0,3.3,0,6.7,0,10c0,0.6-0.1,1,0.8,1
			c5.8-0.1,11.6,0,17.4-0.1c1.8,0,3.5-0.7,4.7-2.3C255.7,607.8,255.9,602.4,253.8,600.9z M238.9,595c2.8,0,5.7,0,8.5,0
			c1,0,1.8,0.3,1.9,1.4c0.2,1.3-0.4,2-1.8,2.1c-1.7,0.1-3.5,0-5.3,0l0,0c-1.7,0-3.3,0-5,0c-0.6,0-0.9-0.1-1-0.8
			C236.3,595,236.2,595,238.9,595z M248,607.5c-1.7,0-3.5,0-5.3,0s-3.6,0-5.4,0c-0.7,0-1-0.1-1-0.9c-0.1-3.5-0.1-3.5,3.4-3.5
			c2.7,0,5.5,0,8.2,0c1.8,0,2.5,0.6,2.5,2.1C250.4,606.8,249.8,607.5,248,607.5z"/>
	</g>
</g>
<path class="st0" d="M352.4,764.4c0,6.5-5.2,11.7-11.7,11.7H39.3c-6.5,0-11.7-5.2-11.7-11.7v-74.9c0-6.5,5.2-11.7,11.7-11.7h301.4
	c6.5,0,11.7,5.2,11.7,11.7V764.4z"/>
<rect x="50.8" y="746.4" class="st1" width="278.4" height="15.7"/>
<g>
	<g class="st2">
		<path class="st3" d="M80.6,753.9v-10h3.7c1.9,0,3,1.4,3,2.9c0,1.6-1.1,2.9-3,2.9h-2.9v4.2H80.6z M86.5,746.8
			c0-1.3-0.9-2.1-2.2-2.1h-2.8v4.3h2.8C85.6,749,86.5,748.1,86.5,746.8z"/>
		<path class="st3" d="M89.1,753.9v-7.2h0.8v1.2c0.6-0.8,1.4-1.4,2.4-1.4v0.9c-0.1,0-0.2,0-0.4,0c-0.7,0-1.7,0.7-2.1,1.3v5.3H89.1z"
			/>
		<path class="st3" d="M93.5,750.3c0-2.1,1.5-3.8,3.5-3.8c2.2,0,3.4,1.7,3.4,3.8v0.2h-6.1c0.1,1.6,1.1,2.9,2.8,2.9
			c0.9,0,1.8-0.3,2.4-1l0.4,0.5c-0.7,0.8-1.6,1.2-2.8,1.2C95,754.1,93.5,752.5,93.5,750.3z M96.9,747.2c-1.7,0-2.6,1.5-2.6,2.8h5.3
			C99.6,748.7,98.8,747.2,96.9,747.2z"/>
		<path class="st3" d="M102,750.3c0-2.1,1.4-3.8,3.5-3.8c1.3,0,2,0.5,2.6,1.2l-0.5,0.5c-0.5-0.7-1.2-1-2-1c-1.7,0-2.7,1.3-2.7,3.1
			s1,3.1,2.7,3.1c0.8,0,1.5-0.3,2-1l0.5,0.5c-0.6,0.8-1.3,1.2-2.6,1.2C103.4,754.1,102,752.4,102,750.3z"/>
		<path class="st3" d="M109.6,744.9c0-0.3,0.3-0.6,0.6-0.6c0.3,0,0.6,0.3,0.6,0.6s-0.3,0.6-0.6,0.6
			C109.9,745.5,109.6,745.3,109.6,744.9z M109.8,753.9v-7.2h0.8v7.2H109.8z"/>
		<path class="st3" d="M112.4,752.9l0.5-0.6c0.5,0.6,1.3,1.1,2.3,1.1c1.2,0,1.9-0.6,1.9-1.5c0-2-4.6-0.9-4.6-3.5c0-1.1,0.9-2,2.6-2
			c1.2,0,2.1,0.5,2.6,1.1l-0.4,0.6c-0.4-0.6-1.2-1-2.2-1c-1.1,0-1.8,0.6-1.8,1.3c0,1.8,4.6,0.7,4.6,3.5c0,1.2-0.9,2.1-2.7,2.1
			C114,754.1,113.1,753.7,112.4,752.9z"/>
		<path class="st3" d="M119.5,750.3c0-2.1,1.5-3.8,3.5-3.8c2.2,0,3.4,1.7,3.4,3.8v0.2h-6.1c0.1,1.6,1.1,2.9,2.8,2.9
			c0.9,0,1.8-0.3,2.4-1l0.4,0.5c-0.7,0.8-1.6,1.2-2.8,1.2C121,754.1,119.5,752.5,119.5,750.3z M123,747.2c-1.7,0-2.6,1.5-2.6,2.8
			h5.3C125.6,748.7,124.8,747.2,123,747.2z"/>
		<path class="st3" d="M139.6,753.9l-1-2.5h-5.3l-1,2.5h-1l4.1-10h1.1l4.1,10H139.6z M135.9,744.8l-2.4,5.8h4.7L135.9,744.8z"/>
		<path class="st3" d="M146.7,753.9v-1.1c-0.6,0.7-1.6,1.2-2.6,1.2c-1.5,0-2.3-0.7-2.3-2.3v-5.1h0.8v4.9c0,1.4,0.7,1.8,1.8,1.8
			c0.9,0,1.9-0.6,2.4-1.2v-5.5h0.8v7.2H146.7z"/>
		<path class="st3" d="M155.3,753.9v-1.2c-0.5,0.8-1.4,1.3-2.5,1.3c-1.9,0-3.2-1.5-3.2-3.8c0-2.3,1.3-3.8,3.2-3.8c1,0,2,0.5,2.5,1.3
			v-3.9h0.8v10H155.3z M155.3,752.1v-3.6c-0.4-0.7-1.4-1.3-2.4-1.3c-1.6,0-2.5,1.3-2.5,3.1s0.9,3.1,2.5,3.1
			C153.9,753.4,154.8,752.8,155.3,752.1z"/>
		<path class="st3" d="M158.3,744.9c0-0.3,0.3-0.6,0.6-0.6c0.3,0,0.6,0.3,0.6,0.6s-0.3,0.6-0.6,0.6
			C158.6,745.5,158.3,745.3,158.3,744.9z M158.5,753.9v-7.2h0.8v7.2H158.5z"/>
		<path class="st3" d="M161.3,750.3c0-2.1,1.5-3.8,3.5-3.8c2.2,0,3.4,1.7,3.4,3.8v0.2h-6.1c0.1,1.6,1.1,2.9,2.8,2.9
			c0.9,0,1.8-0.3,2.4-1l0.4,0.5c-0.7,0.8-1.6,1.2-2.8,1.2C162.8,754.1,161.3,752.5,161.3,750.3z M164.8,747.2
			c-1.7,0-2.6,1.5-2.6,2.8h5.3C167.4,748.7,166.6,747.2,164.8,747.2z"/>
		<path class="st3" d="M175.1,753.9V749c0-1.4-0.7-1.8-1.8-1.8c-0.9,0-1.9,0.6-2.4,1.2v5.5h-0.8v-7.2h0.8v1.1
			c0.5-0.6,1.6-1.3,2.6-1.3c1.5,0,2.3,0.7,2.3,2.4v5.1H175.1z"/>
		<path class="st3" d="M177.9,750.3c0-2.1,1.4-3.8,3.5-3.8c1.3,0,2,0.5,2.6,1.2l-0.5,0.5c-0.5-0.7-1.2-1-2-1c-1.7,0-2.7,1.3-2.7,3.1
			s1,3.1,2.7,3.1c0.8,0,1.5-0.3,2-1l0.5,0.5c-0.6,0.8-1.3,1.2-2.6,1.2C179.3,754.1,177.9,752.4,177.9,750.3z"/>
		<path class="st3" d="M185.3,750.3c0-2.1,1.5-3.8,3.5-3.8c2.2,0,3.4,1.7,3.4,3.8v0.2h-6.1c0.1,1.6,1.1,2.9,2.8,2.9
			c0.9,0,1.8-0.3,2.4-1l0.4,0.5c-0.7,0.8-1.6,1.2-2.8,1.2C186.8,754.1,185.3,752.5,185.3,750.3z M188.8,747.2
			c-1.7,0-2.6,1.5-2.6,2.8h5.3C191.4,748.7,190.6,747.2,188.8,747.2z"/>
		<path class="st3" d="M206.6,753.9V745l-3.6,8.9h-0.3L199,745v8.9h-0.9v-10h1.3l3.4,8.3l3.4-8.3h1.3v10H206.6z"/>
		<path class="st3" d="M214.6,753.9v-0.9c-0.6,0.7-1.5,1-2.5,1c-1.2,0-2.5-0.9-2.5-2.4c0-1.6,1.3-2.4,2.5-2.4c1,0,1.8,0.3,2.5,1
			v-1.5c0-1.1-0.9-1.7-1.9-1.7c-0.9,0-1.6,0.3-2.3,1.1l-0.4-0.5c0.8-0.8,1.6-1.2,2.8-1.2c1.5,0,2.6,0.7,2.6,2.3v5.1H214.6z
			 M214.6,752.5v-1.6c-0.5-0.7-1.3-1-2.2-1c-1.2,0-2,0.8-2,1.8c0,1,0.8,1.8,2,1.8C213.2,753.5,214.1,753.1,214.6,752.5z"/>
		<path class="st3" d="M217.9,752.5v-5.2h-1.2v-0.7h1.2v-2h0.8v2h1.5v0.7h-1.5v5c0,0.6,0.2,1,0.8,1c0.3,0,0.6-0.2,0.8-0.3l0.3,0.6
			c-0.3,0.3-0.6,0.4-1.2,0.4C218.4,754.1,217.9,753.5,217.9,752.5z"/>
		<path class="st3" d="M221.5,750.3c0-2.1,1.4-3.8,3.5-3.8c1.3,0,2,0.5,2.6,1.2l-0.5,0.5c-0.5-0.7-1.2-1-2-1c-1.7,0-2.7,1.3-2.7,3.1
			s1,3.1,2.7,3.1c0.8,0,1.5-0.3,2-1l0.5,0.5c-0.6,0.8-1.3,1.2-2.6,1.2C222.9,754.1,221.5,752.4,221.5,750.3z"/>
		<path class="st3" d="M234.2,753.9V749c0-1.4-0.7-1.8-1.8-1.8c-0.9,0-1.9,0.6-2.4,1.2v5.5h-0.8v-10h0.8v3.9
			c0.5-0.6,1.6-1.3,2.6-1.3c1.5,0,2.3,0.7,2.3,2.3v5.1H234.2z"/>
		<path class="st3" d="M243.9,753.9v-9.2h-3.3v-0.8h7.4v0.8h-3.3v9.2H243.9z"/>
		<path class="st3" d="M252.8,753.9v-0.9c-0.6,0.7-1.5,1-2.5,1c-1.2,0-2.5-0.9-2.5-2.4c0-1.6,1.3-2.4,2.5-2.4c1,0,1.8,0.3,2.5,1
			v-1.5c0-1.1-0.9-1.7-1.9-1.7c-0.9,0-1.6,0.3-2.3,1.1l-0.4-0.5c0.8-0.8,1.6-1.2,2.8-1.2c1.5,0,2.6,0.7,2.6,2.3v5.1H252.8z
			 M252.8,752.5v-1.6c-0.5-0.7-1.3-1-2.2-1c-1.2,0-2,0.8-2,1.8c0,1,0.8,1.8,2,1.8C251.5,753.5,252.3,753.1,252.8,752.5z"/>
		<path class="st3" d="M256,753.9v-7.2h0.8v1.2c0.6-0.8,1.4-1.4,2.4-1.4v0.9c-0.1,0-0.2,0-0.4,0c-0.7,0-1.7,0.7-2.1,1.3v5.3H256z"/>
		<path class="st3" d="M260.8,755.7l0.5-0.6c0.6,0.8,1.3,1,2.4,1c1.3,0,2.5-0.7,2.5-2.3v-1.2c-0.5,0.8-1.4,1.4-2.5,1.4
			c-1.9,0-3.2-1.5-3.2-3.8c0-2.3,1.3-3.8,3.2-3.8c1,0,1.9,0.5,2.5,1.3v-1.2h0.8v7.2c0,2.2-1.5,3-3.3,3
			C262.4,756.8,261.6,756.6,260.8,755.7z M266.1,752v-3.5c-0.4-0.7-1.4-1.3-2.4-1.3c-1.6,0-2.5,1.3-2.5,3.1s0.9,3.1,2.5,3.1
			C264.7,753.4,265.7,752.7,266.1,752z"/>
		<path class="st3" d="M268.9,750.3c0-2.1,1.5-3.8,3.5-3.8c2.2,0,3.4,1.7,3.4,3.8v0.2h-6.1c0.1,1.6,1.1,2.9,2.8,2.9
			c0.9,0,1.8-0.3,2.4-1l0.4,0.5c-0.7,0.8-1.6,1.2-2.8,1.2C270.4,754.1,268.9,752.5,268.9,750.3z M272.4,747.2
			c-1.7,0-2.6,1.5-2.6,2.8h5.3C275,748.7,274.2,747.2,272.4,747.2z"/>
		<path class="st3" d="M278,752.5v-5.2h-1.2v-0.7h1.2v-2h0.8v2h1.5v0.7h-1.5v5c0,0.6,0.2,1,0.8,1c0.3,0,0.6-0.2,0.8-0.3l0.3,0.6
			c-0.3,0.3-0.6,0.4-1.2,0.4C278.4,754.1,278,753.5,278,752.5z"/>
		<path class="st3" d="M281.7,744.9c0-0.3,0.3-0.6,0.6-0.6c0.3,0,0.6,0.3,0.6,0.6s-0.3,0.6-0.6,0.6
			C282,745.5,281.7,745.3,281.7,744.9z M282,753.9v-7.2h0.8v7.2H282z"/>
		<path class="st3" d="M290.1,753.9V749c0-1.4-0.7-1.8-1.8-1.8c-0.9,0-1.9,0.6-2.4,1.2v5.5h-0.8v-7.2h0.8v1.1
			c0.5-0.6,1.6-1.3,2.6-1.3c1.5,0,2.3,0.7,2.3,2.4v5.1H290.1z"/>
		<path class="st3" d="M293.3,755.7l0.5-0.6c0.6,0.8,1.3,1,2.4,1c1.3,0,2.5-0.7,2.5-2.3v-1.2c-0.5,0.8-1.4,1.4-2.5,1.4
			c-1.9,0-3.2-1.5-3.2-3.8c0-2.3,1.3-3.8,3.2-3.8c1,0,1.9,0.5,2.5,1.3v-1.2h0.8v7.2c0,2.2-1.5,3-3.3,3
			C294.9,756.8,294.1,756.6,293.3,755.7z M298.6,752v-3.5c-0.4-0.7-1.4-1.3-2.4-1.3c-1.6,0-2.5,1.3-2.5,3.1s0.9,3.1,2.5,3.1
			C297.2,753.4,298.2,752.7,298.6,752z"/>
	</g>
	<g>
		<path class="st3" d="M123.7,710.6c-0.3,0.4-0.2,0.8-0.1,1.3c0.3,1,0.9,1.8,1.6,2.6c0.2,0.3,0.3,0.5,0.1,0.8c-0.6,0.9-1,1.9-1.1,3
			c0,0.2-0.1,0.4-0.3,0.5c-1,0.8-2,1.6-2.7,2.7c-0.3,0.5-0.6,1-0.7,1.5c0,0.3,0,0.5,0.1,0.8c0.2-0.1,0.3-0.3,0.4-0.4
			c1-1.2,2.1-2.4,3.4-3.4c0.2-0.2,0.4-0.3,0.7-0.4c1.2-0.7,2.3-0.6,3.3,0.4c0.7,0.7,1.3,1.5,2.1,2.1c0.4,0.3,0.9,0.7,1.4,0.9
			c0-0.4,0-0.7,0-1.1c0-0.3,0.1-0.5,0.4-0.6c0.2-0.1,0.5-0.1,0.7-0.1c0.5,0.1,0.7,0.2,0.8,0.7c0,0.4,0.1,0.8,0.2,1.2
			c0.2,0.9,0.7,1.8,1.4,2.4c0.3,0.2,0.3,0.4,0,0.6l-0.1,0.1c-0.9,0.7-1.2,0.7-2.1-0.1c-0.3-0.3-0.6-0.7-0.9-1
			c-0.2-0.3-0.4-0.4-0.7-0.5c-1.4-0.5-2.7-1.2-3.8-2.2c-0.6-0.6-1.2-0.5-1.7,0.2c-0.3,0.5-0.6,1-1,1.5c-0.5,0.8-1.1,1.5-1.8,2.1
			c-0.1,0.1-0.2,0.1-0.2,0.2c0,0.1,0.2,0.2,0.3,0.2c0.3,0.1,0.5,0,0.7-0.2c0.6-0.3,1-0.8,1.4-1.2c0.2-0.3,0.3-0.2,0.5,0.1
			c1.5,2.3,3.5,4,6.1,4.9c5.6,2,11.4-1.2,12.6-7.1c0.4-1.8,0.1-3.5-1.4-4.8c-1.2-1-2.6-1.4-4.1-0.9c-1.8,0.6-2.6,2.9-1.5,4.4
			c0.5,0.7,1.2,1,2,1c0.6,0,1-0.4,1.1-1c0-0.3-0.1-0.5-0.3-0.6s-0.5-0.2-0.8-0.3c-0.5-0.2-0.6-0.5-0.5-0.9c0.2-0.8,0.8-1.2,1.7-1.1
			c1.2,0.2,2.2,1.3,2.3,2.4c0.1,1-0.4,1.8-1.1,2.4c-2,1.9-5.8,1.2-6.9-1.3c-0.4-0.9-0.4-1.8-0.3-2.7c0.3-1.6,0.9-3,2.1-4.1
			c1.6-1.4,3.4-1.7,5.4-1.2c3.5,0.9,6,4.1,5.9,7.7c0,2-0.8,3.9-1.7,5.6c-2,3.7-5.2,6-9.2,7.2c-4.9,1.4-9.8,1.2-14.4-0.9
			c-3.7-1.7-6.5-4.6-8.5-8.2c-1.1-2-1.8-4.2-2-6.6c0-0.2,0-0.4-0.2-0.5s-0.2-0.3-0.2-0.5s0.1-0.5,0.2-0.7c0.1-0.3,0.3-0.5,0-0.8
			c-0.1-0.1-0.1-0.3-0.1-0.5c0.1-0.2,0.2-0.5,0.3-0.7c0.2-0.2,0.3-0.4,0-0.7c-0.2-0.2-0.2-0.5,0-0.8s0.4-0.6,0.6-0.8
			c0.1-0.1,0.2-0.2-0.1-0.3c-0.5-0.2-0.5-0.5-0.2-0.9s0.8-0.7,1.1-1.1c-0.1-0.2-0.3-0.1-0.4-0.1c-0.6-0.2-0.7-0.5-0.3-1
			c0.3-0.4,0.7-0.6,1.1-0.9c0.2-0.1,0.3-0.2,0.5-0.4c-0.3-0.2-0.5-0.3-0.8-0.4c-0.6-0.4-0.6-0.8,0-1.2c0.6-0.5,1.3-0.7,2-1
			c0.1,0,0.3-0.1,0.4-0.2c-0.2-0.2-0.5-0.4-0.7-0.7c-0.4-0.6-0.3-1,0.3-1.3c0.8-0.4,1.7-0.5,2.6-0.6c0,0,0.1,0,0.2,0
			c-0.2-0.3-0.5-0.6-0.7-0.9c-0.4-0.8-0.2-1.4,0.7-1.6c1-0.2,1.9-0.2,2.9-0.2c0.3,0,0.6,0,0.9,0.1c-0.1-0.4-0.2-0.7-0.3-1
			c-0.2-0.9,0.2-1.4,1.2-1.4c1,0.1,1.9,0.4,2.9,0.8c0.2,0.1,0.5,0.2,0.8,0.3c0-0.3-0.1-0.6-0.1-0.8s0-0.4,0-0.6
			c0.2-0.6,0.5-0.9,1.2-0.7c0.6,0.2,1.1,0.6,1.6,0.9c0.7,0.5,1.3,1,1.9,1.5c0.1-0.4,0.2-0.8,0.3-1.2c0.4-1,1-1.1,1.8-0.5
			c0.6,0.5,1.1,1.2,1.6,1.9c0,0.1,0.1,0.2,0.1,0.2c-0.1,1.3,0.3,2.6,0.5,3.9c0.1,0.9,0.2,1.8,0.3,2.6c0.3-0.4,0.3-0.9,0.4-1.4
			c0.1-1.4,0-2.8,0-4.2c0-0.7,0-1.3,0.2-2s0.4-0.9,1.1-0.8c2.5,0.3,4.6,1.4,6.3,3.3c2,2.2,3.1,4.8,3.3,7.8c0,0.6,0,1.1-0.2,1.7
			c-0.2,0.5-0.3,0.5-0.8,0.4c-1.4-0.3-2.7-0.8-4-1.2c-0.8-0.3-1.5-0.5-2.2-0.8c-0.2-0.1-0.4-0.2-0.5-0.3c-0.7-0.7-1-0.8-1.9-0.2
			c-0.2,0.1-0.3,0.2-0.5,0.4c0.3,0,0.5,0,0.8,0c0.4,0,0.7,0.1,1,0.4c0.2,0.3,0.5,0.4,0.9,0.6c2.1,0.7,4.2,1.4,6.2,2.2
			c0,0,0.1,0,0.1,0.1c-0.6,0.3-1.3,0.3-2,0.2c-1.9-0.2-3.7-0.8-5.5-1.5c-1.2-0.4-2.3-0.8-3.5-1.3c-2.1-0.9-4-0.7-6,0.3
			c-0.2,0.1-0.5,0.2-0.7,0.4c-0.2,0.1-0.3,0.1-0.4-0.1c-0.2-0.4-0.5-0.8-0.7-1.2c-0.2-0.3-0.4-0.6-0.6-0.9c-0.4-0.4-0.8-0.5-1.3-0.3
			c0.8,0.7,1.1,1.7,1.5,2.7c0.3,0.6,0.5,1.2,0.9,1.8c0.6,0.9,1.2,1.1,2.2,0.9c1.5-0.3,2.8-1.1,4-1.9c0.3-0.2,0.6-0.2,0.9-0.2
			c0.5,0.1,0.7,0.4,0.6,0.9c-0.1,0.3-0.2,0.5-0.4,0.7c-0.7,0.6-1.1,1.3-1.2,2.2c0,0.5-0.3,0.7-0.7,0.7s-0.7-0.2-0.8-0.6
			c-0.1-0.3-0.1-0.5-0.1-0.8s-0.1-0.3-0.3-0.2c-0.3,0.1-0.5,0.3-0.8,0.4c-0.6,0.4-1.2,0.8-1.9,1.1c-0.6,0.3-1.1,0.2-1.6-0.2
			c-1-0.8-1.8-1.8-2.6-2.8C125,712.3,124.4,711.4,123.7,710.6z M141.6,707.9c0.7,0.7,1.8,0.8,2.7,0.1s1.3-2,0.8-2.9
			s-1.6-1.3-2.6-0.9c-1,0.4-1.6,1.5-1.4,2.4c0.5-0.4,0.8-0.5,1.2-0.3c0.3,0.2,0.4,0.5,0.4,0.9C142.3,707.7,142.1,707.9,141.6,707.9z
			"/>
		<path class="st3" d="M197.1,714.9c0,3.8,0,7.6,0,11.4c0,1.5-0.8,2.7-2.1,3.2c-1.2,0.4-2.3,0.1-3.1-0.8c-0.2-0.2-0.4-0.2-0.6-0.1
			c-3.9,1.7-7.6,1.4-11-1.3c-2.9-2.4-4.2-5.5-3.7-9.3c0.5-4.5,3.8-8,8.3-8.9c2-0.4,3.9-0.2,5.8,0.5c0.4,0.2,0.4,0.2,0.4-0.3
			c0-2,0-4,0-6c0-1.8,1.3-3.1,3-3.2c1.6-0.1,3,1.2,3.2,2.9c0,0.2,0,0.4,0,0.6C197.1,707.4,197.1,711.1,197.1,714.9z M182.5,719.2
			c-0.1,2.2,1.8,4.1,4,4.2c2.3,0.1,4.3-1.7,4.4-4.1c0.1-2.2-1.7-4.2-4-4.3C184.5,715,182.6,716.7,182.5,719.2z"/>
		<path class="st3" d="M153,719.2c0-5.1,3.8-9.5,8.9-10.2c5.5-0.8,10.7,3,11.7,8.4c0.1,0.7,0.2,1.4,0.2,2.2c0,1.2,0.1,2.4,0.4,3.5
			c0.1,0.5,0.4,0.9,0.7,1.3c1.2,1.2,1.1,3.1,0,4.3c-1.2,1.2-3.1,1.2-4.4,0c-0.3-0.3-0.6-0.6-0.8-0.9c-0.1-0.2-0.2-0.2-0.4-0.1
			c-1.3,0.9-2.7,1.5-4.3,1.7c-4.2,0.6-8.4-1.3-10.5-5C153.4,722.8,153,721.1,153,719.2z M163.4,715c-2.3,0-4.2,1.9-4.2,4.2
			s1.9,4.2,4.2,4.2s4.2-1.9,4.2-4.1C167.5,716.9,165.7,715.1,163.4,715z"/>
		<path class="st3" d="M215.9,716.1c0.7,0.6,1.3,1.1,1.8,1.8c3.6,4.9,0.8,11.9-5.1,13c-0.5,0.1-0.9,0.1-1.4,0.1c-2.5,0-4.9,0-7.4,0
			c-2.1,0-3.9-1.5-4.4-3.5c-0.5-2.3,0.8-4.5,3-5.3c0.1,0,0.2-0.1,0.2-0.1c0-0.1-0.1-0.1-0.1-0.2c-2-1.6-3.2-3.7-3.2-6.3
			c-0.1-4.1,2.9-7.5,6.7-8.2c0.6-0.1,1.2-0.2,1.8-0.2c2.3,0,4.7,0,7,0c2.1,0,3.9,1.5,4.4,3.5c0.5,2.3-0.8,4.5-3,5.3
			C216.2,716,216.1,716,215.9,716.1z M211,710.1c-1.2,0-2.4,0-3.6,0c-0.4,0-0.9,0.1-1.3,0.2c-2.5,0.7-4.2,3.2-3.9,5.7
			c0.3,2.7,2.6,4.7,5.3,4.8c1.2,0,2.4,0,3.7,0s2.2,1.2,2,2.4c-0.2,1-1,1.6-2,1.6c-2.4,0-4.8,0-7.2,0c-1,0-1.8,0.8-1.7,1.8
			c0,0.9,0.8,1.5,1.8,1.5c2.3,0,4.6,0,7,0c0.4,0,0.8,0,1.3-0.1c2.6-0.5,4.6-3.1,4.3-5.7c-0.3-2.7-2.6-4.9-5.3-4.9
			c-1.2,0-2.4,0-3.6,0c-1.2,0-2.1-0.9-2.1-2.1c0-1.2,0.9-2,2.2-2c2.4,0,4.8,0,7.2,0c1,0,1.7-0.7,1.7-1.7c0-0.9-0.7-1.6-1.7-1.6
			C213.5,710.1,212.3,710.1,211,710.1z"/>
		<path class="st3" d="M221.1,713.3c0-2,0-4,0-6c0-2.2,1.4-4,3.5-4.5c2.4-0.6,4.8,1,5.4,3.4c0.1,0.4,0.2,0.5,0.6,0.5c1,0,2-0.1,3,0
			c2.1,0.3,3.7,2.2,3.8,4.4s-1.5,4.1-3.6,4.5c-1,0.2-2,0.1-2.9,0.1c-0.7,0-0.7,0-0.7,0.7c0,0.9,0,1.8,0,2.8c0,1.6,1.2,2.8,2.8,2.8
			c2.2,0,4,1.6,4.4,3.7c0.5,2.8-1.7,5.3-4.5,5.3c-5.8-0.1-10.7-4.3-11.6-10c-0.1-0.6-0.1-1.2-0.1-1.9
			C221.1,717.2,221.1,715.2,221.1,713.3z M224,713.5c0,2,0,3.9,0,5.9c0,0.4,0,0.8,0.1,1.2c0.6,3.8,3.4,6.7,7.3,7.5
			c0.5,0.1,1.1,0.2,1.7,0.1c0.9-0.1,1.6-0.9,1.5-1.7c-0.1-0.9-0.8-1.6-1.7-1.6c-3.2-0.1-5.6-2.5-5.6-5.7c0-2,0-3.9,0-5.9
			c0-0.4,0.1-0.5,0.5-0.5c1.7,0,3.4,0,5.1,0c1.2,0,2-1.2,1.5-2.3c-0.3-0.8-1-1-1.7-1c-1.7,0-3.4,0-5,0c-0.3,0-0.4-0.1-0.4-0.4
			c0-0.6,0-1.2,0-1.8c0-1-0.7-1.7-1.6-1.8c-1,0-1.7,0.7-1.7,1.8C224,709.4,224,711.4,224,713.5z"/>
		<path class="st3" d="M247.1,708.4c0.7,0.6,1.2,1.2,1.5,2.1c0.2,0.5,0.3,1,0.3,1.5c0,4.8,0,9.6,0,14.4c0,2.4-1.8,4.4-4.1,4.6
			c-2.3,0.2-4.4-1.5-4.8-3.8c0-0.2,0-0.4,0-0.7c0-4.9,0-9.7,0-14.6c0-1.3,0.5-2.5,1.5-3.4c0.2-0.2,0.2-0.2,0-0.4
			c-1.3-1.3-1.8-2.8-1.3-4.5c0.5-1.8,1.7-2.8,3.5-3.2c2.4-0.5,5,1.3,5.3,3.7C248.9,705.4,248.6,707.1,247.1,708.4z M242.6,719.2
			c0,1.5,0,3,0,4.4c0,1,0,1.9,0,2.9c0,0.9,0.7,1.5,1.5,1.6c0.7,0.1,1.5-0.4,1.7-1.2c0.1-0.3,0.1-0.6,0.1-0.9c0-4.6,0-9.2,0-13.7
			c0-0.2,0-0.5,0-0.7c-0.1-0.9-1.1-1.5-2-1.3c-0.8,0.2-1.3,0.8-1.3,1.7C242.6,714.5,242.6,716.9,242.6,719.2z M245.9,704.9
			c0-0.9-0.7-1.6-1.6-1.6c-0.9,0-1.7,0.7-1.7,1.6c0,0.9,0.7,1.6,1.6,1.6C245.2,706.5,245.9,705.8,245.9,704.9z"/>
		<path class="st3" d="M267.9,710.1c0,2.4-1.8,4.3-4.2,4.5c-0.7,0-1.4,0.1-1.9,0.5c-0.8,0.6-1.2,1.3-1.1,2.3c0,3,0,6,0,9
			c0,2.4-1.8,4.4-4.2,4.6c-2.3,0.2-4.4-1.4-4.8-3.8c0-0.1,0-0.3,0-0.4c0-3.3-0.1-6.6,0-9.9c0.2-4.4,2.3-7.7,6.1-9.9
			c1.7-1,3.6-1.4,5.6-1.4C265.9,705.5,267.9,707.6,267.9,710.1z M257.7,721.8c0-1.4,0-2.8,0-4.2c0-0.4,0-0.8,0.1-1.3
			c0.5-2.8,2.7-4.6,5.6-4.7c0.9,0,1.6-0.8,1.6-1.7s-0.7-1.6-1.6-1.6c-0.4,0-0.8,0-1.2,0.1c-4.2,0.5-7.7,4.2-7.8,8.4
			c-0.1,3.2,0,6.4,0,9.5c0,1,0.8,1.7,1.7,1.7s1.6-0.7,1.6-1.7C257.7,724.9,257.7,723.4,257.7,721.8z"/>
	</g>
</g>
<g>
	<g>
		<path class="st3" d="M149.5,475.1c0-3.8-3.4-7.2-7.2-7.2h-28.6c-3.8,0-7.2,3.4-7.2,7.2v28.6c0,3.8,3.4,7.2,7.2,7.2H128v-16.2h-5.2
			v-7.2h5.2v-2.8c0-4.8,3.6-9.1,8-9.1h5.8v7.2H136c-0.6,0-1.4,0.8-1.4,1.9v2.8h7.2v7.2h-7.2v16.2h7.6c3.8,0,7.2-3.4,7.2-7.2v-28.6
			H149.5z"/>
	</g>
	<g>
		<path class="st3" d="M216.6,474.9c-1.8,0.8-3.8,1.4-5.9,1.6c2.1-1.3,3.7-3.3,4.5-5.7c-2,1.2-4.2,2-6.5,2.5c-1.9-2-4.5-3.2-7.4-3.2
			c-5.6,0-10.2,4.6-10.2,10.2c0,0.8,0.1,1.6,0.3,2.3c-8.5-0.4-16-4.5-21.1-10.7c-0.9,1.5-1.4,3.3-1.4,5.1c0,3.5,1.8,6.7,4.5,8.5
			c-1.7,0-3.2-0.5-4.6-1.3v0.1c0,5,3.5,9.1,8.2,10c-0.9,0.2-1.8,0.3-2.7,0.3c-0.7,0-1.3-0.1-1.9-0.2c1.3,4.1,5.1,7,9.5,7.1
			c-3.5,2.7-7.9,4.4-12.7,4.4c-0.8,0-1.6,0-2.4-0.1c4.5,2.9,9.9,4.6,15.7,4.6c18.8,0,29.1-15.6,29.1-29.1V480
			C213.5,478.8,215.2,477,216.6,474.9L216.6,474.9z"/>
	</g>
	<g>
		<path class="st3" d="M270.3,467.9h-36.6c-1.8,0-3.2,1.4-3.2,3.1v36.8c0,1.7,1.4,3.1,3.2,3.1h36.6c1.8,0,3.2-1.4,3.2-3.1V471
			C273.5,469.3,272.1,467.9,270.3,467.9L270.3,467.9z M243.5,503.9H237v-19.4h6.5V503.9z M240.3,481.9L240.3,481.9
			c-2.2,0-3.6-1.5-3.6-3.4s1.5-3.4,3.7-3.4c2.2,0,3.6,1.4,3.6,3.4C244,480.4,242.6,481.9,240.3,481.9L240.3,481.9z M267,503.9h-6.5
			v-10.4c0-2.6-0.9-4.4-3.3-4.4c-1.8,0-2.9,1.2-3.3,2.4c-0.2,0.4-0.2,1-0.2,1.6v10.8h-6.5c0,0,0.1-17.6,0-19.4h6.5v2.8
			c0.9-1.3,2.4-3.2,5.9-3.2c4.3,0,7.5,2.8,7.5,8.7v11.1H267z M253.6,487.3L253.6,487.3L253.6,487.3L253.6,487.3z"/>
	</g>
</g>
</svg>
