<?xml version="1.0" encoding="utf-8"?>
<!-- Generator: Adobe Illustrator 19.1.0, SVG Export Plug-In . SVG Version: 6.00 Build 0)  -->
<svg version="1.1" id="Layer_1" xmlns="http://www.w3.org/2000/svg" xmlns:xlink="http://www.w3.org/1999/xlink" x="0px" y="0px"
	 viewBox="0 0 400 573.6" style="enable-background:new 0 0 400 573.6;" xml:space="preserve">
<style type="text/css">
	.st0{fill:#FFFFFF;}
	.st1{fill:none;}
	.st2{fill:#202020;}
	.st3{fill:#231F20;}
	.st4{fill:#202020;stroke:#FFFFFF;stroke-width:0.6102;stroke-miterlimit:10;}
	.st5{fill:#202020;stroke:#FFFFFF;stroke-miterlimit:10;}
	.st6{fill:none;stroke:#202020;stroke-miterlimit:10;}
	.st7{fill:none;stroke:#202020;}
	.st8{fill:none;stroke:#FFFFFF;stroke-width:3;stroke-miterlimit:10;}
	.st9{fill:none;stroke:#FFFFFF;stroke-miterlimit:10;}
	.st10{fill:none;stroke:#FFFFFF;stroke-width:0.623;stroke-miterlimit:10;}
	.st11{fill:none;stroke:#FFFFFF;}
	.st12{fill:#1E1F1E;}
	.st13{fill-rule:evenodd;clip-rule:evenodd;fill:#202020;}
	.st14{fill-rule:evenodd;clip-rule:evenodd;fill:#FFFFFF;}
</style>
<path class="st0" d="M261.7,551.5c0,7.8-6.3,14.1-14.1,14.1h-91.2c-7.8,0-14.1-6.3-14.1-14.1v-90.2c0-7.8,6.3-14.1,14.1-14.1h91.2
	c7.8,0,14.1,6.3,14.1,14.1V551.5z"/>
<path class="st0" d="M189.4,419.5c0,7.8-6.3,14.1-14.1,14.1H84.1c-7.8,0-14.1-6.3-14.1-14.1v-90.2c0-7.8,6.3-14.1,14.1-14.1h91.2
	c7.8,0,14.1,6.3,14.1,14.1V419.5z"/>
<path class="st0" d="M335,419.5c0,7.8-6.3,14.1-14.1,14.1h-91.2c-7.8,0-14.1-6.3-14.1-14.1v-90.2c0-7.8,6.3-14.1,14.1-14.1h91.2
	c7.8,0,14.1,6.3,14.1,14.1V419.5z"/>
<path class="st0" d="M189.4,285.9c0,7.8-6.3,14.1-14.1,14.1H84.1c-7.8,0-14.1-6.3-14.1-14.1v-90.2c0-7.8,6.3-14.1,14.1-14.1h91.2
	c7.8,0,14.1,6.3,14.1,14.1V285.9z"/>
<path class="st0" d="M335,285.9c0,7.8-6.3,14.1-14.1,14.1h-91.2c-7.8,0-14.1-6.3-14.1-14.1v-90.2c0-7.8,6.3-14.1,14.1-14.1h91.2
	c7.8,0,14.1,6.3,14.1,14.1V285.9z"/>
<rect x="95.4" y="194.7" class="st1" width="60.9" height="60.9"/>
<path class="st2" d="M150.4,219.3h-6.2c-0.4-1.2-0.9-2.3-1.5-3.4l4.1-4.1c1-1,1-2.5,0-3.5l-1.8-1.7c-1-1-2.5-1-3.5,0l-4.2,4.2
	c-1.1-0.6-2.4-1.1-3.7-1.5v-5.4c0-1.4-1.1-2.5-2.5-2.5h-2.5c-1.4,0-2.5,1.1-2.5,2.5v5.4c-1.4,0.4-2.8,0.9-4,1.7l-3.5-3.5
	c-1-1-2.5-1-3.5,0l-1.8,1.8c-1,1-0.9,2.5,0,3.5l3.6,3.6c-0.8,1.3-1.3,2.8-1.6,4.3h-4.7c-1.4,0-2.5,1.1-2.5,2.5v2.5
	c0,1.4,1.1,2.5,2.5,2.5h5c0.5,1.5,1.1,2.9,2,4.1l-3.4,3.4c-1,1-1,2.5,0,3.5l1.7,1.8c1,1,2.5,1,3.5,0l3.8-3.8
	c1.3,0.6,2.6,1.1,4.1,1.3v5.2c0,1.4,1.1,2.5,2.5,2.5h2.5c1.4,0,2.5-1.1,2.5-2.5v-5.8c1.2-0.4,2.4-1,3.5-1.8l4,4c1,1,2.5,1,3.5,0
	l1.7-1.8c1-1,1-2.5,0-3.5l-4.4-4.4c0.5-1.1,1-2.2,1.2-3.5h5.9c1.4,0,2.5-1.1,2.5-2.5v-2.5C152.9,220.5,151.8,219.3,150.4,219.3z
	 M130,232.1c-4.6,0-8.4-3.7-8.4-8.4c0-4.6,3.8-8.4,8.4-8.4c4.6,0,8.4,3.7,8.4,8.4C138.4,228.3,134.6,232.1,130,232.1z"/>
<g>
	<path class="st3" d="M87.7,266.1v-10h3.8c1.9,0,3,1.4,3,2.9c0,1.6-1.1,2.9-3,2.9h-2.9v4.2H87.7z M93.6,259.1c0-1.3-0.9-2.1-2.2-2.1
		h-2.8v4.3h2.8C92.7,261.2,93.6,260.3,93.6,259.1z"/>
	<path class="st3" d="M95.7,262.5c0-2.1,1.5-3.8,3.5-3.8c2.2,0,3.4,1.7,3.4,3.8v0.2h-6.1c0.1,1.6,1.1,2.9,2.8,2.9
		c0.9,0,1.8-0.3,2.4-1l0.4,0.5c-0.7,0.8-1.6,1.2-2.8,1.2C97.2,266.3,95.7,264.7,95.7,262.5z M99.1,259.4c-1.7,0-2.6,1.5-2.6,2.8h5.3
		C101.7,260.9,100.9,259.4,99.1,259.4z"/>
	<path class="st3" d="M104.6,266.1v-7.2h0.8v1.2c0.6-0.8,1.4-1.4,2.4-1.4v0.9c-0.1,0-0.2,0-0.4,0c-0.7,0-1.7,0.7-2.1,1.3v5.3H104.6z
		"/>
	<path class="st3" d="M108.7,265.2l0.5-0.6c0.5,0.6,1.3,1.1,2.3,1.1c1.2,0,1.9-0.6,1.9-1.5c0-2-4.6-0.9-4.6-3.5c0-1.1,0.9-2,2.6-2
		c1.2,0,2.1,0.5,2.6,1.1l-0.4,0.6c-0.4-0.6-1.2-1-2.2-1c-1.1,0-1.8,0.6-1.8,1.3c0,1.8,4.6,0.7,4.6,3.5c0,1.2-0.9,2.1-2.7,2.1
		C110.3,266.3,109.4,266,108.7,265.2z"/>
	<path class="st3" d="M115.8,262.5c0-2.1,1.4-3.8,3.5-3.8c2.1,0,3.5,1.7,3.5,3.8s-1.3,3.8-3.5,3.8
		C117.2,266.3,115.8,264.6,115.8,262.5z M121.9,262.5c0-1.6-0.9-3.1-2.7-3.1c-1.7,0-2.6,1.5-2.6,3.1c0,1.6,1,3.1,2.6,3.1
		C121,265.6,121.9,264.1,121.9,262.5z"/>
	<path class="st3" d="M129.7,266.1v-4.9c0-1.4-0.7-1.8-1.8-1.8c-0.9,0-1.9,0.6-2.4,1.2v5.5h-0.8v-7.2h0.8v1.1
		c0.5-0.6,1.6-1.3,2.6-1.3c1.5,0,2.3,0.7,2.3,2.4v5.1H129.7z"/>
	<path class="st3" d="M137.5,266.1v-0.9c-0.6,0.7-1.5,1-2.5,1c-1.2,0-2.5-0.9-2.5-2.4c0-1.6,1.3-2.4,2.5-2.4c1,0,1.8,0.3,2.5,1v-1.5
		c0-1.1-0.9-1.7-1.9-1.7c-0.9,0-1.6,0.3-2.3,1.1l-0.4-0.5c0.8-0.8,1.6-1.2,2.8-1.2c1.5,0,2.6,0.7,2.6,2.3v5.1H137.5z M137.5,264.7
		v-1.6c-0.5-0.7-1.3-1-2.2-1c-1.2,0-2,0.8-2,1.8c0,1,0.8,1.8,2,1.8C136.2,265.7,137,265.4,137.5,264.7z"/>
	<path class="st3" d="M140.7,266.1v-10h0.8v10H140.7z"/>
	<path class="st3" d="M143.7,257.2c0-0.3,0.3-0.6,0.6-0.6c0.3,0,0.6,0.3,0.6,0.6s-0.3,0.6-0.6,0.6
		C144,257.8,143.7,257.5,143.7,257.2z M143.9,266.1v-7.2h0.8v7.2H143.9z"/>
	<path class="st3" d="M146.7,266.1v-0.6l4.3-5.9h-4.3v-0.7h5.3v0.6l-4.3,5.9h4.4v0.7H146.7z"/>
	<path class="st3" d="M153.7,262.5c0-2.1,1.5-3.8,3.5-3.8c2.2,0,3.4,1.7,3.4,3.8v0.2h-6.1c0.1,1.6,1.1,2.9,2.8,2.9
		c0.9,0,1.8-0.3,2.4-1l0.4,0.5c-0.7,0.8-1.6,1.2-2.8,1.2C155.2,266.3,153.7,264.7,153.7,262.5z M157.2,259.4c-1.7,0-2.6,1.5-2.6,2.8
		h5.3C159.8,260.9,159,259.4,157.2,259.4z"/>
	<path class="st3" d="M168,266.1V265c-0.5,0.8-1.4,1.3-2.5,1.3c-1.9,0-3.2-1.5-3.2-3.8c0-2.3,1.3-3.8,3.2-3.8c1,0,1.9,0.5,2.5,1.3
		v-3.9h0.8v10H168z M168,264.3v-3.6c-0.4-0.7-1.4-1.3-2.4-1.3c-1.6,0-2.5,1.3-2.5,3.1s0.9,3.1,2.5,3.1
		C166.6,265.6,167.6,265,168,264.3z"/>
	<path class="st3" d="M78.5,278.8l-2.8-4.1h-2.2v4.1h-0.9v-10h3.7c1.7,0,3,1.1,3,2.9c0,1.8-1.3,2.8-2.8,2.9l2.9,4.2H78.5z
		 M78.6,271.7c0-1.3-0.9-2.1-2.2-2.1h-2.8v4.3h2.8C77.7,273.9,78.6,273,78.6,271.7z"/>
	<path class="st3" d="M80.7,275.2c0-2.1,1.5-3.8,3.5-3.8c2.2,0,3.4,1.7,3.4,3.8v0.2h-6.1c0.1,1.6,1.1,2.9,2.8,2.9
		c0.9,0,1.8-0.3,2.4-1l0.4,0.5c-0.7,0.8-1.6,1.2-2.8,1.2C82.2,279,80.7,277.4,80.7,275.2z M84.2,272c-1.7,0-2.6,1.5-2.6,2.8h5.3
		C86.8,273.6,86,272,84.2,272z"/>
	<path class="st3" d="M89.2,275.2c0-2.1,1.4-3.8,3.5-3.8c1.3,0,2,0.5,2.6,1.2l-0.5,0.5c-0.5-0.7-1.2-1-2-1c-1.7,0-2.7,1.3-2.7,3.1
		s1,3.1,2.7,3.1c0.8,0,1.5-0.3,2-1l0.5,0.5c-0.6,0.8-1.3,1.2-2.6,1.2C90.6,279,89.2,277.3,89.2,275.2z"/>
	<path class="st3" d="M96.6,275.2c0-2.1,1.4-3.8,3.5-3.8c2.1,0,3.5,1.7,3.5,3.8s-1.3,3.8-3.5,3.8C98,279,96.6,277.3,96.6,275.2z
		 M102.7,275.2c0-1.6-0.9-3.1-2.7-3.1c-1.7,0-2.6,1.5-2.6,3.1c0,1.6,1,3.1,2.6,3.1C101.8,278.3,102.7,276.8,102.7,275.2z"/>
	<path class="st3" d="M114.2,278.8v-5.1c0-1-0.4-1.7-1.5-1.7c-0.8,0-1.7,0.6-2.1,1.2v5.5h-0.8v-5.1c0-1-0.4-1.7-1.4-1.7
		c-0.8,0-1.7,0.6-2.1,1.2v5.5h-0.8v-7.2h0.8v1.1c0.3-0.5,1.3-1.3,2.3-1.3c1.1,0,1.7,0.7,1.9,1.4c0.4-0.7,1.4-1.4,2.4-1.4
		c1.3,0,2,0.8,2,2.2v5.2H114.2z"/>
	<path class="st3" d="M126,278.8v-5.1c0-1-0.4-1.7-1.5-1.7c-0.8,0-1.7,0.6-2.1,1.2v5.5h-0.8v-5.1c0-1-0.4-1.7-1.4-1.7
		c-0.8,0-1.7,0.6-2.1,1.2v5.5h-0.8v-7.2h0.8v1.1c0.3-0.5,1.3-1.3,2.3-1.3c1.1,0,1.7,0.7,1.9,1.4c0.4-0.7,1.4-1.4,2.4-1.4
		c1.3,0,2,0.8,2,2.2v5.2H126z"/>
	<path class="st3" d="M128.8,275.2c0-2.1,1.5-3.8,3.5-3.8c2.2,0,3.4,1.7,3.4,3.8v0.2h-6.1c0.1,1.6,1.1,2.9,2.8,2.9
		c0.9,0,1.8-0.3,2.4-1l0.4,0.5c-0.7,0.8-1.6,1.2-2.8,1.2C130.3,279,128.8,277.4,128.8,275.2z M132.3,272c-1.7,0-2.6,1.5-2.6,2.8h5.3
		C134.9,273.6,134.1,272,132.3,272z"/>
	<path class="st3" d="M142.6,278.8v-4.9c0-1.4-0.7-1.8-1.8-1.8c-0.9,0-1.9,0.6-2.4,1.2v5.5h-0.8v-7.2h0.8v1.1
		c0.5-0.6,1.6-1.3,2.6-1.3c1.5,0,2.3,0.7,2.3,2.4v5.1H142.6z"/>
	<path class="st3" d="M151.2,278.8v-1.2c-0.5,0.8-1.4,1.3-2.5,1.3c-1.9,0-3.2-1.5-3.2-3.8c0-2.3,1.3-3.8,3.2-3.8
		c1,0,1.9,0.5,2.5,1.3v-3.9h0.8v10H151.2z M151.2,277v-3.6c-0.4-0.7-1.4-1.3-2.4-1.3c-1.6,0-2.5,1.3-2.5,3.1s0.9,3.1,2.5,3.1
		C149.8,278.3,150.8,277.7,151.2,277z"/>
	<path class="st3" d="M159,278.8v-0.9c-0.6,0.7-1.5,1-2.5,1c-1.2,0-2.5-0.9-2.5-2.4c0-1.6,1.3-2.4,2.5-2.4c1,0,1.8,0.3,2.5,1v-1.5
		c0-1.1-0.9-1.7-1.9-1.7c-0.9,0-1.6,0.3-2.3,1.1l-0.4-0.5c0.8-0.8,1.6-1.2,2.8-1.2c1.5,0,2.6,0.7,2.6,2.3v5.1H159z M159,277.4v-1.6
		c-0.5-0.7-1.3-1-2.2-1c-1.2,0-2,0.8-2,1.8c0,1,0.8,1.8,2,1.8C157.7,278.3,158.5,278,159,277.4z"/>
	<path class="st3" d="M162.4,277.4v-5.2h-1.2v-0.7h1.2v-2h0.8v2h1.5v0.7h-1.5v5c0,0.6,0.2,1,0.8,1c0.3,0,0.6-0.2,0.8-0.3l0.3,0.6
		c-0.3,0.3-0.6,0.4-1.2,0.4C162.9,279,162.4,278.4,162.4,277.4z"/>
	<path class="st3" d="M166.2,269.8c0-0.3,0.3-0.6,0.6-0.6c0.3,0,0.6,0.3,0.6,0.6s-0.3,0.6-0.6,0.6
		C166.4,270.4,166.2,270.1,166.2,269.8z M166.4,278.8v-7.2h0.8v7.2H166.4z"/>
	<path class="st3" d="M169.2,275.2c0-2.1,1.4-3.8,3.5-3.8c2.1,0,3.5,1.7,3.5,3.8s-1.3,3.8-3.5,3.8
		C170.5,279,169.2,277.3,169.2,275.2z M175.3,275.2c0-1.6-0.9-3.1-2.7-3.1c-1.7,0-2.6,1.5-2.6,3.1c0,1.6,1,3.1,2.6,3.1
		C174.3,278.3,175.3,276.8,175.3,275.2z"/>
	<path class="st3" d="M183,278.8v-4.9c0-1.4-0.7-1.8-1.8-1.8c-0.9,0-1.9,0.6-2.4,1.2v5.5h-0.8v-7.2h0.8v1.1c0.5-0.6,1.6-1.3,2.6-1.3
		c1.5,0,2.3,0.7,2.3,2.4v5.1H183z"/>
</g>
<g>
	<path class="st3" d="M102.2,400v-10h4.1c1.7,0,2.8,1,2.8,2.5c0,1.3-0.9,2.1-1.8,2.3c1.1,0.2,2,1.3,2,2.5c0,1.7-1.1,2.7-2.9,2.7
		H102.2z M108.1,392.7c0-1-0.7-1.9-2-1.9H103v3.7h3.2C107.5,394.5,108.1,393.7,108.1,392.7z M108.3,397.3c0-1-0.7-2-2.1-2H103v4h3.2
		C107.6,399.2,108.3,398.5,108.3,397.3z"/>
	<path class="st3" d="M111.2,391c0-0.3,0.3-0.6,0.6-0.6c0.3,0,0.6,0.3,0.6,0.6s-0.3,0.6-0.6,0.6C111.4,391.6,111.2,391.4,111.2,391z
		 M111.4,400v-7.2h0.8v7.2H111.4z"/>
	<path class="st3" d="M114.6,401.9l0.5-0.6c0.6,0.8,1.3,1,2.4,1c1.3,0,2.5-0.7,2.5-2.3v-1.2c-0.5,0.8-1.4,1.4-2.5,1.4
		c-1.9,0-3.2-1.5-3.2-3.8c0-2.3,1.3-3.8,3.2-3.8c1,0,1.9,0.5,2.5,1.3v-1.2h0.8v7.2c0,2.2-1.5,3-3.3,3
		C116.2,403,115.4,402.7,114.6,401.9z M119.9,398.2v-3.5c-0.4-0.7-1.4-1.3-2.4-1.3c-1.6,0-2.5,1.3-2.5,3.1s0.9,3.1,2.5,3.1
		C118.5,399.5,119.5,398.9,119.9,398.2z"/>
	<path class="st3" d="M127,400v-10h3.2c3.1,0,5.1,2.3,5.1,5c0,2.8-1.9,5-5.1,5H127z M134.4,395c0-2.3-1.5-4.2-4.2-4.2h-2.3v8.4h2.3
		C132.9,399.2,134.4,397.4,134.4,395z"/>
	<path class="st3" d="M142,400v-0.9c-0.6,0.7-1.5,1-2.5,1c-1.2,0-2.5-0.9-2.5-2.4c0-1.6,1.3-2.4,2.5-2.4c1,0,1.8,0.3,2.5,1V395
		c0-1.1-0.9-1.7-1.9-1.7c-0.9,0-1.6,0.3-2.3,1.1l-0.4-0.5c0.8-0.8,1.6-1.2,2.8-1.2c1.5,0,2.6,0.7,2.6,2.3v5.1H142z M142,398.6V397
		c-0.5-0.7-1.3-1-2.2-1c-1.2,0-2,0.8-2,1.8c0,1,0.8,1.8,2,1.8C140.7,399.6,141.5,399.3,142,398.6z"/>
	<path class="st3" d="M145.4,398.6v-5.2h-1.2v-0.7h1.2v-2h0.8v2h1.5v0.7h-1.5v5c0,0.6,0.2,1,0.8,1c0.3,0,0.6-0.2,0.8-0.3l0.3,0.6
		c-0.3,0.3-0.6,0.4-1.2,0.4C145.8,400.2,145.4,399.6,145.4,398.6z"/>
	<path class="st3" d="M153.9,400v-0.9c-0.6,0.7-1.5,1-2.5,1c-1.2,0-2.5-0.9-2.5-2.4c0-1.6,1.3-2.4,2.5-2.4c1,0,1.8,0.3,2.5,1V395
		c0-1.1-0.9-1.7-1.9-1.7c-0.9,0-1.6,0.3-2.3,1.1l-0.4-0.5c0.8-0.8,1.6-1.2,2.8-1.2c1.5,0,2.6,0.7,2.6,2.3v5.1H153.9z M153.9,398.6
		V397c-0.5-0.7-1.3-1-2.2-1c-1.2,0-2,0.8-2,1.8c0,1,0.8,1.8,2,1.8C152.6,399.6,153.4,399.3,153.9,398.6z"/>
	<path class="st3" d="M108.1,412.7l-1-2.5h-5.3l-1,2.5h-1l4.1-10h1.1l4.1,10H108.1z M104.5,403.6l-2.4,5.8h4.7L104.5,403.6z"/>
	<path class="st3" d="M115.4,412.7v-4.9c0-1.4-0.7-1.8-1.8-1.8c-0.9,0-1.9,0.6-2.4,1.2v5.5h-0.8v-7.2h0.8v1.1
		c0.5-0.6,1.6-1.3,2.6-1.3c1.5,0,2.3,0.7,2.3,2.4v5.1H115.4z"/>
	<path class="st3" d="M123.2,412.7v-0.9c-0.6,0.7-1.5,1-2.5,1c-1.2,0-2.5-0.9-2.5-2.4c0-1.6,1.3-2.4,2.5-2.4c1,0,1.8,0.3,2.5,1v-1.5
		c0-1.1-0.9-1.7-1.9-1.7c-0.9,0-1.6,0.3-2.3,1.1l-0.4-0.5c0.8-0.8,1.6-1.2,2.8-1.2c1.5,0,2.6,0.7,2.6,2.3v5.1H123.2z M123.2,411.2
		v-1.6c-0.5-0.7-1.3-1-2.2-1c-1.2,0-2,0.8-2,1.8c0,1,0.8,1.8,2,1.8C121.9,412.2,122.7,411.9,123.2,411.2z"/>
	<path class="st3" d="M126.4,412.7v-10h0.8v10H126.4z"/>
	<path class="st3" d="M129.3,414.8c0.2,0.1,0.5,0.1,0.6,0.1c0.5,0,0.8-0.2,1.1-0.9l0.6-1.3l-3.1-7.3h0.9l2.6,6.3l2.6-6.3h0.9
		l-3.7,8.8c-0.4,0.9-1,1.3-1.8,1.3c-0.3,0-0.6,0-0.8-0.1L129.3,414.8z"/>
	<path class="st3" d="M137,411.3v-5.2h-1.2v-0.7h1.2v-2h0.8v2h1.5v0.7h-1.5v5c0,0.6,0.2,1,0.8,1c0.3,0,0.6-0.2,0.8-0.3l0.3,0.6
		c-0.3,0.3-0.6,0.4-1.2,0.4C137.5,412.8,137,412.3,137,411.3z"/>
	<path class="st3" d="M140.8,403.7c0-0.3,0.3-0.6,0.6-0.6c0.3,0,0.6,0.3,0.6,0.6s-0.3,0.6-0.6,0.6
		C141.1,404.3,140.8,404,140.8,403.7z M141,412.7v-7.2h0.8v7.2H141z"/>
	<path class="st3" d="M143.8,409c0-2.1,1.4-3.8,3.5-3.8c1.3,0,2,0.5,2.6,1.2l-0.5,0.5c-0.5-0.7-1.2-1-2-1c-1.7,0-2.7,1.3-2.7,3.1
		s1,3.1,2.7,3.1c0.8,0,1.5-0.3,2-1l0.5,0.5c-0.6,0.8-1.3,1.2-2.6,1.2C145.2,412.8,143.8,411.2,143.8,409z"/>
	<path class="st3" d="M151,411.7l0.5-0.6c0.5,0.6,1.3,1.1,2.3,1.1c1.2,0,1.9-0.6,1.9-1.5c0-2-4.6-0.9-4.6-3.5c0-1.1,0.9-2,2.6-2
		c1.2,0,2.1,0.5,2.6,1.1l-0.4,0.6c-0.4-0.6-1.2-1-2.2-1c-1.1,0-1.8,0.6-1.8,1.3c0,1.8,4.6,0.7,4.6,3.5c0,1.2-0.9,2.1-2.7,2.1
		C152.6,412.8,151.7,412.5,151,411.7z"/>
</g>
<g>
	<path class="st2" d="M148,341.1c0,3-8.4,5.4-18.8,5.4c-10.4,0-18.8-2.4-18.8-5.4c0-3,8.4-5.4,18.8-5.4
		C139.5,335.8,148,338.2,148,341.1"/>
	<path class="st2" d="M129.1,349.2c-1.7,0-13.5-0.1-18.8-3.8v6.5c0,3,8.4,5.4,18.8,5.4c10.4,0,18.8-2.4,18.8-5.4v-6.5
		C142.6,349.1,130.8,349.2,129.1,349.2"/>
	<path class="st2" d="M129.1,360c-1.7,0-13.5-0.1-18.8-3.8v6.5c0,3,8.4,5.4,18.8,5.4c10.4,0,18.8-2.4,18.8-5.4v-6.5
		C142.6,359.9,130.8,360,129.1,360"/>
	<path class="st2" d="M129.1,370.8c-1.7,0-13.5-0.2-18.8-3.8v6.5c0,3,8.4,5.4,18.8,5.4c10.4,0,18.8-2.4,18.8-5.4V367
		C142.6,370.6,130.8,370.8,129.1,370.8"/>
</g>
<g>
	<path class="st3" d="M228.5,403.7l0.6-0.6c0.6,0.7,1.7,1.5,3.1,1.5c2,0,2.6-1.1,2.6-2c0-2.9-6-1.4-6-4.9c0-1.6,1.5-2.7,3.3-2.7
		c1.5,0,2.6,0.5,3.4,1.4l-0.6,0.6c-0.7-0.9-1.7-1.3-2.9-1.3c-1.3,0-2.3,0.8-2.3,1.8c0,2.6,6,1.2,6,4.9c0,1.3-0.9,2.8-3.6,2.8
		C230.5,405.3,229.2,404.6,228.5,403.7z"/>
	<path class="st3" d="M237.3,401.5c0-2.1,1.5-3.8,3.5-3.8c2.2,0,3.4,1.7,3.4,3.8v0.2h-6.1c0.1,1.6,1.1,2.9,2.8,2.9
		c0.9,0,1.8-0.3,2.4-1l0.4,0.5c-0.7,0.8-1.6,1.2-2.8,1.2C238.8,405.3,237.3,403.7,237.3,401.5z M240.8,398.3c-1.7,0-2.6,1.5-2.6,2.8
		h5.3C243.4,399.9,242.6,398.3,240.8,398.3z"/>
	<path class="st3" d="M246.2,406.9l0.5-0.6c0.6,0.8,1.3,1,2.4,1c1.3,0,2.5-0.7,2.5-2.3v-1.2c-0.5,0.8-1.4,1.4-2.5,1.4
		c-1.9,0-3.2-1.5-3.2-3.8c0-2.3,1.3-3.8,3.2-3.8c1,0,1.9,0.5,2.5,1.3v-1.2h0.8v7.2c0,2.2-1.5,3-3.3,3
		C247.8,408,247.1,407.8,246.2,406.9z M251.5,403.2v-3.5c-0.4-0.7-1.4-1.3-2.4-1.3c-1.6,0-2.5,1.3-2.5,3.1s0.9,3.1,2.5,3.1
		C250.2,404.5,251.1,403.9,251.5,403.2z"/>
	<path class="st3" d="M263.4,405.1V400c0-1-0.4-1.7-1.5-1.7c-0.8,0-1.7,0.6-2.1,1.2v5.5h-0.8V400c0-1-0.4-1.7-1.4-1.7
		c-0.8,0-1.7,0.6-2.1,1.2v5.5h-0.8v-7.2h0.8v1.1c0.3-0.5,1.3-1.3,2.3-1.3c1.1,0,1.7,0.7,1.9,1.4c0.4-0.7,1.4-1.4,2.4-1.4
		c1.3,0,2,0.8,2,2.2v5.2H263.4z"/>
	<path class="st3" d="M266.2,401.5c0-2.1,1.5-3.8,3.5-3.8c2.2,0,3.4,1.7,3.4,3.8v0.2H267c0.1,1.6,1.1,2.9,2.8,2.9
		c0.9,0,1.8-0.3,2.4-1l0.4,0.5c-0.7,0.8-1.6,1.2-2.8,1.2C267.7,405.3,266.2,403.7,266.2,401.5z M269.6,398.3c-1.7,0-2.6,1.5-2.6,2.8
		h5.3C272.3,399.9,271.5,398.3,269.6,398.3z"/>
	<path class="st3" d="M280,405.1v-4.9c0-1.4-0.7-1.8-1.8-1.8c-0.9,0-1.9,0.6-2.4,1.2v5.5h-0.8v-7.2h0.8v1.1c0.5-0.6,1.6-1.3,2.6-1.3
		c1.5,0,2.3,0.7,2.3,2.4v5.1H280z"/>
	<path class="st3" d="M283.3,403.7v-5.2h-1.2v-0.7h1.2v-2h0.8v2h1.5v0.7h-1.5v5c0,0.6,0.2,1,0.8,1c0.3,0,0.6-0.2,0.8-0.3l0.3,0.6
		c-0.3,0.3-0.6,0.4-1.2,0.4C283.8,405.3,283.3,404.7,283.3,403.7z"/>
	<path class="st3" d="M291.9,405.1v-0.9c-0.6,0.7-1.5,1-2.5,1c-1.2,0-2.5-0.9-2.5-2.4c0-1.6,1.3-2.4,2.5-2.4c1,0,1.8,0.3,2.5,1V400
		c0-1.1-0.9-1.7-1.9-1.7c-0.9,0-1.6,0.3-2.3,1.1l-0.4-0.5c0.8-0.8,1.6-1.2,2.8-1.2c1.5,0,2.6,0.7,2.6,2.3v5.1H291.9z M291.9,403.7
		v-1.6c-0.5-0.7-1.3-1-2.2-1c-1.2,0-2,0.8-2,1.8c0,1,0.8,1.8,2,1.8C290.6,404.7,291.4,404.3,291.9,403.7z"/>
	<path class="st3" d="M295.3,403.7v-5.2h-1.2v-0.7h1.2v-2h0.8v2h1.5v0.7h-1.5v5c0,0.6,0.2,1,0.8,1c0.3,0,0.6-0.2,0.8-0.3l0.3,0.6
		c-0.3,0.3-0.6,0.4-1.2,0.4C295.7,405.3,295.3,404.7,295.3,403.7z"/>
	<path class="st3" d="M299,396.1c0-0.3,0.3-0.6,0.6-0.6c0.3,0,0.6,0.3,0.6,0.6s-0.3,0.6-0.6,0.6C299.3,396.7,299,396.4,299,396.1z
		 M299.3,405.1v-7.2h0.8v7.2H299.3z"/>
	<path class="st3" d="M302.1,401.5c0-2.1,1.4-3.8,3.5-3.8c2.1,0,3.5,1.7,3.5,3.8s-1.3,3.8-3.5,3.8
		C303.4,405.3,302.1,403.6,302.1,401.5z M308.2,401.5c0-1.6-0.9-3.1-2.7-3.1c-1.7,0-2.6,1.5-2.6,3.1c0,1.6,1,3.1,2.6,3.1
		C307.2,404.6,308.2,403.1,308.2,401.5z"/>
	<path class="st3" d="M315.9,405.1v-4.9c0-1.4-0.7-1.8-1.8-1.8c-0.9,0-1.9,0.6-2.4,1.2v5.5H311v-7.2h0.8v1.1
		c0.5-0.6,1.6-1.3,2.6-1.3c1.5,0,2.3,0.7,2.3,2.4v5.1H315.9z"/>
</g>
<path class="st2" d="M282.6,350.6c0,0-13.8,0-14.8,0h0c-1.3,0-2.3,1-2.3,2.3l0,14.3c0,1.3,1,2.3,2.3,2.3h0c0.7,0,1.3-0.4,1.8-0.9
	l0.9,13.9c0.1,1.2,1.1,2.2,2.4,2.2h4.7c1.2,0,2.3-0.9,2.4-2.2l0.9-13.9c0.4,0.5,1,0.9,1.8,0.9h0c1.2,0,2.3-1.1,2.3-2.3l0-14.2
	C284.9,351.7,283.9,350.6,282.6,350.6L282.6,350.6z M282.6,350.6"/>
<path class="st2" d="M281.5,342.7c0,3.5-2.8,6.3-6.3,6.3c-3.5,0-6.3-2.8-6.3-6.3s2.8-6.3,6.3-6.3
	C278.7,336.4,281.5,339.3,281.5,342.7L281.5,342.7z M281.5,342.7"/>
<g>
	<path class="st4" d="M266.2,349.9c0,0-8.8,0-9.5,0h0c-0.8,0-1.5,0.7-1.5,1.5l0,9.1c0,0.8,0.7,1.5,1.5,1.5h0c0.4,0,0.9-0.2,1.1-0.6
		l0.6,8.9c0,0.8,0.7,1.4,1.5,1.4h3c0.8,0,1.4-0.6,1.5-1.4l0.6-8.9c0.3,0.3,0.7,0.6,1.1,0.6l0,0c0.8,0,1.5-0.7,1.5-1.5l0-9.1
		C267.6,350.6,267,349.9,266.2,349.9L266.2,349.9z M266.2,349.9"/>
	<path class="st4" d="M265.5,344.9c0,2.2-1.8,4-4,4c-2.2,0-4-1.8-4-4c0-2.2,1.8-4,4-4C263.6,340.8,265.5,342.6,265.5,344.9
		L265.5,344.9z M265.5,344.9"/>
</g>
<g>
	<path class="st5" d="M294.7,349.9c0,0-8.8,0-9.5,0h0c-0.8,0-1.5,0.7-1.5,1.5l0,9.1c0,0.8,0.7,1.5,1.5,1.5h0c0.5,0,0.9-0.2,1.1-0.6
		l0.6,8.9c0,0.8,0.7,1.4,1.5,1.4h3c0.8,0,1.5-0.6,1.5-1.4l0.6-8.9c0.3,0.3,0.7,0.6,1.1,0.6h0c0.8,0,1.5-0.7,1.5-1.5l0-9.1
		C296.2,350.6,295.5,349.9,294.7,349.9L294.7,349.9z M294.7,349.9"/>
	<path class="st5" d="M294,344.9c0,2.2-1.8,4-4,4c-2.2,0-4-1.8-4-4c0-2.2,1.8-4,4-4C292.2,340.8,294,342.6,294,344.9L294,344.9z
		 M294,344.9"/>
</g>
<g>
	<path class="st3" d="M171.4,539.4v-10h3.8c1.9,0,3,1.4,3,2.9c0,1.6-1.1,2.9-3,2.9h-2.9v4.2H171.4z M177.3,532.4
		c0-1.3-0.9-2.1-2.2-2.1h-2.8v4.3h2.8C176.4,534.5,177.3,533.6,177.3,532.4z"/>
	<path class="st3" d="M179.9,539.4v-7.2h0.8v1.2c0.6-0.8,1.4-1.4,2.4-1.4v0.9c-0.1,0-0.2,0-0.4,0c-0.7,0-1.7,0.7-2.1,1.3v5.3H179.9z
		"/>
	<path class="st3" d="M184.3,535.8c0-2.1,1.5-3.8,3.5-3.8c2.2,0,3.4,1.7,3.4,3.8v0.2h-6.1c0.1,1.6,1.1,2.9,2.8,2.9
		c0.9,0,1.8-0.3,2.4-1l0.4,0.5c-0.7,0.8-1.6,1.2-2.8,1.2C185.8,539.6,184.3,538,184.3,535.8z M187.7,532.7c-1.7,0-2.6,1.5-2.6,2.8
		h5.3C190.4,534.2,189.6,532.7,187.7,532.7z"/>
	<path class="st3" d="M198.5,539.4v-1.2c-0.5,0.8-1.4,1.3-2.5,1.3c-1.9,0-3.2-1.5-3.2-3.8c0-2.3,1.3-3.8,3.2-3.8
		c1,0,1.9,0.5,2.5,1.3v-3.9h0.8v10H198.5z M198.5,537.6V534c-0.4-0.7-1.4-1.3-2.4-1.3c-1.6,0-2.5,1.3-2.5,3.1s0.9,3.1,2.5,3.1
		C197.2,538.9,198.1,538.3,198.5,537.6z"/>
	<path class="st3" d="M201.5,530.5c0-0.3,0.3-0.6,0.6-0.6c0.3,0,0.6,0.3,0.6,0.6s-0.3,0.6-0.6,0.6
		C201.8,531.1,201.5,530.8,201.5,530.5z M201.7,539.4v-7.2h0.8v7.2H201.7z"/>
	<path class="st3" d="M204.6,535.8c0-2.1,1.4-3.8,3.5-3.8c1.3,0,2,0.5,2.6,1.2l-0.5,0.5c-0.5-0.7-1.2-1-2-1c-1.7,0-2.7,1.3-2.7,3.1
		s1,3.1,2.7,3.1c0.8,0,1.5-0.3,2-1l0.5,0.5c-0.6,0.8-1.3,1.2-2.6,1.2C205.9,539.6,204.6,537.9,204.6,535.8z"/>
	<path class="st3" d="M212.5,538v-5.2h-1.2v-0.7h1.2v-2h0.8v2h1.5v0.7h-1.5v5c0,0.6,0.2,1,0.8,1c0.3,0,0.6-0.2,0.8-0.3l0.3,0.6
		c-0.3,0.3-0.6,0.4-1.2,0.4C213,539.6,212.5,539,212.5,538z"/>
	<path class="st3" d="M216.3,530.5c0-0.3,0.3-0.6,0.6-0.6c0.3,0,0.6,0.3,0.6,0.6s-0.3,0.6-0.6,0.6
		C216.6,531.1,216.3,530.8,216.3,530.5z M216.5,539.4v-7.2h0.8v7.2H216.5z"/>
	<path class="st3" d="M221.7,539.4l-3.1-7.2h0.9l2.6,6.3l2.6-6.3h0.9l-3.1,7.2H221.7z"/>
	<path class="st3" d="M226.5,535.8c0-2.1,1.5-3.8,3.5-3.8c2.2,0,3.4,1.7,3.4,3.8v0.2h-6.1c0.1,1.6,1.1,2.9,2.8,2.9
		c0.9,0,1.8-0.3,2.4-1l0.4,0.5c-0.7,0.8-1.6,1.2-2.8,1.2C228,539.6,226.5,538,226.5,535.8z M230,532.7c-1.7,0-2.6,1.5-2.6,2.8h5.3
		C232.6,534.2,231.8,532.7,230,532.7z"/>
	<path class="st3" d="M179.2,550.7l0.6-0.6c0.6,0.7,1.7,1.5,3.1,1.5c2,0,2.6-1.1,2.6-2c0-2.9-6-1.4-6-4.9c0-1.6,1.5-2.7,3.3-2.7
		c1.5,0,2.6,0.5,3.4,1.4l-0.6,0.6c-0.7-0.9-1.7-1.3-2.9-1.3c-1.3,0-2.3,0.8-2.3,1.8c0,2.6,6,1.2,6,4.9c0,1.3-0.9,2.8-3.6,2.8
		C181.3,552.3,180,551.6,179.2,550.7z"/>
	<path class="st3" d="M188.1,554.2c0.2,0.1,0.5,0.1,0.6,0.1c0.5,0,0.8-0.2,1.1-0.9l0.6-1.3l-3.1-7.3h0.9l2.6,6.3l2.6-6.3h0.9
		l-3.8,8.8c-0.4,0.9-1,1.3-1.8,1.3c-0.3,0-0.6,0-0.8-0.1L188.1,554.2z"/>
	<path class="st3" d="M195,551.1l0.5-0.6c0.5,0.6,1.3,1.1,2.3,1.1c1.2,0,1.9-0.6,1.9-1.5c0-2-4.6-0.9-4.6-3.5c0-1.1,0.9-2,2.6-2
		c1.2,0,2.1,0.5,2.6,1.1l-0.4,0.6c-0.4-0.6-1.2-1-2.2-1c-1.1,0-1.8,0.6-1.8,1.3c0,1.8,4.6,0.7,4.6,3.5c0,1.2-0.9,2.1-2.7,2.1
		C196.6,552.3,195.7,551.9,195,551.1z"/>
	<path class="st3" d="M202.7,550.7v-5.2h-1.2v-0.7h1.2v-2h0.8v2h1.5v0.7h-1.5v5c0,0.6,0.2,1,0.8,1c0.3,0,0.6-0.2,0.8-0.3l0.3,0.6
		c-0.3,0.3-0.6,0.4-1.2,0.4C203.2,552.3,202.7,551.7,202.7,550.7z"/>
	<path class="st3" d="M206.3,548.4c0-2.1,1.5-3.8,3.5-3.8c2.2,0,3.4,1.7,3.4,3.8v0.2h-6.1c0.1,1.6,1.1,2.9,2.8,2.9
		c0.9,0,1.8-0.3,2.4-1l0.4,0.5c-0.7,0.8-1.6,1.2-2.8,1.2C207.8,552.3,206.3,550.7,206.3,548.4z M209.7,545.3c-1.7,0-2.6,1.5-2.6,2.8
		h5.3C212.4,546.9,211.5,545.3,209.7,545.3z"/>
	<path class="st3" d="M223.8,552.1V547c0-1-0.4-1.7-1.5-1.7c-0.8,0-1.7,0.6-2.1,1.2v5.5h-0.8V547c0-1-0.4-1.7-1.4-1.7
		c-0.8,0-1.7,0.6-2.1,1.2v5.5h-0.8v-7.2h0.8v1.1c0.3-0.5,1.3-1.3,2.3-1.3c1.1,0,1.7,0.7,1.9,1.4c0.4-0.7,1.4-1.4,2.4-1.4
		c1.3,0,2,0.8,2,2.2v5.2H223.8z"/>
</g>
<path class="st6" d="M171.4,489.4c0,2-1.6,3.5-3.5,3.5c-2,0-3.5-1.6-3.5-3.5c0-2,1.6-3.5,3.5-3.5
	C169.8,485.8,171.4,487.4,171.4,489.4z"/>
<path class="st6" d="M191,477.5c0,2-1.6,3.5-3.5,3.5c-2,0-3.5-1.6-3.5-3.5c0-2,1.6-3.5,3.5-3.5C189.4,473.9,191,475.5,191,477.5z"/>
<path class="st6" d="M202.6,489.4c0,2-1.6,3.5-3.5,3.5c-2,0-3.5-1.6-3.5-3.5c0-2,1.6-3.5,3.5-3.5C201,485.8,202.6,487.4,202.6,489.4
	z"/>
<path class="st6" d="M214.1,477.5c0,2-1.6,3.5-3.5,3.5c-2,0-3.5-1.6-3.5-3.5c0-2,1.6-3.5,3.5-3.5
	C212.5,473.9,214.1,475.5,214.1,477.5z"/>
<path class="st6" d="M228.7,491.3c0,2-1.6,3.5-3.5,3.5c-2,0-3.5-1.6-3.5-3.5c0-2,1.6-3.5,3.5-3.5
	C227.1,487.7,228.7,489.3,228.7,491.3z"/>
<path class="st6" d="M235.4,492.6c0,5.6-4.6,10.2-10.2,10.2c-5.7,0-10.2-4.6-10.2-10.2c0-5.7,4.6-10.2,10.2-10.2
	C230.8,482.4,235.4,487,235.4,492.6z"/>
<path class="st6" d="M237.1,477.5c0,2-1.6,3.5-3.5,3.5c-2,0-3.5-1.6-3.5-3.5c0-2,1.6-3.5,3.5-3.5
	C235.6,473.9,237.1,475.5,237.1,477.5z"/>
<path class="st2" d="M243.8,517.6c0.3,0.5,0,1.1-0.6,1.5l0,0c-0.6,0.4-1.3,0.3-1.6-0.1l-11.2-17.4c-0.3-0.5,0-1.1,0.6-1.5l0,0
	c0.6-0.4,1.3-0.3,1.6,0.1L243.8,517.6z"/>
<line class="st7" x1="170.8" y1="488.8" x2="184.9" y2="478.6"/>
<line class="st7" x1="189.2" y1="480.1" x2="196.5" y2="487.7"/>
<line class="st7" x1="201.8" y1="487.9" x2="208.7" y2="480.1"/>
<line class="st7" x1="212.5" y1="479.9" x2="221.8" y2="489"/>
<line class="st7" x1="226.4" y1="488.3" x2="232" y2="480"/>
<g>
	<path class="st3" d="M243.6,261.1c0-3.1,2.2-5.2,5.1-5.2c1.6,0,2.8,0.7,3.6,1.8l-0.7,0.5c-0.6-0.9-1.7-1.5-2.9-1.5
		c-2.3,0-4.2,1.8-4.2,4.4c0,2.6,1.8,4.4,4.2,4.4c1.2,0,2.3-0.6,2.9-1.5l0.7,0.5c-0.9,1.1-2.1,1.8-3.7,1.8
		C245.9,266.3,243.6,264.2,243.6,261.1z"/>
	<path class="st3" d="M258.6,266.1v-0.9c-0.6,0.7-1.5,1-2.5,1c-1.2,0-2.5-0.9-2.5-2.4c0-1.6,1.3-2.4,2.5-2.4c1,0,1.8,0.3,2.5,1v-1.5
		c0-1.1-0.9-1.7-1.9-1.7c-0.9,0-1.6,0.3-2.3,1.1l-0.4-0.5c0.8-0.8,1.6-1.2,2.8-1.2c1.5,0,2.6,0.7,2.6,2.3v5.1H258.6z M258.6,264.7
		v-1.6c-0.5-0.7-1.3-1-2.2-1c-1.2,0-2,0.8-2,1.8c0,1,0.8,1.8,2,1.8C257.3,265.7,258.1,265.4,258.6,264.7z"/>
	<path class="st3" d="M270.5,266.1v-5.1c0-1-0.4-1.7-1.5-1.7c-0.8,0-1.7,0.6-2.1,1.2v5.5h-0.8v-5.1c0-1-0.4-1.7-1.4-1.7
		c-0.8,0-1.7,0.6-2.1,1.2v5.5h-0.8v-7.2h0.8v1.1c0.3-0.5,1.3-1.3,2.3-1.3c1.1,0,1.7,0.7,1.9,1.4c0.4-0.7,1.4-1.4,2.4-1.4
		c1.3,0,2,0.8,2,2.2v5.2H270.5z"/>
	<path class="st3" d="M274.5,265v3.9h-0.8v-10h0.8v1.1c0.5-0.7,1.4-1.3,2.5-1.3c1.9,0,3.2,1.5,3.2,3.8c0,2.3-1.3,3.8-3.2,3.8
		C276,266.3,275.1,265.8,274.5,265z M279.4,262.5c0-1.8-0.9-3.1-2.5-3.1c-1,0-2,0.6-2.4,1.3v3.6c0.4,0.7,1.4,1.3,2.4,1.3
		C278.5,265.6,279.4,264.3,279.4,262.5z"/>
	<path class="st3" d="M286.8,266.1v-0.9c-0.6,0.7-1.5,1-2.5,1c-1.2,0-2.5-0.9-2.5-2.4c0-1.6,1.3-2.4,2.5-2.4c1,0,1.8,0.3,2.5,1v-1.5
		c0-1.1-0.9-1.7-1.9-1.7c-0.9,0-1.6,0.3-2.3,1.1l-0.4-0.5c0.8-0.8,1.6-1.2,2.8-1.2c1.5,0,2.6,0.7,2.6,2.3v5.1H286.8z M286.8,264.7
		v-1.6c-0.5-0.7-1.3-1-2.2-1c-1.2,0-2,0.8-2,1.8c0,1,0.8,1.8,2,1.8C285.5,265.7,286.3,265.4,286.8,264.7z"/>
	<path class="st3" d="M289.8,257.2c0-0.3,0.3-0.6,0.6-0.6c0.3,0,0.6,0.3,0.6,0.6s-0.3,0.6-0.6,0.6
		C290.1,257.8,289.8,257.5,289.8,257.2z M290,266.1v-7.2h0.8v7.2H290z"/>
	<path class="st3" d="M293.2,268l0.5-0.6c0.6,0.8,1.3,1,2.4,1c1.3,0,2.5-0.7,2.5-2.3v-1.2c-0.5,0.8-1.4,1.4-2.5,1.4
		c-1.9,0-3.2-1.5-3.2-3.8c0-2.3,1.3-3.8,3.2-3.8c1,0,1.9,0.5,2.5,1.3v-1.2h0.8v7.2c0,2.2-1.5,3-3.3,3
		C294.9,269.1,294.1,268.9,293.2,268z M298.6,264.3v-3.5c-0.4-0.7-1.4-1.3-2.4-1.3c-1.6,0-2.5,1.3-2.5,3.1s0.9,3.1,2.5,3.1
		C297.2,265.6,298.1,265,298.6,264.3z"/>
	<path class="st3" d="M306.7,266.1v-4.9c0-1.4-0.7-1.8-1.8-1.8c-0.9,0-1.9,0.6-2.4,1.2v5.5h-0.8v-7.2h0.8v1.1
		c0.5-0.6,1.6-1.3,2.6-1.3c1.5,0,2.3,0.7,2.3,2.4v5.1H306.7z"/>
	<path class="st3" d="M255.4,280l-1-2.5h-5.3l-1,2.5h-1l4.1-10h1.1l4.1,10H255.4z M251.7,271l-2.4,5.8h4.7L251.7,271z"/>
	<path class="st3" d="M262.7,280v-4.9c0-1.4-0.7-1.8-1.8-1.8c-0.9,0-1.9,0.6-2.4,1.2v5.5h-0.8v-7.2h0.8v1.1c0.5-0.6,1.6-1.3,2.6-1.3
		c1.5,0,2.3,0.7,2.3,2.4v5.1H262.7z"/>
	<path class="st3" d="M270.5,280v-0.9c-0.6,0.7-1.5,1-2.5,1c-1.2,0-2.5-0.9-2.5-2.4c0-1.6,1.3-2.4,2.5-2.4c1,0,1.8,0.3,2.5,1V275
		c0-1.1-0.9-1.7-1.9-1.7c-0.9,0-1.6,0.3-2.3,1.1l-0.4-0.5c0.8-0.8,1.6-1.2,2.8-1.2c1.5,0,2.6,0.7,2.6,2.3v5.1H270.5z M270.5,278.6
		V277c-0.5-0.7-1.3-1-2.2-1c-1.2,0-2,0.8-2,1.8c0,1,0.8,1.8,2,1.8C269.2,279.6,270,279.3,270.5,278.6z"/>
	<path class="st3" d="M273.7,280v-10h0.8v10H273.7z"/>
	<path class="st3" d="M276.6,282.2c0.2,0.1,0.5,0.1,0.6,0.1c0.5,0,0.8-0.2,1.1-0.9l0.6-1.3l-3.1-7.3h0.9l2.6,6.3l2.6-6.3h0.9
		l-3.7,8.8c-0.4,0.9-1,1.3-1.8,1.3c-0.3,0-0.6,0-0.8-0.1L276.6,282.2z"/>
	<path class="st3" d="M284.3,278.7v-5.2h-1.2v-0.7h1.2v-2h0.8v2h1.5v0.7h-1.5v5c0,0.6,0.2,1,0.8,1c0.3,0,0.6-0.2,0.8-0.3l0.3,0.6
		c-0.3,0.3-0.6,0.4-1.2,0.4C284.7,280.2,284.3,279.6,284.3,278.7z"/>
	<path class="st3" d="M288,271.1c0-0.3,0.3-0.6,0.6-0.6c0.3,0,0.6,0.3,0.6,0.6s-0.3,0.6-0.6,0.6C288.3,271.7,288,271.4,288,271.1z
		 M288.3,280v-7.2h0.8v7.2H288.3z"/>
	<path class="st3" d="M291.1,276.4c0-2.1,1.4-3.8,3.5-3.8c1.3,0,2,0.5,2.6,1.2l-0.5,0.5c-0.5-0.7-1.2-1-2-1c-1.7,0-2.7,1.3-2.7,3.1
		s1,3.1,2.7,3.1c0.8,0,1.5-0.3,2-1l0.5,0.5c-0.6,0.8-1.3,1.2-2.6,1.2C292.4,280.2,291.1,278.5,291.1,276.4z"/>
	<path class="st3" d="M298.2,279.1l0.5-0.6c0.5,0.6,1.3,1.1,2.3,1.1c1.2,0,1.9-0.6,1.9-1.5c0-2-4.6-0.9-4.6-3.5c0-1.1,0.9-2,2.6-2
		c1.2,0,2.1,0.5,2.6,1.1l-0.4,0.6c-0.4-0.6-1.2-1-2.2-1c-1.1,0-1.8,0.6-1.8,1.3c0,1.8,4.6,0.7,4.6,3.5c0,1.2-0.9,2.1-2.7,2.1
		C299.9,280.2,299,279.9,298.2,279.1z"/>
</g>
<g>
	<path class="st2" d="M306.4,227.8l-4.6-4.6c-0.5-0.5-1.2-0.8-1.8-0.8l-1.5-1.6c2.3-3.7,1.9-8.6-1.3-11.7c-3.7-3.7-9.7-3.7-13.4,0
		c-3.7,3.7-3.7,9.7,0,13.4c3.2,3.2,8.1,3.6,11.7,1.3l1.6,1.5c0,0.7,0.3,1.3,0.8,1.8l4.6,4.6c1.1,1.1,2.9,1.1,4,0
		C307.5,230.6,307.5,228.9,306.4,227.8L306.4,227.8z M295.2,220.5c-2.6,2.6-6.8,2.6-9.4,0c-2.6-2.6-2.6-6.8,0-9.4
		c2.6-2.6,6.8-2.6,9.4,0C297.8,213.7,297.8,217.9,295.2,220.5L295.2,220.5z M295.2,220.5"/>
	<path class="st2" d="M290.6,211.8c-2.3,0-4.2,1.9-4.2,4.2c0,0.2,0,0.4,0,0.6l-1.1,0.6c0.2,0.9,0.7,1.7,1.4,2.3c0,0,0.1,0.1,0.1,0.1
		l1-0.6c0.7,0.7,1.7,1.1,2.8,1.1c2.3,0,4.2-1.9,4.2-4.2C294.8,213.7,292.9,211.8,290.6,211.8L290.6,211.8z M290.6,217.4
		c-0.8,0-1.4-0.6-1.4-1.4c0-0.8,0.6-1.4,1.4-1.4c0.8,0,1.4,0.6,1.4,1.4C292,216.7,291.4,217.4,290.6,217.4L290.6,217.4z
		 M290.6,217.4"/>
	<path class="st2" d="M277.8,225.3c0-0.1,0-0.2,0-0.3l4.3-2.5c-0.6-0.8-1.1-1.6-1.4-2.4l-4,2.3c-0.8-0.8-1.8-1.3-3-1.3
		c-1.5,0-2.8,0.8-3.5,1.9l-9.8-3.8c0-0.1,0-0.3,0-0.4c0-2.3-1.9-4.2-4.2-4.2c-2.3,0-4.2,1.9-4.2,4.2s1.9,4.2,4.2,4.2
		c1.2,0,2.2-0.5,3-1.2l10.4,4.1c0.3,2.1,2,3.7,4.2,3.7C275.9,229.5,277.8,227.6,277.8,225.3L277.8,225.3z M256.1,220.1
		c-0.8,0-1.4-0.6-1.4-1.4c0-0.8,0.6-1.4,1.4-1.4s1.4,0.6,1.4,1.4C257.4,219.5,256.8,220.1,256.1,220.1L256.1,220.1z M273.6,226.6
		c-0.8,0-1.4-0.6-1.4-1.4c0-0.8,0.6-1.4,1.4-1.4c0.8,0,1.4,0.6,1.4,1.4C275,226,274.3,226.6,273.6,226.6L273.6,226.6z M273.6,226.6"
		/>
	<path class="st2" d="M283.7,224.1l-4.4,2.6c-0.3,2.7-2.5,4.9-5.2,5.1v13.1h19.3v-18.7c-1,0.3-2,0.4-3,0.4
		C288,226.5,285.6,225.7,283.7,224.1L283.7,224.1z M283.7,224.1"/>
	<path class="st2" d="M268.1,227.8l-8.7-3.4c-1,0.7-2.1,1-3.3,1c-1.1,0-2-0.3-2.9-0.8v20.3h19.3v-13.1
		C270.4,231.3,268.7,229.8,268.1,227.8L268.1,227.8z M268.1,227.8"/>
</g>
<path class="st0" d="M336,154.4c0,7.8-6.3,14.1-14.1,14.1H84.1c-7.8,0-14.1-6.3-14.1-14.1V64.2c0-7.8,6.3-14.1,14.1-14.1h237.9
	c7.8,0,14.1,6.3,14.1,14.1V154.4z"/>
<g>
	<path class="st2" d="M116.3,86.6c0,3.2-2.6,5.8-5.8,5.8c-3.2,0-5.8-2.6-5.8-5.8c0-3.2,2.6-5.8,5.8-5.8
		C113.7,80.8,116.3,83.4,116.3,86.6L116.3,86.6z M116.3,86.6"/>
	<path class="st2" d="M152.7,86.6c0,3.2-2.6,5.8-5.8,5.8c-3.2,0-5.8-2.6-5.8-5.8c0-3.2,2.6-5.8,5.8-5.8
		C150.1,80.8,152.7,83.4,152.7,86.6L152.7,86.6z M152.7,86.6"/>
	<path class="st2" d="M152.7,117.6c0,3.2-2.6,5.8-5.8,5.8c-3.2,0-5.8-2.6-5.8-5.8c0-3.2,2.6-5.8,5.8-5.8
		C150.1,111.8,152.7,114.4,152.7,117.6L152.7,117.6z M152.7,117.6"/>
	<path class="st2" d="M116.3,117.6c0,3.2-2.6,5.8-5.8,5.8c-3.2,0-5.8-2.6-5.8-5.8c0-3.2,2.6-5.8,5.8-5.8
		C113.7,111.8,116.3,114.4,116.3,117.6L116.3,117.6z M116.3,117.6"/>
	<path class="st2" d="M154.7,100.6c0-4.2-3.5-7.6-7.9-7.6c-4.4,0-7.9,3.4-7.9,7.6v2.8l-4.6,4.9H123l-4.7-5v-2.6
		c0-4.2-3.5-7.6-7.9-7.6c-4.4,0-7.9,3.4-7.9,7.6v4.2h14.1l3.9,4.1v9.1l-4.6,8.2c-1.4-1.4-3.4-2.2-5.5-2.2c-4.4,0-7.9,3.4-7.9,7.6
		v4.2h15.8v-4.2c0-1.2-0.3-2.4-0.9-3.4l5.5-9.8h11.5l5.4,9.7c-0.6,1-0.9,2.2-0.9,3.5v4.2h15.8v-4.2c0-4.2-3.5-7.6-7.9-7.6
		c-2.1,0-4,0.8-5.4,2.1l-5-9v-7.7l4.3-4.7h14V100.6z M154.7,100.6"/>
</g>
<g>
	<path class="st3" d="M180.9,109.9v-6.2h0.9v6.2c0,2,1.1,3.3,3,3.3s3-1.2,3-3.3v-6.2h0.9v6.2c0,2.5-1.3,4-3.9,4
		C182.2,113.9,180.9,112.4,180.9,109.9z"/>
	<path class="st3" d="M196,113.7v-4.9c0-1.4-0.7-1.8-1.8-1.8c-0.9,0-1.9,0.6-2.4,1.2v5.5h-0.8v-7.2h0.8v1.1c0.5-0.6,1.6-1.3,2.6-1.3
		c1.5,0,2.3,0.7,2.3,2.4v5.1H196z"/>
	<path class="st3" d="M199,104.8c0-0.3,0.3-0.6,0.6-0.6c0.3,0,0.6,0.3,0.6,0.6s-0.3,0.6-0.6,0.6C199.3,105.4,199,105.1,199,104.8z
		 M199.2,113.7v-7.2h0.8v7.2H199.2z"/>
	<path class="st3" d="M202.7,113.7v-6.6h-1.2v-0.7h1.2v-0.7c0-1.4,0.8-2.3,2-2.3c0.4,0,0.7,0.1,1,0.2l-0.2,0.6
		c-0.2-0.1-0.4-0.2-0.7-0.2c-0.8,0-1.2,0.6-1.2,1.5v0.7h1.5v0.7h-1.5v6.6H202.7z M206.2,104.8c0-0.3,0.3-0.6,0.6-0.6
		c0.3,0,0.6,0.3,0.6,0.6s-0.3,0.6-0.6,0.6C206.5,105.4,206.2,105.1,206.2,104.8z M206.4,113.7v-7.2h0.8v7.2H206.4z"/>
	<path class="st3" d="M209.2,110.1c0-2.1,1.5-3.8,3.5-3.8c2.2,0,3.4,1.7,3.4,3.8v0.2H210c0.1,1.6,1.1,2.9,2.8,2.9
		c0.9,0,1.8-0.3,2.4-1l0.4,0.5c-0.7,0.8-1.6,1.2-2.8,1.2C210.7,113.9,209.2,112.4,209.2,110.1z M212.7,107c-1.7,0-2.6,1.5-2.6,2.8
		h5.3C215.3,108.5,214.5,107,212.7,107z"/>
	<path class="st3" d="M223.4,113.7v-1.2c-0.5,0.8-1.4,1.3-2.5,1.3c-1.9,0-3.2-1.5-3.2-3.8c0-2.3,1.3-3.8,3.2-3.8
		c1,0,1.9,0.5,2.5,1.3v-3.9h0.8v10H223.4z M223.4,111.9v-3.6c-0.4-0.7-1.4-1.3-2.4-1.3c-1.6,0-2.5,1.3-2.5,3.1s0.9,3.1,2.5,3.1
		C222.1,113.2,223,112.6,223.4,111.9z"/>
	<path class="st3" d="M230.6,109.9v-6.2h0.9v6.2c0,2,1.1,3.3,3,3.3s3-1.2,3-3.3v-6.2h0.9v6.2c0,2.5-1.3,4-3.9,4
		C231.9,113.9,230.6,112.4,230.6,109.9z"/>
	<path class="st3" d="M240.2,112.8l0.5-0.6c0.5,0.6,1.3,1.1,2.3,1.1c1.2,0,1.9-0.6,1.9-1.5c0-2-4.6-0.9-4.6-3.5c0-1.1,0.9-2,2.6-2
		c1.2,0,2.1,0.5,2.6,1.1l-0.4,0.6c-0.4-0.6-1.2-1-2.2-1c-1.1,0-1.8,0.6-1.8,1.3c0,1.8,4.6,0.7,4.6,3.5c0,1.2-0.9,2.1-2.7,2.1
		C241.8,113.9,240.9,113.6,240.2,112.8z"/>
	<path class="st3" d="M247.3,110.1c0-2.1,1.5-3.8,3.5-3.8c2.2,0,3.4,1.7,3.4,3.8v0.2h-6.1c0.1,1.6,1.1,2.9,2.8,2.9
		c0.9,0,1.8-0.3,2.4-1l0.4,0.5c-0.7,0.8-1.6,1.2-2.8,1.2C248.8,113.9,247.3,112.4,247.3,110.1z M250.8,107c-1.7,0-2.6,1.5-2.6,2.8
		h5.3C253.4,108.5,252.6,107,250.8,107z"/>
	<path class="st3" d="M256.2,113.7v-7.2h0.8v1.2c0.6-0.8,1.4-1.4,2.4-1.4v0.9c-0.1,0-0.2,0-0.4,0c-0.7,0-1.7,0.7-2.1,1.3v5.3H256.2z
		"/>
	<path class="st3" d="M268,113.7l-4.1-10h1l3.6,9l3.6-9h1l-4.1,10H268z"/>
	<path class="st3" d="M274.4,104.8c0-0.3,0.3-0.6,0.6-0.6c0.3,0,0.6,0.3,0.6,0.6s-0.3,0.6-0.6,0.6
		C274.7,105.4,274.4,105.1,274.4,104.8z M274.6,113.7v-7.2h0.8v7.2H274.6z"/>
	<path class="st3" d="M277.4,110.1c0-2.1,1.5-3.8,3.5-3.8c2.2,0,3.4,1.7,3.4,3.8v0.2h-6.1c0.1,1.6,1.1,2.9,2.8,2.9
		c0.9,0,1.8-0.3,2.4-1l0.4,0.5c-0.7,0.8-1.6,1.2-2.8,1.2C278.9,113.9,277.4,112.4,277.4,110.1z M280.8,107c-1.7,0-2.6,1.5-2.6,2.8
		h5.3C283.5,108.5,282.7,107,280.8,107z"/>
	<path class="st3" d="M292.5,113.7l-2-6.2l-2,6.2h-0.8l-2.4-7.2h0.8l1.9,6.2l2-6.2h0.7l2,6.2l1.9-6.2h0.8l-2.4,7.2H292.5z"/>
</g>
</svg>
