<?xml version="1.0" encoding="utf-8"?>
<!-- Generator: Adobe Illustrator 19.1.0, SVG Export Plug-In . SVG Version: 6.00 Build 0)  -->
<svg version="1.1" id="Layer_1" xmlns="http://www.w3.org/2000/svg" xmlns:xlink="http://www.w3.org/1999/xlink" x="0px" y="0px"
	 viewBox="0 0 356.8 700" style="enable-background:new 0 0 356.8 700;" xml:space="preserve">
<style type="text/css">
	.st0{fill:#4ABEBF;}
	.st1{fill:none;}
	.st2{fill:#FFFFFF;}
	.st3{fill:#231F20;}
	.st4{fill:#FFFFFF;stroke:#4BBEBE;stroke-width:0.6102;stroke-miterlimit:10;}
	.st5{fill:none;stroke:#FFFFFF;stroke-width:0.623;stroke-miterlimit:10;}
	.st6{fill:none;stroke:#FFFFFF;stroke-width:0.5196;stroke-miterlimit:10;}
	.st7{fill:none;stroke:#FFFFFF;stroke-width:0.5212;}
	.st8{fill:none;stroke:#FFFFFF;stroke-width:0.4075;}
	.st9{fill:none;stroke:#FFFFFF;stroke-width:0.415;}
	.st10{fill:none;stroke:#FFFFFF;stroke-width:0.4261;}
	.st11{fill:none;stroke:#FFFFFF;stroke-width:0.3943;}
	.st12{fill:#1E1F1E;}
	.st13{fill-rule:evenodd;clip-rule:evenodd;fill:#FFFFFF;}
</style>
<path class="st0" d="M126.7,123.8c0,5.5-4.4,9.9-9.9,9.9H52.8c-5.5,0-9.9-4.4-9.9-9.9V60.6c0-5.5,4.4-9.9,9.9-9.9h63.9
	c5.5,0,9.9,4.4,9.9,9.9V123.8z"/>
<g>
	<path class="st3" d="M58.2,117.6v-3l-2.8-4h0.7l2.4,3.5l2.4-3.5h0.7l-2.8,4v3H58.2z"/>
	<path class="st3" d="M61,115c0-1.5,1-2.7,2.4-2.7c1.5,0,2.5,1.2,2.5,2.7c0,1.5-1,2.7-2.5,2.7C61.9,117.7,61,116.5,61,115z
		 M65.3,115c0-1.1-0.7-2.2-1.9-2.2c-1.2,0-1.9,1-1.9,2.2c0,1.1,0.7,2.2,1.9,2.2C64.6,117.2,65.3,116.2,65.3,115z"/>
	<path class="st3" d="M70.8,117.6v-0.8c-0.4,0.5-1.1,0.9-1.8,0.9c-1,0-1.6-0.5-1.6-1.6v-3.6h0.5v3.5c0,1,0.5,1.3,1.2,1.3
		c0.7,0,1.3-0.4,1.7-0.8v-3.9h0.5v5.1H70.8z"/>
	<path class="st3" d="M73,117.6v-5.1h0.5v0.9c0.4-0.6,1-1,1.7-1v0.6c-0.1,0-0.2,0-0.3,0c-0.5,0-1.2,0.5-1.4,0.9v3.7H73z"/>
	<path class="st3" d="M82.9,117.6v-0.8c-0.4,0.5-1,0.9-1.8,0.9c-1.4,0-2.3-1-2.3-2.7c0-1.6,0.9-2.7,2.3-2.7c0.7,0,1.4,0.4,1.8,1
		v-2.8h0.6v7.1H82.9z M82.9,116.3v-2.5c-0.3-0.5-1-0.9-1.7-0.9c-1.1,0-1.8,1-1.8,2.2s0.7,2.2,1.8,2.2
		C81.9,117.2,82.6,116.8,82.9,116.3z"/>
	<path class="st3" d="M84.9,115c0-1.5,1-2.7,2.5-2.7c1.6,0,2.4,1.2,2.4,2.7v0.1h-4.3c0.1,1.1,0.8,2,2,2c0.6,0,1.2-0.2,1.7-0.7
		l0.3,0.4c-0.5,0.5-1.2,0.8-2,0.8C85.9,117.7,84.9,116.6,84.9,115z M87.3,112.8c-1.2,0-1.8,1.1-1.9,1.9h3.7
		C89.2,113.9,88.6,112.8,87.3,112.8z"/>
	<path class="st3" d="M90.7,116.9l0.3-0.4c0.3,0.4,0.9,0.8,1.6,0.8c0.9,0,1.4-0.4,1.4-1c0-1.4-3.2-0.6-3.2-2.4
		c0-0.8,0.7-1.4,1.8-1.4c0.9,0,1.5,0.3,1.8,0.8l-0.3,0.4c-0.3-0.4-0.8-0.7-1.5-0.7c-0.8,0-1.3,0.4-1.3,0.9c0,1.3,3.2,0.5,3.2,2.5
		c0,0.8-0.6,1.5-1.9,1.5C91.8,117.7,91.2,117.5,90.7,116.9z"/>
	<path class="st3" d="M99.5,117.6l-2-2.4l-1,0.9v1.5H96v-7.1h0.5v4.9l3-2.9h0.7l-2.4,2.3l2.4,2.8H99.5z"/>
	<path class="st3" d="M101.4,116.6V113h-0.8v-0.5h0.8v-1.4h0.6v1.4h1v0.5h-1v3.6c0,0.4,0.2,0.7,0.5,0.7c0.2,0,0.5-0.1,0.6-0.2
		l0.2,0.4c-0.2,0.2-0.4,0.3-0.9,0.3C101.8,117.7,101.4,117.3,101.4,116.6z"/>
	<path class="st3" d="M104,115c0-1.5,1-2.7,2.4-2.7c1.5,0,2.5,1.2,2.5,2.7c0,1.5-1,2.7-2.5,2.7C104.9,117.7,104,116.5,104,115z
		 M108.3,115c0-1.1-0.7-2.2-1.9-2.2c-1.2,0-1.9,1-1.9,2.2c0,1.1,0.7,2.2,1.9,2.2C107.6,117.2,108.3,116.2,108.3,115z"/>
	<path class="st3" d="M110.8,116.8v2.8h-0.5v-7.1h0.5v0.8c0.4-0.5,1-0.9,1.8-0.9c1.4,0,2.3,1,2.3,2.7c0,1.6-0.9,2.7-2.3,2.7
		C111.9,117.7,111.2,117.4,110.8,116.8z M114.3,115c0-1.2-0.6-2.2-1.8-2.2c-0.7,0-1.4,0.4-1.7,0.9v2.5c0.3,0.5,1,0.9,1.7,0.9
		C113.6,117.2,114.3,116.3,114.3,115z"/>
	<path class="st3" d="M72.7,129.2l-1.4-4.4l-1.4,4.4h-0.5l-1.7-5.1h0.6l1.4,4.3l1.4-4.3h0.5l1.4,4.3l1.4-4.3h0.6l-1.7,5.1H72.7z"/>
	<path class="st3" d="M75.7,126.6c0-1.5,1-2.7,2.5-2.7c1.6,0,2.4,1.2,2.4,2.7v0.1h-4.3c0.1,1.1,0.8,2,2,2c0.6,0,1.2-0.2,1.7-0.7
		l0.3,0.4c-0.5,0.5-1.2,0.8-2,0.8C76.7,129.3,75.7,128.2,75.7,126.6z M78.1,124.4c-1.2,0-1.8,1.1-1.9,1.9H80
		C80,125.5,79.4,124.4,78.1,124.4z"/>
	<path class="st3" d="M82,129.2v-7.1h0.5v2.8c0.4-0.6,1.1-1,1.8-1c1.4,0,2.3,1.1,2.3,2.7c0,1.6-0.9,2.7-2.3,2.7
		c-0.8,0-1.4-0.4-1.8-0.9v0.8H82z M84.2,128.8c1.1,0,1.8-0.9,1.8-2.2s-0.6-2.2-1.8-2.2c-0.7,0-1.4,0.4-1.7,0.9v2.5
		C82.8,128.4,83.5,128.8,84.2,128.8z"/>
	<path class="st3" d="M87.6,128.5l0.3-0.4c0.3,0.4,0.9,0.8,1.6,0.8c0.9,0,1.4-0.4,1.4-1c0-1.4-3.2-0.6-3.2-2.4
		c0-0.8,0.7-1.4,1.8-1.4c0.9,0,1.5,0.3,1.8,0.8l-0.3,0.4c-0.3-0.4-0.8-0.7-1.5-0.7c-0.8,0-1.3,0.4-1.3,0.9c0,1.3,3.2,0.5,3.2,2.5
		c0,0.8-0.6,1.5-1.9,1.5C88.7,129.3,88.1,129.1,87.6,128.5z"/>
	<path class="st3" d="M92.7,122.9c0-0.2,0.2-0.4,0.4-0.4c0.2,0,0.4,0.2,0.4,0.4c0,0.2-0.2,0.4-0.4,0.4
		C92.9,123.3,92.7,123.1,92.7,122.9z M92.8,129.2v-5.1h0.5v5.1H92.8z"/>
	<path class="st3" d="M95.2,128.2v-3.6h-0.8v-0.5h0.8v-1.4h0.6v1.4h1v0.5h-1v3.6c0,0.4,0.2,0.7,0.5,0.7c0.2,0,0.5-0.1,0.6-0.2
		l0.2,0.4c-0.2,0.2-0.4,0.3-0.9,0.3C95.5,129.3,95.2,128.9,95.2,128.2z"/>
	<path class="st3" d="M97.7,126.6c0-1.5,1-2.7,2.5-2.7c1.6,0,2.4,1.2,2.4,2.7v0.1h-4.3c0.1,1.1,0.8,2,2,2c0.6,0,1.2-0.2,1.7-0.7
		l0.3,0.4c-0.5,0.5-1.2,0.8-2,0.8C98.8,129.3,97.7,128.2,97.7,126.6z M100.2,124.4c-1.2,0-1.8,1.1-1.9,1.9h3.7
		C102,125.5,101.5,124.4,100.2,124.4z"/>
</g>
<path class="st0" d="M222,123.8c0,5.5-4.4,9.9-9.9,9.9h-63.9c-5.5,0-9.9-4.4-9.9-9.9V60.6c0-5.5,4.4-9.9,9.9-9.9h63.9
	c5.5,0,9.9,4.4,9.9,9.9V123.8z"/>
<g>
	<path class="st3" d="M156.9,117.6v-3l-2.8-4h0.7l2.4,3.5l2.4-3.5h0.7l-2.8,4v3H156.9z"/>
	<path class="st3" d="M159.7,115c0-1.5,1-2.7,2.4-2.7c1.5,0,2.5,1.2,2.5,2.7c0,1.5-1,2.7-2.5,2.7C160.6,117.7,159.7,116.5,159.7,115
		z M164,115c0-1.1-0.7-2.2-1.9-2.2c-1.2,0-1.9,1-1.9,2.2c0,1.1,0.7,2.2,1.9,2.2C163.3,117.2,164,116.2,164,115z"/>
	<path class="st3" d="M169.4,117.6v-0.8c-0.4,0.5-1.1,0.9-1.8,0.9c-1,0-1.6-0.5-1.6-1.6v-3.6h0.5v3.5c0,1,0.5,1.3,1.2,1.3
		c0.7,0,1.3-0.4,1.7-0.8v-3.9h0.5v5.1H169.4z"/>
	<path class="st3" d="M171.7,117.6v-5.1h0.5v0.9c0.4-0.6,1-1,1.7-1v0.6c-0.1,0-0.2,0-0.3,0c-0.5,0-1.2,0.5-1.4,0.9v3.7H171.7z"/>
	<path class="st3" d="M183.9,117.6V114c0-0.7-0.3-1.2-1-1.2c-0.5,0-1.2,0.4-1.5,0.9v3.9h-0.6V114c0-0.7-0.3-1.2-1-1.2
		c-0.5,0-1.2,0.4-1.5,0.9v3.9h-0.5v-5.1h0.5v0.8c0.2-0.3,0.9-0.9,1.6-0.9c0.8,0,1.2,0.5,1.3,1c0.3-0.5,1-1,1.7-1
		c0.9,0,1.4,0.5,1.4,1.6v3.7H183.9z"/>
	<path class="st3" d="M185.8,115c0-1.5,1-2.7,2.4-2.7c1.5,0,2.5,1.2,2.5,2.7c0,1.5-1,2.7-2.5,2.7C186.8,117.7,185.8,116.5,185.8,115
		z M190.2,115c0-1.1-0.7-2.2-1.9-2.2c-1.2,0-1.9,1-1.9,2.2c0,1.1,0.7,2.2,1.9,2.2C189.5,117.2,190.2,116.2,190.2,115z"/>
	<path class="st3" d="M192.2,117.6v-7.1h0.5v2.8c0.4-0.6,1.1-1,1.8-1c1.4,0,2.3,1.1,2.3,2.7c0,1.6-0.9,2.7-2.3,2.7
		c-0.8,0-1.4-0.4-1.8-0.9v0.8H192.2z M194.4,117.2c1.1,0,1.8-0.9,1.8-2.2s-0.6-2.2-1.8-2.2c-0.7,0-1.4,0.4-1.7,0.9v2.5
		C193,116.8,193.7,117.2,194.4,117.2z"/>
	<path class="st3" d="M198,111.3c0-0.2,0.2-0.4,0.4-0.4c0.2,0,0.4,0.2,0.4,0.4c0,0.2-0.2,0.4-0.4,0.4
		C198.2,111.7,198,111.5,198,111.3z M198.2,117.6v-5.1h0.5v5.1H198.2z"/>
	<path class="st3" d="M200.5,117.6v-7.1h0.5v7.1H200.5z"/>
	<path class="st3" d="M202.4,115c0-1.5,1-2.7,2.5-2.7c1.6,0,2.4,1.2,2.4,2.7v0.1H203c0.1,1.1,0.8,2,2,2c0.6,0,1.2-0.2,1.7-0.7
		l0.3,0.4c-0.5,0.5-1.2,0.8-2,0.8C203.5,117.7,202.4,116.6,202.4,115z M204.9,112.8c-1.2,0-1.8,1.1-1.9,1.9h3.7
		C206.7,113.9,206.2,112.8,204.9,112.8z"/>
	<path class="st3" d="M168.3,129.2l-1.4-4.4l-1.4,4.4h-0.5l-1.7-5.1h0.6l1.4,4.3l1.4-4.3h0.5l1.4,4.3l1.4-4.3h0.6l-1.7,5.1H168.3z"
		/>
	<path class="st3" d="M171.2,126.6c0-1.5,1-2.7,2.5-2.7c1.6,0,2.4,1.2,2.4,2.7v0.1h-4.3c0.1,1.1,0.8,2,2,2c0.6,0,1.2-0.2,1.7-0.7
		l0.3,0.4c-0.5,0.5-1.2,0.8-2,0.8C172.3,129.3,171.2,128.2,171.2,126.6z M173.7,124.4c-1.2,0-1.8,1.1-1.9,1.9h3.7
		C175.5,125.5,175,124.4,173.7,124.4z"/>
	<path class="st3" d="M177.5,129.2v-7.1h0.5v2.8c0.4-0.6,1.1-1,1.8-1c1.4,0,2.3,1.1,2.3,2.7c0,1.6-0.9,2.7-2.3,2.7
		c-0.8,0-1.4-0.4-1.8-0.9v0.8H177.5z M179.7,128.8c1.1,0,1.8-0.9,1.8-2.2s-0.6-2.2-1.8-2.2c-0.7,0-1.4,0.4-1.7,0.9v2.5
		C178.4,128.4,179,128.8,179.7,128.8z"/>
	<path class="st3" d="M183.1,128.5l0.3-0.4c0.3,0.4,0.9,0.8,1.6,0.8c0.9,0,1.4-0.4,1.4-1c0-1.4-3.2-0.6-3.2-2.4
		c0-0.8,0.7-1.4,1.8-1.4c0.9,0,1.5,0.3,1.8,0.8l-0.3,0.4c-0.3-0.4-0.8-0.7-1.5-0.7c-0.8,0-1.3,0.4-1.3,0.9c0,1.3,3.2,0.5,3.2,2.5
		c0,0.8-0.6,1.5-1.9,1.5C184.3,129.3,183.6,129.1,183.1,128.5z"/>
	<path class="st3" d="M188.3,122.9c0-0.2,0.2-0.4,0.4-0.4c0.2,0,0.4,0.2,0.4,0.4c0,0.2-0.2,0.4-0.4,0.4
		C188.5,123.3,188.3,123.1,188.3,122.9z M188.4,129.2v-5.1h0.5v5.1H188.4z"/>
	<path class="st3" d="M190.8,128.2v-3.6h-0.8v-0.5h0.8v-1.4h0.6v1.4h1v0.5h-1v3.6c0,0.4,0.2,0.7,0.5,0.7c0.2,0,0.5-0.1,0.6-0.2
		l0.2,0.4c-0.2,0.2-0.4,0.3-0.9,0.3C191.1,129.3,190.8,128.9,190.8,128.2z"/>
	<path class="st3" d="M193.3,126.6c0-1.5,1-2.7,2.5-2.7c1.6,0,2.4,1.2,2.4,2.7v0.1h-4.3c0.1,1.1,0.8,2,2,2c0.6,0,1.2-0.2,1.7-0.7
		l0.3,0.4c-0.5,0.5-1.2,0.8-2,0.8C194.3,129.3,193.3,128.2,193.3,126.6z M195.7,124.4c-1.2,0-1.8,1.1-1.9,1.9h3.7
		C197.6,125.5,197,124.4,195.7,124.4z"/>
</g>
<path class="st0" d="M317,123.8c0,5.5-4.4,9.9-9.9,9.9h-63.9c-5.5,0-9.9-4.4-9.9-9.9V60.6c0-5.5,4.4-9.9,9.9-9.9h63.9
	c5.5,0,9.9,4.4,9.9,9.9V123.8z"/>
<g>
	<path class="st2" d="M100.7,97.3h-3v-3.6h-7.2v3.6h-3c-0.6,0-1.1,0.5-1.1,1.1c0,0.6,0.5,1.1,1.1,1.1h13.3c0.6,0,1.1-0.5,1.1-1.1
		C101.9,97.8,101.4,97.3,100.7,97.3z"/>
	<path class="st2" d="M109,71.1H79.2c-0.4,0-0.8,0.4-0.8,0.8v18.7c0,0.4,0.4,0.8,0.8,0.8H109c0.4,0,0.8-0.4,0.8-0.8V72
		C109.8,71.5,109.4,71.1,109,71.1z M97.1,86.9c0,0.2-0.1,0.3-0.3,0.3h-14c-0.2,0-0.3-0.1-0.3-0.3v-5.6c0-0.2,0.1-0.3,0.3-0.3h14
		c0.2,0,0.3,0.1,0.3,0.3V86.9z M104.5,86.9c0,0.2-0.1,0.3-0.1,0.3h-5.6c-0.1,0-0.1-0.1-0.1-0.3v-5.6c0-0.2,0.1-0.3,0.1-0.3h5.6
		c0.1,0,0.1,0.1,0.1,0.3V86.9z M104.5,79.2c0,0.2-0.2,0.4-0.4,0.4H82.9c-0.2,0-0.4-0.2-0.4-0.4v-4.1c0-0.2,0.2-0.4,0.4-0.4h21.2
		c0.2,0,0.4,0.2,0.4,0.4V79.2z"/>
	<path class="st2" d="M76.1,90.6v-9.1h-8.9c-0.6,0-1.1-0.5-1.1-1.1c0-0.6,0.5-1.1,1.1-1.1h8.9v-2.9h-8.9c-0.6,0-1.1-0.5-1.1-1.1
		c0-0.6,0.5-1.1,1.1-1.1h8.9V72c0-0.3,0-0.6,0.1-0.8h-9.1c-0.6,0-1.1-0.5-1.1-1.1c0-0.6,0.5-1.1,1.1-1.1h11.2c0.1,0,0.2,0,0.3,0
		c0.2,0,0.3,0,0.5,0h2.6v-3.2c0-0.6-0.5-1.1-1.1-1.1H64.9c-0.6,0-1.1,0.5-1.1,1.1v32.8c0,0.6,0.5,1.1,1.1,1.1h15.8
		c0.6,0,1.1-0.5,1.1-1.1v-4.8h-2.6C77.5,93.7,76.1,92.3,76.1,90.6z M72.8,93c-1,0-1.7-0.8-1.7-1.7c0-1,0.8-1.7,1.7-1.7
		c1,0,1.7,0.8,1.7,1.7C74.5,92.2,73.8,93,72.8,93z"/>
</g>
<g>
	<path class="st2" d="M197.2,63.8h-32.4c-3,0-5.5,2.5-5.5,5.5V91c0,3,2.5,5.5,5.5,5.5h17.3v-4.4h-15.4V68.2h30.5
		c0.6,0,1.1,0.5,1.1,1.1v0.4h1.7c1,0,1.9,0.3,2.7,0.7v-1.1C202.7,66.3,200.2,63.8,197.2,63.8L197.2,63.8z M163.1,78.1
		c1.1,0,2.1,0.9,2.1,2.1c0,1.1-0.9,2.1-2.1,2.1c-1.1,0-2.1-0.9-2.1-2.1C161,79,162,78.1,163.1,78.1L163.1,78.1z M163.1,78.1"/>
	<path class="st2" d="M170.3,82.6c-0.4,0-0.7,0.3-0.7,0.7v5.8c0,0.4,0.3,0.7,0.7,0.7h9.6c0.4,0,0.7-0.3,0.7-0.7v-5.8
		c0-0.4-0.3-0.7-0.7-0.7H170.3z M170.3,82.6"/>
	<path class="st2" d="M170.1,80c0,0.4,0.3,0.7,0.7,0.7h11.2v-1.5h-11.2C170.5,79.3,170.1,79.6,170.1,80L170.1,80z M170.1,80"/>
	<path class="st2" d="M170.1,77.1c0,0.4,0.3,0.7,0.7,0.7h11.2v-1.5h-11.2C170.5,76.4,170.1,76.7,170.1,77.1L170.1,77.1z M170.1,77.1
		"/>
	<path class="st2" d="M170.1,74.2c0,0.4,0.3,0.7,0.7,0.7h11.3c0-0.5,0.1-1,0.3-1.5h-11.6C170.5,73.4,170.1,73.8,170.1,74.2
		L170.1,74.2z M170.1,74.2"/>
	<path class="st2" d="M170.1,71.2c0,0.4,0.3,0.7,0.7,0.7h12.4c0.5-0.6,1-1.1,1.7-1.5h-14.1C170.5,70.5,170.1,70.8,170.1,71.2
		L170.1,71.2z M170.1,71.2"/>
	<path class="st2" d="M200,72.7h-12.2c-1.5,0-2.7,1.2-2.7,2.7v23.1c0,1.5,1.2,2.7,2.7,2.7H200c1.5,0,2.7-1.2,2.7-2.7V75.4
		C202.7,73.9,201.5,72.7,200,72.7L200,72.7z M187.9,75.6h11.8V96h-11.8V75.6z M192.5,98.5c0-0.7,0.6-1.3,1.3-1.3
		c0.7,0,1.3,0.6,1.3,1.3c0,0.7-0.6,1.3-1.3,1.3C193.1,99.8,192.5,99.2,192.5,98.5L192.5,98.5z M192.5,98.5"/>
	<path class="st2" d="M190.7,81.2h6.5c0.4,0,0.8-0.3,0.8-0.8v-1.6c0-0.4-0.3-0.8-0.8-0.8h-6.5c-0.4,0-0.8,0.3-0.8,0.8v1.6
		C189.9,80.9,190.2,81.2,190.7,81.2L190.7,81.2z M190.7,81.2"/>
	<path class="st2" d="M197.9,82.6h-8c-0.4,0-0.7,0.3-0.7,0.7c0,0.4,0.3,0.7,0.7,0.7h8c0.4,0,0.7-0.3,0.7-0.7
		C198.7,82.9,198.3,82.6,197.9,82.6L197.9,82.6z M197.9,82.6"/>
	<path class="st2" d="M197.9,85.5h-8c-0.4,0-0.7,0.3-0.7,0.7c0,0.4,0.3,0.7,0.7,0.7h8c0.4,0,0.7-0.3,0.7-0.7
		C198.7,85.8,198.3,85.5,197.9,85.5L197.9,85.5z M197.9,85.5"/>
	<path class="st2" d="M197.9,88.4h-8c-0.4,0-0.7,0.3-0.7,0.7c0,0.4,0.3,0.7,0.7,0.7h8c0.4,0,0.7-0.3,0.7-0.7
		C198.7,88.7,198.3,88.4,197.9,88.4L197.9,88.4z M197.9,88.4"/>
	<path class="st2" d="M197.9,91.3h-8c-0.4,0-0.7,0.3-0.7,0.7c0,0.4,0.3,0.7,0.7,0.7h8c0.4,0,0.7-0.3,0.7-0.7
		C198.7,91.7,198.3,91.3,197.9,91.3L197.9,91.3z M197.9,91.3"/>
</g>
<g>
	<path class="st2" d="M278.3,96.5h-2.3c-0.2,0-0.3,0.1-0.3,0.3v1.6c0,0.2,0.1,0.3,0.3,0.3h2.3c0.2,0,0.3-0.1,0.3-0.3v-1.6
		C278.6,96.6,278.5,96.5,278.3,96.5L278.3,96.5z M278.3,96.5"/>
	<path class="st2" d="M287.3,63.4H267c-1.2,0-2.1,1-2.1,2.1v33.6c0,1.2,0.9,2.1,2.1,2.1h20.3c1.2,0,2.1-0.9,2.1-2.1V65.5
		C289.4,64.3,288.4,63.4,287.3,63.4L287.3,63.4z M275.4,65.1h3.4c0.3,0,0.5,0.2,0.5,0.5c0,0.3-0.2,0.5-0.5,0.5h-3.4
		c-0.3,0-0.5-0.2-0.5-0.5C274.9,65.3,275.1,65.1,275.4,65.1L275.4,65.1z M279.7,98.4c0,0.8-0.6,1.4-1.4,1.4h-2.3
		c-0.8,0-1.4-0.6-1.4-1.4v-1.6c0-0.8,0.6-1.4,1.4-1.4h2.3c0.8,0,1.4,0.6,1.4,1.4V98.4z M286.9,93.7c0,0.3-0.2,0.5-0.5,0.5h-18.4
		c-0.3,0-0.5-0.2-0.5-0.5V68.2c0-0.3,0.2-0.5,0.5-0.5h18.4c0.3,0,0.5,0.2,0.5,0.5V93.7z M286.9,93.7"/>
	<path class="st2" d="M275.3,69.9h-5.4c-0.6,0-1.1,0.5-1.1,1.1v10.5c0,0.6,0.5,1.1,1.1,1.1h5.4c0.6,0,1.1-0.5,1.1-1.1V71
		C276.4,70.4,275.9,69.9,275.3,69.9L275.3,69.9z M275.3,82 M275.3,82"/>
	<path class="st2" d="M284.3,77h-5.5c-0.6,0-1.1,0.5-1.1,1.1v3.4c0,0.6,0.5,1.1,1.1,1.1h5.5c0.6,0,1.1-0.5,1.1-1.1v-3.4
		C285.4,77.5,284.9,77,284.3,77L284.3,77z M284.3,82 M284.3,82"/>
	<path class="st2" d="M284.3,69.9h-5.5c-0.6,0-1.1,0.5-1.1,1.1v3.4c0,0.6,0.5,1.1,1.1,1.1h5.5c0.6,0,1.1-0.5,1.1-1.1V71
		C285.4,70.4,284.9,69.9,284.3,69.9L284.3,69.9z M284.3,74.9 M284.3,74.9"/>
	<path class="st2" d="M275.3,84.1h-5.4c-0.6,0-1.1,0.5-1.1,1.1v5.6c0,0.6,0.5,1.1,1.1,1.1h5.4c0.6,0,1.1-0.5,1.1-1.1v-5.6
		C276.4,84.6,275.9,84.1,275.3,84.1L275.3,84.1z M275.3,84.1"/>
	<path class="st2" d="M284.2,84.1h-5.4c-0.6,0-1.1,0.5-1.1,1.1v5.6c0,0.6,0.5,1.1,1.1,1.1h5.4c0.6,0,1.1-0.5,1.1-1.1v-5.6
		C285.3,84.6,284.8,84.1,284.2,84.1L284.2,84.1z M284.2,84.1"/>
</g>
<g>
	<path class="st3" d="M258.1,117.6v-3l-2.8-4h0.7l2.4,3.5l2.4-3.5h0.7l-2.8,4v3H258.1z"/>
	<path class="st3" d="M260.9,115c0-1.5,1-2.7,2.4-2.7c1.5,0,2.5,1.2,2.5,2.7c0,1.5-1,2.7-2.5,2.7C261.8,117.7,260.9,116.5,260.9,115
		z M265.2,115c0-1.1-0.7-2.2-1.9-2.2c-1.2,0-1.9,1-1.9,2.2c0,1.1,0.7,2.2,1.9,2.2C264.5,117.2,265.2,116.2,265.2,115z"/>
	<path class="st3" d="M270.7,117.6v-0.8c-0.4,0.5-1.1,0.9-1.8,0.9c-1,0-1.6-0.5-1.6-1.6v-3.6h0.5v3.5c0,1,0.5,1.3,1.2,1.3
		c0.7,0,1.3-0.4,1.7-0.8v-3.9h0.5v5.1H270.7z"/>
	<path class="st3" d="M272.9,117.6v-5.1h0.5v0.9c0.4-0.6,1-1,1.7-1v0.6c-0.1,0-0.2,0-0.3,0c-0.5,0-1.2,0.5-1.4,0.9v3.7H272.9z"/>
	<path class="st3" d="M282.3,117.6V117c-0.5,0.5-1,0.7-1.7,0.7c-0.9,0-1.8-0.6-1.8-1.7c0-1.1,0.9-1.7,1.8-1.7c0.7,0,1.3,0.2,1.7,0.7
		v-1c0-0.8-0.6-1.2-1.4-1.2c-0.6,0-1.1,0.2-1.6,0.8l-0.3-0.4c0.5-0.6,1.1-0.9,2-0.9c1,0,1.9,0.5,1.9,1.6v3.6H282.3z M282.3,116.6
		v-1.1c-0.4-0.5-0.9-0.7-1.5-0.7c-0.8,0-1.4,0.5-1.4,1.3c0,0.7,0.6,1.3,1.4,1.3C281.3,117.3,281.9,117.1,282.3,116.6z"/>
	<path class="st3" d="M285.1,116.8v2.8h-0.5v-7.1h0.5v0.8c0.4-0.5,1-0.9,1.8-0.9c1.4,0,2.3,1,2.3,2.7c0,1.6-0.9,2.7-2.3,2.7
		C286.1,117.7,285.5,117.4,285.1,116.8z M288.5,115c0-1.2-0.6-2.2-1.8-2.2c-0.7,0-1.4,0.4-1.7,0.9v2.5c0.3,0.5,1,0.9,1.7,0.9
		C287.9,117.2,288.5,116.3,288.5,115z"/>
	<path class="st3" d="M291.1,116.8v2.8h-0.5v-7.1h0.5v0.8c0.4-0.5,1-0.9,1.8-0.9c1.4,0,2.3,1,2.3,2.7c0,1.6-0.9,2.7-2.3,2.7
		C292.1,117.7,291.5,117.4,291.1,116.8z M294.5,115c0-1.2-0.6-2.2-1.8-2.2c-0.7,0-1.4,0.4-1.7,0.9v2.5c0.3,0.5,1,0.9,1.7,0.9
		C293.9,117.2,294.5,116.3,294.5,115z"/>
</g>
<path class="st0" d="M126.7,462.7c0,5.5-4.4,9.9-9.9,9.9H52.8c-5.5,0-9.9-4.4-9.9-9.9v-63.2c0-5.5,4.4-9.9,9.9-9.9h63.9
	c5.5,0,9.9,4.4,9.9,9.9V462.7z"/>
<g>
	<path class="st3" d="M80.7,463.8L80,462h-3.7l-0.7,1.7h-0.7l2.9-7.1h0.8l2.9,7.1H80.7z M78.1,457.4l-1.7,4.1h3.3L78.1,457.4z"/>
	<path class="st3" d="M83.5,463.8v-6.5h-2.3v-0.5h5.2v0.5h-2.3v6.5H83.5z"/>
	<path class="st3" d="M93.6,463.8v-6.3l-2.6,6.3h-0.2l-2.6-6.3v6.3h-0.6v-7.1h0.9l2.4,5.9l2.4-5.9h0.9v7.1H93.6z"/>
</g>
<path class="st0" d="M222,462.7c0,5.5-4.4,9.9-9.9,9.9h-63.9c-5.5,0-9.9-4.4-9.9-9.9v-63.2c0-5.5,4.4-9.9,9.9-9.9h63.9
	c5.5,0,9.9,4.4,9.9,9.9V462.7z"/>
<g>
	<path class="st3" d="M171.1,463l0.4-0.5c0.5,0.5,1.2,1,2.2,1c1.4,0,1.9-0.8,1.9-1.4c0-2.1-4.2-1-4.2-3.5c0-1.2,1-1.9,2.3-1.9
		c1,0,1.9,0.4,2.4,1l-0.4,0.4c-0.5-0.6-1.2-0.9-2-0.9c-0.9,0-1.6,0.5-1.6,1.3c0,1.8,4.2,0.8,4.2,3.4c0,0.9-0.6,2-2.5,2
		C172.5,464.1,171.6,463.7,171.1,463z"/>
	<path class="st3" d="M183.6,464v-6.3L181,464h-0.2l-2.6-6.3v6.3h-0.6V457h0.9l2.4,5.9l2.4-5.9h0.9v7.1H183.6z"/>
	<path class="st3" d="M185.6,463l0.4-0.5c0.5,0.5,1.2,1,2.2,1c1.4,0,1.9-0.8,1.9-1.4c0-2.1-4.2-1-4.2-3.5c0-1.2,1-1.9,2.3-1.9
		c1,0,1.9,0.4,2.4,1l-0.4,0.4c-0.5-0.6-1.2-0.9-2-0.9c-0.9,0-1.6,0.5-1.6,1.3c0,1.8,4.2,0.8,4.2,3.4c0,0.9-0.6,2-2.5,2
		C187,464.1,186.1,463.7,185.6,463z"/>
</g>
<path class="st0" d="M317,462.7c0,5.5-4.4,9.9-9.9,9.9h-63.9c-5.5,0-9.9-4.4-9.9-9.9v-63.2c0-5.5,4.4-9.9,9.9-9.9h63.9
	c5.5,0,9.9,4.4,9.9,9.9V462.7z"/>
<g>
	<path class="st3" d="M264.1,463.8v-7.1h4.5v0.5h-3.9v2.6h3.8v0.5h-3.8v2.8h3.9v0.5H264.1z"/>
	<path class="st3" d="M276.1,463.8v-3.6c0-0.7-0.3-1.2-1-1.2c-0.5,0-1.2,0.4-1.5,0.9v3.9h-0.6v-3.6c0-0.7-0.3-1.2-1-1.2
		c-0.5,0-1.2,0.4-1.5,0.9v3.9H270v-5.1h0.5v0.8c0.2-0.3,0.9-0.9,1.6-0.9c0.8,0,1.2,0.5,1.3,1c0.3-0.5,1-1,1.7-1
		c0.9,0,1.4,0.5,1.4,1.6v3.7H276.1z"/>
	<path class="st3" d="M281.6,463.8v-0.6c-0.5,0.5-1,0.7-1.7,0.7c-0.9,0-1.8-0.6-1.8-1.7c0-1.1,0.9-1.7,1.8-1.7
		c0.7,0,1.3,0.2,1.7,0.7v-1c0-0.8-0.6-1.2-1.4-1.2c-0.6,0-1.1,0.2-1.6,0.8l-0.3-0.4c0.5-0.6,1.1-0.9,2-0.9c1,0,1.9,0.5,1.9,1.6v3.6
		H281.6z M281.6,462.8v-1.1c-0.4-0.5-0.9-0.7-1.5-0.7c-0.8,0-1.4,0.5-1.4,1.3c0,0.7,0.6,1.3,1.4,1.3
		C280.7,463.5,281.3,463.2,281.6,462.8z"/>
	<path class="st3" d="M283.7,457.4c0-0.2,0.2-0.4,0.4-0.4c0.2,0,0.4,0.2,0.4,0.4s-0.2,0.4-0.4,0.4
		C283.9,457.9,283.7,457.7,283.7,457.4z M283.9,463.8v-5.1h0.5v5.1H283.9z"/>
	<path class="st3" d="M286.2,463.8v-7.1h0.5v7.1H286.2z"/>
</g>
<path class="st0" d="M126.7,248.7c0,5.5-4.4,9.9-9.9,9.9H52.8c-5.5,0-9.9-4.4-9.9-9.9v-63.2c0-5.5,4.4-9.9,9.9-9.9h63.9
	c5.5,0,9.9,4.4,9.9,9.9V248.7z"/>
<g>
	<path class="st3" d="M73.7,240.6c0-2.2,1.6-3.6,3.6-3.6c1.1,0,2,0.5,2.6,1.2l-0.5,0.3c-0.4-0.6-1.2-1-2.1-1c-1.6,0-2.9,1.3-2.9,3.1
		c0,1.8,1.3,3.1,2.9,3.1c0.8,0,1.6-0.4,2.1-1l0.5,0.3c-0.6,0.8-1.5,1.3-2.6,1.3C75.3,244.2,73.7,242.7,73.7,240.6z"/>
	<path class="st3" d="M85.2,244.1l-2-2.9h-1.6v2.9h-0.6V237h2.6c1.2,0,2.1,0.8,2.1,2.1c0,1.3-0.9,2-2,2l2,3H85.2z M85.2,239.1
		c0-0.9-0.6-1.5-1.6-1.5h-2v3h2C84.6,240.6,85.2,240,85.2,239.1z"/>
	<path class="st3" d="M93.3,244.1v-6.3l-2.6,6.3h-0.2l-2.6-6.3v6.3h-0.6V237h0.9l2.4,5.9L93,237h0.9v7.1H93.3z"/>
</g>
<path class="st0" d="M222,248.7c0,5.5-4.4,9.9-9.9,9.9h-63.9c-5.5,0-9.9-4.4-9.9-9.9v-63.2c0-5.5,4.4-9.9,9.9-9.9h63.9
	c5.5,0,9.9,4.4,9.9,9.9V248.7z"/>
<g>
	<path class="st3" d="M171.1,244.1v-7.1h2.3c2.2,0,3.6,1.6,3.6,3.5c0,2-1.4,3.5-3.6,3.5H171.1z M176.3,240.6c0-1.6-1.1-3-2.9-3h-1.6
		v6h1.6C175.3,243.6,176.3,242.2,176.3,240.6z"/>
	<path class="st3" d="M181.7,244.1v-0.6c-0.5,0.5-1,0.7-1.7,0.7c-0.9,0-1.8-0.6-1.8-1.7c0-1.1,0.9-1.7,1.8-1.7
		c0.7,0,1.3,0.2,1.7,0.7v-1c0-0.8-0.6-1.2-1.4-1.2c-0.6,0-1.1,0.2-1.6,0.8l-0.3-0.4c0.5-0.6,1.1-0.9,2-0.9c1,0,1.9,0.5,1.9,1.6v3.6
		H181.7z M181.7,243.1V242c-0.4-0.5-0.9-0.7-1.5-0.7c-0.8,0-1.4,0.5-1.4,1.3c0,0.7,0.6,1.3,1.4,1.3
		C180.8,243.8,181.3,243.6,181.7,243.1z"/>
	<path class="st3" d="M184.1,243.1v-3.6h-0.8V239h0.8v-1.4h0.6v1.4h1v0.5h-1v3.6c0,0.4,0.2,0.7,0.5,0.7c0.2,0,0.5-0.1,0.6-0.2
		l0.2,0.4c-0.2,0.2-0.4,0.3-0.9,0.3C184.4,244.2,184.1,243.8,184.1,243.1z"/>
	<path class="st3" d="M190.1,244.1v-0.6c-0.5,0.5-1,0.7-1.7,0.7c-0.9,0-1.8-0.6-1.8-1.7c0-1.1,0.9-1.7,1.8-1.7
		c0.7,0,1.3,0.2,1.7,0.7v-1c0-0.8-0.6-1.2-1.4-1.2c-0.6,0-1.1,0.2-1.6,0.8l-0.3-0.4c0.5-0.6,1.1-0.9,2-0.9c1,0,1.9,0.5,1.9,1.6v3.6
		H190.1z M190.1,243.1V242c-0.4-0.5-0.9-0.7-1.5-0.7c-0.8,0-1.4,0.5-1.4,1.3c0,0.7,0.6,1.3,1.4,1.3
		C189.2,243.8,189.7,243.6,190.1,243.1z"/>
	<path class="st3" d="M161.2,255.7l-1.7-6.1l-1.7,6.1h-0.7l-2-7.1h0.7l1.7,6.2l1.7-6.2h0.5l1.7,6.2l1.7-6.2h0.7l-2,7.1H161.2z"/>
	<path class="st3" d="M167.8,255.7v-0.6c-0.5,0.5-1,0.7-1.7,0.7c-0.9,0-1.8-0.6-1.8-1.7c0-1.1,0.9-1.7,1.8-1.7
		c0.7,0,1.3,0.2,1.7,0.7v-1c0-0.8-0.6-1.2-1.4-1.2c-0.6,0-1.1,0.2-1.6,0.8l-0.3-0.4c0.5-0.6,1.1-0.9,2-0.9c1,0,1.9,0.5,1.9,1.6v3.6
		H167.8z M167.8,254.7v-1.1c-0.4-0.5-0.9-0.7-1.5-0.7c-0.8,0-1.4,0.5-1.4,1.3c0,0.7,0.6,1.3,1.4,1.3
		C166.9,255.4,167.4,255.2,167.8,254.7z"/>
	<path class="st3" d="M170,255.7v-5.1h0.5v0.9c0.4-0.6,1-1,1.7-1v0.6c-0.1,0-0.2,0-0.3,0c-0.5,0-1.2,0.5-1.4,0.9v3.7H170z"/>
	<path class="st3" d="M173.1,253.2c0-1.5,1-2.7,2.5-2.7c1.6,0,2.4,1.2,2.4,2.7v0.1h-4.3c0.1,1.1,0.8,2,2,2c0.6,0,1.2-0.2,1.7-0.7
		l0.3,0.4c-0.5,0.5-1.2,0.8-2,0.8C174.2,255.8,173.1,254.7,173.1,253.2z M175.6,251c-1.2,0-1.8,1.1-1.9,1.9h3.7
		C177.4,252,176.8,251,175.6,251z"/>
	<path class="st3" d="M182.8,255.7v-3.5c0-1-0.5-1.3-1.2-1.3c-0.7,0-1.3,0.4-1.7,0.9v3.9h-0.5v-7.1h0.5v2.7c0.4-0.4,1.1-0.9,1.8-0.9
		c1,0,1.6,0.5,1.6,1.6v3.6H182.8z"/>
	<path class="st3" d="M184.8,253.2c0-1.5,1-2.7,2.4-2.7c1.5,0,2.5,1.2,2.5,2.7c0,1.5-1,2.7-2.5,2.7
		C185.8,255.8,184.8,254.6,184.8,253.2z M189.1,253.2c0-1.1-0.7-2.2-1.9-2.2c-1.2,0-1.9,1-1.9,2.2c0,1.1,0.7,2.2,1.9,2.2
		C188.5,255.3,189.1,254.3,189.1,253.2z"/>
	<path class="st3" d="M194.6,255.7V255c-0.4,0.5-1.1,0.9-1.8,0.9c-1,0-1.6-0.5-1.6-1.6v-3.6h0.5v3.5c0,1,0.5,1.3,1.2,1.3
		c0.7,0,1.3-0.4,1.7-0.8v-3.9h0.5v5.1H194.6z"/>
	<path class="st3" d="M196.4,255l0.3-0.4c0.3,0.4,0.9,0.8,1.6,0.8c0.9,0,1.4-0.4,1.4-1c0-1.4-3.2-0.6-3.2-2.4c0-0.8,0.7-1.4,1.8-1.4
		c0.9,0,1.5,0.3,1.8,0.8l-0.3,0.4c-0.3-0.4-0.8-0.7-1.5-0.7c-0.8,0-1.3,0.4-1.3,0.9c0,1.3,3.2,0.5,3.2,2.5c0,0.8-0.6,1.5-1.9,1.5
		C197.5,255.8,196.9,255.6,196.4,255z"/>
	<path class="st3" d="M201.4,253.2c0-1.5,1-2.7,2.5-2.7c1.6,0,2.4,1.2,2.4,2.7v0.1H202c0.1,1.1,0.8,2,2,2c0.6,0,1.2-0.2,1.7-0.7
		l0.3,0.4c-0.5,0.5-1.2,0.8-2,0.8C202.5,255.8,201.4,254.7,201.4,253.2z M203.9,251c-1.2,0-1.8,1.1-1.9,1.9h3.7
		C205.7,252,205.1,251,203.9,251z"/>
</g>
<path class="st0" d="M317,248.7c0,5.5-4.4,9.9-9.9,9.9h-63.9c-5.5,0-9.9-4.4-9.9-9.9v-63.2c0-5.5,4.4-9.9,9.9-9.9h63.9
	c5.5,0,9.9,4.4,9.9,9.9V248.7z"/>
<g>
	<path class="st3" d="M252.7,240.6c0-2.2,1.6-3.6,3.6-3.6c1.1,0,2,0.5,2.6,1.2l-0.5,0.3c-0.4-0.6-1.2-1-2.1-1
		c-1.6,0-2.9,1.3-2.9,3.1c0,1.8,1.3,3.1,2.9,3.1c0.8,0,1.6-0.4,2.1-1l0.5,0.3c-0.6,0.8-1.5,1.3-2.6,1.3
		C254.2,244.2,252.7,242.8,252.7,240.6z"/>
	<path class="st3" d="M263.2,244.1v-0.6c-0.5,0.5-1,0.7-1.7,0.7c-0.9,0-1.8-0.6-1.8-1.7c0-1.1,0.9-1.7,1.8-1.7
		c0.7,0,1.3,0.2,1.7,0.7v-1c0-0.8-0.6-1.2-1.4-1.2c-0.6,0-1.1,0.2-1.6,0.8l-0.3-0.4c0.5-0.6,1.1-0.9,2-0.9c1,0,1.9,0.5,1.9,1.6v3.6
		H263.2z M263.2,243.1V242c-0.4-0.5-0.9-0.7-1.5-0.7c-0.8,0-1.4,0.5-1.4,1.3c0,0.7,0.6,1.3,1.4,1.3
		C262.3,243.8,262.9,243.6,263.2,243.1z"/>
	<path class="st3" d="M265.5,244.1v-7.1h0.5v7.1H265.5z"/>
	<path class="st3" d="M267.8,244.1v-7.1h0.5v7.1H267.8z"/>
	<path class="st3" d="M272.5,240.6c0-2.2,1.6-3.6,3.6-3.6c1.1,0,2,0.5,2.6,1.2l-0.5,0.3c-0.4-0.6-1.2-1-2.1-1
		c-1.6,0-2.9,1.3-2.9,3.1c0,1.8,1.3,3.1,2.9,3.1c0.8,0,1.6-0.4,2.1-1l0.5,0.3c-0.6,0.8-1.5,1.3-2.6,1.3
		C274.1,244.2,272.5,242.8,272.5,240.6z"/>
	<path class="st3" d="M279.6,241.6c0-1.5,1-2.7,2.5-2.7c1.6,0,2.4,1.2,2.4,2.7v0.1h-4.3c0.1,1.1,0.8,2,2,2c0.6,0,1.2-0.2,1.7-0.7
		l0.3,0.4c-0.5,0.5-1.2,0.8-2,0.8C280.6,244.2,279.6,243.1,279.6,241.6z M282,239.4c-1.2,0-1.8,1.1-1.9,1.9h3.7
		C283.9,240.4,283.3,239.4,282,239.4z"/>
	<path class="st3" d="M289.3,244.1v-3.5c0-1-0.5-1.3-1.2-1.3c-0.7,0-1.3,0.4-1.7,0.9v3.9h-0.5V239h0.5v0.8c0.4-0.4,1.1-0.9,1.8-0.9
		c1,0,1.6,0.5,1.6,1.7v3.6H289.3z"/>
	<path class="st3" d="M291.7,243.1v-3.6h-0.8V239h0.8v-1.4h0.6v1.4h1v0.5h-1v3.6c0,0.4,0.2,0.7,0.5,0.7c0.2,0,0.5-0.1,0.6-0.2
		l0.2,0.4c-0.2,0.2-0.4,0.3-0.9,0.3C292,244.2,291.7,243.8,291.7,243.1z"/>
	<path class="st3" d="M294.5,244.1V239h0.5v0.9c0.4-0.6,1-1,1.7-1v0.6c-0.1,0-0.2,0-0.3,0c-0.5,0-1.2,0.5-1.4,0.9v3.7H294.5z"/>
	<path class="st3" d="M297.5,241.6c0-1.5,1-2.7,2.5-2.7c1.6,0,2.4,1.2,2.4,2.7v0.1h-4.3c0.1,1.1,0.8,2,2,2c0.6,0,1.2-0.2,1.7-0.7
		l0.3,0.4c-0.5,0.5-1.2,0.8-2,0.8C298.6,244.2,297.5,243.1,297.5,241.6z M300,239.4c-1.2,0-1.8,1.1-1.9,1.9h3.7
		C301.8,240.4,301.3,239.4,300,239.4z"/>
</g>
<g>
	<path class="st2" d="M187.5,189.5h-11.8c-0.4,0-0.8,0.3-0.8,0.8v34.7c0,0.4,0.3,0.7,0.8,0.7h11.8c0.4,0,0.8-0.3,0.8-0.7v-34.7
		C188.3,189.8,188,189.5,187.5,189.5L187.5,189.5z M181.6,219.1c-1.5,0-2.6-1.2-2.6-2.6c0-1.5,1.2-2.6,2.6-2.6
		c1.5,0,2.6,1.2,2.6,2.6C184.3,217.9,183.1,219.1,181.6,219.1L181.6,219.1z M186.5,205.6c0,0.4-0.3,0.8-0.8,0.8h-8.2
		c-0.4,0-0.8-0.3-0.8-0.8v-0.8c0-0.4,0.3-0.8,0.8-0.8h8.2c0.4,0,0.8,0.3,0.8,0.8V205.6z M186.5,201.9c0,0.4-0.3,0.8-0.8,0.8h-8.2
		c-0.4,0-0.8-0.3-0.8-0.8v-0.8c0-0.4,0.3-0.8,0.8-0.8h8.2c0.4,0,0.8,0.3,0.8,0.8V201.9z M186.5,198.1c0,0.4-0.3,0.8-0.8,0.8h-8.2
		c-0.4,0-0.8-0.3-0.8-0.8v-0.8c0-0.4,0.3-0.8,0.8-0.8h8.2c0.4,0,0.8,0.3,0.8,0.8V198.1z M186.5,194.3c0,0.4-0.3,0.8-0.8,0.8h-8.2
		c-0.4,0-0.8-0.3-0.8-0.8v-0.8c0-0.4,0.3-0.8,0.8-0.8h8.2c0.4,0,0.8,0.3,0.8,0.8V194.3z M186.5,194.3"/>
	<path class="st2" d="M204.9,193.5c0-0.4-0.3-0.7-0.7-0.7c-3.5-0.3-7-0.6-10.5-1c0,0-0.1,0-0.3,0l-4.1,1v32.2l4.2,0.6
		c0.1,0,0.1,0,0.1,0c3.5-0.3,7-0.7,10.5-1c0.4,0,0.7-0.3,0.7-0.7C204.9,215.8,204.9,201.7,204.9,193.5L204.9,193.5z M194.7,195.7
		c0-0.4,0.3-0.7,0.7-0.6c2.4,0.2,4.8,0.3,7.3,0.5c0.4,0,0.7,0.3,0.7,0.7v0.6c0,0.4-0.3,0.6-0.7,0.6c-2.4-0.1-4.8-0.3-7.3-0.4
		c-0.4,0-0.7-0.3-0.7-0.7V195.7z M203.3,206.7c0,0.4-0.3,0.7-0.7,0.7c-2.4,0-4.8,0.1-7.3,0.1c-0.4,0-0.7-0.3-0.7-0.7V206
		c0-0.4,0.3-0.7,0.7-0.7c2.4,0,4.8,0,7.3,0c0.4,0,0.7,0.3,0.7,0.7V206.7z M202.6,204c-2.4,0-4.8-0.1-7.3-0.1c-0.4,0-0.7-0.3-0.7-0.7
		v-0.7c0-0.4,0.3-0.7,0.7-0.7c2.4,0.1,4.8,0.1,7.3,0.2c0.4,0,0.7,0.3,0.7,0.7c0,0.3,0,0.4,0,0.7C203.3,203.8,203,204,202.6,204
		L202.6,204z M203.3,200.1c0,0.4-0.3,0.6-0.7,0.6c-2.4-0.1-4.8-0.2-7.3-0.2c-0.4,0-0.7-0.3-0.7-0.7v-0.7c0-0.4,0.3-0.7,0.7-0.7
		c2.4,0.1,4.8,0.2,7.3,0.3c0.4,0,0.7,0.3,0.7,0.7V200.1z M203.3,200.1"/>
	<path class="st2" d="M169.6,191.8c-3.5,0.3-7,0.6-10.5,1c-0.4,0-0.7,0.3-0.7,0.7c0,8.2,0,22.3,0,30.5c0,0.4,0.3,0.7,0.7,0.7
		c3.5,0.3,7,0.7,10.5,1c0,0,0.1,0,0.1,0l4.2-0.6v-32.2l-4.1-1C169.7,191.8,169.6,191.8,169.6,191.8L169.6,191.8z M168.6,206.7
		c0,0.4-0.3,0.7-0.7,0.7c-2.4,0-4.8-0.1-7.3-0.1c-0.4,0-0.7-0.3-0.7-0.7V206c0-0.4,0.3-0.7,0.7-0.7c2.4,0,4.8,0,7.3,0
		c0.4,0,0.7,0.3,0.7,0.7V206.7z M168.6,203.3c0,0.4-0.3,0.7-0.7,0.7c-2.4,0-4.8,0.1-7.3,0.1c-0.4,0-0.7-0.3-0.7-0.6
		c0-0.3,0-0.4,0-0.7c0-0.4,0.3-0.7,0.7-0.7c2.4-0.1,4.8-0.1,7.3-0.2c0.4,0,0.7,0.3,0.7,0.7V203.3z M168.6,199.8
		c0,0.4-0.3,0.7-0.7,0.7c-2.4,0.1-4.8,0.2-7.3,0.2c-0.4,0-0.7-0.3-0.7-0.6v-0.7c0-0.4,0.3-0.7,0.7-0.7c2.4-0.1,4.8-0.2,7.3-0.3
		c0.4,0,0.7,0.3,0.7,0.7V199.8z M168.6,196.4c0,0.4-0.3,0.7-0.7,0.7c-2.4,0.1-4.8,0.3-7.3,0.4c-0.4,0-0.7-0.3-0.7-0.6v-0.6
		c0-0.4,0.3-0.7,0.7-0.7c2.4-0.2,4.8-0.3,7.3-0.5c0.4,0,0.7,0.3,0.7,0.6V196.4z M168.6,196.4"/>
</g>
<g>
	<path class="st2" d="M293.4,221.4v5h-34.1v-5c0-2.4,2-5.3,4.5-6.5l5.5-2.6l3.8,8l2-5.3c0.4,0.1,0.8,0.2,1.2,0.2
		c0.4,0,0.8-0.1,1.2-0.2l1.9,5.1l3.8-7.8l5.7,2.7C291.3,216.1,293.4,219,293.4,221.4L293.4,221.4z M264.3,203.8v-3.6
		c0-0.6,0.3-1.2,0.8-1.5c0.6-5.6,5.4-10,11.2-10c5.8,0,10.6,4.4,11.2,10c0.5,0.3,0.8,0.8,0.8,1.5v3.6c0,1-0.8,1.7-1.7,1.7
		c-1,0-1.7-0.8-1.7-1.7v-0.8c-0.9,4.7-4.4,9.1-8.6,9.1c-4.1,0-7.6-4.4-8.6-9.1v0.8c0,0.8-0.5,1.4-1.2,1.7c0.7,2.3,2.2,4.4,4.4,5.7
		c0.4-0.1,0.9-0.1,1.4,0.1c0.8,0.4,1.2,1.2,0.9,1.7c-0.3,0.6-1.1,0.7-1.9,0.3c-0.6-0.3-0.9-0.8-1-1.3c-2.4-1.5-4.2-3.9-4.9-6.7
		C264.7,205.2,264.3,204.6,264.3,203.8L264.3,203.8z M266.2,198.4c0.1,0,0.1,0,0.1,0c0.1,0,0.2,0.1,0.3,0.2c0.4,0.2,0.7,0.5,0.9,0.8
		c0.5-4.8,4.2-7.4,8.8-7.4c4.5,0,8.2,2.6,8.7,7.4c0.3-0.5,0.7-0.9,1.3-0.9c-0.8-4.9-5-8.6-10.1-8.6
		C271.3,189.9,267.1,193.5,266.2,198.4L266.2,198.4z M266.2,198.4"/>
</g>
<g>
	<path class="st2" d="M86.2,197.5c1.2-0.8,2-2.3,2-4.1c0-2.4-0.5-4.8-4-4.8c-3.5,0-4,2.4-4,4.8c0,1.7,0.8,3.3,2,4.1
		c-2.6,0.8-4.5,3.1-4.5,5.8c0,1.4,0.7,2.4,2.1,2.9c1,0.4,2.4,0.6,4.5,0.6c2,0,3.4-0.2,4.5-0.6c1.4-0.6,2.1-1.5,2.1-2.9
		C90.8,200.6,88.9,198.3,86.2,197.5L86.2,197.5z M86.2,197.5"/>
	<path class="st2" d="M73.7,215.3c1.2-0.8,2-2.3,2-4.1c0-2.3-0.5-4.8-4-4.8c-3.5,0-4,2.4-4,4.8c0,1.7,0.8,3.3,2,4.1
		c-2.6,0.8-4.5,3.1-4.5,5.8c0,1.4,0.7,2.4,2.1,2.9c1,0.4,2.4,0.6,4.5,0.6c2,0,3.4-0.2,4.5-0.6c1.4-0.6,2.1-1.5,2.1-2.9
		C78.2,218.4,76.3,216.1,73.7,215.3L73.7,215.3z M73.7,215.3"/>
	<path class="st2" d="M98.8,215.3c1.2-0.8,2-2.3,2-4.1c0-2.3-0.5-4.8-4-4.8c-3.5,0-4,2.4-4,4.8c0,1.7,0.8,3.3,2,4.1
		c-2.6,0.8-4.5,3.1-4.5,5.8c0,1.4,0.7,2.4,2.1,2.9c1,0.4,2.4,0.6,4.5,0.6c2,0,3.4-0.2,4.5-0.6c1.4-0.6,2.1-1.5,2.1-2.9
		C103.3,218.4,101.4,216.1,98.8,215.3L98.8,215.3z M98.8,215.3"/>
	<path class="st2" d="M88.6,224.3c0-0.1-0.1-0.2-0.3-0.3c-0.1,0-0.2,0-0.4,0c-1,0.4-2.3,0.6-3.8,0.6c-1.6,0-2.8-0.2-3.8-0.6
		c-0.1,0-0.2,0-0.4,0c-0.1,0-0.2,0.1-0.2,0.3l-0.3,0.9c-0.1,0.2,0,0.5,0.3,0.6c1.2,0.5,2.7,0.7,4.5,0.7c1.8,0,3.3-0.2,4.5-0.7
		c0.2-0.1,0.4-0.4,0.3-0.6L88.6,224.3z M88.6,224.3"/>
	<path class="st2" d="M70.4,204.1l0.9,0.4c0.1,0,0.1,0,0.2,0c0.2,0,0.4-0.1,0.4-0.3c0.4-1,1.2-2,2.3-3.1c1.1-1.1,2.1-1.9,3.1-2.3
		c0.1,0,0.2-0.1,0.2-0.3c0-0.1,0-0.2,0-0.4l-0.4-0.9c-0.1-0.2-0.4-0.3-0.6-0.2c-1.2,0.5-2.4,1.4-3.7,2.7c-1.3,1.3-2.2,2.5-2.7,3.7
		C70.1,203.7,70.2,204,70.4,204.1L70.4,204.1z M70.4,204.1"/>
	<path class="st2" d="M91.1,198.8c1,0.4,2,1.2,3.1,2.3c1.1,1.1,1.9,2.1,2.3,3.1c0.1,0.2,0.2,0.3,0.4,0.3c0.1,0,0.1,0,0.2,0l0.9-0.4
		c0.2-0.1,0.4-0.4,0.2-0.6c-0.5-1.2-1.4-2.4-2.7-3.7c-1.3-1.3-2.5-2.2-3.7-2.7c-0.2-0.1-0.5,0-0.6,0.2l-0.4,0.9c0,0.1,0,0.2,0,0.4
		C90.9,198.7,91,198.8,91.1,198.8L91.1,198.8z M91.1,198.8"/>
</g>
<path class="st0" d="M173.1,342.2c0,5.5-4.4,9.9-9.9,9.9H99.2c-5.5,0-9.9-4.4-9.9-9.9V279c0-5.5,4.4-9.9,9.9-9.9h63.9
	c5.5,0,9.9,4.4,9.9,9.9V342.2z"/>
<g>
	<path class="st3" d="M118.2,334.8v-7.1h0.6v6.5h3.4v0.5H118.2z"/>
	<path class="st3" d="M122.9,332.2c0-1.5,1-2.7,2.4-2.7c1.5,0,2.5,1.2,2.5,2.7c0,1.5-1,2.7-2.5,2.7
		C123.8,334.9,122.9,333.7,122.9,332.2z M127.2,332.2c0-1.1-0.7-2.2-1.9-2.2c-1.2,0-1.9,1-1.9,2.2c0,1.1,0.7,2.2,1.9,2.2
		C126.5,334.4,127.2,333.3,127.2,332.2z"/>
	<path class="st3" d="M129,336.3c0.1,0.1,0.3,0.1,0.4,0.1c0.3,0,0.6-0.1,0.8-0.6l0.4-0.9l-2.2-5.1h0.6l1.9,4.5l1.8-4.5h0.6l-2.6,6.2
		c-0.3,0.6-0.7,1-1.3,1c-0.2,0-0.4,0-0.5-0.1L129,336.3z"/>
	<path class="st3" d="M137.5,334.8v-0.6c-0.5,0.5-1,0.7-1.7,0.7c-0.9,0-1.8-0.6-1.8-1.7c0-1.1,0.9-1.7,1.8-1.7
		c0.7,0,1.3,0.2,1.7,0.7v-1c0-0.8-0.6-1.2-1.4-1.2c-0.6,0-1.1,0.2-1.6,0.8l-0.3-0.4c0.5-0.6,1.1-0.9,2-0.9c1,0,1.9,0.5,1.9,1.6v3.6
		H137.5z M137.5,333.8v-1.1c-0.4-0.5-0.9-0.7-1.5-0.7c-0.8,0-1.4,0.5-1.4,1.3c0,0.7,0.6,1.3,1.4,1.3
		C136.6,334.5,137.2,334.2,137.5,333.8z"/>
	<path class="st3" d="M139.8,334.8v-7.1h0.5v7.1H139.8z"/>
	<path class="st3" d="M142.2,333.8v-3.6h-0.8v-0.5h0.8v-1.4h0.6v1.4h1v0.5h-1v3.6c0,0.4,0.2,0.7,0.5,0.7c0.2,0,0.5-0.1,0.6-0.2
		l0.2,0.4c-0.2,0.2-0.4,0.3-0.9,0.3C142.5,334.9,142.2,334.5,142.2,333.8z"/>
	<path class="st3" d="M144.7,336.3c0.1,0.1,0.3,0.1,0.4,0.1c0.3,0,0.6-0.1,0.8-0.6l0.4-0.9l-2.2-5.1h0.6l1.9,4.5l1.8-4.5h0.6
		l-2.6,6.2c-0.3,0.6-0.7,1-1.3,1c-0.2,0-0.4,0-0.5-0.1L144.7,336.3z"/>
	<path class="st3" d="M113,345.5v2.8h-0.5v-7.1h0.5v0.8c0.4-0.5,1-0.9,1.8-0.9c1.4,0,2.3,1,2.3,2.7c0,1.6-0.9,2.7-2.3,2.7
		C114.1,346.5,113.4,346.1,113,345.5z M116.5,343.8c0-1.2-0.6-2.2-1.8-2.2c-0.7,0-1.4,0.4-1.7,0.9v2.5c0.3,0.5,1,0.9,1.7,0.9
		C115.8,346,116.5,345,116.5,343.8z"/>
	<path class="st3" d="M118.4,346.4v-5.1h0.5v0.9c0.4-0.6,1-1,1.7-1v0.6c-0.1,0-0.2,0-0.3,0c-0.5,0-1.2,0.5-1.4,0.9v3.7H118.4z"/>
	<path class="st3" d="M121.5,343.8c0-1.5,1-2.7,2.4-2.7c1.5,0,2.5,1.2,2.5,2.7c0,1.5-1,2.7-2.5,2.7
		C122.5,346.5,121.5,345.3,121.5,343.8z M125.8,343.8c0-1.1-0.7-2.2-1.9-2.2c-1.2,0-1.9,1-1.9,2.2c0,1.1,0.7,2.2,1.9,2.2
		C125.2,346,125.8,344.9,125.8,343.8z"/>
	<path class="st3" d="M127.8,347.7l0.3-0.4c0.4,0.5,0.9,0.7,1.7,0.7c0.9,0,1.7-0.5,1.7-1.6v-0.8c-0.4,0.5-1,1-1.8,1
		c-1.4,0-2.3-1-2.3-2.7c0-1.6,0.9-2.7,2.3-2.7c0.7,0,1.4,0.4,1.8,1v-0.8h0.6v5.1c0,1.6-1.1,2.1-2.3,2.1
		C129,348.4,128.4,348.3,127.8,347.7z M131.6,345v-2.5c-0.3-0.5-1-0.9-1.7-0.9c-1.1,0-1.8,0.9-1.8,2.2c0,1.2,0.7,2.2,1.8,2.2
		C130.6,346,131.3,345.5,131.6,345z"/>
	<path class="st3" d="M133.9,346.4v-5.1h0.5v0.9c0.4-0.6,1-1,1.7-1v0.6c-0.1,0-0.2,0-0.3,0c-0.5,0-1.2,0.5-1.4,0.9v3.7H133.9z"/>
	<path class="st3" d="M140.5,346.4v-0.6c-0.5,0.5-1,0.7-1.7,0.7c-0.9,0-1.8-0.6-1.8-1.7c0-1.1,0.9-1.7,1.8-1.7
		c0.7,0,1.3,0.2,1.7,0.7v-1c0-0.8-0.6-1.2-1.4-1.2c-0.6,0-1.1,0.2-1.6,0.8l-0.3-0.4c0.5-0.6,1.1-0.9,2-0.9c1,0,1.9,0.5,1.9,1.6v3.6
		H140.5z M140.5,345.4v-1.1c-0.4-0.5-0.9-0.7-1.5-0.7c-0.8,0-1.4,0.5-1.4,1.3c0,0.7,0.6,1.3,1.4,1.3
		C139.5,346.1,140.1,345.8,140.5,345.4z"/>
	<path class="st3" d="M148.8,346.4v-3.6c0-0.7-0.3-1.2-1-1.2c-0.5,0-1.2,0.4-1.5,0.9v3.9h-0.6v-3.6c0-0.7-0.3-1.2-1-1.2
		c-0.6,0-1.2,0.4-1.5,0.9v3.9h-0.5v-5.1h0.5v0.8c0.2-0.3,0.9-0.9,1.6-0.9c0.8,0,1.2,0.5,1.3,1c0.3-0.5,1-1,1.7-1
		c0.9,0,1.4,0.5,1.4,1.6v3.7H148.8z"/>
	<path class="st3" d="M150.6,345.7l0.3-0.4c0.3,0.4,0.9,0.8,1.6,0.8c0.9,0,1.4-0.4,1.4-1c0-1.4-3.2-0.6-3.2-2.4
		c0-0.8,0.7-1.4,1.8-1.4c0.9,0,1.5,0.3,1.8,0.8l-0.3,0.4c-0.3-0.4-0.8-0.7-1.5-0.7c-0.8,0-1.3,0.4-1.3,0.9c0,1.3,3.2,0.5,3.2,2.5
		c0,0.8-0.6,1.5-1.9,1.5C151.8,346.5,151.1,346.2,150.6,345.7z"/>
</g>
<path class="st0" d="M270.6,342.2c0,5.5-4.4,9.9-9.9,9.9h-63.9c-5.5,0-9.9-4.4-9.9-9.9V279c0-5.5,4.4-9.9,9.9-9.9h63.9
	c5.5,0,9.9,4.4,9.9,9.9V342.2z"/>
<g>
	<path class="st2" d="M117,306.3c0,0,0.4-1.8-1-3.3c-1.5-1.5-3.3-1.5-3.3-1.5s-0.5,2.1,1,3.6C115.1,306.5,117,306.3,117,306.3
		L117,306.3z M117,306.3"/>
	<path class="st2" d="M120.2,306c0,0,1.7-0.9,2-3c0.3-2-1.2-3.5-1.2-3.5s-1.5,1.1-1.8,3.2C118.9,304.8,120.2,306,120.2,306
		L120.2,306z M120.2,306"/>
	<path class="st2" d="M122.8,311.1c0,0,1.6-1.2,1.6-3.2c0-2.1-1.7-3.3-1.7-3.3s-1.4,1.3-1.4,3.4
		C121.3,310.1,122.8,311.1,122.8,311.1L122.8,311.1z M122.8,311.1"/>
	<path class="st2" d="M128,310.7c-0.1-2.1-2-3.1-2-3.1s-1.2,1.4-1.1,3.5c0.2,2.1,1.8,3,1.8,3S128.1,312.8,128,310.7L128,310.7z
		 M128,310.7"/>
	<path class="st2" d="M131.5,316.6c0,0,1-1.7,0.3-3.6c-0.7-1.9-2.8-2.4-2.8-2.4s-0.8,1.7,0,3.6C129.8,316.3,131.5,316.6,131.5,316.6
		L131.5,316.6z M131.5,316.6"/>
	<path class="st2" d="M117.7,301.8c0,0,1.3-1.2,1-3.3c-0.4-2.1-1.9-3.1-1.9-3.1s-1.5,1.5-1.2,3.5C116,300.9,117.7,301.8,117.7,301.8
		L117.7,301.8z M117.7,301.8"/>
	<path class="st2" d="M118.8,310.3c0,0-0.1-1.8-2-2.8c-1.9-1-3.6-0.5-3.6-0.5s0.2,2.1,2,3.1C117,311.1,118.8,310.3,118.8,310.3
		L118.8,310.3z M118.8,310.3"/>
	<path class="st2" d="M121.9,313.8c0,0-0.5-1.7-2.5-2.3c-2-0.6-3.6,0.3-3.6,0.3s0.6,2,2.6,2.6C120.3,315,121.9,313.8,121.9,313.8
		L121.9,313.8z M121.9,313.8"/>
	<path class="st2" d="M125.4,316.3c0,0-1-1.5-3.1-1.5c-2.1,0.1-3.4,1.4-3.4,1.4s1.2,1.7,3.3,1.7
		C124.2,317.9,125.4,316.3,125.4,316.3L125.4,316.3z M125.4,316.3"/>
	<path class="st2" d="M126.9,317.3c-2.1,0.3-3.2,1.8-3.2,1.8s1.4,1.6,3.5,1.3c2-0.3,3-2,3-2S129,317,126.9,317.3L126.9,317.3z
		 M126.9,317.3"/>
	<path class="st2" d="M118.4,302.8l-1,0c0,0.1-0.3,11,16.3,16l0.3-1C118.2,313.1,118.4,303.2,118.4,302.8L118.4,302.8z M118.4,302.8
		"/>
	<path class="st2" d="M152.9,306.3c0,0,1.9,0.2,3.4-1.3c1.4-1.5,1-3.6,1-3.6s-1.8,0-3.3,1.5C152.4,304.6,152.9,306.3,152.9,306.3
		L152.9,306.3z M152.9,306.3"/>
	<path class="st2" d="M147.6,303c0.3,2,2,3,2,3s1.4-1.2,1.1-3.3c-0.3-2.1-1.8-3.2-1.8-3.2S147.3,301,147.6,303L147.6,303z
		 M147.6,303"/>
	<path class="st2" d="M147.1,304.6c0,0-1.7,1.2-1.7,3.3c0,2.1,1.6,3.2,1.6,3.2s1.5-1,1.5-3.1C148.5,305.9,147.1,304.6,147.1,304.6
		L147.1,304.6z M147.1,304.6"/>
	<path class="st2" d="M141.9,310.8c-0.1,2.1,1.3,3.3,1.3,3.3s1.6-0.9,1.8-3c0.1-2.1-1.1-3.5-1.1-3.5S142,308.7,141.9,310.8
		L141.9,310.8z M141.9,310.8"/>
	<path class="st2" d="M138.1,313.1c-0.7,1.9,0.3,3.6,0.3,3.6s1.8-0.4,2.5-2.3c0.8-2,0-3.6,0-3.6S138.8,311.2,138.1,313.1
		L138.1,313.1z M138.1,313.1"/>
	<path class="st2" d="M152.1,301.8c0,0,1.7-0.9,2.1-2.9c0.4-2-1.2-3.5-1.2-3.5s-1.5,1-1.9,3.1C150.8,300.6,152.1,301.8,152.1,301.8
		L152.1,301.8z M152.1,301.8"/>
	<path class="st2" d="M153,307.5c-1.8,1-1.9,2.8-1.9,2.8s1.8,0.8,3.6-0.2c1.8-1,2-3.1,2-3.1S154.9,306.4,153,307.5L153,307.5z
		 M153,307.5"/>
	<path class="st2" d="M150.5,311.5c-2,0.6-2.5,2.3-2.5,2.3s1.6,1.2,3.5,0.6c2-0.6,2.6-2.6,2.6-2.6S152.5,310.9,150.5,311.5
		L150.5,311.5z M150.5,311.5"/>
	<path class="st2" d="M147.6,314.9c-2.1-0.1-3.1,1.5-3.1,1.5s1.1,1.6,3.2,1.6c2.1,0.1,3.3-1.7,3.3-1.7S149.7,314.9,147.6,314.9
		L147.6,314.9z M147.6,314.9"/>
	<path class="st2" d="M143,317.4c-2.1-0.3-3.3,1.1-3.3,1.1s0.9,1.7,3,2c2,0.3,3.5-1.3,3.5-1.3S145.1,317.7,143,317.4L143,317.4z
		 M143,317.4"/>
	<path class="st2" d="M152.5,302.8l-1,0c0,0.4,0.2,10.3-15.5,15l0.3,1C152.7,313.9,152.5,302.9,152.5,302.8L152.5,302.8z
		 M152.5,302.8"/>
	<path class="st2" d="M142.9,307.2l-1.1-9.3l6.2-6.3l-9-1.2l-4.1-7.9v0l-4.1,7.9l-9,1.2l6.2,6.3l-1.1,9.3l7.9-4.3v0L142.9,307.2z
		 M142.9,307.2"/>
</g>
<g>
	<path class="st2" d="M255.5,281.8h-19.9c-1.3,0-2.3,1-2.3,2.3v10.3c0,1.3,1,2.3,2.3,2.3h1.7v4.1c0,0.3,0.2,0.5,0.4,0.7
		c0.1,0,0.2,0.1,0.3,0.1c0.2,0,0.3-0.1,0.5-0.2l5.3-4.6h11.6c1.3,0,2.3-1,2.3-2.3v-10.3C257.8,282.8,256.8,281.8,255.5,281.8
		L255.5,281.8z M241.4,288.8l-1.1,1l0.3,1.5c0,0.1,0,0.2-0.1,0.3c0,0-0.1,0.1-0.2,0.1c0,0-0.1,0-0.1,0l-1.3-0.7l-1.3,0.7
		c-0.1,0-0.2,0-0.3,0c-0.1-0.1-0.1-0.2-0.1-0.3l0.3-1.5l-1.1-1c-0.1-0.1-0.1-0.2-0.1-0.3c0-0.1,0.1-0.2,0.2-0.2l1.5-0.2l0.7-1.3
		c0-0.1,0.1-0.2,0.3-0.2c0.1,0,0.2,0.1,0.3,0.2l0.7,1.3l1.5,0.2c0.1,0,0.2,0.1,0.2,0.2C241.5,288.6,241.4,288.7,241.4,288.8
		L241.4,288.8z M248.1,288.8l-1.1,1l0.3,1.5c0,0.1,0,0.2-0.1,0.3c0,0-0.1,0.1-0.2,0.1c0,0-0.1,0-0.1,0l-1.3-0.7l-1.3,0.7
		c-0.1,0-0.2,0-0.3,0c-0.1-0.1-0.1-0.2-0.1-0.3l0.3-1.5l-1.1-1c-0.1-0.1-0.1-0.2-0.1-0.3c0-0.1,0.1-0.2,0.2-0.2l1.5-0.2l0.7-1.3
		c0-0.1,0.1-0.2,0.3-0.2c0.1,0,0.2,0.1,0.3,0.2l0.7,1.3l1.5,0.2c0.1,0,0.2,0.1,0.2,0.2C248.2,288.6,248.2,288.7,248.1,288.8
		L248.1,288.8z M254.8,288.8l-1.1,1l0.2,1.5c0,0.1,0,0.2-0.1,0.3c0,0-0.1,0.1-0.2,0.1c0,0-0.1,0-0.1,0l-1.3-0.7l-1.3,0.7
		c-0.1,0-0.2,0-0.3,0c-0.1-0.1-0.1-0.2-0.1-0.3l0.3-1.5l-1.1-1c-0.1-0.1-0.1-0.2-0.1-0.3c0-0.1,0.1-0.2,0.2-0.2l1.5-0.2l0.7-1.3
		c0-0.1,0.1-0.2,0.3-0.2c0.1,0,0.2,0.1,0.3,0.2l0.7,1.3l1.5,0.2c0.1,0,0.2,0.1,0.2,0.2C255,288.6,254.9,288.7,254.8,288.8
		L254.8,288.8z M254.8,288.8"/>
	<path class="st2" d="M224,288.9c-4.9,0-7.6,2.5-7.5,7.4c0.1,6.6,2.9,10.7,7.5,10.6c0,0,7.5,0.3,7.5-10.6
		C231.5,291.4,229,288.9,224,288.9L224,288.9z M224,288.9"/>
	<path class="st2" d="M237.3,311.9l-7.5-3l-1.8-1.5c-0.5-0.4-1.1-0.4-1.6,0.1l-2.4,2.4l-2.4-2.4c-0.4-0.4-1.1-0.5-1.6-0.1l-1.8,1.5
		l-7.5,3c-2.4,1-2.4,9.5-2.6,10.3h31.8C239.7,321.4,239.7,312.9,237.3,311.9L237.3,311.9z M237.3,311.9"/>
</g>
<g>
	<path class="st2" d="M103.1,402.5h-33c-0.9,0-1.6,0.7-1.6,1.6v40.3c0,0.9,0.7,1.6,1.6,1.6h33c0.9,0,1.6-0.7,1.6-1.6v-40.3
		C104.8,403.3,104,402.5,103.1,402.5L103.1,402.5z M74.4,408.2c0-0.3,0.3-0.6,0.6-0.6h23.2c0.3,0,0.6,0.3,0.6,0.6v13.7
		c0,0.3-0.3,0.6-0.6,0.6H75c-0.3,0-0.6-0.3-0.6-0.6V408.2z M83.5,440.3c0,0.3-0.3,0.6-0.6,0.6h-6.4c-0.3,0-0.6-0.3-0.6-0.6v-10
		c0-0.3,0.3-0.6,0.6-0.6h6.4c0.3,0,0.6,0.3,0.6,0.6V440.3z M85.7,429.4c0,0.3-0.3,0.6-0.6,0.6h-0.7c-0.3,0-0.6-0.3-0.6-0.6v-0.3
		h-8.3v0.3c0,0.3-0.3,0.6-0.6,0.6h-0.7c-0.3,0-0.6-0.3-0.6-0.6v-1.6c0-0.3,0.3-0.6,0.6-0.6h10.9c0.3,0,0.6,0.3,0.6,0.6V429.4z
		 M90.2,440.8c0,0.2-0.2,0.4-0.4,0.4h-2.4c-0.2,0-0.4-0.2-0.4-0.4v-2.4c0-0.2,0.2-0.4,0.4-0.4h2.4c0.2,0,0.4,0.2,0.4,0.4V440.8z
		 M90.2,436.1c0,0.2-0.2,0.4-0.4,0.4h-2.4c-0.2,0-0.4-0.2-0.4-0.4v-2.4c0-0.2,0.2-0.4,0.4-0.4h2.4c0.2,0,0.4,0.2,0.4,0.4V436.1z
		 M90.2,431.5c0,0.2-0.2,0.4-0.4,0.4h-2.4c-0.2,0-0.4-0.2-0.4-0.4v-2.4c0-0.2,0.2-0.4,0.4-0.4h2.4c0.2,0,0.4,0.2,0.4,0.4V431.5z
		 M94.9,440.8c0,0.2-0.2,0.4-0.4,0.4h-2.4c-0.2,0-0.4-0.2-0.4-0.4v-2.4c0-0.2,0.2-0.4,0.4-0.4h2.4c0.2,0,0.4,0.2,0.4,0.4V440.8z
		 M94.9,436.1c0,0.2-0.2,0.4-0.4,0.4h-2.4c-0.2,0-0.4-0.2-0.4-0.4v-2.4c0-0.2,0.2-0.4,0.4-0.4h2.4c0.2,0,0.4,0.2,0.4,0.4V436.1z
		 M94.9,431.5c0,0.2-0.2,0.4-0.4,0.4h-2.4c-0.2,0-0.4-0.2-0.4-0.4v-2.4c0-0.2,0.2-0.4,0.4-0.4h2.4c0.2,0,0.4,0.2,0.4,0.4V431.5z
		 M99.6,440.8c0,0.2-0.2,0.4-0.4,0.4h-2.4c-0.2,0-0.4-0.2-0.4-0.4v-2.4c0-0.2,0.2-0.4,0.4-0.4h2.4c0.2,0,0.4,0.2,0.4,0.4V440.8z
		 M99.6,436.1c0,0.2-0.2,0.4-0.4,0.4h-2.4c-0.2,0-0.4-0.2-0.4-0.4v-2.4c0-0.2,0.2-0.4,0.4-0.4h2.4c0.2,0,0.4,0.2,0.4,0.4V436.1z
		 M99.6,431.5c0,0.2-0.2,0.4-0.4,0.4h-2.4c-0.2,0-0.4-0.2-0.4-0.4v-2.4c0-0.2,0.2-0.4,0.4-0.4h2.4c0.2,0,0.4,0.2,0.4,0.4V431.5z
		 M99.6,431.5"/>
	<path class="st2" d="M76.8,418.5h1.1c0.2,0,0.3-0.1,0.4-0.3l0.4-1.6h2l0.5,1.6c0,0.2,0.2,0.3,0.4,0.3h1.1c0.1,0,0.2-0.1,0.3-0.2
		c0.1-0.1,0.1-0.2,0.1-0.3l-2.1-6.7c-0.1-0.2-0.2-0.3-0.4-0.3h-1.7c-0.2,0-0.3,0.1-0.4,0.3l-2,6.7c0,0.1,0,0.2,0.1,0.3
		C76.6,418.5,76.7,418.5,76.8,418.5L76.8,418.5z M79.4,413.8c0.1-0.3,0.1-0.6,0.2-0.8c0-0.1,0-0.2,0.1-0.2c0.1,0.4,0.2,0.8,0.3,1.1
		l0.4,1.4H79L79.4,413.8z M79.4,413.8"/>
	<path class="st2" d="M82.8,412.6h1.6v5.5c0,0.2,0.2,0.4,0.4,0.4h1.1c0.2,0,0.4-0.2,0.4-0.4v-5.5h1.6c0.2,0,0.4-0.2,0.4-0.4v-0.8
		c0-0.2-0.2-0.4-0.4-0.4h-5c-0.2,0-0.4,0.2-0.4,0.4v0.8C82.4,412.5,82.6,412.6,82.8,412.6L82.8,412.6z M82.8,412.6"/>
	<path class="st2" d="M89,418.5h0.9c0.2,0,0.4-0.2,0.4-0.4l0.1-2.5c0-0.6,0.1-1.3,0.1-1.9c0-0.1,0-0.3,0-0.4
		c0.1,0.7,0.3,1.5,0.5,2.2l0.7,2.6c0,0.2,0.2,0.3,0.4,0.3H93c0.2,0,0.3-0.1,0.4-0.3l0.8-2.6c0.2-0.7,0.5-1.5,0.7-2.3
		c0,0.9,0,1.7,0.1,2.4l0.1,2.5c0,0.2,0.2,0.4,0.4,0.4h1c0.1,0,0.2,0,0.3-0.1c0.1-0.1,0.1-0.2,0.1-0.3l-0.4-6.7
		c0-0.2-0.2-0.4-0.4-0.4h-1.7c-0.2,0-0.3,0.1-0.4,0.3l-0.7,2.2l0,0c-0.2,0.8-0.5,1.6-0.6,2.3c-0.1-0.7-0.3-1.4-0.6-2.3v0l-0.7-2.2
		c0-0.2-0.2-0.3-0.4-0.3h-1.7c-0.2,0-0.4,0.2-0.4,0.4l-0.4,6.7c0,0.1,0,0.2,0.1,0.3C88.8,418.5,88.9,418.5,89,418.5L89,418.5z
		 M89,418.5"/>
</g>
<g>
	<path class="st2" d="M199.6,418.1h-1.2v13.4c0,2.1-1.2,4-3.6,4h-23.8v0.6c0,1.8,2.1,3.7,4.2,3.7h18.2l7,4.1l-1-4.1h0.3
		c2.2,0,3.1-1.9,3.1-3.7v-14.8C202.7,419.5,201.8,418.1,199.6,418.1L199.6,418.1z M199.6,418.1"/>
	<path class="st2" d="M191.2,408.8h-27.6c-2.4,0-5.2,2.2-5.2,4.2v16.8c0,1.9,2.4,3.3,4.6,3.5l-1.5,5.6l9.5-5.6h20.2
		c2.4,0,4.7-1.5,4.7-3.6v-16.8C195.9,411,193.6,408.8,191.2,408.8L191.2,408.8z M167.8,423c-1.4,0-2.5-1.1-2.5-2.5
		c0-1.4,1.1-2.5,2.5-2.5c1.4,0,2.5,1.1,2.5,2.5C170.3,421.9,169.1,423,167.8,423L167.8,423z M177.1,423c-1.4,0-2.5-1.1-2.5-2.5
		c0-1.4,1.1-2.5,2.5-2.5c1.4,0,2.5,1.1,2.5,2.5C179.6,421.9,178.5,423,177.1,423L177.1,423z M186.4,423c-1.4,0-2.5-1.1-2.5-2.5
		c0-1.4,1.1-2.5,2.5-2.5c1.4,0,2.5,1.1,2.5,2.5C188.9,421.9,187.8,423,186.4,423L186.4,423z M186.4,423"/>
</g>
<path class="st0" d="M126.7,582.2c0,5.5-4.4,9.9-9.9,9.9H52.8c-5.5,0-9.9-4.4-9.9-9.9V519c0-5.5,4.4-9.9,9.9-9.9h63.9
	c5.5,0,9.9,4.4,9.9,9.9V582.2z"/>
<g>
	<path class="st3" d="M69.8,578l-0.7-1.7h-3.7l-0.7,1.7H64l2.9-7.1h0.8l2.9,7.1H69.8z M67.2,571.6l-1.7,4.1h3.3L67.2,571.6z"/>
	<path class="st3" d="M75.3,578v-0.8c-0.4,0.5-1,0.9-1.8,0.9c-1.4,0-2.3-1-2.3-2.7c0-1.6,0.9-2.7,2.3-2.7c0.7,0,1.4,0.4,1.8,1v-2.8
		h0.6v7.1H75.3z M75.3,576.7v-2.5c-0.3-0.5-1-0.9-1.7-0.9c-1.1,0-1.8,1-1.8,2.2c0,1.2,0.7,2.2,1.8,2.2
		C74.3,577.6,75,577.2,75.3,576.7z"/>
	<path class="st3" d="M85.4,578l-0.7-1.7H81l-0.7,1.7h-0.7l2.9-7.1h0.8l2.9,7.1H85.4z M82.8,571.6l-1.7,4.1h3.3L82.8,571.6z"/>
	<path class="st3" d="M87.2,578v-4.6h-0.8v-0.5h0.8v-0.5c0-1,0.5-1.6,1.4-1.6c0.4,0,0.6,0.1,1,0.4l-0.3,0.4
		c-0.2-0.2-0.4-0.3-0.7-0.3c-0.6,0-0.9,0.4-0.9,1.1v0.5h1v0.5h-1v4.6H87.2z M90,578v-4.6h-0.8v-0.5H90v-0.5c0-1,0.5-1.6,1.4-1.6
		c0.3,0,0.5,0,0.7,0.2l-0.2,0.5c-0.1-0.1-0.3-0.1-0.5-0.1c-0.6,0-0.9,0.4-0.9,1.1v0.5h1v0.5h-1v4.6H90z M92.5,571.6
		c0-0.2,0.2-0.4,0.4-0.4c0.2,0,0.4,0.2,0.4,0.4s-0.2,0.4-0.4,0.4C92.7,572.1,92.5,571.9,92.5,571.6z M92.7,578v-5.1h0.5v5.1H92.7z"
		/>
	<path class="st3" d="M98.4,578v-3.5c0-1-0.5-1.3-1.2-1.3c-0.7,0-1.3,0.4-1.7,0.9v3.9h-0.5v-5.1h0.5v0.8c0.4-0.4,1.1-0.9,1.8-0.9
		c1,0,1.6,0.5,1.6,1.7v3.6H98.4z"/>
	<path class="st3" d="M100.5,571.6c0-0.2,0.2-0.4,0.4-0.4c0.2,0,0.4,0.2,0.4,0.4s-0.2,0.4-0.4,0.4
		C100.7,572.1,100.5,571.9,100.5,571.6z M100.6,578v-5.1h0.5v5.1H100.6z"/>
	<path class="st3" d="M103,577v-3.6h-0.8v-0.5h0.8v-1.4h0.6v1.4h1v0.5h-1v3.6c0,0.4,0.2,0.7,0.5,0.7c0.2,0,0.5-0.1,0.6-0.2l0.2,0.4
		c-0.2,0.2-0.4,0.3-0.9,0.3C103.3,578.1,103,577.7,103,577z"/>
	<path class="st3" d="M105.6,579.5c0.1,0.1,0.3,0.1,0.4,0.1c0.3,0,0.6-0.1,0.8-0.6l0.4-0.9l-2.2-5.1h0.6l1.9,4.5l1.8-4.5h0.6
		l-2.6,6.2c-0.3,0.6-0.7,1-1.3,1c-0.2,0-0.4,0-0.5-0.1L105.6,579.5z"/>
</g>
<path class="st0" d="M222,582.2c0,5.5-4.4,9.9-9.9,9.9h-63.9c-5.5,0-9.9-4.4-9.9-9.9V519c0-5.5,4.4-9.9,9.9-9.9h63.9
	c5.5,0,9.9,4.4,9.9,9.9V582.2z"/>
<g>
	<path class="st3" d="M149.4,575.5v-4.3h0.6v4.3c0,1.4,0.8,2.3,2.1,2.3c1.4,0,2.1-0.9,2.1-2.3v-4.3h0.6v4.3c0,1.7-0.9,2.8-2.7,2.8
		C150.4,578.4,149.4,577.3,149.4,575.5z"/>
	<path class="st3" d="M159.8,578.2v-3.5c0-1-0.5-1.3-1.2-1.3c-0.7,0-1.3,0.4-1.7,0.9v3.9h-0.5v-5.1h0.5v0.8c0.4-0.4,1.1-0.9,1.8-0.9
		c1,0,1.6,0.5,1.6,1.7v3.6H159.8z"/>
	<path class="st3" d="M161.7,571.9c0-0.2,0.2-0.4,0.4-0.4c0.2,0,0.4,0.2,0.4,0.4s-0.2,0.4-0.4,0.4
		C161.9,572.3,161.7,572.1,161.7,571.9z M161.8,578.2v-5.1h0.5v5.1H161.8z"/>
	<path class="st3" d="M163.5,575.7c0-1.6,0.9-2.7,2.3-2.7c0.8,0,1.4,0.4,1.8,0.9v-0.8h0.5v7.1h-0.5v-2.8c-0.4,0.6-1.1,1-1.8,1
		C164.4,578.4,163.5,577.3,163.5,575.7z M167.6,576.9v-2.5c-0.3-0.5-1-0.9-1.7-0.9c-1.1,0-1.8,0.9-1.8,2.2c0,1.2,0.6,2.2,1.8,2.2
		C166.6,577.9,167.3,577.4,167.6,576.9z"/>
	<path class="st3" d="M173,578.2v-0.8c-0.4,0.5-1.1,0.9-1.8,0.9c-1,0-1.6-0.5-1.6-1.6v-3.6h0.5v3.5c0,1,0.5,1.3,1.2,1.3
		c0.7,0,1.3-0.4,1.7-0.8v-3.9h0.5v5.1H173z"/>
	<path class="st3" d="M174.7,575.7c0-1.5,1-2.7,2.5-2.7c1.6,0,2.4,1.2,2.4,2.7v0.1h-4.3c0.1,1.1,0.8,2,2,2c0.6,0,1.2-0.2,1.7-0.7
		l0.3,0.4c-0.5,0.5-1.2,0.8-2,0.8C175.8,578.4,174.7,577.2,174.7,575.7z M177.2,573.5c-1.2,0-1.8,1.1-1.9,1.9h3.7
		C179,574.5,178.4,573.5,177.2,573.5z"/>
	<path class="st3" d="M183.2,575.5v-4.3h0.6v4.3c0,1.4,0.8,2.3,2.1,2.3c1.4,0,2.1-0.9,2.1-2.3v-4.3h0.6v4.3c0,1.7-0.9,2.8-2.7,2.8
		C184.2,578.4,183.2,577.3,183.2,575.5z"/>
	<path class="st3" d="M189.7,577.5l0.3-0.4c0.3,0.4,0.9,0.8,1.6,0.8c0.9,0,1.4-0.4,1.4-1c0-1.4-3.2-0.6-3.2-2.4
		c0-0.8,0.7-1.4,1.8-1.4c0.9,0,1.5,0.3,1.8,0.8l-0.3,0.4c-0.3-0.4-0.8-0.7-1.5-0.7c-0.8,0-1.3,0.4-1.3,0.9c0,1.3,3.2,0.5,3.2,2.5
		c0,0.8-0.6,1.5-1.9,1.5C190.9,578.4,190.3,578.1,189.7,577.5z"/>
	<path class="st3" d="M194.5,575.7c0-1.5,1-2.7,2.5-2.7c1.6,0,2.4,1.2,2.4,2.7v0.1h-4.3c0.1,1.1,0.8,2,2,2c0.6,0,1.2-0.2,1.7-0.7
		l0.3,0.4c-0.5,0.5-1.2,0.8-2,0.8C195.5,578.4,194.5,577.2,194.5,575.7z M196.9,573.5c-1.2,0-1.8,1.1-1.9,1.9h3.7
		C198.8,574.5,198.2,573.5,196.9,573.5z"/>
	<path class="st3" d="M200.5,578.2v-5.1h0.5v0.9c0.4-0.6,1-1,1.7-1v0.6c-0.1,0-0.2,0-0.3,0c-0.5,0-1.2,0.5-1.4,0.9v3.7H200.5z"/>
	<path class="st3" d="M205.9,571.9c0-0.2,0.2-0.4,0.4-0.4c0.2,0,0.4,0.2,0.4,0.4s-0.2,0.4-0.4,0.4
		C206.1,572.3,205.9,572.1,205.9,571.9z M206.1,578.2v-5.1h0.5v5.1H206.1z"/>
	<path class="st3" d="M211.8,578.2v-0.8c-0.4,0.5-1,0.9-1.8,0.9c-1.4,0-2.3-1-2.3-2.7c0-1.6,0.9-2.7,2.3-2.7c0.7,0,1.4,0.4,1.8,1
		v-2.8h0.6v7.1H211.8z M211.8,576.9v-2.5c-0.3-0.5-1-0.9-1.7-0.9c-1.1,0-1.8,1-1.8,2.2c0,1.2,0.7,2.2,1.8,2.2
		C210.9,577.9,211.5,577.4,211.8,576.9z"/>
</g>
<path class="st0" d="M173.1,675.4c0,5.5-4.4,9.9-9.9,9.9H99.2c-5.5,0-9.9-4.4-9.9-9.9v-63.2c0-5.5,4.4-9.9,9.9-9.9h63.9
	c5.5,0,9.9,4.4,9.9,9.9V675.4z"/>
<g>
	<path class="st3" d="M101.2,673.2v-7.1h0.6v6.5h3.4v0.5H101.2z"/>
	<path class="st3" d="M105.9,670.7c0-1.5,1-2.7,2.4-2.7c1.5,0,2.5,1.2,2.5,2.7c0,1.5-1,2.7-2.5,2.7
		C106.9,673.4,105.9,672.2,105.9,670.7z M110.2,670.7c0-1.1-0.7-2.2-1.9-2.2c-1.2,0-1.9,1-1.9,2.2c0,1.1,0.7,2.2,1.9,2.2
		C109.6,672.9,110.2,671.8,110.2,670.7z"/>
	<path class="st3" d="M111.9,670.7c0-1.5,1-2.7,2.5-2.7c0.9,0,1.4,0.3,1.8,0.9l-0.4,0.3c-0.4-0.5-0.8-0.7-1.4-0.7
		c-1.2,0-1.9,1-1.9,2.2s0.7,2.2,1.9,2.2c0.6,0,1-0.2,1.4-0.7l0.4,0.3c-0.4,0.5-0.9,0.9-1.8,0.9C112.9,673.4,111.9,672.2,111.9,670.7
		z"/>
	<path class="st3" d="M120.7,673.2v-0.6c-0.5,0.5-1,0.7-1.7,0.7c-0.9,0-1.8-0.6-1.8-1.7c0-1.1,0.9-1.7,1.8-1.7
		c0.7,0,1.3,0.2,1.7,0.7v-1c0-0.8-0.6-1.2-1.4-1.2c-0.6,0-1.1,0.2-1.6,0.8l-0.3-0.4c0.5-0.6,1.1-0.9,2-0.9c1,0,1.9,0.5,1.9,1.6v3.6
		H120.7z M120.7,672.2v-1.1c-0.4-0.5-0.9-0.7-1.5-0.7c-0.8,0-1.4,0.5-1.4,1.3c0,0.7,0.6,1.3,1.4,1.3
		C119.8,672.9,120.3,672.7,120.7,672.2z"/>
	<path class="st3" d="M123.1,672.3v-3.6h-0.8v-0.5h0.8v-1.4h0.6v1.4h1v0.5h-1v3.6c0,0.4,0.2,0.7,0.5,0.7c0.2,0,0.5-0.1,0.6-0.2
		l0.2,0.4c-0.2,0.2-0.4,0.3-0.9,0.3C123.4,673.4,123.1,673,123.1,672.3z"/>
	<path class="st3" d="M125.7,666.9c0-0.2,0.2-0.4,0.4-0.4c0.2,0,0.4,0.2,0.4,0.4s-0.2,0.4-0.4,0.4
		C125.9,667.3,125.7,667.1,125.7,666.9z M125.9,673.2v-5.1h0.5v5.1H125.9z"/>
	<path class="st3" d="M127.8,670.7c0-1.5,1-2.7,2.4-2.7c1.5,0,2.5,1.2,2.5,2.7c0,1.5-1,2.7-2.5,2.7
		C128.8,673.4,127.8,672.2,127.8,670.7z M132.2,670.7c0-1.1-0.7-2.2-1.9-2.2c-1.2,0-1.9,1-1.9,2.2c0,1.1,0.7,2.2,1.9,2.2
		C131.5,672.9,132.2,671.8,132.2,670.7z"/>
	<path class="st3" d="M137.6,673.2v-3.5c0-1-0.5-1.3-1.2-1.3c-0.7,0-1.3,0.4-1.7,0.9v3.9h-0.5v-5.1h0.5v0.8c0.4-0.4,1.1-0.9,1.8-0.9
		c1,0,1.6,0.5,1.6,1.7v3.6H137.6z"/>
	<path class="st3" d="M142.6,673.2v-7.1h2.3c2.2,0,3.6,1.6,3.6,3.5c0,2-1.4,3.5-3.6,3.5H142.6z M147.8,669.7c0-1.6-1.1-3-2.9-3h-1.6
		v6h1.6C146.7,672.7,147.8,671.4,147.8,669.7z"/>
	<path class="st3" d="M153.2,673.2v-0.6c-0.5,0.5-1,0.7-1.7,0.7c-0.9,0-1.8-0.6-1.8-1.7c0-1.1,0.9-1.7,1.8-1.7
		c0.7,0,1.3,0.2,1.7,0.7v-1c0-0.8-0.6-1.2-1.4-1.2c-0.6,0-1.1,0.2-1.6,0.8l-0.3-0.4c0.5-0.6,1.1-0.9,2-0.9c1,0,1.9,0.5,1.9,1.6v3.6
		H153.2z M153.2,672.2v-1.1c-0.4-0.5-0.9-0.7-1.5-0.7c-0.8,0-1.4,0.5-1.4,1.3c0,0.7,0.6,1.3,1.4,1.3
		C152.2,672.9,152.8,672.7,153.2,672.2z"/>
	<path class="st3" d="M155.5,672.3v-3.6h-0.8v-0.5h0.8v-1.4h0.6v1.4h1v0.5h-1v3.6c0,0.4,0.2,0.7,0.5,0.7c0.2,0,0.5-0.1,0.6-0.2
		l0.2,0.4c-0.2,0.2-0.4,0.3-0.9,0.3C155.9,673.4,155.5,673,155.5,672.3z"/>
	<path class="st3" d="M161.6,673.2v-0.6c-0.5,0.5-1,0.7-1.7,0.7c-0.9,0-1.8-0.6-1.8-1.7c0-1.1,0.9-1.7,1.8-1.7
		c0.7,0,1.3,0.2,1.7,0.7v-1c0-0.8-0.6-1.2-1.4-1.2c-0.6,0-1.1,0.2-1.6,0.8l-0.3-0.4c0.5-0.6,1.1-0.9,2-0.9c1,0,1.9,0.5,1.9,1.6v3.6
		H161.6z M161.6,672.2v-1.1c-0.4-0.5-0.9-0.7-1.5-0.7c-0.8,0-1.4,0.5-1.4,1.3c0,0.7,0.6,1.3,1.4,1.3
		C160.7,672.9,161.2,672.7,161.6,672.2z"/>
</g>
<path class="st0" d="M268.4,675.4c0,5.5-4.4,9.9-9.9,9.9h-63.9c-5.5,0-9.9-4.4-9.9-9.9v-63.2c0-5.5,4.4-9.9,9.9-9.9h63.9
	c5.5,0,9.9,4.4,9.9,9.9V675.4z"/>
<g>
	<path class="st3" d="M199.7,673.2l-0.7-1.7h-3.7l-0.7,1.7h-0.7l2.9-7.1h0.8l2.9,7.1H199.7z M197.1,666.8l-1.7,4.1h3.3L197.1,666.8z
		"/>
	<path class="st3" d="M202,672.4v2.8h-0.5v-7.1h0.5v0.8c0.4-0.5,1-0.9,1.8-0.9c1.4,0,2.3,1,2.3,2.7c0,1.6-0.9,2.7-2.3,2.7
		C203,673.4,202.4,673,202,672.4z M205.4,670.7c0-1.2-0.6-2.2-1.8-2.2c-0.7,0-1.4,0.4-1.7,0.9v2.5c0.3,0.5,1,0.9,1.7,0.9
		C204.8,672.9,205.4,671.9,205.4,670.7z"/>
	<path class="st3" d="M208,672.4v2.8h-0.5v-7.1h0.5v0.8c0.4-0.5,1-0.9,1.8-0.9c1.4,0,2.3,1,2.3,2.7c0,1.6-0.9,2.7-2.3,2.7
		C209,673.4,208.4,673,208,672.4z M211.4,670.7c0-1.2-0.6-2.2-1.8-2.2c-0.7,0-1.4,0.4-1.7,0.9v2.5c0.3,0.5,1,0.9,1.7,0.9
		C210.8,672.9,211.4,671.9,211.4,670.7z"/>
	<path class="st3" d="M216.2,673.2v-7.1h0.6v7.1H216.2z"/>
	<path class="st3" d="M221.9,673.2v-3.5c0-1-0.5-1.3-1.2-1.3c-0.7,0-1.3,0.4-1.7,0.9v3.9h-0.5v-5.1h0.5v0.8c0.4-0.4,1.1-0.9,1.8-0.9
		c1,0,1.6,0.5,1.6,1.7v3.6H221.9z"/>
	<path class="st3" d="M223.8,672.5l0.3-0.4c0.3,0.4,0.9,0.8,1.6,0.8c0.9,0,1.4-0.4,1.4-1c0-1.4-3.2-0.6-3.2-2.4
		c0-0.8,0.7-1.4,1.8-1.4c0.9,0,1.5,0.3,1.8,0.8l-0.3,0.4c-0.3-0.4-0.8-0.7-1.5-0.7c-0.8,0-1.3,0.4-1.3,0.9c0,1.3,3.2,0.5,3.2,2.5
		c0,0.8-0.6,1.5-1.9,1.5C224.9,673.4,224.3,673.1,223.8,672.5z"/>
	<path class="st3" d="M229.2,672.3v-3.6h-0.8v-0.5h0.8v-1.4h0.6v1.4h1v0.5h-1v3.6c0,0.4,0.2,0.7,0.5,0.7c0.2,0,0.5-0.1,0.6-0.2
		l0.2,0.4c-0.2,0.2-0.4,0.3-0.9,0.3C229.5,673.4,229.2,673,229.2,672.3z"/>
	<path class="st3" d="M235.2,673.2v-0.6c-0.5,0.5-1,0.7-1.7,0.7c-0.9,0-1.8-0.6-1.8-1.7c0-1.1,0.9-1.7,1.8-1.7
		c0.7,0,1.3,0.2,1.7,0.7v-1c0-0.8-0.6-1.2-1.4-1.2c-0.6,0-1.1,0.2-1.6,0.8l-0.3-0.4c0.5-0.6,1.1-0.9,2-0.9c1,0,1.9,0.5,1.9,1.6v3.6
		H235.2z M235.2,672.2v-1.1c-0.4-0.5-0.9-0.7-1.5-0.7c-0.8,0-1.4,0.5-1.4,1.3c0,0.7,0.6,1.3,1.4,1.3
		C234.3,672.9,234.8,672.7,235.2,672.2z"/>
	<path class="st3" d="M237.5,673.2v-7.1h0.5v7.1H237.5z"/>
	<path class="st3" d="M239.7,673.2v-7.1h0.5v7.1H239.7z"/>
	<path class="st3" d="M244.8,673.2v-7.1h2.3c2.2,0,3.6,1.6,3.6,3.5c0,2-1.4,3.5-3.6,3.5H244.8z M249.9,669.7c0-1.6-1.1-3-2.9-3h-1.6
		v6h1.6C248.9,672.7,249.9,671.4,249.9,669.7z"/>
	<path class="st3" d="M255.3,673.2v-0.6c-0.5,0.5-1,0.7-1.7,0.7c-0.9,0-1.8-0.6-1.8-1.7c0-1.1,0.9-1.7,1.8-1.7
		c0.7,0,1.3,0.2,1.7,0.7v-1c0-0.8-0.6-1.2-1.4-1.2c-0.6,0-1.1,0.2-1.6,0.8l-0.3-0.4c0.5-0.6,1.1-0.9,2-0.9c1,0,1.9,0.5,1.9,1.6v3.6
		H255.3z M255.3,672.2v-1.1c-0.4-0.5-0.9-0.7-1.5-0.7c-0.8,0-1.4,0.5-1.4,1.3c0,0.7,0.6,1.3,1.4,1.3
		C254.4,672.9,254.9,672.7,255.3,672.2z"/>
	<path class="st3" d="M257.7,672.3v-3.6h-0.8v-0.5h0.8v-1.4h0.6v1.4h1v0.5h-1v3.6c0,0.4,0.2,0.7,0.5,0.7c0.2,0,0.5-0.1,0.6-0.2
		l0.2,0.4c-0.2,0.2-0.4,0.3-0.9,0.3C258,673.4,257.7,673,257.7,672.3z"/>
	<path class="st3" d="M263.7,673.2v-0.6c-0.5,0.5-1,0.7-1.7,0.7c-0.9,0-1.8-0.6-1.8-1.7c0-1.1,0.9-1.7,1.8-1.7
		c0.7,0,1.3,0.2,1.7,0.7v-1c0-0.8-0.6-1.2-1.4-1.2c-0.6,0-1.1,0.2-1.6,0.8l-0.3-0.4c0.5-0.6,1.1-0.9,2-0.9c1,0,1.9,0.5,1.9,1.6v3.6
		H263.7z M263.7,672.2v-1.1c-0.4-0.5-0.9-0.7-1.5-0.7c-0.8,0-1.4,0.5-1.4,1.3c0,0.7,0.6,1.3,1.4,1.3
		C262.8,672.9,263.3,672.7,263.7,672.2z"/>
</g>
<path class="st0" d="M317,582.2c0,5.5-4.4,9.9-9.9,9.9h-63.9c-5.5,0-9.9-4.4-9.9-9.9V519c0-5.5,4.4-9.9,9.9-9.9h63.9
	c5.5,0,9.9,4.4,9.9,9.9V582.2z"/>
<g>
	<path class="st3" d="M258.1,578.2v-7.1h2.6c1.4,0,2.1,1,2.1,2.1s-0.8,2.1-2.1,2.1h-2v2.9H258.1z M262.3,573.2
		c0-0.9-0.6-1.5-1.6-1.5h-2v3h2C261.7,574.7,262.3,574.1,262.3,573.2z"/>
	<path class="st3" d="M267.6,578.2v-0.8c-0.4,0.5-1.1,0.9-1.8,0.9c-1,0-1.6-0.5-1.6-1.6v-3.6h0.5v3.5c0,1,0.5,1.3,1.2,1.3
		c0.7,0,1.3-0.4,1.7-0.8v-3.9h0.5v5.1H267.6z"/>
	<path class="st3" d="M269.9,578.2v-5.1h0.5v0.9c0.4-0.6,1-1,1.7-1v0.6c-0.1,0-0.2,0-0.3,0c-0.5,0-1.2,0.5-1.4,0.9v3.7H269.9z"/>
	<path class="st3" d="M272.9,575.7c0-1.5,1-2.7,2.5-2.7c0.9,0,1.4,0.3,1.8,0.9l-0.4,0.3c-0.4-0.5-0.8-0.7-1.4-0.7
		c-1.2,0-1.9,1-1.9,2.2s0.7,2.2,1.9,2.2c0.6,0,1-0.2,1.4-0.7l0.4,0.3c-0.4,0.5-0.9,0.9-1.8,0.9C273.9,578.4,272.9,577.2,272.9,575.7
		z"/>
	<path class="st3" d="M281.9,578.2v-3.5c0-1-0.5-1.3-1.2-1.3c-0.7,0-1.3,0.4-1.7,0.9v3.9h-0.5v-7.1h0.5v2.7c0.4-0.4,1.1-0.9,1.8-0.9
		c1,0,1.6,0.5,1.6,1.6v3.6H281.9z"/>
	<path class="st3" d="M287.4,578.2v-0.6c-0.5,0.5-1,0.7-1.7,0.7c-0.9,0-1.8-0.6-1.8-1.7c0-1.1,0.9-1.7,1.8-1.7
		c0.7,0,1.3,0.2,1.7,0.7v-1c0-0.8-0.6-1.2-1.4-1.2c-0.6,0-1.1,0.2-1.6,0.8l-0.3-0.4c0.5-0.6,1.1-0.9,2-0.9c1,0,1.9,0.5,1.9,1.6v3.6
		H287.4z M287.4,577.2v-1.1c-0.4-0.5-0.9-0.7-1.5-0.7c-0.8,0-1.4,0.5-1.4,1.3c0,0.7,0.6,1.3,1.4,1.3
		C286.5,577.9,287,577.7,287.4,577.2z"/>
	<path class="st3" d="M289.2,577.5l0.3-0.4c0.3,0.4,0.9,0.8,1.6,0.8c0.9,0,1.4-0.4,1.4-1c0-1.4-3.2-0.6-3.2-2.4
		c0-0.8,0.7-1.4,1.8-1.4c0.9,0,1.5,0.3,1.8,0.8l-0.3,0.4c-0.3-0.4-0.8-0.7-1.5-0.7c-0.8,0-1.3,0.4-1.3,0.9c0,1.3,3.2,0.5,3.2,2.5
		c0,0.8-0.6,1.5-1.9,1.5C290.4,578.4,289.7,578.1,289.2,577.5z"/>
	<path class="st3" d="M294.2,575.7c0-1.5,1-2.7,2.5-2.7c1.6,0,2.4,1.2,2.4,2.7v0.1h-4.3c0.1,1.1,0.8,2,2,2c0.6,0,1.2-0.2,1.7-0.7
		l0.3,0.4c-0.5,0.5-1.2,0.8-2,0.8C295.3,578.4,294.2,577.2,294.2,575.7z M296.7,573.5c-1.2,0-1.8,1.1-1.9,1.9h3.7
		C298.5,574.5,298,573.5,296.7,573.5z"/>
	<path class="st3" d="M255.2,589.8v-7.1h2.6c1.4,0,2.1,1,2.1,2.1s-0.8,2.1-2.1,2.1h-2v2.9H255.2z M259.4,584.8
		c0-0.9-0.6-1.5-1.6-1.5h-2v3h2C258.7,586.3,259.4,585.7,259.4,584.8z"/>
	<path class="st3" d="M261.2,589.8v-5.1h0.5v0.9c0.4-0.6,1-1,1.7-1v0.6c-0.1,0-0.2,0-0.3,0c-0.5,0-1.2,0.5-1.4,0.9v3.7H261.2z"/>
	<path class="st3" d="M264.3,587.3c0-1.5,1-2.7,2.4-2.7c1.5,0,2.5,1.2,2.5,2.7c0,1.5-1,2.7-2.5,2.7
		C265.3,590,264.3,588.8,264.3,587.3z M268.6,587.3c0-1.1-0.7-2.2-1.9-2.2c-1.2,0-1.9,1-1.9,2.2c0,1.1,0.7,2.2,1.9,2.2
		C268,589.5,268.6,588.4,268.6,587.3z"/>
	<path class="st3" d="M271.2,589v2.8h-0.5v-7.1h0.5v0.8c0.4-0.5,1-0.9,1.8-0.9c1.4,0,2.3,1,2.3,2.7c0,1.6-0.9,2.7-2.3,2.7
		C272.2,590,271.6,589.6,271.2,589z M274.6,587.3c0-1.2-0.6-2.2-1.8-2.2c-0.7,0-1.4,0.4-1.7,0.9v2.5c0.3,0.5,1,0.9,1.7,0.9
		C274,589.5,274.6,588.5,274.6,587.3z"/>
	<path class="st3" d="M276.3,587.3c0-1.5,1-2.7,2.5-2.7c1.6,0,2.4,1.2,2.4,2.7v0.1h-4.3c0.1,1.1,0.8,2,2,2c0.6,0,1.2-0.2,1.7-0.7
		l0.3,0.4c-0.5,0.5-1.2,0.8-2,0.8C277.4,590,276.3,588.8,276.3,587.3z M278.8,585.1c-1.2,0-1.8,1.1-1.9,1.9h3.7
		C280.6,586.1,280.1,585.1,278.8,585.1z"/>
	<path class="st3" d="M286.1,589.8v-3.5c0-1-0.5-1.3-1.2-1.3c-0.7,0-1.3,0.4-1.7,0.9v3.9h-0.5v-5.1h0.5v0.8c0.4-0.4,1.1-0.9,1.8-0.9
		c1,0,1.6,0.5,1.6,1.7v3.6H286.1z"/>
	<path class="st3" d="M287.9,589.1l0.3-0.4c0.3,0.4,0.9,0.8,1.6,0.8c0.9,0,1.4-0.4,1.4-1c0-1.4-3.2-0.6-3.2-2.4
		c0-0.8,0.7-1.4,1.8-1.4c0.9,0,1.5,0.3,1.8,0.8l-0.3,0.4c-0.3-0.4-0.8-0.7-1.5-0.7c-0.8,0-1.3,0.4-1.3,0.9c0,1.3,3.2,0.5,3.2,2.5
		c0,0.8-0.6,1.5-1.9,1.5C289,590,288.4,589.7,287.9,589.1z"/>
	<path class="st3" d="M293,583.5c0-0.2,0.2-0.4,0.4-0.4c0.2,0,0.4,0.2,0.4,0.4s-0.2,0.4-0.4,0.4C293.2,583.9,293,583.7,293,583.5z
		 M293.2,589.8v-5.1h0.5v5.1H293.2z"/>
	<path class="st3" d="M295.5,588.8v-3.6h-0.8v-0.5h0.8v-1.4h0.6v1.4h1v0.5h-1v3.6c0,0.4,0.2,0.7,0.5,0.7c0.2,0,0.5-0.1,0.6-0.2
		l0.2,0.4c-0.2,0.2-0.4,0.3-0.9,0.3C295.9,590,295.5,589.5,295.5,588.8z"/>
	<path class="st3" d="M298.1,591.3c0.1,0.1,0.3,0.1,0.4,0.1c0.3,0,0.6-0.1,0.8-0.6l0.4-0.9l-2.2-5.1h0.6l1.9,4.5l1.8-4.5h0.6
		l-2.6,6.2c-0.3,0.6-0.7,1-1.3,1c-0.2,0-0.4,0-0.5-0.1L298.1,591.3z"/>
</g>
<g>
	<path class="st2" d="M262.4,419.4V417c0-1.4,1.1-2.6,2.5-2.6h23.2c1.4,0,2.5,1.1,2.5,2.6v2.5l3.3-3.3c0.1-0.1,0.2-0.3,0.2-0.5
		c0-0.2-0.1-0.4-0.3-0.5l-15.8-12.3c-0.9-0.7-2.2-0.7-3.1,0l-15.8,12.3c-0.2,0.1-0.2,0.3-0.3,0.5c0,0.2,0.1,0.4,0.2,0.5L262.4,419.4
		z M262.4,419.4"/>
	<path class="st2" d="M297.1,418.2c-0.3-0.1-0.5,0-0.7,0.1L279,435.6c-0.7,0.7-1.6,1-2.5,1c-0.9,0-1.8-0.4-2.5-1l-17.3-17.3
		c-0.2-0.2-0.5-0.3-0.7-0.2c-0.2,0.1-0.4,0.4-0.4,0.6v22c0,1.5,1.3,2.8,2.8,2.8h36.3c1.5,0,2.8-1.3,2.8-2.8v-22
		C297.5,418.5,297.3,418.3,297.1,418.2L297.1,418.2z M297.1,418.2"/>
	<path class="st2" d="M284.3,418.3h-15.5c-0.8,0-1.4,0.6-1.4,1.4c0,0.8,0.6,1.4,1.4,1.4h15.5c0.8,0,1.4-0.6,1.4-1.4
		C285.7,418.9,285,418.3,284.3,418.3L284.3,418.3z M284.3,418.3"/>
	<path class="st2" d="M284.3,423.9h-15.5c-0.8,0-1.4,0.6-1.4,1.4c0,0.8,0.6,1.4,1.4,1.4h15.5c0.8,0,1.4-0.6,1.4-1.4
		C285.7,424.5,285,423.9,284.3,423.9L284.3,423.9z M284.3,423.9"/>
</g>
<g>
	<path class="st2" d="M102.6,527.5c0,2.5-7.1,4.6-16,4.6c-8.8,0-16-2-16-4.6c0-2.5,7.1-4.6,16-4.6C95.5,523,102.6,525,102.6,527.5"
		/>
	<path class="st2" d="M86.7,534.4c-1.4,0-11.4-0.1-16-3.2v5.5c0,2.5,7.1,4.6,16,4.6c8.8,0,16-2,16-4.6v-5.5
		C98.1,534.3,88.1,534.4,86.7,534.4"/>
	<path class="st2" d="M86.7,543.5c-1.4,0-11.4-0.1-16-3.2v5.5c0,2.5,7.1,4.6,16,4.6c8.8,0,16-2,16-4.6v-5.5
		C98.1,543.4,88.1,543.5,86.7,543.5"/>
	<path class="st2" d="M86.7,552.6c-1.4,0-11.4-0.1-16-3.2v5.5c0,2.5,7.1,4.6,16,4.6c8.8,0,16-2,16-4.6v-5.5
		C98.1,552.5,88.1,552.6,86.7,552.6"/>
</g>
<g>
	<path class="st2" d="M198.3,523.9h-33.8c-3.8,0-7,3.1-7,7v21.4c0,3.9,3.1,7,7,7h33.8c3.8,0,7-3.1,7-7v-21.4
		C205.2,527,202.1,523.9,198.3,523.9L198.3,523.9z M201.1,552.2c0,1.6-1.3,2.8-2.8,2.8h-33.8c-1.6,0-2.8-1.3-2.8-2.8v-21.3
		c0-1.6,1.3-2.8,2.8-2.8h33.8c1.6,0,2.8,1.3,2.8,2.8V552.2z M201.1,552.2"/>
	<path class="st2" d="M174.6,539.2c0.9-0.7,1.6-1.9,1.6-3.2c0-2.2-1.8-4.1-4.1-4.1c-2.2,0-4.1,1.8-4.1,4.1c0,1.2,0.6,2.4,1.6,3.1
		c-2,0.9-3.3,2.9-3.3,5.2v5.2c0,0.8,0.7,1.6,1.6,1.6h8.4c0.8,0,1.4-0.7,1.4-1.6v-5.2C177.8,542.1,176.5,540.1,174.6,539.2
		L174.6,539.2z M174.6,539.2"/>
	<path class="st2" d="M181.2,536.8h8.6c1.1,0,2.2-0.9,2.2-2.2s-0.9-2.2-2.2-2.2h-8.6c-1.1,0-2.2,0.9-2.2,2.2S180,536.8,181.2,536.8
		L181.2,536.8z M181.2,536.8"/>
	<path class="st2" d="M194.1,539.4h-12.9c-1.1,0-2.2,0.9-2.2,2.2c0,1.2,0.9,2.2,2.2,2.2h13c1.1,0,2.2-0.9,2.2-2.2
		C196.4,540.3,195.4,539.4,194.1,539.4L194.1,539.4z M194.1,539.4"/>
	<path class="st2" d="M194.1,546.2h-12.9c-1.2,0-2.2,1-2.2,2.2c0,1.1,0.9,2.2,2.2,2.2h13c1.1,0,2.2-0.9,2.2-2.2
		S195.4,546.2,194.1,546.2L194.1,546.2z M194.1,546.2"/>
</g>
<path class="st2" d="M297.2,531.8c-0.5-0.7-1.3-1-2.2-1h-2.3l0.5-0.5c0.2-0.2,0.3-0.4,0.3-0.7c0-0.3-0.1-0.5-0.3-0.7l-5.3-5.3
	c-0.4-0.4-1-0.4-1.3,0l-6.2,6.2v-5.5c0-0.5-0.4-0.9-0.9-0.9h-11.9c-0.5,0-0.9,0.4-0.9,0.9v6.4c0,0,0,0,0,0h-3.8l-0.3-1.6
	c-0.2-1-0.9-1.9-2-2.2l-8.2-2.5c-1.5-0.5-3.1,0.4-3.6,1.9c-0.5,1.5,0.4,3.1,1.9,3.6l6.6,2l5,22c0.2,0.9,0.8,1.7,1.6,2.1
	c0,0.2,0,0.4,0,0.6c0,2.7,2.2,4.8,4.8,4.8c2.7,0,4.8-2.2,4.8-4.8c0-0.1,0-0.2,0-0.3h7.6c0,0.1,0,0.2,0,0.3c0,2.7,2.2,4.8,4.8,4.8
	c2.7,0,4.8-2.2,4.8-4.8c0-0.1,0-0.2,0-0.3c1.2-0.1,2.2-1.1,2.5-2.3l4.6-19.7C297.9,533.3,297.7,532.5,297.2,531.8L297.2,531.8z
	 M268.7,558.9c-1.3,0-2.4-1.1-2.4-2.4c0-1.3,1.1-2.3,2.4-2.3c1.3,0,2.4,1.1,2.4,2.3C271,557.8,270,558.9,268.7,558.9L268.7,558.9z
	 M285.9,558.9c-1.3,0-2.3-1.1-2.3-2.4c0-1.3,1.1-2.3,2.3-2.3c1.3,0,2.3,1.1,2.3,2.3C288.3,557.8,287.2,558.9,285.9,558.9
	L285.9,558.9z M287.6,549.1h-19.5c-0.9,0-1.7-0.8-1.7-1.7c0-0.9,0.8-1.7,1.7-1.7h19.5c0.9,0,1.7,0.8,1.7,1.7
	C289.3,548.3,288.5,549.1,287.6,549.1L287.6,549.1z M287.6,540h-19.5c-0.9,0-1.7-0.8-1.7-1.7c0-0.9,0.8-1.7,1.7-1.7h19.5
	c0.9,0,1.7,0.8,1.7,1.7C289.3,539.2,288.5,540,287.6,540L287.6,540z M287.6,540"/>
<g>
	<path class="st2" d="M134.7,622.4c-0.6-1.2-1.9-2-3.3-2h-17.1c-1.4,0-2.5,1.1-2.5,2.5v1.3h23.8L134.7,622.4z M134.7,622.4"/>
	<path class="st2" d="M151.1,626.5h-39.3v23c0,1.4,1.1,2.5,2.5,2.5h36.8c1.4,0,2.5-1.1,2.5-2.5v-20.5
		C153.6,627.6,152.5,626.5,151.1,626.5L151.1,626.5z M151.1,626.5"/>
</g>
<g>
	<path class="st2" d="M237.7,645.2h-19.9v-28.5h19.9v2.1h2.7v-2.7c0-2.6-2.1-4.6-4.7-4.6h-15.9c-2.6,0-4.7,2.1-4.7,4.6v33.4
		c0,2.6,2.1,4.7,4.7,4.7h15.9c2.6,0,4.7-2.1,4.7-4.7v-4.3L237.7,645.2L237.7,645.2z M227.7,651.8c-1.2,0-2.1-1-2.1-2.1
		c0-1.2,1-2.1,2.1-2.1c1.2,0,2.1,1,2.1,2.1C229.9,650.8,228.9,651.8,227.7,651.8L227.7,651.8z M227.7,651.8"/>
	<rect x="220.1" y="619.5" class="st2" width="6" height="3.6"/>
	<rect x="220.1" y="628.8" class="st2" width="6" height="3.6"/>
	<rect x="220.1" y="638.6" class="st2" width="6" height="3.6"/>
	<path class="st2" d="M247.2,630.4c-0.2-1.1-0.6-2.1-1.2-3l2.1-2.1l-2.2-2.2l-2.1,2.1c-0.9-0.6-1.9-1-3-1.2v-3h-3.1v3
		c-1.1,0.2-2.1,0.6-3,1.2l-2.1-2.1l-2.2,2.2l2.1,2.1c-0.6,0.9-1,1.9-1.2,3h-3v3.1h3c0.2,1.1,0.6,2.1,1.2,3l-2.1,2.1l2.2,2.2l2.1-2.1
		c0.9,0.6,1.9,1,3,1.2v3h3.1v-3c1.1-0.2,2.1-0.6,3-1.2l2.1,2.1l2.2-2.2l-2.1-2.1c0.6-0.9,1-1.9,1.2-3h3v-3.1H247.2z M239.2,635.4
		c-1.9,0-3.4-1.5-3.4-3.4c0-1.8,1.5-3.4,3.4-3.4c1.9,0,3.4,1.5,3.4,3.4C242.6,633.9,241.1,635.4,239.2,635.4L239.2,635.4z
		 M239.2,635.4"/>
</g>
<g>
	<path d="M207.8,331.5c0-2.2,1.6-3.6,3.6-3.6c1.1,0,2,0.5,2.6,1.2l-0.5,0.3c-0.4-0.6-1.2-1-2.1-1c-1.6,0-2.9,1.3-2.9,3.1
		c0,1.8,1.3,3.1,2.9,3.1c0.8,0,1.6-0.4,2.1-1l0.5,0.3c-0.6,0.8-1.5,1.3-2.6,1.3C209.4,335.1,207.8,333.7,207.8,331.5z"/>
	<path d="M218.6,335v-0.8c-0.4,0.5-1.1,0.9-1.8,0.9c-1,0-1.6-0.5-1.6-1.6v-3.6h0.5v3.5c0,1,0.5,1.3,1.2,1.3c0.7,0,1.3-0.4,1.7-0.8
		v-3.9h0.5v5.1H218.6z"/>
	<path d="M220.4,334.3l0.3-0.4c0.3,0.4,0.9,0.8,1.6,0.8c0.9,0,1.4-0.4,1.4-1c0-1.4-3.2-0.6-3.2-2.4c0-0.8,0.7-1.4,1.8-1.4
		c0.9,0,1.5,0.3,1.8,0.8l-0.3,0.4c-0.3-0.4-0.8-0.7-1.5-0.7c-0.8,0-1.3,0.4-1.3,0.9c0,1.3,3.2,0.5,3.2,2.5c0,0.8-0.6,1.5-1.9,1.5
		C221.5,335.1,220.9,334.9,220.4,334.3z"/>
	<path d="M225.8,334v-3.6H225v-0.5h0.8v-1.4h0.6v1.4h1v0.5h-1v3.6c0,0.4,0.2,0.7,0.5,0.7c0.2,0,0.5-0.1,0.6-0.2l0.2,0.4
		c-0.2,0.2-0.4,0.3-0.9,0.3C226.1,335.1,225.8,334.7,225.8,334z"/>
	<path d="M228.3,332.5c0-1.5,1-2.7,2.4-2.7c1.5,0,2.5,1.2,2.5,2.7c0,1.5-1,2.7-2.5,2.7C229.3,335.1,228.3,334,228.3,332.5z
		 M232.6,332.5c0-1.1-0.7-2.2-1.9-2.2c-1.2,0-1.9,1-1.9,2.2c0,1.1,0.7,2.2,1.9,2.2C232,334.6,232.6,333.6,232.6,332.5z"/>
	<path d="M240.7,335v-3.6c0-0.7-0.3-1.2-1-1.2c-0.5,0-1.2,0.4-1.5,0.9v3.9h-0.6v-3.6c0-0.7-0.3-1.2-1-1.2c-0.5,0-1.2,0.4-1.5,0.9
		v3.9h-0.5v-5.1h0.5v0.8c0.2-0.3,0.9-0.9,1.6-0.9c0.8,0,1.2,0.5,1.3,1c0.3-0.5,1-1,1.7-1c0.9,0,1.4,0.5,1.4,1.6v3.7H240.7z"/>
	<path d="M242.7,332.5c0-1.5,1-2.7,2.5-2.7c1.6,0,2.4,1.2,2.4,2.7v0.1h-4.3c0.1,1.1,0.8,2,2,2c0.6,0,1.2-0.2,1.7-0.7l0.3,0.4
		c-0.5,0.5-1.2,0.8-2,0.8C243.8,335.1,242.7,334,242.7,332.5z M245.1,330.3c-1.2,0-1.8,1.1-1.9,1.9h3.7
		C247,331.3,246.4,330.3,245.1,330.3z"/>
	<path d="M249,335v-5.1h0.5v0.9c0.4-0.6,1-1,1.7-1v0.6c-0.1,0-0.2,0-0.3,0c-0.5,0-1.2,0.5-1.4,0.9v3.7H249z"/>
	<path d="M194.5,347.7v-4.6h-0.8v-0.5h0.8v-0.5c0-1,0.5-1.6,1.4-1.6c0.4,0,0.6,0.1,1,0.4l-0.3,0.4c-0.2-0.2-0.4-0.3-0.7-0.3
		c-0.6,0-0.9,0.4-0.9,1.1v0.5h1v0.5h-1v4.6H194.5z"/>
	<path d="M196.9,345.1c0-1.5,1-2.7,2.5-2.7c1.6,0,2.4,1.2,2.4,2.7v0.1h-4.3c0.1,1.1,0.8,2,2,2c0.6,0,1.2-0.2,1.7-0.7l0.3,0.4
		c-0.5,0.5-1.2,0.8-2,0.8C197.9,347.8,196.9,346.7,196.9,345.1z M199.3,342.9c-1.2,0-1.8,1.1-1.9,1.9h3.7
		C201.2,344,200.6,342.9,199.3,342.9z"/>
	<path d="M202.9,345.1c0-1.5,1-2.7,2.5-2.7c1.6,0,2.4,1.2,2.4,2.7v0.1h-4.3c0.1,1.1,0.8,2,2,2c0.6,0,1.2-0.2,1.7-0.7l0.3,0.4
		c-0.5,0.5-1.2,0.8-2,0.8C203.9,347.8,202.9,346.7,202.9,345.1z M205.3,342.9c-1.2,0-1.8,1.1-1.9,1.9h3.7
		C207.2,344,206.6,342.9,205.3,342.9z"/>
	<path d="M209.1,347.7v-7.1h0.5v2.8c0.4-0.6,1.1-1,1.8-1c1.4,0,2.3,1.1,2.3,2.7c0,1.6-0.9,2.7-2.3,2.7c-0.8,0-1.4-0.4-1.8-0.9v0.8
		H209.1z M211.4,347.3c1.1,0,1.8-0.9,1.8-2.2c0-1.2-0.6-2.2-1.8-2.2c-0.7,0-1.4,0.4-1.7,0.9v2.5C210,346.9,210.7,347.3,211.4,347.3z
		"/>
	<path d="M218.4,347.7v-0.6c-0.5,0.5-1,0.7-1.7,0.7c-0.9,0-1.8-0.6-1.8-1.7c0-1.1,0.9-1.7,1.8-1.7c0.7,0,1.3,0.2,1.7,0.7v-1
		c0-0.8-0.6-1.2-1.4-1.2c-0.6,0-1.1,0.2-1.6,0.8l-0.3-0.4c0.5-0.6,1.1-0.9,2-0.9c1,0,1.9,0.5,1.9,1.6v3.6H218.4z M218.4,346.7v-1.1
		c-0.4-0.5-0.9-0.7-1.5-0.7c-0.8,0-1.4,0.5-1.4,1.3c0,0.7,0.6,1.3,1.4,1.3C217.5,347.4,218.1,347.2,218.4,346.7z"/>
	<path d="M220.4,345.1c0-1.5,1-2.7,2.5-2.7c0.9,0,1.4,0.3,1.8,0.9l-0.4,0.3c-0.4-0.5-0.8-0.7-1.4-0.7c-1.2,0-1.9,1-1.9,2.2
		s0.7,2.2,1.9,2.2c0.6,0,1-0.2,1.4-0.7l0.4,0.3c-0.4,0.5-0.9,0.9-1.8,0.9C221.4,347.8,220.4,346.6,220.4,345.1z"/>
	<path d="M229.5,347.7l-2-2.4l-1,0.9v1.5h-0.5v-7.1h0.5v4.9l3-2.9h0.7l-2.4,2.3l2.4,2.8H229.5z"/>
	<path d="M233.5,347l0.3-0.4c0.3,0.4,0.9,0.8,1.6,0.8c0.9,0,1.4-0.4,1.4-1c0-1.4-3.2-0.6-3.2-2.4c0-0.8,0.7-1.4,1.8-1.4
		c0.9,0,1.5,0.3,1.8,0.8l-0.3,0.4c-0.3-0.4-0.8-0.7-1.5-0.7c-0.8,0-1.3,0.4-1.3,0.9c0,1.3,3.2,0.5,3.2,2.5c0,0.8-0.6,1.5-1.9,1.5
		C234.7,347.8,234.1,347.6,233.5,347z"/>
	<path d="M238.6,349.2c0.1,0.1,0.3,0.1,0.4,0.1c0.3,0,0.6-0.1,0.8-0.6l0.4-0.9l-2.2-5.1h0.6l1.9,4.5l1.8-4.5h0.6l-2.6,6.2
		c-0.3,0.6-0.7,1-1.3,1c-0.2,0-0.4,0-0.5-0.1L238.6,349.2z"/>
	<path d="M243.5,347l0.3-0.4c0.3,0.4,0.9,0.8,1.6,0.8c0.9,0,1.4-0.4,1.4-1c0-1.4-3.2-0.6-3.2-2.4c0-0.8,0.7-1.4,1.8-1.4
		c0.9,0,1.5,0.3,1.8,0.8l-0.3,0.4c-0.3-0.4-0.8-0.7-1.5-0.7c-0.8,0-1.3,0.4-1.3,0.9c0,1.3,3.2,0.5,3.2,2.5c0,0.8-0.6,1.5-1.9,1.5
		C244.6,347.8,244,347.6,243.5,347z"/>
	<path d="M248.9,346.7v-3.6H248v-0.5h0.8v-1.4h0.6v1.4h1v0.5h-1v3.6c0,0.4,0.2,0.7,0.5,0.7c0.2,0,0.5-0.1,0.6-0.2l0.2,0.4
		c-0.2,0.2-0.4,0.3-0.9,0.3C249.2,347.8,248.9,347.4,248.9,346.7z"/>
	<path d="M251.4,345.1c0-1.5,1-2.7,2.5-2.7c1.6,0,2.4,1.2,2.4,2.7v0.1H252c0.1,1.1,0.8,2,2,2c0.6,0,1.2-0.2,1.7-0.7l0.3,0.4
		c-0.5,0.5-1.2,0.8-2,0.8C252.5,347.8,251.4,346.7,251.4,345.1z M253.8,342.9c-1.2,0-1.8,1.1-1.9,1.9h3.7
		C255.7,344,255.1,342.9,253.8,342.9z"/>
	<path d="M263.8,347.7v-3.6c0-0.7-0.3-1.2-1-1.2c-0.5,0-1.2,0.4-1.5,0.9v3.9h-0.6v-3.6c0-0.7-0.3-1.2-1-1.2c-0.5,0-1.2,0.4-1.5,0.9
		v3.9h-0.5v-5.1h0.5v0.8c0.2-0.3,0.9-0.9,1.6-0.9c0.8,0,1.2,0.5,1.3,1c0.3-0.5,1-1,1.7-1c0.9,0,1.4,0.5,1.4,1.6v3.7H263.8z"/>
</g>
<g>
	<path d="M71.4,28.2c0-3.1,2-5.5,5.2-5.5c3.1,0,5.2,2.4,5.2,5.5c0,3.1-2.1,5.5-5.2,5.5C73.5,33.7,71.4,31.3,71.4,28.2z M80.8,28.2
		c0-2.7-1.7-4.7-4.2-4.7c-2.6,0-4.2,2-4.2,4.7c0,2.7,1.6,4.7,4.2,4.7C79.2,32.9,80.8,30.9,80.8,28.2z"/>
	<path d="M89.2,33.5v-5.2c0-1.5-0.7-1.9-1.9-1.9c-1,0-2,0.6-2.5,1.3v5.8H84v-7.7h0.8V27c0.6-0.7,1.7-1.4,2.8-1.4
		c1.6,0,2.4,0.8,2.4,2.5v5.4H89.2z"/>
	<path d="M92.6,33.5V22.9h0.8v10.6H92.6z"/>
	<path d="M95.8,24c0-0.4,0.3-0.6,0.6-0.6c0.4,0,0.6,0.3,0.6,0.6c0,0.4-0.3,0.6-0.6,0.6C96.1,24.6,95.8,24.3,95.8,24z M96,33.5v-7.7
		h0.8v7.7H96z"/>
	<path d="M104.6,33.5v-5.2c0-1.5-0.7-1.9-1.9-1.9c-1,0-2,0.6-2.5,1.3v5.8h-0.8v-7.7h0.8V27c0.6-0.7,1.7-1.4,2.8-1.4
		c1.6,0,2.4,0.8,2.4,2.5v5.4H104.6z"/>
	<path d="M107.6,29.7c0-2.2,1.6-4,3.7-4c2.3,0,3.6,1.8,3.6,4.1v0.2h-6.4c0.1,1.7,1.2,3.1,3,3.1c1,0,1.9-0.4,2.5-1.1l0.4,0.5
		c-0.8,0.8-1.7,1.2-3,1.2C109.2,33.7,107.6,32.1,107.6,29.7z M111.3,26.4c-1.8,0-2.7,1.6-2.8,2.9h5.6
		C114.1,28,113.2,26.4,111.3,26.4z"/>
	<path d="M120.5,32.5l0.5-0.6c0.5,0.6,1.4,1.1,2.5,1.1c1.3,0,2.1-0.7,2.1-1.6c0-2.1-4.9-0.9-4.9-3.7c0-1.2,1-2.1,2.7-2.1
		c1.3,0,2.2,0.5,2.8,1.1l-0.5,0.6c-0.4-0.6-1.3-1-2.3-1c-1.2,0-1.9,0.6-1.9,1.4c0,1.9,4.8,0.7,4.8,3.7c0,1.2-1,2.3-2.9,2.3
		C122.2,33.7,121.3,33.4,120.5,32.5z"/>
	<path d="M128.1,29.7c0-2.2,1.4-4,3.7-4c2.3,0,3.7,1.8,3.7,4c0,2.2-1.4,4-3.7,4C129.5,33.7,128.1,31.9,128.1,29.7z M134.6,29.7
		c0-1.7-1-3.3-2.8-3.3c-1.8,0-2.8,1.6-2.8,3.3c0,1.7,1,3.3,2.8,3.3C133.6,33,134.6,31.4,134.6,29.7z"/>
	<path d="M142.8,33.5v-1.1c-0.6,0.7-1.7,1.3-2.8,1.3c-1.6,0-2.4-0.7-2.4-2.5v-5.4h0.8v5.2c0,1.5,0.7,1.9,1.9,1.9c1,0,2-0.6,2.5-1.3
		v-5.9h0.8v7.7H142.8z"/>
	<path d="M146.2,33.5v-7.7h0.8v1.3c0.7-0.9,1.5-1.5,2.6-1.5v0.9c-0.1,0-0.3,0-0.4,0c-0.8,0-1.8,0.7-2.2,1.4v5.6H146.2z"/>
	<path d="M150.9,29.7c0-2.2,1.5-4,3.7-4c1.3,0,2.1,0.5,2.7,1.3l-0.6,0.5c-0.6-0.8-1.3-1.1-2.1-1.1c-1.8,0-2.9,1.4-2.9,3.3
		c0,1.8,1.1,3.3,2.9,3.3c0.8,0,1.5-0.3,2.1-1.1l0.6,0.5c-0.6,0.8-1.4,1.3-2.7,1.3C152.3,33.7,150.9,31.9,150.9,29.7z"/>
	<path d="M158.7,29.7c0-2.2,1.6-4,3.7-4c2.3,0,3.6,1.8,3.6,4.1v0.2h-6.4c0.1,1.7,1.2,3.1,3,3.1c1,0,1.9-0.4,2.5-1.1l0.4,0.5
		c-0.8,0.8-1.7,1.2-3,1.2C160.3,33.7,158.7,32.1,158.7,29.7z M162.4,26.4c-1.8,0-2.7,1.6-2.8,2.9h5.6
		C165.2,28,164.3,26.4,162.4,26.4z"/>
	<path d="M171.9,29.7c0-2.2,1.4-4,3.7-4c2.3,0,3.7,1.8,3.7,4c0,2.2-1.4,4-3.7,4C173.3,33.7,171.9,31.9,171.9,29.7z M178.4,29.7
		c0-1.7-1-3.3-2.8-3.3c-1.8,0-2.8,1.6-2.8,3.3c0,1.7,1,3.3,2.8,3.3C177.4,33,178.4,31.4,178.4,29.7z"/>
	<path d="M181.7,33.5v-7h-1.3v-0.7h1.3v-0.7c0-1.5,0.8-2.4,2.1-2.4c0.5,0,1,0.1,1.5,0.5l-0.4,0.6c-0.3-0.2-0.6-0.4-1-0.4
		c-0.9,0-1.3,0.6-1.3,1.6v0.7h1.6v0.7h-1.6v7H181.7z"/>
	<path d="M189.4,29.7c0-2.2,1.5-4,3.7-4c1.3,0,2.1,0.5,2.7,1.3l-0.6,0.5c-0.6-0.8-1.3-1.1-2.1-1.1c-1.8,0-2.9,1.4-2.9,3.3
		c0,1.8,1.1,3.3,2.9,3.3c0.8,0,1.5-0.3,2.1-1.1l0.6,0.5c-0.6,0.8-1.4,1.3-2.7,1.3C190.8,33.7,189.4,31.9,189.4,29.7z"/>
	<path d="M202.9,33.5v-1.1c-0.6,0.7-1.7,1.3-2.8,1.3c-1.6,0-2.4-0.7-2.4-2.5v-5.4h0.8v5.2c0,1.5,0.7,1.9,1.9,1.9c1,0,2-0.6,2.5-1.3
		v-5.9h0.8v7.7H202.9z"/>
	<path d="M205.6,32.5l0.5-0.6c0.5,0.6,1.4,1.1,2.5,1.1c1.3,0,2.1-0.7,2.1-1.6c0-2.1-4.9-0.9-4.9-3.7c0-1.2,1-2.1,2.7-2.1
		c1.3,0,2.2,0.5,2.8,1.1l-0.5,0.6c-0.4-0.6-1.3-1-2.3-1c-1.2,0-1.9,0.6-1.9,1.4c0,1.9,4.8,0.7,4.8,3.7c0,1.2-1,2.3-2.9,2.3
		C207.3,33.7,206.4,33.4,205.6,32.5z"/>
	<path d="M213.7,32.1v-5.5h-1.3v-0.7h1.3v-2.1h0.8v2.1h1.6v0.7h-1.6v5.4c0,0.6,0.3,1.1,0.8,1.1c0.4,0,0.7-0.2,0.9-0.4l0.3,0.6
		c-0.3,0.3-0.7,0.5-1.3,0.5C214.2,33.7,213.7,33.1,213.7,32.1z"/>
	<path d="M217.5,29.7c0-2.2,1.4-4,3.7-4c2.3,0,3.7,1.8,3.7,4c0,2.2-1.4,4-3.7,4C219,33.7,217.5,31.9,217.5,29.7z M224,29.7
		c0-1.7-1-3.3-2.8-3.3c-1.8,0-2.8,1.6-2.8,3.3c0,1.7,1,3.3,2.8,3.3C223,33,224,31.4,224,29.7z"/>
	<path d="M236.2,33.5v-5.4c0-1.1-0.5-1.8-1.5-1.8c-0.8,0-1.8,0.6-2.2,1.3v5.8h-0.8v-5.4c0-1.1-0.4-1.8-1.5-1.8
		c-0.8,0-1.8,0.6-2.2,1.3v5.8h-0.8v-7.7h0.8V27c0.3-0.5,1.4-1.4,2.5-1.4c1.2,0,1.8,0.7,2,1.5c0.4-0.7,1.5-1.5,2.6-1.5
		c1.4,0,2.1,0.8,2.1,2.3v5.5H236.2z"/>
	<path d="M239.2,29.7c0-2.2,1.6-4,3.7-4c2.3,0,3.6,1.8,3.6,4.1v0.2h-6.4c0.1,1.7,1.2,3.1,3,3.1c1,0,1.9-0.4,2.5-1.1l0.4,0.5
		c-0.8,0.8-1.7,1.2-3,1.2C240.8,33.7,239.2,32.1,239.2,29.7z M242.9,26.4c-1.8,0-2.7,1.6-2.8,2.9h5.6
		C245.7,28,244.8,26.4,242.9,26.4z"/>
	<path d="M248.7,33.5v-7.7h0.8v1.3c0.7-0.9,1.5-1.5,2.6-1.5v0.9c-0.1,0-0.3,0-0.4,0c-0.8,0-1.8,0.7-2.2,1.4v5.6H248.7z"/>
	<path d="M263.6,33.5v-1.2c-0.5,0.8-1.5,1.4-2.7,1.4c-2,0-3.4-1.6-3.4-4c0-2.4,1.4-4,3.4-4c1.1,0,2.1,0.6,2.7,1.4v-4.2h0.8v10.6
		H263.6z M263.6,31.6v-3.8c-0.4-0.7-1.5-1.4-2.5-1.4c-1.7,0-2.7,1.4-2.7,3.3s1,3.3,2.7,3.3C262.1,33,263.1,32.3,263.6,31.6z"/>
	<path d="M271.9,33.5v-0.9c-0.7,0.7-1.5,1.1-2.6,1.1c-1.3,0-2.7-0.9-2.7-2.6c0-1.7,1.4-2.6,2.7-2.6c1.1,0,1.9,0.4,2.6,1.1v-1.6
		c0-1.1-0.9-1.8-2.1-1.8c-1,0-1.7,0.3-2.4,1.1l-0.5-0.6c0.8-0.9,1.7-1.3,3-1.3c1.6,0,2.8,0.7,2.8,2.5v5.4H271.9z M271.9,32v-1.7
		c-0.5-0.7-1.4-1.1-2.3-1.1c-1.3,0-2.1,0.8-2.1,1.9c0,1.1,0.8,1.9,2.1,1.9C270.5,33.1,271.3,32.7,271.9,32z"/>
	<path d="M275.4,32.1v-5.5h-1.3v-0.7h1.3v-2.1h0.8v2.1h1.6v0.7h-1.6v5.4c0,0.6,0.3,1.1,0.8,1.1c0.4,0,0.7-0.2,0.9-0.4l0.3,0.6
		c-0.3,0.3-0.7,0.5-1.3,0.5C275.9,33.7,275.4,33.1,275.4,32.1z"/>
	<path d="M284.6,33.5v-0.9c-0.7,0.7-1.5,1.1-2.6,1.1c-1.3,0-2.7-0.9-2.7-2.6c0-1.7,1.4-2.6,2.7-2.6c1.1,0,1.9,0.4,2.6,1.1v-1.6
		c0-1.1-0.9-1.8-2.1-1.8c-1,0-1.7,0.3-2.4,1.1l-0.5-0.6c0.8-0.9,1.7-1.3,3-1.3c1.6,0,2.8,0.7,2.8,2.5v5.4H284.6z M284.6,32v-1.7
		c-0.5-0.7-1.4-1.1-2.3-1.1c-1.3,0-2.1,0.8-2.1,1.9c0,1.1,0.8,1.9,2.1,1.9C283.2,33.1,284,32.7,284.6,32z"/>
</g>
<g>
	<path d="M84.8,152.3c0-3.1,2-5.5,5.2-5.5c3.1,0,5.2,2.4,5.2,5.5c0,3.1-2.1,5.5-5.2,5.5C86.8,157.8,84.8,155.4,84.8,152.3z
		 M94.1,152.3c0-2.7-1.7-4.7-4.2-4.7c-2.6,0-4.2,2-4.2,4.7c0,2.7,1.6,4.7,4.2,4.7C92.5,157,94.1,155,94.1,152.3z"/>
	<path d="M97.6,157.6v-7h-1.3v-0.7h1.3v-0.7c0-1.5,0.8-2.4,2.1-2.4c0.5,0,1,0.1,1.5,0.5l-0.4,0.6c-0.3-0.2-0.6-0.4-1-0.4
		c-0.9,0-1.3,0.6-1.3,1.6v0.7h1.6v0.7h-1.6v7H97.6z M101.8,157.6v-7h-1.3v-0.7h1.3v-0.7c0-1.5,0.8-2.4,2.1-2.4c0.4,0,0.7,0.1,1,0.2
		l-0.3,0.7c-0.2-0.1-0.4-0.2-0.7-0.2c-0.9,0-1.3,0.6-1.3,1.6v0.7h1.6v0.7h-1.6v7H101.8z M105.8,157.6V147h0.8v10.6H105.8z"/>
	<path d="M108.9,148.1c0-0.4,0.3-0.6,0.6-0.6c0.4,0,0.6,0.3,0.6,0.6c0,0.4-0.3,0.6-0.6,0.6C109.2,148.7,108.9,148.4,108.9,148.1z
		 M109.2,157.6v-7.7h0.8v7.7H109.2z"/>
	<path d="M117.8,157.6v-5.2c0-1.5-0.7-1.9-1.9-1.9c-1,0-2,0.6-2.5,1.3v5.8h-0.8v-7.7h0.8v1.2c0.6-0.7,1.7-1.4,2.8-1.4
		c1.6,0,2.4,0.8,2.4,2.5v5.4H117.8z"/>
	<path d="M120.7,153.8c0-2.2,1.6-4,3.7-4c2.3,0,3.6,1.8,3.6,4.1v0.2h-6.4c0.1,1.7,1.2,3.1,3,3.1c1,0,1.9-0.4,2.5-1.1l0.4,0.5
		c-0.8,0.8-1.7,1.2-3,1.2C122.3,157.8,120.7,156.2,120.7,153.8z M124.4,150.5c-1.8,0-2.7,1.6-2.8,2.9h5.6
		C127.2,152.1,126.4,150.5,124.4,150.5z"/>
	<path d="M133.7,156.6l0.5-0.6c0.5,0.6,1.4,1.1,2.5,1.1c1.3,0,2.1-0.7,2.1-1.6c0-2.1-4.9-0.9-4.9-3.7c0-1.2,1-2.1,2.7-2.1
		c1.3,0,2.2,0.5,2.8,1.1l-0.5,0.6c-0.4-0.6-1.3-1-2.3-1c-1.2,0-1.9,0.6-1.9,1.4c0,1.9,4.8,0.7,4.8,3.7c0,1.2-1,2.3-2.9,2.3
		C135.4,157.8,134.4,157.5,133.7,156.6z"/>
	<path d="M141.2,153.8c0-2.2,1.4-4,3.7-4c2.3,0,3.7,1.8,3.7,4c0,2.2-1.4,4-3.7,4C142.7,157.8,141.2,156,141.2,153.8z M147.7,153.8
		c0-1.7-1-3.3-2.8-3.3c-1.8,0-2.8,1.6-2.8,3.3c0,1.7,1,3.3,2.8,3.3C146.7,157.1,147.7,155.5,147.7,153.8z"/>
	<path d="M156,157.6v-1.1c-0.6,0.7-1.7,1.3-2.8,1.3c-1.6,0-2.4-0.7-2.4-2.5v-5.4h0.8v5.2c0,1.5,0.7,1.9,1.9,1.9c1,0,2-0.6,2.5-1.3
		v-5.9h0.8v7.7H156z"/>
	<path d="M159.4,157.6v-7.7h0.8v1.3c0.7-0.9,1.5-1.5,2.6-1.5v0.9c-0.1,0-0.3,0-0.4,0c-0.8,0-1.8,0.7-2.2,1.4v5.6H159.4z"/>
	<path d="M164,153.8c0-2.2,1.5-4,3.7-4c1.3,0,2.1,0.5,2.7,1.3l-0.6,0.5c-0.6-0.8-1.3-1.1-2.1-1.1c-1.8,0-2.9,1.4-2.9,3.3
		c0,1.8,1.1,3.3,2.9,3.3c0.8,0,1.5-0.3,2.1-1.1l0.6,0.5c-0.6,0.8-1.4,1.3-2.7,1.3C165.5,157.8,164,156,164,153.8z"/>
	<path d="M171.9,153.8c0-2.2,1.6-4,3.7-4c2.3,0,3.6,1.8,3.6,4.1v0.2h-6.4c0.1,1.7,1.2,3.1,3,3.1c1,0,1.9-0.4,2.5-1.1l0.4,0.5
		c-0.8,0.8-1.7,1.2-3,1.2C173.5,157.8,171.9,156.2,171.9,153.8z M175.6,150.5c-1.8,0-2.7,1.6-2.8,2.9h5.6
		C178.3,152.1,177.5,150.5,175.6,150.5z"/>
	<path d="M185,153.8c0-2.2,1.4-4,3.7-4c2.3,0,3.7,1.8,3.7,4c0,2.2-1.4,4-3.7,4C186.5,157.8,185,156,185,153.8z M191.5,153.8
		c0-1.7-1-3.3-2.8-3.3c-1.8,0-2.8,1.6-2.8,3.3c0,1.7,1,3.3,2.8,3.3C190.5,157.1,191.5,155.5,191.5,153.8z"/>
	<path d="M194.8,157.6v-7h-1.3v-0.7h1.3v-0.7c0-1.5,0.8-2.4,2.1-2.4c0.5,0,1,0.1,1.5,0.5L198,148c-0.3-0.2-0.6-0.4-1-0.4
		c-0.9,0-1.3,0.6-1.3,1.6v0.7h1.6v0.7h-1.6v7H194.8z"/>
	<path d="M202.5,153.8c0-2.2,1.5-4,3.7-4c1.3,0,2.1,0.5,2.7,1.3l-0.6,0.5c-0.6-0.8-1.3-1.1-2.1-1.1c-1.8,0-2.9,1.4-2.9,3.3
		c0,1.8,1.1,3.3,2.9,3.3c0.8,0,1.5-0.3,2.1-1.1l0.6,0.5c-0.6,0.8-1.4,1.3-2.7,1.3C204,157.8,202.5,156,202.5,153.8z"/>
	<path d="M216,157.6v-1.1c-0.6,0.7-1.7,1.3-2.8,1.3c-1.6,0-2.4-0.7-2.4-2.5v-5.4h0.8v5.2c0,1.5,0.7,1.9,1.9,1.9c1,0,2-0.6,2.5-1.3
		v-5.9h0.8v7.7H216z"/>
	<path d="M218.7,156.6l0.5-0.6c0.5,0.6,1.4,1.1,2.5,1.1c1.3,0,2.1-0.7,2.1-1.6c0-2.1-4.9-0.9-4.9-3.7c0-1.2,1-2.1,2.7-2.1
		c1.3,0,2.2,0.5,2.8,1.1l-0.5,0.6c-0.4-0.6-1.3-1-2.3-1c-1.2,0-1.9,0.6-1.9,1.4c0,1.9,4.8,0.7,4.8,3.7c0,1.2-1,2.3-2.9,2.3
		C220.5,157.8,219.5,157.5,218.7,156.6z"/>
	<path d="M226.9,156.2v-5.5h-1.3v-0.7h1.3v-2.1h0.8v2.1h1.6v0.7h-1.6v5.4c0,0.6,0.3,1.1,0.8,1.1c0.4,0,0.7-0.2,0.9-0.4l0.3,0.6
		c-0.3,0.3-0.7,0.5-1.3,0.5C227.4,157.8,226.9,157.2,226.9,156.2z"/>
	<path d="M230.7,153.8c0-2.2,1.4-4,3.7-4c2.3,0,3.7,1.8,3.7,4c0,2.2-1.4,4-3.7,4C232.1,157.8,230.7,156,230.7,153.8z M237.2,153.8
		c0-1.7-1-3.3-2.8-3.3c-1.8,0-2.8,1.6-2.8,3.3c0,1.7,1,3.3,2.8,3.3C236.2,157.1,237.2,155.5,237.2,153.8z"/>
	<path d="M249.4,157.6v-5.4c0-1.1-0.5-1.8-1.5-1.8c-0.8,0-1.8,0.6-2.2,1.3v5.8h-0.8v-5.4c0-1.1-0.4-1.8-1.5-1.8
		c-0.8,0-1.8,0.6-2.2,1.3v5.8h-0.8v-7.7h0.8v1.2c0.3-0.5,1.4-1.4,2.5-1.4c1.2,0,1.8,0.7,2,1.5c0.4-0.7,1.5-1.5,2.6-1.5
		c1.4,0,2.1,0.8,2.1,2.3v5.5H249.4z"/>
	<path d="M252.4,153.8c0-2.2,1.6-4,3.7-4c2.3,0,3.6,1.8,3.6,4.1v0.2h-6.4c0.1,1.7,1.2,3.1,3,3.1c1,0,1.9-0.4,2.5-1.1l0.4,0.5
		c-0.8,0.8-1.7,1.2-3,1.2C254,157.8,252.4,156.2,252.4,153.8z M256.1,150.5c-1.8,0-2.7,1.6-2.8,2.9h5.6
		C258.8,152.1,258,150.5,256.1,150.5z"/>
	<path d="M261.8,157.6v-7.7h0.8v1.3c0.7-0.9,1.5-1.5,2.6-1.5v0.9c-0.1,0-0.3,0-0.4,0c-0.8,0-1.8,0.7-2.2,1.4v5.6H261.8z"/>
	<path d="M266.2,156.6l0.5-0.6c0.5,0.6,1.4,1.1,2.5,1.1c1.3,0,2.1-0.7,2.1-1.6c0-2.1-4.9-0.9-4.9-3.7c0-1.2,1-2.1,2.7-2.1
		c1.3,0,2.2,0.5,2.8,1.1l-0.5,0.6c-0.4-0.6-1.3-1-2.3-1c-1.2,0-1.9,0.6-1.9,1.4c0,1.9,4.8,0.7,4.8,3.7c0,1.2-1,2.3-2.9,2.3
		C267.9,157.8,267,157.5,266.2,156.6z"/>
</g>
<g>
	<path d="M147,371.2c0-3.3,2.4-5.5,5.4-5.5c1.7,0,3,0.7,3.9,1.9l-0.8,0.5c-0.7-0.9-1.8-1.5-3.1-1.5c-2.5,0-4.4,1.9-4.4,4.7
		c0,2.7,1.9,4.7,4.4,4.7c1.3,0,2.4-0.6,3.1-1.5l0.8,0.5c-1,1.2-2.2,1.9-3.9,1.9C149.4,376.7,147,374.4,147,371.2z"/>
	<path d="M163.3,376.5v-5.2c0-1.5-0.7-1.9-1.9-1.9c-1,0-2,0.6-2.5,1.3v5.8h-0.8v-10.6h0.8v4.1c0.6-0.7,1.7-1.4,2.8-1.4
		c1.6,0,2.4,0.7,2.4,2.5v5.4H163.3z"/>
	<path d="M171.6,376.5v-0.9c-0.7,0.7-1.5,1.1-2.6,1.1c-1.3,0-2.7-0.9-2.7-2.6c0-1.7,1.4-2.6,2.7-2.6c1.1,0,1.9,0.4,2.6,1.1v-1.6
		c0-1.1-0.9-1.8-2.1-1.8c-1,0-1.7,0.3-2.4,1.1l-0.5-0.6c0.8-0.9,1.7-1.3,3-1.3c1.6,0,2.8,0.7,2.8,2.5v5.4H171.6z M171.6,375v-1.7
		c-0.5-0.7-1.4-1.1-2.3-1.1c-1.3,0-2.1,0.8-2.1,1.9c0,1.1,0.8,1.9,2.1,1.9C170.2,376,171,375.7,171.6,375z"/>
	<path d="M180.2,376.5v-5.2c0-1.5-0.7-1.9-1.9-1.9c-1,0-2,0.6-2.5,1.3v5.8H175v-7.7h0.8v1.2c0.6-0.7,1.7-1.4,2.8-1.4
		c1.6,0,2.4,0.8,2.4,2.5v5.4H180.2z"/>
	<path d="M188.8,376.5v-5.2c0-1.5-0.7-1.9-1.9-1.9c-1,0-2,0.6-2.5,1.3v5.8h-0.8v-7.7h0.8v1.2c0.6-0.7,1.7-1.4,2.8-1.4
		c1.6,0,2.4,0.8,2.4,2.5v5.4H188.8z"/>
	<path d="M191.8,372.6c0-2.2,1.6-4,3.7-4c2.3,0,3.6,1.8,3.6,4.1v0.2h-6.4c0.1,1.7,1.2,3.1,3,3.1c1,0,1.9-0.4,2.5-1.1l0.4,0.5
		c-0.8,0.8-1.7,1.2-3,1.2C193.4,376.7,191.8,375,191.8,372.6z M195.5,369.3c-1.8,0-2.7,1.6-2.8,2.9h5.6
		C198.2,370.9,197.4,369.3,195.5,369.3z"/>
	<path d="M201.2,376.5v-10.6h0.8v10.6H201.2z"/>
	<path d="M204,375.4l0.5-0.6c0.5,0.6,1.4,1.1,2.5,1.1c1.3,0,2.1-0.7,2.1-1.6c0-2.1-4.9-0.9-4.9-3.7c0-1.2,1-2.1,2.7-2.1
		c1.3,0,2.2,0.5,2.8,1.1l-0.5,0.6c-0.4-0.6-1.3-1-2.3-1c-1.2,0-1.9,0.6-1.9,1.4c0,1.9,4.8,0.7,4.8,3.7c0,1.2-1,2.3-2.9,2.3
		C205.7,376.7,204.7,376.3,204,375.4z"/>
</g>
<g>
	<path d="M108.9,492.7l-4.4-10.8h1.1l3.9,9.8l3.9-9.8h1.1l-4.4,10.8H108.9z"/>
	<path d="M115.8,482.9c0-0.4,0.3-0.6,0.6-0.6c0.4,0,0.6,0.3,0.6,0.6c0,0.4-0.3,0.6-0.6,0.6C116.1,483.6,115.8,483.3,115.8,482.9z
		 M116,492.7v-7.8h0.8v7.8H116z"/>
	<path d="M119.1,492.7V492l4.6-6.4h-4.6v-0.7h5.7v0.7l-4.7,6.4h4.8v0.7H119.1z"/>
	<path d="M132.4,492.7v-1.2c-0.6,0.7-1.7,1.3-2.8,1.3c-1.6,0-2.5-0.7-2.5-2.5v-5.5h0.8v5.3c0,1.5,0.8,1.9,1.9,1.9c1,0,2-0.6,2.5-1.3
		v-6h0.8v7.8H132.4z"/>
	<path d="M135.8,492.7v-7.8h0.8v1.3c0.7-0.9,1.6-1.5,2.6-1.5v0.9c-0.1,0-0.3,0-0.4,0c-0.8,0-1.9,0.7-2.2,1.4v5.7H135.8z"/>
	<path d="M140.6,494.9c0.2,0.1,0.5,0.1,0.7,0.1c0.5,0,0.9-0.2,1.2-1l0.6-1.4l-3.3-7.9h0.9l2.9,6.8l2.8-6.8h1l-4.1,9.6
		c-0.4,1-1.1,1.5-2,1.5c-0.3,0-0.6,0-0.8-0.1L140.6,494.9z"/>
	<path d="M153.8,491.4v4.3H153v-10.8h0.8v1.2c0.6-0.8,1.6-1.4,2.7-1.4c2.1,0,3.5,1.6,3.5,4.1c0,2.5-1.4,4.1-3.5,4.1
		C155.5,492.8,154.5,492.3,153.8,491.4z M159.2,488.7c0-1.9-1-3.3-2.7-3.3c-1.1,0-2.1,0.6-2.6,1.4v3.9c0.5,0.7,1.5,1.4,2.6,1.4
		C158.2,492.1,159.2,490.6,159.2,488.7z"/>
	<path d="M162.2,492.7v-7.8h0.8v1.3c0.7-0.9,1.6-1.5,2.6-1.5v0.9c-0.1,0-0.3,0-0.4,0c-0.8,0-1.9,0.7-2.2,1.4v5.7H162.2z"/>
	<path d="M166.9,488.7c0-2.3,1.6-4.1,3.8-4.1c2.4,0,3.7,1.9,3.7,4.2v0.2h-6.6c0.1,1.7,1.2,3.1,3.1,3.1c1,0,1.9-0.4,2.6-1.1l0.4,0.6
		c-0.8,0.8-1.8,1.3-3.1,1.3C168.5,492.8,166.9,491.1,166.9,488.7z M170.6,485.4c-1.8,0-2.8,1.6-2.8,3h5.7
		C173.5,487,172.6,485.4,170.6,485.4z"/>
	<path d="M182.3,492.7v-1.2c-0.6,0.8-1.6,1.4-2.7,1.4c-2.1,0-3.5-1.6-3.5-4.1c0-2.5,1.4-4.1,3.5-4.1c1.1,0,2.1,0.6,2.7,1.5v-4.2h0.9
		v10.8H182.3z M182.3,490.7v-3.9c-0.5-0.8-1.5-1.4-2.6-1.4c-1.7,0-2.7,1.5-2.7,3.4c0,1.9,1,3.3,2.7,3.3
		C180.8,492.1,181.8,491.4,182.3,490.7z"/>
	<path d="M185.6,482.9c0-0.4,0.3-0.6,0.6-0.6c0.4,0,0.6,0.3,0.6,0.6c0,0.4-0.3,0.6-0.6,0.6C185.9,483.6,185.6,483.3,185.6,482.9z
		 M185.8,492.7v-7.8h0.8v7.8H185.8z"/>
	<path d="M188.8,488.7c0-2.3,1.5-4.1,3.8-4.1c1.4,0,2.1,0.5,2.8,1.3l-0.6,0.5c-0.6-0.8-1.3-1.1-2.1-1.1c-1.8,0-3,1.5-3,3.3
		c0,1.9,1.1,3.4,3,3.4c0.9,0,1.6-0.3,2.1-1.1l0.6,0.5c-0.6,0.8-1.4,1.3-2.8,1.3C190.3,492.8,188.8,491,188.8,488.7z"/>
	<path d="M197.4,491.1v-5.6h-1.3v-0.7h1.3v-2.1h0.9v2.1h1.6v0.7h-1.6v5.5c0,0.6,0.3,1.1,0.8,1.1c0.4,0,0.7-0.2,0.9-0.4l0.3,0.6
		c-0.3,0.3-0.7,0.5-1.3,0.5C197.9,492.8,197.4,492.2,197.4,491.1z"/>
	<path d="M201.3,488.7c0-2.3,1.6-4.1,3.8-4.1c2.4,0,3.7,1.9,3.7,4.2v0.2h-6.6c0.1,1.7,1.2,3.1,3.1,3.1c1,0,1.9-0.4,2.6-1.1l0.4,0.6
		c-0.8,0.8-1.8,1.3-3.1,1.3C202.9,492.8,201.3,491.1,201.3,488.7z M205,485.4c-1.8,0-2.8,1.6-2.8,3h5.7
		C207.9,487,207,485.4,205,485.4z"/>
	<path d="M216.7,492.7v-1.2c-0.6,0.8-1.6,1.4-2.7,1.4c-2.1,0-3.5-1.6-3.5-4.1c0-2.5,1.4-4.1,3.5-4.1c1.1,0,2.1,0.6,2.7,1.5v-4.2h0.9
		v10.8H216.7z M216.7,490.7v-3.9c-0.5-0.8-1.5-1.4-2.6-1.4c-1.7,0-2.7,1.5-2.7,3.4c0,1.9,1,3.3,2.7,3.3
		C215.2,492.1,216.3,491.4,216.7,490.7z"/>
	<path d="M230.2,492.7v-1.2c-0.6,0.8-1.6,1.4-2.7,1.4c-2.1,0-3.5-1.6-3.5-4.1c0-2.5,1.4-4.1,3.5-4.1c1.1,0,2.1,0.6,2.7,1.5v-4.2h0.9
		v10.8H230.2z M230.2,490.7v-3.9c-0.5-0.8-1.5-1.4-2.6-1.4c-1.7,0-2.7,1.5-2.7,3.4c0,1.9,1,3.3,2.7,3.3
		C228.7,492.1,229.7,491.4,230.2,490.7z"/>
	<path d="M238.6,492.7v-0.9c-0.7,0.8-1.6,1.1-2.7,1.1c-1.3,0-2.7-0.9-2.7-2.6c0-1.7,1.4-2.6,2.7-2.6c1.1,0,2,0.4,2.7,1.1v-1.6
		c0-1.2-0.9-1.8-2.1-1.8c-1,0-1.8,0.3-2.5,1.2l-0.5-0.6c0.8-0.9,1.7-1.3,3-1.3c1.6,0,2.9,0.8,2.9,2.5v5.5H238.6z M238.6,491.1v-1.7
		c-0.6-0.7-1.4-1.1-2.4-1.1c-1.3,0-2.1,0.8-2.1,1.9c0,1.1,0.9,1.9,2.1,1.9C237.2,492.2,238.1,491.8,238.6,491.1z"/>
	<path d="M242.3,491.1v-5.6H241v-0.7h1.3v-2.1h0.9v2.1h1.6v0.7h-1.6v5.5c0,0.6,0.3,1.1,0.8,1.1c0.4,0,0.7-0.2,0.9-0.4l0.3,0.6
		c-0.3,0.3-0.7,0.5-1.3,0.5C242.8,492.8,242.3,492.2,242.3,491.1z"/>
	<path d="M251.6,492.7v-0.9c-0.7,0.8-1.6,1.1-2.7,1.1c-1.3,0-2.7-0.9-2.7-2.6c0-1.7,1.4-2.6,2.7-2.6c1.1,0,2,0.4,2.7,1.1v-1.6
		c0-1.2-0.9-1.8-2.1-1.8c-1,0-1.8,0.3-2.5,1.2l-0.5-0.6c0.8-0.9,1.7-1.3,3-1.3c1.6,0,2.9,0.8,2.9,2.5v5.5H251.6z M251.6,491.1v-1.7
		c-0.6-0.7-1.4-1.1-2.4-1.1c-1.3,0-2.1,0.8-2.1,1.9c0,1.1,0.9,1.9,2.1,1.9C250.1,492.2,251,491.8,251.6,491.1z"/>
</g>
</svg>
