<?xml version="1.0" encoding="utf-8"?>
<!-- Generator: Adobe Illustrator 19.1.0, SVG Export Plug-In . SVG Version: 6.00 Build 0)  -->
<svg version="1.1" id="Layer_1" xmlns="http://www.w3.org/2000/svg" xmlns:xlink="http://www.w3.org/1999/xlink" x="0px" y="0px"
	 viewBox="0 0 400 800" style="enable-background:new 0 0 400 800;" xml:space="preserve">
<style type="text/css">
	.st0{fill:#FFFFFF;}
	.st1{fill:none;}
	.st2{fill:#202020;}
	.st3{fill:#231F20;}
	.st4{fill:#202020;stroke:#FFFFFF;stroke-width:0.6102;stroke-miterlimit:10;}
	.st5{fill:#202020;stroke:#FFFFFF;stroke-miterlimit:10;}
	.st6{fill:none;stroke:#202020;stroke-miterlimit:10;}
	.st7{fill:none;stroke:#202020;}
	.st8{fill:none;stroke:#FFFFFF;stroke-width:3;stroke-miterlimit:10;}
	.st9{fill:none;stroke:#FFFFFF;stroke-miterlimit:10;}
	.st10{fill:none;stroke:#FFFFFF;stroke-width:0.623;stroke-miterlimit:10;}
	.st11{fill:none;stroke:#FFFFFF;}
	.st12{fill:#1E1F1E;}
	.st13{fill-rule:evenodd;clip-rule:evenodd;fill:#202020;}
	.st14{fill-rule:evenodd;clip-rule:evenodd;fill:#FFFFFF;}
</style>
<path class="st0" d="M304.2,250.2c0,6.4-5.2,11.7-11.7,11.7h-75.4c-6.4,0-11.7-5.2-11.7-11.7v-74.5c0-6.4,5.2-11.7,11.7-11.7h75.4
	c6.4,0,11.7,5.2,11.7,11.7V250.2z"/>
<g>
	<path class="st3" d="M221.7,242.1v-4.3l-4-5.7h1l3.4,4.9l3.4-4.9h1l-4,5.7v4.3H221.7z"/>
	<path class="st3" d="M225.6,238.4c0-2.1,1.3-3.8,3.5-3.8c2.1,0,3.5,1.7,3.5,3.8s-1.3,3.8-3.5,3.8
		C227,242.3,225.6,240.6,225.6,238.4z M231.7,238.4c0-1.6-0.9-3.1-2.7-3.1c-1.7,0-2.6,1.5-2.6,3.1c0,1.6,1,3.1,2.6,3.1
		C230.8,241.6,231.7,240.1,231.7,238.4z"/>
	<path class="st3" d="M239.5,242.1V241c-0.6,0.7-1.6,1.2-2.6,1.2c-1.5,0-2.3-0.7-2.3-2.3v-5.1h0.8v4.9c0,1.4,0.7,1.8,1.8,1.8
		c0.9,0,1.9-0.6,2.4-1.2v-5.5h0.8v7.2H239.5z"/>
	<path class="st3" d="M242.7,242.1v-7.2h0.8v1.2c0.6-0.8,1.4-1.4,2.4-1.4v0.9c-0.1,0-0.2,0-0.4,0c-0.7,0-1.7,0.7-2.1,1.3v5.3H242.7z
		"/>
	<path class="st3" d="M260,242.1V237c0-1-0.4-1.6-1.5-1.6c-0.8,0-1.7,0.6-2.1,1.2v5.5h-0.8V237c0-1-0.4-1.6-1.4-1.6
		c-0.8,0-1.7,0.6-2.1,1.2v5.5h-0.8v-7.2h0.8v1.1c0.3-0.5,1.3-1.3,2.3-1.3c1.1,0,1.7,0.7,1.9,1.4c0.4-0.7,1.4-1.4,2.4-1.4
		c1.3,0,2,0.8,2,2.2v5.2H260z"/>
	<path class="st3" d="M262.8,238.4c0-2.1,1.4-3.8,3.5-3.8c2.1,0,3.5,1.7,3.5,3.8s-1.3,3.8-3.5,3.8
		C264.1,242.3,262.8,240.6,262.8,238.4z M268.9,238.4c0-1.6-0.9-3.1-2.7-3.1c-1.7,0-2.6,1.5-2.6,3.1c0,1.6,1,3.1,2.6,3.1
		C267.9,241.6,268.9,240.1,268.9,238.4z"/>
	<path class="st3" d="M271.7,242.1v-10h0.8v3.9c0.6-0.8,1.5-1.4,2.5-1.4c1.9,0,3.2,1.5,3.2,3.8c0,2.3-1.3,3.8-3.2,3.8
		c-1.1,0-2-0.6-2.5-1.3v1.2H271.7z M274.9,241.6c1.6,0,2.5-1.3,2.5-3.1s-0.9-3.1-2.5-3.1c-1,0-2,0.6-2.4,1.3v3.6
		C272.9,241,273.9,241.6,274.9,241.6z"/>
	<path class="st3" d="M280.1,233.1c0-0.3,0.3-0.6,0.6-0.6c0.3,0,0.6,0.3,0.6,0.6c0,0.3-0.3,0.6-0.6,0.6
		C280.4,233.7,280.1,233.4,280.1,233.1z M280.3,242.1v-7.2h0.8v7.2H280.3z"/>
	<path class="st3" d="M283.5,242.1v-10h0.8v10H283.5z"/>
	<path class="st3" d="M286.3,238.4c0-2.1,1.5-3.8,3.5-3.8c2.2,0,3.4,1.7,3.4,3.8v0.2h-6.1c0.1,1.6,1.1,2.9,2.8,2.9
		c0.9,0,1.8-0.3,2.4-1l0.4,0.5c-0.7,0.8-1.6,1.2-2.8,1.2C287.8,242.3,286.3,240.7,286.3,238.4z M289.8,235.3c-1.7,0-2.6,1.5-2.6,2.8
		h5.3C292.4,236.9,291.6,235.3,289.8,235.3z"/>
	<path class="st3" d="M237.9,255.8l-2-6.2l-2,6.2h-0.8l-2.4-7.2h0.8l1.9,6.1l2-6.1h0.7l2,6.1l1.9-6.1h0.8l-2.4,7.2H237.9z"/>
	<path class="st3" d="M242,252.1c0-2.1,1.5-3.8,3.5-3.8c2.2,0,3.4,1.7,3.4,3.8v0.2h-6.1c0.1,1.6,1.1,2.9,2.8,2.9
		c0.9,0,1.8-0.3,2.4-1l0.4,0.5c-0.7,0.7-1.6,1.2-2.8,1.2C243.5,255.9,242,254.4,242,252.1z M245.5,249c-1.7,0-2.6,1.5-2.6,2.8h5.3
		C248.1,250.5,247.3,249,245.5,249z"/>
	<path class="st3" d="M251,255.8v-10h0.8v3.9c0.6-0.8,1.5-1.4,2.5-1.4c1.9,0,3.2,1.5,3.2,3.8c0,2.3-1.3,3.8-3.2,3.8
		c-1.1,0-2-0.6-2.5-1.3v1.2H251z M254.1,255.2c1.6,0,2.5-1.3,2.5-3.1s-0.9-3.1-2.5-3.1c-1,0-2,0.6-2.4,1.3v3.6
		C252.2,254.6,253.1,255.2,254.1,255.2z"/>
	<path class="st3" d="M258.9,254.8l0.5-0.6c0.5,0.6,1.3,1.1,2.3,1.1c1.2,0,1.9-0.6,1.9-1.5c0-2-4.6-0.9-4.6-3.5c0-1.1,0.9-2,2.6-2
		c1.2,0,2.1,0.5,2.6,1.1l-0.4,0.6c-0.4-0.6-1.2-1-2.2-1c-1.1,0-1.8,0.6-1.8,1.3c0,1.8,4.6,0.7,4.6,3.5c0,1.2-0.9,2.1-2.7,2.1
		C260.5,255.9,259.6,255.6,258.9,254.8z"/>
	<path class="st3" d="M266.2,246.8c0-0.3,0.3-0.6,0.6-0.6c0.3,0,0.6,0.3,0.6,0.6c0,0.3-0.3,0.6-0.6,0.6
		C266.5,247.4,266.2,247.1,266.2,246.8z M266.4,255.8v-7.2h0.8v7.2H266.4z"/>
	<path class="st3" d="M269.8,254.4v-5.2h-1.2v-0.7h1.2v-2h0.8v2h1.5v0.7h-1.5v5c0,0.6,0.2,1,0.8,1c0.3,0,0.6-0.2,0.8-0.3l0.3,0.6
		c-0.3,0.3-0.6,0.5-1.2,0.5C270.2,255.9,269.8,255.3,269.8,254.4z"/>
	<path class="st3" d="M273.3,252.1c0-2.1,1.5-3.8,3.5-3.8c2.2,0,3.4,1.7,3.4,3.8v0.2h-6.1c0.1,1.6,1.1,2.9,2.8,2.9
		c0.9,0,1.8-0.3,2.4-1l0.4,0.5c-0.7,0.7-1.6,1.2-2.8,1.2C274.8,255.9,273.3,254.4,273.3,252.1z M276.8,249c-1.7,0-2.6,1.5-2.6,2.8
		h5.3C279.4,250.5,278.6,249,276.8,249z"/>
</g>
<g>
	<path class="st2" d="M273.8,179.5h-38.1c-3.6,0-6.5,2.9-6.5,6.5v25.5c0,3.6,2.9,6.5,6.5,6.5H256v-5.2h-18.1v-28.2h35.9
		c0.7,0,1.3,0.6,1.3,1.3v0.5h1.9c1.2,0,2.3,0.3,3.2,0.9V186C280.3,182.4,277.4,179.5,273.8,179.5L273.8,179.5z M233.6,196.3
		c1.4,0,2.4,1.1,2.4,2.4c0,1.4-1.1,2.4-2.4,2.4c-1.3,0-2.4-1.1-2.4-2.4C231.1,197.4,232.3,196.3,233.6,196.3L233.6,196.3z
		 M233.6,196.3"/>
	<path class="st2" d="M242.1,201.6c-0.5,0-0.9,0.4-0.9,0.9v6.9c0,0.5,0.4,0.9,0.9,0.9h11.3c0.5,0,0.9-0.4,0.9-0.9v-6.9
		c0-0.5-0.4-0.9-0.9-0.9H242.1z M242.1,201.6"/>
	<path class="st2" d="M241.9,198.6c0,0.5,0.4,0.9,0.9,0.9H256v-1.7h-13.3C242.3,197.7,241.9,198.1,241.9,198.6L241.9,198.6z
		 M241.9,198.6"/>
	<path class="st2" d="M241.9,195.1c0,0.5,0.4,0.9,0.9,0.9H256v-1.7h-13.3C242.3,194.3,241.9,194.6,241.9,195.1L241.9,195.1z
		 M241.9,195.1"/>
	<path class="st2" d="M241.9,191.7c0,0.5,0.4,0.9,0.9,0.9h13.3c0.1-0.6,0.2-1.2,0.4-1.7h-13.7C242.3,190.8,241.9,191.2,241.9,191.7
		L241.9,191.7z M241.9,191.7"/>
	<path class="st2" d="M241.9,188.2c0,0.5,0.4,0.9,0.9,0.9h14.7c0.5-0.7,1.2-1.3,2-1.7h-16.6C242.3,187.4,241.9,187.8,241.9,188.2
		L241.9,188.2z M241.9,188.2"/>
	<path class="st2" d="M277.1,189.9h-14.4c-1.8,0-3.2,1.4-3.2,3.2v27.3c0,1.8,1.4,3.2,3.2,3.2h14.4c1.8,0,3.2-1.4,3.2-3.2v-27.3
		C280.3,191.4,278.8,189.9,277.1,189.9L277.1,189.9z M262.9,193.4h13.9v24.1h-13.9V193.4z M268.3,220.3c0-0.9,0.7-1.6,1.6-1.6
		c0.9,0,1.6,0.7,1.6,1.6c0,0.9-0.7,1.6-1.6,1.6C269,221.9,268.3,221.2,268.3,220.3L268.3,220.3z M268.3,220.3"/>
	<path class="st2" d="M266.1,200h7.7c0.5,0,0.9-0.4,0.9-0.9v-1.8c0-0.5-0.4-0.9-0.9-0.9h-7.7c-0.5,0-0.9,0.4-0.9,0.9v1.8
		C265.2,199.6,265.6,200,266.1,200L266.1,200z M266.1,200"/>
	<path class="st2" d="M274.7,201.6h-9.5c-0.5,0-0.9,0.4-0.9,0.9c0,0.5,0.4,0.9,0.9,0.9h9.5c0.5,0,0.9-0.4,0.9-0.9
		C275.5,202,275.1,201.6,274.7,201.6L274.7,201.6z M274.7,201.6"/>
	<path class="st2" d="M274.7,205h-9.5c-0.5,0-0.9,0.4-0.9,0.9c0,0.5,0.4,0.9,0.9,0.9h9.5c0.5,0,0.9-0.4,0.9-0.9
		C275.5,205.4,275.1,205,274.7,205L274.7,205z M274.7,205"/>
	<path class="st2" d="M274.7,208.5h-9.5c-0.5,0-0.9,0.4-0.9,0.9c0,0.5,0.4,0.9,0.9,0.9h9.5c0.5,0,0.9-0.4,0.9-0.9
		C275.5,208.8,275.1,208.5,274.7,208.5L274.7,208.5z M274.7,208.5"/>
	<path class="st2" d="M274.7,211.9h-9.5c-0.5,0-0.9,0.4-0.9,0.9c0,0.5,0.4,0.9,0.9,0.9h9.5c0.5,0,0.9-0.4,0.9-0.9
		C275.5,212.3,275.1,211.9,274.7,211.9L274.7,211.9z M274.7,211.9"/>
</g>
<g>
	<path class="st12" d="M128.2,34.8c0-3.9,2.6-6.9,6.5-6.9c3.9,0,6.5,3,6.5,6.9c0,3.9-2.6,6.9-6.5,6.9
		C130.8,41.7,128.2,38.7,128.2,34.8z M140,34.8c0-3.4-2.1-5.9-5.3-5.9c-3.2,0-5.3,2.5-5.3,5.9c0,3.4,2.1,5.9,5.3,5.9
		C137.9,40.7,140,38.2,140,34.8z"/>
	<path class="st12" d="M152.2,41.5l-2.7-8.3l-2.7,8.3h-1l-3.1-9.7h1.1l2.6,8.2l2.7-8.2h0.9l2.7,8.2l2.6-8.2h1.1l-3.1,9.7H152.2z"/>
	<path class="st12" d="M164.9,41.5v-6.5c0-1.9-0.9-2.4-2.3-2.4c-1.2,0-2.5,0.8-3.1,1.7v7.3h-1v-9.7h1v1.5c0.7-0.8,2.1-1.7,3.5-1.7
		c2,0,3,1,3,3.1v6.8H164.9z"/>
	<path class="st12" d="M168.6,36.6c0-2.8,2-5.1,4.6-5.1c2.9,0,4.6,2.3,4.6,5.1V37h-8.1c0.1,2.1,1.5,3.8,3.8,3.8
		c1.2,0,2.3-0.5,3.2-1.3l0.5,0.7c-1,1-2.2,1.6-3.8,1.6C170.6,41.7,168.6,39.6,168.6,36.6z M173.2,32.5c-2.3,0-3.4,2-3.5,3.7h7
		C176.7,34.5,175.6,32.5,173.2,32.5z"/>
	<path class="st12" d="M187.6,41.5v-1.5c-0.7,1-1.9,1.8-3.4,1.8c-2.6,0-4.3-2-4.3-5.1c0-3.1,1.7-5.1,4.3-5.1c1.4,0,2.6,0.7,3.4,1.8
		v-5.2h1.1v13.3H187.6z M187.6,39v-4.8c-0.6-0.9-1.8-1.8-3.2-1.8c-2.1,0-3.4,1.8-3.4,4.1c0,2.3,1.2,4.1,3.4,4.1
		C185.8,40.8,187,40,187.6,39z"/>
	<path class="st12" d="M196.5,36.6c0-2.8,1.8-5.1,4.7-5.1c1.7,0,2.6,0.7,3.4,1.6l-0.7,0.6c-0.7-1-1.6-1.3-2.6-1.3
		c-2.3,0-3.6,1.8-3.6,4.1c0,2.3,1.4,4.1,3.6,4.1c1.1,0,1.9-0.4,2.6-1.4l0.7,0.6c-0.8,1-1.7,1.7-3.4,1.7
		C198.4,41.7,196.5,39.4,196.5,36.6z"/>
	<path class="st12" d="M213.5,41.5v-6.6c0-1.9-0.9-2.4-2.3-2.4c-1.2,0-2.5,0.8-3.1,1.7v7.3h-1V28.1h1v5.1c0.7-0.8,2.1-1.7,3.5-1.7
		c2,0,3,0.9,3,3.1v6.8H213.5z"/>
	<path class="st12" d="M223.9,41.5v-1.1c-0.9,0.9-1.9,1.4-3.3,1.4c-1.7,0-3.4-1.1-3.4-3.2c0-2.1,1.7-3.2,3.4-3.2
		c1.3,0,2.4,0.4,3.3,1.4v-2c0-1.4-1.2-2.2-2.6-2.2c-1.2,0-2.2,0.4-3,1.4l-0.6-0.7c1-1.1,2.1-1.6,3.7-1.6c2,0,3.5,0.9,3.5,3.1v6.8
		H223.9z M223.9,39.6v-2.1c-0.7-0.9-1.8-1.3-2.9-1.3c-1.6,0-2.6,1-2.6,2.4c0,1.4,1.1,2.4,2.6,2.4C222.1,40.9,223.2,40.4,223.9,39.6z
		"/>
	<path class="st12" d="M234.7,41.5v-6.5c0-1.9-0.9-2.4-2.3-2.4c-1.2,0-2.5,0.8-3.1,1.7v7.3h-1v-9.7h1v1.5c0.7-0.8,2.1-1.7,3.5-1.7
		c2,0,3,1,3,3.1v6.8H234.7z"/>
	<path class="st12" d="M245.5,41.5v-6.5c0-1.9-0.9-2.4-2.3-2.4c-1.2,0-2.5,0.8-3.1,1.7v7.3h-1v-9.7h1v1.5c0.7-0.8,2.1-1.7,3.5-1.7
		c2,0,3,1,3,3.1v6.8H245.5z"/>
	<path class="st12" d="M249.2,36.6c0-2.8,2-5.1,4.6-5.1c2.9,0,4.6,2.3,4.6,5.1V37h-8.1c0.1,2.1,1.5,3.8,3.8,3.8
		c1.2,0,2.3-0.5,3.2-1.3l0.5,0.7c-1,1-2.2,1.6-3.8,1.6C251.2,41.7,249.2,39.6,249.2,36.6z M253.9,32.5c-2.3,0-3.4,2-3.5,3.7h7
		C257.4,34.5,256.3,32.5,253.9,32.5z"/>
	<path class="st12" d="M261.1,41.5V28.1h1v13.3H261.1z"/>
	<path class="st12" d="M264.6,40.2l0.6-0.8c0.6,0.8,1.8,1.4,3.1,1.4c1.6,0,2.6-0.8,2.6-2c0-2.6-6.1-1.1-6.1-4.6
		c0-1.5,1.3-2.7,3.4-2.7c1.7,0,2.8,0.6,3.5,1.4l-0.6,0.7c-0.6-0.8-1.6-1.3-2.9-1.3c-1.5,0-2.4,0.8-2.4,1.8c0,2.4,6.1,0.9,6.1,4.7
		c0,1.6-1.2,2.8-3.6,2.8C266.7,41.7,265.5,41.2,264.6,40.2z"/>
</g>
<path class="st0" d="M192.7,140.2c0,6.4-5.2,11.7-11.7,11.7h-75.4c-6.4,0-11.7-5.2-11.7-11.7V65.7c0-6.4,5.2-11.7,11.7-11.7H181
	c6.4,0,11.7,5.2,11.7,11.7V140.2z"/>
<path class="st0" d="M304.2,140.2c0,6.4-5.2,11.7-11.7,11.7h-75.4c-6.4,0-11.7-5.2-11.7-11.7V65.7c0-6.4,5.2-11.7,11.7-11.7h75.4
	c6.4,0,11.7,5.2,11.7,11.7V140.2z"/>
<g>
	<path class="st3" d="M129.1,138.9l0.6-0.6c0.6,0.7,1.7,1.5,3.1,1.5c2,0,2.6-1.1,2.6-2c0-2.9-6-1.4-6-4.9c0-1.6,1.5-2.7,3.3-2.7
		c1.5,0,2.6,0.5,3.4,1.4l-0.6,0.6c-0.7-0.9-1.7-1.3-2.9-1.3c-1.3,0-2.3,0.8-2.3,1.8c0,2.6,6,1.2,6,4.9c0,1.3-0.9,2.8-3.6,2.8
		C131.1,140.5,129.8,139.8,129.1,138.9z"/>
	<path class="st3" d="M146.8,140.3v-8.9l-3.6,8.9h-0.3l-3.7-8.9v8.9h-0.9v-10h1.3l3.4,8.3l3.4-8.3h1.3v10H146.8z"/>
	<path class="st3" d="M149.6,138.9l0.6-0.6c0.6,0.7,1.7,1.5,3.1,1.5c2,0,2.6-1.1,2.6-2c0-2.9-6-1.4-6-4.9c0-1.6,1.5-2.7,3.3-2.7
		c1.5,0,2.6,0.5,3.4,1.4l-0.6,0.6c-0.7-0.9-1.7-1.3-2.9-1.3c-1.3,0-2.3,0.8-2.3,1.8c0,2.6,6,1.2,6,4.9c0,1.3-0.9,2.8-3.6,2.8
		C151.7,140.5,150.4,139.8,149.6,138.9z"/>
</g>
<g>
	<path class="st3" d="M238.4,140.3v-10h6.3v0.8h-5.5v3.7h5.4v0.8h-5.4v4h5.5v0.8H238.4z"/>
	<path class="st3" d="M255.5,140.3v-5.1c0-1-0.4-1.6-1.5-1.6c-0.8,0-1.7,0.6-2.1,1.2v5.5h-0.8v-5.1c0-1-0.4-1.6-1.4-1.6
		c-0.8,0-1.7,0.6-2.1,1.2v5.5h-0.8V133h0.8v1.1c0.3-0.5,1.3-1.3,2.3-1.3c1.1,0,1.7,0.7,1.9,1.4c0.4-0.7,1.4-1.4,2.4-1.4
		c1.3,0,2,0.8,2,2.2v5.2H255.5z"/>
	<path class="st3" d="M263.3,140.3v-0.9c-0.6,0.7-1.5,1-2.5,1c-1.2,0-2.5-0.9-2.5-2.4c0-1.6,1.3-2.4,2.5-2.4c1,0,1.8,0.3,2.5,1v-1.5
		c0-1.1-0.9-1.7-1.9-1.7c-0.9,0-1.6,0.3-2.3,1.1l-0.4-0.5c0.8-0.8,1.6-1.2,2.8-1.2c1.5,0,2.6,0.7,2.6,2.3v5.1H263.3z M263.3,138.9
		v-1.6c-0.5-0.7-1.3-1-2.2-1c-1.2,0-2,0.8-2,1.8c0,1,0.8,1.8,2,1.8C262,139.8,262.8,139.5,263.3,138.9z"/>
	<path class="st3" d="M266.3,131.3c0-0.3,0.3-0.6,0.6-0.6c0.3,0,0.6,0.3,0.6,0.6c0,0.3-0.3,0.6-0.6,0.6
		C266.6,131.9,266.3,131.6,266.3,131.3z M266.5,140.3V133h0.8v7.2H266.5z"/>
	<path class="st3" d="M269.7,140.3v-10h0.8v10H269.7z"/>
</g>
<g>
	<path class="st2" d="M165.1,87.6h-1.4v15.8c0,2.5-1.4,4.7-4.3,4.7h-28v0.8c0,2.2,2.5,4.4,5,4.4h21.5l8.2,4.8l-1.2-4.8h0.3
		c2.5,0,3.7-2.2,3.7-4.4V91.4C168.8,89.2,167.6,87.6,165.1,87.6L165.1,87.6z M165.1,87.6"/>
	<path class="st2" d="M155.2,76.7h-32.6c-2.9,0-6.2,2.5-6.2,5v19.7c0,2.3,2.8,3.9,5.5,4.2l-1.7,6.6l11.2-6.6h23.8
		c2.9,0,5.5-1.7,5.5-4.2V81.7C160.7,79.2,158,76.7,155.2,76.7L155.2,76.7z M127.6,93.3c-1.6,0-2.9-1.3-2.9-2.9
		c0-1.6,1.3-2.9,2.9-2.9c1.6,0,2.9,1.3,2.9,2.9C130.5,92,129.2,93.3,127.6,93.3L127.6,93.3z M138.6,93.3c-1.6,0-2.9-1.3-2.9-2.9
		c0-1.6,1.3-2.9,2.9-2.9c1.6,0,2.9,1.3,2.9,2.9C141.5,92,140.2,93.3,138.6,93.3L138.6,93.3z M149.6,93.3c-1.6,0-2.9-1.3-2.9-2.9
		c0-1.6,1.3-2.9,2.9-2.9c1.6,0,2.9,1.3,2.9,2.9C152.5,92,151.2,93.3,149.6,93.3L149.6,93.3z M149.6,93.3"/>
</g>
<g>
	<path class="st3" d="M96.7,304.9v-13.3h5c2.6,0,4,1.8,4,3.9c0,2.1-1.5,3.9-4,3.9h-3.9v5.5H96.7z M104.5,295.4
		c0-1.7-1.2-2.9-2.9-2.9h-3.7v5.7h3.7C103.4,298.3,104.5,297.1,104.5,295.4z"/>
	<path class="st3" d="M108.1,304.9v-9.7h1v1.7c0.8-1.1,1.9-1.9,3.3-1.9v1.1c-0.2,0-0.3,0-0.5,0c-1,0-2.3,0.9-2.7,1.7v7H108.1z"/>
	<path class="st3" d="M113.9,300c0-2.8,1.8-5.1,4.6-5.1c2.9,0,4.7,2.2,4.7,5.1c0,2.8-1.8,5.1-4.7,5.1
		C115.7,305.1,113.9,302.8,113.9,300z M122.1,300c0-2.1-1.3-4.1-3.5-4.1c-2.2,0-3.5,2-3.5,4.1c0,2.2,1.3,4.1,3.5,4.1
		C120.8,304.2,122.1,302.2,122.1,300z"/>
	<path class="st3" d="M125.9,307.3l0.6-0.8c0.8,1,1.8,1.4,3.2,1.4c1.7,0,3.3-0.9,3.3-3.1v-1.5c-0.7,1-1.9,1.8-3.4,1.8
		c-2.6,0-4.3-1.9-4.3-5c0-3.1,1.7-5.1,4.3-5.1c1.4,0,2.6,0.7,3.4,1.8v-1.6h1.1v9.6c0,2.9-2,4-4.3,4
		C128.1,308.8,127,308.5,125.9,307.3z M133,302.4v-4.7c-0.6-0.9-1.8-1.8-3.2-1.8c-2.1,0-3.4,1.8-3.4,4.1c0,2.3,1.2,4.1,3.4,4.1
		C131.1,304.1,132.4,303.3,133,302.4z"/>
	<path class="st3" d="M137.3,304.9v-9.7h1v1.7c0.8-1.1,1.9-1.9,3.3-1.9v1.1c-0.2,0-0.3,0-0.5,0c-1,0-2.3,0.9-2.7,1.7v7H137.3z"/>
	<path class="st3" d="M149.7,304.9v-1.1c-0.9,0.9-1.9,1.4-3.3,1.4c-1.7,0-3.4-1.1-3.4-3.2c0-2.1,1.7-3.2,3.4-3.2
		c1.3,0,2.4,0.4,3.3,1.4v-2c0-1.4-1.2-2.2-2.6-2.2c-1.2,0-2.2,0.4-3,1.4l-0.6-0.7c1-1.1,2.1-1.6,3.7-1.6c2,0,3.5,0.9,3.5,3.1v6.8
		H149.7z M149.7,303v-2.1c-0.7-0.9-1.8-1.3-2.9-1.3c-1.6,0-2.6,1-2.6,2.4c0,1.4,1.1,2.4,2.6,2.4C148,304.3,149.1,303.8,149.7,303z"
		/>
	<path class="st3" d="M165.5,304.9v-6.8c0-1.4-0.6-2.2-1.9-2.2c-1,0-2.2,0.8-2.8,1.6v7.3h-1.1v-6.8c0-1.4-0.6-2.2-1.9-2.2
		c-1,0-2.2,0.8-2.8,1.7v7.3h-1v-9.7h1v1.5c0.4-0.6,1.7-1.7,3.1-1.7c1.5,0,2.3,0.9,2.5,1.8c0.5-0.9,1.8-1.8,3.2-1.8
		c1.8,0,2.6,1,2.6,2.9v7H165.5z"/>
	<path class="st3" d="M181.3,304.9v-6.8c0-1.4-0.6-2.2-1.9-2.2c-1,0-2.2,0.8-2.8,1.6v7.3h-1.1v-6.8c0-1.4-0.6-2.2-1.9-2.2
		c-1,0-2.2,0.8-2.8,1.7v7.3h-1v-9.7h1v1.5c0.4-0.6,1.7-1.7,3.1-1.7c1.5,0,2.3,0.9,2.5,1.8c0.5-0.9,1.8-1.8,3.2-1.8
		c1.8,0,2.6,1,2.6,2.9v7H181.3z"/>
	<path class="st3" d="M191.7,304.9v-1.1c-0.9,0.9-1.9,1.4-3.3,1.4c-1.7,0-3.4-1.1-3.4-3.2c0-2.1,1.7-3.2,3.4-3.2
		c1.3,0,2.4,0.4,3.3,1.4v-2c0-1.4-1.2-2.2-2.6-2.2c-1.2,0-2.2,0.4-3,1.4l-0.6-0.7c1-1.1,2.1-1.6,3.7-1.6c2,0,3.5,0.9,3.5,3.1v6.8
		H191.7z M191.7,303v-2.1c-0.7-0.9-1.8-1.3-2.9-1.3c-1.6,0-2.6,1-2.6,2.4c0,1.4,1.1,2.4,2.6,2.4C190,304.3,191,303.8,191.7,303z"/>
	<path class="st3" d="M196.2,303v-6.9h-1.6v-0.9h1.6v-2.6h1.1v2.6h2v0.9h-2v6.7c0,0.8,0.3,1.3,1,1.3c0.5,0,0.9-0.2,1.1-0.5l0.4,0.8
		c-0.4,0.4-0.8,0.6-1.6,0.6C196.8,305.1,196.2,304.3,196.2,303z"/>
	<path class="st3" d="M201.2,292.9c0-0.4,0.4-0.8,0.8-0.8c0.4,0,0.8,0.3,0.8,0.8c0,0.4-0.4,0.8-0.8,0.8
		C201.6,293.7,201.2,293.3,201.2,292.9z M201.5,304.9v-9.7h1v9.7H201.5z"/>
	<path class="st3" d="M205.2,300c0-2.8,1.8-5.1,4.7-5.1c1.7,0,2.6,0.7,3.4,1.6l-0.7,0.6c-0.7-1-1.6-1.3-2.6-1.3
		c-2.3,0-3.6,1.8-3.6,4.1c0,2.3,1.4,4.1,3.6,4.1c1.1,0,1.9-0.4,2.6-1.4l0.7,0.6c-0.8,1-1.7,1.7-3.4,1.7
		C207.1,305.1,205.2,302.8,205.2,300z"/>
	<path class="st3" d="M220.8,304.9v-13.3h1v5.2c0.8-1.1,2-1.8,3.4-1.8c2.6,0,4.3,2,4.3,5.1c0,3.1-1.8,5.1-4.3,5.1
		c-1.4,0-2.7-0.8-3.4-1.8v1.5H220.8z M225.1,304.2c2.2,0,3.4-1.8,3.4-4.1c0-2.3-1.2-4.1-3.4-4.1c-1.3,0-2.6,0.8-3.2,1.8v4.8
		C222.4,303.4,223.7,304.2,225.1,304.2z"/>
	<path class="st3" d="M238.8,304.9v-1.4c-0.8,0.9-2.1,1.7-3.5,1.7c-2,0-3-0.9-3-3.1v-6.8h1v6.6c0,1.9,0.9,2.4,2.3,2.4
		c1.2,0,2.5-0.7,3.1-1.6v-7.4h1v9.7H238.8z"/>
	<path class="st3" d="M242.6,307.7c0.2,0.1,0.6,0.2,0.8,0.2c0.6,0,1.1-0.3,1.5-1.2l0.8-1.7l-4.1-9.7h1.2l3.5,8.4l3.5-8.4h1.2
		l-5,11.8c-0.5,1.2-1.3,1.8-2.5,1.8c-0.3,0-0.8-0.1-1-0.1L242.6,307.7z"/>
	<path class="st3" d="M252.4,292.9c0-0.4,0.4-0.8,0.8-0.8c0.4,0,0.8,0.3,0.8,0.8c0,0.4-0.4,0.8-0.8,0.8
		C252.8,293.7,252.4,293.3,252.4,292.9z M252.7,304.9v-9.7h1v9.7H252.7z"/>
	<path class="st3" d="M263.5,304.9v-6.5c0-1.9-0.9-2.4-2.3-2.4c-1.2,0-2.5,0.8-3.1,1.7v7.3h-1v-9.7h1v1.5c0.7-0.8,2.1-1.7,3.5-1.7
		c2,0,3,1,3,3.1v6.8H263.5z"/>
	<path class="st3" d="M267.8,307.3l0.6-0.8c0.8,1,1.8,1.4,3.2,1.4c1.7,0,3.3-0.9,3.3-3.1v-1.5c-0.7,1-1.9,1.8-3.4,1.8
		c-2.6,0-4.3-1.9-4.3-5c0-3.1,1.7-5.1,4.3-5.1c1.4,0,2.6,0.7,3.4,1.8v-1.6h1.1v9.6c0,2.9-2,4-4.3,4
		C270,308.8,268.9,308.5,267.8,307.3z M274.9,302.4v-4.7c-0.6-0.9-1.8-1.8-3.2-1.8c-2.1,0-3.4,1.8-3.4,4.1c0,2.3,1.2,4.1,3.4,4.1
		C273,304.1,274.3,303.3,274.9,302.4z"/>
	<path class="st3" d="M283.8,300c0-2.8,1.8-5.1,4.6-5.1c2.9,0,4.7,2.2,4.7,5.1c0,2.8-1.8,5.1-4.7,5.1
		C285.6,305.1,283.8,302.8,283.8,300z M292,300c0-2.1-1.3-4.1-3.5-4.1c-2.2,0-3.5,2-3.5,4.1c0,2.2,1.3,4.1,3.5,4.1
		C290.7,304.2,292,302.2,292,300z"/>
	<path class="st3" d="M302.3,304.9v-6.5c0-1.9-0.9-2.4-2.3-2.4c-1.2,0-2.5,0.8-3.1,1.7v7.3h-1v-9.7h1v1.5c0.7-0.8,2.1-1.7,3.5-1.7
		c2,0,3,1,3,3.1v6.8H302.3z"/>
	<path class="st3" d="M112.7,321.1v5.2h-1V313h1v1.5c0.7-1,1.9-1.8,3.4-1.8c2.6,0,4.3,2,4.3,5.1c0,3.1-1.7,5.1-4.3,5.1
		C114.7,322.9,113.4,322.2,112.7,321.1z M119.2,317.8c0-2.3-1.2-4.1-3.4-4.1c-1.3,0-2.6,0.8-3.2,1.7v4.8c0.6,0.9,1.8,1.8,3.2,1.8
		C118,321.9,119.2,320.1,119.2,317.8z"/>
	<path class="st3" d="M129.1,322.6v-1.1c-0.9,0.9-1.9,1.4-3.3,1.4c-1.7,0-3.4-1.1-3.4-3.2c0-2.1,1.7-3.2,3.4-3.2
		c1.3,0,2.4,0.4,3.3,1.4v-2c0-1.4-1.2-2.2-2.6-2.2c-1.2,0-2.2,0.4-3,1.4l-0.6-0.7c1-1.1,2.1-1.6,3.7-1.6c2,0,3.5,0.9,3.5,3.1v6.8
		H129.1z M129.1,320.7v-2.1c-0.7-0.9-1.8-1.3-2.9-1.3c-1.6,0-2.6,1-2.6,2.4c0,1.4,1.1,2.4,2.6,2.4
		C127.3,322.1,128.4,321.6,129.1,320.7z"/>
	<path class="st3" d="M133.1,310.7c0-0.4,0.4-0.8,0.8-0.8c0.4,0,0.8,0.3,0.8,0.8c0,0.4-0.4,0.8-0.8,0.8
		C133.5,311.5,133.1,311.1,133.1,310.7z M133.4,322.6V313h1v9.7H133.4z"/>
	<path class="st3" d="M144.8,322.6v-1.5c-0.7,1-1.9,1.8-3.4,1.8c-2.6,0-4.3-2-4.3-5.1c0-3.1,1.7-5.1,4.3-5.1c1.4,0,2.6,0.7,3.4,1.8
		v-5.2h1.1v13.3H144.8z M144.8,320.2v-4.8c-0.6-0.9-1.8-1.8-3.2-1.8c-2.1,0-3.4,1.8-3.4,4.1c0,2.3,1.2,4.1,3.4,4.1
		C143,321.9,144.2,321.1,144.8,320.2z"/>
	<path class="st3" d="M153.7,317.8c0-2.8,1.8-5.1,4.7-5.1c1.7,0,2.6,0.7,3.4,1.6l-0.7,0.6c-0.7-1-1.6-1.3-2.6-1.3
		c-2.3,0-3.6,1.8-3.6,4.1c0,2.3,1.4,4.1,3.6,4.1c1.1,0,1.9-0.4,2.6-1.4l0.7,0.6c-0.8,1-1.7,1.7-3.4,1.7
		C155.6,322.9,153.7,320.6,153.7,317.8z"/>
	<path class="st3" d="M170.7,322.6v-6.6c0-1.9-0.9-2.4-2.3-2.4c-1.2,0-2.5,0.8-3.1,1.7v7.3h-1v-13.3h1v5.1c0.7-0.8,2.1-1.7,3.5-1.7
		c2,0,3,0.9,3,3.1v6.8H170.7z"/>
	<path class="st3" d="M181.1,322.6v-1.1c-0.9,0.9-1.9,1.4-3.3,1.4c-1.7,0-3.4-1.1-3.4-3.2c0-2.1,1.7-3.2,3.4-3.2
		c1.3,0,2.4,0.4,3.3,1.4v-2c0-1.4-1.2-2.2-2.6-2.2c-1.2,0-2.2,0.4-3,1.4l-0.6-0.7c1-1.1,2.1-1.6,3.7-1.6c2,0,3.5,0.9,3.5,3.1v6.8
		H181.1z M181.1,320.7v-2.1c-0.7-0.9-1.8-1.3-2.9-1.3c-1.6,0-2.6,1-2.6,2.4c0,1.4,1.1,2.4,2.6,2.4
		C179.3,322.1,180.4,321.6,181.1,320.7z"/>
	<path class="st3" d="M191.9,322.6v-6.5c0-1.9-0.9-2.4-2.3-2.4c-1.2,0-2.5,0.8-3.1,1.7v7.3h-1V313h1v1.5c0.7-0.8,2.1-1.7,3.5-1.7
		c2,0,3,1,3,3.1v6.8H191.9z"/>
	<path class="st3" d="M202.7,322.6v-6.5c0-1.9-0.9-2.4-2.3-2.4c-1.2,0-2.5,0.8-3.1,1.7v7.3h-1V313h1v1.5c0.7-0.8,2.1-1.7,3.5-1.7
		c2,0,3,1,3,3.1v6.8H202.7z"/>
	<path class="st3" d="M206.4,317.8c0-2.8,2-5.1,4.6-5.1c2.9,0,4.6,2.3,4.6,5.1v0.3h-8.1c0.1,2.1,1.5,3.8,3.8,3.8
		c1.2,0,2.3-0.5,3.2-1.3l0.5,0.7c-1,1-2.2,1.6-3.8,1.6C208.4,322.9,206.4,320.8,206.4,317.8z M211,313.6c-2.3,0-3.4,2-3.5,3.7h7
		C214.5,315.7,213.5,313.6,211,313.6z"/>
	<path class="st3" d="M218.3,322.6v-13.3h1v13.3H218.3z"/>
	<path class="st3" d="M221.7,321.3l0.6-0.8c0.6,0.8,1.8,1.4,3.1,1.4c1.6,0,2.6-0.8,2.6-2c0-2.6-6.1-1.1-6.1-4.6
		c0-1.5,1.3-2.7,3.4-2.7c1.7,0,2.8,0.6,3.5,1.4l-0.6,0.7c-0.6-0.8-1.6-1.3-2.9-1.3c-1.5,0-2.4,0.8-2.4,1.8c0,2.4,6.1,0.9,6.1,4.7
		c0,1.6-1.2,2.8-3.6,2.8C223.9,322.9,222.7,322.4,221.7,321.3z"/>
	<path class="st3" d="M238.9,326.6c-1.7-2.6-2.7-5.6-2.7-8.8s1-6.2,2.7-8.8l0.6,0.4c-1.3,2.6-2.1,4.9-2.1,8.4c0,3.5,0.9,5.8,2.1,8.4
		L238.9,326.6z"/>
	<path class="st3" d="M254.5,322.6l-3.7-5.5h-2.9v5.5h-1.1v-13.3h5c2.3,0,4.1,1.5,4.1,3.9c0,2.4-1.7,3.8-3.7,3.8l3.9,5.6H254.5z
		 M254.5,313.2c0-1.7-1.2-2.9-3-2.9h-3.7v5.7h3.7C253.3,316.1,254.5,314.9,254.5,313.2z"/>
	<path class="st3" d="M261.8,322.6v-12.3h-4.4v-1h9.9v1h-4.4v12.3H261.8z"/>
	<path class="st3" d="M269.6,322.6v-13.3h5.5c2.2,0,3.7,1.3,3.7,3.4c0,1.7-1.1,2.8-2.3,3.1c1.4,0.2,2.6,1.7,2.6,3.3
		c0,2.2-1.4,3.6-3.8,3.6H269.6z M277.6,312.8c0-1.4-0.9-2.5-2.6-2.5h-4.2v4.9h4.2C276.7,315.3,277.6,314.2,277.6,312.8z M277.9,319
		c0-1.4-0.9-2.6-2.8-2.6h-4.3v5.3h4.3C276.8,321.6,277.9,320.6,277.9,319z"/>
	<path class="st3" d="M285.8,326.1c1.3-2.5,2.1-4.9,2.1-8.4c0-3.5-0.9-5.8-2.1-8.4l0.6-0.4c1.7,2.6,2.7,5.6,2.7,8.8s-1,6.2-2.7,8.8
		L285.8,326.1z"/>
</g>
<path class="st0" d="M362.6,427.9c0,6.4-5.2,11.7-11.7,11.7H51c-6.4,0-11.7-5.2-11.7-11.7v-74.5c0-6.4,5.2-11.7,11.7-11.7h300
	c6.4,0,11.7,5.2,11.7,11.7V427.9z"/>
<g>
	<path class="st3" d="M90.5,418.5v-0.7c3.4-2.7,5.7-4.7,5.7-6.6c0-1.4-1.2-2-2.3-2c-1.2,0-2.2,0.5-2.7,1.3l-0.6-0.5
		c0.7-1,1.9-1.5,3.3-1.5c1.5,0,3.1,0.8,3.1,2.8c0,2.2-2.3,4.2-5.2,6.6h5.3v0.8H90.5z"/>
	<path class="st3" d="M100.2,418.5l4.2-9.2h-5.5v-0.8h6.6v0.6l-4.3,9.4H100.2z"/>
	<path class="st3" d="M106.8,413.5c0-2.4,1-5.2,3.7-5.2c2.7,0,3.7,2.8,3.7,5.2c0,2.4-1,5.2-3.7,5.2
		C107.8,418.7,106.8,415.9,106.8,413.5z M113.3,413.5c0-2.1-0.7-4.4-2.8-4.4c-2.1,0-2.8,2.3-2.8,4.4c0,2.1,0.7,4.4,2.8,4.4
		C112.6,417.9,113.3,415.6,113.3,413.5z"/>
	<path class="st3" d="M119.1,413.8v3.3h-0.7v-3.3h-3v-0.6h3V410h0.7v3.2h2.9v0.6H119.1z"/>
	<path class="st3" d="M132.9,418.5v-1.2c-0.5,0.8-1.4,1.3-2.5,1.3c-1.9,0-3.2-1.5-3.2-3.8c0-2.3,1.3-3.8,3.2-3.8
		c1,0,1.9,0.5,2.5,1.4v-3.9h0.8v10H132.9z M132.9,416.7v-3.6c-0.4-0.7-1.4-1.3-2.4-1.3c-1.6,0-2.5,1.4-2.5,3.1s0.9,3.1,2.5,3.1
		C131.6,418,132.5,417.4,132.9,416.7z"/>
	<path class="st3" d="M136,409.5c0-0.3,0.3-0.6,0.6-0.6c0.3,0,0.6,0.3,0.6,0.6s-0.3,0.6-0.6,0.6C136.2,410.1,136,409.8,136,409.5z
		 M136.2,418.5v-7.2h0.8v7.2H136.2z"/>
	<path class="st3" d="M138.7,417.5l0.5-0.6c0.5,0.6,1.3,1.1,2.3,1.1c1.2,0,1.9-0.6,1.9-1.5c0-2-4.6-0.9-4.6-3.5c0-1.1,0.9-2,2.6-2
		c1.2,0,2.1,0.5,2.6,1.1l-0.4,0.6c-0.4-0.6-1.2-1-2.2-1c-1.1,0-1.8,0.6-1.8,1.3c0,1.8,4.6,0.7,4.6,3.5c0,1.2-0.9,2.1-2.7,2.1
		C140.4,418.7,139.5,418.3,138.7,417.5z"/>
	<path class="st3" d="M147,417.3v3.9h-0.8v-10h0.8v1.1c0.5-0.7,1.4-1.3,2.5-1.3c1.9,0,3.2,1.5,3.2,3.8c0,2.3-1.3,3.8-3.2,3.8
		C148.5,418.7,147.6,418.2,147,417.3z M152,414.9c0-1.8-0.9-3.1-2.5-3.1c-1,0-2,0.6-2.4,1.3v3.6c0.4,0.7,1.4,1.3,2.4,1.3
		C151,418,152,416.6,152,414.9z"/>
	<path class="st3" d="M154.8,418.5v-10h0.8v10H154.8z"/>
	<path class="st3" d="M162.6,418.5v-0.9c-0.6,0.7-1.5,1-2.5,1c-1.2,0-2.5-0.9-2.5-2.4c0-1.6,1.3-2.4,2.5-2.4c1,0,1.8,0.3,2.5,1v-1.5
		c0-1.1-0.9-1.7-1.9-1.7c-0.9,0-1.6,0.3-2.3,1.1l-0.4-0.5c0.8-0.8,1.6-1.2,2.8-1.2c1.5,0,2.6,0.7,2.6,2.3v5.1H162.6z M162.6,417.1
		v-1.6c-0.5-0.7-1.3-1-2.2-1c-1.2,0-2,0.8-2,1.8c0,1,0.8,1.8,2,1.8C161.3,418.1,162.1,417.7,162.6,417.1z"/>
	<path class="st3" d="M165.4,420.6c0.2,0.1,0.5,0.1,0.6,0.1c0.5,0,0.8-0.2,1.1-0.9l0.6-1.3l-3.1-7.3h0.9l2.6,6.3l2.6-6.3h0.9
		l-3.8,8.8c-0.4,0.9-1,1.4-1.8,1.4c-0.3,0-0.6,0-0.8-0.1L165.4,420.6z"/>
	<path class="st3" d="M176.5,414.9c0-2.1,1.4-3.8,3.5-3.8c1.3,0,2,0.5,2.6,1.2l-0.5,0.5c-0.5-0.7-1.2-1-2-1c-1.7,0-2.7,1.4-2.7,3.1
		c0,1.7,1,3.1,2.7,3.1c0.8,0,1.5-0.3,2-1l0.5,0.5c-0.6,0.8-1.3,1.2-2.6,1.2C177.9,418.7,176.5,417,176.5,414.9z"/>
	<path class="st3" d="M189.2,418.5v-4.9c0-1.4-0.7-1.8-1.8-1.8c-0.9,0-1.9,0.6-2.4,1.2v5.5h-0.8v-10h0.8v3.9
		c0.5-0.6,1.6-1.3,2.6-1.3c1.5,0,2.3,0.7,2.3,2.3v5.1H189.2z"/>
	<path class="st3" d="M197,418.5v-0.9c-0.6,0.7-1.5,1-2.5,1c-1.2,0-2.5-0.9-2.5-2.4c0-1.6,1.3-2.4,2.5-2.4c1,0,1.8,0.3,2.5,1v-1.5
		c0-1.1-0.9-1.7-1.9-1.7c-0.9,0-1.6,0.3-2.3,1.1l-0.4-0.5c0.8-0.8,1.6-1.2,2.8-1.2c1.5,0,2.6,0.7,2.6,2.3v5.1H197z M197,417.1v-1.6
		c-0.5-0.7-1.3-1-2.2-1c-1.2,0-2,0.8-2,1.8c0,1,0.8,1.8,2,1.8C195.7,418.1,196.5,417.7,197,417.1z"/>
	<path class="st3" d="M205.1,418.5v-4.9c0-1.4-0.7-1.8-1.8-1.8c-0.9,0-1.9,0.6-2.4,1.2v5.5h-0.8v-7.2h0.8v1.1
		c0.5-0.6,1.6-1.3,2.6-1.3c1.5,0,2.3,0.7,2.3,2.4v5.1H205.1z"/>
	<path class="st3" d="M213.2,418.5v-4.9c0-1.4-0.7-1.8-1.8-1.8c-0.9,0-1.9,0.6-2.4,1.2v5.5h-0.8v-7.2h0.8v1.1
		c0.5-0.6,1.6-1.3,2.6-1.3c1.5,0,2.3,0.7,2.3,2.4v5.1H213.2z"/>
	<path class="st3" d="M216,414.9c0-2.1,1.5-3.8,3.5-3.8c2.2,0,3.4,1.7,3.4,3.8v0.2h-6.1c0.1,1.6,1.1,2.9,2.8,2.9
		c0.9,0,1.8-0.3,2.4-1l0.4,0.5c-0.7,0.8-1.6,1.2-2.8,1.2C217.5,418.7,216,417.1,216,414.9z M219.5,411.7c-1.7,0-2.6,1.5-2.6,2.8h5.3
		C222.1,413.3,221.3,411.7,219.5,411.7z"/>
	<path class="st3" d="M224.9,418.5v-10h0.8v10H224.9z"/>
	<path class="st3" d="M227.5,417.5l0.5-0.6c0.5,0.6,1.3,1.1,2.3,1.1c1.2,0,1.9-0.6,1.9-1.5c0-2-4.6-0.9-4.6-3.5c0-1.1,0.9-2,2.6-2
		c1.2,0,2.1,0.5,2.6,1.1l-0.4,0.6c-0.4-0.6-1.2-1-2.2-1c-1.1,0-1.8,0.6-1.8,1.3c0,1.8,4.6,0.7,4.6,3.5c0,1.2-0.9,2.1-2.7,2.1
		C229.1,418.7,228.2,418.3,227.5,417.5z"/>
	<path class="st3" d="M238.5,414.9c0-2.1,1.4-3.8,3.5-3.8c2.1,0,3.5,1.7,3.5,3.8c0,2.1-1.3,3.8-3.5,3.8
		C239.8,418.7,238.5,417,238.5,414.9z M244.6,414.9c0-1.6-0.9-3.1-2.7-3.1c-1.7,0-2.6,1.5-2.6,3.1c0,1.6,1,3.1,2.6,3.1
		C243.7,418,244.6,416.5,244.6,414.9z"/>
	<path class="st3" d="M252.3,418.5v-4.9c0-1.4-0.7-1.8-1.8-1.8c-0.9,0-1.9,0.6-2.4,1.2v5.5h-0.8v-7.2h0.8v1.1
		c0.5-0.6,1.6-1.3,2.6-1.3c1.5,0,2.3,0.7,2.3,2.4v5.1H252.3z"/>
	<path class="st3" d="M264.8,418.5v-1.2c-0.5,0.8-1.4,1.3-2.5,1.3c-1.9,0-3.2-1.5-3.2-3.8c0-2.3,1.3-3.8,3.2-3.8
		c1,0,1.9,0.5,2.5,1.4v-3.9h0.8v10H264.8z M264.8,416.7v-3.6c-0.4-0.7-1.4-1.3-2.4-1.3c-1.6,0-2.5,1.4-2.5,3.1s0.9,3.1,2.5,3.1
		C263.4,418,264.4,417.4,264.8,416.7z"/>
	<path class="st3" d="M267.6,414.9c0-2.1,1.5-3.8,3.5-3.8c2.2,0,3.4,1.7,3.4,3.8v0.2h-6.1c0.1,1.6,1.1,2.9,2.8,2.9
		c0.9,0,1.8-0.3,2.4-1l0.4,0.5c-0.7,0.8-1.6,1.2-2.8,1.2C269.1,418.7,267.6,417.1,267.6,414.9z M271.1,411.7c-1.7,0-2.6,1.5-2.6,2.8
		h5.3C273.7,413.3,272.9,411.7,271.1,411.7z"/>
	<path class="st3" d="M275.9,417.5l0.5-0.6c0.5,0.6,1.3,1.1,2.3,1.1c1.2,0,1.9-0.6,1.9-1.5c0-2-4.6-0.9-4.6-3.5c0-1.1,0.9-2,2.6-2
		c1.2,0,2.1,0.5,2.6,1.1l-0.4,0.6c-0.4-0.6-1.2-1-2.2-1c-1.1,0-1.8,0.6-1.8,1.3c0,1.8,4.6,0.7,4.6,3.5c0,1.2-0.9,2.1-2.7,2.1
		C277.5,418.7,276.6,418.3,275.9,417.5z"/>
	<path class="st3" d="M288.4,418.5l-2.9-3.4l-1.3,1.3v2.2h-0.8v-10h0.8v6.9l4.3-4.1h1l-3.4,3.3l3.4,4H288.4z"/>
	<path class="st3" d="M291.1,417.1v-5.2h-1.2v-0.7h1.2v-2h0.8v2h1.5v0.7h-1.5v5c0,0.6,0.2,1,0.8,1c0.3,0,0.6-0.2,0.8-0.3l0.3,0.6
		c-0.3,0.3-0.6,0.5-1.2,0.5C291.6,418.7,291.1,418.1,291.1,417.1z"/>
	<path class="st3" d="M294.7,414.9c0-2.1,1.4-3.8,3.5-3.8c2.1,0,3.5,1.7,3.5,3.8c0,2.1-1.3,3.8-3.5,3.8
		C296,418.7,294.7,417,294.7,414.9z M300.8,414.9c0-1.6-0.9-3.1-2.7-3.1c-1.7,0-2.6,1.5-2.6,3.1c0,1.6,1,3.1,2.6,3.1
		C299.9,418,300.8,416.5,300.8,414.9z"/>
	<path class="st3" d="M304.4,417.3v3.9h-0.8v-10h0.8v1.1c0.5-0.7,1.4-1.3,2.5-1.3c1.9,0,3.2,1.5,3.2,3.8c0,2.3-1.3,3.8-3.2,3.8
		C305.9,418.7,305,418.2,304.4,417.3z M309.4,414.9c0-1.8-0.9-3.1-2.5-3.1c-1,0-2,0.6-2.4,1.3v3.6c0.4,0.7,1.4,1.3,2.4,1.3
		C308.4,418,309.4,416.6,309.4,414.9z"/>
	<path class="st3" d="M114.4,432.2v-0.9c-0.6,0.7-1.5,1-2.5,1c-1.2,0-2.5-0.9-2.5-2.4c0-1.6,1.3-2.4,2.5-2.4c1,0,1.8,0.3,2.5,1v-1.5
		c0-1.1-0.9-1.7-1.9-1.7c-0.9,0-1.6,0.3-2.3,1.1l-0.4-0.5c0.8-0.8,1.6-1.2,2.8-1.2c1.5,0,2.6,0.7,2.6,2.3v5.1H114.4z M114.4,430.7
		v-1.6c-0.5-0.7-1.3-1-2.2-1c-1.2,0-2,0.8-2,1.8c0,1,0.8,1.8,2,1.8C113.1,431.7,113.9,431.4,114.4,430.7z"/>
	<path class="st3" d="M122.5,432.2v-4.9c0-1.4-0.7-1.8-1.8-1.8c-0.9,0-1.9,0.6-2.4,1.2v5.5h-0.8v-7.2h0.8v1.1
		c0.5-0.6,1.6-1.3,2.6-1.3c1.5,0,2.3,0.7,2.3,2.4v5.1H122.5z"/>
	<path class="st3" d="M131.1,432.2V431c-0.5,0.8-1.4,1.3-2.5,1.3c-1.9,0-3.2-1.5-3.2-3.8c0-2.3,1.3-3.8,3.2-3.8c1,0,1.9,0.5,2.5,1.3
		v-3.9h0.8v10H131.1z M131.1,430.4v-3.6c-0.4-0.7-1.4-1.3-2.4-1.3c-1.6,0-2.5,1.3-2.5,3.1s0.9,3.1,2.5,3.1
		C129.7,431.6,130.7,431,131.1,430.4z"/>
	<path class="st3" d="M142.3,432.2v-2.7h-4.7v-0.8l4.4-6.5h1.2v6.5h1.5v0.8h-1.5v2.7H142.3z M142.3,423l-3.9,5.6h3.9V423z"/>
	<path class="st3" d="M146,427.2c0-2.4,1-5.2,3.7-5.2c2.7,0,3.7,2.8,3.7,5.2c0,2.4-1,5.2-3.7,5.2C147,432.4,146,429.5,146,427.2z
		 M152.5,427.2c0-2.1-0.7-4.4-2.8-4.4c-2.1,0-2.8,2.3-2.8,4.4c0,2.1,0.7,4.4,2.8,4.4C151.8,431.6,152.5,429.2,152.5,427.2z"/>
	<path class="st3" d="M158.3,427.4v3.3h-0.7v-3.3h-3v-0.6h3v-3.2h0.7v3.2h2.9v0.6H158.3z"/>
	<path class="st3" d="M166.4,428.5c0-2.1,1.4-3.8,3.5-3.8c2.1,0,3.5,1.7,3.5,3.8s-1.3,3.8-3.5,3.8
		C167.7,432.4,166.4,430.7,166.4,428.5z M172.5,428.5c0-1.6-0.9-3.1-2.7-3.1c-1.7,0-2.6,1.5-2.6,3.1c0,1.6,1,3.1,2.6,3.1
		C171.5,431.6,172.5,430.2,172.5,428.5z"/>
	<path class="st3" d="M180.2,432.2v-4.9c0-1.4-0.7-1.8-1.8-1.8c-0.9,0-1.9,0.6-2.4,1.2v5.5h-0.8v-7.2h0.8v1.1
		c0.5-0.6,1.6-1.3,2.6-1.3c1.5,0,2.3,0.7,2.3,2.4v5.1H180.2z"/>
	<path class="st3" d="M195.9,432.2v-5.1c0-1-0.4-1.7-1.5-1.7c-0.8,0-1.7,0.6-2.1,1.2v5.5h-0.8v-5.1c0-1-0.4-1.7-1.4-1.7
		c-0.8,0-1.7,0.6-2.1,1.2v5.5h-0.8v-7.2h0.8v1.1c0.3-0.5,1.3-1.3,2.3-1.3c1.1,0,1.7,0.7,1.9,1.4c0.4-0.7,1.4-1.4,2.4-1.4
		c1.3,0,2,0.8,2,2.2v5.2H195.9z"/>
	<path class="st3" d="M198.7,428.5c0-2.1,1.4-3.8,3.5-3.8c2.1,0,3.5,1.7,3.5,3.8s-1.3,3.8-3.5,3.8
		C200.1,432.4,198.7,430.7,198.7,428.5z M204.9,428.5c0-1.6-0.9-3.1-2.7-3.1c-1.7,0-2.6,1.5-2.6,3.1c0,1.6,1,3.1,2.6,3.1
		C203.9,431.6,204.9,430.2,204.9,428.5z"/>
	<path class="st3" d="M207.7,432.2v-10h0.8v3.9c0.6-0.8,1.5-1.3,2.5-1.3c1.9,0,3.2,1.5,3.2,3.8c0,2.3-1.3,3.8-3.2,3.8
		c-1.1,0-2-0.6-2.5-1.3v1.2H207.7z M210.9,431.6c1.6,0,2.5-1.3,2.5-3.1s-0.9-3.1-2.5-3.1c-1,0-2,0.6-2.4,1.3v3.6
		C208.9,431,209.9,431.6,210.9,431.6z"/>
	<path class="st3" d="M216.1,423.2c0-0.3,0.3-0.6,0.6-0.6c0.3,0,0.6,0.3,0.6,0.6s-0.3,0.6-0.6,0.6
		C216.4,423.8,216.1,423.5,216.1,423.2z M216.3,432.2v-7.2h0.8v7.2H216.3z"/>
	<path class="st3" d="M219.5,432.2v-10h0.8v10H219.5z"/>
	<path class="st3" d="M222.3,428.5c0-2.1,1.5-3.8,3.5-3.8c2.2,0,3.4,1.7,3.4,3.8v0.2h-6.1c0.1,1.6,1.1,2.9,2.8,2.9
		c0.9,0,1.8-0.3,2.4-1l0.4,0.5c-0.7,0.8-1.6,1.2-2.8,1.2C223.8,432.4,222.3,430.8,222.3,428.5z M225.8,425.4c-1.7,0-2.6,1.5-2.6,2.8
		h5.3C228.4,427,227.6,425.4,225.8,425.4z"/>
	<path class="st3" d="M234.7,428.5c0-2.1,1.4-3.8,3.5-3.8c1.3,0,2,0.5,2.6,1.2l-0.5,0.5c-0.5-0.7-1.2-1-2-1c-1.7,0-2.7,1.3-2.7,3.1
		s1,3.1,2.7,3.1c0.8,0,1.5-0.3,2-1l0.5,0.5c-0.6,0.8-1.3,1.2-2.6,1.2C236.1,432.4,234.7,430.7,234.7,428.5z"/>
	<path class="st3" d="M247.4,432.2v-4.9c0-1.4-0.7-1.8-1.8-1.8c-0.9,0-1.9,0.6-2.4,1.2v5.5h-0.8v-10h0.8v3.9
		c0.5-0.6,1.6-1.3,2.6-1.3c1.5,0,2.3,0.7,2.3,2.3v5.1H247.4z"/>
	<path class="st3" d="M255.2,432.2v-0.9c-0.6,0.7-1.5,1-2.5,1c-1.2,0-2.5-0.9-2.5-2.4c0-1.6,1.3-2.4,2.5-2.4c1,0,1.8,0.3,2.5,1v-1.5
		c0-1.1-0.9-1.7-1.9-1.7c-0.9,0-1.6,0.3-2.3,1.1l-0.4-0.5c0.8-0.8,1.6-1.2,2.8-1.2c1.5,0,2.6,0.7,2.6,2.3v5.1H255.2z M255.2,430.7
		v-1.6c-0.5-0.7-1.3-1-2.2-1c-1.2,0-2,0.8-2,1.8c0,1,0.8,1.8,2,1.8C253.9,431.7,254.7,431.4,255.2,430.7z"/>
	<path class="st3" d="M263.3,432.2v-4.9c0-1.4-0.7-1.8-1.8-1.8c-0.9,0-1.9,0.6-2.4,1.2v5.5h-0.8v-7.2h0.8v1.1
		c0.5-0.6,1.6-1.3,2.6-1.3c1.5,0,2.3,0.7,2.3,2.4v5.1H263.3z"/>
	<path class="st3" d="M271.4,432.2v-4.9c0-1.4-0.7-1.8-1.8-1.8c-0.9,0-1.9,0.6-2.4,1.2v5.5h-0.8v-7.2h0.8v1.1
		c0.5-0.6,1.6-1.3,2.6-1.3c1.5,0,2.3,0.7,2.3,2.4v5.1H271.4z"/>
	<path class="st3" d="M274.2,428.5c0-2.1,1.5-3.8,3.5-3.8c2.2,0,3.4,1.7,3.4,3.8v0.2h-6.1c0.1,1.6,1.1,2.9,2.8,2.9
		c0.9,0,1.8-0.3,2.4-1l0.4,0.5c-0.7,0.8-1.6,1.2-2.8,1.2C275.7,432.4,274.2,430.8,274.2,428.5z M277.7,425.4c-1.7,0-2.6,1.5-2.6,2.8
		h5.3C280.3,427,279.5,425.4,277.7,425.4z"/>
	<path class="st3" d="M283.1,432.2v-10h0.8v10H283.1z"/>
	<path class="st3" d="M285.7,431.2l0.5-0.6c0.5,0.6,1.3,1.1,2.3,1.1c1.2,0,1.9-0.6,1.9-1.5c0-2-4.6-0.9-4.6-3.5c0-1.1,0.9-2,2.6-2
		c1.2,0,2.1,0.5,2.6,1.1l-0.4,0.6c-0.4-0.6-1.2-1-2.2-1c-1.1,0-1.8,0.6-1.8,1.3c0,1.8,4.6,0.7,4.6,3.5c0,1.2-0.9,2.1-2.7,2.1
		C287.3,432.4,286.4,432,285.7,431.2z"/>
</g>
<g>
	<path class="st2" d="M237.9,89.2v-2.9c0-1.7,1.3-3,3-3h27.3c1.7,0,3,1.3,3,3v2.9l3.9-3.9c0.2-0.2,0.2-0.4,0.2-0.6
		c0-0.2-0.1-0.4-0.3-0.6l-18.6-14.5c-1.1-0.8-2.6-0.8-3.7,0l-18.6,14.5c-0.2,0.1-0.3,0.4-0.3,0.6c0,0.2,0.1,0.5,0.2,0.6L237.9,89.2z
		 M237.9,89.2"/>
	<path class="st2" d="M278.8,87.7c-0.3-0.1-0.6-0.1-0.9,0.2l-20.4,20.4c-0.8,0.8-1.8,1.2-2.9,1.2c-1.1,0-2.2-0.4-2.9-1.2l-20.4-20.4
		c-0.2-0.2-0.6-0.3-0.9-0.2c-0.3,0.1-0.5,0.4-0.5,0.7v25.9c0,1.8,1.5,3.3,3.3,3.3H276c1.8,0,3.3-1.5,3.3-3.3V88.4
		C279.3,88.1,279.1,87.8,278.8,87.7L278.8,87.7z M278.8,87.7"/>
	<path class="st2" d="M263.7,87.8h-18.2c-0.9,0-1.6,0.7-1.6,1.6c0,0.9,0.7,1.6,1.6,1.6h18.2c0.9,0,1.6-0.7,1.6-1.6
		C265.3,88.6,264.6,87.8,263.7,87.8L263.7,87.8z M263.7,87.8"/>
	<path class="st2" d="M263.7,94.4h-18.2c-0.9,0-1.6,0.7-1.6,1.6c0,0.9,0.7,1.6,1.6,1.6h18.2c0.9,0,1.6-0.7,1.6-1.6
		C265.3,95.2,264.6,94.4,263.7,94.4L263.7,94.4z M263.7,94.4"/>
</g>
<path class="st0" d="M192.3,250.2c0,6.4-5.2,11.7-11.7,11.7h-75.4c-6.4,0-11.7-5.2-11.7-11.7v-74.5c0-6.4,5.2-11.7,11.7-11.7h75.4
	c6.4,0,11.7,5.2,11.7,11.7V250.2z"/>
<g>
	<path class="st3" d="M128.6,236.6v-10h3.8c1.9,0,3,1.3,3,2.9c0,1.6-1.1,2.9-3,2.9h-2.9v4.2H128.6z M134.5,229.5
		c0-1.3-0.9-2.1-2.2-2.1h-2.8v4.3h2.8C133.6,231.7,134.5,230.8,134.5,229.5z"/>
	<path class="st3" d="M141.8,236.6v-1.1c-0.6,0.7-1.6,1.2-2.6,1.2c-1.5,0-2.3-0.7-2.3-2.3v-5.1h0.8v4.9c0,1.4,0.7,1.8,1.8,1.8
		c0.9,0,1.9-0.6,2.4-1.2v-5.5h0.8v7.2H141.8z"/>
	<path class="st3" d="M144.1,235.6l0.5-0.6c0.5,0.6,1.3,1.1,2.3,1.1c1.2,0,1.9-0.6,1.9-1.5c0-2-4.6-0.9-4.6-3.5c0-1.1,0.9-2,2.6-2
		c1.2,0,2.1,0.5,2.6,1.1l-0.4,0.6c-0.4-0.6-1.2-1-2.2-1c-1.1,0-1.8,0.6-1.8,1.3c0,1.8,4.6,0.7,4.6,3.5c0,1.2-0.9,2.1-2.7,2.1
		C145.8,236.8,144.9,236.4,144.1,235.6z"/>
	<path class="st3" d="M156.3,236.6v-4.9c0-1.4-0.7-1.8-1.8-1.8c-0.9,0-1.9,0.6-2.4,1.2v5.5h-0.8v-10h0.8v3.9
		c0.5-0.6,1.6-1.3,2.6-1.3c1.5,0,2.3,0.7,2.3,2.3v5.1H156.3z"/>
	<path class="st3" d="M116,251.6l-6.3-8.6v8.6h-0.9v-10h0.9l6.3,8.5v-8.5h0.9v10H116z"/>
	<path class="st3" d="M118.6,248c0-2.1,1.4-3.8,3.5-3.8c2.1,0,3.5,1.7,3.5,3.8s-1.3,3.8-3.5,3.8C120,251.8,118.6,250.1,118.6,248z
		 M124.8,248c0-1.6-0.9-3.1-2.7-3.1c-1.7,0-2.6,1.5-2.6,3.1c0,1.6,1,3.1,2.6,3.1C123.8,251.1,124.8,249.6,124.8,248z"/>
	<path class="st3" d="M127.5,250.3v-5.2h-1.2v-0.7h1.2v-2h0.8v2h1.5v0.7h-1.5v5c0,0.6,0.2,1,0.8,1c0.3,0,0.6-0.2,0.8-0.3l0.3,0.6
		c-0.3,0.3-0.6,0.5-1.2,0.5C128,251.8,127.5,251.2,127.5,250.3z"/>
	<path class="st3" d="M131.1,242.7c0-0.3,0.3-0.6,0.6-0.6c0.3,0,0.6,0.3,0.6,0.6c0,0.3-0.3,0.6-0.6,0.6
		C131.4,243.3,131.1,243,131.1,242.7z M131.3,251.6v-7.2h0.8v7.2H131.3z"/>
	<path class="st3" d="M134.5,251.6v-6.6h-1.2v-0.7h1.2v-0.7c0-1.4,0.8-2.3,2-2.3c0.4,0,0.7,0.1,1,0.2l-0.2,0.6
		c-0.2-0.1-0.4-0.2-0.7-0.2c-0.8,0-1.2,0.6-1.2,1.5v0.7h1.5v0.7h-1.5v6.6H134.5z M138,242.7c0-0.3,0.3-0.6,0.6-0.6
		c0.3,0,0.6,0.3,0.6,0.6c0,0.3-0.3,0.6-0.6,0.6C138.3,243.3,138,243,138,242.7z M138.2,251.6v-7.2h0.8v7.2H138.2z"/>
	<path class="st3" d="M140.8,248c0-2.1,1.4-3.8,3.5-3.8c1.3,0,2,0.5,2.6,1.2l-0.5,0.5c-0.5-0.7-1.2-1-2-1c-1.7,0-2.7,1.4-2.7,3.1
		s1,3.1,2.7,3.1c0.8,0,1.5-0.3,2-1l0.5,0.5c-0.6,0.8-1.3,1.2-2.6,1.2C142.2,251.8,140.8,250.1,140.8,248z"/>
	<path class="st3" d="M153,251.6v-0.9c-0.6,0.7-1.5,1-2.5,1c-1.2,0-2.5-0.9-2.5-2.4c0-1.6,1.3-2.4,2.5-2.4c1,0,1.8,0.3,2.5,1v-1.5
		c0-1.1-0.9-1.7-1.9-1.7c-0.9,0-1.6,0.3-2.3,1.1l-0.4-0.5c0.8-0.8,1.6-1.2,2.8-1.2c1.5,0,2.6,0.7,2.6,2.3v5.1H153z M153,250.2v-1.6
		c-0.5-0.7-1.3-1-2.2-1c-1.2,0-2,0.8-2,1.8c0,1,0.8,1.8,2,1.8C151.7,251.2,152.5,250.9,153,250.2z"/>
	<path class="st3" d="M156.1,250.3v-5.2h-1.2v-0.7h1.2v-2h0.8v2h1.5v0.7h-1.5v5c0,0.6,0.2,1,0.8,1c0.3,0,0.6-0.2,0.8-0.3l0.3,0.6
		c-0.3,0.3-0.6,0.5-1.2,0.5C156.6,251.8,156.1,251.2,156.1,250.3z"/>
	<path class="st3" d="M159.7,242.7c0-0.3,0.3-0.6,0.6-0.6c0.3,0,0.6,0.3,0.6,0.6c0,0.3-0.3,0.6-0.6,0.6
		C160,243.3,159.7,243,159.7,242.7z M159.9,251.6v-7.2h0.8v7.2H159.9z"/>
	<path class="st3" d="M162.5,248c0-2.1,1.3-3.8,3.5-3.8c2.1,0,3.5,1.7,3.5,3.8s-1.3,3.8-3.5,3.8C163.8,251.8,162.5,250.1,162.5,248z
		 M168.6,248c0-1.6-0.9-3.1-2.7-3.1c-1.7,0-2.6,1.5-2.6,3.1c0,1.6,1,3.1,2.6,3.1C167.6,251.1,168.6,249.6,168.6,248z"/>
	<path class="st3" d="M176.1,251.6v-4.9c0-1.4-0.7-1.8-1.8-1.8c-0.9,0-1.9,0.6-2.4,1.2v5.5h-0.8v-7.2h0.8v1.1
		c0.5-0.6,1.6-1.3,2.6-1.3c1.5,0,2.3,0.7,2.3,2.4v5.1H176.1z"/>
</g>
<g>
	<path class="st2" d="M134.3,180.4l-3.1-3.1c-5.2,3.9-8.7,10.1-9.2,17.1h4.4C126.8,188.4,129.7,183.4,134.3,180.4L134.3,180.4z
		 M163.6,194.3h4.4c-0.4-7-3.7-13.1-9-17.1l-3.1,3.1C160.3,183.4,163.2,188.4,163.6,194.3L163.6,194.3z M159.2,195.4
		c0-6.8-4.6-12.3-10.9-13.8v-1.5c0-1.8-1.5-3.3-3.3-3.3c-1.7,0-3.3,1.5-3.3,3.3v1.5c-6.3,1.5-10.9,7-10.9,13.8v12l-4.4,4.4v2.2h37.2
		v-2.2l-4.4-4.4V195.4z M145,220.6h0.9c1.5-0.2,2.6-1.3,3.1-2.6c0.2-0.4,0.4-1.1,0.4-1.8h-8.7C140.6,218.6,142.6,220.6,145,220.6
		L145,220.6z M145,220.6"/>
</g>
<g>
	<path class="st2" d="M170,355.1h1.6v19.8H170v-1.7c-0.9,1.2-2.6,2-4.1,2c-3.4,0-5.6-2.4-5.6-7.3s2.2-7.3,5.6-7.3
		c1.6,0,3.1,0.7,4.1,1.8V355.1z M170,364.5c-0.7-1.3-2.2-2.2-4-2.2c-2.4,0-4.1,1.8-4.1,5.8c0,4.1,1.6,5.8,4.1,5.8
		c1.6,0,3.3-1.2,4-2.5V364.5z"/>
	<path class="st2" d="M179.4,360.7c3.9,0,6.1,2.9,6.1,7.3c0,4.3-2.2,7.3-6.1,7.3s-6.1-3-6.1-7.3
		C173.3,363.6,175.4,360.7,179.4,360.7z M183.8,368c0-3.4-1.7-5.8-4.5-5.8c-2.8,0-4.4,2.4-4.4,5.7c0,3.4,1.7,5.8,4.5,5.8
		C182.2,373.8,183.8,371.4,183.8,368z"/>
	<path class="st2" d="M191.8,375.3c-3,0-4.7-1.4-4.7-4.3v-9.9h1.6v9.7c0,2.2,1.1,3,3.3,3c1.7,0,3.4-1.3,4.1-2.7v-10h1.6v13.9h-1.6
		v-1.9C195.2,374.3,193.4,375.3,191.8,375.3z"/>
	<path class="st2" d="M201.8,374.9h-1.6v-19.8h1.6v7.4c1-1.1,2.6-1.8,4.1-1.8c3.4,0,5.6,2.4,5.6,7.3s-2.2,7.3-5.6,7.3
		c-1.5,0-3.2-0.8-4.1-2V374.9z M201.8,371.3c0.7,1.3,2.4,2.5,4,2.5c2.5,0,4.1-1.7,4.1-5.8c0-4-1.7-5.8-4.1-5.8c-1.7,0-3.3,0.9-4,2.2
		V371.3z"/>
	<path class="st2" d="M213.7,355.1h1.6v19.8h-1.6V355.1z"/>
	<path class="st2" d="M223.3,373.8c2,0,3.4-1,3.8-3.6l1.6,0.3c-0.5,3.4-2.6,4.9-5.4,4.9c-3.6,0-5.8-2.4-5.8-7.4
		c0-4.4,1.9-7.2,5.6-7.2c3.9,0,5.6,3.1,5.6,7.1v0.5h-9.5C219.2,372.1,220.9,373.8,223.3,373.8z M227,366.8L227,366.8
		c-0.1-2.6-1.4-4.6-3.9-4.6c-2.4,0-3.8,1.8-4,4.6H227z"/>
	<path class="st2" d="M231.8,368c0,3.3,1.2,5.8,4.3,5.8c2,0,3.6-1.1,4.1-3.7l1.6,0.3c-0.5,3.4-2.9,4.9-5.6,4.9
		c-3.9,0-5.9-2.8-5.9-7.3c0-4.6,2-7.3,5.8-7.3c2.8,0,5,1.5,5.6,4.8l-1.6,0.3c-0.5-2.6-2-3.6-4.1-3.6
		C232.9,362.2,231.8,364.7,231.8,368z"/>
	<path class="st2" d="M243.9,355.1h1.6v19.8h-1.6V355.1z"/>
	<path class="st2" d="M248.6,356h1.6v2.8h-1.6V356z M248.6,361.1h1.6v13.9h-1.6V361.1z"/>
	<path class="st2" d="M254,368c0,3.3,1.2,5.8,4.3,5.8c2,0,3.6-1.1,4.1-3.7l1.6,0.3c-0.5,3.4-2.9,4.9-5.6,4.9c-3.9,0-5.9-2.8-5.9-7.3
		c0-4.6,2-7.3,5.8-7.3c2.8,0,5,1.5,5.6,4.8l-1.6,0.3c-0.5-2.6-2-3.6-4.1-3.6C255.1,362.2,254,364.7,254,368z"/>
	<path class="st2" d="M276.9,374.9h-1.8l-4.3-7.5l-3.1,3.4v4.1h-1.6v-19.8h1.6v13.7l7-7.7h2l-4.7,5.1L276.9,374.9z"/>
	<g>
		<g>
			<path class="st2" d="M161.8,390.8h-1.1v-8.1h1.1v2.9c0.4-0.5,1.1-0.8,1.8-0.8c1.5,0,2.6,1,2.6,3c0,2-1.1,3.1-2.6,3.1
				c-0.7,0-1.4-0.3-1.8-0.8V390.8z M161.8,389c0.3,0.6,0.9,1.1,1.6,1.1c1,0,1.7-0.7,1.7-2.2c0-1.4-0.7-2.2-1.7-2.2
				c-0.7,0-1.4,0.4-1.6,1V389z"/>
			<path class="st2" d="M170.8,385h1.1l-1.9,5.7c-0.5,1.5-1.1,2.3-2.6,2.3c-0.2,0-0.5,0-0.7-0.1V392c0.1,0.1,0.3,0.1,0.5,0.1
				c0.8,0,1.2-0.3,1.4-0.9l0.1-0.3l-2.4-5.9h1.2l1.7,4.6L170.8,385z"/>
		</g>
		<g>
			<path class="st2" d="M211.4,389.9l-0.6,0.6c-0.1,0.1-0.3,0.2-0.4,0.2c-0.4,0.2-0.9,0.2-1.2,0.2c-0.4,0-1,0-1.7-0.5
				c-0.9-0.6-1.3-1.7-1.3-2.7c0-2,1.6-3,2.9-3c0.5,0,0.9,0.1,1.3,0.4c0.6,0.4,0.8,1,0.9,1.3l-3,1.2l-1,0.1c0.3,1.6,1.4,2.6,2.6,2.6
				C210.5,390.3,211,390.1,211.4,389.9C211.4,389.9,211.5,389.9,211.4,389.9z M209.6,386.7c0.3-0.1,0.4-0.2,0.4-0.3
				c0-0.5-0.6-1.1-1.3-1.1c-0.5,0-1.5,0.4-1.5,1.8c0,0.2,0,0.4,0,0.7L209.6,386.7z"/>
			<path class="st2" d="M205.1,389.8c0,0.5,0.1,0.6,0.5,0.6c0.2,0,0.4,0,0.7,0.1l-0.5,0.3h-2.3c0.3-0.4,0.4-0.4,0.4-0.7v-0.3l0-7.6
				h-1l1-0.5h1.8c-0.4,0.2-0.5,0.4-0.6,0.8V389.8z"/>
			<path class="st2" d="M201.6,385.4c0.3,0.3,0.9,0.8,0.9,1.7c0,0.9-0.5,1.4-1.1,1.8c-0.2,0.2-0.4,0.3-0.4,0.6
				c0,0.3,0.2,0.4,0.3,0.6l0.5,0.4c0.6,0.5,1.1,0.9,1.1,1.8c0,1.2-1.2,2.4-3.4,2.4c-1.9,0-2.8-0.9-2.8-1.8c0-0.5,0.2-1.1,1-1.6
				c0.8-0.5,1.9-0.6,2.4-0.6c-0.2-0.2-0.4-0.5-0.4-0.9c0-0.2,0.1-0.3,0.1-0.5c-0.1,0-0.3,0-0.4,0c-1.4,0-2.1-1-2.1-2
				c0-0.6,0.3-1.2,0.8-1.7c0.7-0.6,1.6-0.7,2.3-0.7h2.6l-0.8,0.5H201.6z M200.7,391.1c-0.1,0-0.2,0-0.3,0c-0.1,0-0.8,0-1.3,0.2
				c-0.3,0.1-1.1,0.4-1.1,1.3c0,0.9,0.9,1.6,2.3,1.6c1.2,0,1.9-0.6,1.9-1.4C202.1,392.2,201.6,391.8,200.7,391.1z M201,388.7
				c0.3-0.3,0.3-0.7,0.3-0.9c0-0.9-0.6-2.4-1.6-2.4c-0.3,0-0.7,0.2-0.9,0.4c-0.2,0.3-0.3,0.6-0.3,1c0,0.9,0.5,2.3,1.6,2.3
				C200.5,389.1,200.8,388.9,201,388.7z"/>
			<path class="st2" d="M193.6,391c-2,0-3.1-1.6-3.1-3c0-1.7,1.4-3.1,3.3-3.1c1.9,0,3.1,1.5,3.1,3C196.9,389.4,195.7,391,193.6,391z
				 M195.2,389.9c0.3-0.4,0.4-0.9,0.4-1.4c0-1.1-0.5-3.3-2.1-3.3c-0.4,0-0.8,0.2-1.2,0.4c-0.5,0.4-0.6,1-0.6,1.6
				c0,1.3,0.6,3.4,2.2,3.4C194.4,390.6,194.9,390.3,195.2,389.9z"/>
			<path class="st2" d="M186.8,391c-2,0-3.1-1.6-3.1-3c0-1.7,1.4-3.1,3.3-3.1c1.9,0,3.1,1.5,3.1,3C190.1,389.4,188.9,391,186.8,391z
				 M188.4,389.9c0.3-0.4,0.4-0.9,0.4-1.4c0-1.1-0.5-3.3-2.1-3.3c-0.4,0-0.8,0.2-1.2,0.4c-0.5,0.4-0.6,1-0.6,1.6
				c0,1.3,0.6,3.4,2.2,3.4C187.6,390.6,188.1,390.3,188.4,389.9z"/>
			<path class="st2" d="M182.8,390.5l-1.7,0.4c-0.7,0.1-1.3,0.2-2,0.2c-3.3,0-4.6-2.4-4.6-4.4c0-2.3,1.8-4.5,4.9-4.5
				c0.6,0,1.3,0.1,1.8,0.2c0.9,0.3,1.3,0.6,1.6,0.7l-1,1l-0.4,0.1l0.3-0.5c-0.4-0.4-1.2-1.1-2.6-1.1c-1.9,0-3.3,1.4-3.3,3.6
				c0,2.3,1.6,4.4,4.3,4.4c0.8,0,1.2-0.2,1.5-0.3v-1.9l-1.8,0.1l1-0.5h2.6l-0.3,0.3c-0.1,0.1-0.1,0.1-0.1,0.2c0,0.1,0,0.5,0,0.6
				V390.5z"/>
			<g>
				<path class="st2" d="M212,385v0.8h-0.1L212,385h-0.4v-0.1h0.6v0.1H212z"/>
				<path class="st2" d="M213.1,385.8V385h0l-0.2,0.8h-0.1l-0.2-0.8l0,0v0.8h-0.1v-0.9h0.1l0.2,0.7h0l0.2-0.7h0.2L213.1,385.8
					L213.1,385.8z"/>
			</g>
		</g>
	</g>
	<path class="st2" d="M137,370.1c5.5,0,10.3,3,12.9,7.4c1.3-2.2,2-4.7,2-7.4c0-8.2-6.7-14.9-14.9-14.9c-8.2,0-14.9,6.7-14.9,14.9
		c0,2.7,0.7,5.3,2,7.4C126.7,373,131.5,370.1,137,370.1z"/>
	<path class="st2" d="M137,384.9c-5.5,0-10.3-3-12.9-7.5c-1.3,2.2-2,4.7-2,7.5c0,8.2,6.7,14.9,14.9,14.9c8.2,0,14.9-6.7,14.9-14.9
		c0-2.7-0.7-5.3-2-7.5C147.3,382,142.5,384.9,137,384.9z"/>
</g>
<path class="st0" d="M362.6,541c0,6.4-5.2,11.7-11.7,11.7H51c-6.4,0-11.7-5.2-11.7-11.7v-74.5c0-6.4,5.2-11.7,11.7-11.7h300
	c6.4,0,11.7,5.2,11.7,11.7V541z"/>
<g>
	<path class="st3" d="M47.5,530.5l0.6-0.6c0.6,0.7,1.7,1.5,3.1,1.5c2,0,2.6-1.1,2.6-2c0-2.9-6-1.4-6-4.9c0-1.6,1.5-2.7,3.3-2.7
		c1.5,0,2.6,0.5,3.4,1.4l-0.6,0.6c-0.7-0.9-1.7-1.3-2.9-1.3c-1.3,0-2.3,0.8-2.3,1.8c0,2.6,6,1.2,6,4.9c0,1.3-0.9,2.8-3.6,2.8
		C49.5,532,48.3,531.4,47.5,530.5z"/>
	<path class="st3" d="M56.4,528.2c0-2.1,1.3-3.8,3.5-3.8c2.1,0,3.5,1.7,3.5,3.8S62,532,59.8,532C57.7,532,56.4,530.4,56.4,528.2z
		 M62.5,528.2c0-1.6-0.9-3.1-2.7-3.1c-1.7,0-2.6,1.5-2.6,3.1c0,1.6,1,3.1,2.6,3.1C61.5,531.3,62.5,529.9,62.5,528.2z"/>
	<path class="st3" d="M64.9,528.2c0-2.1,1.4-3.8,3.5-3.8c1.3,0,2,0.5,2.6,1.2l-0.5,0.5c-0.5-0.7-1.2-1-2-1c-1.7,0-2.7,1.3-2.7,3.1
		s1,3.1,2.7,3.1c0.8,0,1.5-0.3,2-1l0.5,0.5c-0.6,0.8-1.3,1.2-2.6,1.2C66.3,532,64.9,530.4,64.9,528.2z"/>
	<path class="st3" d="M72.5,522.9c0-0.3,0.3-0.6,0.6-0.6c0.3,0,0.6,0.3,0.6,0.6s-0.3,0.6-0.6,0.6C72.8,523.5,72.5,523.2,72.5,522.9z
		 M72.8,531.9v-7.2h0.8v7.2H72.8z"/>
	<path class="st3" d="M80.6,531.9V531c-0.6,0.7-1.5,1-2.5,1c-1.2,0-2.5-0.9-2.5-2.4c0-1.6,1.3-2.4,2.5-2.4c1,0,1.8,0.3,2.5,1v-1.5
		c0-1.1-0.9-1.7-1.9-1.7c-0.9,0-1.6,0.3-2.3,1.1l-0.4-0.5c0.8-0.8,1.6-1.2,2.8-1.2c1.5,0,2.6,0.7,2.6,2.3v5.1H80.6z M80.6,530.4
		v-1.6c-0.5-0.7-1.3-1-2.2-1c-1.2,0-2,0.8-2,1.8c0,1,0.8,1.8,2,1.8C79.2,531.4,80.1,531.1,80.6,530.4z"/>
	<path class="st3" d="M83.8,531.9v-10h0.8v10H83.8z"/>
	<path class="st3" d="M90.5,528.2c0-2.1,1.4-3.8,3.5-3.8c1.3,0,2,0.5,2.6,1.2l-0.5,0.5c-0.5-0.7-1.2-1-2-1c-1.7,0-2.7,1.3-2.7,3.1
		s1,3.1,2.7,3.1c0.8,0,1.5-0.3,2-1l0.5,0.5c-0.6,0.8-1.3,1.2-2.6,1.2C91.8,532,90.5,530.4,90.5,528.2z"/>
	<path class="st3" d="M103.2,531.9v-4.9c0-1.4-0.7-1.8-1.8-1.8c-0.9,0-1.9,0.6-2.4,1.2v5.5h-0.8v-10h0.8v3.9
		c0.5-0.6,1.6-1.3,2.6-1.3c1.5,0,2.3,0.7,2.3,2.3v5.1H103.2z"/>
	<path class="st3" d="M111,531.9V531c-0.6,0.7-1.5,1-2.5,1c-1.2,0-2.5-0.9-2.5-2.4c0-1.6,1.3-2.4,2.5-2.4c1,0,1.8,0.3,2.5,1v-1.5
		c0-1.1-0.9-1.7-1.9-1.7c-0.9,0-1.6,0.3-2.3,1.1l-0.4-0.5c0.8-0.8,1.6-1.2,2.8-1.2c1.5,0,2.6,0.7,2.6,2.3v5.1H111z M111,530.4v-1.6
		c-0.5-0.7-1.3-1-2.2-1c-1.2,0-2,0.8-2,1.8c0,1,0.8,1.8,2,1.8C109.7,531.4,110.5,531.1,111,530.4z"/>
	<path class="st3" d="M119.1,531.9V527c0-1.4-0.7-1.8-1.8-1.8c-0.9,0-1.9,0.6-2.4,1.2v5.5h-0.8v-7.2h0.8v1.1
		c0.5-0.6,1.6-1.3,2.6-1.3c1.5,0,2.3,0.7,2.3,2.4v5.1H119.1z"/>
	<path class="st3" d="M127.2,531.9V527c0-1.4-0.7-1.8-1.8-1.8c-0.9,0-1.9,0.6-2.4,1.2v5.5h-0.8v-7.2h0.8v1.1
		c0.5-0.6,1.6-1.3,2.6-1.3c1.5,0,2.3,0.7,2.3,2.4v5.1H127.2z"/>
	<path class="st3" d="M130,528.2c0-2.1,1.5-3.8,3.5-3.8c2.2,0,3.4,1.7,3.4,3.8v0.2h-6.1c0.1,1.6,1.1,2.9,2.8,2.9
		c0.9,0,1.8-0.3,2.4-1l0.4,0.5c-0.7,0.8-1.6,1.2-2.8,1.2C131.5,532,130,530.5,130,528.2z M133.5,525.1c-1.7,0-2.6,1.5-2.6,2.8h5.3
		C136.1,526.6,135.3,525.1,133.5,525.1z"/>
	<path class="st3" d="M138.9,531.9v-10h0.8v10H138.9z"/>
	<path class="st3" d="M141.5,530.9l0.5-0.6c0.5,0.6,1.3,1.1,2.3,1.1c1.2,0,1.9-0.6,1.9-1.5c0-2-4.6-0.9-4.6-3.5c0-1.1,0.9-2,2.6-2
		c1.2,0,2.1,0.5,2.6,1.1l-0.4,0.6c-0.4-0.6-1.2-1-2.2-1c-1.1,0-1.8,0.6-1.8,1.3c0,1.8,4.6,0.7,4.6,3.5c0,1.2-0.9,2.1-2.7,2.1
		C143.1,532,142.2,531.7,141.5,530.9z"/>
	<path class="st3" d="M152.9,531.9v-10h6.3v0.8h-5.5v3.7h5.4v0.8h-5.4v4.7H152.9z"/>
	<path class="st3" d="M165.6,531.9V531c-0.6,0.7-1.5,1-2.5,1c-1.2,0-2.5-0.9-2.5-2.4c0-1.6,1.3-2.4,2.5-2.4c1,0,1.8,0.3,2.5,1v-1.5
		c0-1.1-0.9-1.7-1.9-1.7c-0.9,0-1.6,0.3-2.3,1.1l-0.4-0.5c0.8-0.8,1.6-1.2,2.8-1.2c1.5,0,2.6,0.7,2.6,2.3v5.1H165.6z M165.6,530.4
		v-1.6c-0.5-0.7-1.3-1-2.2-1c-1.2,0-2,0.8-2,1.8c0,1,0.8,1.8,2,1.8C164.3,531.4,165.1,531.1,165.6,530.4z"/>
	<path class="st3" d="M168.4,528.2c0-2.1,1.4-3.8,3.5-3.8c1.3,0,2,0.5,2.6,1.2l-0.5,0.5c-0.5-0.7-1.2-1-2-1c-1.7,0-2.7,1.3-2.7,3.1
		s1,3.1,2.7,3.1c0.8,0,1.5-0.3,2-1l0.5,0.5c-0.6,0.8-1.3,1.2-2.6,1.2C169.8,532,168.4,530.4,168.4,528.2z"/>
	<path class="st3" d="M175.8,528.2c0-2.1,1.5-3.8,3.5-3.8c2.2,0,3.4,1.7,3.4,3.8v0.2h-6.1c0.1,1.6,1.1,2.9,2.8,2.9
		c0.9,0,1.8-0.3,2.4-1l0.4,0.5c-0.7,0.8-1.6,1.2-2.8,1.2C177.3,532,175.8,530.5,175.8,528.2z M179.3,525.1c-1.7,0-2.6,1.5-2.6,2.8
		h5.3C181.9,526.6,181.1,525.1,179.3,525.1z"/>
	<path class="st3" d="M184.7,531.9v-10h0.8v3.9c0.6-0.8,1.5-1.3,2.5-1.3c1.9,0,3.2,1.5,3.2,3.8c0,2.3-1.3,3.8-3.2,3.8
		c-1.1,0-2-0.6-2.5-1.3v1.2H184.7z M187.9,531.3c1.6,0,2.5-1.3,2.5-3.1s-0.9-3.1-2.5-3.1c-1,0-2,0.6-2.4,1.3v3.6
		C185.9,530.7,186.9,531.3,187.9,531.3z"/>
	<path class="st3" d="M192.9,528.2c0-2.1,1.4-3.8,3.5-3.8c2.1,0,3.5,1.7,3.5,3.8s-1.3,3.8-3.5,3.8
		C194.3,532,192.9,530.4,192.9,528.2z M199,528.2c0-1.6-0.9-3.1-2.7-3.1c-1.7,0-2.6,1.5-2.6,3.1c0,1.6,1,3.1,2.6,3.1
		C198.1,531.3,199,529.9,199,528.2z"/>
	<path class="st3" d="M201.5,528.2c0-2.1,1.3-3.8,3.5-3.8c2.1,0,3.5,1.7,3.5,3.8s-1.3,3.8-3.5,3.8
		C202.8,532,201.5,530.4,201.5,528.2z M207.6,528.2c0-1.6-0.9-3.1-2.7-3.1c-1.7,0-2.6,1.5-2.6,3.1c0,1.6,1,3.1,2.6,3.1
		C206.6,531.3,207.6,529.9,207.6,528.2z"/>
	<path class="st3" d="M215.5,531.9l-2.9-3.5l-1.3,1.3v2.2h-0.8v-10h0.8v6.9l4.3-4.1h1.1l-3.4,3.3l3.4,4H215.5z"/>
	<path class="st3" d="M218.1,533.7l-0.4-0.4c0.5-0.3,0.8-0.9,0.9-1.4c0,0-0.1,0-0.2,0c-0.4,0-0.6-0.3-0.6-0.6c0-0.3,0.3-0.6,0.6-0.6
		c0.4,0,0.8,0.3,0.8,1C219.2,532.5,218.7,533.3,218.1,533.7z"/>
	<path class="st3" d="M227.8,531.9v-9.2h-3.3v-0.8h7.4v0.8h-3.3v9.2H227.8z"/>
	<path class="st3" d="M238.8,531.9l-2-6.2l-2,6.2H234l-2.4-7.2h0.8l1.9,6.2l2-6.2h0.7l2,6.2l1.9-6.2h0.8l-2.4,7.2H238.8z"/>
	<path class="st3" d="M243.2,522.9c0-0.3,0.3-0.6,0.6-0.6c0.3,0,0.6,0.3,0.6,0.6s-0.3,0.6-0.6,0.6
		C243.5,523.5,243.2,523.2,243.2,522.9z M243.4,531.9v-7.2h0.8v7.2H243.4z"/>
	<path class="st3" d="M246.8,530.5v-5.2h-1.2v-0.7h1.2v-2h0.8v2h1.5v0.7h-1.5v5c0,0.6,0.2,1,0.8,1c0.3,0,0.6-0.2,0.8-0.3l0.3,0.6
		c-0.3,0.3-0.6,0.4-1.2,0.4C247.2,532,246.8,531.5,246.8,530.5z"/>
	<path class="st3" d="M250.9,530.5v-5.2h-1.2v-0.7h1.2v-2h0.8v2h1.5v0.7h-1.5v5c0,0.6,0.2,1,0.8,1c0.3,0,0.6-0.2,0.8-0.3l0.3,0.6
		c-0.3,0.3-0.6,0.4-1.2,0.4C251.4,532,250.9,531.5,250.9,530.5z"/>
	<path class="st3" d="M254.5,528.2c0-2.1,1.5-3.8,3.5-3.8c2.2,0,3.4,1.7,3.4,3.8v0.2h-6.1c0.1,1.6,1.1,2.9,2.8,2.9
		c0.9,0,1.8-0.3,2.4-1l0.4,0.5c-0.7,0.8-1.6,1.2-2.8,1.2C256,532,254.5,530.5,254.5,528.2z M257.9,525.1c-1.7,0-2.6,1.5-2.6,2.8h5.3
		C260.6,526.6,259.7,525.1,257.9,525.1z"/>
	<path class="st3" d="M263.4,531.9v-7.2h0.8v1.2c0.6-0.8,1.4-1.4,2.4-1.4v0.9c-0.1,0-0.2,0-0.4,0c-0.7,0-1.7,0.7-2.1,1.3v5.3H263.4z
		"/>
	<path class="st3" d="M276.6,531.9V531c-0.6,0.7-1.5,1-2.5,1c-1.2,0-2.5-0.9-2.5-2.4c0-1.6,1.3-2.4,2.5-2.4c1,0,1.8,0.3,2.5,1v-1.5
		c0-1.1-0.9-1.7-1.9-1.7c-0.9,0-1.6,0.3-2.3,1.1l-0.4-0.5c0.8-0.8,1.6-1.2,2.8-1.2c1.5,0,2.6,0.7,2.6,2.3v5.1H276.6z M276.6,530.4
		v-1.6c-0.5-0.7-1.3-1-2.2-1c-1.2,0-2,0.8-2,1.8c0,1,0.8,1.8,2,1.8C275.3,531.4,276.1,531.1,276.6,530.4z"/>
	<path class="st3" d="M284.7,531.9V527c0-1.4-0.7-1.8-1.8-1.8c-0.9,0-1.9,0.6-2.4,1.2v5.5h-0.8v-7.2h0.8v1.1
		c0.5-0.6,1.6-1.3,2.6-1.3c1.5,0,2.3,0.7,2.3,2.4v5.1H284.7z"/>
	<path class="st3" d="M293.3,531.9v-1.2c-0.5,0.8-1.4,1.3-2.5,1.3c-1.9,0-3.2-1.5-3.2-3.8c0-2.3,1.3-3.8,3.2-3.8
		c1,0,1.9,0.5,2.5,1.3v-3.9h0.8v10H293.3z M293.3,530.1v-3.6c-0.4-0.7-1.4-1.3-2.4-1.3c-1.6,0-2.5,1.3-2.5,3.1s0.9,3.1,2.5,3.1
		C291.9,531.3,292.8,530.7,293.3,530.1z"/>
	<path class="st3" d="M300.2,531.9v-10h0.9v9.2h4.8v0.8H300.2z"/>
	<path class="st3" d="M307.4,522.9c0-0.3,0.3-0.6,0.6-0.6c0.3,0,0.6,0.3,0.6,0.6s-0.3,0.6-0.6,0.6
		C307.7,523.5,307.4,523.2,307.4,522.9z M307.6,531.9v-7.2h0.8v7.2H307.6z"/>
	<path class="st3" d="M315.7,531.9V527c0-1.4-0.7-1.8-1.8-1.8c-0.9,0-1.9,0.6-2.4,1.2v5.5h-0.8v-7.2h0.8v1.1
		c0.5-0.6,1.6-1.3,2.6-1.3c1.5,0,2.3,0.7,2.3,2.4v5.1H315.7z"/>
	<path class="st3" d="M324,531.9l-2.9-3.5l-1.3,1.3v2.2h-0.8v-10h0.8v6.9l4.3-4.1h1.1l-3.4,3.3l3.4,4H324z"/>
	<path class="st3" d="M326.1,528.2c0-2.1,1.5-3.8,3.5-3.8c2.2,0,3.4,1.7,3.4,3.8v0.2h-6.1c0.1,1.6,1.1,2.9,2.8,2.9
		c0.9,0,1.8-0.3,2.4-1l0.4,0.5c-0.7,0.8-1.6,1.2-2.8,1.2C327.6,532,326.1,530.5,326.1,528.2z M329.6,525.1c-1.7,0-2.6,1.5-2.6,2.8
		h5.3C332.2,526.6,331.4,525.1,329.6,525.1z"/>
	<path class="st3" d="M340.3,531.9v-1.2c-0.5,0.8-1.4,1.3-2.5,1.3c-1.9,0-3.2-1.5-3.2-3.8c0-2.3,1.3-3.8,3.2-3.8
		c1,0,1.9,0.5,2.5,1.3v-3.9h0.8v10H340.3z M340.3,530.1v-3.6c-0.4-0.7-1.4-1.3-2.4-1.3c-1.6,0-2.5,1.3-2.5,3.1s0.9,3.1,2.5,3.1
		C339,531.3,339.9,530.7,340.3,530.1z"/>
	<path class="st3" d="M343.6,531.9v-10h0.9v10H343.6z"/>
	<path class="st3" d="M351.8,531.9V527c0-1.4-0.7-1.8-1.8-1.8c-0.9,0-1.9,0.6-2.4,1.2v5.5h-0.8v-7.2h0.8v1.1
		c0.5-0.6,1.6-1.3,2.6-1.3c1.5,0,2.3,0.7,2.3,2.4v5.1H351.8z"/>
</g>
<g>
	<path class="st2" d="M175.1,475.3c0-3.7-3.4-7.1-7.1-7.1h-28.5c-3.7,0-7.1,3.4-7.1,7.1v28.5c0,3.7,3.4,7.1,7.1,7.1h14.2v-16.1h-5.2
		v-7.1h5.2v-2.8c0-4.8,3.6-9.1,8-9.1h5.8v7.1h-5.8c-0.6,0-1.4,0.8-1.4,1.9v2.8h7.1v7.1h-7.1v16.1h7.6c3.7,0,7.1-3.4,7.1-7.1V475.3z
		 M175.1,475.3"/>
</g>
<path class="st0" d="M362.6,651.3c0,6.4-5.2,11.7-11.7,11.7H51c-6.4,0-11.7-5.2-11.7-11.7v-74.5c0-6.4,5.2-11.7,11.7-11.7h300
	c6.4,0,11.7,5.2,11.7,11.7V651.3z"/>
<g>
	<path class="st3" d="M133.4,651.4v-10h0.9v10H133.4z"/>
	<path class="st3" d="M141.6,651.4v-4.9c0-1.4-0.7-1.8-1.8-1.8c-0.9,0-1.9,0.6-2.4,1.2v5.5h-0.8v-7.2h0.8v1.1
		c0.5-0.6,1.6-1.3,2.6-1.3c1.5,0,2.3,0.7,2.3,2.4v5.1H141.6z"/>
	<path class="st3" d="M144.1,648.1v-0.7h3.6v0.7H144.1z"/>
	<path class="st3" d="M154,651.4v-0.9c-0.6,0.7-1.5,1-2.5,1c-1.2,0-2.5-0.9-2.5-2.4c0-1.6,1.3-2.4,2.5-2.4c1,0,1.8,0.3,2.5,1v-1.5
		c0-1.1-0.9-1.7-1.9-1.7c-0.9,0-1.6,0.3-2.3,1.1l-0.4-0.5c0.8-0.8,1.6-1.2,2.8-1.2c1.5,0,2.6,0.7,2.6,2.3v5.1H154z M154,649.9v-1.6
		c-0.5-0.7-1.3-1-2.2-1c-1.2,0-2,0.8-2,1.8c0,1,0.8,1.8,2,1.8C152.6,650.9,153.4,650.6,154,649.9z"/>
	<path class="st3" d="M157.9,650.2v3.9h-0.8v-10h0.8v1.1c0.5-0.7,1.4-1.3,2.5-1.3c1.9,0,3.2,1.5,3.2,3.8c0,2.3-1.3,3.8-3.2,3.8
		C159.4,651.5,158.5,651,157.9,650.2z M162.9,647.7c0-1.8-0.9-3.1-2.5-3.1c-1,0-2,0.6-2.4,1.3v3.6c0.4,0.7,1.4,1.3,2.4,1.3
		C162,650.8,162.9,649.5,162.9,647.7z"/>
	<path class="st3" d="M166.5,650.2v3.9h-0.8v-10h0.8v1.1c0.5-0.7,1.4-1.3,2.5-1.3c1.9,0,3.2,1.5,3.2,3.8c0,2.3-1.3,3.8-3.2,3.8
		C168,651.5,167,651,166.5,650.2z M171.4,647.7c0-1.8-0.9-3.1-2.5-3.1c-1,0-2,0.6-2.4,1.3v3.6c0.4,0.7,1.4,1.3,2.4,1.3
		C170.5,650.8,171.4,649.5,171.4,647.7z"/>
	<path class="st3" d="M182.7,651.4v-0.9c-0.6,0.7-1.5,1-2.5,1c-1.2,0-2.5-0.9-2.5-2.4c0-1.6,1.3-2.4,2.5-2.4c1,0,1.8,0.3,2.5,1v-1.5
		c0-1.1-0.9-1.7-1.9-1.7c-0.9,0-1.6,0.3-2.3,1.1l-0.4-0.5c0.8-0.8,1.6-1.2,2.8-1.2c1.5,0,2.6,0.7,2.6,2.3v5.1H182.7z M182.7,649.9
		v-1.6c-0.5-0.7-1.3-1-2.2-1c-1.2,0-2,0.8-2,1.8c0,1,0.8,1.8,2,1.8C181.3,650.9,182.2,650.6,182.7,649.9z"/>
	<path class="st3" d="M191.2,651.4v-1.2c-0.5,0.8-1.4,1.3-2.5,1.3c-1.9,0-3.2-1.5-3.2-3.8c0-2.3,1.3-3.8,3.2-3.8
		c1,0,1.9,0.5,2.5,1.3v-3.9h0.8v10H191.2z M191.2,649.5V646c-0.4-0.7-1.4-1.3-2.4-1.3c-1.6,0-2.5,1.3-2.5,3.1s0.9,3.1,2.5,3.1
		C189.9,650.8,190.8,650.2,191.2,649.5z"/>
	<path class="st3" d="M193.8,650.4l0.5-0.6c0.5,0.6,1.3,1.1,2.3,1.1c1.2,0,1.9-0.6,1.9-1.5c0-2-4.6-0.9-4.6-3.5c0-1.1,0.9-2,2.6-2
		c1.2,0,2.1,0.5,2.6,1.1l-0.4,0.6c-0.4-0.6-1.2-1-2.2-1c-1.1,0-1.8,0.6-1.8,1.3c0,1.8,4.6,0.7,4.6,3.5c0,1.2-0.9,2.1-2.7,2.1
		C195.4,651.5,194.5,651.2,193.8,650.4z"/>
	<path class="st3" d="M204.8,647.7c0-2.1,1.3-3.8,3.5-3.8c2.1,0,3.5,1.7,3.5,3.8s-1.3,3.8-3.5,3.8
		C206.2,651.5,204.8,649.8,204.8,647.7z M210.9,647.7c0-1.6-0.9-3.1-2.7-3.1c-1.7,0-2.6,1.5-2.6,3.1c0,1.6,1,3.1,2.6,3.1
		C210,650.8,210.9,649.3,210.9,647.7z"/>
	<path class="st3" d="M218.7,651.4v-4.9c0-1.4-0.7-1.8-1.8-1.8c-0.9,0-1.9,0.6-2.4,1.2v5.5h-0.8v-7.2h0.8v1.1
		c0.5-0.6,1.6-1.3,2.6-1.3c1.5,0,2.3,0.7,2.3,2.4v5.1H218.7z"/>
	<path class="st3" d="M234.4,651.4v-5.1c0-1-0.4-1.7-1.5-1.7c-0.8,0-1.7,0.6-2.1,1.2v5.5h-0.8v-5.1c0-1-0.4-1.7-1.4-1.7
		c-0.8,0-1.7,0.6-2.1,1.2v5.5h-0.8v-7.2h0.8v1.1c0.3-0.5,1.3-1.3,2.3-1.3c1.1,0,1.7,0.7,1.9,1.4c0.4-0.7,1.4-1.4,2.4-1.4
		c1.3,0,2,0.8,2,2.2v5.2H234.4z"/>
	<path class="st3" d="M237.2,647.7c0-2.1,1.3-3.8,3.5-3.8c2.1,0,3.5,1.7,3.5,3.8s-1.3,3.8-3.5,3.8
		C238.5,651.5,237.2,649.8,237.2,647.7z M243.3,647.7c0-1.6-0.9-3.1-2.7-3.1c-1.7,0-2.6,1.5-2.6,3.1c0,1.6,1,3.1,2.6,3.1
		C242.4,650.8,243.3,649.3,243.3,647.7z"/>
	<path class="st3" d="M246.2,651.4v-10h0.8v3.9c0.6-0.8,1.5-1.3,2.5-1.3c1.9,0,3.2,1.5,3.2,3.8c0,2.3-1.3,3.8-3.2,3.8
		c-1.1,0-2-0.6-2.5-1.3v1.2H246.2z M249.3,650.8c1.6,0,2.5-1.3,2.5-3.1s-0.9-3.1-2.5-3.1c-1,0-2,0.6-2.4,1.3v3.6
		C247.4,650.2,248.3,650.8,249.3,650.8z"/>
	<path class="st3" d="M254.5,642.4c0-0.3,0.3-0.6,0.6-0.6c0.3,0,0.6,0.3,0.6,0.6s-0.3,0.6-0.6,0.6
		C254.8,643,254.5,642.7,254.5,642.4z M254.7,651.4v-7.2h0.8v7.2H254.7z"/>
	<path class="st3" d="M257.9,651.4v-10h0.8v10H257.9z"/>
	<path class="st3" d="M260.7,647.7c0-2.1,1.5-3.8,3.5-3.8c2.2,0,3.4,1.7,3.4,3.8v0.2h-6.1c0.1,1.6,1.1,2.9,2.8,2.9
		c0.9,0,1.8-0.3,2.4-1l0.4,0.5c-0.7,0.8-1.6,1.2-2.8,1.2C262.2,651.5,260.7,650,260.7,647.7z M264.2,644.6c-1.7,0-2.6,1.5-2.6,2.8
		h5.3C266.8,646.1,266,644.6,264.2,644.6z"/>
</g>
<g>
	<path class="st13" d="M164.9,616.7c0,2,0,3.9,0,5.9c0,0.8-0.3,1.1-1.1,1c-1.2-0.1-2.9,0.4-3.6-0.2c-0.8-0.7-0.2-2.3-0.3-3.6
		c0-3-0.1-5.9,0-8.9c0.2-5.3,2.8-8.2,8.1-8.8c2.6-0.3,5.3-0.3,7.9,0.1c1.6,0.2,3,0.8,4.3,1.8c0.4,0.3,0.6,0.5,1.1,0.1
		c1.4-1.2,3.2-1.8,5-1.9c2.8-0.2,5.6-0.3,8.4,0.2c4.2,0.7,6.7,3.7,6.9,8.3c0.1,4,0,8.1,0.1,12.1c0,0.6-0.2,0.9-0.8,0.8
		c-1,0-2.1-0.1-3.1,0c-0.9,0.1-1-0.3-1-1.1c0-3.6,0-7.2,0-10.9c0-3.7-1.4-5.1-5.1-5.1c-1.3,0-2.6,0-3.9,0c-3,0.1-4.5,1.6-4.5,4.6
		c0,3.7,0,7.4,0,11.1c0,0.9-0.1,1.4-1.2,1.3c-1.2-0.1-2.8,0.5-3.5-0.2c-0.7-0.7-0.2-2.3-0.2-3.5c0-2.9,0-5.8,0-8.7
		c0-3-1.5-4.5-4.4-4.6c-1.6,0-3.1,0-4.7,0c-2.9,0.1-4.4,1.6-4.4,4.4C164.8,613,164.9,614.8,164.9,616.7z"/>
	<path class="st13" d="M156.1,616.6c0,2-0.1,3.9,0,5.9c0,1-0.3,1.2-1.2,1.1c-0.9-0.1-1.8-0.1-2.7,0c-0.8,0.1-1.1-0.2-1-1
		c0-3.7,0-7.3,0-11c0-3.5-1.4-5-5-5c-1.3,0-2.7,0-4,0c-3.1,0.1-4.5,1.5-4.6,4.6c0,3.8,0,7.5,0,11.3c0,0.9-0.2,1.2-1.2,1.2
		c-1.2-0.1-2.8,0.4-3.5-0.2c-0.8-0.6-0.2-2.3-0.2-3.5c0-3-0.1-6.1,0-9.1c0.1-4.9,2.7-7.9,7.6-8.5c2.9-0.4,5.9-0.4,8.8,0.1
		c4.1,0.7,6.8,3.8,6.9,8.2C156.1,612.6,156.1,614.6,156.1,616.6L156.1,616.6z"/>
	<path class="st13" d="M207.8,607.8c0.7-0.1,1.4-0.7,2.3-0.5c-1.2,2.7-0.6,5.5-0.7,8.3c-0.1,2.7,1.4,4,4,4.1c4.8,0,9.6,0,14.4,0
		c0.4,0,0.9-0.3,0.8,0.5c-0.5,0.6-0.9,0.9-1.6,1.3c-3,1.7-6.1,2.4-9.5,2.2c-2.1-0.1-4.3,0.3-6.4-0.3c-3.7-0.9-6-3.8-6.1-7.7
		c0-1.2,0-2.4,0-3.6c-0.1-1.5,0.4-2.7,1.6-3.6C207.2,608.1,207.3,608,207.8,607.8z"/>
	<path class="st13" d="M271.4,613c0,3.1-0.1,6.3,0,9.4c0,1.1-0.3,1.4-1.3,1.3c-1-0.1-2,0-2.9,0c-0.6,0-0.8-0.2-0.8-0.8
		c0-6.6,0-13.2,0-19.9c0-0.7,0.3-0.9,1-0.9c1,0,2.1,0.1,3.1,0c0.9-0.1,1,0.3,1,1.1C271.3,606.5,271.4,609.7,271.4,613z"/>
	<path class="st13" d="M123.8,612.9c0-3.2,0-6.4,0-9.7c0-0.8,0.1-1.2,1.1-1.1c0.9,0.1,1.9,0.1,2.8,0c1-0.1,1.2,0.3,1.2,1.2
		c0,6.4,0,12.8,0,19.2c0,0.9-0.2,1.3-1.2,1.2c-1.2-0.1-2.9,0.4-3.6-0.2c-0.8-0.7-0.2-2.4-0.2-3.6
		C123.8,617.6,123.8,615.2,123.8,612.9z"/>
	<path class="st13" d="M229.4,604.8c0.2,0.7,0.7,1.4,0.7,2.3c-1.6-1.4-3.5-1-5.2-1.1c-3.9,0-7.9,0-11.8,0c-2,0-3.9,0.4-5.7,1.4
		c-0.5,0.3-0.7,0.4-1.1,0.8c-0.4,0.2-0.8,0.5-1.1,1.1c-0.2-2.1,1.2-4.6,3.4-5.9c1.4-0.9,3-1.3,4.7-1.3c3.4,0,6.8,0.1,10.2,0
		C225.9,602,228,602.8,229.4,604.8z"/>
	<path class="st13" d="M228.9,620.4c1.4-1.4,2.1-3,2.1-5c-0.1-2.6,0.2-5.3-0.2-7.9c-0.2-1.1-0.4-2.1-1.1-3c-0.4-1-1.3-1.5-2.1-2.3
		c5,0.6,7.8,3.7,7.8,8.5c0,1.4-0.1,2.9,0,4.3c0.3,5.5-4.3,8.1-7.9,8.5c-1.2,0.1-2.5,0-4,0c1.5-0.7,2.8-1,3.8-1.9
		C228,621.2,228.5,620.8,228.9,620.4z"/>
	<path class="st13" d="M261,612.5c-0.3-0.2-0.5-0.5-0.2-0.9c0.8-1.3,0.7-2.8,0.7-4.3c-0.1-2.7-1.6-4.4-4.3-4.9
		c-0.9-0.2-1.8-0.3-2.7-0.3c-4.9,0-9.8,0-14.6,0c-1,0-1.2,0.3-1.1,1.2c0.1,3.1,0,6.3,0,9.4c0,3.3,0,6.6,0,9.9c0,0.6-0.1,1,0.8,1
		c5.8-0.1,11.6,0,17.3-0.1c1.8,0,3.5-0.7,4.6-2.3C262.9,619.4,263.1,614.1,261,612.5z M246.2,606.6c2.8,0,5.6,0,8.5,0
		c1,0,1.8,0.3,1.9,1.4c0.2,1.3-0.4,2-1.8,2c-1.7,0.1-3.5,0-5.2,0c0,0,0,0,0,0c-1.7,0-3.3,0-5,0c-0.6,0-0.9-0.1-1-0.8
		C243.6,606.6,243.5,606.6,246.2,606.6z M255.2,619.1c-1.7,0-3.5,0-5.2,0c-1.8,0-3.6,0-5.4,0c-0.7,0-1-0.1-1-0.9
		c-0.1-3.5-0.1-3.5,3.4-3.5c2.7,0,5.5,0,8.2,0c1.8,0,2.5,0.6,2.5,2.1C257.7,618.5,257,619.1,255.2,619.1z"/>
</g>
<path class="st0" d="M362.6,765.2c0,6.4-5.2,11.7-11.7,11.7H51c-6.4,0-11.7-5.2-11.7-11.7v-74.5c0-6.4,5.2-11.7,11.7-11.7h300
	c6.4,0,11.7,5.2,11.7,11.7V765.2z"/>
<g>
	<path class="st3" d="M90.9,765.3v-10h3.8c1.9,0,3,1.4,3,2.9c0,1.6-1.1,2.9-3,2.9h-2.9v4.2H90.9z M96.8,758.2c0-1.3-0.9-2.1-2.2-2.1
		h-2.8v4.3h2.8C95.9,760.4,96.8,759.5,96.8,758.2z"/>
	<path class="st3" d="M99.5,765.3V758h0.8v1.2c0.6-0.8,1.4-1.4,2.4-1.4v0.9c-0.1,0-0.2,0-0.4,0c-0.7,0-1.7,0.7-2.1,1.3v5.3H99.5z"/>
	<path class="st3" d="M103.8,761.7c0-2.1,1.5-3.8,3.5-3.8c2.2,0,3.4,1.7,3.4,3.8v0.2h-6.1c0.1,1.6,1.1,2.9,2.8,2.9
		c0.9,0,1.8-0.3,2.4-1l0.4,0.5c-0.7,0.8-1.6,1.2-2.8,1.2C105.3,765.5,103.8,763.9,103.8,761.7z M107.3,758.5c-1.7,0-2.6,1.5-2.6,2.8
		h5.3C109.9,760.1,109.1,758.5,107.3,758.5z"/>
	<path class="st3" d="M112.3,761.7c0-2.1,1.4-3.8,3.5-3.8c1.3,0,2,0.5,2.6,1.2l-0.5,0.5c-0.5-0.7-1.2-1-2-1c-1.7,0-2.7,1.3-2.7,3.1
		s1,3.1,2.7,3.1c0.8,0,1.5-0.3,2-1l0.5,0.5c-0.6,0.8-1.3,1.2-2.6,1.2C113.7,765.5,112.3,763.8,112.3,761.7z"/>
	<path class="st3" d="M119.9,756.3c0-0.3,0.3-0.6,0.6-0.6c0.3,0,0.6,0.3,0.6,0.6s-0.3,0.6-0.6,0.6
		C120.2,756.9,119.9,756.6,119.9,756.3z M120.1,765.3V758h0.8v7.2H120.1z"/>
	<path class="st3" d="M122.7,764.3l0.5-0.6c0.5,0.6,1.3,1.1,2.3,1.1c1.2,0,1.9-0.6,1.9-1.5c0-2-4.6-0.9-4.6-3.5c0-1.1,0.9-2,2.6-2
		c1.2,0,2.1,0.5,2.6,1.1l-0.4,0.6c-0.4-0.6-1.2-1-2.2-1c-1.1,0-1.8,0.6-1.8,1.3c0,1.8,4.6,0.7,4.6,3.5c0,1.2-0.9,2.1-2.7,2.1
		C124.3,765.5,123.4,765.1,122.7,764.3z"/>
	<path class="st3" d="M129.8,761.7c0-2.1,1.5-3.8,3.5-3.8c2.2,0,3.4,1.7,3.4,3.8v0.2h-6.1c0.1,1.6,1.1,2.9,2.8,2.9
		c0.9,0,1.8-0.3,2.4-1l0.4,0.5c-0.7,0.8-1.6,1.2-2.8,1.2C131.3,765.5,129.8,763.9,129.8,761.7z M133.3,758.5c-1.7,0-2.6,1.5-2.6,2.8
		h5.3C135.9,760.1,135.1,758.5,133.3,758.5z"/>
	<path class="st3" d="M149.9,765.3l-1-2.5h-5.3l-1,2.5h-1l4.1-10h1.1l4.1,10H149.9z M146.3,756.2l-2.4,5.8h4.7L146.3,756.2z"/>
	<path class="st3" d="M157.1,765.3v-1.1c-0.6,0.7-1.6,1.2-2.6,1.2c-1.5,0-2.3-0.7-2.3-2.3V758h0.8v4.9c0,1.4,0.7,1.8,1.8,1.8
		c0.9,0,1.9-0.6,2.4-1.2V758h0.8v7.2H157.1z"/>
	<path class="st3" d="M165.6,765.3v-1.2c-0.5,0.8-1.4,1.3-2.5,1.3c-1.9,0-3.2-1.5-3.2-3.8c0-2.3,1.3-3.8,3.2-3.8
		c1,0,1.9,0.5,2.5,1.3v-3.9h0.8v10H165.6z M165.6,763.5v-3.6c-0.4-0.7-1.4-1.3-2.4-1.3c-1.6,0-2.5,1.3-2.5,3.1s0.9,3.1,2.5,3.1
		C164.2,764.8,165.2,764.2,165.6,763.5z"/>
	<path class="st3" d="M168.6,756.3c0-0.3,0.3-0.6,0.6-0.6c0.3,0,0.6,0.3,0.6,0.6s-0.3,0.6-0.6,0.6
		C168.9,756.9,168.6,756.6,168.6,756.3z M168.8,765.3V758h0.8v7.2H168.8z"/>
	<path class="st3" d="M171.6,761.7c0-2.1,1.5-3.8,3.5-3.8c2.2,0,3.4,1.7,3.4,3.8v0.2h-6.1c0.1,1.6,1.1,2.9,2.8,2.9
		c0.9,0,1.8-0.3,2.4-1l0.4,0.5c-0.7,0.8-1.6,1.2-2.8,1.2C173.1,765.5,171.6,763.9,171.6,761.7z M175.1,758.5c-1.7,0-2.6,1.5-2.6,2.8
		h5.3C177.7,760.1,176.9,758.5,175.1,758.5z"/>
	<path class="st3" d="M185.4,765.3v-4.9c0-1.4-0.7-1.8-1.8-1.8c-0.9,0-1.9,0.6-2.4,1.2v5.5h-0.8V758h0.8v1.1
		c0.5-0.6,1.6-1.3,2.6-1.3c1.5,0,2.3,0.7,2.3,2.4v5.1H185.4z"/>
	<path class="st3" d="M188.2,761.7c0-2.1,1.4-3.8,3.5-3.8c1.3,0,2,0.5,2.6,1.2l-0.5,0.5c-0.5-0.7-1.2-1-2-1c-1.7,0-2.7,1.3-2.7,3.1
		s1,3.1,2.7,3.1c0.8,0,1.5-0.3,2-1l0.5,0.5c-0.6,0.8-1.3,1.2-2.6,1.2C189.6,765.5,188.2,763.8,188.2,761.7z"/>
	<path class="st3" d="M195.7,761.7c0-2.1,1.5-3.8,3.5-3.8c2.2,0,3.4,1.7,3.4,3.8v0.2h-6.1c0.1,1.6,1.1,2.9,2.8,2.9
		c0.9,0,1.8-0.3,2.4-1l0.4,0.5c-0.7,0.8-1.6,1.2-2.8,1.2C197.2,765.5,195.7,763.9,195.7,761.7z M199.1,758.5c-1.7,0-2.6,1.5-2.6,2.8
		h5.3C201.7,760.1,200.9,758.5,199.1,758.5z"/>
	<path class="st3" d="M217,765.3v-8.9l-3.6,8.9H213l-3.7-8.9v8.9h-0.9v-10h1.3l3.4,8.3l3.4-8.3h1.3v10H217z"/>
	<path class="st3" d="M224.9,765.3v-0.9c-0.6,0.7-1.5,1-2.5,1c-1.2,0-2.5-0.9-2.5-2.4c0-1.6,1.3-2.4,2.5-2.4c1,0,1.8,0.3,2.5,1v-1.5
		c0-1.1-0.9-1.7-1.9-1.7c-0.9,0-1.6,0.3-2.3,1.1l-0.4-0.5c0.8-0.8,1.6-1.2,2.8-1.2c1.5,0,2.6,0.7,2.6,2.3v5.1H224.9z M224.9,763.9
		v-1.6c-0.5-0.7-1.3-1-2.2-1c-1.2,0-2,0.8-2,1.8c0,1,0.8,1.8,2,1.8C223.6,764.9,224.4,764.5,224.9,763.9z"/>
	<path class="st3" d="M228.3,763.9v-5.2h-1.2V758h1.2v-2h0.8v2h1.5v0.7h-1.5v5c0,0.6,0.2,1,0.8,1c0.3,0,0.6-0.2,0.8-0.3l0.3,0.6
		c-0.3,0.3-0.6,0.4-1.2,0.4C228.7,765.5,228.3,764.9,228.3,763.9z"/>
	<path class="st3" d="M231.8,761.7c0-2.1,1.4-3.8,3.5-3.8c1.3,0,2,0.5,2.6,1.2l-0.5,0.5c-0.5-0.7-1.2-1-2-1c-1.7,0-2.7,1.3-2.7,3.1
		s1,3.1,2.7,3.1c0.8,0,1.5-0.3,2-1l0.5,0.5c-0.6,0.8-1.3,1.2-2.6,1.2C233.2,765.5,231.8,763.8,231.8,761.7z"/>
	<path class="st3" d="M244.5,765.3v-4.9c0-1.4-0.7-1.8-1.8-1.8c-0.9,0-1.9,0.6-2.4,1.2v5.5h-0.8v-10h0.8v3.9
		c0.5-0.6,1.6-1.3,2.6-1.3c1.5,0,2.3,0.7,2.3,2.3v5.1H244.5z"/>
	<path class="st3" d="M254.2,765.3v-9.2h-3.3v-0.8h7.4v0.8h-3.3v9.2H254.2z"/>
	<path class="st3" d="M263.2,765.3v-0.9c-0.6,0.7-1.5,1-2.5,1c-1.2,0-2.5-0.9-2.5-2.4c0-1.6,1.3-2.4,2.5-2.4c1,0,1.8,0.3,2.5,1v-1.5
		c0-1.1-0.9-1.7-1.9-1.7c-0.9,0-1.6,0.3-2.3,1.1l-0.4-0.5c0.8-0.8,1.6-1.2,2.8-1.2c1.5,0,2.6,0.7,2.6,2.3v5.1H263.2z M263.2,763.9
		v-1.6c-0.5-0.7-1.3-1-2.2-1c-1.2,0-2,0.8-2,1.8c0,1,0.8,1.8,2,1.8C261.8,764.9,262.6,764.5,263.2,763.9z"/>
	<path class="st3" d="M266.4,765.3V758h0.8v1.2c0.6-0.8,1.4-1.4,2.4-1.4v0.9c-0.1,0-0.2,0-0.4,0c-0.7,0-1.7,0.7-2.1,1.3v5.3H266.4z"
		/>
	<path class="st3" d="M271.1,767.1l0.5-0.6c0.6,0.8,1.3,1,2.4,1c1.3,0,2.5-0.7,2.5-2.3v-1.2c-0.5,0.8-1.4,1.4-2.5,1.4
		c-1.9,0-3.2-1.5-3.2-3.8c0-2.3,1.3-3.8,3.2-3.8c1,0,1.9,0.5,2.5,1.3V758h0.8v7.2c0,2.2-1.5,3-3.3,3
		C272.8,768.2,272,768,271.1,767.1z M276.5,763.4v-3.5c-0.4-0.7-1.4-1.3-2.4-1.3c-1.6,0-2.5,1.3-2.5,3.1s0.9,3.1,2.5,3.1
		C275.1,764.7,276,764.1,276.5,763.4z"/>
	<path class="st3" d="M279.3,761.7c0-2.1,1.5-3.8,3.5-3.8c2.2,0,3.4,1.7,3.4,3.8v0.2h-6.1c0.1,1.6,1.1,2.9,2.8,2.9
		c0.9,0,1.8-0.3,2.4-1l0.4,0.5c-0.7,0.8-1.6,1.2-2.8,1.2C280.8,765.5,279.3,763.9,279.3,761.7z M282.7,758.5c-1.7,0-2.6,1.5-2.6,2.8
		h5.3C285.4,760.1,284.5,758.5,282.7,758.5z"/>
	<path class="st3" d="M288.3,763.9v-5.2h-1.2V758h1.2v-2h0.8v2h1.5v0.7h-1.5v5c0,0.6,0.2,1,0.8,1c0.3,0,0.6-0.2,0.8-0.3l0.3,0.6
		c-0.3,0.3-0.6,0.4-1.2,0.4C288.8,765.5,288.3,764.9,288.3,763.9z"/>
	<path class="st3" d="M292.1,756.3c0-0.3,0.3-0.6,0.6-0.6c0.3,0,0.6,0.3,0.6,0.6s-0.3,0.6-0.6,0.6
		C292.4,756.9,292.1,756.6,292.1,756.3z M292.3,765.3V758h0.8v7.2H292.3z"/>
	<path class="st3" d="M300.4,765.3v-4.9c0-1.4-0.7-1.8-1.8-1.8c-0.9,0-1.9,0.6-2.4,1.2v5.5h-0.8V758h0.8v1.1
		c0.5-0.6,1.6-1.3,2.6-1.3c1.5,0,2.3,0.7,2.3,2.4v5.1H300.4z"/>
	<path class="st3" d="M303.6,767.1l0.4-0.6c0.6,0.8,1.3,1,2.4,1c1.3,0,2.5-0.7,2.5-2.3v-1.2c-0.5,0.8-1.4,1.4-2.5,1.4
		c-1.9,0-3.2-1.5-3.2-3.8c0-2.3,1.3-3.8,3.2-3.8c1,0,1.9,0.5,2.5,1.3V758h0.8v7.2c0,2.2-1.5,3-3.3,3
		C305.3,768.2,304.5,768,303.6,767.1z M308.9,763.4v-3.5c-0.4-0.7-1.4-1.3-2.4-1.3c-1.6,0-2.5,1.3-2.5,3.1s0.9,3.1,2.5,3.1
		C307.6,764.7,308.5,764.1,308.9,763.4z"/>
</g>
<g>
	<path class="st13" d="M131.5,715.1c-0.3,0.4-0.2,0.8-0.1,1.2c0.3,1,0.9,1.8,1.6,2.6c0.2,0.3,0.3,0.5,0.1,0.8c-0.6,0.9-1,1.9-1.1,3
		c0,0.2-0.1,0.4-0.3,0.5c-1,0.8-1.9,1.6-2.7,2.7c-0.3,0.5-0.6,1-0.7,1.5c0,0.3,0,0.5,0.1,0.8c0.2-0.1,0.3-0.3,0.4-0.4
		c1-1.2,2.1-2.4,3.4-3.4c0.2-0.2,0.4-0.3,0.7-0.4c1.2-0.7,2.3-0.6,3.3,0.4c0.7,0.7,1.3,1.5,2.1,2.1c0.4,0.3,0.9,0.7,1.4,0.9
		c0-0.4,0-0.7,0-1.1c0-0.3,0.1-0.5,0.4-0.6c0.2-0.1,0.5-0.1,0.7-0.1c0.5,0.1,0.7,0.2,0.8,0.7c0,0.4,0.1,0.8,0.2,1.2
		c0.2,0.9,0.7,1.8,1.4,2.4c0.3,0.2,0.3,0.4,0,0.6c0,0-0.1,0.1-0.1,0.1c-0.9,0.7-1.2,0.7-2.1-0.1c-0.3-0.3-0.6-0.7-0.9-1
		c-0.2-0.3-0.4-0.4-0.7-0.5c-1.4-0.5-2.7-1.2-3.8-2.2c-0.6-0.6-1.2-0.5-1.6,0.2c-0.3,0.5-0.6,1-1,1.5c-0.5,0.8-1.1,1.5-1.8,2.1
		c-0.1,0.1-0.2,0.1-0.2,0.2c0,0.1,0.1,0.2,0.3,0.2c0.3,0.1,0.5,0,0.7-0.2c0.6-0.3,1-0.7,1.4-1.2c0.2-0.3,0.3-0.2,0.5,0.1
		c1.5,2.2,3.5,4,6.1,4.9c5.6,2,11.4-1.2,12.5-7c0.4-1.8,0.1-3.5-1.4-4.7c-1.2-1-2.6-1.4-4.1-0.9c-1.8,0.6-2.6,2.9-1.5,4.4
		c0.5,0.7,1.2,1,2,1c0.6,0,1-0.4,1.1-1c0-0.3-0.1-0.5-0.3-0.6c-0.2-0.1-0.5-0.2-0.8-0.3c-0.5-0.2-0.6-0.5-0.5-0.9
		c0.2-0.8,0.8-1.2,1.7-1.1c1.1,0.2,2.2,1.3,2.3,2.4c0.1,1-0.4,1.8-1.1,2.4c-2,1.9-5.7,1.2-6.9-1.3c-0.4-0.9-0.4-1.8-0.3-2.7
		c0.3-1.5,0.9-3,2.1-4.1c1.6-1.4,3.4-1.7,5.4-1.2c3.5,0.9,6,4.1,5.9,7.6c0,2-0.8,3.9-1.7,5.6c-2,3.7-5.2,6-9.1,7.1
		c-4.9,1.4-9.7,1.2-14.3-0.9c-3.7-1.7-6.5-4.6-8.4-8.2c-1.1-2-1.8-4.2-2-6.5c0-0.2,0-0.4-0.2-0.5c-0.2-0.1-0.2-0.3-0.2-0.5
		c0-0.2,0.1-0.5,0.2-0.7c0.1-0.3,0.3-0.5,0-0.8c-0.1-0.1-0.1-0.3-0.1-0.5c0.1-0.2,0.2-0.5,0.3-0.7c0.2-0.2,0.3-0.4,0-0.7
		c-0.2-0.2-0.2-0.5,0-0.8c0.2-0.3,0.4-0.6,0.6-0.8c0.1-0.1,0.2-0.2-0.1-0.3c-0.5-0.2-0.5-0.5-0.2-0.9c0.3-0.4,0.8-0.7,1.1-1.1
		c-0.1-0.2-0.3-0.1-0.4-0.1c-0.6-0.2-0.7-0.5-0.3-1c0.3-0.4,0.7-0.6,1.1-0.9c0.2-0.1,0.3-0.2,0.5-0.4c-0.3-0.1-0.5-0.3-0.8-0.4
		c-0.6-0.4-0.6-0.8,0-1.2c0.6-0.5,1.3-0.7,2-1c0.1,0,0.3-0.1,0.4-0.2c-0.2-0.2-0.5-0.4-0.7-0.7c-0.4-0.6-0.3-1,0.3-1.3
		c0.8-0.4,1.7-0.5,2.6-0.6c0,0,0.1,0,0.2,0c-0.2-0.3-0.5-0.6-0.7-0.9c-0.4-0.8-0.2-1.4,0.7-1.6c1-0.2,1.9-0.2,2.9-0.2
		c0.3,0,0.6,0,0.9,0.1c-0.1-0.4-0.2-0.7-0.3-1c-0.2-0.9,0.2-1.4,1.2-1.4c1,0.1,1.9,0.4,2.8,0.8c0.2,0.1,0.5,0.2,0.8,0.3
		c0-0.3-0.1-0.6-0.1-0.8c0-0.2,0-0.4,0-0.6c0.1-0.6,0.5-0.9,1.2-0.7c0.6,0.2,1.1,0.6,1.6,0.9c0.7,0.5,1.3,1,1.9,1.5
		c0.1-0.4,0.2-0.8,0.3-1.2c0.4-1,1-1.1,1.8-0.5c0.6,0.5,1.1,1.2,1.5,1.9c0,0.1,0.1,0.2,0.1,0.2c-0.1,1.3,0.3,2.6,0.5,3.9
		c0.1,0.9,0.2,1.7,0.3,2.6c0.3-0.4,0.3-0.9,0.4-1.4c0.1-1.4,0-2.8,0-4.2c0-0.7,0-1.3,0.2-2c0.2-0.7,0.4-0.9,1.1-0.8
		c2.5,0.3,4.6,1.4,6.2,3.3c1.9,2.2,3.1,4.8,3.3,7.8c0,0.6,0,1.1-0.2,1.7c-0.2,0.5-0.3,0.5-0.8,0.4c-1.4-0.3-2.7-0.8-4-1.2
		c-0.7-0.3-1.5-0.5-2.2-0.8c-0.2-0.1-0.4-0.2-0.5-0.3c-0.7-0.7-1-0.8-1.9-0.2c-0.2,0.1-0.3,0.2-0.5,0.4c0.3,0,0.5,0,0.8,0
		c0.4,0,0.7,0.1,1,0.4c0.2,0.3,0.5,0.4,0.9,0.6c2.1,0.7,4.1,1.4,6.2,2.2c0,0,0.1,0,0.1,0.1c-0.6,0.3-1.3,0.3-1.9,0.2
		c-1.9-0.2-3.7-0.8-5.5-1.5c-1.2-0.4-2.3-0.8-3.5-1.3c-2-0.8-4-0.7-6,0.3c-0.2,0.1-0.5,0.2-0.7,0.4c-0.2,0.1-0.3,0.1-0.4-0.1
		c-0.2-0.4-0.5-0.8-0.7-1.2c-0.2-0.3-0.4-0.6-0.6-0.9c-0.4-0.4-0.8-0.5-1.3-0.3c0.8,0.7,1.1,1.7,1.5,2.7c0.3,0.6,0.5,1.2,0.9,1.8
		c0.6,0.9,1.2,1.1,2.2,0.9c1.5-0.3,2.8-1.1,4-1.9c0.3-0.2,0.6-0.2,0.9-0.2c0.5,0.1,0.7,0.4,0.6,0.9c-0.1,0.3-0.2,0.5-0.4,0.7
		c-0.7,0.6-1,1.3-1.1,2.2c0,0.4-0.3,0.7-0.7,0.7c-0.4,0-0.7-0.2-0.8-0.6c-0.1-0.3-0.1-0.5-0.1-0.8c0-0.3-0.1-0.3-0.3-0.2
		c-0.3,0.1-0.5,0.3-0.8,0.4c-0.6,0.4-1.2,0.8-1.9,1.1c-0.6,0.3-1.1,0.2-1.5-0.2c-1-0.8-1.8-1.8-2.6-2.8
		C132.8,716.9,132.1,716,131.5,715.1z M149.2,712.5c0.7,0.7,1.8,0.8,2.7,0.1c0.9-0.7,1.2-2,0.8-2.9c-0.5-0.9-1.6-1.3-2.6-0.9
		c-0.9,0.4-1.6,1.5-1.4,2.4c0.4-0.4,0.8-0.5,1.2-0.3c0.3,0.2,0.4,0.5,0.4,0.9C150,712.3,149.7,712.5,149.2,712.5z"/>
	<path class="st13" d="M204.5,719.4c0,3.8,0,7.6,0,11.3c0,1.5-0.8,2.7-2.1,3.1c-1.2,0.4-2.3,0.1-3.1-0.8c-0.2-0.2-0.4-0.2-0.6-0.1
		c-3.9,1.7-7.6,1.3-10.9-1.3c-2.9-2.3-4.2-5.5-3.7-9.2c0.5-4.5,3.8-8,8.3-8.9c2-0.4,3.9-0.2,5.7,0.5c0.4,0.1,0.4,0.2,0.4-0.3
		c0-2,0-4,0-5.9c0-1.7,1.3-3.1,3-3.2c1.6-0.1,3,1.2,3.2,2.8c0,0.2,0,0.4,0,0.6C204.5,711.9,204.5,715.7,204.5,719.4z M190,723.7
		c-0.1,2.2,1.8,4.1,4,4.2c2.3,0.1,4.2-1.7,4.3-4c0.1-2.2-1.7-4.2-4-4.3C192,719.5,190.1,721.3,190,723.7z"/>
	<path class="st13" d="M160.6,723.7c0-5.1,3.8-9.5,8.8-10.2c5.5-0.8,10.7,3,11.6,8.4c0.1,0.7,0.2,1.4,0.2,2.2c0,1.2,0.1,2.3,0.4,3.5
		c0.1,0.5,0.4,0.9,0.7,1.3c1.2,1.2,1.1,3.1,0,4.3c-1.2,1.2-3.1,1.2-4.4,0c-0.3-0.3-0.6-0.6-0.8-0.9c-0.1-0.2-0.2-0.2-0.4-0.1
		c-1.3,0.9-2.7,1.5-4.3,1.7c-4.2,0.6-8.4-1.3-10.5-5C161,727.3,160.6,725.6,160.6,723.7z M170.9,719.6c-2.3,0-4.2,1.8-4.2,4.2
		c0,2.3,1.9,4.2,4.1,4.2c2.3,0,4.2-1.9,4.2-4.1C175,721.5,173.2,719.6,170.9,719.6z"/>
	<path class="st13" d="M223.2,720.6c0.7,0.6,1.3,1.1,1.8,1.8c3.6,4.8,0.8,11.9-5.1,12.9c-0.5,0.1-0.9,0.1-1.4,0.1
		c-2.5,0-4.9,0-7.4,0c-2.1,0-3.9-1.5-4.3-3.5c-0.5-2.3,0.8-4.5,3-5.3c0.1,0,0.2-0.1,0.2-0.1c0-0.1-0.1-0.1-0.1-0.2
		c-2-1.6-3.1-3.7-3.2-6.3c-0.1-4.1,2.8-7.5,6.7-8.2c0.6-0.1,1.2-0.1,1.8-0.1c2.3,0,4.7,0,7,0c2.1,0,3.9,1.5,4.3,3.5
		c0.5,2.3-0.8,4.5-3,5.2C223.5,720.6,223.4,720.6,223.2,720.6z M218.3,714.6c-1.2,0-2.4,0-3.6,0c-0.4,0-0.9,0.1-1.3,0.2
		c-2.5,0.7-4.2,3.2-3.9,5.7c0.3,2.7,2.6,4.7,5.3,4.7c1.2,0,2.4,0,3.6,0c1.3,0,2.2,1.2,2,2.4c-0.2,1-1,1.6-2,1.6c-2.4,0-4.8,0-7.2,0
		c-1,0-1.8,0.8-1.7,1.8c0,0.9,0.8,1.5,1.8,1.5c2.3,0,4.6,0,6.9,0c0.4,0,0.8,0,1.3-0.1c2.6-0.5,4.5-3,4.3-5.7
		c-0.3-2.7-2.6-4.9-5.2-4.9c-1.2,0-2.4,0-3.6,0c-1.2,0-2.1-0.9-2.1-2.1c0-1.2,0.9-2,2.1-2c2.4,0,4.7,0,7.1,0c1,0,1.7-0.7,1.7-1.7
		c0-0.9-0.7-1.6-1.7-1.6C220.9,714.6,219.6,714.6,218.3,714.6z"/>
	<path class="st13" d="M228.4,717.9c0-2,0-4,0-5.9c0-2.2,1.4-4,3.5-4.5c2.4-0.6,4.8,1,5.3,3.4c0.1,0.4,0.2,0.5,0.6,0.5
		c1,0,2-0.1,3,0c2.1,0.3,3.7,2.1,3.8,4.3c0.1,2.1-1.5,4.1-3.6,4.5c-1,0.2-1.9,0.1-2.9,0.1c-0.7,0-0.7,0-0.7,0.7c0,0.9,0,1.8,0,2.7
		c0,1.6,1.1,2.8,2.8,2.8c2.2,0,4,1.6,4.4,3.7c0.5,2.8-1.7,5.3-4.5,5.3c-5.8-0.1-10.6-4.3-11.5-10c-0.1-0.6-0.1-1.2-0.1-1.8
		C228.4,721.7,228.4,719.8,228.4,717.9z M231.2,718c0,1.9,0,3.9,0,5.9c0,0.4,0,0.8,0.1,1.2c0.6,3.8,3.4,6.7,7.2,7.4
		c0.5,0.1,1.1,0.2,1.7,0.1c0.9-0.1,1.6-0.9,1.5-1.7c-0.1-0.9-0.8-1.6-1.7-1.6c-3.1-0.1-5.5-2.5-5.5-5.7c0-2,0-3.9,0-5.9
		c0-0.4,0.1-0.5,0.5-0.5c1.7,0,3.4,0,5.1,0c1.2,0,2-1.2,1.5-2.3c-0.3-0.8-1-1-1.7-1c-1.7,0-3.3,0-5,0c-0.3,0-0.4-0.1-0.4-0.4
		c0-0.6,0-1.2,0-1.8c0-1-0.7-1.7-1.6-1.7c-1,0-1.7,0.7-1.7,1.7C231.2,714,231.2,716,231.2,718z"/>
	<path class="st13" d="M254.2,713c0.7,0.6,1.2,1.2,1.4,2.1c0.2,0.5,0.3,1,0.3,1.5c0,4.8,0,9.6,0,14.3c0,2.4-1.8,4.3-4.1,4.5
		c-2.3,0.2-4.4-1.4-4.8-3.8c0-0.2,0-0.4,0-0.7c0-4.8,0-9.7,0-14.5c0-1.3,0.5-2.5,1.5-3.3c0.2-0.2,0.2-0.2,0-0.4
		c-1.3-1.2-1.8-2.8-1.3-4.5c0.5-1.8,1.7-2.8,3.5-3.2c2.4-0.5,4.9,1.2,5.3,3.7C256.1,710,255.7,711.7,254.2,713z M249.8,723.8
		c0,1.5,0,2.9,0,4.4c0,1,0,1.9,0,2.9c0,0.9,0.7,1.5,1.5,1.6c0.7,0.1,1.5-0.4,1.7-1.2c0.1-0.3,0.1-0.6,0.1-0.9c0-4.6,0-9.1,0-13.7
		c0-0.2,0-0.4,0-0.7c-0.1-0.9-1.1-1.5-1.9-1.3c-0.8,0.2-1.3,0.8-1.3,1.7C249.8,719,249.8,721.4,249.8,723.8z M253.1,709.5
		c0-0.9-0.7-1.6-1.6-1.6c-0.9,0-1.7,0.7-1.7,1.6c0,0.9,0.7,1.6,1.6,1.6C252.3,711.1,253,710.4,253.1,709.5z"/>
	<path class="st13" d="M274.9,714.7c0,2.4-1.8,4.3-4.1,4.4c-0.7,0-1.4,0.1-1.9,0.5c-0.8,0.6-1.1,1.3-1.1,2.3c0,3,0,6,0,9
		c0,2.4-1.8,4.4-4.1,4.6c-2.3,0.2-4.4-1.4-4.8-3.8c0-0.1,0-0.3,0-0.4c0-3.3-0.1-6.6,0-9.9c0.2-4.4,2.3-7.6,6.1-9.8
		c1.7-1,3.6-1.4,5.5-1.4C272.9,710.1,274.9,712.2,274.9,714.7z M264.8,726.4c0-1.4,0-2.8,0-4.2c0-0.4,0-0.8,0.1-1.3
		c0.5-2.8,2.7-4.6,5.5-4.6c0.9,0,1.6-0.8,1.6-1.6c0-0.9-0.7-1.6-1.6-1.6c-0.4,0-0.8,0-1.1,0.1c-4.2,0.5-7.6,4.1-7.7,8.4
		c-0.1,3.2,0,6.3,0,9.5c0,1,0.8,1.7,1.7,1.7c0.9,0,1.6-0.7,1.6-1.7C264.8,729.4,264.8,727.9,264.8,726.4z"/>
</g>
<g>
	<path class="st2" d="M241.9,475.1c-1.8,0.8-3.8,1.4-5.8,1.6c2.1-1.3,3.7-3.3,4.5-5.6c-2,1.2-4.1,2-6.5,2.5c-1.8-2-4.5-3.2-7.4-3.2
		c-5.6,0-10.2,4.6-10.2,10.2c0,0.8,0.1,1.6,0.3,2.3c-8.5-0.4-16-4.5-21-10.6c-0.9,1.5-1.4,3.3-1.4,5.1c0,3.5,1.8,6.6,4.5,8.5
		c-1.7,0-3.2-0.5-4.6-1.3v0.1c0,4.9,3.5,9,8.2,10c-0.8,0.2-1.8,0.3-2.7,0.3c-0.7,0-1.3-0.1-1.9-0.2c1.3,4,5.1,7,9.5,7.1
		c-3.5,2.7-7.9,4.3-12.6,4.3c-0.8,0-1.6,0-2.4-0.1c4.5,2.9,9.9,4.6,15.6,4.6c18.7,0,28.9-15.5,28.9-28.9l0-1.3
		C238.8,478.9,240.5,477.1,241.9,475.1L241.9,475.1z M241.9,475.1"/>
</g>
<g>
	<path class="st2" d="M295.4,468.2h-36.5c-1.7,0-3.2,1.4-3.2,3.1v36.7c0,1.7,1.4,3.1,3.2,3.1h36.5c1.7,0,3.2-1.4,3.2-3.1v-36.7
		C298.6,469.5,297.1,468.2,295.4,468.2L295.4,468.2z M268.7,504h-6.5v-19.3h6.5V504z M265.5,482L265.5,482c-2.2,0-3.6-1.5-3.6-3.3
		c0-1.9,1.4-3.3,3.7-3.3c2.2,0,3.6,1.4,3.6,3.3C269.2,480.5,267.8,482,265.5,482L265.5,482z M292,504h-6.5v-10.3
		c0-2.6-0.9-4.4-3.3-4.4c-1.8,0-2.8,1.2-3.3,2.4c-0.2,0.4-0.2,1-0.2,1.6V504h-6.5c0,0,0.1-17.5,0-19.3h6.5v2.7
		c0.9-1.3,2.4-3.2,5.8-3.2c4.3,0,7.4,2.8,7.4,8.7V504z M278.7,487.5C278.7,487.4,278.8,487.4,278.7,487.5L278.7,487.5L278.7,487.5z
		 M278.7,487.5"/>
</g>
</svg>
