<?xml version="1.0" encoding="utf-8"?>
<!-- Generator: Adobe Illustrator 19.1.0, SVG Export Plug-In . SVG Version: 6.00 Build 0)  -->
<svg version="1.1" id="Layer_1" xmlns="http://www.w3.org/2000/svg" xmlns:xlink="http://www.w3.org/1999/xlink" x="0px" y="0px"
	 viewBox="0 0 217.3 447" style="enable-background:new 0 0 217.3 447;" xml:space="preserve">
<style type="text/css">
	.st0{fill:#4ABEBF;}
	.st1{fill:none;}
	.st2{fill:#FFFFFF;}
	.st3{fill:#231F20;}
	.st4{fill:#FFFFFF;stroke:#4BBEBE;stroke-width:0.6102;stroke-miterlimit:10;}
	.st5{fill:none;stroke:#FFFFFF;stroke-width:0.623;stroke-miterlimit:10;}
	.st6{fill:none;stroke:#FFFFFF;stroke-width:0.5196;stroke-miterlimit:10;}
	.st7{fill:none;stroke:#FFFFFF;stroke-width:0.5212;}
	.st8{fill:none;stroke:#FFFFFF;stroke-width:0.4075;}
	.st9{fill:none;stroke:#FFFFFF;stroke-width:0.415;}
	.st10{fill:none;stroke:#FFFFFF;stroke-width:0.4261;}
	.st11{fill:none;stroke:#FFFFFF;stroke-width:0.3943;}
	.st12{fill:#1E1F1E;}
	.st13{fill-rule:evenodd;clip-rule:evenodd;fill:#FFFFFF;}
</style>
<path class="st0" d="M167.2,141c0,3.7-3,6.6-6.6,6.6h-42.8c-3.7,0-6.6-3-6.6-6.6V98.7c0-3.7,3-6.6,6.6-6.6h42.8c3.7,0,6.6,3,6.6,6.6
	V141z"/>
<g>
	<path class="st3" d="M121.6,136v-2.3l-2.1-3.1h0.6l1.8,2.6l1.8-2.6h0.6l-2.1,3.1v2.3H121.6z"/>
	<path class="st3" d="M123.7,134.1c0-1.1,0.7-2,1.8-2c1.1,0,1.9,0.9,1.9,2s-0.7,2-1.9,2C124.4,136.1,123.7,135.2,123.7,134.1z
		 M126.9,134.1c0-0.9-0.5-1.6-1.4-1.6c-0.9,0-1.4,0.8-1.4,1.6c0,0.9,0.5,1.7,1.4,1.7C126.4,135.8,126.9,135,126.9,134.1z"/>
	<path class="st3" d="M131.1,136v-0.6c-0.3,0.4-0.8,0.7-1.4,0.7c-0.8,0-1.2-0.4-1.2-1.2v-2.7h0.4v2.6c0,0.8,0.4,1,0.9,1
		c0.5,0,1-0.3,1.3-0.6v-2.9h0.4v3.9H131.1z"/>
	<path class="st3" d="M132.8,136v-3.9h0.4v0.7c0.3-0.4,0.8-0.7,1.3-0.7v0.5c-0.1,0-0.1,0-0.2,0c-0.4,0-0.9,0.4-1.1,0.7v2.8H132.8z"
		/>
	<path class="st3" d="M142,136v-2.7c0-0.5-0.2-0.9-0.8-0.9c-0.4,0-0.9,0.3-1.1,0.7v2.9h-0.4v-2.7c0-0.5-0.2-0.9-0.8-0.9
		c-0.4,0-0.9,0.3-1.1,0.7v2.9h-0.4v-3.9h0.4v0.6c0.2-0.2,0.7-0.7,1.2-0.7c0.6,0,0.9,0.4,1,0.7c0.2-0.4,0.7-0.7,1.3-0.7
		c0.7,0,1.1,0.4,1.1,1.2v2.8H142z"/>
	<path class="st3" d="M143.5,134.1c0-1.1,0.7-2,1.8-2c1.1,0,1.9,0.9,1.9,2s-0.7,2-1.9,2C144.2,136.1,143.5,135.2,143.5,134.1z
		 M146.8,134.1c0-0.9-0.5-1.6-1.4-1.6c-0.9,0-1.4,0.8-1.4,1.6c0,0.9,0.5,1.7,1.4,1.7C146.3,135.8,146.8,135,146.8,134.1z"/>
	<path class="st3" d="M148.3,136v-5.3h0.4v2.1c0.3-0.4,0.8-0.7,1.3-0.7c1,0,1.7,0.8,1.7,2c0,1.2-0.7,2-1.7,2c-0.6,0-1.1-0.3-1.3-0.7
		v0.6H148.3z M150,135.8c0.9,0,1.4-0.7,1.4-1.6c0-0.9-0.5-1.7-1.4-1.7c-0.5,0-1,0.3-1.3,0.7v1.9C148.9,135.4,149.4,135.8,150,135.8z
		"/>
	<path class="st3" d="M152.7,131.3c0-0.2,0.2-0.3,0.3-0.3c0.2,0,0.3,0.1,0.3,0.3c0,0.2-0.1,0.3-0.3,0.3
		C152.9,131.6,152.7,131.4,152.7,131.3z M152.8,136v-3.9h0.4v3.9H152.8z"/>
	<path class="st3" d="M154.6,136v-5.3h0.4v5.3H154.6z"/>
	<path class="st3" d="M156.1,134.1c0-1.1,0.8-2,1.9-2c1.2,0,1.8,0.9,1.8,2v0.1h-3.2c0,0.8,0.6,1.5,1.5,1.5c0.5,0,0.9-0.2,1.3-0.5
		l0.2,0.3c-0.4,0.4-0.9,0.6-1.5,0.6C156.9,136.1,156.1,135.3,156.1,134.1z M157.9,132.4c-0.9,0-1.4,0.8-1.4,1.5h2.8
		C159.3,133.3,158.9,132.4,157.9,132.4z"/>
	<path class="st3" d="M130.2,143.8l-1.1-3.3l-1.1,3.3h-0.4l-1.3-3.9h0.4l1,3.3l1.1-3.3h0.4l1.1,3.3l1-3.3h0.4l-1.3,3.9H130.2z"/>
	<path class="st3" d="M132.4,141.9c0-1.1,0.8-2,1.9-2c1.2,0,1.8,0.9,1.8,2v0.1h-3.2c0,0.8,0.6,1.5,1.5,1.5c0.5,0,0.9-0.2,1.3-0.5
		l0.2,0.3c-0.4,0.4-0.9,0.6-1.5,0.6C133.2,143.9,132.4,143.1,132.4,141.9z M134.3,140.2c-0.9,0-1.4,0.8-1.4,1.5h2.8
		C135.7,141,135.3,140.2,134.3,140.2z"/>
	<path class="st3" d="M137.2,143.8v-5.3h0.4v2.1c0.3-0.4,0.8-0.7,1.3-0.7c1,0,1.7,0.8,1.7,2c0,1.2-0.7,2-1.7,2
		c-0.6,0-1.1-0.3-1.3-0.7v0.6H137.2z M138.9,143.5c0.9,0,1.4-0.7,1.4-1.6s-0.5-1.7-1.4-1.7c-0.5,0-1,0.3-1.3,0.7v1.9
		C137.8,143.2,138.3,143.5,138.9,143.5z"/>
	<path class="st3" d="M141.4,143.3l0.2-0.3c0.2,0.3,0.7,0.6,1.2,0.6c0.6,0,1-0.3,1-0.8c0-1.1-2.4-0.5-2.4-1.8c0-0.6,0.5-1.1,1.4-1.1
		c0.7,0,1.1,0.3,1.4,0.6l-0.2,0.3c-0.2-0.3-0.6-0.5-1.2-0.5c-0.6,0-1,0.3-1,0.7c0,1,2.4,0.4,2.4,1.9c0,0.6-0.5,1.1-1.4,1.1
		C142.3,143.9,141.8,143.7,141.4,143.3z"/>
	<path class="st3" d="M145.3,139c0-0.2,0.2-0.3,0.3-0.3c0.2,0,0.3,0.1,0.3,0.3c0,0.2-0.1,0.3-0.3,0.3
		C145.5,139.3,145.3,139.2,145.3,139z M145.4,143.8v-3.9h0.4v3.9H145.4z"/>
	<path class="st3" d="M147.2,143.1v-2.8h-0.6v-0.4h0.6v-1.1h0.4v1.1h0.8v0.4h-0.8v2.7c0,0.3,0.1,0.5,0.4,0.5c0.2,0,0.3-0.1,0.4-0.2
		l0.2,0.3c-0.2,0.1-0.3,0.2-0.7,0.2C147.5,143.9,147.2,143.6,147.2,143.1z"/>
	<path class="st3" d="M149.1,141.9c0-1.1,0.8-2,1.9-2c1.2,0,1.8,0.9,1.8,2v0.1h-3.2c0,0.8,0.6,1.5,1.5,1.5c0.5,0,0.9-0.2,1.3-0.5
		l0.2,0.3c-0.4,0.4-0.9,0.6-1.5,0.6C149.9,143.9,149.1,143.1,149.1,141.9z M151,140.2c-0.9,0-1.4,0.8-1.4,1.5h2.8
		C152.4,141,151.9,140.2,151,140.2z"/>
</g>
<g>
	<path class="st2" d="M150,100.9h-21.6c-2,0-3.7,1.7-3.7,3.7v14.5c0,2,1.7,3.7,3.7,3.7h11.6v-2.9h-10.3v-16H150
		c0.4,0,0.8,0.3,0.8,0.8v0.3h1.1c0.7,0,1.3,0.2,1.8,0.5v-0.7C153.7,102.5,152,100.9,150,100.9L150,100.9z M127.2,110.4
		c0.8,0,1.4,0.6,1.4,1.4c0,0.8-0.6,1.4-1.4,1.4c-0.7,0-1.4-0.6-1.4-1.4C125.8,111,126.4,110.4,127.2,110.4L127.2,110.4z
		 M127.2,110.4"/>
	<path class="st2" d="M132,113.4c-0.3,0-0.5,0.2-0.5,0.5v3.9c0,0.3,0.2,0.5,0.5,0.5h6.4c0.3,0,0.5-0.2,0.5-0.5v-3.9
		c0-0.3-0.2-0.5-0.5-0.5H132z M132,113.4"/>
	<path class="st2" d="M131.9,111.7c0,0.3,0.2,0.5,0.5,0.5h7.5v-1h-7.5C132.1,111.2,131.9,111.4,131.9,111.7L131.9,111.7z
		 M131.9,111.7"/>
	<path class="st2" d="M131.9,109.7c0,0.3,0.2,0.5,0.5,0.5h7.5v-1h-7.5C132.1,109.2,131.9,109.5,131.9,109.7L131.9,109.7z
		 M131.9,109.7"/>
	<path class="st2" d="M131.9,107.8c0,0.3,0.2,0.5,0.5,0.5h7.6c0-0.3,0.1-0.7,0.2-1h-7.8C132.1,107.3,131.9,107.5,131.9,107.8
		L131.9,107.8z M131.9,107.8"/>
	<path class="st2" d="M131.9,105.8c0,0.3,0.2,0.5,0.5,0.5h8.3c0.3-0.4,0.7-0.7,1.1-1h-9.4C132.1,105.3,131.9,105.6,131.9,105.8
		L131.9,105.8z M131.9,105.8"/>
	<path class="st2" d="M151.8,106.8h-8.2c-1,0-1.8,0.8-1.8,1.8v15.5c0,1,0.8,1.8,1.8,1.8h8.2c1,0,1.8-0.8,1.8-1.8v-15.5
		C153.7,107.6,152.8,106.8,151.8,106.8L151.8,106.8z M143.8,108.7h7.9v13.7h-7.9V108.7z M146.9,124c0-0.5,0.4-0.9,0.9-0.9
		c0.5,0,0.9,0.4,0.9,0.9s-0.4,0.9-0.9,0.9C147.3,124.9,146.9,124.5,146.9,124L146.9,124z M146.9,124"/>
	<path class="st2" d="M145.6,112.5h4.4c0.3,0,0.5-0.2,0.5-0.5v-1c0-0.3-0.2-0.5-0.5-0.5h-4.4c-0.3,0-0.5,0.2-0.5,0.5v1
		C145.1,112.3,145.3,112.5,145.6,112.5L145.6,112.5z M145.6,112.5"/>
	<path class="st2" d="M150.5,113.4h-5.4c-0.3,0-0.5,0.2-0.5,0.5c0,0.3,0.2,0.5,0.5,0.5h5.4c0.3,0,0.5-0.2,0.5-0.5
		C151,113.6,150.8,113.4,150.5,113.4L150.5,113.4z M150.5,113.4"/>
	<path class="st2" d="M150.5,115.4h-5.4c-0.3,0-0.5,0.2-0.5,0.5c0,0.3,0.2,0.5,0.5,0.5h5.4c0.3,0,0.5-0.2,0.5-0.5
		C151,115.6,150.8,115.4,150.5,115.4L150.5,115.4z M150.5,115.4"/>
	<path class="st2" d="M150.5,117.3h-5.4c-0.3,0-0.5,0.2-0.5,0.5c0,0.3,0.2,0.5,0.5,0.5h5.4c0.3,0,0.5-0.2,0.5-0.5
		C151,117.5,150.8,117.3,150.5,117.3L150.5,117.3z M150.5,117.3"/>
	<path class="st2" d="M150.5,119.3h-5.4c-0.3,0-0.5,0.2-0.5,0.5c0,0.3,0.2,0.5,0.5,0.5h5.4c0.3,0,0.5-0.2,0.5-0.5
		C151,119.5,150.8,119.3,150.5,119.3L150.5,119.3z M150.5,119.3"/>
</g>
<g>
	<path class="st12" d="M55.3,12.1c0-2.8,1.9-5,4.7-5c2.8,0,4.7,2.2,4.7,5c0,2.8-1.9,5-4.7,5C57.2,17.1,55.3,14.9,55.3,12.1z
		 M63.8,12.1c0-2.4-1.5-4.2-3.8-4.2c-2.3,0-3.8,1.8-3.8,4.2c0,2.4,1.5,4.2,3.8,4.2C62.3,16.3,63.8,14.5,63.8,12.1z"/>
	<path class="st12" d="M72.7,16.9l-2-6l-2,6h-0.7l-2.3-7h0.8l1.9,5.9l2-5.9h0.7l2,5.9l1.9-5.9h0.8l-2.3,7H72.7z"/>
	<path class="st12" d="M81.9,16.9v-4.7c0-1.3-0.7-1.8-1.7-1.8c-0.9,0-1.8,0.6-2.3,1.2v5.3h-0.8v-7h0.8v1.1c0.5-0.6,1.5-1.2,2.5-1.2
		c1.4,0,2.2,0.7,2.2,2.3v4.9H81.9z"/>
	<path class="st12" d="M84.6,13.4c0-2,1.4-3.7,3.4-3.7c2.1,0,3.3,1.7,3.3,3.7v0.2h-5.9c0.1,1.5,1.1,2.8,2.7,2.8c0.9,0,1.7-0.3,2.3-1
		l0.4,0.5c-0.7,0.7-1.6,1.1-2.7,1.1C86,17.1,84.6,15.5,84.6,13.4z M87.9,10.4c-1.7,0-2.5,1.4-2.5,2.7h5.1
		C90.5,11.8,89.7,10.4,87.9,10.4z"/>
	<path class="st12" d="M98.4,16.9v-1.1c-0.5,0.7-1.4,1.3-2.4,1.3c-1.9,0-3.1-1.4-3.1-3.7c0-2.2,1.3-3.7,3.1-3.7c1,0,1.9,0.5,2.4,1.3
		V7.2h0.8v9.7H98.4z M98.4,15.1v-3.5C97.9,11,97,10.4,96,10.4c-1.6,0-2.4,1.3-2.4,3s0.9,3,2.4,3C97,16.4,97.9,15.8,98.4,15.1z"/>
	<path class="st12" d="M104.9,12.1c0-3,2.2-5,4.9-5c1.5,0,2.7,0.7,3.5,1.7l-0.7,0.4c-0.6-0.8-1.7-1.4-2.8-1.4c-2.3,0-4,1.7-4,4.2
		c0,2.5,1.8,4.2,4,4.2c1.2,0,2.2-0.6,2.8-1.4l0.7,0.4c-0.9,1.1-2,1.7-3.5,1.7C107.1,17.1,104.9,15,104.9,12.1z"/>
	<path class="st12" d="M119.7,16.9v-4.8c0-1.3-0.7-1.7-1.7-1.7c-0.9,0-1.8,0.6-2.3,1.2v5.3h-0.8V7.2h0.8v3.7
		c0.5-0.6,1.5-1.2,2.5-1.2c1.4,0,2.2,0.7,2.2,2.2v4.9H119.7z"/>
	<path class="st12" d="M127.2,16.9v-0.8c-0.6,0.7-1.4,1-2.4,1c-1.2,0-2.4-0.8-2.4-2.3c0-1.5,1.2-2.3,2.4-2.3c1,0,1.8,0.3,2.4,1V12
		c0-1-0.8-1.6-1.9-1.6c-0.9,0-1.6,0.3-2.2,1l-0.4-0.5c0.7-0.8,1.5-1.2,2.7-1.2c1.4,0,2.6,0.7,2.6,2.2v4.9H127.2z M127.2,15.5V14
		c-0.5-0.7-1.3-1-2.1-1c-1.1,0-1.9,0.7-1.9,1.7c0,1,0.8,1.7,1.9,1.7C126,16.5,126.7,16.1,127.2,15.5z"/>
	<path class="st12" d="M135.1,16.9v-4.7c0-1.3-0.7-1.8-1.7-1.8c-0.9,0-1.8,0.6-2.3,1.2v5.3h-0.8v-7h0.8v1.1c0.5-0.6,1.5-1.2,2.5-1.2
		c1.4,0,2.2,0.7,2.2,2.3v4.9H135.1z"/>
	<path class="st12" d="M142.9,16.9v-4.7c0-1.3-0.7-1.8-1.7-1.8c-0.9,0-1.8,0.6-2.3,1.2v5.3h-0.8v-7h0.8v1.1c0.5-0.6,1.5-1.2,2.5-1.2
		c1.4,0,2.2,0.7,2.2,2.3v4.9H142.9z"/>
	<path class="st12" d="M145.6,13.4c0-2,1.4-3.7,3.4-3.7c2.1,0,3.3,1.7,3.3,3.7v0.2h-5.9c0.1,1.5,1.1,2.8,2.7,2.8
		c0.9,0,1.7-0.3,2.3-1l0.4,0.5c-0.7,0.7-1.6,1.1-2.7,1.1C147,17.1,145.6,15.5,145.6,13.4z M148.9,10.4c-1.7,0-2.5,1.4-2.5,2.7h5.1
		C151.5,11.8,150.7,10.4,148.9,10.4z"/>
	<path class="st12" d="M154.2,16.9V7.2h0.8v9.7H154.2z"/>
	<path class="st12" d="M156.7,15.9l0.4-0.6c0.4,0.6,1.3,1,2.3,1c1.2,0,1.9-0.6,1.9-1.4c0-1.9-4.4-0.8-4.4-3.3c0-1.1,0.9-1.9,2.5-1.9
		c1.2,0,2,0.5,2.5,1l-0.4,0.5c-0.4-0.6-1.2-0.9-2.1-0.9c-1.1,0-1.7,0.6-1.7,1.3c0,1.8,4.4,0.7,4.4,3.4c0,1.1-0.9,2.1-2.6,2.1
		C158.3,17.1,157.4,16.7,156.7,15.9z"/>
</g>
<path class="st0" d="M104,78.6c0,3.7-3,6.6-6.6,6.6H54.6c-3.7,0-6.6-3-6.6-6.6V36.3c0-3.7,3-6.6,6.6-6.6h42.8c3.7,0,6.6,3,6.6,6.6
	V78.6z"/>
<path class="st0" d="M167.2,78.6c0,3.7-3,6.6-6.6,6.6h-42.8c-3.7,0-6.6-3-6.6-6.6V36.3c0-3.7,3-6.6,6.6-6.6h42.8
	c3.7,0,6.6,3,6.6,6.6V78.6z"/>
<g>
	<path class="st3" d="M68.3,78.5l0.3-0.3c0.3,0.4,0.9,0.8,1.7,0.8c1.1,0,1.4-0.6,1.4-1.1c0-1.6-3.2-0.8-3.2-2.6
		c0-0.9,0.8-1.4,1.8-1.4c0.8,0,1.4,0.3,1.8,0.8l-0.3,0.3c-0.4-0.5-0.9-0.7-1.5-0.7c-0.7,0-1.2,0.4-1.2,1c0,1.4,3.2,0.6,3.2,2.6
		c0,0.7-0.5,1.5-1.9,1.5C69.4,79.4,68.7,79,68.3,78.5z"/>
	<path class="st3" d="M77.8,79.3v-4.8l-1.9,4.8h-0.2l-2-4.8v4.8h-0.5v-5.3H74l1.8,4.4l1.8-4.4h0.7v5.3H77.8z"/>
	<path class="st3" d="M79.3,78.5l0.3-0.3c0.3,0.4,0.9,0.8,1.7,0.8c1.1,0,1.4-0.6,1.4-1.1c0-1.6-3.2-0.8-3.2-2.6
		c0-0.9,0.8-1.4,1.8-1.4c0.8,0,1.4,0.3,1.8,0.8l-0.3,0.3c-0.4-0.5-0.9-0.7-1.5-0.7c-0.7,0-1.2,0.4-1.2,1c0,1.4,3.2,0.6,3.2,2.6
		c0,0.7-0.5,1.5-1.9,1.5C80.4,79.4,79.7,79,79.3,78.5z"/>
</g>
<g>
	<path class="st3" d="M130.5,78.3v-5.3h3.4v0.4h-2.9v2h2.9v0.4h-2.9v2.1h2.9v0.4H130.5z"/>
	<path class="st3" d="M139.6,78.3v-2.7c0-0.5-0.2-0.9-0.8-0.9c-0.4,0-0.9,0.3-1.1,0.7v2.9h-0.4v-2.7c0-0.5-0.2-0.9-0.8-0.9
		c-0.4,0-0.9,0.3-1.1,0.7v2.9H135v-3.9h0.4V75c0.2-0.2,0.7-0.7,1.2-0.7c0.6,0,0.9,0.4,1,0.7c0.2-0.4,0.7-0.7,1.3-0.7
		c0.7,0,1.1,0.4,1.1,1.2v2.8H139.6z"/>
	<path class="st3" d="M143.7,78.3v-0.5c-0.3,0.4-0.8,0.6-1.3,0.6c-0.7,0-1.4-0.5-1.4-1.3c0-0.8,0.7-1.3,1.4-1.3c0.5,0,1,0.2,1.3,0.6
		v-0.8c0-0.6-0.5-0.9-1-0.9c-0.5,0-0.9,0.2-1.2,0.6l-0.2-0.3c0.4-0.4,0.8-0.6,1.5-0.6c0.8,0,1.4,0.4,1.4,1.2v2.7H143.7z M143.7,77.5
		v-0.8c-0.3-0.4-0.7-0.5-1.2-0.5c-0.6,0-1.1,0.4-1.1,1c0,0.5,0.4,1,1.1,1C143,78,143.4,77.9,143.7,77.5z"/>
	<path class="st3" d="M145.3,73.5c0-0.2,0.2-0.3,0.3-0.3c0.2,0,0.3,0.1,0.3,0.3c0,0.2-0.1,0.3-0.3,0.3
		C145.5,73.8,145.3,73.6,145.3,73.5z M145.4,78.3v-3.9h0.4v3.9H145.4z"/>
	<path class="st3" d="M147.1,78.3v-5.3h0.4v5.3H147.1z"/>
</g>
<g>
	<path class="st2" d="M88.3,48.7h-0.8v8.9c0,1.4-0.8,2.7-2.4,2.7H69.1v0.4c0,1.2,1.4,2.5,2.8,2.5h12.2l4.7,2.7l-0.7-2.7h0.2
		c1.4,0,2.1-1.2,2.1-2.5v-9.9C90.4,49.6,89.7,48.7,88.3,48.7L88.3,48.7z M88.3,48.7"/>
	<path class="st2" d="M82.7,42.5H64.2c-1.6,0-3.5,1.4-3.5,2.8v11.2c0,1.3,1.6,2.2,3.1,2.4l-1,3.8l6.3-3.7h13.5c1.6,0,3.1-1,3.1-2.4
		V45.3C85.8,43.9,84.3,42.5,82.7,42.5L82.7,42.5z M67,52c-0.9,0-1.7-0.7-1.7-1.7c0-0.9,0.7-1.7,1.7-1.7c0.9,0,1.7,0.7,1.7,1.7
		C68.7,51.2,67.9,52,67,52L67,52z M73.2,52c-0.9,0-1.7-0.7-1.7-1.7c0-0.9,0.8-1.7,1.7-1.7c0.9,0,1.7,0.7,1.7,1.7
		C74.9,51.2,74.2,52,73.2,52L73.2,52z M79.5,52c-0.9,0-1.7-0.7-1.7-1.7c0-0.9,0.8-1.7,1.7-1.7c0.9,0,1.7,0.7,1.7,1.7
		C81.1,51.2,80.4,52,79.5,52L79.5,52z M79.5,52"/>
</g>
<path class="st0" d="M200.4,241.9c0,3.7-3,6.6-6.6,6.6H23.5c-3.7,0-6.6-3-6.6-6.6v-42.3c0-3.7,3-6.6,6.6-6.6h170.3
	c3.7,0,6.6,3,6.6,6.6V241.9z"/>
<g>
	<path class="st3" d="M42.2,236.2v-0.4c1.8-1.5,3-2.5,3-3.5c0-0.8-0.6-1.1-1.2-1.1c-0.7,0-1.2,0.3-1.5,0.7l-0.3-0.3
		c0.4-0.5,1-0.8,1.8-0.8c0.8,0,1.7,0.4,1.7,1.5c0,1.2-1.2,2.2-2.8,3.5h2.8v0.4H42.2z"/>
	<path class="st3" d="M47.3,236.2l2.2-4.9h-3v-0.4h3.5v0.3l-2.3,5H47.3z"/>
	<path class="st3" d="M50.9,233.5c0-1.3,0.5-2.8,2-2.8c1.4,0,2,1.5,2,2.8c0,1.3-0.5,2.8-2,2.8C51.4,236.3,50.9,234.8,50.9,233.5z
		 M54.3,233.5c0-1.1-0.4-2.3-1.5-2.3c-1.1,0-1.5,1.2-1.5,2.3c0,1.1,0.4,2.3,1.5,2.3C53.9,235.9,54.3,234.6,54.3,233.5z"/>
	<path class="st3" d="M57.4,233.7v1.7h-0.4v-1.7h-1.6v-0.3h1.6v-1.7h0.4v1.7H59v0.3H57.4z"/>
	<path class="st3" d="M64.8,236.2v-0.6c-0.3,0.4-0.8,0.7-1.3,0.7c-1,0-1.7-0.8-1.7-2c0-1.2,0.7-2,1.7-2c0.6,0,1,0.3,1.3,0.7v-2.1
		h0.4v5.3H64.8z M64.8,235.2v-1.9c-0.2-0.4-0.7-0.7-1.3-0.7c-0.9,0-1.4,0.7-1.4,1.7c0,0.9,0.5,1.6,1.4,1.6
		C64.1,235.9,64.6,235.6,64.8,235.2z"/>
	<path class="st3" d="M66.4,231.4c0-0.2,0.2-0.3,0.3-0.3c0.2,0,0.3,0.1,0.3,0.3c0,0.2-0.1,0.3-0.3,0.3
		C66.5,231.7,66.4,231.6,66.4,231.4z M66.5,236.2v-3.9h0.4v3.9H66.5z"/>
	<path class="st3" d="M67.9,235.7l0.2-0.3c0.2,0.3,0.7,0.6,1.2,0.6c0.6,0,1-0.3,1-0.8c0-1.1-2.4-0.5-2.4-1.8c0-0.6,0.5-1.1,1.4-1.1
		c0.7,0,1.1,0.3,1.4,0.6l-0.2,0.3c-0.2-0.3-0.6-0.5-1.2-0.5c-0.6,0-1,0.3-1,0.7c0,1,2.4,0.4,2.4,1.9c0,0.6-0.5,1.1-1.4,1.1
		C68.7,236.3,68.3,236.1,67.9,235.7z"/>
	<path class="st3" d="M72.3,235.6v2.1h-0.4v-5.3h0.4v0.6c0.3-0.4,0.8-0.7,1.3-0.7c1,0,1.7,0.8,1.7,2c0,1.2-0.7,2-1.7,2
		C73.1,236.3,72.6,236,72.3,235.6z M74.9,234.2c0-0.9-0.5-1.6-1.4-1.6c-0.5,0-1,0.3-1.3,0.7v1.9c0.2,0.4,0.7,0.7,1.3,0.7
		C74.4,235.9,74.9,235.2,74.9,234.2z"/>
	<path class="st3" d="M76.4,236.2v-5.3h0.4v5.3H76.4z"/>
	<path class="st3" d="M80.6,236.2v-0.5c-0.3,0.4-0.8,0.6-1.3,0.6c-0.7,0-1.4-0.5-1.4-1.3c0-0.8,0.7-1.3,1.4-1.3c0.5,0,1,0.2,1.3,0.6
		v-0.8c0-0.6-0.5-0.9-1-0.9c-0.5,0-0.9,0.2-1.2,0.6l-0.2-0.3c0.4-0.4,0.8-0.6,1.5-0.6c0.8,0,1.4,0.4,1.4,1.2v2.7H80.6z M80.6,235.4
		v-0.8c-0.3-0.4-0.7-0.5-1.2-0.5c-0.6,0-1.1,0.4-1.1,1c0,0.5,0.4,1,1.1,1C79.9,236,80.3,235.8,80.6,235.4z"/>
	<path class="st3" d="M82.1,237.3c0.1,0,0.2,0.1,0.3,0.1c0.3,0,0.4-0.1,0.6-0.5l0.3-0.7l-1.6-3.9h0.5l1.4,3.4l1.4-3.4h0.5l-2,4.7
		c-0.2,0.5-0.5,0.7-1,0.7c-0.1,0-0.3,0-0.4-0.1L82.1,237.3z"/>
	<path class="st3" d="M88,234.2c0-1.1,0.7-2,1.9-2c0.7,0,1.1,0.3,1.4,0.7l-0.3,0.3c-0.3-0.4-0.6-0.5-1.1-0.5c-0.9,0-1.5,0.7-1.5,1.6
		c0,0.9,0.6,1.7,1.5,1.7c0.4,0,0.8-0.2,1.1-0.5l0.3,0.3c-0.3,0.4-0.7,0.7-1.4,0.7C88.7,236.3,88,235.4,88,234.2z"/>
	<path class="st3" d="M94.8,236.2v-2.6c0-0.7-0.4-1-0.9-1c-0.5,0-1,0.3-1.3,0.7v2.9h-0.4v-5.3h0.4v2.1c0.3-0.3,0.8-0.7,1.4-0.7
		c0.8,0,1.2,0.4,1.2,1.2v2.7H94.8z"/>
	<path class="st3" d="M99,236.2v-0.5c-0.3,0.4-0.8,0.6-1.3,0.6c-0.7,0-1.4-0.5-1.4-1.3c0-0.8,0.7-1.3,1.4-1.3c0.5,0,1,0.2,1.3,0.6
		v-0.8c0-0.6-0.5-0.9-1-0.9c-0.5,0-0.9,0.2-1.2,0.6l-0.2-0.3c0.4-0.4,0.8-0.6,1.5-0.6c0.8,0,1.4,0.4,1.4,1.2v2.7H99z M99,235.4v-0.8
		c-0.3-0.4-0.7-0.5-1.2-0.5c-0.6,0-1.1,0.4-1.1,1c0,0.5,0.4,1,1.1,1C98.3,236,98.7,235.8,99,235.4z"/>
	<path class="st3" d="M103.3,236.2v-2.6c0-0.7-0.4-1-0.9-1c-0.5,0-1,0.3-1.3,0.7v2.9h-0.4v-3.9h0.4v0.6c0.3-0.3,0.8-0.7,1.4-0.7
		c0.8,0,1.2,0.4,1.2,1.3v2.7H103.3z"/>
	<path class="st3" d="M107.6,236.2v-2.6c0-0.7-0.4-1-0.9-1c-0.5,0-1,0.3-1.3,0.7v2.9H105v-3.9h0.4v0.6c0.3-0.3,0.8-0.7,1.4-0.7
		c0.8,0,1.2,0.4,1.2,1.3v2.7H107.6z"/>
	<path class="st3" d="M109.1,234.2c0-1.1,0.8-2,1.9-2c1.2,0,1.8,0.9,1.8,2v0.1h-3.2c0,0.8,0.6,1.5,1.5,1.5c0.5,0,0.9-0.2,1.3-0.5
		l0.2,0.3c-0.4,0.4-0.9,0.6-1.5,0.6C109.9,236.3,109.1,235.4,109.1,234.2z M110.9,232.6c-0.9,0-1.4,0.8-1.4,1.5h2.8
		C112.3,233.4,111.9,232.6,110.9,232.6z"/>
	<path class="st3" d="M113.8,236.2v-5.3h0.4v5.3H113.8z"/>
	<path class="st3" d="M115.2,235.7l0.2-0.3c0.2,0.3,0.7,0.6,1.2,0.6c0.6,0,1-0.3,1-0.8c0-1.1-2.4-0.5-2.4-1.8c0-0.6,0.5-1.1,1.4-1.1
		c0.7,0,1.1,0.3,1.4,0.6l-0.2,0.3c-0.2-0.3-0.6-0.5-1.2-0.5c-0.6,0-1,0.3-1,0.7c0,1,2.4,0.4,2.4,1.9c0,0.6-0.5,1.1-1.4,1.1
		C116.1,236.3,115.6,236.1,115.2,235.7z"/>
	<path class="st3" d="M121.1,234.2c0-1.1,0.7-2,1.8-2c1.1,0,1.9,0.9,1.9,2s-0.7,2-1.9,2C121.8,236.3,121.1,235.4,121.1,234.2z
		 M124.3,234.2c0-0.9-0.5-1.6-1.4-1.6c-0.9,0-1.4,0.8-1.4,1.6c0,0.9,0.5,1.7,1.4,1.7C123.8,235.9,124.3,235.1,124.3,234.2z"/>
	<path class="st3" d="M128.5,236.2v-2.6c0-0.7-0.4-1-0.9-1c-0.5,0-1,0.3-1.3,0.7v2.9h-0.4v-3.9h0.4v0.6c0.3-0.3,0.8-0.7,1.4-0.7
		c0.8,0,1.2,0.4,1.2,1.3v2.7H128.5z"/>
	<path class="st3" d="M135.1,236.2v-0.6c-0.3,0.4-0.8,0.7-1.3,0.7c-1,0-1.7-0.8-1.7-2c0-1.2,0.7-2,1.7-2c0.6,0,1,0.3,1.3,0.7v-2.1
		h0.4v5.3H135.1z M135.1,235.2v-1.9c-0.2-0.4-0.7-0.7-1.3-0.7c-0.9,0-1.4,0.7-1.4,1.7c0,0.9,0.5,1.6,1.4,1.6
		C134.4,235.9,134.9,235.6,135.1,235.2z"/>
	<path class="st3" d="M136.6,234.2c0-1.1,0.8-2,1.9-2c1.2,0,1.8,0.9,1.8,2v0.1h-3.2c0,0.8,0.6,1.5,1.5,1.5c0.5,0,0.9-0.2,1.3-0.5
		l0.2,0.3c-0.4,0.4-0.9,0.6-1.5,0.6C137.4,236.3,136.6,235.4,136.6,234.2z M138.5,232.6c-0.9,0-1.4,0.8-1.4,1.5h2.8
		C139.9,233.4,139.4,232.6,138.5,232.6z"/>
	<path class="st3" d="M141,235.7l0.2-0.3c0.2,0.3,0.7,0.6,1.2,0.6c0.6,0,1-0.3,1-0.8c0-1.1-2.4-0.5-2.4-1.8c0-0.6,0.5-1.1,1.4-1.1
		c0.7,0,1.1,0.3,1.4,0.6l-0.2,0.3c-0.2-0.3-0.6-0.5-1.2-0.5c-0.6,0-1,0.3-1,0.7c0,1,2.4,0.4,2.4,1.9c0,0.6-0.5,1.1-1.4,1.1
		C141.9,236.3,141.4,236.1,141,235.7z"/>
	<path class="st3" d="M147.7,236.2l-1.5-1.8l-0.7,0.7v1.2H145v-5.3h0.4v3.7l2.3-2.2h0.6l-1.8,1.7l1.8,2.1H147.7z"/>
	<path class="st3" d="M149.2,235.4v-2.8h-0.6v-0.4h0.6v-1.1h0.4v1.1h0.8v0.4h-0.8v2.7c0,0.3,0.1,0.5,0.4,0.5c0.2,0,0.3-0.1,0.4-0.2
		l0.2,0.3c-0.2,0.1-0.3,0.2-0.7,0.2C149.4,236.3,149.2,236,149.2,235.4z"/>
	<path class="st3" d="M151.1,234.2c0-1.1,0.7-2,1.8-2c1.1,0,1.9,0.9,1.9,2s-0.7,2-1.9,2C151.8,236.3,151.1,235.4,151.1,234.2z
		 M154.3,234.2c0-0.9-0.5-1.6-1.4-1.6c-0.9,0-1.4,0.8-1.4,1.6c0,0.9,0.5,1.7,1.4,1.7C153.8,235.9,154.3,235.1,154.3,234.2z"/>
	<path class="st3" d="M156.3,235.6v2.1h-0.4v-5.3h0.4v0.6c0.3-0.4,0.8-0.7,1.3-0.7c1,0,1.7,0.8,1.7,2c0,1.2-0.7,2-1.7,2
		C157.1,236.3,156.6,236,156.3,235.6z M158.9,234.2c0-0.9-0.5-1.6-1.4-1.6c-0.5,0-1,0.3-1.3,0.7v1.9c0.2,0.4,0.7,0.7,1.3,0.7
		C158.4,235.9,158.9,235.2,158.9,234.2z"/>
	<path class="st3" d="M164.9,236.2v-0.5c-0.3,0.4-0.8,0.6-1.3,0.6c-0.7,0-1.4-0.5-1.4-1.3c0-0.8,0.7-1.3,1.4-1.3
		c0.5,0,1,0.2,1.3,0.6v-0.8c0-0.6-0.5-0.9-1-0.9c-0.5,0-0.9,0.2-1.2,0.6l-0.2-0.3c0.4-0.4,0.8-0.6,1.5-0.6c0.8,0,1.4,0.4,1.4,1.2
		v2.7H164.9z M164.9,235.4v-0.8c-0.3-0.4-0.7-0.5-1.2-0.5c-0.6,0-1.1,0.4-1.1,1c0,0.5,0.4,1,1.1,1
		C164.2,236,164.6,235.8,164.9,235.4z"/>
	<path class="st3" d="M169.2,236.2v-2.6c0-0.7-0.4-1-0.9-1c-0.5,0-1,0.3-1.3,0.7v2.9h-0.4v-3.9h0.4v0.6c0.3-0.3,0.8-0.7,1.4-0.7
		c0.8,0,1.2,0.4,1.2,1.3v2.7H169.2z"/>
	<path class="st3" d="M173.8,236.2v-0.6c-0.3,0.4-0.8,0.7-1.3,0.7c-1,0-1.7-0.8-1.7-2c0-1.2,0.7-2,1.7-2c0.6,0,1,0.3,1.3,0.7v-2.1
		h0.4v5.3H173.8z M173.8,235.2v-1.9c-0.2-0.4-0.7-0.7-1.3-0.7c-0.9,0-1.4,0.7-1.4,1.7c0,0.9,0.5,1.6,1.4,1.6
		C173.1,235.9,173.6,235.6,173.8,235.2z"/>
	<path class="st3" d="M69.8,243.9v-1.5h-2.5v-0.4l2.4-3.5h0.6v3.5H71v0.4h-0.8v1.5H69.8z M69.8,239.1l-2.1,3h2.1V239.1z"/>
	<path class="st3" d="M71.7,241.3c0-1.3,0.5-2.8,2-2.8c1.4,0,2,1.5,2,2.8c0,1.3-0.5,2.8-2,2.8C72.3,244,71.7,242.5,71.7,241.3z
		 M75.2,241.3c0-1.1-0.4-2.3-1.5-2.3c-1.1,0-1.5,1.2-1.5,2.3c0,1.1,0.4,2.3,1.5,2.3C74.8,243.6,75.2,242.4,75.2,241.3z"/>
	<path class="st3" d="M78.3,241.4v1.7H78v-1.7h-1.6v-0.3H78v-1.7h0.4v1.7h1.6v0.3H78.3z"/>
	<path class="st3" d="M82.6,242c0-1.1,0.7-2,1.8-2c1.1,0,1.9,0.9,1.9,2s-0.7,2-1.9,2C83.3,244,82.6,243.1,82.6,242z M85.9,242
		c0-0.9-0.5-1.6-1.4-1.6c-0.9,0-1.4,0.8-1.4,1.6c0,0.9,0.5,1.7,1.4,1.7C85.4,243.7,85.9,242.9,85.9,242z"/>
	<path class="st3" d="M90,243.9v-2.6c0-0.7-0.4-1-0.9-1c-0.5,0-1,0.3-1.3,0.7v2.9h-0.4v-3.9h0.4v0.6c0.3-0.3,0.8-0.7,1.4-0.7
		c0.8,0,1.2,0.4,1.2,1.3v2.7H90z"/>
	<path class="st3" d="M98.4,243.9v-2.7c0-0.5-0.2-0.9-0.8-0.9c-0.4,0-0.9,0.3-1.1,0.7v2.9h-0.4v-2.7c0-0.5-0.2-0.9-0.8-0.9
		c-0.4,0-0.9,0.3-1.1,0.7v2.9h-0.4v-3.9h0.4v0.6c0.2-0.2,0.7-0.7,1.2-0.7c0.6,0,0.9,0.4,1,0.7c0.2-0.4,0.7-0.7,1.3-0.7
		c0.7,0,1.1,0.4,1.1,1.2v2.8H98.4z"/>
	<path class="st3" d="M99.9,242c0-1.1,0.7-2,1.8-2c1.1,0,1.9,0.9,1.9,2s-0.7,2-1.9,2C100.6,244,99.9,243.1,99.9,242z M103.2,242
		c0-0.9-0.5-1.6-1.4-1.6c-0.9,0-1.4,0.8-1.4,1.6c0,0.9,0.5,1.7,1.4,1.7C102.6,243.7,103.2,242.9,103.2,242z"/>
	<path class="st3" d="M104.7,243.9v-5.3h0.4v2.1c0.3-0.4,0.8-0.7,1.3-0.7c1,0,1.7,0.8,1.7,2c0,1.2-0.7,2-1.7,2
		c-0.6,0-1.1-0.3-1.3-0.7v0.6H104.7z M106.4,243.7c0.9,0,1.4-0.7,1.4-1.6s-0.5-1.7-1.4-1.7c-0.5,0-1,0.3-1.3,0.7v1.9
		C105.3,243.3,105.8,243.7,106.4,243.7z"/>
	<path class="st3" d="M109.1,239.2c0-0.2,0.2-0.3,0.3-0.3c0.2,0,0.3,0.1,0.3,0.3c0,0.2-0.1,0.3-0.3,0.3
		C109.3,239.5,109.1,239.3,109.1,239.2z M109.2,243.9v-3.9h0.4v3.9H109.2z"/>
	<path class="st3" d="M111,243.9v-5.3h0.4v5.3H111z"/>
	<path class="st3" d="M112.4,242c0-1.1,0.8-2,1.9-2c1.2,0,1.8,0.9,1.8,2v0.1h-3.2c0,0.8,0.6,1.5,1.5,1.5c0.5,0,0.9-0.2,1.3-0.5
		l0.2,0.3c-0.4,0.4-0.9,0.6-1.5,0.6C113.2,244,112.4,243.2,112.4,242z M114.3,240.3c-0.9,0-1.4,0.8-1.4,1.5h2.8
		C115.7,241.2,115.3,240.3,114.3,240.3z"/>
	<path class="st3" d="M119.1,242c0-1.1,0.7-2,1.9-2c0.7,0,1.1,0.3,1.4,0.7l-0.3,0.3c-0.3-0.4-0.6-0.5-1.1-0.5
		c-0.9,0-1.5,0.7-1.5,1.6c0,0.9,0.6,1.7,1.5,1.7c0.4,0,0.8-0.2,1.1-0.5l0.3,0.3c-0.3,0.4-0.7,0.7-1.4,0.7
		C119.8,244,119.1,243.1,119.1,242z"/>
	<path class="st3" d="M125.8,243.9v-2.6c0-0.7-0.4-1-0.9-1c-0.5,0-1,0.3-1.3,0.7v2.9h-0.4v-5.3h0.4v2.1c0.3-0.3,0.8-0.7,1.4-0.7
		c0.8,0,1.2,0.4,1.2,1.2v2.7H125.8z"/>
	<path class="st3" d="M130,243.9v-0.5c-0.3,0.4-0.8,0.6-1.3,0.6c-0.7,0-1.4-0.5-1.4-1.3c0-0.8,0.7-1.3,1.4-1.3c0.5,0,1,0.2,1.3,0.6
		v-0.8c0-0.6-0.5-0.9-1-0.9c-0.5,0-0.9,0.2-1.2,0.6l-0.2-0.3c0.4-0.4,0.8-0.6,1.5-0.6c0.8,0,1.4,0.4,1.4,1.2v2.7H130z M130,243.2
		v-0.8c-0.3-0.4-0.7-0.5-1.2-0.5c-0.6,0-1.1,0.4-1.1,1c0,0.5,0.4,1,1.1,1C129.3,243.7,129.7,243.5,130,243.2z"/>
	<path class="st3" d="M134.3,243.9v-2.6c0-0.7-0.4-1-0.9-1c-0.5,0-1,0.3-1.3,0.7v2.9h-0.4v-3.9h0.4v0.6c0.3-0.3,0.8-0.7,1.4-0.7
		c0.8,0,1.2,0.4,1.2,1.3v2.7H134.3z"/>
	<path class="st3" d="M138.6,243.9v-2.6c0-0.7-0.4-1-0.9-1c-0.5,0-1,0.3-1.3,0.7v2.9H136v-3.9h0.4v0.6c0.3-0.3,0.8-0.7,1.4-0.7
		c0.8,0,1.2,0.4,1.2,1.3v2.7H138.6z"/>
	<path class="st3" d="M140.1,242c0-1.1,0.8-2,1.9-2c1.2,0,1.8,0.9,1.8,2v0.1h-3.2c0,0.8,0.6,1.5,1.5,1.5c0.5,0,0.9-0.2,1.3-0.5
		l0.2,0.3c-0.4,0.4-0.9,0.6-1.5,0.6C140.9,244,140.1,243.2,140.1,242z M142,240.3c-0.9,0-1.4,0.8-1.4,1.5h2.8
		C143.4,241.2,143,240.3,142,240.3z"/>
	<path class="st3" d="M144.9,243.9v-5.3h0.4v5.3H144.9z"/>
	<path class="st3" d="M146.3,243.4l0.2-0.3c0.2,0.3,0.7,0.6,1.2,0.6c0.6,0,1-0.3,1-0.8c0-1.1-2.4-0.5-2.4-1.8c0-0.6,0.5-1.1,1.4-1.1
		c0.7,0,1.1,0.3,1.4,0.6l-0.2,0.3c-0.2-0.3-0.6-0.5-1.2-0.5c-0.6,0-1,0.3-1,0.7c0,1,2.4,0.4,2.4,1.9c0,0.6-0.5,1.1-1.4,1.1
		C147.1,244,146.7,243.9,146.3,243.4z"/>
</g>
<g>
	<path class="st2" d="M129.6,49.6v-1.7c0-0.9,0.8-1.7,1.7-1.7h15.5c0.9,0,1.7,0.8,1.7,1.7v1.7l2.2-2.2c0.1-0.1,0.1-0.2,0.1-0.3
		c0-0.1-0.1-0.3-0.2-0.3l-10.6-8.2c-0.6-0.5-1.5-0.5-2.1,0l-10.6,8.2c-0.1,0.1-0.2,0.2-0.2,0.3c0,0.1,0,0.3,0.1,0.3L129.6,49.6z
		 M129.6,49.6"/>
	<path class="st2" d="M152.8,48.7c-0.2-0.1-0.4,0-0.5,0.1l-11.6,11.6c-0.4,0.4-1,0.7-1.7,0.7c-0.6,0-1.2-0.2-1.7-0.7l-11.6-11.6
		c-0.1-0.1-0.3-0.2-0.5-0.1c-0.2,0.1-0.3,0.2-0.3,0.4v14.7c0,1,0.8,1.9,1.9,1.9h24.3c1,0,1.9-0.8,1.9-1.9V49.2
		C153.1,49,153,48.8,152.8,48.7L152.8,48.7z M152.8,48.7"/>
	<path class="st2" d="M144.3,48.8h-10.4c-0.5,0-0.9,0.4-0.9,0.9c0,0.5,0.4,0.9,0.9,0.9h10.4c0.5,0,0.9-0.4,0.9-0.9
		C145.2,49.3,144.8,48.8,144.3,48.8L144.3,48.8z M144.3,48.8"/>
	<path class="st2" d="M144.3,52.6h-10.4c-0.5,0-0.9,0.4-0.9,0.9c0,0.5,0.4,0.9,0.9,0.9h10.4c0.5,0,0.9-0.4,0.9-0.9
		C145.2,53,144.8,52.6,144.3,52.6L144.3,52.6z M144.3,52.6"/>
</g>
<path class="st0" d="M103.7,141c0,3.7-3,6.6-6.6,6.6H54.3c-3.7,0-6.6-3-6.6-6.6V98.7c0-3.7,3-6.6,6.6-6.6h42.8c3.7,0,6.6,3,6.6,6.6
	V141z"/>
<g>
	<path class="st3" d="M68.1,135.9v-5.3h2c1,0,1.6,0.7,1.6,1.6s-0.6,1.6-1.6,1.6h-1.5v2.2H68.1z M71.2,132.2c0-0.7-0.5-1.1-1.2-1.1
		h-1.5v2.3H70C70.7,133.3,71.2,132.8,71.2,132.2z"/>
	<path class="st3" d="M75.1,135.9v-0.6c-0.3,0.4-0.8,0.7-1.4,0.7c-0.8,0-1.2-0.4-1.2-1.2v-2.7h0.4v2.6c0,0.8,0.4,1,0.9,1
		c0.5,0,1-0.3,1.3-0.6v-2.9h0.4v3.9H75.1z"/>
	<path class="st3" d="M76.4,135.4l0.2-0.3c0.2,0.3,0.7,0.6,1.2,0.6c0.6,0,1-0.3,1-0.8c0-1.1-2.4-0.5-2.4-1.8c0-0.6,0.5-1.1,1.4-1.1
		c0.7,0,1.1,0.3,1.4,0.6l-0.2,0.3c-0.2-0.3-0.6-0.5-1.2-0.5c-0.6,0-1,0.3-1,0.7c0,1,2.4,0.4,2.4,1.9c0,0.6-0.5,1.1-1.4,1.1
		C77.2,136,76.7,135.9,76.4,135.4z"/>
	<path class="st3" d="M82.9,135.9v-2.6c0-0.7-0.4-1-0.9-1c-0.5,0-1,0.3-1.3,0.7v2.9h-0.4v-5.3h0.4v2.1c0.3-0.3,0.8-0.7,1.4-0.7
		c0.8,0,1.2,0.4,1.2,1.2v2.7H82.9z"/>
	<path class="st3" d="M61.3,144.5l-3.4-4.6v4.6h-0.5v-5.3H58l3.3,4.5v-4.5h0.5v5.3H61.3z"/>
	<path class="st3" d="M62.8,142.5c0-1.1,0.7-2,1.8-2c1.1,0,1.9,0.9,1.9,2s-0.7,2-1.9,2C63.5,144.6,62.8,143.7,62.8,142.5z M66,142.5
		c0-0.9-0.5-1.6-1.4-1.6c-0.9,0-1.4,0.8-1.4,1.6c0,0.9,0.5,1.7,1.4,1.7C65.5,144.2,66,143.4,66,142.5z"/>
	<path class="st3" d="M67.5,143.7V141h-0.6v-0.4h0.6v-1.1h0.4v1.1h0.8v0.4h-0.8v2.7c0,0.3,0.1,0.5,0.4,0.5c0.2,0,0.3-0.1,0.4-0.2
		l0.2,0.3c-0.2,0.1-0.3,0.2-0.7,0.2C67.7,144.6,67.5,144.3,67.5,143.7z"/>
	<path class="st3" d="M69.4,139.7c0-0.2,0.2-0.3,0.3-0.3c0.2,0,0.3,0.1,0.3,0.3c0,0.2-0.1,0.3-0.3,0.3
		C69.5,140,69.4,139.9,69.4,139.7z M69.5,144.5v-3.9h0.4v3.9H69.5z"/>
	<path class="st3" d="M71.2,144.5V141h-0.6v-0.4h0.6v-0.4c0-0.8,0.4-1.2,1-1.2c0.2,0,0.4,0,0.5,0.1l-0.1,0.3
		c-0.1-0.1-0.2-0.1-0.4-0.1c-0.4,0-0.7,0.3-0.7,0.8v0.4h0.8v0.4h-0.8v3.5H71.2z M73.1,139.7c0-0.2,0.2-0.3,0.3-0.3
		c0.2,0,0.3,0.1,0.3,0.3c0,0.2-0.1,0.3-0.3,0.3C73.2,140,73.1,139.9,73.1,139.7z M73.2,144.5v-3.9h0.4v3.9H73.2z"/>
	<path class="st3" d="M74.6,142.5c0-1.1,0.7-2,1.9-2c0.7,0,1.1,0.3,1.4,0.7l-0.3,0.3c-0.3-0.4-0.6-0.5-1.1-0.5
		c-0.9,0-1.5,0.7-1.5,1.6c0,0.9,0.6,1.7,1.5,1.7c0.4,0,0.8-0.2,1.1-0.5l0.3,0.3c-0.3,0.4-0.7,0.7-1.4,0.7
		C75.3,144.6,74.6,143.7,74.6,142.5z"/>
	<path class="st3" d="M81.1,144.5V144c-0.3,0.4-0.8,0.6-1.3,0.6c-0.7,0-1.4-0.5-1.4-1.3c0-0.8,0.7-1.3,1.4-1.3c0.5,0,1,0.2,1.3,0.6
		v-0.8c0-0.6-0.5-0.9-1-0.9c-0.5,0-0.9,0.2-1.2,0.6l-0.2-0.3c0.4-0.4,0.8-0.6,1.5-0.6c0.8,0,1.4,0.4,1.4,1.2v2.7H81.1z M81.1,143.7
		v-0.8c-0.3-0.4-0.7-0.5-1.2-0.5c-0.6,0-1.1,0.4-1.1,1c0,0.5,0.4,1,1.1,1C80.4,144.2,80.8,144.1,81.1,143.7z"/>
	<path class="st3" d="M82.8,143.7V141h-0.6v-0.4h0.6v-1.1h0.4v1.1H84v0.4h-0.8v2.7c0,0.3,0.1,0.5,0.4,0.5c0.2,0,0.3-0.1,0.4-0.2
		l0.2,0.3c-0.2,0.1-0.3,0.2-0.7,0.2C83,144.6,82.8,144.3,82.8,143.7z"/>
	<path class="st3" d="M84.6,139.7c0-0.2,0.2-0.3,0.3-0.3c0.2,0,0.3,0.1,0.3,0.3c0,0.2-0.1,0.3-0.3,0.3
		C84.8,140,84.6,139.9,84.6,139.7z M84.8,144.5v-3.9h0.4v3.9H84.8z"/>
	<path class="st3" d="M86.1,142.5c0-1.1,0.7-2,1.8-2c1.1,0,1.9,0.9,1.9,2s-0.7,2-1.9,2C86.8,144.6,86.1,143.7,86.1,142.5z
		 M89.4,142.5c0-0.9-0.5-1.6-1.4-1.6c-0.9,0-1.4,0.8-1.4,1.6c0,0.9,0.5,1.7,1.4,1.7C88.9,144.2,89.4,143.4,89.4,142.5z"/>
	<path class="st3" d="M93.4,144.5v-2.6c0-0.7-0.4-1-0.9-1c-0.5,0-1,0.3-1.3,0.7v2.9h-0.4v-3.9h0.4v0.6c0.3-0.3,0.8-0.7,1.4-0.7
		c0.8,0,1.2,0.4,1.2,1.3v2.7H93.4z"/>
</g>
<g>
	<path class="st2" d="M70.8,101.4l-1.7-1.7c-3,2.2-5,5.7-5.2,9.7h2.5C66.6,105.9,68.2,103.1,70.8,101.4L70.8,101.4z M87.4,109.3h2.5
		c-0.2-4-2.1-7.4-5.1-9.7l-1.7,1.7C85.6,103.1,87.2,105.9,87.4,109.3L87.4,109.3z M85,109.9c0-3.9-2.6-7-6.2-7.8v-0.9
		c0-1-0.9-1.9-1.9-1.9c-1,0-1.9,0.9-1.9,1.9v0.9c-3.6,0.9-6.2,4-6.2,7.8v6.8l-2.5,2.5v1.2h21.1v-1.2l-2.5-2.5V109.9z M76.9,124.2
		h0.5c0.9-0.1,1.5-0.7,1.7-1.5c0.1-0.2,0.2-0.6,0.2-1h-5C74.4,123.1,75.5,124.2,76.9,124.2L76.9,124.2z M76.9,124.2"/>
</g>
<g>
	<path class="st2" d="M91.1,200.5H92v11.3h-0.9v-0.9c-0.5,0.7-1.5,1.1-2.3,1.1c-1.9,0-3.2-1.4-3.2-4.1c0-2.8,1.3-4.1,3.2-4.1
		c0.9,0,1.8,0.4,2.3,1V200.5z M91.1,205.8c-0.4-0.8-1.3-1.3-2.2-1.3c-1.4,0-2.3,1-2.3,3.3c0,2.3,0.9,3.3,2.3,3.3
		c0.9,0,1.9-0.7,2.3-1.4V205.8z"/>
	<path class="st2" d="M96.4,203.7c2.2,0,3.5,1.6,3.5,4.1c0,2.5-1.2,4.1-3.4,4.1c-2.2,0-3.4-1.7-3.4-4.2
		C93,205.4,94.2,203.7,96.4,203.7z M98.9,207.9c0-1.9-1-3.3-2.5-3.3c-1.6,0-2.5,1.3-2.5,3.3c0,1.9,1,3.3,2.5,3.3
		C98,211.1,98.9,209.8,98.9,207.9z"/>
	<path class="st2" d="M103.4,212c-1.7,0-2.6-0.8-2.6-2.4v-5.6h0.9v5.5c0,1.2,0.6,1.7,1.9,1.7c1,0,1.9-0.7,2.3-1.5v-5.7h0.9v7.9h-0.9
		v-1.1C105.4,211.4,104.3,212,103.4,212z"/>
	<path class="st2" d="M109.1,211.8h-0.9v-11.3h0.9v4.2c0.6-0.6,1.4-1,2.3-1c1.9,0,3.2,1.4,3.2,4.1c0,2.8-1.2,4.1-3.2,4.1
		c-0.8,0-1.8-0.5-2.3-1.1V211.8z M109.1,209.7c0.4,0.8,1.4,1.4,2.3,1.4c1.4,0,2.3-0.9,2.3-3.3c0-2.3-0.9-3.3-2.3-3.3
		c-1,0-1.9,0.5-2.2,1.3V209.7z"/>
	<path class="st2" d="M115.9,200.5h0.9v11.3h-0.9V200.5z"/>
	<path class="st2" d="M121.3,211.1c1.1,0,1.9-0.6,2.1-2.1l0.9,0.1c-0.3,1.9-1.5,2.8-3.1,2.8c-2,0-3.3-1.4-3.3-4.2
		c0-2.5,1.1-4.1,3.2-4.1c2.2,0,3.2,1.7,3.2,4v0.3H119C119,210.2,119.9,211.1,121.3,211.1z M123.4,207.2L123.4,207.2
		c-0.1-1.5-0.8-2.6-2.2-2.6c-1.4,0-2.2,1-2.3,2.6H123.4z"/>
	<path class="st2" d="M126.2,207.9c0,1.8,0.7,3.3,2.4,3.3c1.1,0,2.1-0.6,2.3-2.1l0.9,0.1c-0.3,1.9-1.7,2.8-3.2,2.8
		c-2.2,0-3.3-1.6-3.3-4.1c0-2.6,1.1-4.1,3.3-4.1c1.6,0,2.9,0.8,3.2,2.7l-0.9,0.1c-0.3-1.5-1.2-2-2.3-2
		C126.8,204.6,126.2,206,126.2,207.9z"/>
	<path class="st2" d="M133,200.5h0.9v11.3H133V200.5z"/>
	<path class="st2" d="M135.7,201h0.9v1.6h-0.9V201z M135.7,203.9h0.9v7.9h-0.9V203.9z"/>
	<path class="st2" d="M138.8,207.9c0,1.8,0.7,3.3,2.4,3.3c1.1,0,2.1-0.6,2.3-2.1l0.9,0.1c-0.3,1.9-1.7,2.8-3.2,2.8
		c-2.2,0-3.3-1.6-3.3-4.1c0-2.6,1.1-4.1,3.3-4.1c1.6,0,2.9,0.8,3.2,2.7l-0.9,0.1c-0.3-1.5-1.2-2-2.3-2
		C139.4,204.6,138.8,206,138.8,207.9z"/>
	<path class="st2" d="M151.8,211.8h-1l-2.4-4.3l-1.8,2v2.3h-0.9v-11.3h0.9v7.8l3.9-4.4h1.1l-2.6,2.9L151.8,211.8z"/>
	<g>
		<g>
			<path class="st2" d="M86.4,220.8h-0.6v-4.6h0.6v1.7c0.2-0.3,0.6-0.4,1-0.4c0.9,0,1.5,0.6,1.5,1.7c0,1.2-0.6,1.7-1.5,1.7
				c-0.4,0-0.8-0.2-1-0.5V220.8z M86.4,219.8c0.1,0.3,0.5,0.6,0.9,0.6c0.6,0,1-0.4,1-1.2c0-0.8-0.4-1.2-1-1.2
				c-0.4,0-0.8,0.2-0.9,0.5V219.8z"/>
			<path class="st2" d="M91.6,217.5h0.6l-1.1,3.2c-0.3,0.8-0.6,1.3-1.5,1.3c-0.1,0-0.3,0-0.4,0v-0.5c0.1,0,0.2,0,0.3,0
				c0.4,0,0.7-0.2,0.8-0.5l0.1-0.2l-1.4-3.3h0.7l1,2.6L91.6,217.5z"/>
		</g>
		<g>
			<path class="st2" d="M114.6,220.3l-0.4,0.3c-0.1,0-0.2,0.1-0.2,0.1c-0.2,0.1-0.5,0.1-0.7,0.1c-0.2,0-0.6,0-1-0.3
				c-0.5-0.4-0.7-1-0.7-1.5c0-1.1,0.9-1.7,1.7-1.7c0.3,0,0.5,0.1,0.7,0.2c0.4,0.2,0.5,0.6,0.5,0.7l-1.7,0.7l-0.6,0
				c0.2,0.9,0.8,1.5,1.5,1.5C114.1,220.5,114.3,220.4,114.6,220.3C114.6,220.3,114.6,220.3,114.6,220.3z M113.5,218.5
				c0.1,0,0.2-0.1,0.2-0.2c0-0.3-0.3-0.6-0.7-0.6c-0.3,0-0.8,0.2-0.8,1c0,0.1,0,0.3,0,0.4L113.5,218.5z"/>
			<path class="st2" d="M111,220.3c0,0.3,0,0.3,0.3,0.4c0.1,0,0.2,0,0.4,0l-0.3,0.2h-1.3c0.2-0.2,0.2-0.2,0.2-0.4v-0.2l0-4.3h-0.6
				l0.5-0.3h1c-0.2,0.1-0.3,0.2-0.3,0.5V220.3z"/>
			<path class="st2" d="M109,217.8c0.2,0.1,0.5,0.4,0.5,1c0,0.5-0.3,0.8-0.6,1c-0.1,0.1-0.2,0.2-0.2,0.4c0,0.2,0.1,0.2,0.2,0.3
				l0.3,0.2c0.3,0.3,0.6,0.5,0.6,1c0,0.7-0.7,1.4-1.9,1.4c-1.1,0-1.6-0.5-1.6-1c0-0.3,0.1-0.6,0.6-0.9c0.5-0.3,1.1-0.3,1.4-0.3
				c-0.1-0.1-0.2-0.3-0.2-0.5c0-0.1,0-0.2,0.1-0.3c-0.1,0-0.2,0-0.2,0c-0.8,0-1.2-0.6-1.2-1.1c0-0.3,0.2-0.7,0.5-1
				c0.4-0.3,0.9-0.4,1.3-0.4h1.5l-0.5,0.3H109z M108.5,221c-0.1,0-0.1,0-0.2,0c-0.1,0-0.5,0-0.8,0.1c-0.2,0.1-0.6,0.2-0.6,0.7
				c0,0.5,0.5,0.9,1.3,0.9c0.7,0,1.1-0.3,1.1-0.8C109.3,221.6,109,221.4,108.5,221z M108.7,219.6c0.2-0.2,0.2-0.4,0.2-0.5
				c0-0.5-0.3-1.3-0.9-1.3c-0.2,0-0.4,0.1-0.5,0.2c-0.1,0.2-0.2,0.4-0.2,0.5c0,0.5,0.3,1.3,0.9,1.3
				C108.4,219.8,108.6,219.7,108.7,219.6z"/>
			<path class="st2" d="M104.5,220.9c-1.2,0-1.8-0.9-1.8-1.7c0-1,0.8-1.8,1.9-1.8c1.1,0,1.7,0.8,1.7,1.7
				C106.3,220,105.7,220.9,104.5,220.9z M105.4,220.3c0.2-0.2,0.2-0.5,0.2-0.8c0-0.6-0.3-1.9-1.2-1.9c-0.2,0-0.5,0.1-0.7,0.2
				c-0.3,0.3-0.3,0.6-0.3,0.9c0,0.7,0.4,1.9,1.2,1.9C104.9,220.7,105.2,220.5,105.4,220.3z"/>
			<path class="st2" d="M100.6,220.9c-1.2,0-1.8-0.9-1.8-1.7c0-1,0.8-1.8,1.9-1.8c1.1,0,1.7,0.8,1.7,1.7
				C102.5,220,101.8,220.9,100.6,220.9z M101.5,220.3c0.2-0.2,0.2-0.5,0.2-0.8c0-0.6-0.3-1.9-1.2-1.9c-0.2,0-0.5,0.1-0.7,0.2
				c-0.3,0.3-0.3,0.6-0.3,0.9c0,0.7,0.4,1.9,1.2,1.9C101.1,220.7,101.4,220.5,101.5,220.3z"/>
			<path class="st2" d="M98.4,220.6l-1,0.2c-0.4,0.1-0.8,0.1-1.1,0.1c-1.9,0-2.6-1.4-2.6-2.5c0-1.3,1-2.6,2.8-2.6
				c0.4,0,0.7,0.1,1,0.1c0.5,0.1,0.8,0.3,0.9,0.4l-0.6,0.5l-0.2,0.1l0.2-0.3c-0.2-0.2-0.7-0.6-1.5-0.6c-1.1,0-1.9,0.8-1.9,2
				c0,1.3,0.9,2.5,2.4,2.5c0.4,0,0.7-0.1,0.9-0.2v-1.1l-1,0.1l0.6-0.3h1.4l-0.2,0.2c0,0-0.1,0.1-0.1,0.1c0,0.1,0,0.3,0,0.3V220.6z"
				/>
			<g>
				<path class="st2" d="M114.9,217.5v0.5h-0.1L114.9,217.5h-0.2v0h0.4v0H114.9z"/>
				<path class="st2" d="M115.5,218v-0.5h0l-0.1,0.5h0l-0.1-0.5l0,0v0.5h-0.1v-0.5h0.1l0.1,0.4h0l0.1-0.4h0.1L115.5,218L115.5,218z"
					/>
			</g>
		</g>
	</g>
	<path class="st2" d="M72.3,209c3.1,0,5.9,1.7,7.3,4.2c0.7-1.2,1.1-2.7,1.1-4.2c0-4.7-3.8-8.5-8.5-8.5c-4.7,0-8.5,3.8-8.5,8.5
		c0,1.5,0.4,3,1.1,4.2C66.5,210.7,69.2,209,72.3,209z"/>
	<path class="st2" d="M72.3,217.5c-3.1,0-5.9-1.7-7.3-4.2c-0.7,1.2-1.1,2.7-1.1,4.2c0,4.7,3.8,8.5,8.5,8.5c4.7,0,8.5-3.8,8.5-8.5
		c0-1.5-0.4-3-1.1-4.2C78.2,215.8,75.5,217.5,72.3,217.5z"/>
</g>
<path class="st0" d="M200.4,306.1c0,3.7-3,6.6-6.6,6.6H23.5c-3.7,0-6.6-3-6.6-6.6v-42.3c0-3.7,3-6.6,6.6-6.6h170.3
	c3.7,0,6.6,3,6.6,6.6V306.1z"/>
<g>
	<path class="st3" d="M26.8,299.8l0.3-0.3c0.3,0.4,0.9,0.8,1.7,0.8c1.1,0,1.4-0.6,1.4-1.1c0-1.6-3.2-0.8-3.2-2.6
		c0-0.9,0.8-1.4,1.8-1.4c0.8,0,1.4,0.3,1.8,0.8l-0.3,0.3c-0.4-0.5-0.9-0.7-1.5-0.7c-0.7,0-1.2,0.4-1.2,1c0,1.4,3.2,0.6,3.2,2.6
		c0,0.7-0.5,1.5-1.9,1.5C27.9,300.6,27.2,300.3,26.8,299.8z"/>
	<path class="st3" d="M31.5,298.6c0-1.1,0.7-2,1.8-2c1.1,0,1.9,0.9,1.9,2c0,1.1-0.7,2-1.9,2C32.2,300.6,31.5,299.7,31.5,298.6z
		 M34.8,298.6c0-0.9-0.5-1.6-1.4-1.6c-0.9,0-1.4,0.8-1.4,1.6c0,0.9,0.5,1.7,1.4,1.7C34.3,300.3,34.8,299.5,34.8,298.6z"/>
	<path class="st3" d="M36.1,298.6c0-1.1,0.7-2,1.9-2c0.7,0,1.1,0.3,1.4,0.7l-0.3,0.3c-0.3-0.4-0.6-0.5-1.1-0.5
		c-0.9,0-1.5,0.7-1.5,1.6c0,0.9,0.6,1.7,1.5,1.7c0.4,0,0.8-0.2,1.1-0.5l0.3,0.3c-0.3,0.4-0.7,0.7-1.4,0.7
		C36.8,300.6,36.1,299.7,36.1,298.6z"/>
	<path class="st3" d="M40.1,295.7c0-0.2,0.2-0.3,0.3-0.3c0.2,0,0.3,0.1,0.3,0.3s-0.1,0.3-0.3,0.3C40.3,296.1,40.1,295.9,40.1,295.7z
		 M40.3,300.5v-3.9h0.4v3.9H40.3z"/>
	<path class="st3" d="M44.4,300.5v-0.5c-0.3,0.4-0.8,0.6-1.3,0.6c-0.7,0-1.4-0.5-1.4-1.3c0-0.8,0.7-1.3,1.4-1.3c0.5,0,1,0.2,1.3,0.6
		v-0.8c0-0.6-0.5-0.9-1-0.9c-0.5,0-0.9,0.2-1.2,0.6l-0.2-0.3c0.4-0.4,0.8-0.6,1.5-0.6c0.8,0,1.4,0.4,1.4,1.2v2.7H44.4z M44.4,299.8
		v-0.8c-0.3-0.4-0.7-0.5-1.2-0.5c-0.6,0-1.1,0.4-1.1,1c0,0.5,0.4,1,1.1,1C43.7,300.3,44.1,300.1,44.4,299.8z"/>
	<path class="st3" d="M46.1,300.5v-5.3h0.4v5.3H46.1z"/>
	<path class="st3" d="M49.7,298.6c0-1.1,0.7-2,1.9-2c0.7,0,1.1,0.3,1.4,0.7l-0.3,0.3c-0.3-0.4-0.6-0.5-1.1-0.5
		c-0.9,0-1.5,0.7-1.5,1.6c0,0.9,0.6,1.7,1.5,1.7c0.4,0,0.8-0.2,1.1-0.5l0.3,0.3c-0.3,0.4-0.7,0.7-1.4,0.7
		C50.4,300.6,49.7,299.7,49.7,298.6z"/>
	<path class="st3" d="M56.5,300.5v-2.6c0-0.7-0.4-1-0.9-1c-0.5,0-1,0.3-1.3,0.7v2.9h-0.4v-5.3h0.4v2.1c0.3-0.3,0.8-0.7,1.4-0.7
		c0.8,0,1.2,0.4,1.2,1.2v2.7H56.5z"/>
	<path class="st3" d="M60.6,300.5v-0.5c-0.3,0.4-0.8,0.6-1.3,0.6c-0.7,0-1.4-0.5-1.4-1.3c0-0.8,0.7-1.3,1.4-1.3c0.5,0,1,0.2,1.3,0.6
		v-0.8c0-0.6-0.5-0.9-1-0.9c-0.5,0-0.9,0.2-1.2,0.6l-0.2-0.3c0.4-0.4,0.8-0.6,1.5-0.6c0.8,0,1.4,0.4,1.4,1.2v2.7H60.6z M60.6,299.8
		v-0.8c-0.3-0.4-0.7-0.5-1.2-0.5c-0.6,0-1.1,0.4-1.1,1c0,0.5,0.4,1,1.1,1C59.9,300.3,60.4,300.1,60.6,299.8z"/>
	<path class="st3" d="M65,300.5v-2.6c0-0.7-0.4-1-0.9-1c-0.5,0-1,0.3-1.3,0.7v2.9h-0.4v-3.9h0.4v0.6c0.3-0.3,0.8-0.7,1.4-0.7
		c0.8,0,1.2,0.4,1.2,1.3v2.7H65z"/>
	<path class="st3" d="M69.3,300.5v-2.6c0-0.7-0.4-1-0.9-1c-0.5,0-1,0.3-1.3,0.7v2.9h-0.4v-3.9h0.4v0.6c0.3-0.3,0.8-0.7,1.4-0.7
		c0.8,0,1.2,0.4,1.2,1.3v2.7H69.3z"/>
	<path class="st3" d="M70.8,298.6c0-1.1,0.8-2,1.9-2c1.2,0,1.8,0.9,1.8,2v0.1h-3.2c0,0.8,0.6,1.5,1.5,1.5c0.5,0,0.9-0.2,1.3-0.5
		l0.2,0.3c-0.4,0.4-0.9,0.6-1.5,0.6C71.6,300.6,70.8,299.8,70.8,298.6z M72.6,296.9c-0.9,0-1.4,0.8-1.4,1.5H74
		C74,297.7,73.6,296.9,72.6,296.9z"/>
	<path class="st3" d="M75.5,300.5v-5.3H76v5.3H75.5z"/>
	<path class="st3" d="M76.9,300l0.2-0.3c0.2,0.3,0.7,0.6,1.2,0.6c0.6,0,1-0.3,1-0.8c0-1.1-2.4-0.5-2.4-1.8c0-0.6,0.5-1.1,1.4-1.1
		c0.7,0,1.1,0.3,1.4,0.6l-0.2,0.3c-0.2-0.3-0.6-0.5-1.2-0.5c-0.6,0-1,0.3-1,0.7c0,1,2.4,0.4,2.4,1.9c0,0.6-0.5,1.1-1.4,1.1
		C77.8,300.6,77.3,300.4,76.9,300z"/>
	<path class="st3" d="M83,300.5v-5.3h3.4v0.4h-2.9v2h2.9v0.4h-2.9v2.5H83z"/>
	<path class="st3" d="M89.8,300.5v-0.5c-0.3,0.4-0.8,0.6-1.3,0.6c-0.7,0-1.4-0.5-1.4-1.3c0-0.8,0.7-1.3,1.4-1.3c0.5,0,1,0.2,1.3,0.6
		v-0.8c0-0.6-0.5-0.9-1-0.9c-0.5,0-0.9,0.2-1.2,0.6l-0.2-0.3c0.4-0.4,0.8-0.6,1.5-0.6c0.8,0,1.4,0.4,1.4,1.2v2.7H89.8z M89.8,299.8
		v-0.8c-0.3-0.4-0.7-0.5-1.2-0.5c-0.6,0-1.1,0.4-1.1,1c0,0.5,0.4,1,1.1,1C89.1,300.3,89.5,300.1,89.8,299.8z"/>
	<path class="st3" d="M91.3,298.6c0-1.1,0.7-2,1.9-2c0.7,0,1.1,0.3,1.4,0.7l-0.3,0.3c-0.3-0.4-0.6-0.5-1.1-0.5
		c-0.9,0-1.5,0.7-1.5,1.6c0,0.9,0.6,1.7,1.5,1.7c0.4,0,0.8-0.2,1.1-0.5l0.3,0.3c-0.3,0.4-0.7,0.7-1.4,0.7
		C92,300.6,91.3,299.7,91.3,298.6z"/>
	<path class="st3" d="M95.2,298.6c0-1.1,0.8-2,1.9-2c1.2,0,1.8,0.9,1.8,2v0.1h-3.2c0,0.8,0.6,1.5,1.5,1.5c0.5,0,0.9-0.2,1.3-0.5
		l0.2,0.3c-0.4,0.4-0.9,0.6-1.5,0.6C96,300.6,95.2,299.8,95.2,298.6z M97.1,296.9c-0.9,0-1.4,0.8-1.4,1.5h2.8
		C98.5,297.7,98,296.9,97.1,296.9z"/>
	<path class="st3" d="M100,300.5v-5.3h0.4v2.1c0.3-0.4,0.8-0.7,1.3-0.7c1,0,1.7,0.8,1.7,2c0,1.2-0.7,2-1.7,2c-0.6,0-1.1-0.3-1.3-0.7
		v0.6H100z M101.7,300.3c0.9,0,1.4-0.7,1.4-1.6s-0.5-1.7-1.4-1.7c-0.5,0-1,0.3-1.3,0.7v1.9C100.6,299.9,101.1,300.3,101.7,300.3z"/>
	<path class="st3" d="M104.3,298.6c0-1.1,0.7-2,1.8-2c1.1,0,1.9,0.9,1.9,2c0,1.1-0.7,2-1.9,2C105.1,300.6,104.3,299.7,104.3,298.6z
		 M107.6,298.6c0-0.9-0.5-1.6-1.4-1.6c-0.9,0-1.4,0.8-1.4,1.6c0,0.9,0.5,1.7,1.4,1.7C107.1,300.3,107.6,299.5,107.6,298.6z"/>
	<path class="st3" d="M108.9,298.6c0-1.1,0.7-2,1.8-2c1.1,0,1.9,0.9,1.9,2c0,1.1-0.7,2-1.9,2C109.6,300.6,108.9,299.7,108.9,298.6z
		 M112.2,298.6c0-0.9-0.5-1.6-1.4-1.6c-0.9,0-1.4,0.8-1.4,1.6c0,0.9,0.5,1.7,1.4,1.7C111.7,300.3,112.2,299.5,112.2,298.6z"/>
	<path class="st3" d="M116.4,300.5l-1.5-1.8l-0.7,0.7v1.2h-0.4v-5.3h0.4v3.7l2.3-2.2h0.6l-1.8,1.7l1.8,2.1H116.4z"/>
	<path class="st3" d="M117.8,301.5l-0.2-0.2c0.3-0.2,0.4-0.5,0.5-0.7c0,0-0.1,0-0.1,0c-0.2,0-0.3-0.1-0.3-0.3c0-0.2,0.2-0.3,0.3-0.3
		c0.2,0,0.4,0.2,0.4,0.5C118.4,300.9,118.1,301.3,117.8,301.5z"/>
	<path class="st3" d="M122.9,300.5v-4.9h-1.7v-0.4h3.9v0.4h-1.7v4.9H122.9z"/>
	<path class="st3" d="M128.8,300.5l-1.1-3.3l-1.1,3.3h-0.4l-1.3-3.9h0.4l1,3.3l1.1-3.3h0.4l1.1,3.3l1-3.3h0.4l-1.3,3.9H128.8z"/>
	<path class="st3" d="M131.2,295.7c0-0.2,0.2-0.3,0.3-0.3c0.2,0,0.3,0.1,0.3,0.3s-0.1,0.3-0.3,0.3
		C131.3,296.1,131.2,295.9,131.2,295.7z M131.3,300.5v-3.9h0.4v3.9H131.3z"/>
	<path class="st3" d="M133.1,299.8V297h-0.6v-0.4h0.6v-1.1h0.4v1.1h0.8v0.4h-0.8v2.7c0,0.3,0.1,0.5,0.4,0.5c0.2,0,0.3-0.1,0.4-0.2
		l0.2,0.3c-0.2,0.1-0.3,0.2-0.7,0.2C133.3,300.6,133.1,300.3,133.1,299.8z"/>
	<path class="st3" d="M135.3,299.8V297h-0.6v-0.4h0.6v-1.1h0.4v1.1h0.8v0.4h-0.8v2.7c0,0.3,0.1,0.5,0.4,0.5c0.2,0,0.3-0.1,0.4-0.2
		l0.2,0.3c-0.2,0.1-0.3,0.2-0.7,0.2C135.5,300.6,135.3,300.3,135.3,299.8z"/>
	<path class="st3" d="M137.2,298.6c0-1.1,0.8-2,1.9-2c1.2,0,1.8,0.9,1.8,2v0.1h-3.2c0,0.8,0.6,1.5,1.5,1.5c0.5,0,0.9-0.2,1.3-0.5
		l0.2,0.3c-0.4,0.4-0.9,0.6-1.5,0.6C138,300.6,137.2,299.8,137.2,298.6z M139,296.9c-0.9,0-1.4,0.8-1.4,1.5h2.8
		C140.4,297.7,140,296.9,139,296.9z"/>
	<path class="st3" d="M141.9,300.5v-3.9h0.4v0.7c0.3-0.4,0.8-0.7,1.3-0.7v0.5c-0.1,0-0.1,0-0.2,0c-0.4,0-0.9,0.4-1.1,0.7v2.8H141.9z
		"/>
	<path class="st3" d="M149,300.5v-0.5c-0.3,0.4-0.8,0.6-1.3,0.6c-0.7,0-1.4-0.5-1.4-1.3c0-0.8,0.7-1.3,1.4-1.3c0.5,0,1,0.2,1.3,0.6
		v-0.8c0-0.6-0.5-0.9-1-0.9c-0.5,0-0.9,0.2-1.2,0.6l-0.2-0.3c0.4-0.4,0.8-0.6,1.5-0.6c0.8,0,1.4,0.4,1.4,1.2v2.7H149z M149,299.8
		v-0.8c-0.3-0.4-0.7-0.5-1.2-0.5c-0.6,0-1.1,0.4-1.1,1c0,0.5,0.4,1,1.1,1C148.3,300.3,148.7,300.1,149,299.8z"/>
	<path class="st3" d="M153.3,300.5v-2.6c0-0.7-0.4-1-0.9-1c-0.5,0-1,0.3-1.3,0.7v2.9h-0.4v-3.9h0.4v0.6c0.3-0.3,0.8-0.7,1.4-0.7
		c0.8,0,1.2,0.4,1.2,1.3v2.7H153.3z"/>
	<path class="st3" d="M157.9,300.5v-0.6c-0.3,0.4-0.8,0.7-1.3,0.7c-1,0-1.7-0.8-1.7-2c0-1.2,0.7-2,1.7-2c0.6,0,1,0.3,1.3,0.7v-2.1
		h0.4v5.3H157.9z M157.9,299.6v-1.9c-0.2-0.4-0.7-0.7-1.3-0.7c-0.9,0-1.4,0.7-1.4,1.7s0.5,1.6,1.4,1.6
		C157.1,300.3,157.6,299.9,157.9,299.6z"/>
	<path class="st3" d="M161.6,300.5v-5.3h0.5v4.9h2.6v0.4H161.6z"/>
	<path class="st3" d="M165.4,295.7c0-0.2,0.2-0.3,0.3-0.3c0.2,0,0.3,0.1,0.3,0.3s-0.1,0.3-0.3,0.3
		C165.6,296.1,165.4,295.9,165.4,295.7z M165.5,300.5v-3.9h0.4v3.9H165.5z"/>
	<path class="st3" d="M169.8,300.5v-2.6c0-0.7-0.4-1-0.9-1c-0.5,0-1,0.3-1.3,0.7v2.9h-0.4v-3.9h0.4v0.6c0.3-0.3,0.8-0.7,1.4-0.7
		c0.8,0,1.2,0.4,1.2,1.3v2.7H169.8z"/>
	<path class="st3" d="M174.2,300.5l-1.5-1.8l-0.7,0.7v1.2h-0.4v-5.3h0.4v3.7l2.3-2.2h0.6l-1.8,1.7l1.8,2.1H174.2z"/>
	<path class="st3" d="M175.4,298.6c0-1.1,0.8-2,1.9-2c1.2,0,1.8,0.9,1.8,2v0.1h-3.2c0,0.8,0.6,1.5,1.5,1.5c0.5,0,0.9-0.2,1.3-0.5
		l0.2,0.3c-0.4,0.4-0.9,0.6-1.5,0.6C176.2,300.6,175.4,299.8,175.4,298.6z M177.2,296.9c-0.9,0-1.4,0.8-1.4,1.5h2.8
		C178.6,297.7,178.2,296.9,177.2,296.9z"/>
	<path class="st3" d="M183,300.5v-0.6c-0.3,0.4-0.8,0.7-1.3,0.7c-1,0-1.7-0.8-1.7-2c0-1.2,0.7-2,1.7-2c0.6,0,1,0.3,1.3,0.7v-2.1h0.4
		v5.3H183z M183,299.6v-1.9c-0.2-0.4-0.7-0.7-1.3-0.7c-0.9,0-1.4,0.7-1.4,1.7s0.5,1.6,1.4,1.6C182.2,300.3,182.7,299.9,183,299.6z"
		/>
	<path class="st3" d="M184.7,300.5v-5.3h0.5v5.3H184.7z"/>
	<path class="st3" d="M189.1,300.5v-2.6c0-0.7-0.4-1-0.9-1c-0.5,0-1,0.3-1.3,0.7v2.9h-0.4v-3.9h0.4v0.6c0.3-0.3,0.8-0.7,1.4-0.7
		c0.8,0,1.2,0.4,1.2,1.3v2.7H189.1z"/>
</g>
<g>
	<path class="st2" d="M94,268.8c0-2.1-1.9-4-4-4H73.8c-2.1,0-4,1.9-4,4v16.2c0,2.1,1.9,4,4,4h8.1v-9.2h-3v-4h3v-1.6
		c0-2.7,2-5.2,4.5-5.2h3.3v4h-3.3c-0.4,0-0.8,0.4-0.8,1.1v1.6h4v4h-4v9.2h4.3c2.1,0,4-1.9,4-4V268.8z M94,268.8"/>
</g>
<path class="st0" d="M200.4,368.7c0,3.7-3,6.6-6.6,6.6H23.5c-3.7,0-6.6-3-6.6-6.6v-42.3c0-3.7,3-6.6,6.6-6.6h170.3
	c3.7,0,6.6,3,6.6,6.6V368.7z"/>
<g>
	<path class="st3" d="M72.6,368.4V363h0.5v5.3H72.6z"/>
	<path class="st3" d="M77,368.4v-2.6c0-0.7-0.4-1-0.9-1c-0.5,0-1,0.3-1.3,0.7v2.9h-0.4v-3.9h0.4v0.6c0.3-0.3,0.8-0.7,1.4-0.7
		c0.8,0,1.2,0.4,1.2,1.3v2.7H77z"/>
	<path class="st3" d="M78.3,366.6v-0.4h1.9v0.4H78.3z"/>
	<path class="st3" d="M83.6,368.4v-0.5c-0.3,0.4-0.8,0.6-1.3,0.6c-0.7,0-1.4-0.5-1.4-1.3c0-0.8,0.7-1.3,1.4-1.3c0.5,0,1,0.2,1.3,0.6
		v-0.8c0-0.6-0.5-0.9-1-0.9c-0.5,0-0.9,0.2-1.2,0.6l-0.2-0.3c0.4-0.4,0.8-0.6,1.5-0.6c0.8,0,1.4,0.4,1.4,1.2v2.7H83.6z M83.6,367.6
		v-0.8c-0.3-0.4-0.7-0.5-1.2-0.5c-0.6,0-1.1,0.4-1.1,1c0,0.5,0.4,1,1.1,1C82.9,368.1,83.3,367.9,83.6,367.6z"/>
	<path class="st3" d="M85.7,367.7v2.1h-0.4v-5.3h0.4v0.6c0.3-0.4,0.8-0.7,1.3-0.7c1,0,1.7,0.8,1.7,2c0,1.2-0.7,2-1.7,2
		C86.5,368.4,86,368.2,85.7,367.7z M88.3,366.4c0-0.9-0.5-1.6-1.4-1.6c-0.5,0-1,0.3-1.3,0.7v1.9c0.2,0.4,0.7,0.7,1.3,0.7
		C87.8,368.1,88.3,367.4,88.3,366.4z"/>
	<path class="st3" d="M90.2,367.7v2.1h-0.4v-5.3h0.4v0.6c0.3-0.4,0.8-0.7,1.3-0.7c1,0,1.7,0.8,1.7,2c0,1.2-0.7,2-1.7,2
		C91,368.4,90.5,368.2,90.2,367.7z M92.9,366.4c0-0.9-0.5-1.6-1.4-1.6c-0.5,0-1,0.3-1.3,0.7v1.9c0.2,0.4,0.7,0.7,1.3,0.7
		C92.4,368.1,92.9,367.4,92.9,366.4z"/>
	<path class="st3" d="M98.9,368.4v-0.5c-0.3,0.4-0.8,0.6-1.3,0.6c-0.7,0-1.4-0.5-1.4-1.3c0-0.8,0.7-1.3,1.4-1.3c0.5,0,1,0.2,1.3,0.6
		v-0.8c0-0.6-0.5-0.9-1-0.9c-0.5,0-0.9,0.2-1.2,0.6l-0.2-0.3c0.4-0.4,0.8-0.6,1.5-0.6c0.8,0,1.4,0.4,1.4,1.2v2.7H98.9z M98.9,367.6
		v-0.8c-0.3-0.4-0.7-0.5-1.2-0.5c-0.6,0-1.1,0.4-1.1,1c0,0.5,0.4,1,1.1,1C98.2,368.1,98.6,367.9,98.9,367.6z"/>
	<path class="st3" d="M103.4,368.4v-0.6c-0.3,0.4-0.8,0.7-1.3,0.7c-1,0-1.7-0.8-1.7-2c0-1.2,0.7-2,1.7-2c0.6,0,1,0.3,1.3,0.7V363
		h0.4v5.3H103.4z M103.4,367.4v-1.9c-0.2-0.4-0.7-0.7-1.3-0.7c-0.9,0-1.4,0.7-1.4,1.7s0.5,1.6,1.4,1.6
		C102.7,368.1,103.2,367.8,103.4,367.4z"/>
	<path class="st3" d="M104.8,367.8l0.2-0.3c0.2,0.3,0.7,0.6,1.2,0.6c0.6,0,1-0.3,1-0.8c0-1.1-2.4-0.5-2.4-1.8c0-0.6,0.5-1.1,1.4-1.1
		c0.7,0,1.1,0.3,1.4,0.6l-0.2,0.3c-0.2-0.3-0.6-0.5-1.2-0.5c-0.6,0-1,0.3-1,0.7c0,1,2.4,0.4,2.4,1.9c0,0.6-0.5,1.1-1.4,1.1
		C105.7,368.4,105.2,368.3,104.8,367.8z"/>
	<path class="st3" d="M110.7,366.4c0-1.1,0.7-2,1.8-2c1.1,0,1.9,0.9,1.9,2c0,1.1-0.7,2-1.9,2C111.4,368.4,110.7,367.5,110.7,366.4z
		 M113.9,366.4c0-0.9-0.5-1.6-1.4-1.6c-0.9,0-1.4,0.8-1.4,1.6c0,0.9,0.5,1.7,1.4,1.7C113.4,368.1,113.9,367.3,113.9,366.4z"/>
	<path class="st3" d="M118.1,368.4v-2.6c0-0.7-0.4-1-0.9-1c-0.5,0-1,0.3-1.3,0.7v2.9h-0.4v-3.9h0.4v0.6c0.3-0.3,0.8-0.7,1.4-0.7
		c0.8,0,1.2,0.4,1.2,1.3v2.7H118.1z"/>
	<path class="st3" d="M126.5,368.4v-2.7c0-0.5-0.2-0.9-0.8-0.9c-0.4,0-0.9,0.3-1.1,0.7v2.9h-0.4v-2.7c0-0.5-0.2-0.9-0.8-0.9
		c-0.4,0-0.9,0.3-1.1,0.7v2.9h-0.4v-3.9h0.4v0.6c0.2-0.2,0.7-0.7,1.2-0.7c0.6,0,0.9,0.4,1,0.7c0.2-0.4,0.7-0.7,1.3-0.7
		c0.7,0,1.1,0.4,1.1,1.2v2.8H126.5z"/>
	<path class="st3" d="M128,366.4c0-1.1,0.7-2,1.8-2c1.1,0,1.9,0.9,1.9,2c0,1.1-0.7,2-1.9,2C128.7,368.4,128,367.5,128,366.4z
		 M131.2,366.4c0-0.9-0.5-1.6-1.4-1.6c-0.9,0-1.4,0.8-1.4,1.6c0,0.9,0.5,1.7,1.4,1.7C130.7,368.1,131.2,367.3,131.2,366.4z"/>
	<path class="st3" d="M132.7,368.4V363h0.4v2.1c0.3-0.4,0.8-0.7,1.3-0.7c1,0,1.7,0.8,1.7,2c0,1.2-0.7,2-1.7,2
		c-0.6,0-1.1-0.3-1.3-0.7v0.6H132.7z M134.4,368.1c0.9,0,1.4-0.7,1.4-1.6s-0.5-1.7-1.4-1.7c-0.5,0-1,0.3-1.3,0.7v1.9
		C133.4,367.8,133.9,368.1,134.4,368.1z"/>
	<path class="st3" d="M137.2,363.6c0-0.2,0.2-0.3,0.3-0.3c0.2,0,0.3,0.1,0.3,0.3s-0.1,0.3-0.3,0.3
		C137.4,363.9,137.2,363.7,137.2,363.6z M137.3,368.4v-3.9h0.4v3.9H137.3z"/>
	<path class="st3" d="M139,368.4V363h0.4v5.3H139z"/>
	<path class="st3" d="M140.5,366.4c0-1.1,0.8-2,1.9-2c1.2,0,1.8,0.9,1.8,2v0.1H141c0,0.8,0.6,1.5,1.5,1.5c0.5,0,0.9-0.2,1.3-0.5
		l0.2,0.3c-0.4,0.4-0.9,0.6-1.5,0.6C141.3,368.4,140.5,367.6,140.5,366.4z M142.4,364.8c-0.9,0-1.4,0.8-1.4,1.5h2.8
		C143.8,365.6,143.3,364.8,142.4,364.8z"/>
</g>
<g>
	<path class="st13" d="M88.2,349c0,1.1,0,2.2,0,3.4c0,0.5-0.1,0.6-0.6,0.6c-0.7,0-1.6,0.2-2.1-0.1c-0.5-0.4-0.1-1.3-0.1-2
		c0-1.7,0-3.4,0-5c0.1-3,1.6-4.7,4.6-5c1.5-0.2,3-0.2,4.5,0.1c0.9,0.1,1.7,0.4,2.4,1c0.2,0.2,0.4,0.3,0.6,0.1c0.8-0.7,1.8-1,2.9-1.1
		c1.6-0.1,3.2-0.2,4.8,0.1c2.4,0.4,3.8,2.1,3.9,4.7c0.1,2.3,0,4.6,0,6.9c0,0.4-0.1,0.5-0.5,0.5c-0.6,0-1.2,0-1.8,0
		c-0.5,0-0.6-0.1-0.6-0.6c0-2.1,0-4.1,0-6.2c0-2.1-0.8-2.9-2.9-2.9c-0.7,0-1.5,0-2.2,0c-1.7,0-2.6,0.9-2.6,2.6c0,2.1,0,4.2,0,6.3
		c0,0.5-0.1,0.8-0.7,0.7c-0.7-0.1-1.6,0.3-2-0.1c-0.4-0.4-0.1-1.3-0.1-2c0-1.7,0-3.3,0-5c0-1.7-0.8-2.5-2.5-2.6c-0.9,0-1.8,0-2.7,0
		c-1.6,0-2.5,0.9-2.5,2.5C88.2,346.9,88.2,348,88.2,349z"/>
	<path class="st13" d="M83.2,349c0,1.1,0,2.2,0,3.4c0,0.6-0.2,0.7-0.7,0.6c-0.5,0-1,0-1.5,0c-0.5,0-0.6-0.1-0.6-0.6
		c0-2.1,0-4.2,0-6.2c0-2-0.8-2.8-2.8-2.8c-0.8,0-1.5,0-2.3,0c-1.7,0-2.6,0.9-2.6,2.6c0,2.1,0,4.3,0,6.4c0,0.5-0.1,0.7-0.7,0.7
		c-0.7-0.1-1.6,0.2-2-0.1c-0.4-0.4-0.1-1.3-0.1-2c0-1.7,0-3.5,0-5.2c0.1-2.8,1.6-4.5,4.3-4.8c1.7-0.2,3.3-0.2,5,0
		c2.4,0.4,3.8,2.2,3.9,4.6C83.2,346.7,83.2,347.8,83.2,349L83.2,349z"/>
	<path class="st13" d="M112.5,344c0.4-0.1,0.8-0.4,1.3-0.3c-0.7,1.5-0.4,3.1-0.4,4.7c0,1.5,0.8,2.3,2.3,2.3c2.7,0,5.4,0,8.2,0
		c0.2,0,0.5-0.1,0.5,0.3c-0.3,0.3-0.5,0.5-0.9,0.8c-1.7,0.9-3.5,1.4-5.4,1.3c-1.2-0.1-2.4,0.1-3.6-0.2c-2.1-0.5-3.4-2.2-3.4-4.3
		c0-0.7,0-1.4,0-2.1c0-0.9,0.2-1.5,0.9-2C112.2,344.1,112.3,344.1,112.5,344z"/>
	<path class="st13" d="M148.6,346.9c0,1.8,0,3.6,0,5.3c0,0.6-0.2,0.8-0.8,0.7c-0.6,0-1.1,0-1.7,0c-0.3,0-0.4-0.1-0.4-0.4
		c0-3.8,0-7.5,0-11.3c0-0.4,0.2-0.5,0.5-0.5c0.6,0,1.2,0,1.8,0c0.5,0,0.6,0.2,0.6,0.6C148.6,343.2,148.6,345.1,148.6,346.9z"/>
	<path class="st13" d="M64.9,346.9c0-1.8,0-3.7,0-5.5c0-0.5,0.1-0.7,0.6-0.6c0.5,0.1,1.1,0.1,1.6,0c0.6-0.1,0.7,0.2,0.7,0.7
		c0,3.6,0,7.3,0,10.9c0,0.5-0.1,0.7-0.7,0.7c-0.7-0.1-1.6,0.2-2-0.1c-0.4-0.4-0.1-1.3-0.1-2C64.9,349.5,64.9,348.2,64.9,346.9z"/>
	<path class="st13" d="M124.8,342.3c0.1,0.4,0.4,0.8,0.4,1.3c-0.9-0.8-2-0.6-3-0.6c-2.2,0-4.5,0-6.7,0c-1.1,0-2.2,0.2-3.2,0.8
		c-0.3,0.2-0.4,0.2-0.7,0.4c-0.2,0.1-0.5,0.3-0.6,0.6c-0.1-1.2,0.7-2.6,1.9-3.3c0.8-0.5,1.7-0.8,2.7-0.8c1.9,0,3.8,0,5.8,0
		C122.8,340.7,124,341.1,124.8,342.3z"/>
	<path class="st13" d="M124.5,351.1c0.8-0.8,1.2-1.7,1.2-2.8c0-1.5,0.1-3-0.1-4.5c-0.1-0.6-0.2-1.2-0.6-1.7
		c-0.2-0.6-0.8-0.9-1.2-1.3c2.8,0.3,4.4,2.1,4.4,4.9c0,0.8,0,1.6,0,2.4c0.2,3.1-2.4,4.6-4.5,4.8c-0.7,0.1-1.4,0-2.3,0
		c0.8-0.4,1.6-0.6,2.1-1.1C124,351.6,124.3,351.4,124.5,351.1z"/>
	<path class="st13" d="M142.7,346.6c-0.2-0.1-0.3-0.3-0.1-0.5c0.5-0.8,0.4-1.6,0.4-2.4c-0.1-1.6-0.9-2.5-2.4-2.8
		c-0.5-0.1-1-0.2-1.5-0.2c-2.8,0-5.5,0-8.3,0c-0.6,0-0.7,0.2-0.7,0.7c0,1.8,0,3.6,0,5.3c0,1.9,0,3.8,0,5.6c0,0.3,0,0.6,0.5,0.6
		c3.3,0,6.6,0,9.8,0c1,0,2-0.4,2.6-1.3C143.8,350.6,143.9,347.5,142.7,346.6z M134.3,343.3c1.6,0,3.2,0,4.8,0c0.5,0,1,0.2,1.1,0.8
		c0.1,0.7-0.2,1.1-1,1.2c-1,0-2,0-3,0c0,0,0,0,0,0c-0.9,0-1.9,0-2.8,0c-0.4,0-0.5,0-0.5-0.5C132.8,343.3,132.8,343.3,134.3,343.3z
		 M139.5,350.4c-1,0-2,0-3,0c-1,0-2,0-3,0c-0.4,0-0.6-0.1-0.6-0.5c0-2-0.1-2,1.9-2c1.5,0,3.1,0,4.6,0c1,0,1.4,0.4,1.4,1.2
		C140.8,350,140.5,350.4,139.5,350.4z"/>
</g>
<path class="st0" d="M200.4,433.3c0,3.7-3,6.6-6.6,6.6H23.5c-3.7,0-6.6-3-6.6-6.6V391c0-3.7,3-6.6,6.6-6.6h170.3
	c3.7,0,6.6,3,6.6,6.6V433.3z"/>
<g>
	<path class="st3" d="M50,433v-5.3h2c1,0,1.6,0.7,1.6,1.6c0,0.8-0.6,1.6-1.6,1.6h-1.5v2.2H50z M53.1,429.2c0-0.7-0.5-1.1-1.2-1.1
		h-1.5v2.3h1.5C52.6,430.4,53.1,429.9,53.1,429.2z"/>
	<path class="st3" d="M54.5,433v-3.9h0.4v0.7c0.3-0.4,0.8-0.7,1.3-0.7v0.5c-0.1,0-0.1,0-0.2,0c-0.4,0-0.9,0.4-1.1,0.7v2.8H54.5z"/>
	<path class="st3" d="M56.8,431.1c0-1.1,0.8-2,1.9-2c1.2,0,1.8,0.9,1.8,2v0.1h-3.2c0,0.8,0.6,1.5,1.5,1.5c0.5,0,0.9-0.2,1.3-0.5
		l0.2,0.3c-0.4,0.4-0.9,0.6-1.5,0.6C57.6,433.1,56.8,432.3,56.8,431.1z M58.7,429.4c-0.9,0-1.4,0.8-1.4,1.5h2.8
		C60.1,430.2,59.6,429.4,58.7,429.4z"/>
	<path class="st3" d="M61.4,431.1c0-1.1,0.7-2,1.9-2c0.7,0,1.1,0.3,1.4,0.7l-0.3,0.3c-0.3-0.4-0.6-0.5-1.1-0.5
		c-0.9,0-1.5,0.7-1.5,1.6c0,0.9,0.6,1.7,1.5,1.7c0.4,0,0.8-0.2,1.1-0.5l0.3,0.3c-0.3,0.4-0.7,0.7-1.4,0.7
		C62.1,433.1,61.4,432.2,61.4,431.1z"/>
	<path class="st3" d="M65.4,428.2c0-0.2,0.2-0.3,0.3-0.3c0.2,0,0.3,0.1,0.3,0.3s-0.1,0.3-0.3,0.3C65.6,428.6,65.4,428.4,65.4,428.2z
		 M65.5,433v-3.9h0.4v3.9H65.5z"/>
	<path class="st3" d="M66.9,432.5l0.2-0.3c0.2,0.3,0.7,0.6,1.2,0.6c0.6,0,1-0.3,1-0.8c0-1.1-2.4-0.5-2.4-1.8c0-0.6,0.5-1.1,1.4-1.1
		c0.7,0,1.1,0.3,1.4,0.6l-0.2,0.3c-0.2-0.3-0.6-0.5-1.2-0.5c-0.6,0-1,0.3-1,0.7c0,1,2.4,0.4,2.4,1.9c0,0.6-0.5,1.1-1.4,1.1
		C67.8,433.1,67.3,432.9,66.9,432.5z"/>
	<path class="st3" d="M70.7,431.1c0-1.1,0.8-2,1.9-2c1.2,0,1.8,0.9,1.8,2v0.1h-3.2c0,0.8,0.6,1.5,1.5,1.5c0.5,0,0.9-0.2,1.3-0.5
		l0.2,0.3c-0.4,0.4-0.9,0.6-1.5,0.6C71.5,433.1,70.7,432.3,70.7,431.1z M72.5,429.4c-0.9,0-1.4,0.8-1.4,1.5H74
		C73.9,430.2,73.5,429.4,72.5,429.4z"/>
	<path class="st3" d="M81.4,433l-0.5-1.3H78l-0.5,1.3H77l2.2-5.3h0.6l2.2,5.3H81.4z M79.5,428.2l-1.3,3.1h2.5L79.5,428.2z"/>
	<path class="st3" d="M85.2,433v-0.6c-0.3,0.4-0.8,0.7-1.4,0.7c-0.8,0-1.2-0.4-1.2-1.2v-2.7H83v2.6c0,0.8,0.4,1,0.9,1
		c0.5,0,1-0.3,1.3-0.6v-2.9h0.4v3.9H85.2z"/>
	<path class="st3" d="M89.8,433v-0.6c-0.3,0.4-0.8,0.7-1.3,0.7c-1,0-1.7-0.8-1.7-2c0-1.2,0.7-2,1.7-2c0.6,0,1,0.3,1.3,0.7v-2.1h0.4
		v5.3H89.8z M89.8,432.1v-1.9c-0.2-0.4-0.7-0.7-1.3-0.7c-0.9,0-1.4,0.7-1.4,1.7s0.5,1.6,1.4,1.6C89,432.7,89.6,432.4,89.8,432.1z"/>
	<path class="st3" d="M91.4,428.2c0-0.2,0.2-0.3,0.3-0.3c0.2,0,0.3,0.1,0.3,0.3s-0.1,0.3-0.3,0.3C91.5,428.6,91.4,428.4,91.4,428.2z
		 M91.5,433v-3.9h0.4v3.9H91.5z"/>
	<path class="st3" d="M93,431.1c0-1.1,0.8-2,1.9-2c1.2,0,1.8,0.9,1.8,2v0.1h-3.2c0,0.8,0.6,1.5,1.5,1.5c0.5,0,0.9-0.2,1.3-0.5
		l0.2,0.3c-0.4,0.4-0.9,0.6-1.5,0.6C93.8,433.1,93,432.3,93,431.1z M94.8,429.4c-0.9,0-1.4,0.8-1.4,1.5h2.8
		C96.2,430.2,95.8,429.4,94.8,429.4z"/>
	<path class="st3" d="M100.4,433v-2.6c0-0.7-0.4-1-0.9-1c-0.5,0-1,0.3-1.3,0.7v2.9h-0.4v-3.9h0.4v0.6c0.3-0.3,0.8-0.7,1.4-0.7
		c0.8,0,1.2,0.4,1.2,1.3v2.7H100.4z"/>
	<path class="st3" d="M101.8,431.1c0-1.1,0.7-2,1.9-2c0.7,0,1.1,0.3,1.4,0.7l-0.3,0.3c-0.3-0.4-0.6-0.5-1.1-0.5
		c-0.9,0-1.5,0.7-1.5,1.6c0,0.9,0.6,1.7,1.5,1.7c0.4,0,0.8-0.2,1.1-0.5l0.3,0.3c-0.3,0.4-0.7,0.7-1.4,0.7
		C102.6,433.1,101.8,432.2,101.8,431.1z"/>
	<path class="st3" d="M105.8,431.1c0-1.1,0.8-2,1.9-2c1.2,0,1.8,0.9,1.8,2v0.1h-3.2c0,0.8,0.6,1.5,1.5,1.5c0.5,0,0.9-0.2,1.3-0.5
		l0.2,0.3c-0.4,0.4-0.9,0.6-1.5,0.6C106.6,433.1,105.8,432.3,105.8,431.1z M107.6,429.4c-0.9,0-1.4,0.8-1.4,1.5h2.8
		C109,430.2,108.6,429.4,107.6,429.4z"/>
	<path class="st3" d="M117.2,433v-4.8l-1.9,4.8H115l-2-4.8v4.8h-0.5v-5.3h0.7l1.8,4.4l1.8-4.4h0.7v5.3H117.2z"/>
	<path class="st3" d="M121.4,433v-0.5c-0.3,0.4-0.8,0.6-1.3,0.6c-0.7,0-1.4-0.5-1.4-1.3c0-0.8,0.7-1.3,1.4-1.3c0.5,0,1,0.2,1.3,0.6
		v-0.8c0-0.6-0.5-0.9-1-0.9c-0.5,0-0.9,0.2-1.2,0.6l-0.2-0.3c0.4-0.4,0.8-0.6,1.5-0.6c0.8,0,1.4,0.4,1.4,1.2v2.7H121.4z
		 M121.4,432.3v-0.8c-0.3-0.4-0.7-0.5-1.2-0.5c-0.6,0-1.1,0.4-1.1,1c0,0.5,0.4,1,1.1,1C120.7,432.8,121.1,432.6,121.4,432.3z"/>
	<path class="st3" d="M123.2,432.3v-2.8h-0.6v-0.4h0.6v-1.1h0.4v1.1h0.8v0.4h-0.8v2.7c0,0.3,0.1,0.5,0.4,0.5c0.2,0,0.3-0.1,0.4-0.2
		l0.2,0.3c-0.2,0.1-0.3,0.2-0.7,0.2C123.4,433.1,123.2,432.8,123.2,432.3z"/>
	<path class="st3" d="M125.1,431.1c0-1.1,0.7-2,1.9-2c0.7,0,1.1,0.3,1.4,0.7L128,430c-0.3-0.4-0.6-0.5-1.1-0.5
		c-0.9,0-1.5,0.7-1.5,1.6c0,0.9,0.6,1.7,1.5,1.7c0.4,0,0.8-0.2,1.1-0.5l0.3,0.3c-0.3,0.4-0.7,0.7-1.4,0.7
		C125.8,433.1,125.1,432.2,125.1,431.1z"/>
	<path class="st3" d="M131.9,433v-2.6c0-0.7-0.4-1-0.9-1c-0.5,0-1,0.3-1.3,0.7v2.9h-0.4v-5.3h0.4v2.1c0.3-0.3,0.8-0.7,1.4-0.7
		c0.8,0,1.2,0.4,1.2,1.2v2.7H131.9z"/>
	<path class="st3" d="M137,433v-4.9h-1.7v-0.4h3.9v0.4h-1.7v4.9H137z"/>
	<path class="st3" d="M141.8,433v-0.5c-0.3,0.4-0.8,0.6-1.3,0.6c-0.7,0-1.4-0.5-1.4-1.3c0-0.8,0.7-1.3,1.4-1.3c0.5,0,1,0.2,1.3,0.6
		v-0.8c0-0.6-0.5-0.9-1-0.9c-0.5,0-0.9,0.2-1.2,0.6l-0.2-0.3c0.4-0.4,0.8-0.6,1.5-0.6c0.8,0,1.4,0.4,1.4,1.2v2.7H141.8z
		 M141.8,432.3v-0.8c-0.3-0.4-0.7-0.5-1.2-0.5c-0.6,0-1.1,0.4-1.1,1c0,0.5,0.4,1,1.1,1C141.1,432.8,141.5,432.6,141.8,432.3z"/>
	<path class="st3" d="M143.5,433v-3.9h0.4v0.7c0.3-0.4,0.8-0.7,1.3-0.7v0.5c-0.1,0-0.1,0-0.2,0c-0.4,0-0.9,0.4-1.1,0.7v2.8H143.5z"
		/>
	<path class="st3" d="M146.1,434l0.2-0.3c0.3,0.4,0.7,0.5,1.3,0.5c0.7,0,1.3-0.4,1.3-1.2v-0.6c-0.3,0.4-0.8,0.7-1.3,0.7
		c-1,0-1.7-0.8-1.7-2c0-1.2,0.7-2,1.7-2c0.6,0,1,0.3,1.3,0.7v-0.6h0.4v3.8c0,1.2-0.8,1.6-1.7,1.6C146.9,434.6,146.5,434.5,146.1,434
		z M148.9,432v-1.9c-0.2-0.4-0.7-0.7-1.3-0.7c-0.9,0-1.4,0.7-1.4,1.6s0.5,1.6,1.4,1.6C148.2,432.7,148.7,432.4,148.9,432z"/>
	<path class="st3" d="M150.4,431.1c0-1.1,0.8-2,1.9-2c1.2,0,1.8,0.9,1.8,2v0.1h-3.2c0,0.8,0.6,1.5,1.5,1.5c0.5,0,0.9-0.2,1.3-0.5
		l0.2,0.3c-0.4,0.4-0.9,0.6-1.5,0.6C151.2,433.1,150.4,432.3,150.4,431.1z M152.2,429.4c-0.9,0-1.4,0.8-1.4,1.5h2.8
		C153.6,430.2,153.2,429.4,152.2,429.4z"/>
	<path class="st3" d="M155.2,432.3v-2.8h-0.6v-0.4h0.6v-1.1h0.4v1.1h0.8v0.4h-0.8v2.7c0,0.3,0.1,0.5,0.4,0.5c0.2,0,0.3-0.1,0.4-0.2
		l0.2,0.3c-0.2,0.1-0.3,0.2-0.7,0.2C155.5,433.1,155.2,432.8,155.2,432.3z"/>
	<path class="st3" d="M157.2,428.2c0-0.2,0.2-0.3,0.3-0.3c0.2,0,0.3,0.1,0.3,0.3s-0.1,0.3-0.3,0.3
		C157.4,428.6,157.2,428.4,157.2,428.2z M157.3,433v-3.9h0.4v3.9H157.3z"/>
	<path class="st3" d="M161.7,433v-2.6c0-0.7-0.4-1-0.9-1c-0.5,0-1,0.3-1.3,0.7v2.9h-0.4v-3.9h0.4v0.6c0.3-0.3,0.8-0.7,1.4-0.7
		c0.8,0,1.2,0.4,1.2,1.3v2.7H161.7z"/>
	<path class="st3" d="M163.4,434l0.2-0.3c0.3,0.4,0.7,0.5,1.3,0.5c0.7,0,1.3-0.4,1.3-1.2v-0.6c-0.3,0.4-0.8,0.7-1.3,0.7
		c-1,0-1.7-0.8-1.7-2c0-1.2,0.7-2,1.7-2c0.6,0,1,0.3,1.3,0.7v-0.6h0.4v3.8c0,1.2-0.8,1.6-1.7,1.6C164.3,434.6,163.8,434.5,163.4,434
		z M166.2,432v-1.9c-0.2-0.4-0.7-0.7-1.3-0.7c-0.9,0-1.4,0.7-1.4,1.6s0.5,1.6,1.4,1.6C165.5,432.7,166,432.4,166.2,432z"/>
</g>
<g>
	<path class="st13" d="M69.2,404.9c-0.1,0.2-0.1,0.5,0,0.7c0.2,0.6,0.5,1,0.9,1.5c0.1,0.2,0.1,0.3,0,0.4c-0.3,0.5-0.6,1.1-0.6,1.7
		c0,0.1-0.1,0.2-0.2,0.3c-0.6,0.5-1.1,0.9-1.5,1.5c-0.2,0.3-0.3,0.5-0.4,0.9c0,0.1,0,0.3,0.1,0.4c0.1-0.1,0.1-0.1,0.2-0.2
		c0.6-0.7,1.2-1.4,1.9-1.9c0.1-0.1,0.2-0.2,0.4-0.2c0.7-0.4,1.3-0.3,1.8,0.2c0.4,0.4,0.7,0.8,1.2,1.2c0.2,0.2,0.5,0.4,0.8,0.5
		c0-0.2,0-0.4,0-0.6c0-0.2,0.1-0.3,0.2-0.3c0.1,0,0.3-0.1,0.4-0.1c0.3,0,0.4,0.1,0.4,0.4c0,0.2,0.1,0.4,0.1,0.7
		c0.1,0.5,0.4,1,0.8,1.3c0.1,0.1,0.2,0.2,0,0.3c0,0,0,0-0.1,0.1c-0.5,0.4-0.7,0.4-1.2-0.1c-0.2-0.2-0.4-0.4-0.5-0.6
		c-0.1-0.1-0.2-0.2-0.4-0.3c-0.8-0.3-1.5-0.7-2.1-1.2c-0.4-0.3-0.7-0.3-0.9,0.1c-0.2,0.3-0.4,0.6-0.5,0.9c-0.3,0.4-0.6,0.8-1,1.2
		c0,0-0.1,0.1-0.1,0.1c0,0.1,0.1,0.1,0.2,0.1c0.2,0,0.3,0,0.4-0.1c0.3-0.2,0.6-0.4,0.8-0.7c0.1-0.1,0.2-0.1,0.3,0
		c0.9,1.3,2,2.2,3.4,2.8c3.2,1.1,6.5-0.7,7.1-4c0.2-1,0-2-0.8-2.7c-0.7-0.6-1.4-0.8-2.3-0.5c-1,0.4-1.5,1.7-0.8,2.5
		c0.3,0.4,0.7,0.6,1.1,0.6c0.3,0,0.6-0.3,0.6-0.6c0-0.2,0-0.3-0.2-0.4c-0.1-0.1-0.3-0.1-0.4-0.2c-0.3-0.1-0.3-0.3-0.3-0.5
		c0.1-0.5,0.4-0.7,0.9-0.6c0.7,0.1,1.3,0.7,1.3,1.4c0,0.6-0.2,1-0.6,1.4c-1.1,1.1-3.3,0.7-3.9-0.7c-0.2-0.5-0.2-1-0.2-1.5
		c0.2-0.9,0.5-1.7,1.2-2.3c0.9-0.8,1.9-0.9,3-0.7c2,0.5,3.4,2.3,3.3,4.3c0,1.2-0.4,2.2-1,3.2c-1.2,2.1-2.9,3.4-5.2,4
		c-2.8,0.8-5.5,0.7-8.1-0.5c-2.1-1-3.7-2.6-4.8-4.6c-0.6-1.2-1-2.4-1.1-3.7c0-0.1,0-0.2-0.1-0.3c-0.1-0.1-0.1-0.2-0.1-0.3
		c0-0.1,0-0.3,0.1-0.4c0.1-0.2,0.2-0.3,0-0.4c-0.1-0.1-0.1-0.2,0-0.3c0-0.1,0.1-0.3,0.2-0.4c0.1-0.1,0.1-0.2,0-0.4
		c-0.1-0.1-0.1-0.3,0-0.5c0.1-0.2,0.2-0.3,0.3-0.5c0.1-0.1,0.1-0.1,0-0.2c-0.3-0.1-0.3-0.3-0.1-0.5c0.2-0.2,0.4-0.4,0.6-0.6
		c-0.1-0.1-0.1-0.1-0.2-0.1c-0.3-0.1-0.4-0.3-0.2-0.5c0.2-0.2,0.4-0.3,0.6-0.5c0.1-0.1,0.2-0.1,0.3-0.2c-0.2-0.1-0.3-0.2-0.4-0.2
		c-0.3-0.2-0.3-0.5,0-0.7c0.3-0.3,0.7-0.4,1.1-0.5c0.1,0,0.2,0,0.2-0.1c-0.1-0.1-0.3-0.2-0.4-0.4c-0.3-0.3-0.2-0.6,0.2-0.8
		c0.5-0.2,1-0.3,1.5-0.3c0,0,0.1,0,0.1,0c-0.1-0.2-0.3-0.3-0.4-0.5c-0.3-0.5-0.1-0.8,0.4-0.9c0.5-0.1,1.1-0.1,1.7-0.1
		c0.2,0,0.3,0,0.5,0c-0.1-0.2-0.1-0.4-0.2-0.6c-0.1-0.5,0.1-0.8,0.7-0.8c0.6,0,1.1,0.2,1.6,0.4c0.1,0.1,0.3,0.1,0.4,0.2
		c0-0.2,0-0.3,0-0.5c0-0.1,0-0.2,0-0.3c0.1-0.4,0.3-0.5,0.7-0.4c0.3,0.1,0.6,0.3,0.9,0.5c0.4,0.3,0.7,0.6,1.1,0.9
		c0.1-0.2,0.1-0.4,0.2-0.7c0.2-0.5,0.6-0.6,1-0.3c0.4,0.3,0.6,0.7,0.9,1.1c0,0,0,0.1,0,0.1c0,0.8,0.2,1.5,0.3,2.2
		c0.1,0.5,0.1,1,0.2,1.5c0.2-0.2,0.2-0.5,0.2-0.8c0.1-0.8,0-1.6,0-2.4c0-0.4,0-0.8,0.1-1.1c0.1-0.4,0.2-0.5,0.6-0.4
		c1.4,0.2,2.6,0.8,3.5,1.9c1.1,1.3,1.7,2.7,1.9,4.4c0,0.3,0,0.6-0.1,1c-0.1,0.3-0.1,0.3-0.4,0.3c-0.8-0.1-1.5-0.4-2.3-0.7
		c-0.4-0.1-0.8-0.3-1.3-0.4c-0.1,0-0.2-0.1-0.3-0.2c-0.4-0.4-0.6-0.4-1.1-0.1c-0.1,0.1-0.2,0.1-0.3,0.2c0.1,0,0.3,0,0.4,0
		c0.2,0,0.4,0.1,0.6,0.2c0.1,0.2,0.3,0.2,0.5,0.3c1.2,0.4,2.4,0.8,3.5,1.2c0,0,0,0,0.1,0c-0.4,0.2-0.7,0.2-1.1,0.1
		c-1.1-0.1-2.1-0.5-3.1-0.8c-0.7-0.2-1.3-0.5-2-0.7c-1.2-0.5-2.3-0.4-3.4,0.2c-0.1,0.1-0.3,0.1-0.4,0.2c-0.1,0.1-0.1,0-0.2,0
		c-0.1-0.2-0.3-0.5-0.4-0.7c-0.1-0.2-0.2-0.4-0.4-0.5c-0.2-0.2-0.5-0.3-0.8-0.1c0.4,0.4,0.6,1,0.9,1.5c0.2,0.3,0.3,0.7,0.5,1
		c0.3,0.5,0.7,0.6,1.3,0.5c0.8-0.2,1.6-0.6,2.3-1.1c0.2-0.1,0.3-0.1,0.5-0.1c0.3,0,0.4,0.2,0.3,0.5c0,0.2-0.1,0.3-0.2,0.4
		c-0.4,0.3-0.6,0.7-0.7,1.2c0,0.3-0.2,0.4-0.4,0.4c-0.2,0-0.4-0.1-0.5-0.4c0-0.1,0-0.3,0-0.4c0-0.1-0.1-0.2-0.2-0.1
		c-0.1,0.1-0.3,0.1-0.4,0.2c-0.4,0.2-0.7,0.4-1.1,0.6c-0.3,0.1-0.6,0.1-0.9-0.1c-0.6-0.5-1-1-1.5-1.6
		C69.9,405.9,69.6,405.4,69.2,404.9z M79.3,403.4c0.4,0.4,1,0.4,1.5,0.1c0.5-0.4,0.7-1.1,0.4-1.6c-0.3-0.5-0.9-0.7-1.5-0.5
		c-0.5,0.2-0.9,0.9-0.8,1.4c0.3-0.2,0.5-0.3,0.7-0.1c0.2,0.1,0.2,0.3,0.2,0.5C79.7,403.3,79.6,403.4,79.3,403.4z"/>
	<path class="st13" d="M110.6,407.3c0,2.1,0,4.3,0,6.4c0,0.9-0.5,1.5-1.2,1.8c-0.7,0.2-1.3,0.1-1.8-0.4c-0.1-0.1-0.2-0.1-0.4-0.1
		c-2.2,1-4.3,0.8-6.2-0.8c-1.7-1.3-2.4-3.1-2.1-5.2c0.3-2.6,2.2-4.5,4.7-5c1.1-0.2,2.2-0.1,3.3,0.3c0.2,0.1,0.2,0.1,0.2-0.2
		c0-1.1,0-2.2,0-3.4c0-1,0.7-1.8,1.7-1.8c0.9,0,1.7,0.7,1.8,1.6c0,0.1,0,0.2,0,0.3C110.6,403.1,110.6,405.2,110.6,407.3z
		 M102.4,409.8c-0.1,1.2,1,2.3,2.3,2.4c1.3,0.1,2.4-1,2.5-2.3c0.1-1.3-1-2.4-2.2-2.4C103.5,407.4,102.5,408.4,102.4,409.8z"/>
	<path class="st13" d="M85.7,409.8c0-2.9,2.1-5.4,5-5.8c3.1-0.4,6.1,1.7,6.6,4.8c0.1,0.4,0.1,0.8,0.1,1.2c0,0.7,0.1,1.3,0.3,2
		c0.1,0.3,0.2,0.5,0.4,0.7c0.7,0.7,0.6,1.8,0,2.4c-0.7,0.7-1.7,0.7-2.5,0c-0.2-0.2-0.3-0.3-0.5-0.5c-0.1-0.1-0.1-0.1-0.2,0
		c-0.7,0.5-1.5,0.8-2.4,1c-2.4,0.4-4.8-0.8-6-2.8C86,411.8,85.7,410.8,85.7,409.8z M91.6,407.4c-1.3,0-2.4,1-2.4,2.4
		c0,1.3,1.1,2.4,2.3,2.4c1.3,0,2.4-1.1,2.4-2.3C93.9,408.5,92.9,407.4,91.6,407.4z"/>
	<path class="st13" d="M121.3,408c0.4,0.3,0.7,0.6,1,1c2,2.7,0.5,6.7-2.9,7.3c-0.3,0-0.5,0.1-0.8,0.1c-1.4,0-2.8,0-4.2,0
		c-1.2,0-2.2-0.8-2.5-2c-0.3-1.3,0.4-2.6,1.7-3c0,0,0.1,0,0.1,0c0-0.1,0-0.1-0.1-0.1c-1.2-0.9-1.8-2.1-1.8-3.6
		c-0.1-2.3,1.6-4.3,3.8-4.7c0.3-0.1,0.7-0.1,1-0.1c1.3,0,2.7,0,4,0c1.2,0,2.2,0.9,2.5,2c0.3,1.3-0.4,2.5-1.7,3
		C121.4,408,121.4,408,121.3,408z M118.5,404.6c-0.7,0-1.3,0-2,0c-0.2,0-0.5,0-0.7,0.1c-1.4,0.4-2.4,1.8-2.2,3.2
		c0.2,1.6,1.5,2.7,3,2.7c0.7,0,1.4,0,2.1,0c0.7,0,1.3,0.7,1.1,1.4c-0.1,0.5-0.6,0.9-1.1,0.9c-1.4,0-2.7,0-4.1,0c-0.6,0-1,0.4-1,1
		c0,0.5,0.5,0.9,1,0.9c1.3,0,2.6,0,3.9,0c0.2,0,0.5,0,0.7-0.1c1.5-0.3,2.6-1.7,2.4-3.2c-0.2-1.5-1.4-2.8-3-2.8c-0.7,0-1.4,0-2,0
		c-0.7,0-1.2-0.5-1.2-1.2c0-0.7,0.5-1.1,1.2-1.1c1.3,0,2.7,0,4,0c0.6,0,1-0.4,1-0.9c0-0.5-0.4-0.9-1-0.9
		C119.9,404.6,119.2,404.6,118.5,404.6z"/>
	<path class="st13" d="M124.2,406.4c0-1.1,0-2.2,0-3.4c0-1.3,0.8-2.3,2-2.6c1.4-0.3,2.7,0.5,3,1.9c0,0.2,0.1,0.3,0.3,0.3
		c0.6,0,1.1-0.1,1.7,0c1.2,0.2,2.1,1.2,2.1,2.5c0,1.2-0.8,2.3-2,2.5c-0.5,0.1-1.1,0-1.7,0c-0.4,0-0.4,0-0.4,0.4c0,0.5,0,1,0,1.6
		c0,0.9,0.7,1.6,1.6,1.6c1.2,0,2.3,0.9,2.5,2.1c0.3,1.6-0.9,3-2.6,3c-3.3,0-6-2.4-6.5-5.7c-0.1-0.3-0.1-0.7-0.1-1
		C124.2,408.6,124.2,407.5,124.2,406.4z M125.8,406.5c0,1.1,0,2.2,0,3.3c0,0.2,0,0.5,0.1,0.7c0.4,2.2,1.9,3.8,4.1,4.2
		c0.3,0.1,0.6,0.1,0.9,0.1c0.5-0.1,0.9-0.5,0.9-1c0-0.5-0.4-0.9-1-0.9c-1.8,0-3.1-1.4-3.1-3.2c0-1.1,0-2.2,0-3.3
		c0-0.2,0.1-0.3,0.3-0.3c1,0,1.9,0,2.9,0c0.7,0,1.1-0.7,0.9-1.3c-0.2-0.4-0.5-0.6-1-0.6c-0.9,0-1.9,0-2.8,0c-0.2,0-0.2,0-0.2-0.2
		c0-0.3,0-0.7,0-1c0-0.6-0.4-1-0.9-1c-0.5,0-0.9,0.4-0.9,1C125.8,404.2,125.8,405.4,125.8,406.5z"/>
	<path class="st13" d="M138.9,403.7c0.4,0.3,0.7,0.7,0.8,1.2c0.1,0.3,0.1,0.6,0.1,0.9c0,2.7,0,5.4,0,8.1c0,1.4-1,2.5-2.3,2.6
		c-1.3,0.1-2.5-0.8-2.7-2.2c0-0.1,0-0.3,0-0.4c0-2.7,0-5.5,0-8.2c0-0.8,0.3-1.4,0.8-1.9c0.1-0.1,0.1-0.1,0-0.2
		c-0.7-0.7-1-1.6-0.8-2.6c0.3-1,1-1.6,2-1.8c1.4-0.3,2.8,0.7,3,2.1C139.9,402,139.7,403,138.9,403.7z M136.4,409.8
		c0,0.8,0,1.7,0,2.5c0,0.5,0,1.1,0,1.6c0,0.5,0.4,0.8,0.9,0.9c0.4,0,0.8-0.2,1-0.7c0-0.2,0.1-0.3,0.1-0.5c0-2.6,0-5.2,0-7.8
		c0-0.1,0-0.3,0-0.4c-0.1-0.5-0.6-0.9-1.1-0.7c-0.5,0.1-0.7,0.5-0.7,1C136.4,407.1,136.4,408.5,136.4,409.8z M138.2,401.7
		c0-0.5-0.4-0.9-0.9-0.9c-0.5,0-0.9,0.4-0.9,0.9c0,0.5,0.4,0.9,0.9,0.9C137.8,402.6,138.2,402.2,138.2,401.7z"/>
	<path class="st13" d="M150.6,404.6c0,1.3-1,2.4-2.4,2.5c-0.4,0-0.8,0.1-1.1,0.3c-0.4,0.3-0.7,0.8-0.6,1.3c0,1.7,0,3.4,0,5.1
		c0,1.4-1,2.5-2.3,2.6c-1.3,0.1-2.5-0.8-2.7-2.1c0-0.1,0-0.2,0-0.2c0-1.9-0.1-3.8,0-5.6c0.1-2.5,1.3-4.3,3.5-5.6
		c1-0.6,2-0.8,3.1-0.8C149.5,402.1,150.6,403.2,150.6,404.6z M144.9,411.3c0-0.8,0-1.6,0-2.4c0-0.2,0-0.5,0.1-0.7
		c0.3-1.6,1.5-2.6,3.1-2.6c0.5,0,0.9-0.4,0.9-0.9c0-0.5-0.4-0.9-0.9-0.9c-0.2,0-0.4,0-0.7,0c-2.4,0.3-4.3,2.4-4.4,4.8
		c0,1.8,0,3.6,0,5.4c0,0.5,0.4,0.9,1,0.9c0.5,0,0.9-0.4,0.9-1C144.9,413,144.9,412.1,144.9,411.3z"/>
</g>
<g>
	<path class="st2" d="M131.9,268.7c-1,0.5-2.1,0.8-3.3,0.9c1.2-0.7,2.1-1.8,2.5-3.2c-1.1,0.7-2.4,1.1-3.7,1.4
		c-1-1.1-2.6-1.8-4.2-1.8c-3.2,0-5.8,2.6-5.8,5.8c0,0.5,0.1,0.9,0.1,1.3c-4.8-0.2-9.1-2.5-11.9-6c-0.5,0.8-0.8,1.8-0.8,2.9
		c0,2,1,3.8,2.6,4.8c-0.9,0-1.8-0.3-2.6-0.7v0.1c0,2.8,2,5.1,4.6,5.7c-0.5,0.1-1,0.2-1.5,0.2c-0.4,0-0.7,0-1.1-0.1
		c0.7,2.3,2.9,4,5.4,4c-2,1.5-4.5,2.5-7.2,2.5c-0.5,0-0.9,0-1.4-0.1c2.6,1.6,5.6,2.6,8.9,2.6c10.6,0,16.4-8.8,16.4-16.4l0-0.7
		C130.1,270.8,131.1,269.8,131.9,268.7L131.9,268.7z M131.9,268.7"/>
</g>
<g>
	<path class="st2" d="M162.3,264.7h-20.7c-1,0-1.8,0.8-1.8,1.7v20.8c0,1,0.8,1.7,1.8,1.7h20.7c1,0,1.8-0.8,1.8-1.7v-20.8
		C164,265.5,163.2,264.7,162.3,264.7L162.3,264.7z M147.1,285h-3.7v-11h3.7V285z M145.3,272.6L145.3,272.6c-1.3,0-2.1-0.8-2.1-1.9
		c0-1.1,0.8-1.9,2.1-1.9c1.3,0,2,0.8,2.1,1.9C147.4,271.7,146.6,272.6,145.3,272.6L145.3,272.6z M160.4,285h-3.7v-5.9
		c0-1.5-0.5-2.5-1.9-2.5c-1,0-1.6,0.7-1.9,1.3c-0.1,0.2-0.1,0.6-0.1,0.9v6.1h-3.7c0,0,0-9.9,0-11h3.7v1.6c0.5-0.7,1.4-1.8,3.3-1.8
		c2.4,0,4.2,1.6,4.2,4.9V285z M152.8,275.7C152.8,275.7,152.8,275.6,152.8,275.7L152.8,275.7L152.8,275.7z M152.8,275.7"/>
</g>
<g>
	<path d="M43.6,164.9v-9.7h3.6c1.9,0,2.9,1.3,2.9,2.8c0,1.5-1.1,2.8-2.9,2.8h-2.8v4H43.6z M49.3,158c0-1.2-0.8-2.1-2.1-2.1h-2.7v4.2
		h2.7C48.4,160.1,49.3,159.2,49.3,158z"/>
	<path d="M51.9,164.9v-7h0.8v1.2c0.6-0.8,1.4-1.4,2.4-1.4v0.8c-0.1,0-0.2,0-0.4,0c-0.7,0-1.7,0.6-2,1.2v5.1H51.9z"/>
	<path d="M56.1,161.3c0-2,1.3-3.7,3.4-3.7c2.1,0,3.4,1.6,3.4,3.7c0,2-1.3,3.7-3.4,3.7C57.4,165,56.1,163.4,56.1,161.3z M62,161.3
		c0-1.6-0.9-3-2.6-3c-1.6,0-2.6,1.4-2.6,3c0,1.6,0.9,3,2.6,3C61.1,164.3,62,162.9,62,161.3z"/>
	<path d="M64.8,166.6l0.4-0.6c0.6,0.7,1.3,1,2.3,1c1.3,0,2.4-0.6,2.4-2.2v-1.1c-0.5,0.7-1.4,1.3-2.4,1.3c-1.9,0-3.1-1.4-3.1-3.7
		c0-2.2,1.3-3.7,3.1-3.7c1,0,1.9,0.5,2.4,1.3v-1.1h0.8v7c0,2.1-1.5,2.9-3.2,2.9C66.4,167.7,65.6,167.5,64.8,166.6z M69.9,163v-3.4
		c-0.4-0.7-1.3-1.3-2.3-1.3c-1.6,0-2.5,1.3-2.5,3s0.9,3,2.5,3C68.6,164.3,69.5,163.7,69.9,163z"/>
	<path d="M73,164.9v-7h0.8v1.2c0.6-0.8,1.4-1.4,2.4-1.4v0.8c-0.1,0-0.2,0-0.4,0c-0.7,0-1.7,0.6-2,1.2v5.1H73z"/>
	<path d="M82.1,164.9V164c-0.6,0.7-1.4,1-2.4,1c-1.2,0-2.5-0.8-2.5-2.3c0-1.5,1.2-2.3,2.5-2.3c1,0,1.8,0.3,2.4,1v-1.4
		c0-1-0.8-1.6-1.9-1.6c-0.9,0-1.6,0.3-2.2,1l-0.4-0.5c0.7-0.8,1.5-1.2,2.7-1.2c1.4,0,2.6,0.7,2.6,2.3v4.9H82.1z M82.1,163.5v-1.5
		c-0.5-0.7-1.3-1-2.1-1c-1.1,0-1.9,0.7-1.9,1.7c0,1,0.8,1.7,1.9,1.7C80.8,164.4,81.6,164.1,82.1,163.5z"/>
	<path d="M93.6,164.9v-4.9c0-1-0.4-1.6-1.4-1.6c-0.8,0-1.6,0.6-2,1.2v5.3h-0.8v-4.9c0-1-0.4-1.6-1.4-1.6c-0.8,0-1.6,0.6-2,1.2v5.3
		h-0.8v-7H86v1.1c0.3-0.5,1.2-1.2,2.3-1.2c1.1,0,1.7,0.6,1.8,1.3c0.4-0.7,1.3-1.3,2.3-1.3c1.3,0,1.9,0.7,1.9,2.1v5.1H93.6z"/>
	<path d="M105,164.9v-4.9c0-1-0.4-1.6-1.4-1.6c-0.8,0-1.6,0.6-2,1.2v5.3h-0.8v-4.9c0-1-0.4-1.6-1.4-1.6c-0.8,0-1.6,0.6-2,1.2v5.3
		h-0.8v-7h0.8v1.1c0.3-0.5,1.2-1.2,2.3-1.2c1.1,0,1.7,0.6,1.8,1.3c0.4-0.7,1.3-1.3,2.3-1.3c1.3,0,1.9,0.7,1.9,2.1v5.1H105z"/>
	<path d="M112.6,164.9V164c-0.6,0.7-1.4,1-2.4,1c-1.2,0-2.5-0.8-2.5-2.3c0-1.5,1.2-2.3,2.5-2.3c1,0,1.8,0.3,2.4,1v-1.4
		c0-1-0.8-1.6-1.9-1.6c-0.9,0-1.6,0.3-2.2,1l-0.4-0.5c0.7-0.8,1.5-1.2,2.7-1.2c1.4,0,2.6,0.7,2.6,2.3v4.9H112.6z M112.6,163.5v-1.5
		c-0.5-0.7-1.3-1-2.1-1c-1.1,0-1.9,0.7-1.9,1.7c0,1,0.8,1.7,1.9,1.7C111.3,164.4,112.1,164.1,112.6,163.5z"/>
	<path d="M115.8,163.5v-5h-1.2v-0.7h1.2v-1.9h0.8v1.9h1.4v0.7h-1.4v4.9c0,0.6,0.2,1,0.7,1c0.3,0,0.6-0.2,0.8-0.3l0.3,0.6
		c-0.3,0.3-0.6,0.4-1.2,0.4C116.3,165,115.8,164.5,115.8,163.5z"/>
	<path d="M119.5,156.2c0-0.3,0.3-0.6,0.6-0.6c0.3,0,0.6,0.2,0.6,0.6c0,0.3-0.3,0.6-0.6,0.6C119.8,156.7,119.5,156.5,119.5,156.2z
		 M119.7,164.9v-7h0.8v7H119.7z"/>
	<path d="M122.4,161.3c0-2,1.3-3.7,3.4-3.7c1.2,0,1.9,0.5,2.5,1.2l-0.5,0.5c-0.5-0.7-1.1-1-1.9-1c-1.6,0-2.6,1.3-2.6,3
		c0,1.7,1,3,2.6,3c0.8,0,1.4-0.3,1.9-1l0.5,0.5c-0.6,0.7-1.3,1.2-2.5,1.2C123.7,165,122.4,163.4,122.4,161.3z"/>
	<path d="M133.7,164.9v-9.7h0.8v3.8c0.6-0.8,1.5-1.3,2.4-1.3c1.9,0,3.1,1.5,3.1,3.7c0,2.3-1.3,3.7-3.1,3.7c-1,0-1.9-0.6-2.4-1.3v1.1
		H133.7z M136.8,164.3c1.6,0,2.5-1.3,2.5-3s-0.9-3-2.5-3c-1,0-1.9,0.6-2.3,1.3v3.5C134.9,163.8,135.8,164.3,136.8,164.3z"/>
	<path d="M146.7,164.9v-1c-0.6,0.6-1.5,1.2-2.5,1.2c-1.4,0-2.2-0.7-2.2-2.3v-4.9h0.8v4.8c0,1.4,0.7,1.7,1.7,1.7
		c0.9,0,1.8-0.5,2.3-1.2v-5.3h0.8v7H146.7z"/>
	<path d="M149.5,166.9c0.2,0.1,0.4,0.1,0.6,0.1c0.5,0,0.8-0.2,1.1-0.9l0.6-1.2l-3-7.1h0.8l2.6,6.1l2.5-6.1h0.9l-3.6,8.6
		c-0.4,0.9-1,1.3-1.8,1.3c-0.2,0-0.6,0-0.8-0.1L149.5,166.9z"/>
	<path d="M156.6,156.2c0-0.3,0.3-0.6,0.6-0.6c0.3,0,0.6,0.2,0.6,0.6c0,0.3-0.3,0.6-0.6,0.6C156.9,156.7,156.6,156.5,156.6,156.2z
		 M156.8,164.9v-7h0.8v7H156.8z"/>
	<path d="M164.7,164.9v-4.7c0-1.4-0.7-1.8-1.7-1.8c-0.9,0-1.8,0.6-2.3,1.2v5.3h-0.8v-7h0.8v1.1c0.5-0.6,1.5-1.2,2.5-1.2
		c1.4,0,2.2,0.7,2.2,2.3v4.9H164.7z"/>
	<path d="M167.8,166.6l0.4-0.6c0.6,0.7,1.3,1,2.3,1c1.3,0,2.4-0.6,2.4-2.2v-1.1c-0.5,0.7-1.4,1.3-2.4,1.3c-1.9,0-3.1-1.4-3.1-3.7
		c0-2.2,1.3-3.7,3.1-3.7c1,0,1.9,0.5,2.4,1.3v-1.1h0.8v7c0,2.1-1.5,2.9-3.2,2.9C169.4,167.7,168.6,167.5,167.8,166.6z M173,163v-3.4
		c-0.4-0.7-1.3-1.3-2.3-1.3c-1.6,0-2.5,1.3-2.5,3s0.9,3,2.5,3C171.6,164.3,172.6,163.7,173,163z"/>
	<path d="M55.3,178.8c0-2,1.3-3.7,3.4-3.7c2.1,0,3.4,1.6,3.4,3.7c0,2-1.3,3.7-3.4,3.7C56.6,182.5,55.3,180.8,55.3,178.8z
		 M61.2,178.8c0-1.6-0.9-3-2.6-3c-1.6,0-2.6,1.4-2.6,3c0,1.6,0.9,3,2.6,3C60.3,181.8,61.2,180.3,61.2,178.8z"/>
	<path d="M68.7,182.3v-4.7c0-1.4-0.7-1.8-1.7-1.8c-0.9,0-1.8,0.6-2.3,1.2v5.3h-0.8v-7h0.8v1.1c0.5-0.6,1.5-1.2,2.5-1.2
		c1.4,0,2.2,0.7,2.2,2.3v4.9H68.7z"/>
	<path d="M75.1,178.8c0-2,1.3-3.7,3.4-3.7c1.2,0,1.9,0.5,2.5,1.2l-0.5,0.5c-0.5-0.7-1.1-1-1.9-1c-1.6,0-2.6,1.3-2.6,3
		c0,1.7,1,3,2.6,3c0.8,0,1.4-0.3,1.9-1l0.5,0.5c-0.6,0.7-1.3,1.2-2.5,1.2C76.5,182.5,75.1,180.8,75.1,178.8z"/>
	<path d="M87.4,182.3v-4.8c0-1.4-0.7-1.7-1.7-1.7c-0.9,0-1.8,0.6-2.3,1.2v5.3h-0.8v-9.7h0.8v3.7c0.5-0.6,1.5-1.2,2.5-1.2
		c1.4,0,2.2,0.7,2.2,2.3v4.9H87.4z"/>
	<path d="M95,182.3v-0.8c-0.6,0.7-1.4,1-2.4,1c-1.2,0-2.5-0.8-2.5-2.3c0-1.5,1.2-2.3,2.5-2.3c1,0,1.8,0.3,2.4,1v-1.4
		c0-1-0.8-1.6-1.9-1.6c-0.9,0-1.6,0.3-2.2,1l-0.4-0.5c0.7-0.8,1.5-1.2,2.7-1.2c1.4,0,2.6,0.7,2.6,2.3v4.9H95z M95,180.9v-1.5
		c-0.5-0.7-1.3-1-2.1-1c-1.1,0-1.9,0.7-1.9,1.7c0,1,0.8,1.7,1.9,1.7C93.7,181.9,94.5,181.5,95,180.9z"/>
	<path d="M102.9,182.3v-4.7c0-1.4-0.7-1.8-1.7-1.8c-0.9,0-1.8,0.6-2.3,1.2v5.3h-0.8v-7h0.8v1.1c0.5-0.6,1.5-1.2,2.5-1.2
		c1.4,0,2.2,0.7,2.2,2.3v4.9H102.9z"/>
	<path d="M110.7,182.3v-4.7c0-1.4-0.7-1.8-1.7-1.8c-0.9,0-1.8,0.6-2.3,1.2v5.3H106v-7h0.8v1.1c0.5-0.6,1.5-1.2,2.5-1.2
		c1.4,0,2.2,0.7,2.2,2.3v4.9H110.7z"/>
	<path d="M113.4,178.8c0-2,1.4-3.7,3.4-3.7c2.1,0,3.3,1.7,3.3,3.7v0.2h-5.9c0.1,1.5,1.1,2.8,2.7,2.8c0.9,0,1.7-0.3,2.3-1l0.4,0.5
		c-0.7,0.7-1.6,1.1-2.7,1.1C114.9,182.5,113.4,180.9,113.4,178.8z M116.8,175.7c-1.7,0-2.5,1.5-2.5,2.7h5.1
		C119.3,177.2,118.5,175.7,116.8,175.7z"/>
	<path d="M122,182.3v-9.7h0.8v9.7H122z"/>
	<path d="M124.5,181.3l0.4-0.6c0.5,0.6,1.3,1,2.3,1c1.2,0,1.9-0.6,1.9-1.4c0-1.9-4.4-0.8-4.4-3.4c0-1.1,0.9-1.9,2.5-1.9
		c1.2,0,2,0.5,2.5,1l-0.4,0.5c-0.4-0.6-1.2-0.9-2.1-0.9c-1.1,0-1.7,0.6-1.7,1.3c0,1.8,4.4,0.7,4.4,3.4c0,1.1-0.9,2.1-2.6,2.1
		C126.1,182.5,125.2,182.1,124.5,181.3z"/>
	<path d="M137,185.2c-1.2-1.9-1.9-4.1-1.9-6.4c0-2.3,0.7-4.5,1.9-6.4l0.4,0.3c-0.9,1.9-1.5,3.6-1.5,6.1c0,2.5,0.6,4.2,1.5,6.1
		L137,185.2z"/>
	<path d="M144.6,182.3l-2.7-4h-2.1v4h-0.8v-9.7h3.6c1.7,0,2.9,1.1,2.9,2.8c0,1.8-1.2,2.7-2.7,2.8l2.8,4.1H144.6z M144.6,175.4
		c0-1.2-0.9-2.1-2.1-2.1h-2.7v4.2h2.7C143.7,177.5,144.6,176.6,144.6,175.4z"/>
	<path d="M149.8,182.3v-8.9h-3.2v-0.8h7.2v0.8h-3.2v8.9H149.8z"/>
	<path d="M155.6,182.3v-9.7h4c1.6,0,2.7,0.9,2.7,2.5c0,1.2-0.8,2-1.7,2.2c1,0.2,1.9,1.2,1.9,2.4c0,1.6-1,2.6-2.8,2.6H155.6z
		 M161.3,175.1c0-1-0.7-1.8-1.9-1.8h-3v3.6h3C160.7,176.9,161.3,176.2,161.3,175.1z M161.5,179.6c0-1-0.7-1.9-2-1.9h-3.1v3.8h3.1
		C160.8,181.5,161.5,180.8,161.5,179.6z"/>
	<path d="M163.5,184.8c0.9-1.8,1.5-3.6,1.5-6.1c0-2.5-0.6-4.2-1.5-6.1l0.4-0.3c1.2,1.9,1.9,4.1,1.9,6.4c0,2.3-0.7,4.5-1.9,6.4
		L163.5,184.8z"/>
</g>
</svg>
