<?xml version="1.0" encoding="utf-8"?>
<!-- Generator: Adobe Illustrator 19.1.0, SVG Export Plug-In . SVG Version: 6.00 Build 0)  -->
<svg version="1.1" id="Layer_1" xmlns="http://www.w3.org/2000/svg" xmlns:xlink="http://www.w3.org/1999/xlink" x="0px" y="0px"
	 viewBox="-5 0 388 800" style="enable-background:new -5 0 388 800;" xml:space="preserve">
<style type="text/css">
	.st0{fill:none;}
	.st1{enable-background:new    ;}
	.st2{fill:#FFFFFF;}
	.st3{fill:none;stroke:#FFFFFF;stroke-width:2;stroke-miterlimit:10;}
	.st4{font-family:'ProximaNova-Light';}
	.st5{font-size:19px;}
</style>
<g>
	<g>
		<rect x="35.4" y="29.2" class="st0" width="305.2" height="12.7"/>
	</g>
	<g class="st1">
		<path class="st2" d="M55.9,35.5c0-3.7,2.4-6.6,6.2-6.6c3.7,0,6.2,2.8,6.2,6.6s-2.5,6.6-6.2,6.6C58.4,42.1,55.9,39.3,55.9,35.5z
			 M67.1,35.5c0-3.2-2-5.6-5-5.6c-3.1,0-5,2.4-5,5.6c0,3.2,2,5.6,5,5.6C65.1,41.1,67.1,38.7,67.1,35.5z"/>
		<path class="st2" d="M77.1,41.9v-6.2c0-1.8-0.9-2.3-2.2-2.3c-1.2,0-2.4,0.7-3,1.6v6.9h-1v-9.2h1v1.4c0.7-0.8,2-1.6,3.3-1.6
			c1.9,0,2.9,0.9,2.9,3v6.4H77.1z"/>
		<path class="st2" d="M81.1,41.9V29.2h1v12.7H81.1z"/>
		<path class="st2" d="M84.9,30.5c0-0.4,0.4-0.7,0.8-0.7c0.4,0,0.8,0.3,0.8,0.7s-0.3,0.8-0.8,0.8C85.3,31.3,84.9,30.9,84.9,30.5z
			 M85.2,41.9v-9.2h1v9.2H85.2z"/>
		<path class="st2" d="M95.5,41.9v-6.2c0-1.8-0.9-2.3-2.2-2.3c-1.2,0-2.4,0.7-3,1.6v6.9h-1v-9.2h1v1.4c0.7-0.8,2-1.6,3.3-1.6
			c1.9,0,2.9,0.9,2.9,3v6.4H95.5z"/>
		<path class="st2" d="M99,37.3c0-2.7,1.9-4.8,4.4-4.8c2.8,0,4.3,2.2,4.3,4.9v0.3h-7.7c0.1,2,1.4,3.6,3.6,3.6c1.2,0,2.2-0.4,3-1.3
			l0.5,0.6c-0.9,1-2.1,1.5-3.6,1.5C100.9,42.1,99,40.1,99,37.3z M103.4,33.3c-2.2,0-3.2,1.9-3.3,3.5h6.7
			C106.7,35.3,105.7,33.3,103.4,33.3z"/>
		<path class="st2" d="M114.4,40.6l0.6-0.7c0.6,0.7,1.7,1.3,3,1.3c1.5,0,2.5-0.8,2.5-1.9c0-2.5-5.8-1.1-5.8-4.4
			c0-1.4,1.2-2.5,3.3-2.5c1.6,0,2.6,0.6,3.3,1.3l-0.6,0.7c-0.5-0.7-1.5-1.2-2.7-1.2c-1.4,0-2.3,0.7-2.3,1.7c0,2.3,5.8,0.9,5.8,4.4
			c0,1.5-1.1,2.7-3.4,2.7C116.5,42.1,115.3,41.7,114.4,40.6z"/>
		<path class="st2" d="M123.4,37.3c0-2.7,1.7-4.8,4.4-4.8c2.7,0,4.4,2.1,4.4,4.8s-1.7,4.8-4.4,4.8C125.1,42.1,123.4,40,123.4,37.3z
			 M131.2,37.3c0-2-1.2-3.9-3.4-3.9c-2.1,0-3.3,1.9-3.3,3.9c0,2.1,1.2,3.9,3.3,3.9C130,41.2,131.2,39.3,131.2,37.3z"/>
		<path class="st2" d="M141,41.9v-1.3c-0.7,0.8-2,1.6-3.3,1.6c-1.9,0-2.9-0.9-2.9-2.9v-6.5h1v6.2c0,1.8,0.9,2.3,2.2,2.3
			c1.2,0,2.4-0.7,3-1.5v-7h1v9.2H141z"/>
		<path class="st2" d="M145.1,41.9v-9.2h1v1.6c0.8-1,1.8-1.8,3.1-1.8v1.1c-0.2,0-0.3,0-0.5,0c-0.9,0-2.2,0.8-2.6,1.6v6.7H145.1z"/>
		<path class="st2" d="M150.6,37.3c0-2.7,1.7-4.8,4.4-4.8c1.6,0,2.5,0.6,3.2,1.6l-0.7,0.6c-0.7-0.9-1.5-1.3-2.5-1.3
			c-2.1,0-3.5,1.7-3.5,3.9c0,2.2,1.3,3.9,3.5,3.9c1,0,1.8-0.4,2.5-1.3l0.7,0.6c-0.7,0.9-1.7,1.6-3.2,1.6
			C152.3,42.1,150.6,40,150.6,37.3z"/>
		<path class="st2" d="M160,37.3c0-2.7,1.9-4.8,4.4-4.8c2.8,0,4.3,2.2,4.3,4.9v0.3H161c0.1,2,1.4,3.6,3.6,3.6c1.2,0,2.2-0.4,3-1.3
			l0.5,0.6c-0.9,1-2.1,1.5-3.6,1.5C161.9,42.1,160,40.1,160,37.3z M164.3,33.3c-2.2,0-3.2,1.9-3.3,3.5h6.7
			C167.7,35.3,166.6,33.3,164.3,33.3z"/>
		<path class="st2" d="M170.4,40.6l0.6-0.7c0.6,0.7,1.7,1.3,3,1.3c1.5,0,2.5-0.8,2.5-1.9c0-2.5-5.8-1.1-5.8-4.4
			c0-1.4,1.2-2.5,3.3-2.5c1.6,0,2.6,0.6,3.3,1.3l-0.6,0.7c-0.5-0.7-1.5-1.2-2.7-1.2c-1.4,0-2.3,0.7-2.3,1.7c0,2.3,5.8,0.9,5.8,4.4
			c0,1.5-1.1,2.7-3.4,2.7C172.5,42.1,171.4,41.7,170.4,40.6z"/>
		<path class="st2" d="M184.4,37.3c0-2.7,1.7-4.8,4.4-4.8c2.7,0,4.4,2.1,4.4,4.8s-1.7,4.8-4.4,4.8C186.1,42.1,184.4,40,184.4,37.3z
			 M192.1,37.3c0-2-1.2-3.9-3.4-3.9c-2.1,0-3.3,1.9-3.3,3.9c0,2.1,1.2,3.9,3.3,3.9C190.9,41.2,192.1,39.3,192.1,37.3z"/>
		<path class="st2" d="M196.1,41.9v-8.3h-1.5v-0.9h1.5v-0.8c0-1.8,0.9-2.8,2.5-2.8c0.6,0,1.2,0.1,1.7,0.6l-0.5,0.7
			c-0.3-0.3-0.7-0.5-1.2-0.5c-1,0-1.6,0.7-1.6,2v0.8h1.9v0.9h-1.9v8.3H196.1z"/>
		<path class="st2" d="M205.2,37.3c0-2.7,1.7-4.8,4.4-4.8c1.6,0,2.5,0.6,3.2,1.6l-0.7,0.6c-0.7-0.9-1.5-1.3-2.5-1.3
			c-2.1,0-3.5,1.7-3.5,3.9c0,2.2,1.3,3.9,3.5,3.9c1,0,1.8-0.4,2.5-1.3l0.7,0.6c-0.7,0.9-1.7,1.6-3.2,1.6
			C206.9,42.1,205.2,40,205.2,37.3z"/>
		<path class="st2" d="M221.3,41.9v-1.3c-0.7,0.8-2,1.6-3.3,1.6c-1.9,0-2.9-0.9-2.9-2.9v-6.5h1v6.2c0,1.8,0.9,2.3,2.2,2.3
			c1.2,0,2.4-0.7,3-1.5v-7h1v9.2H221.3z"/>
		<path class="st2" d="M224.5,40.6l0.6-0.7c0.6,0.7,1.7,1.3,3,1.3c1.5,0,2.5-0.8,2.5-1.9c0-2.5-5.8-1.1-5.8-4.4
			c0-1.4,1.2-2.5,3.3-2.5c1.6,0,2.6,0.6,3.3,1.3l-0.6,0.7c-0.5-0.7-1.5-1.2-2.7-1.2c-1.4,0-2.3,0.7-2.3,1.7c0,2.3,5.8,0.9,5.8,4.4
			c0,1.5-1.1,2.7-3.4,2.7C226.6,42.1,225.4,41.7,224.5,40.6z"/>
		<path class="st2" d="M234.2,40.1v-6.5h-1.5v-0.9h1.5v-2.5h1v2.5h1.9v0.9h-1.9V40c0,0.7,0.3,1.3,1,1.3c0.4,0,0.8-0.2,1-0.4l0.4,0.8
			c-0.4,0.3-0.8,0.6-1.6,0.6C234.8,42.1,234.2,41.4,234.2,40.1z"/>
		<path class="st2" d="M238.8,37.3c0-2.7,1.7-4.8,4.4-4.8c2.7,0,4.4,2.1,4.4,4.8s-1.7,4.8-4.4,4.8C240.5,42.1,238.8,40,238.8,37.3z
			 M246.5,37.3c0-2-1.2-3.9-3.4-3.9c-2.1,0-3.3,1.9-3.3,3.9c0,2.1,1.2,3.9,3.3,3.9C245.3,41.2,246.5,39.3,246.5,37.3z"/>
		<path class="st2" d="M261.1,41.9v-6.4c0-1.3-0.6-2.1-1.8-2.1c-1,0-2.1,0.7-2.6,1.6v7h-1v-6.4c0-1.3-0.5-2.1-1.8-2.1
			c-1,0-2.1,0.7-2.6,1.6v6.9h-1v-9.2h1v1.4c0.4-0.6,1.6-1.6,3-1.6c1.4,0,2.2,0.8,2.4,1.7c0.5-0.9,1.7-1.7,3-1.7
			c1.7,0,2.5,0.9,2.5,2.8v6.6H261.1z"/>
		<path class="st2" d="M264.6,37.3c0-2.7,1.9-4.8,4.4-4.8c2.8,0,4.3,2.2,4.3,4.9v0.3h-7.7c0.1,2,1.4,3.6,3.6,3.6
			c1.2,0,2.2-0.4,3-1.3l0.5,0.6c-0.9,1-2.1,1.5-3.6,1.5C266.5,42.1,264.6,40.1,264.6,37.3z M269,33.3c-2.2,0-3.2,1.9-3.3,3.5h6.7
			C272.3,35.3,271.3,33.3,269,33.3z"/>
		<path class="st2" d="M275.9,41.9v-9.2h1v1.6c0.8-1,1.8-1.8,3.1-1.8v1.1c-0.2,0-0.3,0-0.5,0c-0.9,0-2.2,0.8-2.6,1.6v6.7H275.9z"/>
		<path class="st2" d="M293.6,41.9v-1.5c-0.6,1-1.8,1.7-3.2,1.7c-2.4,0-4.1-1.9-4.1-4.8c0-2.9,1.7-4.8,4.1-4.8
			c1.3,0,2.5,0.7,3.2,1.7v-5h1v12.7H293.6z M293.6,39.6V35c-0.5-0.9-1.7-1.7-3-1.7c-2,0-3.2,1.7-3.2,3.9s1.2,3.9,3.2,3.9
			C291.9,41.2,293.1,40.4,293.6,39.6z"/>
		<path class="st2" d="M303.5,41.9v-1.1c-0.8,0.9-1.8,1.3-3.1,1.3c-1.6,0-3.2-1.1-3.2-3.1c0-2,1.6-3,3.2-3c1.3,0,2.3,0.4,3.1,1.3
			v-1.9c0-1.4-1.1-2.1-2.5-2.1c-1.2,0-2.1,0.4-2.9,1.3l-0.6-0.7c1-1,2-1.5,3.5-1.5c1.9,0,3.3,0.9,3.3,2.9v6.5H303.5z M303.5,40.1v-2
			c-0.6-0.9-1.7-1.3-2.8-1.3c-1.5,0-2.5,1-2.5,2.3c0,1.3,1,2.3,2.5,2.3C301.8,41.3,302.9,40.9,303.5,40.1z"/>
		<path class="st2" d="M307.8,40.1v-6.5h-1.5v-0.9h1.5v-2.5h1v2.5h1.9v0.9h-1.9V40c0,0.7,0.3,1.3,1,1.3c0.4,0,0.8-0.2,1-0.4l0.4,0.8
			c-0.4,0.3-0.8,0.6-1.6,0.6C308.4,42.1,307.8,41.4,307.8,40.1z"/>
		<path class="st2" d="M318.6,41.9v-1.1c-0.8,0.9-1.8,1.3-3.1,1.3c-1.6,0-3.2-1.1-3.2-3.1c0-2,1.6-3,3.2-3c1.3,0,2.3,0.4,3.1,1.3
			v-1.9c0-1.4-1.1-2.1-2.5-2.1c-1.2,0-2.1,0.4-2.9,1.3l-0.6-0.7c1-1,2-1.5,3.5-1.5c1.9,0,3.3,0.9,3.3,2.9v6.5H318.6z M318.6,40.1v-2
			c-0.6-0.9-1.7-1.3-2.8-1.3c-1.5,0-2.5,1-2.5,2.3c0,1.3,1,2.3,2.5,2.3C317,41.3,318,40.9,318.6,40.1z"/>
	</g>
</g>
<path class="st3" d="M125,137.2c0,6.5-4.5,12.8-11,12.8H37.8c-6.5,0-13.8-6.2-13.8-12.8V61.8C24,55.3,31.3,51,37.8,51H114
	c6.5,0,11,4.3,11,10.8V137.2z"/>
<rect x="25" y="118.1" class="st0" width="99" height="28.5"/>
<path class="st3" d="M239,137.2c0,6.5-5,12.8-11.5,12.8h-76.2c-6.5,0-13.3-6.2-13.3-12.8V61.8c0-6.5,6.8-10.8,13.3-10.8h76.2
	c6.5,0,11.5,4.3,11.5,10.8V137.2z"/>
<path class="st3" d="M354,137.2c0,6.5-4.8,12.8-11.3,12.8h-76.2c-6.5,0-13.5-6.2-13.5-12.8V61.8c0-6.5,7-10.8,13.5-10.8h76.2
	c6.5,0,11.3,4.3,11.3,10.8V137.2z"/>
<g>
	<g class="st1">
		<path class="st2" d="M36.3,124.1v-4.3l-4-5.7h1l3.4,4.9l3.4-4.9h1l-4,5.7v4.3H36.3z"/>
		<path class="st2" d="M40.2,120.5c0-2.1,1.4-3.8,3.5-3.8c2.1,0,3.5,1.7,3.5,3.8s-1.3,3.8-3.5,3.8C41.6,124.3,40.2,122.6,40.2,120.5
			z M46.3,120.5c0-1.6-0.9-3.1-2.7-3.1c-1.7,0-2.6,1.5-2.6,3.1c0,1.6,1,3.1,2.6,3.1C45.4,123.6,46.3,122.1,46.3,120.5z"/>
		<path class="st2" d="M54.1,124.1V123c-0.6,0.7-1.6,1.2-2.6,1.2c-1.5,0-2.3-0.7-2.3-2.3v-5.1H50v4.9c0,1.4,0.7,1.8,1.8,1.8
			c0.9,0,1.9-0.6,2.4-1.2v-5.5h0.8v7.2H54.1z"/>
		<path class="st2" d="M57.3,124.1v-7.2h0.8v1.2c0.6-0.8,1.4-1.4,2.4-1.4v0.9c-0.1,0-0.2,0-0.4,0c-0.7,0-1.7,0.7-2.1,1.3v5.3H57.3z"
			/>
		<path class="st2" d="M71.3,124.1v-1.2c-0.5,0.8-1.4,1.3-2.5,1.3c-1.9,0-3.2-1.5-3.2-3.8c0-2.3,1.3-3.8,3.2-3.8c1,0,2,0.5,2.5,1.3
			v-3.9h0.8v10H71.3z M71.3,122.3v-3.6c-0.4-0.7-1.4-1.3-2.4-1.3c-1.6,0-2.5,1.3-2.5,3.1s0.9,3.1,2.5,3.1
			C69.9,123.6,70.9,123,71.3,122.3z"/>
		<path class="st2" d="M74.1,120.5c0-2.1,1.5-3.8,3.5-3.8c2.2,0,3.4,1.7,3.4,3.8v0.2h-6.1c0.1,1.6,1.1,2.9,2.8,2.9
			c0.9,0,1.8-0.3,2.4-1l0.4,0.5c-0.7,0.8-1.6,1.2-2.8,1.2C75.6,124.3,74.1,122.7,74.1,120.5z M77.6,117.3c-1.7,0-2.6,1.5-2.6,2.8
			h5.3C80.2,118.9,79.4,117.3,77.6,117.3z"/>
		<path class="st2" d="M82.4,123.1l0.5-0.6c0.5,0.6,1.3,1.1,2.3,1.1c1.2,0,1.9-0.6,1.9-1.5c0-2-4.6-0.9-4.6-3.5c0-1.1,0.9-2,2.6-2
			c1.2,0,2.1,0.5,2.6,1.1l-0.4,0.6c-0.4-0.6-1.2-1-2.2-1c-1.1,0-1.8,0.6-1.8,1.3c0,1.8,4.6,0.7,4.6,3.5c0,1.2-0.9,2.1-2.7,2.1
			C84,124.3,83.1,123.9,82.4,123.1z"/>
		<path class="st2" d="M94.9,124.1l-2.9-3.5l-1.3,1.3v2.2h-0.8v-10h0.8v6.9l4.3-4.1h1l-3.4,3.3l3.4,4H94.9z"/>
		<path class="st2" d="M97.6,122.7v-5.2h-1.2v-0.7h1.2v-2h0.8v2h1.5v0.7h-1.5v5c0,0.6,0.2,1,0.7,1c0.3,0,0.6-0.2,0.8-0.3l0.3,0.6
			c-0.3,0.3-0.6,0.4-1.2,0.4C98.1,124.3,97.6,123.7,97.6,122.7z"/>
		<path class="st2" d="M101.2,120.5c0-2.1,1.4-3.8,3.5-3.8c2.1,0,3.5,1.7,3.5,3.8s-1.3,3.8-3.5,3.8
			C102.5,124.3,101.2,122.6,101.2,120.5z M107.3,120.5c0-1.6-0.9-3.1-2.7-3.1c-1.7,0-2.6,1.5-2.6,3.1c0,1.6,1,3.1,2.6,3.1
			C106.4,123.6,107.3,122.1,107.3,120.5z"/>
		<path class="st2" d="M110.9,122.9v3.9h-0.8v-10h0.8v1.1c0.5-0.7,1.4-1.3,2.5-1.3c1.9,0,3.2,1.5,3.2,3.8c0,2.3-1.3,3.8-3.2,3.8
			C112.4,124.3,111.5,123.7,110.9,122.9z M115.9,120.5c0-1.8-0.9-3.1-2.5-3.1c-1,0-2,0.6-2.4,1.3v3.6c0.4,0.7,1.4,1.3,2.4,1.3
			C114.9,123.6,115.9,122.2,115.9,120.5z"/>
	</g>
	<g class="st1">
		<path class="st2" d="M57.9,137.8l-2-6.2l-2,6.2h-0.8l-2.4-7.2h0.8l1.9,6.2l2-6.2h0.7l2,6.2l1.9-6.2H61l-2.4,7.2H57.9z"/>
		<path class="st2" d="M62.1,134.2c0-2.1,1.5-3.8,3.5-3.8c2.2,0,3.4,1.7,3.4,3.8v0.2h-6.1c0.1,1.6,1.1,2.9,2.8,2.9
			c0.9,0,1.8-0.3,2.4-1l0.4,0.5c-0.7,0.8-1.6,1.2-2.8,1.2C63.6,138,62.1,136.4,62.1,134.2z M65.5,131c-1.7,0-2.6,1.5-2.6,2.8h5.3
			C68.2,132.6,67.4,131,65.5,131z"/>
		<path class="st2" d="M71,137.8v-10h0.8v3.9c0.6-0.8,1.5-1.3,2.5-1.3c1.9,0,3.2,1.5,3.2,3.8c0,2.3-1.3,3.8-3.2,3.8
			c-1.1,0-2-0.6-2.5-1.3v1.2H71z M74.1,137.3c1.6,0,2.5-1.3,2.5-3.1s-0.9-3.1-2.5-3.1c-1,0-2,0.6-2.4,1.3v3.6
			C72.2,136.7,73.1,137.3,74.1,137.3z"/>
		<path class="st2" d="M78.9,136.8l0.5-0.6c0.5,0.6,1.3,1.1,2.3,1.1c1.2,0,1.9-0.6,1.9-1.5c0-2-4.6-0.9-4.6-3.5c0-1.1,0.9-2,2.6-2
			c1.2,0,2.1,0.5,2.6,1.1l-0.4,0.6c-0.4-0.6-1.2-1-2.2-1c-1.1,0-1.8,0.6-1.8,1.3c0,1.8,4.6,0.7,4.6,3.5c0,1.2-0.9,2.1-2.7,2.1
			C80.5,138,79.6,137.6,78.9,136.8z"/>
		<path class="st2" d="M86.2,128.8c0-0.3,0.3-0.6,0.6-0.6c0.3,0,0.6,0.3,0.6,0.6s-0.3,0.6-0.6,0.6C86.5,129.4,86.2,129.1,86.2,128.8
			z M86.4,137.8v-7.2h0.8v7.2H86.4z"/>
		<path class="st2" d="M89.8,136.4v-5.2h-1.2v-0.7h1.2v-2h0.8v2h1.5v0.7h-1.5v5c0,0.6,0.2,1,0.8,1c0.3,0,0.6-0.2,0.8-0.3l0.3,0.6
			c-0.3,0.3-0.6,0.4-1.2,0.4C90.3,138,89.8,137.4,89.8,136.4z"/>
		<path class="st2" d="M93.4,134.2c0-2.1,1.5-3.8,3.5-3.8c2.2,0,3.4,1.7,3.4,3.8v0.2h-6.1c0.1,1.6,1.1,2.9,2.8,2.9
			c0.9,0,1.8-0.3,2.4-1l0.4,0.5c-0.7,0.8-1.6,1.2-2.8,1.2C94.9,138,93.4,136.4,93.4,134.2z M96.8,131c-1.7,0-2.6,1.5-2.6,2.8h5.3
			C99.5,132.6,98.6,131,96.8,131z"/>
	</g>
	<g>
		<path class="st2" d="M91,101h-3.5v-4h-9v4h-3.2c-0.7,0-1.3,0.8-1.3,1.5s0.6,1.5,1.3,1.5H91c0.7,0,1.3-0.8,1.3-1.5
			C92.4,101.8,91.8,101,91,101z"/>
		<path class="st2" d="M101.5,71c0-0.5-0.4-1-1-1h-35c-0.5,0-1,0.4-1,1v22c0,0.5,0.4,1,1,1h35c0.5,0,1-0.4,1-1V71z M86.5,89.3
			c0,0.2,0.1-0.3-0.1-0.3H69.9c-0.2,0-0.4,0.5-0.4,0.3v-6.7c0-0.2,0.2-0.6,0.4-0.6h16.5c0.2,0,0.1,0.4,0.1,0.6V89.3z M95.5,89.3
			c0,0.2-0.1-0.3-0.1-0.3h-6.6c-0.1,0-0.3,0.5-0.3,0.3v-6.7c0-0.2,0.2-0.6,0.3-0.6h6.6c0.1,0,0.1,0.4,0.1,0.6V89.3z M95.5,80.2
			c0,0.2-0.2-0.2-0.4-0.2H70c-0.2,0-0.5,0.5-0.5,0.2v-4.8c0-0.2,0.3-0.4,0.5-0.4h25.1c0.2,0,0.4,0.2,0.4,0.4V80.2z"/>
		<path class="st2" d="M61.5,93.7V83H51.4c-0.7,0-1.3-0.8-1.3-1.5s0.6-1.5,1.3-1.5h10.1v-3H51.4c-0.7,0-1.3-0.8-1.3-1.5
			s0.6-1.5,1.3-1.5h10.1v-2.4c0-0.3,0.5-0.6,0.6-1.6H51.4c-0.7,0-1.3-0.3-1.3-1s0.6-1,1.3-1h13.3c0.1,0,0.2,0,0.3,0.1
			c0.2,0,0.4-0.1,0.6-0.1h2.9v-3.7c0-0.7-0.4-1.3-1.1-1.3H48.7c-0.7,0-1.2,0.5-1.2,1.3V103c0,0.7,0.5,1.1,1.2,1.1h18.7
			c0.7,0,1.1-0.3,1.1-1.1v-6h-2.9C63.6,97,61.5,95.7,61.5,93.7z M58.1,96.4c-1.1,0-2.1-0.9-2.1-2.1c0-1.1,0.9-2.1,2.1-2.1
			c1.1,0,2.1,0.9,2.1,2.1C60.1,95.5,59.2,96.4,58.1,96.4z"/>
	</g>
</g>
<g>
	<g>
		<g>
			<rect x="143.5" y="114.6" class="st0" width="90" height="31.9"/>
		</g>
		<g class="st1">
			<path class="st2" d="M153.5,124.6v-4.3l-4-5.7h1l3.4,4.9l3.4-4.9h1l-4,5.7v4.3H153.5z"/>
			<path class="st2" d="M157.4,121c0-2.1,1.4-3.8,3.5-3.8c2.1,0,3.5,1.7,3.5,3.8s-1.3,3.8-3.5,3.8
				C158.8,124.8,157.4,123.1,157.4,121z M163.5,121c0-1.6-0.9-3.1-2.7-3.1c-1.7,0-2.6,1.5-2.6,3.1c0,1.6,1,3.1,2.6,3.1
				C162.6,124.1,163.5,122.6,163.5,121z"/>
			<path class="st2" d="M171.3,124.6v-1.1c-0.6,0.7-1.6,1.2-2.6,1.2c-1.5,0-2.3-0.7-2.3-2.3v-5.1h0.8v4.9c0,1.4,0.7,1.8,1.8,1.8
				c0.9,0,1.9-0.6,2.4-1.2v-5.5h0.8v7.2H171.3z"/>
			<path class="st2" d="M174.5,124.6v-7.2h0.8v1.2c0.6-0.8,1.4-1.4,2.4-1.4v0.9c-0.1,0-0.2,0-0.4,0c-0.7,0-1.7,0.7-2.1,1.3v5.3
				H174.5z"/>
			<path class="st2" d="M191.7,124.6v-5.1c0-1-0.4-1.7-1.5-1.7c-0.8,0-1.7,0.6-2.1,1.2v5.5h-0.8v-5.1c0-1-0.4-1.7-1.4-1.7
				c-0.8,0-1.7,0.6-2.1,1.2v5.5h-0.8v-7.2h0.8v1.1c0.3-0.5,1.3-1.3,2.3-1.3c1.1,0,1.7,0.7,1.9,1.4c0.4-0.7,1.4-1.4,2.4-1.4
				c1.3,0,2,0.8,2,2.2v5.2H191.7z"/>
			<path class="st2" d="M194.6,121c0-2.1,1.3-3.8,3.5-3.8c2.1,0,3.5,1.7,3.5,3.8s-1.3,3.8-3.5,3.8
				C195.9,124.8,194.6,123.1,194.6,121z M200.7,121c0-1.6-0.9-3.1-2.7-3.1c-1.7,0-2.6,1.5-2.6,3.1c0,1.6,1,3.1,2.6,3.1
				C199.7,124.1,200.7,122.6,200.7,121z"/>
			<path class="st2" d="M203.5,124.6v-10h0.8v3.9c0.6-0.8,1.5-1.3,2.5-1.3c1.9,0,3.2,1.5,3.2,3.8c0,2.3-1.3,3.8-3.2,3.8
				c-1.1,0-2-0.6-2.5-1.3v1.2H203.5z M206.7,124.1c1.6,0,2.5-1.3,2.5-3.1s-0.9-3.1-2.5-3.1c-1,0-2,0.6-2.4,1.3v3.6
				C204.7,123.5,205.7,124.1,206.7,124.1z"/>
			<path class="st2" d="M211.9,115.6c0-0.3,0.3-0.6,0.6-0.6c0.3,0,0.6,0.3,0.6,0.6s-0.3,0.6-0.6,0.6
				C212.2,116.2,211.9,115.9,211.9,115.6z M212.1,124.6v-7.2h0.8v7.2H212.1z"/>
			<path class="st2" d="M215.3,124.6v-10h0.8v10H215.3z"/>
			<path class="st2" d="M218.1,121c0-2.1,1.5-3.8,3.5-3.8c2.2,0,3.4,1.7,3.4,3.8v0.2h-6.1c0.1,1.6,1.1,2.9,2.8,2.9
				c0.9,0,1.8-0.3,2.4-1l0.4,0.5c-0.7,0.8-1.6,1.2-2.8,1.2C219.6,124.8,218.1,123.2,218.1,121z M221.6,117.8c-1.7,0-2.6,1.5-2.6,2.8
				h5.3C224.2,119.4,223.4,117.8,221.6,117.8z"/>
		</g>
		<g class="st1">
			<path class="st2" d="M170.6,138.3l-2-6.2l-2,6.2h-0.8l-2.4-7.2h0.8l1.9,6.2l2-6.2h0.7l2,6.2l1.9-6.2h0.8l-2.4,7.2H170.6z"/>
			<path class="st2" d="M174.8,134.7c0-2.1,1.5-3.8,3.5-3.8c2.2,0,3.4,1.7,3.4,3.8v0.2h-6.1c0.1,1.6,1.1,2.9,2.8,2.9
				c0.9,0,1.8-0.3,2.4-1l0.4,0.5c-0.7,0.8-1.6,1.2-2.8,1.2C176.3,138.5,174.8,136.9,174.8,134.7z M178.2,131.5
				c-1.7,0-2.6,1.5-2.6,2.8h5.3C180.9,133.1,180,131.5,178.2,131.5z"/>
			<path class="st2" d="M183.7,138.3v-10h0.8v3.9c0.6-0.8,1.5-1.3,2.5-1.3c1.9,0,3.2,1.5,3.2,3.8c0,2.3-1.3,3.8-3.2,3.8
				c-1.1,0-2-0.6-2.5-1.3v1.2H183.7z M186.8,137.8c1.6,0,2.5-1.3,2.5-3.1s-0.9-3.1-2.5-3.1c-1,0-2,0.6-2.4,1.3v3.6
				C184.9,137.2,185.8,137.8,186.8,137.8z"/>
			<path class="st2" d="M191.6,137.3l0.5-0.6c0.5,0.6,1.3,1.1,2.3,1.1c1.2,0,1.9-0.6,1.9-1.5c0-2-4.6-0.9-4.6-3.5c0-1.1,0.9-2,2.6-2
				c1.2,0,2.1,0.5,2.6,1.1l-0.4,0.6c-0.4-0.6-1.2-1-2.2-1c-1.1,0-1.8,0.6-1.8,1.3c0,1.8,4.6,0.7,4.6,3.5c0,1.2-0.9,2.1-2.7,2.1
				C193.2,138.5,192.3,138.1,191.6,137.3z"/>
			<path class="st2" d="M198.9,129.3c0-0.3,0.3-0.6,0.6-0.6c0.3,0,0.6,0.3,0.6,0.6s-0.3,0.6-0.6,0.6
				C199.2,129.9,198.9,129.6,198.9,129.3z M199.1,138.3V131h0.8v7.2H199.1z"/>
			<path class="st2" d="M202.5,136.9v-5.2h-1.2V131h1.2v-2h0.8v2h1.5v0.7h-1.5v5c0,0.6,0.2,1,0.8,1c0.3,0,0.6-0.2,0.8-0.3l0.3,0.6
				c-0.3,0.3-0.6,0.4-1.2,0.4C202.9,138.5,202.5,137.9,202.5,136.9z"/>
			<path class="st2" d="M206.1,134.7c0-2.1,1.5-3.8,3.5-3.8c2.2,0,3.4,1.7,3.4,3.8v0.2h-6.1c0.1,1.6,1.1,2.9,2.8,2.9
				c0.9,0,1.8-0.3,2.4-1l0.4,0.5c-0.7,0.8-1.6,1.2-2.8,1.2C207.6,138.5,206.1,136.9,206.1,134.7z M209.5,131.5
				c-1.7,0-2.6,1.5-2.6,2.8h5.3C212.1,133.1,211.3,131.5,209.5,131.5z"/>
		</g>
	</g>
	<g>
		<path class="st2" d="M209.9,62.5h-38.2c-3.6,0-6.2,3-6.2,6.6v25.6c0,3.6,2.6,5.9,6.2,5.9h20.8v-5h-19V67.5h36.4
			c0.7,0,1.6,0.8,1.6,1.6v0.4h1.6c1.2,0,2.4,0.4,3.4,0.9v-1.3C216.5,65.5,213.4,62.5,209.9,62.5L209.9,62.5z M169.6,79.4
			c1.4,0,2.5,1.1,2.5,2.4c0,1.4-1.1,2.5-2.5,2.5c-1.3,0-2.5-1.1-2.5-2.5C167.2,80.5,168.3,79.4,169.6,79.4L169.6,79.4z"/>
		<path class="st2" d="M190.5,85.4c0-0.5-0.4-0.9-0.9-0.9h-11.3c-0.5,0-0.9,0.4-0.9,0.9v7.3c0,0.5,0.4,0.9,0.9,0.9h11.3
			c0.5,0,0.9-0.4,0.9-0.9V85.4z"/>
		<path class="st2" d="M177.9,81.5c0,0.5,0.4,1,0.9,1h13.7v-2h-13.7C178.3,80.5,177.9,81,177.9,81.5L177.9,81.5z"/>
		<path class="st2" d="M177.9,78c0,0.5,0.4,0.5,0.9,0.5h13.7v-1h-13.7C178.3,77.5,177.9,77.5,177.9,78L177.9,78z"/>
		<path class="st2" d="M177.9,74.5c0,0.5,0.4,1,0.9,1h13.3c0.1-1,0.2-1,0.4-2h-13.7C178.3,73.5,177.9,74,177.9,74.5L177.9,74.5z"/>
		<path class="st2" d="M177.9,71c0,0.5,0.4,0.5,0.9,0.5h14.7c0.5,0,1.2-1,2-1h-16.7C178.3,70.5,177.9,70.5,177.9,71L177.9,71z"/>
		<path class="st2" d="M213.1,72.5h-14.4c-1.8,0-3.2,1.9-3.2,3.7v27.3c0,1.8,1.4,3,3.2,3h14.4c1.8,0,3.4-1.2,3.4-3V76.2
			C216.5,74.4,214.9,72.5,213.1,72.5L213.1,72.5z M198.5,76.5h14v24h-14V76.5z M204.4,103.4c0-0.9,0.7-1.6,1.6-1.6
			c0.9,0,1.6,0.7,1.6,1.6s-0.7,1.6-1.6,1.6C205.1,105,204.4,104.3,204.4,103.4L204.4,103.4z"/>
		<path class="st2" d="M202.2,82.5h7.7c0.5,0,0.7,0.1,0.7-0.4v-1.8c0-0.5-0.2-0.8-0.7-0.8h-7.7c-0.5,0-0.7,0.3-0.7,0.8v1.8
			C201.5,82.6,201.7,82.5,202.2,82.5L202.2,82.5z"/>
		<path class="st2" d="M210.7,84.5h-9.5c-0.5,0-0.9,0.5-0.9,1s0.4,1,0.9,1h9.5c0.5,0,0.9-0.5,0.9-1C211.6,85,211.2,84.5,210.7,84.5
			L210.7,84.5z"/>
		<path class="st2" d="M210.7,87.5h-9.5c-0.5,0-0.9,0.5-0.9,1s0.4,1,0.9,1h9.5c0.5,0,0.9-0.5,0.9-1C211.6,88,211.2,87.5,210.7,87.5
			L210.7,87.5z"/>
		<path class="st2" d="M210.7,91.5h-9.5c-0.5,0-0.9,0.5-0.9,1s0.4,1,0.9,1h9.5c0.5,0,0.9-0.5,0.9-1C211.6,92,211.2,91.5,210.7,91.5
			L210.7,91.5z"/>
		<path class="st2" d="M210.7,94.5h-9.5c-0.5,0-0.9,0.5-0.9,1s0.4,1,0.9,1h9.5c0.5,0,0.9-0.5,0.9-1C211.6,95,211.2,94.5,210.7,94.5
			L210.7,94.5z"/>
	</g>
</g>
<g>
	<g>
		<path class="st2" d="M305.4,104.6h-2.7c-0.2,0,0,0.8,0,1v1.9c0,0.2-0.2,0.2,0,0.2h2.8c0.2,0,0.3,0,0.3-0.2v-1.9
			C305.7,105.4,305.6,104.6,305.4,104.6L305.4,104.6z"/>
		<path class="st2" d="M316,65.6h-23.9c-1.4,0-2.4,1.6-2.4,3v39.7c0,1.4,1,2.3,2.4,2.3H316c1.4,0,2.7-0.9,2.7-2.3V68.6
			C318.7,67.2,317.4,65.6,316,65.6L316,65.6z M302,67.6h4c0.3,0,0.6,0.7,0.6,1s-0.3,1-0.6,1h-4c-0.3,0-0.6-0.7-0.6-1
			C301.4,68.3,301.7,67.6,302,67.6L302,67.6z M306.7,107.4c0,0.9-0.4,1.2-1.3,1.2h-2.7c-0.9,0-2-0.3-2-1.2v-1.8c0-0.9,1.1-2,2-2h2.8
			c0.9,0,1.3,1.1,1.3,2L306.7,107.4L306.7,107.4z M315.7,101.9c0,0.3-0.4,0.7-0.8,0.7h-21.7c-0.3,0-0.5-0.4-0.5-0.7V71.8
			c0-0.3,0.1-1.2,0.5-1.2h21.7c0.3,0,0.8,0.8,0.8,1.2V101.9z"/>
		<path class="st2" d="M301.9,73.6h-6.4c-0.7,0-0.9,0.8-0.9,1.5v12.4c0,0.7,0.2,1.1,0.9,1.1h6.4c0.7,0,0.8-0.4,0.8-1.1V75.1
			C302.7,74.4,302.6,73.6,301.9,73.6L301.9,73.6z"/>
		<path class="st2" d="M312.5,81.6H306c-0.7,0-1.3,1.2-1.3,1.9v4c0,0.7,0.7,1.1,1.3,1.1h6.5c0.7,0,1.2-0.4,1.2-1.1v-4
			C313.7,82.8,313.2,81.6,312.5,81.6L312.5,81.6z"/>
		<path class="st2" d="M312.5,73.6H306c-0.7,0-1.3,0.8-1.3,1.5v4c0,0.7,0.7,1.6,1.3,1.6h6.5c0.7,0,1.2-0.9,1.2-1.6v-4
			C313.7,74.4,313.2,73.6,312.5,73.6L312.5,73.6z"/>
		<path class="st2" d="M301.9,90.6h-6.4c-0.7,0-0.9,0.5-0.9,1.2v6.6c0,0.7,0.2,1.1,0.9,1.1h6.4c0.7,0,0.8-0.5,0.8-1.1v-6.6
			C302.7,91.1,302.6,90.6,301.9,90.6L301.9,90.6z"/>
		<path class="st2" d="M312.4,90.6H306c-0.7,0-1.3,0.5-1.3,1.2v6.6c0,0.7,0.7,1.1,1.3,1.1h6.4c0.7,0,1.3-0.5,1.3-1.1v-6.6
			C313.7,91.1,313.1,90.6,312.4,90.6L312.4,90.6z"/>
	</g>
	<g>
		<g>
			<rect x="265" y="124.2" class="st0" width="77" height="15.3"/>
		</g>
		<g class="st1">
			<path class="st2" d="M278,134.1v-4.3l-4-5.7h1l3.4,4.9l3.4-4.9h1l-4,5.7v4.3H278z"/>
			<path class="st2" d="M282,130.5c0-2.1,1.3-3.8,3.5-3.8c2.1,0,3.5,1.7,3.5,3.8s-1.3,3.8-3.5,3.8C283.3,134.3,282,132.6,282,130.5z
				 M288.1,130.5c0-1.6-0.9-3.1-2.7-3.1c-1.7,0-2.6,1.5-2.6,3.1c0,1.6,1,3.1,2.6,3.1C287.2,133.6,288.1,132.1,288.1,130.5z"/>
			<path class="st2" d="M295.9,134.1v-1.1c-0.6,0.7-1.6,1.2-2.6,1.2c-1.5,0-2.3-0.7-2.3-2.3v-5.1h0.8v4.9c0,1.4,0.7,1.8,1.8,1.8
				c0.9,0,1.9-0.6,2.4-1.2v-5.5h0.8v7.2H295.9z"/>
			<path class="st2" d="M299.1,134.1v-7.2h0.8v1.2c0.6-0.8,1.4-1.4,2.4-1.4v0.9c-0.1,0-0.2,0-0.4,0c-0.7,0-1.7,0.7-2.1,1.3v5.3
				H299.1z"/>
			<path class="st2" d="M312.3,134.1v-0.9c-0.6,0.7-1.5,1-2.5,1c-1.2,0-2.5-0.9-2.5-2.4c0-1.6,1.3-2.4,2.5-2.4c1,0,1.8,0.3,2.5,1
				V129c0-1.1-0.9-1.7-1.9-1.7c-0.9,0-1.6,0.3-2.3,1.1l-0.4-0.5c0.8-0.8,1.6-1.2,2.8-1.2c1.5,0,2.6,0.7,2.6,2.3v5.1H312.3z
				 M312.3,132.7v-1.6c-0.5-0.7-1.3-1-2.2-1c-1.2,0-2,0.8-2,1.8c0,1,0.8,1.8,2,1.8C311,133.7,311.8,133.4,312.3,132.7z"/>
			<path class="st2" d="M316.3,132.9v3.9h-0.8v-10h0.8v1.1c0.5-0.7,1.4-1.3,2.5-1.3c1.9,0,3.2,1.5,3.2,3.8c0,2.3-1.3,3.8-3.2,3.8
				C317.8,134.3,316.9,133.8,316.3,132.9z M321.2,130.5c0-1.8-0.9-3.1-2.5-3.1c-1,0-2,0.6-2.4,1.3v3.6c0.4,0.7,1.4,1.3,2.4,1.3
				C320.3,133.6,321.2,132.2,321.2,130.5z"/>
			<path class="st2" d="M324.8,132.9v3.9H324v-10h0.8v1.1c0.5-0.7,1.4-1.3,2.5-1.3c1.9,0,3.2,1.5,3.2,3.8c0,2.3-1.3,3.8-3.2,3.8
				C326.3,134.3,325.4,133.8,324.8,132.9z M329.7,130.5c0-1.8-0.9-3.1-2.5-3.1c-1,0-2,0.6-2.4,1.3v3.6c0.4,0.7,1.4,1.3,2.4,1.3
				C328.8,133.6,329.7,132.2,329.7,130.5z"/>
		</g>
	</g>
</g>
<g>
	<rect x="35.4" y="408.4" class="st0" width="305.2" height="19"/>
	<text transform="matrix(1 0 0 1 149.5071 421.0577)" class="st2 st4 st5">Channels</text>
</g>
<g>
	<g>
		<rect x="35.4" y="167.5" class="st0" width="305.2" height="18.9"/>
	</g>
	<g class="st1">
		<path class="st2" d="M56,173.9c0-3.7,2.4-6.6,6.2-6.6c3.7,0,6.2,2.8,6.2,6.6s-2.5,6.6-6.2,6.6C58.5,180.4,56,177.6,56,173.9z
			 M67.2,173.9c0-3.2-2-5.6-5-5.6c-3.1,0-5,2.4-5,5.6c0,3.2,2,5.6,5,5.6C65.2,179.4,67.2,177.1,67.2,173.9z"/>
		<path class="st2" d="M71.3,180.2v-8.3h-1.5V171h1.5v-0.8c0-1.8,0.9-2.8,2.5-2.8c0.6,0,1.2,0.1,1.7,0.6l-0.5,0.7
			c-0.3-0.3-0.7-0.5-1.2-0.5c-1,0-1.6,0.7-1.6,2v0.8h1.9v0.9h-1.9v8.3H71.3z M76.3,180.2v-8.3h-1.5V171h1.5v-0.8
			c0-1.8,1-2.8,2.5-2.8c0.5,0,0.9,0.1,1.2,0.3l-0.3,0.8c-0.2-0.1-0.5-0.2-0.8-0.2c-1,0-1.6,0.7-1.6,2v0.8h1.9v0.9h-1.9v8.3H76.3z
			 M81.1,180.2v-12.7h1v12.7H81.1z"/>
		<path class="st2" d="M84.8,168.8c0-0.4,0.4-0.7,0.8-0.7c0.4,0,0.8,0.3,0.8,0.7s-0.3,0.8-0.8,0.8C85.2,169.6,84.8,169.2,84.8,168.8
			z M85.1,180.2V171h1v9.2H85.1z"/>
		<path class="st2" d="M95.4,180.2V174c0-1.8-0.9-2.3-2.2-2.3c-1.2,0-2.4,0.7-3,1.6v6.9h-1V171h1v1.4c0.7-0.8,2-1.6,3.3-1.6
			c1.9,0,2.9,0.9,2.9,3v6.4H95.4z"/>
		<path class="st2" d="M98.9,175.6c0-2.7,1.9-4.8,4.4-4.8c2.8,0,4.3,2.2,4.3,4.9v0.3H100c0.1,2,1.4,3.6,3.6,3.6c1.2,0,2.2-0.4,3-1.3
			l0.5,0.6c-0.9,1-2.1,1.5-3.6,1.5C100.8,180.4,98.9,178.4,98.9,175.6z M103.3,171.7c-2.2,0-3.2,1.9-3.3,3.5h6.7
			C106.6,173.6,105.6,171.7,103.3,171.7z"/>
		<path class="st2" d="M114.3,179l0.6-0.7c0.6,0.7,1.7,1.3,3,1.3c1.5,0,2.5-0.8,2.5-1.9c0-2.5-5.8-1.1-5.8-4.4
			c0-1.4,1.2-2.5,3.3-2.5c1.6,0,2.6,0.6,3.3,1.3l-0.6,0.7c-0.5-0.7-1.5-1.2-2.7-1.2c-1.4,0-2.3,0.7-2.3,1.7c0,2.3,5.8,0.9,5.8,4.4
			c0,1.5-1.1,2.7-3.4,2.7C116.4,180.4,115.2,180,114.3,179z"/>
		<path class="st2" d="M123.3,175.6c0-2.7,1.7-4.8,4.4-4.8c2.7,0,4.4,2.1,4.4,4.8s-1.7,4.8-4.4,4.8
			C125,180.4,123.3,178.3,123.3,175.6z M131.1,175.6c0-2-1.2-3.9-3.4-3.9c-2.1,0-3.3,1.9-3.3,3.9c0,2.1,1.2,3.9,3.3,3.9
			C129.9,179.5,131.1,177.7,131.1,175.6z"/>
		<path class="st2" d="M140.9,180.2v-1.3c-0.7,0.8-2,1.6-3.3,1.6c-1.9,0-2.9-0.9-2.9-2.9V171h1v6.2c0,1.8,0.9,2.3,2.2,2.3
			c1.2,0,2.4-0.7,3-1.5v-7h1v9.2H140.9z"/>
		<path class="st2" d="M145,180.2V171h1v1.6c0.8-1,1.8-1.8,3.1-1.8v1.1c-0.2,0-0.3,0-0.5,0c-0.9,0-2.2,0.8-2.6,1.6v6.7H145z"/>
		<path class="st2" d="M150.5,175.6c0-2.7,1.7-4.8,4.4-4.8c1.6,0,2.5,0.6,3.2,1.6l-0.7,0.6c-0.7-0.9-1.5-1.3-2.5-1.3
			c-2.1,0-3.5,1.7-3.5,3.9c0,2.2,1.3,3.9,3.5,3.9c1,0,1.8-0.4,2.5-1.3l0.7,0.6c-0.7,0.9-1.7,1.6-3.2,1.6
			C152.2,180.4,150.5,178.3,150.5,175.6z"/>
		<path class="st2" d="M159.9,175.6c0-2.7,1.9-4.8,4.4-4.8c2.8,0,4.3,2.2,4.3,4.9v0.3h-7.7c0.1,2,1.4,3.6,3.6,3.6
			c1.2,0,2.2-0.4,3-1.3l0.5,0.6c-0.9,1-2.1,1.5-3.6,1.5C161.8,180.4,159.9,178.4,159.9,175.6z M164.2,171.7c-2.2,0-3.2,1.9-3.3,3.5
			h6.7C167.6,173.6,166.5,171.7,164.2,171.7z"/>
		<path class="st2" d="M170.3,179l0.6-0.7c0.6,0.7,1.7,1.3,3,1.3c1.5,0,2.5-0.8,2.5-1.9c0-2.5-5.8-1.1-5.8-4.4
			c0-1.4,1.2-2.5,3.3-2.5c1.6,0,2.6,0.6,3.3,1.3l-0.6,0.7c-0.5-0.7-1.5-1.2-2.7-1.2c-1.4,0-2.3,0.7-2.3,1.7c0,2.3,5.8,0.9,5.8,4.4
			c0,1.5-1.1,2.7-3.4,2.7C172.4,180.4,171.3,180,170.3,179z"/>
		<path class="st2" d="M184.3,175.6c0-2.7,1.7-4.8,4.4-4.8c2.7,0,4.4,2.1,4.4,4.8s-1.7,4.8-4.4,4.8
			C186,180.4,184.3,178.3,184.3,175.6z M192,175.6c0-2-1.2-3.9-3.4-3.9c-2.1,0-3.3,1.9-3.3,3.9c0,2.1,1.2,3.9,3.3,3.9
			C190.8,179.5,192,177.7,192,175.6z"/>
		<path class="st2" d="M196,180.2v-8.3h-1.5V171h1.5v-0.8c0-1.8,0.9-2.8,2.5-2.8c0.6,0,1.2,0.1,1.7,0.6l-0.5,0.7
			c-0.3-0.3-0.7-0.5-1.2-0.5c-1,0-1.6,0.7-1.6,2v0.8h1.9v0.9H197v8.3H196z"/>
		<path class="st2" d="M205.1,175.6c0-2.7,1.7-4.8,4.4-4.8c1.6,0,2.5,0.6,3.2,1.6l-0.7,0.6c-0.7-0.9-1.5-1.3-2.5-1.3
			c-2.1,0-3.5,1.7-3.5,3.9c0,2.2,1.3,3.9,3.5,3.9c1,0,1.8-0.4,2.5-1.3l0.7,0.6c-0.7,0.9-1.7,1.6-3.2,1.6
			C206.8,180.4,205.1,178.3,205.1,175.6z"/>
		<path class="st2" d="M221.2,180.2v-1.3c-0.7,0.8-2,1.6-3.3,1.6c-1.9,0-2.9-0.9-2.9-2.9V171h1v6.2c0,1.8,0.9,2.3,2.2,2.3
			c1.2,0,2.4-0.7,3-1.5v-7h1v9.2H221.2z"/>
		<path class="st2" d="M224.4,179l0.6-0.7c0.6,0.7,1.7,1.3,3,1.3c1.5,0,2.5-0.8,2.5-1.9c0-2.5-5.8-1.1-5.8-4.4
			c0-1.4,1.2-2.5,3.3-2.5c1.6,0,2.6,0.6,3.3,1.3l-0.6,0.7c-0.5-0.7-1.5-1.2-2.7-1.2c-1.4,0-2.3,0.7-2.3,1.7c0,2.3,5.8,0.9,5.8,4.4
			c0,1.5-1.1,2.7-3.4,2.7C226.5,180.4,225.3,180,224.4,179z"/>
		<path class="st2" d="M234.1,178.4v-6.5h-1.5V171h1.5v-2.5h1v2.5h1.9v0.9h-1.9v6.4c0,0.7,0.3,1.3,0.9,1.3c0.4,0,0.8-0.2,1-0.4
			l0.4,0.8c-0.4,0.3-0.8,0.6-1.6,0.6C234.7,180.4,234.1,179.7,234.1,178.4z"/>
		<path class="st2" d="M238.7,175.6c0-2.7,1.7-4.8,4.4-4.8c2.7,0,4.4,2.1,4.4,4.8s-1.7,4.8-4.4,4.8
			C240.4,180.4,238.7,178.3,238.7,175.6z M246.4,175.6c0-2-1.2-3.9-3.4-3.9c-2.1,0-3.3,1.9-3.3,3.9c0,2.1,1.2,3.9,3.3,3.9
			C245.2,179.5,246.4,177.7,246.4,175.6z"/>
		<path class="st2" d="M260.9,180.2v-6.4c0-1.3-0.6-2.1-1.8-2.1c-1,0-2.1,0.7-2.6,1.6v7h-1v-6.4c0-1.3-0.5-2.1-1.8-2.1
			c-1,0-2.1,0.7-2.6,1.6v6.9h-1V171h1v1.4c0.4-0.6,1.6-1.6,3-1.6c1.4,0,2.2,0.8,2.4,1.7c0.5-0.9,1.7-1.7,3-1.7
			c1.7,0,2.5,0.9,2.5,2.8v6.6H260.9z"/>
		<path class="st2" d="M264.5,175.6c0-2.7,1.9-4.8,4.4-4.8c2.8,0,4.3,2.2,4.3,4.9v0.3h-7.7c0.1,2,1.4,3.6,3.6,3.6
			c1.2,0,2.2-0.4,3-1.3l0.5,0.6c-0.9,1-2.1,1.5-3.6,1.5C266.4,180.4,264.5,178.4,264.5,175.6z M268.9,171.7c-2.2,0-3.2,1.9-3.3,3.5
			h6.7C272.2,173.6,271.2,171.7,268.9,171.7z"/>
		<path class="st2" d="M275.8,180.2V171h1v1.6c0.8-1,1.8-1.8,3.1-1.8v1.1c-0.2,0-0.3,0-0.5,0c-0.9,0-2.2,0.8-2.6,1.6v6.7H275.8z"/>
		<path class="st2" d="M293.5,180.2v-1.5c-0.6,1-1.8,1.7-3.2,1.7c-2.4,0-4.1-1.9-4.1-4.8c0-2.9,1.7-4.8,4.1-4.8
			c1.3,0,2.5,0.7,3.2,1.7v-5h1v12.7H293.5z M293.5,177.9v-4.5c-0.5-0.9-1.7-1.7-3-1.7c-2,0-3.2,1.7-3.2,3.9s1.2,3.9,3.2,3.9
			C291.8,179.5,293,178.8,293.5,177.9z"/>
		<path class="st2" d="M303.4,180.2v-1.1c-0.8,0.9-1.8,1.3-3.1,1.3c-1.6,0-3.2-1.1-3.2-3.1c0-2,1.6-3,3.2-3c1.3,0,2.3,0.4,3.1,1.3
			v-1.9c0-1.4-1.1-2.1-2.5-2.1c-1.2,0-2.1,0.4-2.9,1.3l-0.6-0.7c1-1,2-1.5,3.5-1.5c1.9,0,3.3,0.9,3.3,2.9v6.5H303.4z M303.4,178.4
			v-2c-0.6-0.9-1.7-1.3-2.8-1.3c-1.5,0-2.5,1-2.5,2.3c0,1.3,1,2.3,2.5,2.3C301.7,179.7,302.8,179.2,303.4,178.4z"/>
		<path class="st2" d="M307.7,178.4v-6.5h-1.5V171h1.5v-2.5h1v2.5h1.9v0.9h-1.9v6.4c0,0.7,0.3,1.3,1,1.3c0.4,0,0.8-0.2,1-0.4
			l0.4,0.8c-0.4,0.3-0.8,0.6-1.6,0.6C308.3,180.4,307.7,179.7,307.7,178.4z"/>
		<path class="st2" d="M318.5,180.2v-1.1c-0.8,0.9-1.8,1.3-3.1,1.3c-1.6,0-3.2-1.1-3.2-3.1c0-2,1.6-3,3.2-3c1.3,0,2.3,0.4,3.1,1.3
			v-1.9c0-1.4-1.1-2.1-2.5-2.1c-1.2,0-2.1,0.4-2.9,1.3l-0.6-0.7c1-1,2-1.5,3.5-1.5c1.9,0,3.3,0.9,3.3,2.9v6.5H318.5z M318.5,178.4
			v-2c-0.6-0.9-1.7-1.3-2.8-1.3c-1.5,0-2.5,1-2.5,2.3c0,1.3,1,2.3,2.5,2.3C316.9,179.7,317.9,179.2,318.5,178.4z"/>
	</g>
</g>
<path class="st3" d="M130,279.2c0,6.5-5.1,12.8-11.6,12.8H41.8c-6.5,0-13.8-6.2-13.8-12.8v-75.7c0-6.5,7.3-10.5,13.8-10.5h76.6
	c6.5,0,11.6,4,11.6,10.5V279.2z"/>
<rect x="31" y="265.5" class="st0" width="99.4" height="16.4"/>
<path class="st3" d="M239,279.6c0,6.6-5.6,13.4-12.2,13.4h-77.3c-6.6,0-13.5-6.8-13.5-13.4v-76.5c0-6.6,6.9-9.1,13.5-9.1h77.3
	c6.6,0,12.2,2.5,12.2,9.1V279.6z"/>
<path class="st3" d="M347,279.2c0,6.5-5.2,12.8-11.8,12.8h-76.6c-6.5,0-13.7-6.2-13.7-12.8v-75.7c0-6.5,7.1-10.5,13.7-10.5h76.6
	c6.5,0,11.8,4,11.8,10.5V279.2z"/>
<g>
	<g>
		<g>
			<rect x="149.3" y="254.3" class="st0" width="76.5" height="30.3"/>
		</g>
		<g class="st1">
			<path class="st2" d="M152.4,264.2v-10h3.2c3.1,0,5.1,2.3,5.1,5c0,2.8-1.9,5-5.1,5H152.4z M159.8,259.2c0-2.3-1.5-4.2-4.2-4.2
				h-2.3v8.4h2.3C158.3,263.4,159.8,261.6,159.8,259.2z"/>
			<path class="st2" d="M167.4,264.2v-0.9c-0.6,0.7-1.5,1-2.5,1c-1.2,0-2.5-0.9-2.5-2.4c0-1.6,1.3-2.4,2.5-2.4c1,0,1.8,0.3,2.5,1
				v-1.5c0-1.1-0.9-1.7-1.9-1.7c-0.9,0-1.6,0.3-2.3,1.1l-0.4-0.5c0.8-0.8,1.6-1.2,2.8-1.2c1.5,0,2.6,0.7,2.6,2.3v5.1H167.4z
				 M167.4,262.8v-1.6c-0.5-0.7-1.3-1-2.2-1c-1.2,0-2,0.8-2,1.8c0,1,0.8,1.8,2,1.8C166.1,263.8,166.9,263.5,167.4,262.8z"/>
			<path class="st2" d="M170.8,262.8v-5.2h-1.2V257h1.2v-2h0.8v2h1.5v0.7h-1.5v5c0,0.6,0.2,1,0.8,1c0.3,0,0.6-0.2,0.8-0.3l0.3,0.6
				c-0.3,0.3-0.6,0.4-1.2,0.4C171.2,264.4,170.8,263.8,170.8,262.8z"/>
			<path class="st2" d="M179.3,264.2v-0.9c-0.6,0.7-1.5,1-2.5,1c-1.2,0-2.5-0.9-2.5-2.4c0-1.6,1.3-2.4,2.5-2.4c1,0,1.8,0.3,2.5,1
				v-1.5c0-1.1-0.9-1.7-1.9-1.7c-0.9,0-1.6,0.3-2.3,1.1l-0.4-0.5c0.8-0.8,1.6-1.2,2.8-1.2c1.5,0,2.6,0.7,2.6,2.3v5.1H179.3z
				 M179.3,262.8v-1.6c-0.5-0.7-1.3-1-2.2-1c-1.2,0-2,0.8-2,1.8c0,1,0.8,1.8,2,1.8C178,263.8,178.8,263.5,179.3,262.8z"/>
			<path class="st2" d="M194.1,264.2l-2.4-8.6l-2.4,8.6h-1l-2.9-10h1l2.4,8.8l2.5-8.8h0.8l2.4,8.8l2.4-8.8h1l-2.8,10H194.1z"/>
			<path class="st2" d="M203.4,264.2v-0.9c-0.6,0.7-1.5,1-2.5,1c-1.2,0-2.5-0.9-2.5-2.4c0-1.6,1.3-2.4,2.5-2.4c1,0,1.8,0.3,2.5,1
				v-1.5c0-1.1-0.9-1.7-1.9-1.7c-0.9,0-1.6,0.3-2.3,1.1l-0.4-0.5c0.8-0.8,1.6-1.2,2.8-1.2c1.5,0,2.6,0.7,2.6,2.3v5.1H203.4z
				 M203.4,262.8v-1.6c-0.5-0.7-1.3-1-2.2-1c-1.2,0-2,0.8-2,1.8c0,1,0.8,1.8,2,1.8C202.1,263.8,202.9,263.5,203.4,262.8z"/>
			<path class="st2" d="M206.6,264.2V257h0.8v1.2c0.6-0.8,1.4-1.4,2.4-1.4v0.9c-0.1,0-0.2,0-0.4,0c-0.7,0-1.7,0.7-2.1,1.3v5.3H206.6
				z"/>
			<path class="st2" d="M211,260.6c0-2.1,1.5-3.8,3.5-3.8c2.2,0,3.4,1.7,3.4,3.8v0.2h-6.1c0.1,1.6,1.1,2.9,2.8,2.9
				c0.9,0,1.8-0.3,2.4-1l0.4,0.5c-0.7,0.8-1.6,1.2-2.8,1.2C212.5,264.4,211,262.8,211,260.6z M214.5,257.5c-1.7,0-2.6,1.5-2.6,2.8
				h5.3C217.1,259,216.3,257.5,214.5,257.5z"/>
		</g>
		<g class="st1">
			<path class="st2" d="M219.7,260.9v-0.7h3.6v0.7H219.7z"/>
		</g>
		<g class="st1">
			<path class="st2" d="M173.5,277.8v-4.9c0-1.4-0.7-1.8-1.8-1.8c-0.9,0-1.9,0.6-2.4,1.2v5.5h-0.8v-10h0.8v3.9
				c0.5-0.6,1.6-1.3,2.6-1.3c1.5,0,2.3,0.7,2.3,2.3v5.1H173.5z"/>
			<path class="st2" d="M176.3,274.2c0-2.1,1.3-3.8,3.5-3.8c2.1,0,3.5,1.7,3.5,3.8s-1.3,3.8-3.5,3.8
				C177.7,278,176.3,276.3,176.3,274.2z M182.4,274.2c0-1.6-0.9-3.1-2.7-3.1c-1.7,0-2.6,1.5-2.6,3.1c0,1.6,1,3.1,2.6,3.1
				C181.5,277.3,182.4,275.8,182.4,274.2z"/>
			<path class="st2" d="M190.2,277.8v-1.1c-0.6,0.7-1.6,1.2-2.6,1.2c-1.5,0-2.3-0.7-2.3-2.3v-5.1h0.8v4.9c0,1.4,0.7,1.8,1.8,1.8
				c0.9,0,1.9-0.6,2.4-1.2v-5.5h0.8v7.2H190.2z"/>
			<path class="st2" d="M192.7,276.8l0.5-0.6c0.5,0.6,1.3,1.1,2.3,1.1c1.2,0,1.9-0.6,1.9-1.5c0-2-4.6-0.9-4.6-3.5c0-1.1,0.9-2,2.6-2
				c1.2,0,2.1,0.5,2.6,1.1l-0.4,0.6c-0.4-0.6-1.2-1-2.2-1c-1.1,0-1.8,0.6-1.8,1.3c0,1.8,4.6,0.7,4.6,3.5c0,1.2-0.9,2.1-2.7,2.1
				C194.4,278,193.5,277.7,192.7,276.8z"/>
			<path class="st2" d="M199.9,274.2c0-2.1,1.5-3.8,3.5-3.8c2.2,0,3.4,1.7,3.4,3.8v0.2h-6.1c0.1,1.6,1.1,2.9,2.8,2.9
				c0.9,0,1.8-0.3,2.4-1l0.4,0.5c-0.7,0.8-1.6,1.2-2.8,1.2C201.4,278,199.9,276.4,199.9,274.2z M203.3,271.1c-1.7,0-2.6,1.5-2.6,2.8
				h5.3C205.9,272.6,205.1,271.1,203.3,271.1z"/>
		</g>
	</g>
	<g>
		<path class="st2" d="M192.9,202.5h-13.9c-0.5,0-0.6,1.4-0.6,1.9v40.7c0,0.5,0.1,1.4,0.6,1.4h13.9c0.5,0,0.5-0.9,0.5-1.4v-40.7
			C193.4,203.9,193.4,202.5,192.9,202.5L192.9,202.5z M186.1,238.2c-1.7,0-3.1-1.4-3.1-3.1c0-1.7,1.4-3.1,3.1-3.1
			c1.7,0,3.1,1.4,3.1,3.1C189.1,236.9,187.8,238.2,186.1,238.2L186.1,238.2z M191.4,222.5c0,0.5-0.2,0-0.6,0h-9.6
			c-0.5,0-0.8,0.5-0.8,0v-0.9c0-0.5,0.3-1.1,0.8-1.1h9.6c0.5,0,0.6,0.6,0.6,1.1V222.5z M191.4,218.1c0,0.5-0.2,0.4-0.6,0.4h-9.6
			c-0.5,0-0.8,0.1-0.8-0.4v-0.9c0-0.5,0.3-0.7,0.8-0.7h9.6c0.5,0,0.6,0.2,0.6,0.7V218.1z M191.4,213.7c0,0.5-0.2,0.8-0.6,0.8h-9.6
			c-0.5,0-0.8-0.3-0.8-0.8v-0.9c0-0.5,0.3-1.3,0.8-1.3h9.6c0.5,0,0.6,0.8,0.6,1.3V213.7z M191.4,209.2c0,0.5-0.2,1.3-0.6,1.3h-9.6
			c-0.5,0-0.8-0.8-0.8-1.3v-0.9c0-0.5,0.3-0.9,0.8-0.9h9.6c0.5,0,0.6,0.4,0.6,0.9V209.2z"/>
		<path class="st2" d="M213.4,208.2c0-0.4-0.4-0.8-0.9-0.8c-4.1-0.4-8.3-0.7-12.4-1.1c0,0-0.5,0-0.6,0l-5.1,1.2v37.8l5.3,0.7
			c0.1,0,0.3,0,0.3,0c4.1-0.4,8.4-0.8,12.5-1.2c0.4,0,0.9-0.4,0.9-0.8C213.4,234.4,213.4,217.8,213.4,208.2L213.4,208.2z
			 M201.4,210.8c0-0.4,0.3-0.8,0.7-0.8c2.8,0.2,5.7,0.4,8.5,0.6c0.4,0,0.8,0.4,0.8,0.8v0.8c0,0.4-0.4,0.7-0.8,0.7
			c-2.8-0.2-5.6-0.3-8.5-0.5c-0.4,0-0.7-0.4-0.7-0.9V210.8z M211.4,223.7c0,0.4-0.4,0.8-0.8,0.8c-2.8,0-5.6,0.1-8.5,0.1
			c-0.4,0-0.7-0.4-0.7-0.8V223c0-0.4,0.3-0.8,0.7-0.8c2.8,0,5.7,0,8.5,0c0.4,0,0.8,0.3,0.8,0.8V223.7z M210.6,220.6
			c-2.8,0-5.6-0.1-8.4-0.1c-0.4,0-0.7-0.4-0.7-0.8v-0.8c0-0.4,0.3-0.8,0.7-0.8c2.8,0.1,5.6,0.1,8.5,0.2c0.4,0,0.8,0.4,0.8,0.8
			c0,0.3,0,0.5,0,0.8C211.3,220.3,211.1,220.6,210.6,220.6L210.6,220.6z M211.4,216.1c0,0.4-0.4,0.7-0.8,0.7
			c-2.8-0.1-5.6-0.2-8.5-0.3c-0.4,0-0.7-0.4-0.7-0.8v-0.8c0-0.4,0.3-0.8,0.7-0.8c2.8,0.1,5.7,0.3,8.5,0.4c0.4,0,0.8,0.4,0.8,0.8
			V216.1z"/>
		<path class="st2" d="M171.8,206.3c-4.1,0.4-8.2,0.7-12.3,1.1c-0.4,0-0.8,0.4-0.8,0.8c0,9.6,0,26.2,0,35.8c0,0.4,0.4,0.8,0.8,0.8
			c4.1,0.4,8.2,0.8,12.3,1.2c0,0-0.2,0-0.1,0l4.7-0.7v-37.8L171.8,206.3C171.8,206.3,171.9,206.3,171.8,206.3L171.8,206.3z
			 M170.4,223.7c0,0.4-0.2,0.8-0.6,0.8c-2.8,0-5.2-0.1-8-0.1c-0.4,0-0.3-0.3-0.3-0.8v-0.8c0-0.4,0-0.8,0.4-0.8c2.8,0,5.3,0,8.2,0
			c0.4,0,0.4,0.4,0.4,0.8L170.4,223.7L170.4,223.7z M170.4,219.7c0,0.4-0.2,0.8-0.6,0.8c-2.8,0-5.2,0.1-8,0.1
			c-0.4,0-0.3-0.3-0.3-0.8c0-0.3,0-0.5,0-0.8c0-0.4,0-0.8,0.4-0.8c2.8-0.1,5.3-0.1,8.2-0.2c0.4,0,0.4,0.3,0.4,0.8L170.4,219.7
			L170.4,219.7z M170.4,215.7c0,0.4-0.2,0.8-0.6,0.8c-2.8,0.1-5.2,0.2-8,0.3c-0.4,0-0.3-0.3-0.3-0.7v-0.8c0-0.4,0-0.8,0.4-0.8
			c2.8-0.1,5.3-0.3,8.2-0.4c0.4,0,0.4,0.3,0.4,0.8L170.4,215.7L170.4,215.7z M170.4,211.6c0,0.4-0.2,0.8-0.6,0.9
			c-2.8,0.2-5.2,0.3-8,0.5c-0.4,0-0.3-0.3-0.3-0.7v-0.8c0-0.4,0-0.8,0.4-0.8c2.8-0.2,5.3-0.4,8.2-0.6c0.4,0,0.4,0.3,0.4,0.8
			L170.4,211.6L170.4,211.6z"/>
	</g>
</g>
<g>
	<g>
		<g>
			<rect x="257.3" y="262.5" class="st0" width="77.4" height="17.7"/>
		</g>
		<g class="st1">
			<path class="st2" d="M260.7,267.5c0-3.1,2.2-5.2,5.1-5.2c1.6,0,2.8,0.7,3.6,1.8l-0.7,0.5c-0.6-0.9-1.7-1.5-2.9-1.5
				c-2.3,0-4.2,1.8-4.2,4.4c0,2.6,1.8,4.4,4.2,4.4c1.2,0,2.3-0.6,2.9-1.5l0.7,0.5c-0.9,1.1-2.1,1.8-3.7,1.8
				C262.9,272.7,260.7,270.6,260.7,267.5z"/>
			<path class="st2" d="M275.7,272.5v-0.9c-0.6,0.7-1.5,1-2.5,1c-1.2,0-2.5-0.9-2.5-2.4c0-1.6,1.3-2.4,2.5-2.4c1,0,1.8,0.3,2.5,1
				v-1.5c0-1.1-0.9-1.7-1.9-1.7c-0.9,0-1.6,0.3-2.3,1.1l-0.4-0.5c0.8-0.8,1.6-1.2,2.8-1.2c1.5,0,2.6,0.7,2.6,2.3v5.1H275.7z
				 M275.7,271.1v-1.6c-0.5-0.7-1.3-1-2.2-1c-1.2,0-2,0.8-2,1.8c0,1,0.8,1.8,2,1.8C274.4,272.1,275.2,271.7,275.7,271.1z"/>
			<path class="st2" d="M278.9,272.5v-10h0.8v10H278.9z"/>
			<path class="st2" d="M282.1,272.5v-10h0.8v10H282.1z"/>
			<path class="st2" d="M288.9,267.5c0-3.1,2.2-5.2,5.1-5.2c1.6,0,2.8,0.7,3.6,1.8l-0.7,0.5c-0.6-0.9-1.7-1.5-2.9-1.5
				c-2.3,0-4.2,1.8-4.2,4.4c0,2.6,1.8,4.4,4.2,4.4c1.2,0,2.3-0.6,2.9-1.5l0.7,0.5c-0.9,1.1-2.1,1.8-3.7,1.8
				C291.1,272.7,288.9,270.6,288.9,267.5z"/>
			<path class="st2" d="M298.9,268.9c0-2.1,1.5-3.8,3.5-3.8c2.2,0,3.4,1.7,3.4,3.8v0.2h-6.1c0.1,1.6,1.1,2.9,2.8,2.9
				c0.9,0,1.8-0.3,2.4-1l0.4,0.5c-0.7,0.8-1.6,1.2-2.8,1.2C300.4,272.7,298.9,271.1,298.9,268.9z M302.4,265.8
				c-1.7,0-2.6,1.5-2.6,2.8h5.3C305,267.3,304.2,265.8,302.4,265.8z"/>
			<path class="st2" d="M312.7,272.5v-4.9c0-1.4-0.7-1.8-1.8-1.8c-0.9,0-1.9,0.6-2.4,1.2v5.5h-0.8v-7.2h0.8v1.1
				c0.5-0.6,1.6-1.3,2.6-1.3c1.5,0,2.3,0.7,2.3,2.4v5.1H312.7z"/>
			<path class="st2" d="M316.1,271.1V266h-1.2v-0.7h1.2v-2h0.8v2h1.5v0.7h-1.5v5c0,0.6,0.2,1,0.8,1c0.3,0,0.6-0.2,0.8-0.3l0.3,0.6
				c-0.3,0.3-0.6,0.4-1.2,0.4C316.5,272.7,316.1,272.1,316.1,271.1z"/>
			<path class="st2" d="M320,272.5v-7.2h0.8v1.2c0.6-0.8,1.4-1.4,2.4-1.4v0.9c-0.1,0-0.2,0-0.4,0c-0.7,0-1.7,0.7-2.1,1.3v5.3H320z"
				/>
			<path class="st2" d="M324.4,268.9c0-2.1,1.5-3.8,3.5-3.8c2.2,0,3.4,1.7,3.4,3.8v0.2h-6.1c0.1,1.6,1.1,2.9,2.8,2.9
				c0.9,0,1.8-0.3,2.4-1l0.4,0.5c-0.7,0.8-1.6,1.2-2.8,1.2C325.9,272.7,324.4,271.1,324.4,268.9z M327.8,265.8
				c-1.7,0-2.6,1.5-2.6,2.8h5.3C330.5,267.3,329.7,265.8,327.8,265.8z"/>
		</g>
	</g>
	<g>
		<path class="st2" d="M317.8,243.6v6.4h-40v-6.5c0-2.8,2.5-6.3,5.5-7.7l6.6-3.1l4.6,9.5l2.4-6.3c0.5,0.1,0.9,0.2,1.4,0.2
			s0.9-0.1,1.4-0.2l2.2,6l4.5-9.3l6.4,3.2C315.6,237.3,317.8,240.6,317.8,243.6L317.8,243.6z M283.8,222.7v-4.3c0-0.7,0.5-1.4,1-1.7
			c0.8-6.7,6.5-11.9,13.4-11.9s12.7,5.2,13.5,11.9c0.6,0.4,1.1,1,1.1,1.7v4.3c0,1.1-0.9,2.1-2,2.1s-2-0.9-2-2.1v-0.9
			c-1,5.6-5.1,10.8-10,10.8s-9-5.2-10-10.8v0.9c0,0.9-1,1.7-1.8,2c0.8,2.8,2.5,5.2,5,6.8c0.5-0.2,1-0.1,1.5,0.2
			c0.9,0.5,1.3,1.4,1,2.1c-0.3,0.7-1.4,0.8-2.3,0.3c-0.7-0.3-1.1-0.9-1.1-1.5c-2.9-1.8-5-4.7-5.9-7.9
			C284.4,224.4,283.8,223.6,283.8,222.7L283.8,222.7z M286.4,216.2c0.1,0,0.1,0,0.2,0c0.2,0,0.3,0.2,0.3,0.3c0.4,0.2,0.8,0.5,1,1
			c0.6-5.7,5-8.7,10.4-8.7s9.8,3,10.4,8.7c0.3-0.6,0.9-1,1.6-1.1c-0.9-5.8-5.9-10.2-11.9-10.2C292.3,206.2,287.3,210.5,286.4,216.2
			L286.4,216.2z"/>
	</g>
</g>
<g>
	<g class="st1">
		<path class="st2" d="M65.8,271.3c0-3.1,2.2-5.2,5.1-5.2c1.6,0,2.8,0.7,3.6,1.8l-0.7,0.5c-0.6-0.9-1.7-1.5-2.9-1.5
			c-2.3,0-4.2,1.8-4.2,4.4c0,2.6,1.8,4.4,4.2,4.4c1.2,0,2.3-0.6,2.9-1.5l0.7,0.5c-0.9,1.1-2.1,1.8-3.7,1.8
			C68,276.4,65.8,274.3,65.8,271.3z"/>
		<path class="st2" d="M82.1,276.3l-2.8-4.1h-2.2v4.1h-0.9v-10h3.7c1.7,0,3,1.1,3,2.9c0,1.8-1.3,2.8-2.8,2.9l2.9,4.2H82.1z
			 M82.1,269.2c0-1.3-0.9-2.1-2.2-2.1h-2.8v4.3h2.8C81.2,271.3,82.1,270.4,82.1,269.2z"/>
		<path class="st2" d="M93.6,276.3v-8.9l-3.6,8.9h-0.3l-3.7-8.9v8.9h-0.9v-10h1.3l3.4,8.3l3.4-8.3h1.3v10H93.6z"/>
	</g>
	<g>
		<path class="st2" d="M81.4,219c1.4-1,2.4-2.8,2.4-4.8c0-2.8-0.6-5.6-4.8-5.6c-4.2,0-4.8,2.8-4.8,5.6c0,2.1,0.9,3.9,2.4,4.8
			c-3.1,0.9-5.4,3.6-5.4,6.8c0,1.6,0.8,2.8,2.5,3.5c1.2,0.5,2.9,0.7,5.3,0.7c2.4,0,4.1-0.2,5.3-0.7c1.6-0.7,2.5-1.8,2.5-3.5
			C86.8,222.7,84.5,220,81.4,219L81.4,219z"/>
		<path class="st2" d="M66.5,240.2c1.4-1,2.4-2.8,2.4-4.8c0-2.8-0.6-5.6-4.8-5.6s-4.8,2.9-4.8,5.6c0,2.1,1,3.9,2.4,4.8
			c-3.1,0.9-5.4,3.6-5.4,6.8c0,1.6,0.8,2.8,2.5,3.5c1.2,0.5,2.9,0.7,5.3,0.7c2.4,0,4.1-0.2,5.3-0.7c1.7-0.7,2.5-1.8,2.5-3.5
			C71.9,243.8,69.6,241.1,66.5,240.2L66.5,240.2z"/>
		<path class="st2" d="M96.3,240.2c1.4-1,2.4-2.8,2.4-4.8c0-2.8-0.6-5.6-4.8-5.6c-4.2,0-4.8,2.9-4.8,5.6c0,2.1,0.9,3.9,2.4,4.8
			c-3.1,0.9-5.4,3.6-5.4,6.8c0,1.6,0.8,2.8,2.5,3.5c1.2,0.5,2.9,0.7,5.3,0.7c2.4,0,4.1-0.2,5.3-0.7c1.7-0.7,2.5-1.8,2.5-3.5
			C101.6,243.8,99.4,241.1,96.3,240.2L96.3,240.2z"/>
		<path class="st2" d="M84.2,250.8c-0.1-0.1-0.2-0.2-0.3-0.3c-0.1-0.1-0.3-0.1-0.4,0c-1.2,0.5-2.7,0.7-4.5,0.7
			c-1.9,0-3.3-0.2-4.5-0.7c-0.1-0.1-0.3-0.1-0.4,0c-0.1,0.1-0.2,0.2-0.3,0.3l-0.4,1c-0.1,0.3,0,0.6,0.3,0.7c1.5,0.6,3.2,0.9,5.4,0.9
			c2.1,0,3.9-0.3,5.4-0.9c0.3-0.1,0.4-0.4,0.3-0.7L84.2,250.8z"/>
		<path class="st2" d="M62.6,226.8l1,0.4c0.1,0,0.1,0,0.2,0c0.2,0,0.4-0.1,0.5-0.3c0.5-1.2,1.4-2.4,2.7-3.7c1.3-1.3,2.5-2.2,3.7-2.7
			c0.1-0.1,0.2-0.2,0.3-0.3c0.1-0.1,0.1-0.3,0-0.4l-0.4-1c-0.1-0.3-0.4-0.4-0.7-0.3c-1.4,0.6-2.9,1.7-4.4,3.2
			c-1.5,1.5-2.6,3-3.2,4.4C62.2,226.4,62.3,226.7,62.6,226.8L62.6,226.8z"/>
		<path class="st2" d="M87.2,220.6c1.2,0.5,2.4,1.4,3.7,2.7c1.3,1.3,2.2,2.5,2.7,3.7c0.1,0.2,0.3,0.3,0.5,0.3c0.1,0,0.1,0,0.2,0
			l1-0.4c0.3-0.1,0.4-0.4,0.3-0.7c-0.6-1.4-1.7-2.9-3.2-4.4s-3-2.6-4.4-3.2c-0.3-0.1-0.6,0-0.7,0.3l-0.4,1c-0.1,0.1-0.1,0.3,0,0.4
			C87,220.4,87.1,220.5,87.2,220.6L87.2,220.6z"/>
	</g>
</g>
<path class="st3" d="M180,386.3c0,6.5-4.5,13.7-11,13.7H92.5C86,400,78,392.9,78,386.3v-75.7c0-6.5,7.9-9.7,14.5-9.7H169
	c6.5,0,11,3.1,11,9.7V386.3z"/>
<rect x="82.2" y="366.9" class="st0" width="98.4" height="27.1"/>
<path class="st3" d="M293,386.3c0,6.5-4.9,13.7-11.5,13.7H205c-6.5,0-14-7.1-14-13.7v-75.7c0-6.5,7.5-9.7,14-9.7h76.5
	c6.5,0,11.5,3.1,11.5,9.7V386.3z"/>
<g>
	<g class="st1">
		<path class="st2" d="M107.1,373.5v-10h0.9v9.2h4.8v0.8H107.1z"/>
		<path class="st2" d="M113.7,369.9c0-2.1,1.4-3.8,3.5-3.8c2.1,0,3.5,1.7,3.5,3.8s-1.3,3.8-3.5,3.8
			C115.1,373.7,113.7,372,113.7,369.9z M119.9,369.9c0-1.6-0.9-3.1-2.7-3.1c-1.7,0-2.6,1.5-2.6,3.1c0,1.6,1,3.1,2.6,3.1
			C118.9,373,119.9,371.5,119.9,369.9z"/>
		<path class="st2" d="M122.4,375.7c0.2,0.1,0.4,0.1,0.6,0.1c0.5,0,0.8-0.2,1.1-0.9l0.6-1.3l-3.1-7.3h0.9l2.6,6.3l2.6-6.3h0.9
			l-3.8,8.8c-0.4,0.9-1,1.3-1.8,1.3c-0.3,0-0.6,0-0.8-0.1L122.4,375.7z"/>
		<path class="st2" d="M134.5,373.5v-0.9c-0.6,0.7-1.5,1-2.5,1c-1.2,0-2.5-0.9-2.5-2.4c0-1.6,1.3-2.4,2.5-2.4c1,0,1.8,0.3,2.5,1
			v-1.5c0-1.1-0.9-1.7-1.9-1.7c-0.9,0-1.6,0.3-2.3,1.1l-0.4-0.5c0.8-0.8,1.6-1.2,2.8-1.2c1.5,0,2.6,0.7,2.6,2.3v5.1H134.5z
			 M134.5,372.1v-1.6c-0.5-0.7-1.3-1-2.2-1c-1.2,0-2,0.8-2,1.8c0,1,0.8,1.8,2,1.8C133.2,373.1,134,372.8,134.5,372.1z"/>
		<path class="st2" d="M137.7,373.5v-10h0.8v10H137.7z"/>
		<path class="st2" d="M141.1,372.2V367h-1.2v-0.7h1.2v-2h0.8v2h1.5v0.7h-1.5v5c0,0.6,0.2,1,0.7,1c0.3,0,0.6-0.2,0.8-0.3l0.3,0.6
			c-0.3,0.3-0.6,0.4-1.2,0.4C141.6,373.7,141.1,373.1,141.1,372.2z"/>
		<path class="st2" d="M144.7,375.7c0.2,0.1,0.4,0.1,0.6,0.1c0.5,0,0.8-0.2,1.1-0.9l0.6-1.3l-3.1-7.3h0.9l2.6,6.3l2.6-6.3h0.9
			l-3.8,8.8c-0.4,0.9-1,1.3-1.8,1.3c-0.3,0-0.6,0-0.8-0.1L144.7,375.7z"/>
	</g>
	<g class="st1">
		<path class="st2" d="M100,386v3.9h-0.8v-10h0.8v1.1c0.5-0.7,1.4-1.3,2.5-1.3c1.9,0,3.2,1.5,3.2,3.8c0,2.3-1.3,3.8-3.2,3.8
			C101.5,387.3,100.5,386.8,100,386z M104.9,383.5c0-1.8-0.9-3.1-2.5-3.1c-1,0-2,0.6-2.4,1.3v3.6c0.4,0.7,1.4,1.3,2.4,1.3
			C104,386.6,104.9,385.3,104.9,383.5z"/>
		<path class="st2" d="M107.7,387.1v-7.2h0.8v1.2c0.6-0.8,1.4-1.4,2.4-1.4v0.9c-0.1,0-0.2,0-0.4,0c-0.7,0-1.7,0.7-2.1,1.3v5.3H107.7
			z"/>
		<path class="st2" d="M112,383.5c0-2.1,1.4-3.8,3.5-3.8c2.1,0,3.5,1.7,3.5,3.8s-1.3,3.8-3.5,3.8C113.4,387.3,112,385.6,112,383.5z
			 M118.1,383.5c0-1.6-0.9-3.1-2.7-3.1c-1.7,0-2.6,1.5-2.6,3.1c0,1.6,1,3.1,2.6,3.1C117.2,386.6,118.1,385.1,118.1,383.5z"/>
		<path class="st2" d="M121,389l0.5-0.6c0.6,0.8,1.3,1,2.4,1c1.3,0,2.5-0.7,2.5-2.3v-1.2c-0.5,0.8-1.4,1.4-2.5,1.4
			c-1.9,0-3.2-1.5-3.2-3.8c0-2.3,1.3-3.8,3.2-3.8c1,0,1.9,0.5,2.5,1.3v-1.2h0.8v7.2c0,2.2-1.5,3-3.3,3
			C122.6,390.1,121.9,389.9,121,389z M126.3,385.3v-3.5c-0.4-0.7-1.4-1.3-2.4-1.3c-1.6,0-2.5,1.3-2.5,3.1s0.9,3.1,2.5,3.1
			C125,386.6,125.9,386,126.3,385.3z"/>
		<path class="st2" d="M129.5,387.1v-7.2h0.8v1.2c0.6-0.8,1.4-1.4,2.4-1.4v0.9c-0.1,0-0.2,0-0.4,0c-0.7,0-1.7,0.7-2.1,1.3v5.3H129.5
			z"/>
		<path class="st2" d="M138.9,387.1v-0.9c-0.6,0.7-1.5,1-2.5,1c-1.2,0-2.5-0.9-2.5-2.4c0-1.6,1.3-2.4,2.5-2.4c1,0,1.8,0.3,2.5,1
			v-1.5c0-1.1-0.9-1.7-1.9-1.7c-0.9,0-1.6,0.3-2.3,1.1l-0.4-0.5c0.8-0.8,1.6-1.2,2.8-1.2c1.5,0,2.6,0.7,2.6,2.3v5.1H138.9z
			 M138.9,385.7v-1.6c-0.5-0.7-1.3-1-2.2-1c-1.2,0-2,0.8-2,1.8c0,1,0.8,1.8,2,1.8C137.6,386.7,138.4,386.4,138.9,385.7z"/>
		<path class="st2" d="M150.7,387.1v-5.1c0-1-0.4-1.7-1.5-1.7c-0.8,0-1.7,0.6-2.1,1.2v5.5h-0.8v-5.1c0-1-0.4-1.7-1.4-1.7
			c-0.8,0-1.7,0.6-2.1,1.2v5.5h-0.8v-7.2h0.8v1.1c0.3-0.5,1.3-1.3,2.3-1.3c1.1,0,1.7,0.7,1.9,1.4c0.4-0.7,1.4-1.4,2.4-1.4
			c1.3,0,2,0.8,2,2.2v5.2H150.7z"/>
		<path class="st2" d="M153.3,386.2l0.5-0.6c0.5,0.6,1.3,1.1,2.3,1.1c1.2,0,1.9-0.6,1.9-1.5c0-2-4.6-0.9-4.6-3.5c0-1.1,0.9-2,2.6-2
			c1.2,0,2.1,0.5,2.6,1.1l-0.4,0.6c-0.4-0.6-1.2-1-2.2-1c-1.1,0-1.8,0.6-1.8,1.3c0,1.8,4.6,0.7,4.6,3.5c0,1.2-0.9,2.1-2.7,2.1
			C154.9,387.3,154,387,153.3,386.2z"/>
	</g>
	<g>
		<path class="st2" d="M108.6,338.7c0,0,0.5-2.1-1.2-3.8c-1.7-1.8-3.9-1.8-3.9-1.8s-0.5,2.4,1.1,4.2
			C106.4,338.9,108.6,338.7,108.6,338.7L108.6,338.7z"/>
		<path class="st2" d="M112.4,338.3c0,0,2-1.1,2.4-3.5s-1.5-4.1-1.5-4.1s-1.8,1.2-2.1,3.7C110.8,336.9,112.4,338.3,112.4,338.3
			L112.4,338.3z"/>
		<path class="st2" d="M115.4,344.3c0,0,1.8-1.3,1.9-3.8c0.1-2.4-2-3.8-2-3.8s-1.6,1.5-1.6,4C113.7,343.1,115.4,344.3,115.4,344.3
			L115.4,344.3z"/>
		<path class="st2" d="M121.5,343.9c-0.2-2.4-2.3-3.6-2.3-3.6s-1.4,1.6-1.3,4.1c0.2,2.5,2.1,3.5,2.1,3.5S121.7,346.3,121.5,343.9
			L121.5,343.9z"/>
		<path class="st2" d="M125.7,350.8c0,0,1.2-1.9,0.3-4.2c-0.9-2.3-3.3-2.8-3.3-2.8s-0.9,2,0,4.3S125.7,350.8,125.7,350.8
			L125.7,350.8z"/>
		<path class="st2" d="M109.5,333.4c0,0,1.6-1.4,1.1-3.9c-0.4-2.4-2.2-3.6-2.2-3.6s-1.8,1.7-1.4,4.1
			C107.4,332.3,109.5,333.4,109.5,333.4L109.5,333.4z"/>
		<path class="st2" d="M110.7,343.3c0,0-0.1-2.1-2.3-3.3c-2.2-1.2-4.2-0.6-4.2-0.6s0.2,2.5,2.3,3.6
			C108.6,344.3,110.7,343.3,110.7,343.3L110.7,343.3z"/>
		<path class="st2" d="M114.4,347.5c0,0-0.6-2-3-2.7s-4.3,0.4-4.3,0.4s0.7,2.4,3.1,3C112.5,348.8,114.4,347.5,114.4,347.5
			L114.4,347.5z"/>
		<path class="st2" d="M118.5,350.4c0,0-1.2-1.8-3.7-1.7c-2.5,0.1-4,1.7-4,1.7s1.4,2,3.9,2C117.1,352.3,118.5,350.4,118.5,350.4
			L118.5,350.4z"/>
		<path class="st2" d="M120.2,351.6c-2.4,0.4-3.7,2.1-3.7,2.1s1.7,1.8,4.1,1.5c2.4-0.3,3.5-2.3,3.5-2.3S122.7,351.3,120.2,351.6
			L120.2,351.6z"/>
		<path class="st2" d="M110.3,334.6l-1.2-0.1c0,0.1-0.3,13,19.1,18.7l0.3-1.1C110.1,346.6,110.3,335.1,110.3,334.6L110.3,334.6z"/>
		<path class="st2" d="M150.7,338.7c0,0,2.3,0.3,4-1.5s1.1-4.2,1.1-4.2s-2.2,0-3.9,1.8C150.2,336.6,150.7,338.7,150.7,338.7
			L150.7,338.7z"/>
		<path class="st2" d="M144.5,334.8c0.4,2.4,2.4,3.5,2.4,3.5s1.6-1.4,1.2-3.8c-0.4-2.5-2.1-3.7-2.1-3.7S144.1,332.4,144.5,334.8
			L144.5,334.8z"/>
		<path class="st2" d="M143.9,336.7c0,0-2,1.4-2,3.9c0.1,2.4,1.9,3.8,1.9,3.8s1.8-1.2,1.7-3.7C145.5,338.2,143.9,336.7,143.9,336.7
			L143.9,336.7z"/>
		<path class="st2" d="M137.8,343.9c-0.2,2.4,1.5,3.9,1.5,3.9s1.9-1,2.1-3.5c0.2-2.5-1.3-4.1-1.3-4.1S138,341.5,137.8,343.9
			L137.8,343.9z"/>
		<path class="st2" d="M133.3,346.6c-0.9,2.3,0.3,4.2,0.3,4.2s2.1-0.4,3-2.7c0.9-2.3,0-4.3,0-4.3S134.2,344.4,133.3,346.6
			L133.3,346.6z"/>
		<path class="st2" d="M149.8,333.4c0,0,2-1,2.5-3.4c0.4-2.4-1.4-4.1-1.4-4.1s-1.8,1.2-2.2,3.7C148.3,332,149.8,333.4,149.8,333.4
			L149.8,333.4z"/>
		<path class="st2" d="M150.9,340.1c-2.2,1.2-2.3,3.3-2.3,3.3s2.1,0.9,4.2-0.3c2.1-1.2,2.3-3.7,2.3-3.7S153.1,338.8,150.9,340.1
			L150.9,340.1z"/>
		<path class="st2" d="M147.9,344.8c-2.4,0.7-3,2.7-3,2.7s1.8,1.4,4.2,0.7c2.3-0.7,3.1-3.1,3.1-3.1S150.3,344.1,147.9,344.8
			L147.9,344.8z"/>
		<path class="st2" d="M144.5,348.7c-2.5-0.1-3.7,1.7-3.7,1.7s1.3,1.9,3.8,1.9c2.4,0.1,3.8-2,3.8-2S147,348.8,144.5,348.7
			L144.5,348.7z"/>
		<path class="st2" d="M139.1,351.6c-2.5-0.4-3.8,1.3-3.8,1.3s1.1,2,3.5,2.3c2.4,0.4,4.1-1.5,4.1-1.5S141.6,352,139.1,351.6
			L139.1,351.6z"/>
		<path class="st2" d="M150.2,334.6H149c0,0.5,0.2,12.1-18.2,17.6l0.3,1.1C150.5,347.5,150.2,334.7,150.2,334.6L150.2,334.6z"/>
		<path class="st2" d="M138.8,339.7l-1.3-10.9l7.4-7.4l-10.6-1.4l-4.9-9.2l0,0l-4.6,9.2l-10.4,1.4l7.4,7.4l-1.4,10.9l9.2-5l0,0
			L138.8,339.7z"/>
	</g>
</g>
<g>
	<rect x="186.3" y="365.4" class="st0" width="111.5" height="27.1"/>
	<g class="st1">
		<path class="st2" d="M211.5,370.4c0-3.1,2.2-5.2,5.1-5.2c1.6,0,2.8,0.7,3.6,1.8l-0.7,0.5c-0.6-0.9-1.7-1.5-2.9-1.5
			c-2.3,0-4.2,1.8-4.2,4.4c0,2.6,1.8,4.4,4.2,4.4c1.2,0,2.3-0.6,2.9-1.5l0.7,0.5c-0.9,1.1-2.1,1.8-3.7,1.8
			C213.7,375.6,211.5,373.5,211.5,370.4z"/>
		<path class="st2" d="M226.8,375.4v-1.1c-0.6,0.7-1.6,1.2-2.6,1.2c-1.5,0-2.3-0.7-2.3-2.3v-5.1h0.8v4.9c0,1.4,0.7,1.8,1.8,1.8
			c0.9,0,1.9-0.6,2.4-1.2v-5.5h0.8v7.2H226.8z"/>
		<path class="st2" d="M229.4,374.5l0.5-0.6c0.5,0.6,1.3,1.1,2.3,1.1c1.2,0,1.9-0.6,1.9-1.5c0-2-4.6-0.9-4.6-3.5c0-1.1,0.9-2,2.6-2
			c1.2,0,2.1,0.5,2.6,1.1l-0.4,0.6c-0.4-0.6-1.2-1-2.2-1c-1.1,0-1.8,0.6-1.8,1.3c0,1.8,4.6,0.7,4.6,3.5c0,1.2-0.9,2.1-2.7,2.1
			C231,375.6,230.1,375.3,229.4,374.5z"/>
		<path class="st2" d="M237,374v-5.2h-1.2v-0.7h1.2v-2h0.8v2h1.5v0.7h-1.5v5c0,0.6,0.2,1,0.8,1c0.3,0,0.6-0.2,0.8-0.3l0.3,0.6
			c-0.3,0.3-0.6,0.4-1.2,0.4C237.5,375.6,237,375,237,374z"/>
		<path class="st2" d="M240.6,371.8c0-2.1,1.3-3.8,3.5-3.8c2.1,0,3.5,1.7,3.5,3.8s-1.3,3.8-3.5,3.8
			C241.9,375.6,240.6,373.9,240.6,371.8z M246.7,371.8c0-1.6-0.9-3.1-2.7-3.1c-1.7,0-2.6,1.5-2.6,3.1c0,1.6,1,3.1,2.6,3.1
			C245.8,374.9,246.7,373.4,246.7,371.8z"/>
		<path class="st2" d="M258.2,375.4v-5.1c0-1-0.4-1.7-1.5-1.7c-0.8,0-1.7,0.6-2.1,1.2v5.5h-0.8v-5.1c0-1-0.4-1.7-1.4-1.7
			c-0.8,0-1.6,0.6-2.1,1.2v5.5h-0.8v-7.2h0.8v1.1c0.3-0.5,1.3-1.3,2.3-1.3c1.1,0,1.7,0.7,1.9,1.4c0.4-0.7,1.4-1.4,2.4-1.4
			c1.3,0,2,0.8,2,2.2v5.2H258.2z"/>
		<path class="st2" d="M261,371.8c0-2.1,1.5-3.8,3.5-3.8c2.2,0,3.4,1.7,3.4,3.8v0.2h-6.1c0.1,1.6,1.1,2.9,2.8,2.9
			c0.9,0,1.8-0.3,2.4-1l0.4,0.5c-0.7,0.8-1.6,1.2-2.8,1.2C262.5,375.6,261,374,261,371.8z M264.5,368.7c-1.7,0-2.6,1.5-2.6,2.8h5.3
			C267.1,370.2,266.3,368.7,264.5,368.7z"/>
		<path class="st2" d="M269.9,375.4v-7.2h0.8v1.2c0.6-0.8,1.4-1.4,2.4-1.4v0.9c-0.1,0-0.2,0-0.4,0c-0.7,0-1.7,0.7-2.1,1.3v5.3H269.9
			z"/>
	</g>
	<g class="st1">
		<path class="st2" d="M213.1,389v-6.6h-1.2v-0.7h1.2v-0.7c0-1.4,0.8-2.3,2-2.3c0.5,0,0.9,0.1,1.4,0.5L216,380
			c-0.2-0.2-0.5-0.4-0.9-0.4c-0.8,0-1.2,0.6-1.2,1.5v0.7h1.5v0.7h-1.5v6.6H213.1z"/>
		<path class="st2" d="M216.4,385.4c0-2.1,1.5-3.8,3.5-3.8c2.2,0,3.4,1.7,3.4,3.8v0.2h-6.1c0.1,1.6,1.1,2.9,2.8,2.9
			c0.9,0,1.8-0.3,2.4-1l0.4,0.5c-0.7,0.8-1.6,1.2-2.8,1.2C217.9,389.2,216.4,387.6,216.4,385.4z M219.9,382.3
			c-1.7,0-2.6,1.5-2.6,2.8h5.3C222.5,383.8,221.7,382.3,219.9,382.3z"/>
		<path class="st2" d="M224.9,385.4c0-2.1,1.5-3.8,3.5-3.8c2.2,0,3.4,1.7,3.4,3.8v0.2h-6.1c0.1,1.6,1.1,2.9,2.8,2.9
			c0.9,0,1.8-0.3,2.4-1l0.4,0.5c-0.7,0.8-1.6,1.2-2.8,1.2C226.4,389.2,224.9,387.6,224.9,385.4z M228.4,382.3
			c-1.7,0-2.6,1.5-2.6,2.8h5.3C231,383.8,230.2,382.3,228.4,382.3z"/>
		<path class="st2" d="M239.1,389v-1.2c-0.5,0.8-1.4,1.3-2.5,1.3c-1.9,0-3.2-1.5-3.2-3.8c0-2.3,1.3-3.8,3.2-3.8c1,0,2,0.5,2.5,1.3
			V379h0.8v10H239.1z M239.1,387.2v-3.6c-0.4-0.7-1.4-1.3-2.4-1.3c-1.6,0-2.5,1.3-2.5,3.1s0.9,3.1,2.5,3.1
			C237.8,388.5,238.7,387.9,239.1,387.2z"/>
		<path class="st2" d="M242.4,389v-10h0.8v3.9c0.6-0.8,1.5-1.3,2.5-1.3c1.9,0,3.2,1.5,3.2,3.8c0,2.3-1.3,3.8-3.2,3.8
			c-1.1,0-2-0.6-2.5-1.3v1.2H242.4z M245.5,388.5c1.6,0,2.5-1.3,2.5-3.1s-0.9-3.1-2.5-3.1c-1,0-2,0.6-2.4,1.3v3.6
			C243.6,387.9,244.5,388.5,245.5,388.5z"/>
		<path class="st2" d="M255.5,389v-0.9c-0.6,0.7-1.5,1-2.5,1c-1.2,0-2.5-0.9-2.5-2.4c0-1.6,1.3-2.4,2.5-2.4c1,0,1.8,0.3,2.5,1V384
			c0-1.1-0.9-1.7-1.9-1.7c-0.9,0-1.6,0.3-2.3,1.1l-0.4-0.5c0.8-0.8,1.6-1.2,2.8-1.2c1.5,0,2.6,0.7,2.6,2.3v5.1H255.5z M255.5,387.6
			V386c-0.5-0.7-1.3-1-2.2-1c-1.2,0-2,0.8-2,1.8c0,1,0.8,1.8,2,1.8C254.2,388.6,255,388.3,255.5,387.6z"/>
		<path class="st2" d="M258.3,385.4c0-2.1,1.4-3.8,3.5-3.8c1.3,0,2,0.5,2.6,1.2l-0.5,0.5c-0.5-0.7-1.2-1-2-1c-1.7,0-2.7,1.3-2.7,3.1
			s1,3.1,2.7,3.1c0.8,0,1.5-0.3,2-1l0.5,0.5c-0.6,0.8-1.3,1.2-2.6,1.2C259.7,389.2,258.3,387.5,258.3,385.4z"/>
		<path class="st2" d="M271.2,389l-2.9-3.5l-1.3,1.3v2.2h-0.8v-10h0.8v6.9l4.3-4.1h1l-3.4,3.3l3.4,4H271.2z"/>
	</g>
	<g>
		<path class="st2" d="M274.4,310.4h-23.3c-1.5,0-3.3,2.1-3.3,3.6v12c0,1.5,1.8,2.4,3.3,2.4h1.7v5.1c0,0.3,0.4,0.6,0.7,0.8
			c0.1,0.1,0.3,0.1,0.4,0.1c0.2,0,0.4-0.2,0.6-0.4l6.3-5.6h13.6c1.5,0,3.4-0.9,3.4-2.4v-12C277.8,312.5,275.9,310.4,274.4,310.4
			L274.4,310.4z M257.8,319.5l-1.2,1.2l0.3,1.7c0,0.1,0,0.2-0.1,0.3c-0.1,0-0.1,0.1-0.2,0.1s-0.1,0-0.1,0l-1.5-0.8l-1.5,0.8
			c-0.1,0.1-0.2,0-0.3,0c-0.1-0.1-0.2-0.2-0.1-0.3l0.3-1.7l-1.2-1.2c-0.1-0.1-0.1-0.2-0.1-0.3s0.1-0.2,0.3-0.2l1.7-0.2l0.8-1.6
			c0.1-0.1,0.2-0.2,0.3-0.2c0.1,0,0.2,0.1,0.3,0.2l0.8,1.6l1.7,0.2c0.1,0,0.2,0.1,0.3,0.2C258,319.3,257.9,319.4,257.8,319.5
			L257.8,319.5z M265.6,319.5l-1.2,1.2l0.3,1.7c0,0.1,0,0.2-0.1,0.3c-0.1,0-0.1,0.1-0.2,0.1s-0.1,0-0.2,0l-1.5-0.8l-1.5,0.8
			c-0.1,0.1-0.2,0-0.3,0c-0.1-0.1-0.2-0.2-0.1-0.3l0.3-1.7l-1.2-1.2c-0.1-0.1-0.1-0.2-0.1-0.3s0.1-0.2,0.3-0.2l1.7-0.2l0.8-1.6
			c0.1-0.1,0.2-0.2,0.3-0.2c0.1,0,0.2,0.1,0.3,0.2l0.8,1.6l1.7,0.2c0.1,0,0.2,0.1,0.3,0.2C265.9,319.3,265.8,319.4,265.6,319.5
			L265.6,319.5z M273.5,319.5l-1.2,1.2l0.3,1.7c0,0.1,0,0.2-0.1,0.3c-0.1,0-0.1,0.1-0.2,0.1s-0.1,0-0.2,0l-1.5-0.8l-1.5,0.8
			c-0.1,0.1-0.2,0-0.3,0c-0.1-0.1-0.2-0.2-0.1-0.3l0.3-1.7l-1.2-1.2c-0.1-0.1-0.1-0.2-0.1-0.3s0.1-0.2,0.3-0.2l1.7-0.2l0.8-1.6
			c0.1-0.1,0.2-0.2,0.3-0.2c0.1,0,0.2,0.1,0.3,0.2l0.8,1.6l1.7,0.2c0.1,0,0.2,0.1,0.3,0.2C273.8,319.3,273.6,319.4,273.5,319.5
			L273.5,319.5z"/>
		<path class="st2" d="M237.4,319.6c-5.7,0-8.9,3-8.8,8.6c0.1,7.8,3.4,12.5,8.8,12.4c0,0,8.8,0.4,8.8-12.4
			C246.3,322.5,243.3,319.6,237.4,319.6L237.4,319.6z"/>
		<path class="st2" d="M253,346.5l-8.8-3.4l-2.1-1.7c-0.5-0.5-1.3-0.4-1.8,0.1l-2.9,2.9l-2.9-2.8c-0.5-0.5-1.3-0.5-1.8-0.1l-2.1,1.7
			l-8.8,3.4c-2.8,1.1-2.8,10.9-3.1,11.9h37.3C255.9,357.4,255.9,347.6,253,346.5L253,346.5z"/>
	</g>
</g>
<g>
	<rect x="35.4" y="541.4" class="st0" width="305.2" height="19"/>
	<text transform="matrix(1 0 0 1 99.2635 554.0499)" class="st2 st4 st5">Vizury predictive data</text>
</g>
<path class="st3" d="M131,517.1c0,6.5-6.5,14.9-13,14.9H42.2c-6.5,0-15.2-8.5-15.2-14.9v-75c0-6.5,8.7-9.1,15.2-9.1H118
	c6.5,0,13,2.6,13,9.1V517.1z"/>
<rect x="31.3" y="505.4" class="st0" width="95.4" height="24.1"/>
<path class="st3" d="M237,517.3c0,6.5-2.2,14.7-8.7,14.7H152c-6.5,0-14-8.2-14-14.7v-75.4c0-6.5,7.5-8.9,14-8.9h76.3
	c6.5,0,8.7,2.3,8.7,8.9V517.3z"/>
<path class="st3" d="M347,517.5c0,6.5-6.3,14.5-12.8,14.5h-76.5c-6.5,0-14.7-8-14.7-14.5v-75.7c0-6.5,8.2-8.8,14.7-8.8h76.5
	c6.5,0,12.8,2.3,12.8,8.8V517.5z"/>
<g>
	<g class="st1">
		<path class="st2" d="M73.5,515.4l-1-2.5h-5.3l-1,2.5h-1l4.1-10h1.1l4.1,10H73.5z M69.9,506.3l-2.4,5.8h4.7L69.9,506.3z"/>
		<path class="st2" d="M77.5,515.4v-9.2h-3.3v-0.8h7.4v0.8h-3.3v9.2H77.5z"/>
		<path class="st2" d="M91.9,515.4v-8.9l-3.6,8.9h-0.3l-3.7-8.9v8.9h-0.9v-10h1.3l3.4,8.3l3.4-8.3h1.3v10H91.9z"/>
	</g>
	<g>
		<path class="st2" d="M97.8,447H60.2c-1,0-1.2,0.9-1.2,1.9v45.9c0,1,0.2,1.2,1.2,1.2h37.6c1,0,1.2-0.2,1.2-1.2v-45.9
			C99,447.9,98.8,447,97.8,447L97.8,447z M92,469.3c0,0.4,0,0.7-0.4,0.7H65.4c-0.4,0-0.4-0.3-0.4-0.7v-16.1c0-0.4,0-1.2,0.4-1.2
			h26.3c0.4,0,0.4,0.9,0.4,1.2L92,469.3L92,469.3z M76,490.1c0,0.4-0.8-0.1-1.2-0.1h-7.3c-0.4,0-0.5,0.5-0.5,0.1v-11.3
			c0-0.4,0.1-0.7,0.5-0.7h7.3c0.4,0,1.2,0.4,1.2,0.7V490.1z M78,477.7c0,0.4-0.3,0.3-0.7,0.3h-0.8c-0.4,0-0.5,0-0.5-0.3V477h-9v0.7
			c0,0.4-0.9,0.3-1.2,0.3H65c-0.4,0,0,0,0-0.3v-1.8c0-0.4-0.4-0.8,0-0.8h12.4c0.4,0,0.7,0.5,0.7,0.8L78,477.7L78,477.7z M83,490.6
			c0,0.3-0.1,0.4-0.3,0.4H80c-0.3,0-1-0.2-1-0.4v-2.7c0-0.3,0.7-0.9,1-0.9h2.7c0.3,0,0.3,0.6,0.3,0.9V490.6z M83,485.3
			c0,0.3-0.1-0.3-0.3-0.3H80c-0.3,0-1,0.5-1,0.3v-2.7c0-0.3,0.7-0.6,1-0.6h2.7c0.3,0,0.3,0.3,0.3,0.6V485.3z M83,480
			c0,0.3-0.1,0-0.3,0H80c-0.3,0-1,0.2-1,0v-2.7c0-0.3,0.7-0.3,1-0.3h2.7c0.3,0,0.3,0,0.3,0.3V480z M88,490.6c0,0.3,0.2,0.4,0,0.4
			h-2.7c-0.3,0-0.3-0.2-0.3-0.4v-2.7c0-0.3,0-0.9,0.3-0.9H88c0.3,0,0,0.6,0,0.9V490.6z M88,485.3c0,0.3,0.2-0.3,0-0.3h-2.7
			c-0.3,0-0.3,0.5-0.3,0.3v-2.7c0-0.3,0-0.6,0.3-0.6H88c0.3,0,0,0.3,0,0.6V485.3z M88,480C88,480.2,88.2,480,88,480h-2.7
			c-0.3,0-0.3,0.2-0.3,0v-2.7c0-0.3,0-0.3,0.3-0.3H88c0.3,0,0,0,0,0.3V480z M93,490.6c0,0.3,0.5,0.4,0.3,0.4h-2.7
			c-0.3,0-0.6-0.2-0.6-0.4v-2.7c0-0.3,0.3-0.9,0.6-0.9h2.7c0.3,0-0.3,0.6-0.3,0.9V490.6z M93,485.3c0,0.3,0.5-0.3,0.3-0.3h-2.7
			c-0.3,0-0.6,0.5-0.6,0.3v-2.7c0-0.3,0.3-0.6,0.6-0.6h2.7c0.3,0-0.3,0.3-0.3,0.6V485.3z M93,480c0,0.3,0.5,0,0.3,0h-2.7
			c-0.3,0-0.6,0.2-0.6,0v-2.7c0-0.3,0.3-0.3,0.6-0.3h2.7c0.3,0-0.3,0-0.3,0.3V480z"/>
		<path class="st2" d="M67.9,465h1.2c0.2,0,0.4-0.1,0.4-0.3L70,463h2.2l0.5,1.8c0.1,0.2,0.2,0.2,0.4,0.2h1.3c0.1,0,0.3,0.1,0.4,0
			s0.1-0.2,0.1-0.3l-2.4-8c-0.1-0.2-0.2-0.7-0.4-0.7h-2c-0.2,0-0.4,0.5-0.4,0.7l-2.3,7.8c0,0.1,0,0.2,0.1,0.4
			C67.6,465,67.7,465,67.9,465L67.9,465z M70.8,460.1c0.1-0.3,0.2-0.7,0.2-1.1c0-0.1,0-0.2,0.1-0.3c0.1,0.4,0.2,1.1,0.3,1.4l0.5,1.8
			h-1.6L70.8,460.1z"/>
		<path class="st2" d="M74.7,459H76v5.8c0,0.2,0.7,0.2,0.9,0.2h1.2c0.2,0,0.9,0.1,0.9-0.2V459h1.4c0.2,0,0.6-0.6,0.6-0.9v-0.9
			c0-0.2-0.4-1.2-0.6-1.2h-5.7c-0.2,0-0.7,1-0.7,1.2v0.9C74,458.4,74.4,459,74.7,459L74.7,459z"/>
		<path class="st2" d="M81.7,465h1c0.2,0,0.4,0,0.4-0.3l0.1-2.7c0-0.7,0.1-1.4,0.1-2.2c0-0.2,0-0.3,0-0.4c0.2,0.8,0.4,1.7,0.6,2.5
			l0.8,2.9c0.1,0.2,0.2,0.3,0.4,0.3h1c0.2,0,0.4,0,0.4-0.2l0.9-3c0.3-0.8,0.5-1.7,0.8-2.6c0,1,0,2,0.1,2.8l0.1,2.7
			c0,0.2,0.2,0.3,0.4,0.3h1.1c0.1,0,0.2,0.1,0.3,0c0.1-0.1,0.1-0.1,0.1-0.3l-0.4-8c0-0.2-0.2-0.8-0.4-0.8h-1.9
			c-0.2,0-0.4,0.5-0.4,0.7l-0.8,2.7v0.1c-0.3,0.9-0.7,1.9-0.8,2.7c-0.1-0.7-0.8-1.5-0.8-2.6l0,0l-0.6-2.9c-0.1-0.2-0.1-0.7-0.3-0.7
			H82c-0.2,0-0.4,0.6-0.4,0.8l-0.5,7.8c0,0.1,0,0.2,0.1,0.3C81.5,465,81.6,465,81.7,465L81.7,465z"/>
	</g>
</g>
<g>
	<g>
		<g>
			<rect x="150.1" y="505.4" class="st0" width="74.7" height="23.7"/>
		</g>
		<g class="st1">
			<path class="st2" d="M173.5,514l0.6-0.6c0.6,0.7,1.7,1.5,3.1,1.5c2,0,2.6-1.1,2.6-2c0-2.9-6-1.4-6-4.9c0-1.6,1.5-2.7,3.3-2.7
				c1.5,0,2.6,0.5,3.4,1.4l-0.6,0.6c-0.7-0.9-1.7-1.3-2.9-1.3c-1.3,0-2.3,0.8-2.3,1.8c0,2.6,6,1.2,6,4.9c0,1.3-0.9,2.8-3.6,2.8
				C175.5,515.6,174.3,514.9,173.5,514z"/>
			<path class="st2" d="M191.3,515.4v-8.9l-3.6,8.9h-0.3l-3.7-8.9v8.9h-0.9v-10h1.3l3.4,8.3l3.4-8.3h1.3v10H191.3z"/>
			<path class="st2" d="M194.1,514l0.6-0.6c0.6,0.7,1.7,1.5,3.1,1.5c2,0,2.6-1.1,2.6-2c0-2.9-6-1.4-6-4.9c0-1.6,1.5-2.7,3.3-2.7
				c1.5,0,2.6,0.5,3.4,1.4l-0.6,0.6c-0.7-0.9-1.7-1.3-2.9-1.3c-1.3,0-2.3,0.8-2.3,1.8c0,2.6,6,1.2,6,4.9c0,1.3-0.9,2.8-3.6,2.8
				C196.1,515.6,194.9,514.9,194.1,514z"/>
		</g>
	</g>
	<g>
		<path class="st2" d="M208.9,464.9h-1.4v15c0,2.4-1.3,4-4.1,4h-26.9v1.3c0,2.1,2,3.7,4.5,3.7h20.8l8,4.7l-1.2-4.7h0.3
			c2.5,0,3.6-1.6,3.6-3.7v-16.9C212.5,466.2,211.4,464.9,208.9,464.9L208.9,464.9z"/>
		<path class="st2" d="M199.3,453.9h-31.6c-2.8,0-6.2,2.6-6.2,5v19.2c0,2.2,2.8,3.8,5.4,4l-1.6,6.3l10.9-6.5h23.1
			c2.8,0,5.2-1.5,5.2-3.9v-19.1C204.5,456.5,202.1,453.9,199.3,453.9L199.3,453.9z M172.5,470.2c-1.6,0-2.9-1.3-2.9-2.9
			s1.3-2.9,2.9-2.9s2.9,1.3,2.9,2.9S174.1,470.2,172.5,470.2L172.5,470.2z M183.1,470.2c-1.6,0-2.9-1.3-2.9-2.9s1.3-2.9,2.9-2.9
			c1.6,0,2.9,1.3,2.9,2.9C186,468.9,184.8,470.2,183.1,470.2L183.1,470.2z M193.9,470.2c-1.6,0-2.9-1.3-2.9-2.9s1.3-2.9,2.9-2.9
			s2.9,1.3,2.9,2.9C196.6,468.9,195.4,470.2,193.9,470.2L193.9,470.2z"/>
	</g>
</g>
<g>
	<g>
		<g>
			<rect x="257.9" y="505" class="st0" width="76.5" height="15.2"/>
		</g>
		<g class="st1">
			<path class="st2" d="M280.2,515.1v-10h6.3v0.8H281v3.7h5.4v0.8H281v4h5.5v0.8H280.2z"/>
			<path class="st2" d="M297.2,515.1V510c0-1-0.4-1.7-1.5-1.7c-0.8,0-1.7,0.6-2.1,1.2v5.5h-0.8V510c0-1-0.4-1.7-1.4-1.7
				c-0.8,0-1.7,0.6-2.1,1.2v5.5h-0.8v-7.2h0.8v1.1c0.3-0.5,1.3-1.3,2.3-1.3c1.1,0,1.7,0.7,1.9,1.4c0.4-0.7,1.4-1.4,2.4-1.4
				c1.3,0,2,0.8,2,2.2v5.2H297.2z"/>
			<path class="st2" d="M305.1,515.1v-0.9c-0.6,0.7-1.5,1-2.5,1c-1.2,0-2.5-0.9-2.5-2.4c0-1.6,1.3-2.4,2.5-2.4c1,0,1.8,0.3,2.5,1
				V510c0-1.1-0.9-1.7-1.9-1.7c-0.9,0-1.6,0.3-2.3,1.1l-0.4-0.5c0.8-0.8,1.6-1.2,2.8-1.2c1.5,0,2.6,0.7,2.6,2.3v5.1H305.1z
				 M305.1,513.6v-1.6c-0.5-0.7-1.3-1-2.2-1c-1.2,0-2,0.8-2,1.8c0,1,0.8,1.8,2,1.8C303.7,514.6,304.5,514.3,305.1,513.6z"/>
			<path class="st2" d="M308.1,506.1c0-0.3,0.3-0.6,0.6-0.6c0.3,0,0.6,0.3,0.6,0.6s-0.3,0.6-0.6,0.6
				C308.3,506.7,308.1,506.4,308.1,506.1z M308.3,515.1v-7.2h0.8v7.2H308.3z"/>
			<path class="st2" d="M311.5,515.1v-10h0.8v10H311.5z"/>
		</g>
	</g>
	<g>
		<path class="st2" d="M280,464.7v-2.9c0-1.7,1.1-3,2.8-3H310c1.6,0,3.1,1.4,3.1,3v2.9l3.8-3.8c0.2-0.2,0.2-0.4,0.2-0.6
			s-0.1-0.4-0.3-0.6l-18.5-14.4c-1.1-0.8-2.6-0.8-3.7,0L276,459.7c-0.2,0.1-0.3,0.4-0.3,0.6s0.2,0.4,0.3,0.6L280,464.7z"/>
		<path class="st2" d="M320.5,463.2c-0.3-0.1-0.7-0.1-0.9,0.2l-20.3,20.3c-0.8,0.8-1.8,1.2-2.9,1.2s-2.1-0.4-2.9-1.2l-20.3-20.3
			c-0.2-0.2-0.5-0.3-0.8-0.2c-0.3,0.1-0.4,0.4-0.4,0.7v25.9c0,1.8,1.3,3,3.1,3h42.6c1.8,0,3.4-1.2,3.4-3V464
			C321,463.7,320.8,463.4,320.5,463.2L320.5,463.2z"/>
		<path class="st2" d="M305.4,462.8h-18.2c-0.9,0-1.6,0.6-1.6,1.5s0.7,1.5,1.6,1.5h18.2c0.9,0,1.6-0.6,1.6-1.5
			C307.1,463.4,306.3,462.8,305.4,462.8L305.4,462.8z"/>
		<path class="st2" d="M305.4,469.8h-18.2c-0.9,0-1.6,1.1-1.6,2s0.7,2,1.6,2h18.2c0.9,0,1.6-1.1,1.6-2
			C307.1,470.9,306.3,469.8,305.4,469.8L305.4,469.8z"/>
	</g>
</g>
<path class="st3" d="M131,650.5c0,6.5-6.1,13.5-12.7,13.5H41.8c-6.5,0-14.8-7-14.8-13.5v-75.7c0-6.5,8.3-9.8,14.8-9.8h76.5
	c6.5,0,12.7,3.2,12.7,9.8V650.5z"/>
<rect x="29.8" y="602" class="st0" width="98.4" height="24.9"/>
<path class="st3" d="M238,650.5c0,6.5-5.1,13.5-11.6,13.5h-76.5c-6.5,0-13.8-7-13.8-13.5v-75.7c0-6.5,7.3-9.8,13.8-9.8h76.5
	c6.5,0,11.6,3.2,11.6,9.8V650.5z"/>
<path class="st3" d="M347,650.5c0,6.5-6.3,13.5-12.8,13.5h-76.5c-6.5,0-14.7-7-14.7-13.5v-75.7c0-6.5,8.2-9.8,14.7-9.8h76.5
	c6.5,0,12.8,3.2,12.8,9.8V650.5z"/>
<g>
	<g class="st1">
		<path class="st2" d="M54.6,643.5l-1-2.5h-5.3l-1,2.5h-1l4.1-10h1.1l4.1,10H54.6z M51,634.4l-2.4,5.8h4.7L51,634.4z"/>
		<path class="st2" d="M62.4,643.5v-1.2c-0.5,0.8-1.4,1.3-2.5,1.3c-1.9,0-3.2-1.5-3.2-3.8c0-2.3,1.3-3.8,3.2-3.8c1,0,2,0.5,2.5,1.3
			v-3.9h0.8v10H62.4z M62.4,641.6v-3.6c-0.4-0.7-1.4-1.3-2.4-1.3c-1.6,0-2.5,1.3-2.5,3.1s0.9,3.1,2.5,3.1
			C61,642.9,62,642.3,62.4,641.6z"/>
		<path class="st2" d="M76.8,643.5l-1-2.5h-5.3l-1,2.5h-1l4.1-10h1.1l4.1,10H76.8z M73.2,634.4l-2.4,5.8h4.7L73.2,634.4z"/>
		<path class="st2" d="M79.4,643.5v-6.6h-1.2v-0.7h1.2v-0.7c0-1.4,0.8-2.3,2-2.3c0.5,0,0.9,0.1,1.4,0.5l-0.4,0.6
			c-0.2-0.2-0.5-0.4-0.9-0.4c-0.8,0-1.2,0.6-1.2,1.5v0.7h1.5v0.7h-1.5v6.6H79.4z M83.4,643.5v-6.6h-1.2v-0.7h1.2v-0.7
			c0-1.4,0.8-2.3,2-2.3c0.4,0,0.7,0.1,1,0.2l-0.2,0.6c-0.2-0.1-0.4-0.2-0.7-0.2c-0.8,0-1.2,0.6-1.2,1.5v0.7h1.5v0.7h-1.5v6.6H83.4z
			 M86.9,634.5c0-0.3,0.3-0.6,0.6-0.6c0.3,0,0.6,0.3,0.6,0.6s-0.3,0.6-0.6,0.6C87.2,635.1,86.9,634.8,86.9,634.5z M87.1,643.5v-7.2
			h0.8v7.2H87.1z"/>
		<path class="st2" d="M95.2,643.5v-4.9c0-1.4-0.7-1.8-1.8-1.8c-0.9,0-1.9,0.6-2.4,1.2v5.5h-0.8v-7.2h0.8v1.1
			c0.5-0.6,1.6-1.3,2.6-1.3c1.5,0,2.3,0.7,2.3,2.4v5.1H95.2z"/>
		<path class="st2" d="M98.2,634.5c0-0.3,0.3-0.6,0.6-0.6c0.3,0,0.6,0.3,0.6,0.6s-0.3,0.6-0.6,0.6C98.5,635.1,98.2,634.8,98.2,634.5
			z M98.4,643.5v-7.2h0.8v7.2H98.4z"/>
		<path class="st2" d="M101.8,642.1v-5.2h-1.2v-0.7h1.2v-2h0.8v2h1.5v0.7h-1.5v5c0,0.6,0.2,1,0.7,1c0.3,0,0.6-0.2,0.8-0.3l0.3,0.6
			c-0.3,0.3-0.6,0.4-1.2,0.4C102.2,643.6,101.8,643,101.8,642.1z"/>
		<path class="st2" d="M105.4,645.6c0.2,0.1,0.4,0.1,0.6,0.1c0.5,0,0.8-0.2,1.1-0.9l0.6-1.3l-3.1-7.3h0.9l2.6,6.3l2.6-6.3h0.9
			l-3.8,8.8c-0.4,0.9-1,1.3-1.8,1.3c-0.3,0-0.6,0-0.8-0.1L105.4,645.6z"/>
	</g>
	<g>
		<path class="st2" d="M98.1,588c0,2.9-8.4,5.3-18.7,5.3s-18.7-2.4-18.7-5.3c0-3,8.4-5.4,18.7-5.4C89.7,582.6,98.1,585,98.1,588"/>
		<path class="st2" d="M79.3,596c-1.7,0-14-0.1-19-3.7v6.4c0,3,8.7,5.4,19,5.4s19-2.4,19-5.4v-6.4C93.3,595.8,81,596,79.3,596"/>
		<path class="st2" d="M79.3,606.7c-1.7,0-14-0.1-19-3.7v6.4c0,2.9,8.7,5.4,19,5.4s19-2.4,19-5.4V603
			C93.3,606.5,81,606.7,79.3,606.7"/>
		<path class="st2" d="M79.3,617.4c-1.7,0-14-0.1-19-3.7v6.4c0,2.9,8.7,5.3,19,5.3s19-2.4,19-5.3v-6.4
			C93.3,617.2,81,617.4,79.3,617.4"/>
	</g>
</g>
<g>
	<g>
		<g>
			<rect x="137.6" y="627.3" class="st0" width="98.9" height="24.3"/>
		</g>
		<g class="st1">
			<path class="st2" d="M149.7,633.6v-6.2h0.9v6.2c0,2,1.1,3.3,3,3.3c2,0,3-1.2,3-3.3v-6.2h0.9v6.2c0,2.5-1.3,4-3.9,4
				C151.1,637.6,149.7,636,149.7,633.6z"/>
			<path class="st2" d="M164.9,637.4v-4.9c0-1.4-0.7-1.8-1.8-1.8c-0.9,0-1.9,0.6-2.4,1.2v5.5H160v-7.2h0.8v1.1
				c0.5-0.6,1.6-1.3,2.6-1.3c1.5,0,2.3,0.7,2.3,2.4v5.1H164.9z"/>
			<path class="st2" d="M167.9,628.4c0-0.3,0.3-0.6,0.6-0.6c0.3,0,0.6,0.3,0.6,0.6s-0.3,0.6-0.6,0.6
				C168.2,629,167.9,628.7,167.9,628.4z M168.1,637.4v-7.2h0.8v7.2H168.1z"/>
			<path class="st2" d="M170.8,633.8c0-2.3,1.3-3.8,3.2-3.8c1.1,0,2,0.6,2.5,1.3v-1.1h0.8v10h-0.8v-3.9c-0.6,0.8-1.5,1.3-2.5,1.3
				C172.1,637.6,170.8,636.1,170.8,633.8z M176.6,635.6V632c-0.4-0.7-1.4-1.3-2.4-1.3c-1.6,0-2.5,1.3-2.5,3.1s0.9,3.1,2.5,3.1
				C175.2,636.9,176.2,636.2,176.6,635.6z"/>
			<path class="st2" d="M184.7,637.4v-1.1c-0.6,0.7-1.6,1.2-2.6,1.2c-1.5,0-2.3-0.7-2.3-2.3v-5.1h0.8v4.9c0,1.4,0.7,1.8,1.8,1.8
				c0.9,0,1.9-0.6,2.4-1.2v-5.5h0.8v7.2H184.7z"/>
			<path class="st2" d="M187.5,633.8c0-2.1,1.5-3.8,3.5-3.8c2.2,0,3.4,1.7,3.4,3.8v0.2h-6.1c0.1,1.6,1.1,2.9,2.8,2.9
				c0.9,0,1.8-0.3,2.4-1l0.4,0.5c-0.7,0.8-1.6,1.2-2.8,1.2C189,637.6,187.5,636,187.5,633.8z M191,630.6c-1.7,0-2.6,1.5-2.6,2.8h5.3
				C193.6,632.2,192.8,630.6,191,630.6z"/>
			<path class="st2" d="M200.3,633.6v-6.2h0.9v6.2c0,2,1.1,3.3,3,3.3s3-1.2,3-3.3v-6.2h0.9v6.2c0,2.5-1.3,4-3.9,4
				C201.7,637.6,200.3,636,200.3,633.6z"/>
			<path class="st2" d="M209.9,636.4l0.5-0.6c0.5,0.6,1.3,1.1,2.3,1.1c1.2,0,1.9-0.6,1.9-1.5c0-2-4.6-0.9-4.6-3.5c0-1.1,0.9-2,2.6-2
				c1.2,0,2.1,0.5,2.6,1.1l-0.4,0.6c-0.4-0.6-1.2-1-2.2-1c-1.1,0-1.8,0.6-1.8,1.3c0,1.8,4.6,0.7,4.6,3.5c0,1.2-0.9,2.1-2.7,2.1
				C211.6,637.6,210.7,637.2,209.9,636.4z"/>
			<path class="st2" d="M217.1,633.8c0-2.1,1.5-3.8,3.5-3.8c2.2,0,3.4,1.7,3.4,3.8v0.2h-6.1c0.1,1.6,1.1,2.9,2.8,2.9
				c0.9,0,1.8-0.3,2.4-1l0.4,0.5c-0.7,0.8-1.6,1.2-2.8,1.2C218.6,637.6,217.1,636,217.1,633.8z M220.5,630.6c-1.7,0-2.6,1.5-2.6,2.8
				h5.3C223.1,632.2,222.3,630.6,220.5,630.6z"/>
			<path class="st2" d="M226,637.4v-7.2h0.8v1.2c0.6-0.8,1.4-1.4,2.4-1.4v0.9c-0.1,0-0.2,0-0.4,0c-0.7,0-1.7,0.7-2.1,1.3v5.3H226z"
				/>
		</g>
		<g class="st1">
			<path class="st2" d="M184.6,640.6c0-0.3,0.3-0.6,0.6-0.6c0.3,0,0.6,0.3,0.6,0.6s-0.3,0.6-0.6,0.6
				C184.9,641.2,184.6,640.9,184.6,640.6z M184.8,649.6v-7.2h0.8v7.2H184.8z"/>
			<path class="st2" d="M193.3,649.6v-1.2c-0.5,0.8-1.4,1.3-2.5,1.3c-1.9,0-3.2-1.5-3.2-3.8c0-2.3,1.3-3.8,3.2-3.8
				c1,0,2,0.5,2.5,1.3v-3.9h0.8v10H193.3z M193.3,647.8v-3.6c-0.4-0.7-1.4-1.3-2.4-1.3c-1.6,0-2.5,1.3-2.5,3.1s0.9,3.1,2.5,3.1
				C192,649.1,192.9,648.5,193.3,647.8z"/>
		</g>
	</g>
	<g>
		<path class="st2" d="M206.7,577.3h-39.6c-4.5,0-7.6,3.9-7.6,8.4v25.1c0,4.5,3.1,8.4,7.6,8.4h39.6c4.5,0,7.8-3.9,7.8-8.4v-25.1
			C214.5,581.3,211.2,577.3,206.7,577.3L206.7,577.3z M209.5,611.1c0,1.8-1.5,3.3-3.3,3.3h-39.4c-1.8,0-3.3-1.5-3.3-3.3v-25.4
			c0-1.8,1.5-3.3,3.3-3.3h39.4c1.8,0,3.3,1.5,3.3,3.3L209.5,611.1L209.5,611.1z"/>
		<path class="st2" d="M178.9,595.6c1.1-0.9,1.8-2.2,1.8-3.8c0-2.6-2.1-4.8-4.8-4.8c-2.6,0-4.8,2.1-4.8,4.8c0,1.5,0.9,2.8,2,3.7
			c-2.3,1.1-3.7,3.4-3.7,6.1v6.1c0,1,0.5,1.7,1.5,1.7h9.9c1,0,1.6-0.8,1.6-1.7v-6.1C182.5,598.9,181.3,596.7,178.9,595.6
			L178.9,595.6z"/>
		<path class="st2" d="M186.7,592.3h10.1c1.3,0,2.6-1,2.6-2.5s-1.1-2.5-2.6-2.5h-10.1c-1.3,0-2.6,1-2.6,2.5
			C184.2,591.3,185.3,592.3,186.7,592.3L186.7,592.3z"/>
		<path class="st2" d="M201.9,595.3h-15.1c-1.3,0-2.6,1.5-2.6,3s1.1,3,2.6,3H202c1.3,0,2.6-1.5,2.6-3
			C204.5,596.8,203.3,595.3,201.9,595.3L201.9,595.3z"/>
		<path class="st2" d="M201.9,604.3h-15.1c-1.5,0-2.6,0.7-2.6,2c0,1.3,1.1,2,2.6,2H202c1.3,0,2.6-0.5,2.6-2
			C204.5,604.8,203.3,604.3,201.9,604.3L201.9,604.3z"/>
	</g>
</g>
<g>
	<g>
		<g>
			<rect x="256.8" y="626.4" class="st0" width="76.5" height="27.2"/>
		</g>
		<g class="st1">
			<path class="st2" d="M266.2,636.4v-10h3.8c1.9,0,3,1.4,3,2.9c0,1.6-1.1,2.9-3,2.9h-2.9v4.2H266.2z M272.1,629.4
				c0-1.3-0.9-2.1-2.2-2.1h-2.8v4.3h2.8C271.2,631.5,272.1,630.6,272.1,629.4z"/>
			<path class="st2" d="M279.7,636.4v-1.1c-0.6,0.7-1.6,1.2-2.6,1.2c-1.5,0-2.3-0.7-2.3-2.3v-5.1h0.8v4.9c0,1.4,0.7,1.8,1.8,1.8
				c0.9,0,1.9-0.6,2.4-1.2v-5.5h0.8v7.2H279.7z"/>
			<path class="st2" d="M282.9,636.4v-7.2h0.8v1.2c0.6-0.8,1.4-1.4,2.4-1.4v0.9c-0.1,0-0.2,0-0.4,0c-0.7,0-1.7,0.7-2.1,1.3v5.3
				H282.9z"/>
			<path class="st2" d="M287.2,632.8c0-2.1,1.4-3.8,3.5-3.8c1.3,0,2,0.5,2.6,1.2l-0.5,0.5c-0.5-0.7-1.2-1-2-1
				c-1.7,0-2.7,1.3-2.7,3.1s1,3.1,2.7,3.1c0.8,0,1.5-0.3,2-1l0.5,0.5c-0.6,0.8-1.3,1.2-2.6,1.2C288.6,636.6,287.2,634.9,287.2,632.8
				z"/>
			<path class="st2" d="M299.9,636.4v-4.9c0-1.4-0.7-1.8-1.8-1.8c-0.9,0-1.9,0.6-2.4,1.2v5.5H295v-10h0.8v3.9
				c0.5-0.6,1.6-1.3,2.6-1.3c1.5,0,2.3,0.7,2.3,2.3v5.1H299.9z"/>
			<path class="st2" d="M307.7,636.4v-0.9c-0.6,0.7-1.5,1-2.5,1c-1.2,0-2.5-0.9-2.5-2.4c0-1.6,1.3-2.4,2.5-2.4c1,0,1.8,0.3,2.5,1
				v-1.5c0-1.1-0.9-1.7-1.9-1.7c-0.9,0-1.6,0.3-2.3,1.1l-0.4-0.5c0.8-0.8,1.6-1.2,2.8-1.2c1.5,0,2.6,0.7,2.6,2.3v5.1H307.7z
				 M307.7,635v-1.6c-0.5-0.7-1.3-1-2.2-1c-1.2,0-2,0.8-2,1.8c0,1,0.8,1.8,2,1.8C306.4,636,307.2,635.7,307.7,635z"/>
			<path class="st2" d="M310.3,635.5l0.5-0.6c0.5,0.6,1.3,1.1,2.3,1.1c1.2,0,1.9-0.6,1.9-1.5c0-2-4.6-0.9-4.6-3.5c0-1.1,0.9-2,2.6-2
				c1.2,0,2.1,0.5,2.6,1.1l-0.4,0.6c-0.4-0.6-1.2-1-2.2-1c-1.1,0-1.8,0.6-1.8,1.3c0,1.8,4.6,0.7,4.6,3.5c0,1.2-0.9,2.1-2.7,2.1
				C311.9,636.6,311,636.3,310.3,635.5z"/>
			<path class="st2" d="M317.4,632.8c0-2.1,1.5-3.8,3.5-3.8c2.2,0,3.4,1.7,3.4,3.8v0.2h-6.1c0.1,1.6,1.1,2.9,2.8,2.9
				c0.9,0,1.8-0.3,2.4-1l0.4,0.5c-0.7,0.8-1.6,1.2-2.8,1.2C318.9,636.6,317.4,635.1,317.4,632.8z M320.9,629.7
				c-1.7,0-2.6,1.5-2.6,2.8h5.3C323.5,631.2,322.7,629.7,320.9,629.7z"/>
		</g>
		<g class="st1">
			<path class="st2" d="M262.1,650v-10h3.7c1.9,0,3,1.4,3,2.9c0,1.6-1.1,2.9-3,2.9H263v4.2H262.1z M268,643c0-1.3-0.9-2.1-2.2-2.1
				H263v4.3h2.8C267.1,645.1,268,644.2,268,643z"/>
			<path class="st2" d="M270.7,650v-7.2h0.8v1.2c0.6-0.8,1.4-1.4,2.4-1.4v0.9c-0.1,0-0.2,0-0.4,0c-0.7,0-1.7,0.7-2.1,1.3v5.3H270.7z
				"/>
			<path class="st2" d="M275,646.4c0-2.1,1.3-3.8,3.5-3.8c2.1,0,3.5,1.7,3.5,3.8s-1.3,3.8-3.5,3.8C276.4,650.2,275,648.5,275,646.4z
				 M281.1,646.4c0-1.6-0.9-3.1-2.7-3.1c-1.7,0-2.6,1.5-2.6,3.1c0,1.6,1,3.1,2.6,3.1C280.2,649.5,281.1,648,281.1,646.4z"/>
			<path class="st2" d="M284.8,648.9v3.9H284v-10h0.8v1.1c0.5-0.7,1.4-1.3,2.5-1.3c1.9,0,3.2,1.5,3.2,3.8c0,2.3-1.3,3.8-3.2,3.8
				C286.3,650.2,285.4,649.7,284.8,648.9z M289.7,646.4c0-1.8-0.9-3.1-2.5-3.1c-1,0-2,0.6-2.4,1.3v3.6c0.4,0.7,1.4,1.3,2.4,1.3
				C288.8,649.5,289.7,648.2,289.7,646.4z"/>
			<path class="st2" d="M292.1,646.4c0-2.1,1.5-3.8,3.5-3.8c2.2,0,3.4,1.7,3.4,3.8v0.2h-6.1c0.1,1.6,1.1,2.9,2.8,2.9
				c0.9,0,1.8-0.3,2.4-1l0.4,0.5c-0.7,0.8-1.6,1.2-2.8,1.2C293.6,650.2,292.1,648.7,292.1,646.4z M295.5,643.3
				c-1.7,0-2.6,1.5-2.6,2.8h5.3C298.2,644.8,297.4,643.3,295.5,643.3z"/>
			<path class="st2" d="M305.9,650v-4.9c0-1.4-0.7-1.8-1.8-1.8c-0.9,0-1.9,0.6-2.4,1.2v5.5H301v-7.2h0.8v1.1
				c0.5-0.6,1.6-1.3,2.6-1.3c1.5,0,2.3,0.7,2.3,2.4v5.1H305.9z"/>
			<path class="st2" d="M308.5,649.1l0.5-0.6c0.5,0.6,1.3,1.1,2.3,1.1c1.2,0,1.9-0.6,1.9-1.5c0-2-4.6-0.9-4.6-3.5c0-1.1,0.9-2,2.6-2
				c1.2,0,2.1,0.5,2.6,1.1l-0.4,0.6c-0.4-0.6-1.2-1-2.2-1c-1.1,0-1.8,0.6-1.8,1.3c0,1.8,4.6,0.7,4.6,3.5c0,1.2-0.9,2.1-2.7,2.1
				C310.1,650.2,309.2,649.9,308.5,649.1z"/>
			<path class="st2" d="M315.8,641.1c0-0.3,0.3-0.6,0.6-0.6c0.3,0,0.6,0.3,0.6,0.6s-0.3,0.6-0.6,0.6
				C316.1,641.7,315.8,641.4,315.8,641.1z M316,650v-7.2h0.8v7.2H316z"/>
			<path class="st2" d="M319.3,648.7v-5.2h-1.2v-0.7h1.2v-2h0.8v2h1.5v0.7h-1.5v5c0,0.6,0.2,1,0.7,1c0.3,0,0.6-0.2,0.8-0.3l0.3,0.6
				c-0.3,0.3-0.6,0.4-1.2,0.4C319.8,650.2,319.3,649.6,319.3,648.7z"/>
			<path class="st2" d="M323,652.2c0.2,0.1,0.4,0.1,0.6,0.1c0.5,0,0.8-0.2,1.1-0.9l0.6-1.3l-3.1-7.3h0.9l2.6,6.3l2.6-6.3h0.9
				l-3.8,8.8c-0.4,0.9-1,1.3-1.8,1.3c-0.3,0-0.6,0-0.8-0.1L323,652.2z"/>
		</g>
	</g>
	<path class="st2" d="M319.5,585.8c-0.6-0.8-1.6-1.4-2.6-1.4h-2.6l0.6-0.4c0.2-0.2,0.3-0.4,0.3-0.7s-0.1-0.5-0.3-0.7l-6.2-6.2
		c-0.4-0.4-1.1-0.4-1.6,0l-7.2,7.2v-6.4c0-0.6-0.5-1.8-1.1-1.8h-14c-0.6,0-1.9,1.2-1.9,1.8v7.6v-0.3h-3.6l-0.4-1.7
		c-0.2-1.2-1.1-2.1-2.3-2.5l-9.6-2.9c-1.8-0.5-3.6,0.5-4.2,2.2c-0.5,1.8,0.4,3.6,2.2,4.2l7.7,2.4l5.9,25.8c0.2,1.1,0.9,2,1.9,2.4
		c0,0.2,0,0.5,0,0.7c0,3.1,2.5,5.7,5.7,5.7c3.1,0,5.7-2.6,5.7-5.7c0-0.1,0-0.5,0-0.5h8.9c0,0,0,0.3,0,0.5c0,3.1,2.5,5.7,5.7,5.7
		c3.1,0,5.7-2.5,5.7-5.6c0-0.1,0-0.3,0-0.4c1.4-0.2,2.6-1.2,2.9-2.7l5.3-23.2C320.4,587.6,320.1,586.5,319.5,585.8L319.5,585.8z
		 M286.1,617.7c-1.5,0-2.8-1.2-2.8-2.8c0-1.5,1.2-2.8,2.8-2.8c1.5,0,2.8,1.2,2.8,2.8C288.8,616.5,287.6,617.7,286.1,617.7
		L286.1,617.7z M306.3,617.7c-1.5,0-2.8-1.2-2.8-2.8c0-1.5,1.2-2.8,2.8-2.8c1.5,0,2.8,1.2,2.8,2.8
		C309.1,616.5,307.8,617.7,306.3,617.7L306.3,617.7z M308.1,606.4h-22.9c-1.1,0-2-0.9-2-2s0.9-2,2-2h22.9c1.1,0,2,0.9,2,2
		C310.3,605.5,309.4,606.4,308.1,606.4L308.1,606.4z M308.1,595.4h-22.9c-1.1,0-2-0.9-2-2s0.9-2,2-2h22.9c1.1,0,2,0.9,2,2
		C310.3,594.5,309.4,595.4,308.1,595.4L308.1,595.4z"/>
</g>
<path class="st3" d="M184,764.2c0,6.5-5.8,12.8-12.3,12.8H95.1c-6.5,0-14.1-6.3-14.1-12.8v-75.7c0-6.5,7.5-10.4,14.1-10.4h76.6
	c6.5,0,12.3,3.9,12.3,10.4V764.2z"/>
<rect x="83.3" y="750.2" class="st0" width="98.4" height="24.9"/>
<g class="st1">
	<path class="st2" d="M89.3,756v-10h0.9v9.2H95v0.8H89.3z"/>
	<path class="st2" d="M95.9,752.4c0-2.1,1.4-3.8,3.5-3.8c2.1,0,3.5,1.7,3.5,3.8s-1.3,3.8-3.5,3.8C97.3,756.2,95.9,754.5,95.9,752.4z
		 M102.1,752.4c0-1.6-0.9-3.1-2.7-3.1c-1.7,0-2.6,1.5-2.6,3.1c0,1.6,1,3.1,2.6,3.1C101.1,755.5,102.1,754,102.1,752.4z"/>
	<path class="st2" d="M104.5,752.4c0-2.1,1.4-3.8,3.5-3.8c1.3,0,2,0.5,2.6,1.2l-0.5,0.5c-0.5-0.7-1.2-1-2-1c-1.7,0-2.7,1.3-2.7,3.1
		s1,3.1,2.7,3.1c0.8,0,1.5-0.3,2-1l0.5,0.5c-0.6,0.8-1.3,1.2-2.6,1.2C105.9,756.2,104.5,754.5,104.5,752.4z"/>
	<path class="st2" d="M116.9,756v-0.9c-0.6,0.7-1.5,1-2.5,1c-1.2,0-2.5-0.9-2.5-2.4c0-1.6,1.3-2.4,2.5-2.4c1,0,1.8,0.3,2.5,1v-1.5
		c0-1.1-0.9-1.7-1.9-1.7c-0.9,0-1.6,0.3-2.3,1.1l-0.4-0.5c0.8-0.8,1.6-1.2,2.8-1.2c1.5,0,2.6,0.7,2.6,2.3v5.1H116.9z M116.9,754.6
		V753c-0.5-0.7-1.3-1-2.2-1c-1.2,0-2,0.8-2,1.8c0,1,0.8,1.8,2,1.8C115.6,755.6,116.4,755.2,116.9,754.6z"/>
	<path class="st2" d="M120.3,754.6v-5.2h-1.2v-0.7h1.2v-2h0.8v2h1.5v0.7h-1.5v5c0,0.6,0.2,1,0.8,1c0.3,0,0.6-0.2,0.8-0.3l0.3,0.6
		c-0.3,0.3-0.6,0.4-1.2,0.4C120.7,756.2,120.3,755.6,120.3,754.6z"/>
	<path class="st2" d="M124,747c0-0.3,0.3-0.6,0.6-0.6c0.3,0,0.6,0.3,0.6,0.6s-0.3,0.6-0.6,0.6C124.3,747.6,124,747.3,124,747z
		 M124.3,756v-7.2h0.8v7.2H124.3z"/>
	<path class="st2" d="M127.1,752.4c0-2.1,1.3-3.8,3.5-3.8c2.1,0,3.5,1.7,3.5,3.8s-1.3,3.8-3.5,3.8
		C128.4,756.2,127.1,754.5,127.1,752.4z M133.2,752.4c0-1.6-0.9-3.1-2.7-3.1c-1.7,0-2.6,1.5-2.6,3.1c0,1.6,1,3.1,2.6,3.1
		C132.2,755.5,133.2,754,133.2,752.4z"/>
	<path class="st2" d="M140.9,756v-4.9c0-1.4-0.7-1.8-1.8-1.8c-0.9,0-1.9,0.6-2.4,1.2v5.5H136v-7.2h0.8v1.1c0.5-0.6,1.6-1.3,2.6-1.3
		c1.5,0,2.3,0.7,2.3,2.4v5.1H140.9z"/>
	<path class="st2" d="M148,756v-10h3.2c3.1,0,5.1,2.3,5.1,5c0,2.8-1.9,5-5.1,5H148z M155.4,751c0-2.3-1.5-4.2-4.2-4.2h-2.3v8.4h2.3
		C153.9,755.2,155.4,753.3,155.4,751z"/>
	<path class="st2" d="M163,756v-0.9c-0.6,0.7-1.5,1-2.5,1c-1.2,0-2.5-0.9-2.5-2.4c0-1.6,1.3-2.4,2.5-2.4c1,0,1.8,0.3,2.5,1v-1.5
		c0-1.1-0.9-1.7-1.9-1.7c-0.9,0-1.6,0.3-2.3,1.1l-0.4-0.5c0.8-0.8,1.6-1.2,2.8-1.2c1.5,0,2.6,0.7,2.6,2.3v5.1H163z M163,754.6V753
		c-0.5-0.7-1.3-1-2.2-1c-1.2,0-2,0.8-2,1.8c0,1,0.8,1.8,2,1.8C161.7,755.6,162.5,755.2,163,754.6z"/>
	<path class="st2" d="M166.4,754.6v-5.2h-1.2v-0.7h1.2v-2h0.8v2h1.5v0.7h-1.5v5c0,0.6,0.2,1,0.7,1c0.3,0,0.6-0.2,0.8-0.3l0.3,0.6
		c-0.3,0.3-0.6,0.4-1.2,0.4C166.8,756.2,166.4,755.6,166.4,754.6z"/>
	<path class="st2" d="M174.9,756v-0.9c-0.6,0.7-1.5,1-2.5,1c-1.2,0-2.5-0.9-2.5-2.4c0-1.6,1.3-2.4,2.5-2.4c1,0,1.8,0.3,2.5,1v-1.5
		c0-1.1-0.9-1.7-1.9-1.7c-0.9,0-1.6,0.3-2.3,1.1l-0.4-0.5c0.8-0.8,1.6-1.2,2.8-1.2c1.5,0,2.6,0.7,2.6,2.3v5.1H174.9z M174.9,754.6
		V753c-0.5-0.7-1.3-1-2.2-1c-1.2,0-2,0.8-2,1.8c0,1,0.8,1.8,2,1.8C173.6,755.6,174.4,755.2,174.9,754.6z"/>
</g>
<path class="st3" d="M293,764.2c0,6.5-4.8,14.8-11.3,14.8h-76.6c-6.5,0-13.1-8.3-13.1-14.8v-75.7c0-6.5,6.6-8.5,13.1-8.5h76.6
	c6.5,0,11.3,1.9,11.3,8.5V764.2z"/>
<g>
	<g>
		<rect x="192.5" y="746" class="st0" width="100" height="27.9"/>
	</g>
	<g class="st1">
		<path class="st2" d="M217.4,756l-1-2.5h-5.3l-1,2.5h-1l4.1-10h1.1l4.1,10H217.4z M213.8,746.9l-2.4,5.8h4.7L213.8,746.9z"/>
		<path class="st2" d="M220.6,754.8v3.9h-0.8v-10h0.8v1.1c0.5-0.7,1.4-1.3,2.5-1.3c1.9,0,3.2,1.5,3.2,3.8c0,2.3-1.3,3.8-3.2,3.8
			C222.1,756.2,221.2,755.7,220.6,754.8z M225.5,752.4c0-1.8-0.9-3.1-2.5-3.1c-1,0-2,0.6-2.4,1.3v3.6c0.4,0.7,1.4,1.3,2.4,1.3
			C224.6,755.5,225.5,754.1,225.5,752.4z"/>
		<path class="st2" d="M229.1,754.8v3.9h-0.8v-10h0.8v1.1c0.5-0.7,1.4-1.3,2.5-1.3c1.9,0,3.2,1.5,3.2,3.8c0,2.3-1.3,3.8-3.2,3.8
			C230.6,756.2,229.7,755.7,229.1,754.8z M234,752.4c0-1.8-0.9-3.1-2.5-3.1c-1,0-2,0.6-2.4,1.3v3.6c0.4,0.7,1.4,1.3,2.4,1.3
			C233.1,755.5,234,754.1,234,752.4z"/>
		<path class="st2" d="M240.7,756v-10h0.9v10H240.7z"/>
		<path class="st2" d="M248.9,756v-4.9c0-1.4-0.7-1.8-1.8-1.8c-0.9,0-1.9,0.6-2.4,1.2v5.5h-0.8v-7.2h0.8v1.1
			c0.5-0.6,1.6-1.3,2.6-1.3c1.5,0,2.3,0.7,2.3,2.4v5.1H248.9z"/>
		<path class="st2" d="M251.5,755l0.5-0.6c0.5,0.6,1.3,1.1,2.3,1.1c1.2,0,1.9-0.6,1.9-1.5c0-2-4.6-0.9-4.6-3.5c0-1.1,0.9-2,2.6-2
			c1.2,0,2.1,0.5,2.6,1.1l-0.4,0.6c-0.4-0.6-1.2-1-2.2-1c-1.1,0-1.8,0.6-1.8,1.3c0,1.8,4.6,0.7,4.6,3.5c0,1.2-0.9,2.1-2.7,2.1
			C253.1,756.2,252.2,755.8,251.5,755z"/>
		<path class="st2" d="M259.2,754.6v-5.2H258v-0.7h1.2v-2h0.8v2h1.5v0.7H260v5c0,0.6,0.2,1,0.8,1c0.3,0,0.6-0.2,0.8-0.3l0.3,0.6
			c-0.3,0.3-0.6,0.4-1.2,0.4C259.7,756.2,259.2,755.6,259.2,754.6z"/>
		<path class="st2" d="M267.8,756v-0.9c-0.6,0.7-1.5,1-2.5,1c-1.2,0-2.5-0.9-2.5-2.4c0-1.6,1.3-2.4,2.5-2.4c1,0,1.8,0.3,2.5,1v-1.5
			c0-1.1-0.9-1.7-1.9-1.7c-0.9,0-1.6,0.3-2.3,1.1l-0.4-0.5c0.8-0.8,1.6-1.2,2.8-1.2c1.5,0,2.6,0.7,2.6,2.3v5.1H267.8z M267.8,754.6
			V753c-0.5-0.7-1.3-1-2.2-1c-1.2,0-2,0.8-2,1.8c0,1,0.8,1.8,2,1.8C266.4,755.6,267.3,755.2,267.8,754.6z"/>
		<path class="st2" d="M271,756v-10h0.8v10H271z"/>
		<path class="st2" d="M274.2,756v-10h0.8v10H274.2z"/>
	</g>
	<g class="st1">
		<path class="st2" d="M228.7,769.8v-10h3.2c3.1,0,5.1,2.3,5.1,5c0,2.8-2,5-5.1,5H228.7z M236.1,764.8c0-2.3-1.5-4.2-4.2-4.2h-2.3
			v8.4h2.3C234.6,769,236.1,767.1,236.1,764.8z"/>
		<path class="st2" d="M243.7,769.8v-0.9c-0.6,0.7-1.5,1-2.5,1c-1.2,0-2.5-0.9-2.5-2.4c0-1.6,1.3-2.4,2.5-2.4c1,0,1.8,0.3,2.5,1
			v-1.5c0-1.1-0.9-1.7-1.9-1.7c-0.9,0-1.6,0.3-2.3,1.1l-0.4-0.5c0.8-0.8,1.6-1.2,2.8-1.2c1.5,0,2.6,0.7,2.6,2.3v5.1H243.7z
			 M243.7,768.4v-1.6c-0.5-0.7-1.3-1-2.2-1c-1.2,0-2,0.8-2,1.8c0,1,0.8,1.8,2,1.8C242.4,769.4,243.2,769,243.7,768.4z"/>
		<path class="st2" d="M247.1,768.4v-5.2h-1.2v-0.7h1.2v-2h0.8v2h1.5v0.7h-1.5v5c0,0.6,0.2,1,0.8,1c0.3,0,0.6-0.2,0.8-0.3l0.3,0.6
			c-0.3,0.3-0.6,0.4-1.2,0.4C247.5,770,247.1,769.4,247.1,768.4z"/>
		<path class="st2" d="M255.6,769.8v-0.9c-0.6,0.7-1.5,1-2.5,1c-1.2,0-2.5-0.9-2.5-2.4c0-1.6,1.3-2.4,2.5-2.4c1,0,1.8,0.3,2.5,1
			v-1.5c0-1.1-0.9-1.7-1.9-1.7c-0.9,0-1.6,0.3-2.3,1.1l-0.4-0.5c0.8-0.8,1.6-1.2,2.8-1.2c1.5,0,2.6,0.7,2.6,2.3v5.1H255.6z
			 M255.6,768.4v-1.6c-0.5-0.7-1.3-1-2.2-1c-1.2,0-2,0.8-2,1.8c0,1,0.8,1.8,2,1.8C254.3,769.4,255.1,769,255.6,768.4z"/>
	</g>
</g>
<g>
	<path class="st2" d="M134.3,698.1c-0.8-1.4-2.2-2.1-3.9-2.1h-20.1c-1.6,0-2.3,1.2-2.3,2.8v1.2h27.3L134.3,698.1z"/>
	<path class="st2" d="M153.6,703h-45.5v27c0,1.6,0.7,2,2.3,2h43.2c1.6,0,3.5-0.4,3.5-2v-24.1c0-1.6-1.5-2.9-3.1-2.9H153.6z"/>
</g>
<g>
	<path class="st2" d="M247.8,728h-23.3v-34h24v2h3v-2.5c0-3-2.9-5.5-5.9-5.5h-18.8c-3,0-5.2,2.5-5.2,5.5V733c0,3,2.2,6,5.2,6h18.8
		c3,0,5.9-2.9,5.9-6v-5H247.8L247.8,728z M236.2,735.8c-1.4,0-2.5-1.1-2.5-2.5s1.1-2.5,2.5-2.5s2.5,1.1,2.5,2.5
		S237.6,735.8,236.2,735.8L236.2,735.8z"/>
	<rect x="227.5" y="697" class="st2" width="7" height="5"/>
	<rect x="227.5" y="708" class="st2" width="7" height="5"/>
	<rect x="227.5" y="720" class="st2" width="7" height="4"/>
	<path class="st2" d="M259.3,710c-0.3-1-0.8-2.3-1.5-3.3l2.5-2.4l-2.6-2.5l-2.1,2.6c-1.1-0.7-2.1-1.2-3.1-1.4v-4h-4v3.9
		c-1,0.3-2.8,0.8-3.8,1.5l-2.7-2.5l-2.6,2.6l2.5,2.3c-0.7,1.1-1.2,2.3-1.5,3.3h-2.9v4h2.8c0.2,1,0.8,2.6,1.5,3.7l-2.5,2.6l2.6,2.6
		l2.8-2.5c1.1,0.7,2.8,1.2,3.8,1.5v3.2h4V722c1-0.2,2.1-0.8,3.1-1.5l2.3,2.5l2.5-2.6l-2.6-2.6c0.7-1.1,1.2-2.7,1.4-3.7h4.2v-4
		L259.3,710L259.3,710z M249.8,716.3c-2.2,0-4-1.8-4-4s1.8-4,4-4s4,1.8,4,4S252,716.3,249.8,716.3L249.8,716.3z"/>
</g>
</svg>
