<?xml version="1.0" encoding="utf-8"?>
<!-- Generator: Adobe Illustrator 19.1.0, SVG Export Plug-In . SVG Version: 6.00 Build 0)  -->
<svg version="1.1" id="Layer_1" xmlns="http://www.w3.org/2000/svg" xmlns:xlink="http://www.w3.org/1999/xlink" x="0px" y="0px"
	 viewBox="-5 125.1 388 550.9" style="enable-background:new -5 125.1 388 550.9;" xml:space="preserve">
<style type="text/css">
	.st0{fill:none;stroke:#FFFFFF;stroke-width:2;stroke-miterlimit:10;}
	.st1{fill:none;}
	.st2{fill:#FFFFFF;}
	.st3{enable-background:new    ;}
	.st4{fill:none;stroke:#FFFFFF;stroke-miterlimit:10;}
	.st5{fill:none;stroke:#FFFFFF;}
</style>
<path class="st0" d="M245,653.1c0,7.4-6,13.4-13.4,13.4h-86.5c-7.4,0-13.4-6-13.4-13.4v-85.6c0-7.4,6-13.4,13.4-13.4h86.5
	c7.4,0,13.4,6,13.4,13.4V653.1z"/>
<path class="st0" d="M176.4,528c0,7.4-6,13.4-13.4,13.4H76.5c-7.4,0-13.4-6-13.4-13.4v-85.6c0-7.4,6-13.4,13.4-13.4H163
	c7.4,0,13.4,6,13.4,13.4V528z"/>
<path class="st0" d="M314.5,528c0,7.4-6,13.4-13.4,13.4h-86.5c-7.4,0-13.4-6-13.4-13.4v-85.6c0-7.4,6-13.4,13.4-13.4h86.5
	c7.4,0,13.4,6,13.4,13.4V528z"/>
<path class="st0" d="M181.1,400.6c0,7.7-6.2,13.9-13.9,13.9H77c-7.7,0-13.9-6.2-13.9-13.9v-89.2c0-7.7,6.2-13.9,13.9-13.9h90.2
	c7.7,0,13.9,6.2,13.9,13.9L181.1,400.6L181.1,400.6z"/>
<path class="st0" d="M316.6,400.6c0,7.7-6.2,13.9-13.9,13.9h-90.2c-7.7,0-13.9-6.2-13.9-13.9v-89.2c0-7.7,6.2-13.9,13.9-13.9h90.2
	c7.7,0,13.9,6.2,13.9,13.9V400.6z"/>
<rect x="93.3" y="314.7" class="st1" width="57.7" height="57.7"/>
<path class="st2" d="M140.8,338.1h-5.9c-0.3-1.1-0.8-2.2-1.4-3.2l3.9-3.9c0.9-0.9,0.9-2.4,0-3.3l-1.7-1.7c-0.9-0.9-2.4-0.9-3.3,0
	l-4,4c-1.1-0.6-2.2-1.1-3.5-1.4v-5.2c0-1.3-1.1-2.3-2.3-2.3h-2.4c-1.3,0-2.3,1.1-2.3,2.3v5.2c-1.4,0.3-2.6,0.9-3.8,1.6l-3.3-3.3
	c-0.9-0.9-2.4-0.9-3.3,0l-1.7,1.7c-0.9,0.9-0.9,2.4,0,3.3l3.4,3.4c-0.7,1.3-1.3,2.6-1.6,4.1h-4.4c-1.3,0-2.3,1.1-2.3,2.4v2.4
	c0,1.3,1,2.3,2.3,2.3h4.7c0.4,1.4,1.1,2.7,1.9,3.9l-3.2,3.2c-0.9,0.9-0.9,2.4,0,3.3l1.7,1.7c0.9,0.9,2.4,0.9,3.3,0l3.6-3.6
	c1.2,0.6,2.5,1,3.9,1.3v4.9c0,1.3,1,2.3,2.4,2.3h2.3c1.3,0,2.4-1,2.4-2.3v-5.5c1.2-0.4,2.3-1,3.3-1.7l3.8,3.8c0.9,0.9,2.4,0.9,3.3,0
	l1.7-1.7c0.9-0.9,0.9-2.4,0-3.3l-4.1-4.2c0.5-1,0.9-2.1,1.2-3.3h5.6c1.3,0,2.4-1,2.4-2.4v-2.3C143.1,339.1,142.1,338.1,140.8,338.1z
	 M121.4,350.2c-4.4,0-8-3.5-8-7.9s3.6-7.9,8-7.9c4.4,0,8,3.5,8,7.9C129.4,346.6,125.8,350.2,121.4,350.2z"/>
<g>
	<g>
		<rect x="61.2" y="374" class="st1" width="121.9" height="50.3"/>
	</g>
	<g class="st3">
		<path class="st2" d="M81.5,384v-10h3.7c1.9,0,3,1.4,3,2.9c0,1.6-1.1,2.9-3,2.9h-2.9v4.2H81.5z M87.4,376.9c0-1.3-0.9-2.1-2.2-2.1
			h-2.8v4.3h2.8C86.5,379.1,87.4,378.2,87.4,376.9z"/>
		<path class="st2" d="M89.5,380.4c0-2.1,1.5-3.8,3.5-3.8c2.2,0,3.4,1.7,3.4,3.8v0.2h-6.1c0.1,1.6,1.1,2.9,2.8,2.9
			c0.9,0,1.8-0.3,2.4-1l0.4,0.5c-0.7,0.8-1.6,1.2-2.8,1.2C91,384.2,89.5,382.6,89.5,380.4z M92.9,377.2c-1.7,0-2.6,1.5-2.6,2.8h5.3
			C95.6,378.8,94.7,377.2,92.9,377.2z"/>
		<path class="st2" d="M98.4,384v-7.2h0.8v1.2c0.6-0.8,1.4-1.4,2.4-1.4v0.9c-0.1,0-0.2,0-0.4,0c-0.7,0-1.7,0.7-2.1,1.3v5.3H98.4z"/>
		<path class="st2" d="M102.5,383l0.5-0.6c0.5,0.6,1.3,1.1,2.3,1.1c1.2,0,1.9-0.6,1.9-1.5c0-2-4.6-0.9-4.6-3.5c0-1.1,0.9-2,2.6-2
			c1.2,0,2.1,0.5,2.6,1.1l-0.4,0.6c-0.4-0.6-1.2-1-2.2-1c-1.1,0-1.8,0.6-1.8,1.3c0,1.8,4.6,0.7,4.6,3.5c0,1.2-0.9,2.1-2.7,2.1
			C104.1,384.2,103.2,383.8,102.5,383z"/>
		<path class="st2" d="M109.6,380.4c0-2.1,1.3-3.8,3.5-3.8c2.1,0,3.5,1.7,3.5,3.8s-1.3,3.8-3.5,3.8
			C111,384.2,109.6,382.5,109.6,380.4z M115.7,380.4c0-1.6-0.9-3.1-2.7-3.1c-1.7,0-2.6,1.5-2.6,3.1c0,1.6,1,3.1,2.6,3.1
			C114.8,383.5,115.7,382,115.7,380.4z"/>
		<path class="st2" d="M123.5,384v-4.9c0-1.4-0.7-1.8-1.8-1.8c-0.9,0-1.9,0.6-2.4,1.2v5.5h-0.8v-7.2h0.8v1.1
			c0.5-0.6,1.6-1.3,2.6-1.3c1.5,0,2.3,0.7,2.3,2.4v5.1H123.5z"/>
		<path class="st2" d="M131.3,384v-0.9c-0.6,0.7-1.5,1-2.5,1c-1.2,0-2.5-0.9-2.5-2.4c0-1.6,1.3-2.4,2.5-2.4c1,0,1.8,0.3,2.5,1v-1.5
			c0-1.1-0.9-1.7-1.9-1.7c-0.9,0-1.6,0.3-2.3,1.1l-0.4-0.5c0.8-0.8,1.6-1.2,2.8-1.2c1.5,0,2.6,0.7,2.6,2.3v5.1H131.3z M131.3,382.6
			V381c-0.5-0.7-1.3-1-2.2-1c-1.2,0-2,0.8-2,1.8c0,1,0.8,1.8,2,1.8C130,383.6,130.8,383.2,131.3,382.6z"/>
		<path class="st2" d="M134.5,384v-10h0.8v10H134.5z"/>
		<path class="st2" d="M137.5,375c0-0.3,0.3-0.6,0.6-0.6c0.3,0,0.6,0.3,0.6,0.6s-0.3,0.6-0.6,0.6C137.8,375.6,137.5,375.3,137.5,375
			z M137.7,384v-7.2h0.8v7.2H137.7z"/>
		<path class="st2" d="M140.5,384v-0.6l4.3-5.9h-4.3v-0.7h5.3v0.6l-4.3,5.9h4.4v0.7H140.5z"/>
		<path class="st2" d="M147.5,380.4c0-2.1,1.5-3.8,3.5-3.8c2.2,0,3.4,1.7,3.4,3.8v0.2h-6.1c0.1,1.6,1.1,2.9,2.8,2.9
			c0.9,0,1.8-0.3,2.4-1l0.4,0.5c-0.7,0.8-1.6,1.2-2.8,1.2C149,384.2,147.5,382.6,147.5,380.4z M151,377.2c-1.7,0-2.6,1.5-2.6,2.8
			h5.3C153.6,378.8,152.8,377.2,151,377.2z"/>
		<path class="st2" d="M161.8,384v-1.2c-0.5,0.8-1.4,1.3-2.5,1.3c-1.9,0-3.2-1.5-3.2-3.8c0-2.3,1.3-3.8,3.2-3.8c1,0,2,0.5,2.5,1.3
			V374h0.8v10H161.8z M161.8,382.2v-3.6c-0.4-0.7-1.4-1.3-2.4-1.3c-1.6,0-2.5,1.3-2.5,3.1s0.9,3.1,2.5,3.1
			C160.4,383.5,161.4,382.9,161.8,382.2z"/>
	</g>
	<g class="st3">
		<path class="st2" d="M72.2,396l-2.8-4.1h-2.2v4.1h-0.9v-10H70c1.7,0,3,1.1,3,2.9c0,1.8-1.3,2.8-2.8,2.9l2.9,4.2H72.2z M72.2,388.9
			c0-1.3-0.9-2.1-2.2-2.1h-2.8v4.3H70C71.3,391.1,72.2,390.2,72.2,388.9z"/>
		<path class="st2" d="M74.3,392.4c0-2.1,1.5-3.8,3.5-3.8c2.2,0,3.4,1.7,3.4,3.8v0.2h-6.1c0.1,1.6,1.1,2.9,2.8,2.9
			c0.9,0,1.8-0.3,2.4-1l0.4,0.5c-0.7,0.8-1.6,1.2-2.8,1.2C75.8,396.2,74.3,394.6,74.3,392.4z M77.8,389.2c-1.7,0-2.6,1.5-2.6,2.8
			h5.3C80.4,390.8,79.6,389.2,77.8,389.2z"/>
		<path class="st2" d="M82.8,392.4c0-2.1,1.4-3.8,3.5-3.8c1.3,0,2,0.5,2.6,1.2l-0.5,0.5c-0.5-0.7-1.2-1-2-1c-1.7,0-2.7,1.3-2.7,3.1
			s1,3.1,2.7,3.1c0.8,0,1.5-0.3,2-1l0.5,0.5c-0.6,0.8-1.3,1.2-2.6,1.2C84.2,396.2,82.8,394.5,82.8,392.4z"/>
		<path class="st2" d="M90.2,392.4c0-2.1,1.3-3.8,3.5-3.8c2.1,0,3.5,1.7,3.5,3.8s-1.3,3.8-3.5,3.8C91.6,396.2,90.2,394.5,90.2,392.4
			z M96.4,392.4c0-1.6-0.9-3.1-2.7-3.1c-1.7,0-2.6,1.5-2.6,3.1c0,1.6,1,3.1,2.6,3.1C95.4,395.5,96.4,394,96.4,392.4z"/>
		<path class="st2" d="M107.8,396v-5.1c0-1-0.4-1.7-1.5-1.7c-0.8,0-1.7,0.6-2.1,1.2v5.5h-0.8v-5.1c0-1-0.4-1.7-1.4-1.7
			c-0.8,0-1.7,0.6-2.1,1.2v5.5h-0.8v-7.2h0.8v1.1c0.3-0.5,1.3-1.3,2.3-1.3c1.1,0,1.7,0.7,1.9,1.4c0.4-0.7,1.4-1.4,2.4-1.4
			c1.3,0,2,0.8,2,2.2v5.2H107.8z"/>
		<path class="st2" d="M119.7,396v-5.1c0-1-0.4-1.7-1.5-1.7c-0.8,0-1.7,0.6-2.1,1.2v5.5h-0.8v-5.1c0-1-0.4-1.7-1.4-1.7
			c-0.8,0-1.7,0.6-2.1,1.2v5.5h-0.8v-7.2h0.8v1.1c0.3-0.5,1.3-1.3,2.3-1.3c1.1,0,1.7,0.7,1.9,1.4c0.4-0.7,1.4-1.4,2.4-1.4
			c1.3,0,2,0.8,2,2.2v5.2H119.7z"/>
		<path class="st2" d="M122.5,392.4c0-2.1,1.5-3.8,3.5-3.8c2.2,0,3.4,1.7,3.4,3.8v0.2h-6.1c0.1,1.6,1.1,2.9,2.8,2.9
			c0.9,0,1.8-0.3,2.4-1l0.4,0.5c-0.7,0.8-1.6,1.2-2.8,1.2C124,396.2,122.5,394.6,122.5,392.4z M125.9,389.2c-1.7,0-2.6,1.5-2.6,2.8
			h5.3C128.6,390.8,127.8,389.2,125.9,389.2z"/>
		<path class="st2" d="M136.3,396v-4.9c0-1.4-0.7-1.8-1.8-1.8c-0.9,0-1.9,0.6-2.4,1.2v5.5h-0.8v-7.2h0.8v1.1
			c0.5-0.6,1.6-1.3,2.6-1.3c1.5,0,2.3,0.7,2.3,2.4v5.1H136.3z"/>
		<path class="st2" d="M144.8,396v-1.2c-0.5,0.8-1.4,1.3-2.5,1.3c-1.9,0-3.2-1.5-3.2-3.8c0-2.3,1.3-3.8,3.2-3.8c1,0,2,0.5,2.5,1.3
			V386h0.8v10H144.8z M144.8,394.2v-3.6c-0.4-0.7-1.4-1.3-2.4-1.3c-1.6,0-2.5,1.3-2.5,3.1s0.9,3.1,2.5,3.1
			C143.5,395.5,144.4,394.9,144.8,394.2z"/>
		<path class="st2" d="M152.7,396v-0.9c-0.6,0.7-1.5,1-2.5,1c-1.2,0-2.5-0.9-2.5-2.4c0-1.6,1.3-2.4,2.5-2.4c1,0,1.8,0.3,2.5,1v-1.5
			c0-1.1-0.9-1.7-1.9-1.7c-0.9,0-1.6,0.3-2.3,1.1l-0.4-0.5c0.8-0.8,1.6-1.2,2.8-1.2c1.5,0,2.6,0.7,2.6,2.3v5.1H152.7z M152.7,394.6
			V393c-0.5-0.7-1.3-1-2.2-1c-1.2,0-2,0.8-2,1.8c0,1,0.8,1.8,2,1.8C151.3,395.6,152.2,395.2,152.7,394.6z"/>
		<path class="st2" d="M156,394.6v-5.2h-1.2v-0.7h1.2v-2h0.8v2h1.5v0.7h-1.5v5c0,0.6,0.2,1,0.7,1c0.3,0,0.6-0.2,0.8-0.3l0.3,0.6
			c-0.3,0.3-0.6,0.4-1.2,0.4C156.5,396.2,156,395.6,156,394.6z"/>
		<path class="st2" d="M159.8,387c0-0.3,0.3-0.6,0.6-0.6c0.3,0,0.6,0.3,0.6,0.6s-0.3,0.6-0.6,0.6C160.1,387.6,159.8,387.3,159.8,387
			z M160,396v-7.2h0.8v7.2H160z"/>
		<path class="st2" d="M162.8,392.4c0-2.1,1.4-3.8,3.5-3.8c2.1,0,3.5,1.7,3.5,3.8s-1.3,3.8-3.5,3.8
			C164.2,396.2,162.8,394.5,162.8,392.4z M168.9,392.4c0-1.6-0.9-3.1-2.7-3.1c-1.7,0-2.6,1.5-2.6,3.1c0,1.6,1,3.1,2.6,3.1
			C168,395.5,168.9,394,168.9,392.4z"/>
		<path class="st2" d="M176.7,396v-4.9c0-1.4-0.7-1.8-1.8-1.8c-0.9,0-1.9,0.6-2.4,1.2v5.5h-0.8v-7.2h0.8v1.1
			c0.5-0.6,1.6-1.3,2.6-1.3c1.5,0,2.3,0.7,2.3,2.4v5.1H176.7z"/>
	</g>
</g>
<g>
	<g>
		<rect x="63.2" y="500" class="st1" width="113" height="35.9"/>
	</g>
	<g class="st3">
		<path class="st2" d="M93.6,510v-10h4.1c1.7,0,2.8,1,2.8,2.5c0,1.3-0.9,2.1-1.8,2.3c1.1,0.2,1.9,1.3,1.9,2.5c0,1.7-1.1,2.7-2.9,2.7
			H93.6z M99.5,502.6c0-1-0.7-1.9-2-1.9h-3.1v3.7h3.1C98.9,504.5,99.5,503.6,99.5,502.6z M99.7,507.2c0-1-0.7-2-2.1-2h-3.2v4h3.2
			C98.9,509.2,99.7,508.4,99.7,507.2z"/>
		<path class="st2" d="M102.5,501c0-0.3,0.3-0.6,0.6-0.6c0.3,0,0.6,0.3,0.6,0.6s-0.3,0.6-0.6,0.6C102.8,501.6,102.5,501.3,102.5,501
			z M102.8,510v-7.2h0.8v7.2H102.8z"/>
		<path class="st2" d="M106,511.8l0.4-0.6c0.6,0.8,1.3,1,2.4,1c1.3,0,2.5-0.7,2.5-2.3v-1.2c-0.5,0.8-1.4,1.4-2.5,1.4
			c-1.9,0-3.2-1.5-3.2-3.8c0-2.3,1.3-3.8,3.2-3.8c1,0,1.9,0.5,2.5,1.3v-1.2h0.8v7.2c0,2.2-1.5,3-3.3,3
			C107.6,512.9,106.8,512.7,106,511.8z M111.3,508.1v-3.5c-0.4-0.7-1.4-1.3-2.4-1.3c-1.6,0-2.5,1.3-2.5,3.1s0.9,3.1,2.5,3.1
			C109.9,509.4,110.9,508.8,111.3,508.1z"/>
		<path class="st2" d="M118.4,510v-10h3.2c3.1,0,5.1,2.3,5.1,5c0,2.8-1.9,5-5.1,5H118.4z M125.8,505c0-2.3-1.5-4.2-4.2-4.2h-2.3v8.4
			h2.3C124.3,509.2,125.8,507.3,125.8,505z"/>
		<path class="st2" d="M133.4,510v-0.9c-0.6,0.7-1.5,1-2.5,1c-1.2,0-2.5-0.9-2.5-2.4c0-1.6,1.3-2.4,2.5-2.4c1,0,1.8,0.3,2.5,1v-1.5
			c0-1.1-0.9-1.7-1.9-1.7c-0.9,0-1.6,0.3-2.3,1.1l-0.4-0.5c0.8-0.8,1.6-1.2,2.8-1.2c1.5,0,2.6,0.7,2.6,2.3v5.1H133.4z M133.4,508.5
			V507c-0.5-0.7-1.3-1-2.2-1c-1.2,0-2,0.8-2,1.8c0,1,0.8,1.8,2,1.8C132.1,509.5,132.9,509.2,133.4,508.5z"/>
		<path class="st2" d="M136.7,508.6v-5.2h-1.2v-0.7h1.2v-2h0.8v2h1.5v0.7h-1.5v5c0,0.6,0.2,1,0.8,1c0.3,0,0.6-0.2,0.8-0.3l0.3,0.6
			c-0.3,0.3-0.6,0.4-1.2,0.4C137.2,510.2,136.7,509.6,136.7,508.6z"/>
		<path class="st2" d="M145.3,510v-0.9c-0.6,0.7-1.5,1-2.5,1c-1.2,0-2.5-0.9-2.5-2.4c0-1.6,1.3-2.4,2.5-2.4c1,0,1.8,0.3,2.5,1v-1.5
			c0-1.1-0.9-1.7-1.9-1.7c-0.9,0-1.6,0.3-2.3,1.1l-0.4-0.5c0.8-0.8,1.6-1.2,2.8-1.2c1.5,0,2.6,0.7,2.6,2.3v5.1H145.3z M145.3,508.5
			V507c-0.5-0.7-1.3-1-2.2-1c-1.2,0-2,0.8-2,1.8c0,1,0.8,1.8,2,1.8C144,509.5,144.8,509.2,145.3,508.5z"/>
	</g>
	<g class="st3">
		<path class="st2" d="M99.5,522l-1-2.5h-5.3l-1,2.5h-1l4.1-10h1.1l4.1,10H99.5z M95.9,512.9l-2.4,5.8h4.7L95.9,512.9z"/>
		<path class="st2" d="M106.8,522v-4.9c0-1.4-0.7-1.8-1.8-1.8c-0.9,0-1.9,0.6-2.4,1.2v5.5h-0.8v-7.2h0.8v1.1
			c0.5-0.6,1.6-1.3,2.6-1.3c1.5,0,2.3,0.7,2.3,2.4v5.1H106.8z"/>
		<path class="st2" d="M114.6,522v-0.9c-0.6,0.7-1.5,1-2.5,1c-1.2,0-2.5-0.9-2.5-2.4c0-1.6,1.3-2.4,2.5-2.4c1,0,1.8,0.3,2.5,1v-1.5
			c0-1.1-0.9-1.7-1.9-1.7c-0.9,0-1.6,0.3-2.3,1.1l-0.4-0.5c0.8-0.8,1.6-1.2,2.8-1.2c1.5,0,2.6,0.7,2.6,2.3v5.1H114.6z M114.6,520.5
			V519c-0.5-0.7-1.3-1-2.2-1c-1.2,0-2,0.8-2,1.8c0,1,0.8,1.8,2,1.8C113.3,521.5,114.1,521.2,114.6,520.5z"/>
		<path class="st2" d="M117.8,522v-10h0.8v10H117.8z"/>
		<path class="st2" d="M120.7,524.1c0.2,0.1,0.4,0.1,0.6,0.1c0.5,0,0.8-0.2,1.1-0.9l0.6-1.3l-3.1-7.3h0.9l2.6,6.3l2.6-6.3h0.9
			l-3.8,8.8c-0.4,0.9-1,1.3-1.8,1.3c-0.3,0-0.6,0-0.8-0.1L120.7,524.1z"/>
		<path class="st2" d="M128.4,520.6v-5.2h-1.2v-0.7h1.2v-2h0.8v2h1.5v0.7h-1.5v5c0,0.6,0.2,1,0.8,1c0.3,0,0.6-0.2,0.8-0.3l0.3,0.6
			c-0.3,0.3-0.6,0.4-1.2,0.4C128.9,522.2,128.4,521.6,128.4,520.6z"/>
		<path class="st2" d="M132.2,513c0-0.3,0.3-0.6,0.6-0.6c0.3,0,0.6,0.3,0.6,0.6s-0.3,0.6-0.6,0.6C132.5,513.6,132.2,513.3,132.2,513
			z M132.4,522v-7.2h0.8v7.2H132.4z"/>
		<path class="st2" d="M135.2,518.3c0-2.1,1.4-3.8,3.5-3.8c1.3,0,2,0.5,2.6,1.2l-0.5,0.5c-0.5-0.7-1.2-1-2-1c-1.7,0-2.7,1.3-2.7,3.1
			s1,3.1,2.7,3.1c0.8,0,1.5-0.3,2-1l0.5,0.5c-0.6,0.8-1.3,1.2-2.6,1.2C136.6,522.2,135.2,520.5,135.2,518.3z"/>
		<path class="st2" d="M142.4,521l0.5-0.6c0.5,0.6,1.3,1.1,2.3,1.1c1.2,0,1.9-0.6,1.9-1.5c0-2-4.6-0.9-4.6-3.5c0-1.1,0.9-2,2.6-2
			c1.2,0,2.1,0.5,2.6,1.1l-0.4,0.6c-0.4-0.6-1.2-1-2.2-1c-1.1,0-1.8,0.6-1.8,1.3c0,1.8,4.6,0.7,4.6,3.5c0,1.2-0.9,2.1-2.7,2.1
			C144,522.2,143.1,521.8,142.4,521z"/>
	</g>
</g>
<g>
	<path class="st2" d="M137.6,453.6c0,2.8-8,5.1-17.9,5.1s-17.9-2.3-17.9-5.1c0-2.8,8-5.1,17.9-5.1S137.6,450.8,137.6,453.6"/>
	<path class="st2" d="M119.7,461.3c-1.6,0-12.8-0.1-17.9-3.6v6.1c0,2.8,8,5.1,17.9,5.1s17.9-2.3,17.9-5.1v-6.1
		C132.5,461.1,121.3,461.3,119.7,461.3"/>
	<path class="st2" d="M119.7,471.5c-1.6,0-12.8-0.1-17.9-3.6v6.1c0,2.8,8,5.1,17.9,5.1s17.9-2.3,17.9-5.1v-6.1
		C132.5,471.4,121.3,471.5,119.7,471.5"/>
	<path class="st2" d="M119.7,481.7c-1.6,0-12.8-0.1-17.9-3.6v6.1c0,2.8,8,5.1,17.9,5.1s17.9-2.3,17.9-5.1v-6.1
		C132.5,481.6,121.3,481.7,119.7,481.7"/>
</g>
<g>
	<g>
		<rect x="201.5" y="504.8" class="st1" width="112.7" height="35.2"/>
	</g>
	<g class="st3">
		<path class="st2" d="M213.4,513.4l0.6-0.6c0.6,0.7,1.7,1.5,3.1,1.5c2,0,2.6-1.1,2.6-2c0-2.9-6-1.4-6-4.9c0-1.6,1.5-2.7,3.3-2.7
			c1.5,0,2.6,0.5,3.4,1.4l-0.6,0.6c-0.7-0.9-1.7-1.3-2.9-1.3c-1.3,0-2.3,0.8-2.3,1.8c0,2.6,6,1.2,6,4.9c0,1.3-0.9,2.8-3.6,2.8
			C215.5,514.9,214.2,514.3,213.4,513.4z"/>
		<path class="st2" d="M222.3,511.1c0-2.1,1.5-3.8,3.5-3.8c2.2,0,3.4,1.7,3.4,3.8v0.2h-6.1c0.1,1.6,1.1,2.9,2.8,2.9
			c0.9,0,1.8-0.3,2.4-1l0.4,0.5c-0.7,0.8-1.6,1.2-2.8,1.2C223.8,514.9,222.3,513.4,222.3,511.1z M225.7,508c-1.7,0-2.6,1.5-2.6,2.8
			h5.3C228.4,509.5,227.6,508,225.7,508z"/>
		<path class="st2" d="M231.2,516.6l0.4-0.6c0.6,0.8,1.3,1,2.4,1c1.3,0,2.5-0.7,2.5-2.3v-1.2c-0.5,0.8-1.4,1.4-2.5,1.4
			c-1.9,0-3.2-1.5-3.2-3.8c0-2.3,1.3-3.8,3.2-3.8c1,0,1.9,0.5,2.5,1.3v-1.2h0.8v7.2c0,2.2-1.5,3-3.3,3
			C232.8,517.7,232.1,517.5,231.2,516.6z M236.5,512.9v-3.5c-0.4-0.7-1.4-1.3-2.4-1.3c-1.6,0-2.5,1.3-2.5,3.1s0.9,3.1,2.5,3.1
			C235.1,514.2,236.1,513.6,236.5,512.9z"/>
		<path class="st2" d="M248.4,514.8v-5.1c0-1-0.4-1.7-1.5-1.7c-0.8,0-1.7,0.6-2.1,1.2v5.5H244v-5.1c0-1-0.4-1.7-1.4-1.7
			c-0.8,0-1.7,0.6-2.1,1.2v5.5h-0.8v-7.2h0.8v1.1c0.3-0.5,1.3-1.3,2.3-1.3c1.1,0,1.7,0.7,1.9,1.4c0.4-0.7,1.4-1.4,2.4-1.4
			c1.3,0,2,0.8,2,2.2v5.2H248.4z"/>
		<path class="st2" d="M251.2,511.1c0-2.1,1.5-3.8,3.5-3.8c2.2,0,3.4,1.7,3.4,3.8v0.2H252c0.1,1.6,1.1,2.9,2.8,2.9
			c0.9,0,1.8-0.3,2.4-1l0.4,0.5c-0.7,0.8-1.6,1.2-2.8,1.2C252.7,514.9,251.2,513.4,251.2,511.1z M254.6,508c-1.7,0-2.6,1.5-2.6,2.8
			h5.3C257.3,509.5,256.4,508,254.6,508z"/>
		<path class="st2" d="M265,514.8v-4.9c0-1.4-0.7-1.8-1.8-1.8c-0.9,0-1.9,0.6-2.4,1.2v5.5h-0.8v-7.2h0.8v1.1
			c0.5-0.6,1.6-1.3,2.6-1.3c1.5,0,2.3,0.7,2.3,2.4v5.1H265z"/>
		<path class="st2" d="M268.3,513.4v-5.2h-1.2v-0.7h1.2v-2h0.8v2h1.5v0.7h-1.5v5c0,0.6,0.2,1,0.8,1c0.3,0,0.6-0.2,0.8-0.3l0.3,0.6
			c-0.3,0.3-0.6,0.4-1.2,0.4C268.8,514.9,268.3,514.4,268.3,513.4z"/>
		<path class="st2" d="M276.9,514.8v-0.9c-0.6,0.7-1.5,1-2.5,1c-1.2,0-2.5-0.9-2.5-2.4c0-1.6,1.3-2.4,2.5-2.4c1,0,1.8,0.3,2.5,1
			v-1.5c0-1.1-0.9-1.7-1.9-1.7c-0.9,0-1.6,0.3-2.3,1.1l-0.4-0.5c0.8-0.8,1.6-1.2,2.8-1.2c1.5,0,2.6,0.7,2.6,2.3v5.1H276.9z
			 M276.9,513.3v-1.6c-0.5-0.7-1.3-1-2.2-1c-1.2,0-2,0.8-2,1.8c0,1,0.8,1.8,2,1.8C275.6,514.3,276.4,514,276.9,513.3z"/>
		<path class="st2" d="M280.3,513.4v-5.2h-1.2v-0.7h1.2v-2h0.8v2h1.5v0.7h-1.5v5c0,0.6,0.2,1,0.8,1c0.3,0,0.6-0.2,0.8-0.3l0.3,0.6
			c-0.3,0.3-0.6,0.4-1.2,0.4C280.7,514.9,280.3,514.4,280.3,513.4z"/>
		<path class="st2" d="M284,505.8c0-0.3,0.3-0.6,0.6-0.6c0.3,0,0.6,0.3,0.6,0.6s-0.3,0.6-0.6,0.6C284.3,506.4,284,506.1,284,505.8z
			 M284.2,514.8v-7.2h0.8v7.2H284.2z"/>
		<path class="st2" d="M287,511.1c0-2.1,1.3-3.8,3.5-3.8c2.1,0,3.5,1.7,3.5,3.8s-1.3,3.8-3.5,3.8C288.4,514.9,287,513.3,287,511.1z
			 M293.2,511.1c0-1.6-0.9-3.1-2.7-3.1c-1.7,0-2.6,1.5-2.6,3.1c0,1.6,1,3.1,2.6,3.1C292.2,514.2,293.2,512.8,293.2,511.1z"/>
		<path class="st2" d="M300.9,514.8v-4.9c0-1.4-0.7-1.8-1.8-1.8c-0.9,0-1.9,0.6-2.4,1.2v5.5H296v-7.2h0.8v1.1
			c0.5-0.6,1.6-1.3,2.6-1.3c1.5,0,2.3,0.7,2.3,2.4v5.1H300.9z"/>
	</g>
</g>
<path class="st2" d="M264.9,462.6c0,0-13.1,0-14.1,0l0,0c-1.2,0-2.2,1-2.2,2.2v13.5c0,1.2,1,2.2,2.2,2.2l0,0c0.7,0,1.3-0.3,1.7-0.8
	l0.9,13.2c0.1,1.2,1,2.1,2.2,2.1h4.5c1.2,0,2.2-0.9,2.2-2.1l0.8-13.2c0.4,0.5,1,0.9,1.7,0.9l0,0c1.2,0,2.2-1,2.2-2.2v-13.5
	C267.1,463.6,266.1,462.6,264.9,462.6L264.9,462.6z"/>
<path class="st2" d="M263.9,455.1c0,3.3-2.7,6-6,6s-6-2.7-6-6s2.7-6,6-6C261.2,449.1,263.9,451.8,263.9,455.1L263.9,455.1z"/>
<g>
	<path class="st2" d="M249.2,461.9c0,0-8.4,0-9,0l0,0c-0.8,0-1.4,0.6-1.4,1.4v8.6c0,0.8,0.6,1.4,1.4,1.4l0,0c0.4,0,0.8-0.2,1.1-0.5
		l0.5,8.4c0,0.7,0.7,1.3,1.4,1.3h2.8c0.8,0,1.4-0.6,1.4-1.3l0.5-8.4c0.2,0.3,0.6,0.5,1.1,0.5l0,0c0.8,0,1.4-0.6,1.4-1.4v-8.6
		C250.6,462.5,250,461.9,249.2,461.9L249.2,461.9z"/>
	<path class="st2" d="M248.5,457.1c0,2.1-1.7,3.8-3.8,3.8s-3.8-1.7-3.8-3.8c0-2.1,1.7-3.8,3.8-3.8S248.5,455,248.5,457.1
		L248.5,457.1z"/>
</g>
<g>
	<path class="st2" d="M262.4,461.9c0,0-8.4,0-9,0l0,0c-0.8,0-1.4,0.6-1.4,1.4v8.6c0,0.8,0.6,1.4,1.4,1.4l0,0c0.4,0,0.8-0.2,1.1-0.5
		l0.6,8.4c0,0.7,0.7,1.3,1.4,1.3h2.8c0.8,0,1.4-0.6,1.4-1.3l0.6-8.4c0.2,0.3,0.6,0.5,1.1,0.5l0,0c0.8,0,1.4-0.6,1.4-1.4v-8.6
		C263.7,462.5,263.1,461.9,262.4,461.9L262.4,461.9z"/>
	<path class="st2" d="M261.7,457.1c0,2.1-1.7,3.8-3.8,3.8c-2.1,0-3.8-1.7-3.8-3.8c0-2.1,1.7-3.8,3.8-3.8S261.7,455,261.7,457.1
		L261.7,457.1z"/>
</g>
<g>
	<g>
		<rect x="133.9" y="632.2" class="st1" width="109" height="36.9"/>
	</g>
	<g class="st3">
		<path class="st2" d="M157.6,642.2v-10h3.7c1.9,0,3,1.4,3,2.9c0,1.6-1.1,2.9-3,2.9h-2.9v4.2H157.6z M163.5,635.1
			c0-1.3-0.9-2.1-2.2-2.1h-2.8v4.3h2.8C162.6,637.3,163.5,636.4,163.5,635.1z"/>
		<path class="st2" d="M166.1,642.2v-7.2h0.8v1.2c0.6-0.8,1.4-1.4,2.4-1.4v0.9c-0.1,0-0.2,0-0.4,0c-0.7,0-1.7,0.7-2.1,1.3v5.3H166.1
			z"/>
		<path class="st2" d="M170.5,638.6c0-2.1,1.5-3.8,3.5-3.8c2.2,0,3.4,1.7,3.4,3.8v0.2h-6.1c0.1,1.6,1.1,2.9,2.8,2.9
			c0.9,0,1.8-0.3,2.4-1l0.4,0.5c-0.7,0.8-1.6,1.2-2.8,1.2C172,642.4,170.5,640.8,170.5,638.6z M174,635.4c-1.7,0-2.6,1.5-2.6,2.8
			h5.3C176.6,637,175.8,635.4,174,635.4z"/>
		<path class="st2" d="M184.7,642.2V641c-0.5,0.8-1.4,1.3-2.5,1.3c-1.9,0-3.2-1.5-3.2-3.8c0-2.3,1.3-3.8,3.2-3.8c1,0,2,0.5,2.5,1.3
			v-3.9h0.8v10H184.7z M184.7,640.4v-3.6c-0.4-0.7-1.4-1.3-2.4-1.3c-1.6,0-2.5,1.3-2.5,3.1s0.9,3.1,2.5,3.1
			C183.4,641.7,184.3,641.1,184.7,640.4z"/>
		<path class="st2" d="M187.8,633.2c0-0.3,0.3-0.6,0.6-0.6c0.3,0,0.6,0.3,0.6,0.6s-0.3,0.6-0.6,0.6
			C188,633.8,187.8,633.5,187.8,633.2z M188,642.2v-7.2h0.8v7.2H188z"/>
		<path class="st2" d="M190.8,638.6c0-2.1,1.4-3.8,3.5-3.8c1.3,0,2,0.5,2.6,1.2l-0.5,0.5c-0.5-0.7-1.2-1-2-1c-1.7,0-2.7,1.3-2.7,3.1
			s1,3.1,2.7,3.1c0.8,0,1.5-0.3,2-1l0.5,0.5c-0.6,0.8-1.3,1.2-2.6,1.2C192.2,642.4,190.8,640.7,190.8,638.6z"/>
		<path class="st2" d="M198.7,640.8v-5.2h-1.2v-0.7h1.2v-2h0.8v2h1.5v0.7h-1.5v5c0,0.6,0.2,1,0.8,1c0.3,0,0.6-0.2,0.8-0.3l0.3,0.6
			c-0.3,0.3-0.6,0.4-1.2,0.4C199.2,642.4,198.7,641.8,198.7,640.8z"/>
		<path class="st2" d="M202.5,633.2c0-0.3,0.3-0.6,0.6-0.6c0.3,0,0.6,0.3,0.6,0.6s-0.3,0.6-0.6,0.6
			C202.8,633.8,202.5,633.5,202.5,633.2z M202.7,642.2v-7.2h0.8v7.2H202.7z"/>
		<path class="st2" d="M207.9,642.2l-3.1-7.2h0.9l2.6,6.3l2.6-6.3h0.9l-3.1,7.2H207.9z"/>
		<path class="st2" d="M212.7,638.6c0-2.1,1.5-3.8,3.5-3.8c2.2,0,3.4,1.7,3.4,3.8v0.2h-6.1c0.1,1.6,1.1,2.9,2.8,2.9
			c0.9,0,1.8-0.3,2.4-1l0.4,0.5c-0.7,0.8-1.6,1.2-2.8,1.2C214.2,642.4,212.7,640.8,212.7,638.6z M216.2,635.4
			c-1.7,0-2.6,1.5-2.6,2.8h5.3C218.8,637,218,635.4,216.2,635.4z"/>
	</g>
	<g class="st3">
		<path class="st2" d="M165.5,652.8l0.6-0.6c0.6,0.7,1.7,1.5,3.1,1.5c2,0,2.6-1.1,2.6-2c0-2.9-6-1.4-6-4.9c0-1.6,1.5-2.7,3.3-2.7
			c1.5,0,2.6,0.5,3.4,1.4l-0.6,0.6c-0.7-0.9-1.7-1.3-2.9-1.3c-1.3,0-2.3,0.8-2.3,1.8c0,2.6,6,1.2,6,4.9c0,1.3-0.9,2.8-3.6,2.8
			C167.5,654.4,166.2,653.7,165.5,652.8z"/>
		<path class="st2" d="M174.3,656.3c0.2,0.1,0.4,0.1,0.6,0.1c0.5,0,0.8-0.2,1.1-0.9l0.6-1.3l-3.1-7.3h0.9l2.6,6.3l2.6-6.3h0.9
			l-3.8,8.8c-0.4,0.9-1,1.3-1.8,1.3c-0.3,0-0.6,0-0.8-0.1L174.3,656.3z"/>
		<path class="st2" d="M181.2,653.2l0.5-0.6c0.5,0.6,1.3,1.1,2.3,1.1c1.2,0,1.9-0.6,1.9-1.5c0-2-4.6-0.9-4.6-3.5c0-1.1,0.9-2,2.6-2
			c1.2,0,2.1,0.5,2.6,1.1l-0.4,0.6c-0.4-0.6-1.2-1-2.2-1c-1.1,0-1.8,0.6-1.8,1.3c0,1.8,4.6,0.7,4.6,3.5c0,1.2-0.9,2.1-2.7,2.1
			C182.9,654.4,182,654,181.2,653.2z"/>
		<path class="st2" d="M188.9,652.8v-5.2h-1.2v-0.7h1.2v-2h0.8v2h1.5v0.7h-1.5v5c0,0.6,0.2,1,0.8,1c0.3,0,0.6-0.2,0.8-0.3l0.3,0.6
			c-0.3,0.3-0.6,0.4-1.2,0.4C189.4,654.4,188.9,653.8,188.9,652.8z"/>
		<path class="st2" d="M192.5,650.6c0-2.1,1.5-3.8,3.5-3.8c2.2,0,3.4,1.7,3.4,3.8v0.2h-6.1c0.1,1.6,1.1,2.9,2.8,2.9
			c0.9,0,1.8-0.3,2.4-1l0.4,0.5c-0.7,0.8-1.6,1.2-2.8,1.2C194,654.4,192.5,652.8,192.5,650.6z M195.9,647.4c-1.7,0-2.6,1.5-2.6,2.8
			h5.3C198.6,649,197.7,647.4,195.9,647.4z"/>
		<path class="st2" d="M210,654.2v-5.1c0-1-0.4-1.7-1.5-1.7c-0.8,0-1.7,0.6-2.1,1.2v5.5h-0.8v-5.1c0-1-0.4-1.7-1.4-1.7
			c-0.8,0-1.7,0.6-2.1,1.2v5.5h-0.8v-7.2h0.8v1.1c0.3-0.5,1.3-1.3,2.3-1.3c1.1,0,1.7,0.7,1.9,1.4c0.4-0.7,1.4-1.4,2.4-1.4
			c1.3,0,2,0.8,2,2.2v5.2H210z"/>
	</g>
</g>
<g>
	<path class="st4" d="M157.4,594.2c0,1.9-1.5,3.4-3.4,3.4s-3.4-1.5-3.4-3.4c0-1.9,1.5-3.4,3.4-3.4
		C155.8,590.8,157.4,592.3,157.4,594.2z"/>
	<path class="st4" d="M175.9,582.9c0,1.9-1.5,3.4-3.4,3.4s-3.4-1.5-3.4-3.4s1.5-3.4,3.4-3.4C174.4,579.6,175.9,581.1,175.9,582.9z"
		/>
	<path class="st4" d="M186.9,594.2c0,1.9-1.5,3.4-3.4,3.4s-3.4-1.5-3.4-3.4c0-1.9,1.5-3.4,3.4-3.4S186.9,592.3,186.9,594.2z"/>
	<path class="st4" d="M197.8,582.9c0,1.9-1.5,3.4-3.4,3.4s-3.4-1.5-3.4-3.4s1.5-3.4,3.4-3.4C196.3,579.6,197.8,581.1,197.8,582.9z"
		/>
	<path class="st4" d="M211.6,596c0,1.8-1.5,3.4-3.4,3.4s-3.4-1.5-3.4-3.4c0-1.9,1.5-3.4,3.4-3.4S211.6,594.1,211.6,596z"/>
	<path class="st4" d="M218,597.3c0,5.3-4.3,9.7-9.7,9.7s-9.7-4.3-9.7-9.7c0-5.4,4.3-9.7,9.7-9.7C213.6,587.6,218,591.9,218,597.3z"
		/>
	<path class="st4" d="M219.7,582.9c0,1.9-1.5,3.4-3.4,3.4s-3.4-1.5-3.4-3.4s1.5-3.4,3.4-3.4C218.2,579.6,219.7,581.1,219.7,582.9z"
		/>
	<path class="st2" d="M226,621c0.3,0.4,0,1.1-0.5,1.4l0,0c-0.6,0.4-1.2,0.3-1.5-0.1l-10.6-16.5c-0.3-0.4,0-1.1,0.5-1.4l0,0
		c0.6-0.4,1.2-0.3,1.5,0.1L226,621z"/>
	<line class="st5" x1="156.8" y1="593.6" x2="170.1" y2="584"/>
	<line class="st5" x1="174.2" y1="585.4" x2="181.1" y2="592.6"/>
	<line class="st5" x1="186.2" y1="592.8" x2="192.7" y2="585.4"/>
	<line class="st5" x1="196.3" y1="585.2" x2="205.1" y2="593.9"/>
	<line class="st5" x1="209.5" y1="593.2" x2="214.8" y2="585.3"/>
</g>
<g>
	<g>
		<rect x="203" y="375" class="st1" width="109.3" height="30"/>
	</g>
	<g class="st3">
		<path class="st2" d="M225.5,380c0-3.1,2.2-5.2,5.1-5.2c1.6,0,2.8,0.7,3.6,1.8l-0.7,0.5c-0.6-0.9-1.7-1.5-2.9-1.5
			c-2.3,0-4.2,1.8-4.2,4.4c0,2.6,1.8,4.4,4.2,4.4c1.2,0,2.3-0.6,2.9-1.5l0.7,0.5c-0.9,1.1-2.1,1.8-3.7,1.8
			C227.8,385.2,225.5,383.1,225.5,380z"/>
		<path class="st2" d="M240.5,385v-0.9c-0.6,0.7-1.5,1-2.5,1c-1.2,0-2.5-0.9-2.5-2.4c0-1.6,1.3-2.4,2.5-2.4c1,0,1.8,0.3,2.5,1v-1.5
			c0-1.1-0.9-1.7-1.9-1.7c-0.9,0-1.6,0.3-2.3,1.1l-0.4-0.5c0.8-0.8,1.6-1.2,2.8-1.2c1.5,0,2.6,0.7,2.6,2.3v5.1H240.5z M240.5,383.6
			V382c-0.5-0.7-1.3-1-2.2-1c-1.2,0-2,0.8-2,1.8c0,1,0.8,1.8,2,1.8C239.2,384.6,240,384.2,240.5,383.6z"/>
		<path class="st2" d="M252.4,385v-5.1c0-1-0.4-1.7-1.5-1.7c-0.8,0-1.7,0.6-2.1,1.2v5.5H248v-5.1c0-1-0.4-1.7-1.4-1.7
			c-0.8,0-1.7,0.6-2.1,1.2v5.5h-0.8v-7.2h0.8v1.1c0.3-0.5,1.3-1.3,2.3-1.3c1.1,0,1.7,0.7,1.9,1.4c0.4-0.7,1.4-1.4,2.4-1.4
			c1.3,0,2,0.8,2,2.2v5.2H252.4z"/>
		<path class="st2" d="M256.4,383.8v3.9h-0.8v-10h0.8v1.1c0.5-0.7,1.4-1.3,2.5-1.3c1.9,0,3.2,1.5,3.2,3.8c0,2.3-1.3,3.8-3.2,3.8
			C257.9,385.2,256.9,384.6,256.4,383.8z M261.3,381.4c0-1.8-0.9-3.1-2.5-3.1c-1,0-2,0.6-2.4,1.3v3.6c0.4,0.7,1.4,1.3,2.4,1.3
			C260.4,384.5,261.3,383.1,261.3,381.4z"/>
		<path class="st2" d="M268.7,385v-0.9c-0.6,0.7-1.5,1-2.5,1c-1.2,0-2.5-0.9-2.5-2.4c0-1.6,1.3-2.4,2.5-2.4c1,0,1.8,0.3,2.5,1v-1.5
			c0-1.1-0.9-1.7-1.9-1.7c-0.9,0-1.6,0.3-2.3,1.1l-0.4-0.5c0.8-0.8,1.6-1.2,2.8-1.2c1.5,0,2.6,0.7,2.6,2.3v5.1H268.7z M268.7,383.6
			V382c-0.5-0.7-1.3-1-2.2-1c-1.2,0-2,0.8-2,1.8c0,1,0.8,1.8,2,1.8C267.4,384.6,268.2,384.2,268.7,383.6z"/>
		<path class="st2" d="M271.7,376c0-0.3,0.3-0.6,0.6-0.6c0.3,0,0.6,0.3,0.6,0.6s-0.3,0.6-0.6,0.6C272,376.6,271.7,376.3,271.7,376z
			 M271.9,385v-7.2h0.8v7.2H271.9z"/>
		<path class="st2" d="M275.1,386.8l0.4-0.6c0.6,0.8,1.3,1,2.4,1c1.3,0,2.5-0.7,2.5-2.3v-1.2c-0.5,0.8-1.4,1.4-2.5,1.4
			c-1.9,0-3.2-1.5-3.2-3.8c0-2.3,1.3-3.8,3.2-3.8c1,0,1.9,0.5,2.5,1.3v-1.2h0.8v7.2c0,2.2-1.5,3-3.3,3
			C276.8,387.9,276,387.7,275.1,386.8z M280.4,383.1v-3.5c-0.4-0.7-1.4-1.3-2.4-1.3c-1.6,0-2.5,1.3-2.5,3.1s0.9,3.1,2.5,3.1
			C279.1,384.4,280,383.8,280.4,383.1z"/>
		<path class="st2" d="M288.5,385v-4.9c0-1.4-0.7-1.8-1.8-1.8c-0.9,0-1.9,0.6-2.4,1.2v5.5h-0.8v-7.2h0.8v1.1
			c0.5-0.6,1.6-1.3,2.6-1.3c1.5,0,2.3,0.7,2.3,2.4v5.1H288.5z"/>
	</g>
	<g class="st3">
		<path class="st2" d="M237.2,398.2l-1-2.5H231l-1,2.5h-1l4.1-10h1.1l4.1,10H237.2z M233.6,389.1l-2.4,5.8h4.7L233.6,389.1z"/>
		<path class="st2" d="M244.6,398.2v-4.9c0-1.4-0.7-1.8-1.8-1.8c-0.9,0-1.9,0.6-2.4,1.2v5.5h-0.8v-7.2h0.8v1.1
			c0.5-0.6,1.6-1.3,2.6-1.3c1.5,0,2.3,0.7,2.3,2.4v5.1H244.6z"/>
		<path class="st2" d="M252.4,398.2v-0.9c-0.6,0.7-1.5,1-2.5,1c-1.2,0-2.5-0.9-2.5-2.4c0-1.6,1.3-2.4,2.5-2.4c1,0,1.8,0.3,2.5,1
			v-1.5c0-1.1-0.9-1.7-1.9-1.7c-0.9,0-1.6,0.3-2.3,1.1l-0.4-0.5c0.8-0.8,1.6-1.2,2.8-1.2c1.5,0,2.6,0.7,2.6,2.3v5.1H252.4z
			 M252.4,396.8v-1.6c-0.5-0.7-1.3-1-2.2-1c-1.2,0-2,0.8-2,1.8c0,1,0.8,1.8,2,1.8C251.1,397.8,251.9,397.4,252.4,396.8z"/>
		<path class="st2" d="M255.6,398.2v-10h0.8v10H255.6z"/>
		<path class="st2" d="M258.4,400.3c0.2,0.1,0.5,0.1,0.6,0.1c0.5,0,0.8-0.2,1.1-0.9l0.6-1.3l-3.1-7.3h0.9l2.6,6.3l2.6-6.3h0.9
			l-3.8,8.8c-0.4,0.9-1,1.4-1.8,1.4c-0.3,0-0.6,0-0.8-0.1L258.4,400.3z"/>
		<path class="st2" d="M266.2,396.8v-5.2H265v-0.7h1.2v-2h0.8v2h1.5v0.7H267v5c0,0.6,0.2,1,0.8,1c0.3,0,0.6-0.2,0.8-0.3l0.3,0.6
			c-0.3,0.3-0.6,0.4-1.2,0.4C266.6,398.4,266.2,397.8,266.2,396.8z"/>
		<path class="st2" d="M269.9,389.2c0-0.3,0.3-0.6,0.6-0.6c0.3,0,0.6,0.3,0.6,0.6s-0.3,0.6-0.6,0.6
			C270.2,389.8,269.9,389.5,269.9,389.2z M270.1,398.2v-7.2h0.8v7.2H270.1z"/>
		<path class="st2" d="M272.9,394.6c0-2.1,1.4-3.8,3.5-3.8c1.3,0,2,0.5,2.6,1.2l-0.5,0.5c-0.5-0.7-1.2-1-2-1c-1.7,0-2.7,1.3-2.7,3.1
			s1,3.1,2.7,3.1c0.8,0,1.5-0.3,2-1l0.5,0.5c-0.6,0.8-1.3,1.2-2.6,1.2C274.3,398.4,272.9,396.7,272.9,394.6z"/>
		<path class="st2" d="M280.1,397.2l0.5-0.6c0.5,0.6,1.3,1.1,2.3,1.1c1.2,0,1.9-0.6,1.9-1.5c0-2-4.6-0.9-4.6-3.5c0-1.1,0.9-2,2.6-2
			c1.2,0,2.1,0.5,2.6,1.1l-0.4,0.6c-0.4-0.6-1.2-1-2.2-1c-1.1,0-1.8,0.6-1.8,1.3c0,1.8,4.6,0.7,4.6,3.5c0,1.2-0.9,2.1-2.7,2.1
			C281.7,398.4,280.8,398,280.1,397.2z"/>
	</g>
</g>
<g>
	<path class="st2" d="M283.2,346.1l-4.3-4.3c-0.5-0.5-1.1-0.7-1.7-0.8l-1.5-1.5c2.2-3.5,1.8-8.1-1.3-11.1c-3.5-3.5-9.2-3.5-12.7,0
		s-3.5,9.2,0,12.7c3,3,7.7,3.4,11.1,1.3l1.5,1.5c0,0.6,0.3,1.2,0.8,1.7l4.3,4.3c1,1,2.7,1,3.8,0
		C284.2,348.8,284.2,347.1,283.2,346.1L283.2,346.1z M272.5,339.2c-2.5,2.5-6.5,2.5-8.9,0c-2.5-2.5-2.5-6.5,0-8.9
		c2.5-2.5,6.5-2.5,8.9,0C275,332.7,275,336.7,272.5,339.2L272.5,339.2z"/>
	<path class="st2" d="M268.2,330.9c-2.2,0-4,1.8-4,4c0,0.2,0,0.4,0,0.6l-1,0.6c0.2,0.8,0.7,1.6,1.3,2.2l0.1,0.1l0.9-0.5
		c0.7,0.6,1.6,1,2.7,1c2.2,0,4-1.8,4-4C272.2,332.7,270.4,330.9,268.2,330.9L268.2,330.9z M268.2,336.2c-0.7,0-1.3-0.6-1.3-1.3
		c0-0.7,0.6-1.3,1.3-1.3c0.7,0,1.3,0.6,1.3,1.3C269.5,335.6,268.9,336.2,268.2,336.2L268.2,336.2z"/>
	<path class="st2" d="M256,343.7c0-0.1,0-0.2,0-0.3l4.1-2.4c-0.6-0.7-1-1.5-1.4-2.3l-3.8,2.2c-0.7-0.8-1.7-1.2-2.9-1.2
		c-1.4,0-2.7,0.7-3.4,1.8l-9.3-3.6c0-0.1,0-0.2,0-0.4c0-2.2-1.8-4-4-4s-4,1.8-4,4c0,2.2,1.8,4,4,4c1.1,0,2.1-0.5,2.8-1.2l9.8,3.9
		c0.3,2,1.9,3.5,4,3.5C254.2,347.7,256,345.9,256,343.7L256,343.7z M235.4,338.8c-0.7,0-1.3-0.6-1.3-1.3s0.6-1.3,1.3-1.3
		s1.3,0.6,1.3,1.3C236.7,338.3,236.1,338.8,235.4,338.8L235.4,338.8z M252,345c-0.7,0-1.3-0.6-1.3-1.3c0-0.7,0.6-1.3,1.3-1.3
		c0.7,0,1.3,0.6,1.3,1.3C253.3,344.4,252.8,345,252,345L252,345z"/>
	<path class="st2" d="M261.6,342.6l-4.1,2.4c-0.3,2.6-2.3,4.6-4.9,4.9v12.4h18.3v-17.8c-0.9,0.3-1.9,0.4-2.8,0.4
		C265.7,344.9,263.5,344.1,261.6,342.6L261.6,342.6z"/>
	<path class="st2" d="M246.8,346.1l-8.3-3.2c-0.9,0.6-2,1-3.1,1c-1,0-1.9-0.3-2.7-0.7v19.2H251v-12.5
		C249,349.5,247.4,348,246.8,346.1L246.8,346.1z"/>
</g>
<path class="st0" d="M315.4,276.5c0,7.4-6,13.4-13.4,13.4H76.5c-7.4,0-13.4-6-13.4-13.4v-85.6c0-7.4,6-13.4,13.4-13.4h225.6
	c7.4,0,13.4,6,13.4,13.4v85.6H315.4z"/>
<g>
	<path class="st2" d="M107,213.2c0,3.1-2.5,5.5-5.5,5.5s-5.5-2.5-5.5-5.5s2.5-5.5,5.5-5.5C104.6,207.6,107,210.1,107,213.2
		L107,213.2z"/>
	<path class="st2" d="M141.5,213.2c0,3.1-2.5,5.5-5.5,5.5c-3.1,0-5.5-2.5-5.5-5.5s2.5-5.5,5.5-5.5
		C139.1,207.6,141.5,210.1,141.5,213.2L141.5,213.2z"/>
	<path class="st2" d="M141.5,242.6c0,3-2.5,5.5-5.5,5.5c-3.1,0-5.5-2.5-5.5-5.5c0-3.1,2.5-5.5,5.5-5.5
		C139.1,237.1,141.5,239.6,141.5,242.6L141.5,242.6z"/>
	<path class="st2" d="M107,242.6c0,3-2.5,5.5-5.5,5.5s-5.5-2.5-5.5-5.5c0-3.1,2.5-5.5,5.5-5.5C104.6,237.1,107,239.6,107,242.6
		L107,242.6z"/>
	<path class="st2" d="M143.5,226.4c0-4-3.4-7.2-7.5-7.2s-7.5,3.2-7.5,7.2v2.6l-4.3,4.6h-10.7l-4.5-4.8v-2.5c0-4-3.3-7.2-7.5-7.2
		c-4.1,0-7.5,3.2-7.5,7.2v4h13.4l3.7,3.9v8.7l-4.3,7.8c-1.3-1.3-3.2-2.1-5.3-2.1c-4.1,0-7.5,3.2-7.5,7.2v4h15v-4
		c0-1.2-0.3-2.2-0.8-3.2l5.2-9.3h10.9l5.1,9.2c-0.5,1-0.9,2.1-0.9,3.3v4h15v-4c0-4-3.4-7.2-7.5-7.2c-2,0-3.8,0.8-5.2,2l-4.8-8.5
		v-7.3l4.1-4.4h13.3L143.5,226.4L143.5,226.4z"/>
</g>
<rect x="147.7" y="228.5" class="st1" width="149" height="36.1"/>
<g class="st3">
	<path class="st2" d="M165.4,234.6v-6.2h0.9v6.2c0,2,1.1,3.3,3,3.3c2,0,3-1.2,3-3.3v-6.2h0.9v6.2c0,2.5-1.3,4-3.9,4
		C166.7,238.6,165.4,237.1,165.4,234.6z"/>
	<path class="st2" d="M180.5,238.5v-4.9c0-1.4-0.7-1.8-1.8-1.8c-0.9,0-1.9,0.6-2.4,1.2v5.5h-0.8v-7.2h0.8v1.1
		c0.5-0.6,1.6-1.3,2.6-1.3c1.5,0,2.3,0.7,2.3,2.4v5.1H180.5z"/>
	<path class="st2" d="M183.5,229.5c0-0.3,0.3-0.6,0.6-0.6c0.3,0,0.6,0.3,0.6,0.6s-0.3,0.6-0.6,0.6
		C183.8,230.1,183.5,229.8,183.5,229.5z M183.7,238.5v-7.2h0.8v7.2H183.7z"/>
	<path class="st2" d="M187.2,238.5v-6.6H186v-0.7h1.2v-0.7c0-1.4,0.8-2.3,2-2.3c0.4,0,0.7,0.1,1,0.2l-0.2,0.6
		c-0.2-0.1-0.4-0.2-0.7-0.2c-0.8,0-1.2,0.6-1.2,1.5v0.7h1.5v0.7H188v6.6H187.2z M190.7,229.5c0-0.3,0.3-0.6,0.6-0.6
		c0.3,0,0.6,0.3,0.6,0.6s-0.3,0.6-0.6,0.6C191,230.1,190.7,229.8,190.7,229.5z M190.9,238.5v-7.2h0.8v7.2H190.9z"/>
	<path class="st2" d="M193.7,234.8c0-2.1,1.5-3.8,3.5-3.8c2.2,0,3.4,1.7,3.4,3.8v0.2h-6.1c0.1,1.6,1.1,2.9,2.8,2.9
		c0.9,0,1.8-0.3,2.4-1l0.4,0.5c-0.7,0.8-1.6,1.2-2.8,1.2C195.2,238.6,193.7,237.1,193.7,234.8z M197.2,231.7c-1.7,0-2.6,1.5-2.6,2.8
		h5.3C199.8,233.2,199,231.7,197.2,231.7z"/>
	<path class="st2" d="M207.9,238.5v-1.2c-0.5,0.8-1.4,1.3-2.5,1.3c-1.9,0-3.2-1.5-3.2-3.8c0-2.3,1.3-3.8,3.2-3.8c1,0,2,0.5,2.5,1.3
		v-3.9h0.8v10H207.9z M207.9,236.6v-3.6c-0.4-0.7-1.4-1.3-2.4-1.3c-1.6,0-2.5,1.3-2.5,3.1s0.9,3.1,2.5,3.1
		C206.6,237.9,207.5,237.3,207.9,236.6z"/>
	<path class="st2" d="M215.1,234.6v-6.2h0.9v6.2c0,2,1.1,3.3,3,3.3s3-1.2,3-3.3v-6.2h0.9v6.2c0,2.5-1.3,4-3.9,4
		C216.4,238.6,215.1,237.1,215.1,234.6z"/>
	<path class="st2" d="M224.7,237.5l0.5-0.6c0.5,0.6,1.3,1.1,2.3,1.1c1.2,0,1.9-0.6,1.9-1.5c0-2-4.6-0.9-4.6-3.5c0-1.1,0.9-2,2.6-2
		c1.2,0,2.1,0.5,2.6,1.1l-0.4,0.6c-0.4-0.6-1.2-1-2.2-1c-1.1,0-1.8,0.6-1.8,1.3c0,1.8,4.6,0.7,4.6,3.5c0,1.2-0.9,2.1-2.7,2.1
		C226.3,238.6,225.4,238.3,224.7,237.5z"/>
	<path class="st2" d="M231.8,234.8c0-2.1,1.5-3.8,3.5-3.8c2.2,0,3.4,1.7,3.4,3.8v0.2h-6.1c0.1,1.6,1.1,2.9,2.8,2.9
		c0.9,0,1.8-0.3,2.4-1l0.4,0.5c-0.7,0.8-1.6,1.2-2.8,1.2C233.3,238.6,231.8,237.1,231.8,234.8z M235.3,231.7c-1.7,0-2.6,1.5-2.6,2.8
		h5.3C237.9,233.2,237.1,231.7,235.3,231.7z"/>
	<path class="st2" d="M240.7,238.5v-7.2h0.8v1.2c0.6-0.8,1.4-1.4,2.4-1.4v0.9c-0.1,0-0.2,0-0.4,0c-0.7,0-1.7,0.7-2.1,1.3v5.3H240.7z
		"/>
	<path class="st2" d="M252.5,238.5l-4.1-10h1l3.6,9l3.6-9h1l-4.1,10H252.5z"/>
	<path class="st2" d="M258.9,229.5c0-0.3,0.3-0.6,0.6-0.6c0.3,0,0.6,0.3,0.6,0.6s-0.3,0.6-0.6,0.6
		C259.1,230.1,258.9,229.8,258.9,229.5z M259.1,238.5v-7.2h0.8v7.2H259.1z"/>
	<path class="st2" d="M261.9,234.8c0-2.1,1.5-3.8,3.5-3.8c2.2,0,3.4,1.7,3.4,3.8v0.2h-6.1c0.1,1.6,1.1,2.9,2.8,2.9
		c0.9,0,1.8-0.3,2.4-1l0.4,0.5c-0.7,0.8-1.6,1.2-2.8,1.2C263.4,238.6,261.9,237.1,261.9,234.8z M265.3,231.7c-1.7,0-2.6,1.5-2.6,2.8
		h5.3C268,233.2,267.2,231.7,265.3,231.7z"/>
	<path class="st2" d="M277,238.5l-2-6.2l-2,6.2h-0.8l-2.4-7.2h0.8l1.9,6.2l2-6.2h0.7l2,6.2l1.9-6.2h0.8l-2.4,7.2H277z"/>
</g>
</svg>
