<?xml version="1.0" encoding="utf-8"?>
<!-- Generator: Adobe Illustrator 19.1.0, SVG Export Plug-In . SVG Version: 6.00 Build 0)  -->
<svg version="1.1" id="Layer_1" xmlns="http://www.w3.org/2000/svg" xmlns:xlink="http://www.w3.org/1999/xlink" x="0px" y="0px"
	 viewBox="-285 -120 388 800" style="enable-background:new -285 -120 388 800;" xml:space="preserve">
<style type="text/css">
	.st0{fill:none;}
	.st1{enable-background:new    ;}
	.st2{fill:#FFFFFF;}
	.st3{fill:none;stroke:#FFFFFF;stroke-width:2;stroke-miterlimit:10;}
</style>
<g>
	<g>
		<rect x="-249.6" y="-90.8" class="st0" width="305.2" height="12.7"/>
	</g>
	<g class="st1">
		<path class="st2" d="M-229.1-84.5c0-3.7,2.4-6.6,6.2-6.6c3.7,0,6.2,2.8,6.2,6.6s-2.5,6.6-6.2,6.6
			C-226.6-77.9-229.1-80.7-229.1-84.5z M-217.9-84.5c0-3.2-2-5.6-5-5.6c-3.1,0-5,2.4-5,5.6s2,5.6,5,5.6S-217.9-81.3-217.9-84.5z"/>
		<path class="st2" d="M-207.9-78.1v-6.2c0-1.8-0.9-2.3-2.2-2.3c-1.2,0-2.4,0.7-3,1.6v6.9h-1v-9.2h1v1.4c0.7-0.8,2-1.6,3.3-1.6
			c1.9,0,2.9,0.9,2.9,3v6.4C-206.9-78.1-207.9-78.1-207.9-78.1z"/>
		<path class="st2" d="M-203.9-78.1v-12.7h1v12.7H-203.9z"/>
		<path class="st2" d="M-200.1-89.5c0-0.4,0.4-0.7,0.8-0.7c0.4,0,0.8,0.3,0.8,0.7s-0.3,0.8-0.8,0.8
			C-199.7-88.7-200.1-89.1-200.1-89.5z M-199.8-78.1v-9.2h1v9.2H-199.8z"/>
		<path class="st2" d="M-189.5-78.1v-6.2c0-1.8-0.9-2.3-2.2-2.3c-1.2,0-2.4,0.7-3,1.6v6.9h-1v-9.2h1v1.4c0.7-0.8,2-1.6,3.3-1.6
			c1.9,0,2.9,0.9,2.9,3v6.4C-188.5-78.1-189.5-78.1-189.5-78.1z"/>
		<path class="st2" d="M-186-82.7c0-2.7,1.9-4.8,4.4-4.8c2.8,0,4.3,2.2,4.3,4.9v0.3h-7.7c0.1,2,1.4,3.6,3.6,3.6c1.2,0,2.2-0.4,3-1.3
			l0.5,0.6c-0.9,1-2.1,1.5-3.6,1.5C-184.1-77.9-186-79.9-186-82.7z M-181.6-86.7c-2.2,0-3.2,1.9-3.3,3.5h6.7
			C-178.3-84.7-179.3-86.7-181.6-86.7z"/>
		<path class="st2" d="M-170.6-79.4l0.6-0.7c0.6,0.7,1.7,1.3,3,1.3c1.5,0,2.5-0.8,2.5-1.9c0-2.5-5.8-1.1-5.8-4.4
			c0-1.4,1.2-2.5,3.3-2.5c1.6,0,2.6,0.6,3.3,1.3l-0.6,0.7c-0.5-0.7-1.5-1.2-2.7-1.2c-1.4,0-2.3,0.7-2.3,1.7c0,2.3,5.8,0.9,5.8,4.4
			c0,1.5-1.1,2.7-3.4,2.7C-168.5-77.9-169.7-78.3-170.6-79.4z"/>
		<path class="st2" d="M-161.6-82.7c0-2.7,1.7-4.8,4.4-4.8s4.4,2.1,4.4,4.8c0,2.7-1.7,4.8-4.4,4.8C-159.9-77.9-161.6-80-161.6-82.7z
			 M-153.8-82.7c0-2-1.2-3.9-3.4-3.9c-2.1,0-3.3,1.9-3.3,3.9c0,2.1,1.2,3.9,3.3,3.9C-155-78.8-153.8-80.7-153.8-82.7z"/>
		<path class="st2" d="M-144-78.1v-1.3c-0.7,0.8-2,1.6-3.3,1.6c-1.9,0-2.9-0.9-2.9-2.9v-6.5h1v6.2c0,1.8,0.9,2.3,2.2,2.3
			c1.2,0,2.4-0.7,3-1.5v-7h1v9.2L-144-78.1L-144-78.1z"/>
		<path class="st2" d="M-139.9-78.1v-9.2h1v1.6c0.8-1,1.8-1.8,3.1-1.8v1.1c-0.2,0-0.3,0-0.5,0c-0.9,0-2.2,0.8-2.6,1.6v6.7
			C-138.9-78.1-139.9-78.1-139.9-78.1z"/>
		<path class="st2" d="M-134.4-82.7c0-2.7,1.7-4.8,4.4-4.8c1.6,0,2.5,0.6,3.2,1.6l-0.7,0.6c-0.7-0.9-1.5-1.3-2.5-1.3
			c-2.1,0-3.5,1.7-3.5,3.9c0,2.2,1.3,3.9,3.5,3.9c1,0,1.8-0.4,2.5-1.3l0.7,0.6c-0.7,0.9-1.7,1.6-3.2,1.6
			C-132.7-77.9-134.4-80-134.4-82.7z"/>
		<path class="st2" d="M-125-82.7c0-2.7,1.9-4.8,4.4-4.8c2.8,0,4.3,2.2,4.3,4.9v0.3h-7.7c0.1,2,1.4,3.6,3.6,3.6c1.2,0,2.2-0.4,3-1.3
			l0.5,0.6c-0.9,1-2.1,1.5-3.6,1.5C-123.1-77.9-125-79.9-125-82.7z M-120.7-86.7c-2.2,0-3.2,1.9-3.3,3.5h6.7
			C-117.3-84.7-118.4-86.7-120.7-86.7z"/>
		<path class="st2" d="M-114.6-79.4l0.6-0.7c0.6,0.7,1.7,1.3,3,1.3c1.5,0,2.5-0.8,2.5-1.9c0-2.5-5.8-1.1-5.8-4.4
			c0-1.4,1.2-2.5,3.3-2.5c1.6,0,2.6,0.6,3.3,1.3l-0.6,0.7c-0.5-0.7-1.5-1.2-2.7-1.2c-1.4,0-2.3,0.7-2.3,1.7c0,2.3,5.8,0.9,5.8,4.4
			c0,1.5-1.1,2.7-3.4,2.7C-112.5-77.9-113.6-78.3-114.6-79.4z"/>
		<path class="st2" d="M-100.6-82.7c0-2.7,1.7-4.8,4.4-4.8s4.4,2.1,4.4,4.8c0,2.7-1.7,4.8-4.4,4.8C-98.9-77.9-100.6-80-100.6-82.7z
			 M-92.9-82.7c0-2-1.2-3.9-3.4-3.9c-2.1,0-3.3,1.9-3.3,3.9c0,2.1,1.2,3.9,3.3,3.9C-94.1-78.8-92.9-80.7-92.9-82.7z"/>
		<path class="st2" d="M-88.9-78.1v-8.3h-1.5v-0.9h1.5v-0.8c0-1.8,0.9-2.8,2.5-2.8c0.6,0,1.2,0.1,1.7,0.6l-0.5,0.7
			c-0.3-0.3-0.7-0.5-1.2-0.5c-1,0-1.6,0.7-1.6,2v0.8h1.9v0.9H-88v8.3C-88-78.1-88.9-78.1-88.9-78.1z"/>
		<path class="st2" d="M-79.8-82.7c0-2.7,1.7-4.8,4.4-4.8c1.6,0,2.5,0.6,3.2,1.6l-0.7,0.6c-0.7-0.9-1.5-1.3-2.5-1.3
			c-2.1,0-3.5,1.7-3.5,3.9c0,2.2,1.3,3.9,3.5,3.9c1,0,1.8-0.4,2.5-1.3l0.7,0.6c-0.7,0.9-1.7,1.6-3.2,1.6
			C-78.1-77.9-79.8-80-79.8-82.7z"/>
		<path class="st2" d="M-63.7-78.1v-1.3c-0.7,0.8-2,1.6-3.3,1.6c-1.9,0-2.9-0.9-2.9-2.9v-6.5h1v6.2c0,1.8,0.9,2.3,2.2,2.3
			c1.2,0,2.4-0.7,3-1.5v-7h1v9.2L-63.7-78.1L-63.7-78.1z"/>
		<path class="st2" d="M-60.5-79.4l0.6-0.7c0.6,0.7,1.7,1.3,3,1.3c1.5,0,2.5-0.8,2.5-1.9c0-2.5-5.8-1.1-5.8-4.4
			c0-1.4,1.2-2.5,3.3-2.5c1.6,0,2.6,0.6,3.3,1.3l-0.6,0.7c-0.5-0.7-1.5-1.2-2.7-1.2c-1.4,0-2.3,0.7-2.3,1.7c0,2.3,5.8,0.9,5.8,4.4
			c0,1.5-1.1,2.7-3.4,2.7C-58.4-77.9-59.6-78.3-60.5-79.4z"/>
		<path class="st2" d="M-50.8-79.9v-6.5h-1.5v-0.9h1.5v-2.5h1v2.5h1.9v0.9h-1.9v6.4c0,0.7,0.3,1.3,1,1.3c0.4,0,0.8-0.2,1-0.4
			l0.4,0.8c-0.4,0.3-0.8,0.6-1.6,0.6C-50.2-77.9-50.8-78.6-50.8-79.9z"/>
		<path class="st2" d="M-46.2-82.7c0-2.7,1.7-4.8,4.4-4.8s4.4,2.1,4.4,4.8c0,2.7-1.7,4.8-4.4,4.8S-46.2-80-46.2-82.7z M-38.5-82.7
			c0-2-1.2-3.9-3.4-3.9c-2.1,0-3.3,1.9-3.3,3.9c0,2.1,1.2,3.9,3.3,3.9C-39.7-78.8-38.5-80.7-38.5-82.7z"/>
		<path class="st2" d="M-23.9-78.1v-6.4c0-1.3-0.6-2.1-1.8-2.1c-1,0-2.1,0.7-2.6,1.6v7h-1v-6.4c0-1.3-0.5-2.1-1.8-2.1
			c-1,0-2.1,0.7-2.6,1.6v6.9h-1v-9.2h1v1.4c0.4-0.6,1.6-1.6,3-1.6s2.2,0.8,2.4,1.7c0.5-0.9,1.7-1.7,3-1.7c1.7,0,2.5,0.9,2.5,2.8v6.6
			L-23.9-78.1L-23.9-78.1z"/>
		<path class="st2" d="M-20.4-82.7c0-2.7,1.9-4.8,4.4-4.8c2.8,0,4.3,2.2,4.3,4.9v0.3h-7.7c0.1,2,1.4,3.6,3.6,3.6
			c1.2,0,2.2-0.4,3-1.3l0.5,0.6c-0.9,1-2.1,1.5-3.6,1.5C-18.5-77.9-20.4-79.9-20.4-82.7z M-16-86.7c-2.2,0-3.2,1.9-3.3,3.5h6.7
			C-12.7-84.7-13.7-86.7-16-86.7z"/>
		<path class="st2" d="M-9.1-78.1v-9.2h1v1.6c0.8-1,1.8-1.8,3.1-1.8v1.1c-0.2,0-0.3,0-0.5,0c-0.9,0-2.2,0.8-2.6,1.6v6.7
			C-8.1-78.1-9.1-78.1-9.1-78.1z"/>
		<path class="st2" d="M8.6-78.1v-1.5c-0.6,1-1.8,1.7-3.2,1.7c-2.4,0-4.1-1.9-4.1-4.8c0-2.9,1.7-4.8,4.1-4.8c1.3,0,2.5,0.7,3.2,1.7
			v-5h1v12.7C9.6-78.1,8.6-78.1,8.6-78.1z M8.6-80.4V-85c-0.5-0.9-1.7-1.7-3-1.7c-2,0-3.2,1.7-3.2,3.9c0,2.2,1.2,3.9,3.2,3.9
			C6.9-78.8,8.1-79.6,8.6-80.4z"/>
		<path class="st2" d="M18.5-78.1v-1.1c-0.8,0.9-1.8,1.3-3.1,1.3c-1.6,0-3.2-1.1-3.2-3.1s1.6-3,3.2-3c1.3,0,2.3,0.4,3.1,1.3v-1.9
			c0-1.4-1.1-2.1-2.5-2.1c-1.2,0-2.1,0.4-2.9,1.3l-0.6-0.7c1-1,2-1.5,3.5-1.5c1.9,0,3.3,0.9,3.3,2.9v6.5L18.5-78.1L18.5-78.1z
			 M18.5-79.9v-2c-0.6-0.9-1.7-1.3-2.8-1.3c-1.5,0-2.5,1-2.5,2.3s1,2.3,2.5,2.3C16.8-78.7,17.9-79.1,18.5-79.9z"/>
		<path class="st2" d="M22.8-79.9v-6.5h-1.5v-0.9h1.5v-2.5h1v2.5h1.9v0.9h-1.9v6.4c0,0.7,0.3,1.3,1,1.3c0.4,0,0.8-0.2,1-0.4l0.4,0.8
			c-0.4,0.3-0.8,0.6-1.6,0.6C23.4-77.9,22.8-78.6,22.8-79.9z"/>
		<path class="st2" d="M33.6-78.1v-1.1c-0.8,0.9-1.8,1.3-3.1,1.3c-1.6,0-3.2-1.1-3.2-3.1s1.6-3,3.2-3c1.3,0,2.3,0.4,3.1,1.3v-1.9
			c0-1.4-1.1-2.1-2.5-2.1c-1.2,0-2.1,0.4-2.9,1.3l-0.6-0.7c1-1,2-1.5,3.5-1.5c1.9,0,3.3,0.9,3.3,2.9v6.5L33.6-78.1L33.6-78.1z
			 M33.6-79.9v-2c-0.6-0.9-1.7-1.3-2.8-1.3c-1.5,0-2.5,1-2.5,2.3s1,2.3,2.5,2.3C32-78.7,33-79.1,33.6-79.9z"/>
	</g>
</g>
<path class="st3" d="M-160,17.2c0,6.5-4.5,12.8-11,12.8h-76.2c-6.5,0-13.8-6.2-13.8-12.8v-75.4c0-6.5,7.3-10.8,13.8-10.8h76.2
	c6.5,0,11,4.3,11,10.8V17.2z"/>
<rect x="-260" y="-1.9" class="st0" width="99" height="28.5"/>
<path class="st3" d="M-46,17.2c0,6.5-5,12.8-11.5,12.8h-76.2c-6.5,0-13.3-6.2-13.3-12.8v-75.4c0-6.5,6.8-10.8,13.3-10.8h76.2
	C-51-69-46-64.7-46-58.2V17.2z"/>
<path class="st3" d="M69,17.2C69,23.7,64.2,30,57.7,30h-76.2C-25,30-32,23.8-32,17.2v-75.4c0-6.5,7-10.8,13.5-10.8h76.2
	C64.2-69,69-64.7,69-58.2V17.2z"/>
<g>
	<g class="st1">
		<path class="st2" d="M-248.7,4.1v-4.3l-4-5.7h1l3.4,4.9l3.4-4.9h1l-4,5.7v4.3H-248.7z"/>
		<path class="st2" d="M-244.8,0.5c0-2.1,1.4-3.8,3.5-3.8c2.1,0,3.5,1.7,3.5,3.8s-1.3,3.8-3.5,3.8C-243.4,4.3-244.8,2.6-244.8,0.5z
			 M-238.7,0.5c0-1.6-0.9-3.1-2.7-3.1c-1.7,0-2.6,1.5-2.6,3.1s1,3.1,2.6,3.1C-239.6,3.6-238.7,2.1-238.7,0.5z"/>
		<path class="st2" d="M-230.9,4.1V3c-0.6,0.7-1.6,1.2-2.6,1.2c-1.5,0-2.3-0.7-2.3-2.3v-5.1h0.8v4.9c0,1.4,0.7,1.8,1.8,1.8
			c0.9,0,1.9-0.6,2.4-1.2v-5.5h0.8V4L-230.9,4.1L-230.9,4.1z"/>
		<path class="st2" d="M-227.7,4.1v-7.2h0.8v1.2c0.6-0.8,1.4-1.4,2.4-1.4v0.9c-0.1,0-0.2,0-0.4,0c-0.7,0-1.7,0.7-2.1,1.3v5.3h-0.7
			V4.1z"/>
		<path class="st2" d="M-213.7,4.1V2.9c-0.5,0.8-1.4,1.3-2.5,1.3c-1.9,0-3.2-1.5-3.2-3.8s1.3-3.8,3.2-3.8c1,0,2,0.5,2.5,1.3V-6h0.8
			V4L-213.7,4.1L-213.7,4.1z M-213.7,2.3v-3.6c-0.4-0.7-1.4-1.3-2.4-1.3c-1.6,0-2.5,1.3-2.5,3.1s0.9,3.1,2.5,3.1
			C-215.1,3.6-214.1,3-213.7,2.3z"/>
		<path class="st2" d="M-210.9,0.5c0-2.1,1.5-3.8,3.5-3.8c2.2,0,3.4,1.7,3.4,3.8v0.2h-6.1c0.1,1.6,1.1,2.9,2.8,2.9
			c0.9,0,1.8-0.3,2.4-1l0.4,0.5c-0.7,0.8-1.6,1.2-2.8,1.2C-209.4,4.3-210.9,2.7-210.9,0.5z M-207.4-2.7c-1.7,0-2.6,1.5-2.6,2.8h5.3
			C-204.8-1.1-205.6-2.7-207.4-2.7z"/>
		<path class="st2" d="M-202.6,3.1l0.5-0.6c0.5,0.6,1.3,1.1,2.3,1.1c1.2,0,1.9-0.6,1.9-1.5c0-2-4.6-0.9-4.6-3.5c0-1.1,0.9-2,2.6-2
			c1.2,0,2.1,0.5,2.6,1.1l-0.4,0.6c-0.4-0.6-1.2-1-2.2-1c-1.1,0-1.8,0.6-1.8,1.3c0,1.8,4.6,0.7,4.6,3.5c0,1.2-0.9,2.1-2.7,2.1
			C-201,4.3-201.9,3.9-202.6,3.1z"/>
		<path class="st2" d="M-190.1,4.1l-2.9-3.5l-1.3,1.3v2.2h-0.8v-10h0.8V1l4.3-4.1h1l-3.4,3.3l3.4,4h-1.1V4.1z"/>
		<path class="st2" d="M-187.4,2.7v-5.2h-1.2v-0.7h1.2v-2h0.8v2h1.5v0.7h-1.5v5c0,0.6,0.2,1,0.7,1c0.3,0,0.6-0.2,0.8-0.3l0.3,0.6
			c-0.3,0.3-0.6,0.4-1.2,0.4C-186.9,4.3-187.4,3.7-187.4,2.7z"/>
		<path class="st2" d="M-183.8,0.5c0-2.1,1.4-3.8,3.5-3.8s3.5,1.7,3.5,3.8s-1.3,3.8-3.5,3.8S-183.8,2.6-183.8,0.5z M-177.7,0.5
			c0-1.6-0.9-3.1-2.7-3.1c-1.7,0-2.6,1.5-2.6,3.1s1,3.1,2.6,3.1C-178.6,3.6-177.7,2.1-177.7,0.5z"/>
		<path class="st2" d="M-174.1,2.9v3.9h-0.8v-10h0.8v1.1c0.5-0.7,1.4-1.3,2.5-1.3c1.9,0,3.2,1.5,3.2,3.8s-1.3,3.8-3.2,3.8
			C-172.6,4.3-173.5,3.7-174.1,2.9z M-169.1,0.5c0-1.8-0.9-3.1-2.5-3.1c-1,0-2,0.6-2.4,1.3v3.6c0.4,0.7,1.4,1.3,2.4,1.3
			C-170.1,3.6-169.1,2.2-169.1,0.5z"/>
	</g>
	<g class="st1">
		<path class="st2" d="M-227.1,17.8l-2-6.2l-2,6.2h-0.8l-2.4-7.2h0.8l1.9,6.2l2-6.2h0.7l2,6.2l1.9-6.2h1l-2.4,7.2H-227.1z"/>
		<path class="st2" d="M-222.9,14.2c0-2.1,1.5-3.8,3.5-3.8c2.2,0,3.4,1.7,3.4,3.8v0.2h-6.1c0.1,1.6,1.1,2.9,2.8,2.9
			c0.9,0,1.8-0.3,2.4-1l0.4,0.5c-0.7,0.8-1.6,1.2-2.8,1.2C-221.4,18-222.9,16.4-222.9,14.2z M-219.5,11c-1.7,0-2.6,1.5-2.6,2.8h5.3
			C-216.8,12.6-217.6,11-219.5,11z"/>
		<path class="st2" d="M-214,17.8v-10h0.8v3.9c0.6-0.8,1.5-1.3,2.5-1.3c1.9,0,3.2,1.5,3.2,3.8s-1.3,3.8-3.2,3.8
			c-1.1,0-2-0.6-2.5-1.3v1.2L-214,17.8L-214,17.8z M-210.9,17.3c1.6,0,2.5-1.3,2.5-3.1s-0.9-3.1-2.5-3.1c-1,0-2,0.6-2.4,1.3V16
			C-212.8,16.7-211.9,17.3-210.9,17.3z"/>
		<path class="st2" d="M-206.1,16.8l0.5-0.6c0.5,0.6,1.3,1.1,2.3,1.1c1.2,0,1.9-0.6,1.9-1.5c0-2-4.6-0.9-4.6-3.5c0-1.1,0.9-2,2.6-2
			c1.2,0,2.1,0.5,2.6,1.1l-0.4,0.6c-0.4-0.6-1.2-1-2.2-1c-1.1,0-1.8,0.6-1.8,1.3c0,1.8,4.6,0.7,4.6,3.5c0,1.2-0.9,2.1-2.7,2.1
			C-204.5,18-205.4,17.6-206.1,16.8z"/>
		<path class="st2" d="M-198.8,8.8c0-0.3,0.3-0.6,0.6-0.6c0.3,0,0.6,0.3,0.6,0.6s-0.3,0.6-0.6,0.6C-198.5,9.4-198.8,9.1-198.8,8.8z
			 M-198.6,17.8v-7.2h0.8v7.2H-198.6z"/>
		<path class="st2" d="M-195.2,16.4v-5.2h-1.2v-0.7h1.2v-2h0.8v2h1.5v0.7h-1.5v5c0,0.6,0.2,1,0.8,1c0.3,0,0.6-0.2,0.8-0.3l0.3,0.6
			c-0.3,0.3-0.6,0.4-1.2,0.4C-194.7,18-195.2,17.4-195.2,16.4z"/>
		<path class="st2" d="M-191.6,14.2c0-2.1,1.5-3.8,3.5-3.8c2.2,0,3.4,1.7,3.4,3.8v0.2h-6.1c0.1,1.6,1.1,2.9,2.8,2.9
			c0.9,0,1.8-0.3,2.4-1l0.4,0.5c-0.7,0.8-1.6,1.2-2.8,1.2C-190.1,18-191.6,16.4-191.6,14.2z M-188.2,11c-1.7,0-2.6,1.5-2.6,2.8h5.3
			C-185.5,12.6-186.4,11-188.2,11z"/>
	</g>
	<g>
		<path class="st2" d="M-194-19h-3.5v-4h-9v4h-3.2c-0.7,0-1.3,0.8-1.3,1.5s0.6,1.5,1.3,1.5h15.7c0.7,0,1.3-0.8,1.3-1.5
			C-192.6-18.2-193.2-19-194-19z"/>
		<path class="st2" d="M-183.5-49c0-0.5-0.4-1-1-1h-35c-0.5,0-1,0.4-1,1v22c0,0.5,0.4,1,1,1h35c0.5,0,1-0.4,1-1V-49z M-198.5-30.7
			c0,0.2,0.1-0.3-0.1-0.3h-16.5c-0.2,0-0.4,0.5-0.4,0.3v-6.7c0-0.2,0.2-0.6,0.4-0.6h16.5c0.2,0,0.1,0.4,0.1,0.6V-30.7z M-189.5-30.7
			c0,0.2-0.1-0.3-0.1-0.3h-6.6c-0.1,0-0.3,0.5-0.3,0.3v-6.7c0-0.2,0.2-0.6,0.3-0.6h6.6c0.1,0,0.1,0.4,0.1,0.6V-30.7z M-189.5-39.8
			c0,0.2-0.2-0.2-0.4-0.2H-215c-0.2,0-0.5,0.5-0.5,0.2v-4.8c0-0.2,0.3-0.4,0.5-0.4h25.1c0.2,0,0.4,0.2,0.4,0.4V-39.8z"/>
		<path class="st2" d="M-223.5-26.3V-37h-10.1c-0.7,0-1.3-0.8-1.3-1.5s0.6-1.5,1.3-1.5h10.1v-3h-10.1c-0.7,0-1.3-0.8-1.3-1.5
			s0.6-1.5,1.3-1.5h10.1v-2.4c0-0.3,0.5-0.6,0.6-1.6h-10.7c-0.7,0-1.3-0.3-1.3-1s0.6-1,1.3-1h13.3c0.1,0,0.2,0,0.3,0.1
			c0.2,0,0.4-0.1,0.6-0.1h2.9v-3.7c0-0.7-0.4-1.3-1.1-1.3h-18.7c-0.7,0-1.2,0.5-1.2,1.3V-17c0,0.7,0.5,1.1,1.2,1.1h18.7
			c0.7,0,1.1-0.3,1.1-1.1v-6h-2.9C-221.4-23-223.5-24.3-223.5-26.3z M-226.9-23.6c-1.1,0-2.1-0.9-2.1-2.1c0-1.1,0.9-2.1,2.1-2.1
			c1.1,0,2.1,0.9,2.1,2.1C-224.9-24.5-225.8-23.6-226.9-23.6z"/>
	</g>
</g>
<g>
	<g>
		<g>
			<rect x="-141.5" y="-5.4" class="st0" width="90" height="31.9"/>
		</g>
		<g class="st1">
			<path class="st2" d="M-131.5,4.6V0.3l-4-5.7h1l3.4,4.9l3.4-4.9h1l-4,5.7v4.3H-131.5z"/>
			<path class="st2" d="M-127.6,1c0-2.1,1.4-3.8,3.5-3.8s3.5,1.7,3.5,3.8s-1.3,3.8-3.5,3.8C-126.2,4.8-127.6,3.1-127.6,1z M-121.5,1
				c0-1.6-0.9-3.1-2.7-3.1c-1.7,0-2.6,1.5-2.6,3.1s1,3.1,2.6,3.1C-122.4,4.1-121.5,2.6-121.5,1z"/>
			<path class="st2" d="M-113.7,4.6V3.5c-0.6,0.7-1.6,1.2-2.6,1.2c-1.5,0-2.3-0.7-2.3-2.3v-5.1h0.8v4.9c0,1.4,0.7,1.8,1.8,1.8
				c0.9,0,1.9-0.6,2.4-1.2v-5.5h0.8v7.2L-113.7,4.6L-113.7,4.6z"/>
			<path class="st2" d="M-110.5,4.6v-7.2h0.8v1.2c0.6-0.8,1.4-1.4,2.4-1.4v0.9c-0.1,0-0.2,0-0.4,0c-0.7,0-1.7,0.7-2.1,1.3v5.3h-0.7
				V4.6z"/>
			<path class="st2" d="M-93.3,4.6v-5.1c0-1-0.4-1.7-1.5-1.7c-0.8,0-1.7,0.6-2.1,1.2v5.5h-0.8v-5.1c0-1-0.4-1.7-1.4-1.7
				c-0.8,0-1.7,0.6-2.1,1.2v5.5h-0.8v-7.2h0.8v1.1c0.3-0.5,1.3-1.3,2.3-1.3c1.1,0,1.7,0.7,1.9,1.4c0.4-0.7,1.4-1.4,2.4-1.4
				c1.3,0,2,0.8,2,2.2v5.2h-0.7V4.6z"/>
			<path class="st2" d="M-90.4,1c0-2.1,1.3-3.8,3.5-3.8c2.1,0,3.5,1.7,3.5,3.8s-1.3,3.8-3.5,3.8C-89.1,4.8-90.4,3.1-90.4,1z
				 M-84.3,1c0-1.6-0.9-3.1-2.7-3.1c-1.7,0-2.6,1.5-2.6,3.1s1,3.1,2.6,3.1C-85.3,4.1-84.3,2.6-84.3,1z"/>
			<path class="st2" d="M-81.5,4.6v-10h0.8v3.9c0.6-0.8,1.5-1.3,2.5-1.3c1.9,0,3.2,1.5,3.2,3.8s-1.3,3.8-3.2,3.8
				c-1.1,0-2-0.6-2.5-1.3v1.2L-81.5,4.6L-81.5,4.6z M-78.3,4.1c1.6,0,2.5-1.3,2.5-3.1s-0.9-3.1-2.5-3.1c-1,0-2,0.6-2.4,1.3v3.6
				C-80.3,3.5-79.3,4.1-78.3,4.1z"/>
			<path class="st2" d="M-73.1-4.4c0-0.3,0.3-0.6,0.6-0.6s0.6,0.3,0.6,0.6s-0.3,0.6-0.6,0.6S-73.1-4.1-73.1-4.4z M-72.9,4.6v-7.2
				h0.8v7.2H-72.9z"/>
			<path class="st2" d="M-69.7,4.6v-10h0.8v10H-69.7z"/>
			<path class="st2" d="M-66.9,1c0-2.1,1.5-3.8,3.5-3.8c2.2,0,3.4,1.7,3.4,3.8v0.2h-6.1c0.1,1.6,1.1,2.9,2.8,2.9
				c0.9,0,1.8-0.3,2.4-1l0.4,0.5c-0.7,0.8-1.6,1.2-2.8,1.2C-65.4,4.8-66.9,3.2-66.9,1z M-63.4-2.2c-1.7,0-2.6,1.5-2.6,2.8h5.3
				C-60.8-0.6-61.6-2.2-63.4-2.2z"/>
		</g>
		<g class="st1">
			<path class="st2" d="M-114.4,18.3l-2-6.2l-2,6.2h-0.8l-2.4-7.2h0.8l1.9,6.2l2-6.2h0.7l2,6.2l1.9-6.2h0.8l-2.4,7.2H-114.4z"/>
			<path class="st2" d="M-110.2,14.7c0-2.1,1.5-3.8,3.5-3.8c2.2,0,3.4,1.7,3.4,3.8v0.2h-6.1c0.1,1.6,1.1,2.9,2.8,2.9
				c0.9,0,1.8-0.3,2.4-1l0.4,0.5c-0.7,0.8-1.6,1.2-2.8,1.2C-108.7,18.5-110.2,16.9-110.2,14.7z M-106.8,11.5c-1.7,0-2.6,1.5-2.6,2.8
				h5.3C-104.1,13.1-105,11.5-106.8,11.5z"/>
			<path class="st2" d="M-101.3,18.3v-10h0.8v3.9c0.6-0.8,1.5-1.3,2.5-1.3c1.9,0,3.2,1.5,3.2,3.8s-1.3,3.8-3.2,3.8
				c-1.1,0-2-0.6-2.5-1.3v1.2L-101.3,18.3L-101.3,18.3z M-98.2,17.8c1.6,0,2.5-1.3,2.5-3.1s-0.9-3.1-2.5-3.1c-1,0-2,0.6-2.4,1.3v3.6
				C-100.1,17.2-99.2,17.8-98.2,17.8z"/>
			<path class="st2" d="M-93.4,17.3l0.5-0.6c0.5,0.6,1.3,1.1,2.3,1.1c1.2,0,1.9-0.6,1.9-1.5c0-2-4.6-0.9-4.6-3.5c0-1.1,0.9-2,2.6-2
				c1.2,0,2.1,0.5,2.6,1.1l-0.4,0.6c-0.4-0.6-1.2-1-2.2-1c-1.1,0-1.8,0.6-1.8,1.3c0,1.8,4.6,0.7,4.6,3.5c0,1.2-0.9,2.1-2.7,2.1
				C-91.8,18.5-92.7,18.1-93.4,17.3z"/>
			<path class="st2" d="M-86.1,9.3c0-0.3,0.3-0.6,0.6-0.6s0.6,0.3,0.6,0.6s-0.3,0.6-0.6,0.6C-85.8,9.9-86.1,9.6-86.1,9.3z
				 M-85.9,18.3V11h0.8v7.2h-0.8V18.3z"/>
			<path class="st2" d="M-82.5,16.9v-5.2h-1.2V11h1.2V9h0.8v2h1.5v0.7h-1.5v5c0,0.6,0.2,1,0.8,1c0.3,0,0.6-0.2,0.8-0.3l0.3,0.6
				c-0.3,0.3-0.6,0.4-1.2,0.4C-82.1,18.5-82.5,17.9-82.5,16.9z"/>
			<path class="st2" d="M-78.9,14.7c0-2.1,1.5-3.8,3.5-3.8c2.2,0,3.4,1.7,3.4,3.8v0.2h-6.1c0.1,1.6,1.1,2.9,2.8,2.9
				c0.9,0,1.8-0.3,2.4-1l0.4,0.5c-0.7,0.8-1.6,1.2-2.8,1.2C-77.4,18.5-78.9,16.9-78.9,14.7z M-75.5,11.5c-1.7,0-2.6,1.5-2.6,2.8h5.3
				C-72.9,13.1-73.7,11.5-75.5,11.5z"/>
		</g>
	</g>
	<g>
		<path class="st2" d="M-75.1-57.5h-38.2c-3.6,0-6.2,3-6.2,6.6v25.6c0,3.6,2.6,5.9,6.2,5.9h20.8v-5h-19v-28.1h36.4
			c0.7,0,1.6,0.8,1.6,1.6v0.4h1.6c1.2,0,2.4,0.4,3.4,0.9v-1.3C-68.5-54.5-71.6-57.5-75.1-57.5L-75.1-57.5z M-115.4-40.6
			c1.4,0,2.5,1.1,2.5,2.4c0,1.4-1.1,2.5-2.5,2.5c-1.3,0-2.5-1.1-2.5-2.5C-117.8-39.5-116.7-40.6-115.4-40.6L-115.4-40.6z"/>
		<path class="st2" d="M-94.5-34.6c0-0.5-0.4-0.9-0.9-0.9h-11.3c-0.5,0-0.9,0.4-0.9,0.9v7.3c0,0.5,0.4,0.9,0.9,0.9h11.3
			c0.5,0,0.9-0.4,0.9-0.9V-34.6z"/>
		<path class="st2" d="M-107.1-38.5c0,0.5,0.4,1,0.9,1h13.7v-2h-13.7C-106.7-39.5-107.1-39-107.1-38.5L-107.1-38.5z"/>
		<path class="st2" d="M-107.1-42c0,0.5,0.4,0.5,0.9,0.5h13.7v-1h-13.7C-106.7-42.5-107.1-42.5-107.1-42L-107.1-42z"/>
		<path class="st2" d="M-107.1-45.5c0,0.5,0.4,1,0.9,1h13.3c0.1-1,0.2-1,0.4-2h-13.7C-106.7-46.5-107.1-46-107.1-45.5L-107.1-45.5z"
			/>
		<path class="st2" d="M-107.1-49c0,0.5,0.4,0.5,0.9,0.5h14.7c0.5,0,1.2-1,2-1h-16.7C-106.7-49.5-107.1-49.5-107.1-49L-107.1-49z"/>
		<path class="st2" d="M-71.9-47.5h-14.4c-1.8,0-3.2,1.9-3.2,3.7v27.3c0,1.8,1.4,3,3.2,3h14.4c1.8,0,3.4-1.2,3.4-3v-27.3
			C-68.5-45.6-70.1-47.5-71.9-47.5L-71.9-47.5z M-86.5-43.5h14v24h-14V-43.5z M-80.6-16.6c0-0.9,0.7-1.6,1.6-1.6
			c0.9,0,1.6,0.7,1.6,1.6S-78.1-15-79-15C-79.9-15-80.6-15.7-80.6-16.6L-80.6-16.6z"/>
		<path class="st2" d="M-82.8-37.5h7.7c0.5,0,0.7,0.1,0.7-0.4v-1.8c0-0.5-0.2-0.8-0.7-0.8h-7.7c-0.5,0-0.7,0.3-0.7,0.8v1.8
			C-83.5-37.4-83.3-37.5-82.8-37.5L-82.8-37.5z"/>
		<path class="st2" d="M-74.3-35.5h-9.5c-0.5,0-0.9,0.5-0.9,1s0.4,1,0.9,1h9.5c0.5,0,0.9-0.5,0.9-1C-73.4-35-73.8-35.5-74.3-35.5
			L-74.3-35.5z"/>
		<path class="st2" d="M-74.3-32.5h-9.5c-0.5,0-0.9,0.5-0.9,1s0.4,1,0.9,1h9.5c0.5,0,0.9-0.5,0.9-1C-73.4-32-73.8-32.5-74.3-32.5
			L-74.3-32.5z"/>
		<path class="st2" d="M-74.3-28.5h-9.5c-0.5,0-0.9,0.5-0.9,1s0.4,1,0.9,1h9.5c0.5,0,0.9-0.5,0.9-1C-73.4-28-73.8-28.5-74.3-28.5
			L-74.3-28.5z"/>
		<path class="st2" d="M-74.3-25.5h-9.5c-0.5,0-0.9,0.5-0.9,1s0.4,1,0.9,1h9.5c0.5,0,0.9-0.5,0.9-1C-73.4-25-73.8-25.5-74.3-25.5
			L-74.3-25.5z"/>
	</g>
</g>
<g>
	<g>
		<path class="st2" d="M20.4-15.4h-2.7c-0.2,0,0,0.8,0,1v1.9c0,0.2-0.2,0.2,0,0.2h2.8c0.2,0,0.3,0,0.3-0.2v-1.9
			C20.7-14.6,20.6-15.4,20.4-15.4L20.4-15.4z"/>
		<path class="st2" d="M31-54.4H7.1c-1.4,0-2.4,1.6-2.4,3v39.7c0,1.4,1,2.3,2.4,2.3H31c1.4,0,2.7-0.9,2.7-2.3v-39.7
			C33.7-52.8,32.4-54.4,31-54.4L31-54.4z M17-52.4h4c0.3,0,0.6,0.7,0.6,1s-0.3,1-0.6,1h-4c-0.3,0-0.6-0.7-0.6-1
			C16.4-51.7,16.7-52.4,17-52.4L17-52.4z M21.7-12.6c0,0.9-0.4,1.2-1.3,1.2h-2.7c-0.9,0-2-0.3-2-1.2v-1.8c0-0.9,1.1-2,2-2h2.8
			c0.9,0,1.3,1.1,1.3,2L21.7-12.6L21.7-12.6z M30.7-18.1c0,0.3-0.4,0.7-0.8,0.7H8.2c-0.3,0-0.5-0.4-0.5-0.7v-30.1
			c0-0.3,0.1-1.2,0.5-1.2h21.7c0.3,0,0.8,0.8,0.8,1.2V-18.1z"/>
		<path class="st2" d="M16.9-46.4h-6.4c-0.7,0-0.9,0.8-0.9,1.5v12.4c0,0.7,0.2,1.1,0.9,1.1h6.4c0.7,0,0.8-0.4,0.8-1.1v-12.4
			C17.7-45.6,17.6-46.4,16.9-46.4L16.9-46.4z"/>
		<path class="st2" d="M27.5-38.4H21c-0.7,0-1.3,1.2-1.3,1.9v4c0,0.7,0.7,1.1,1.3,1.1h6.5c0.7,0,1.2-0.4,1.2-1.1v-4
			C28.7-37.2,28.2-38.4,27.5-38.4L27.5-38.4z"/>
		<path class="st2" d="M27.5-46.4H21c-0.7,0-1.3,0.8-1.3,1.5v4c0,0.7,0.7,1.6,1.3,1.6h6.5c0.7,0,1.2-0.9,1.2-1.6v-4
			C28.7-45.6,28.2-46.4,27.5-46.4L27.5-46.4z"/>
		<path class="st2" d="M16.9-29.4h-6.4c-0.7,0-0.9,0.5-0.9,1.2v6.6c0,0.7,0.2,1.1,0.9,1.1h6.4c0.7,0,0.8-0.5,0.8-1.1v-6.6
			C17.7-28.9,17.6-29.4,16.9-29.4L16.9-29.4z"/>
		<path class="st2" d="M27.4-29.4H21c-0.7,0-1.3,0.5-1.3,1.2v6.6c0,0.7,0.7,1.1,1.3,1.1h6.4c0.7,0,1.3-0.5,1.3-1.1v-6.6
			C28.7-28.9,28.1-29.4,27.4-29.4L27.4-29.4z"/>
	</g>
	<g>
		<g>
			<rect x="-20" y="4.2" class="st0" width="77" height="15.3"/>
		</g>
		<g class="st1">
			<path class="st2" d="M-7,14.1V9.8l-4-5.7h1L-6.6,9l3.4-4.9h1l-4,5.7v4.3H-7z"/>
			<path class="st2" d="M-3,10.5c0-2.1,1.3-3.8,3.5-3.8C2.6,6.7,4,8.4,4,10.5s-1.3,3.8-3.5,3.8S-3,12.6-3,10.5z M3.1,10.5
				c0-1.6-0.9-3.1-2.7-3.1c-1.7,0-2.6,1.5-2.6,3.1s1,3.1,2.6,3.1C2.2,13.6,3.1,12.1,3.1,10.5z"/>
			<path class="st2" d="M10.9,14.1V13c-0.6,0.7-1.6,1.2-2.6,1.2c-1.5,0-2.3-0.7-2.3-2.3V6.8h0.8v4.9c0,1.4,0.7,1.8,1.8,1.8
				c0.9,0,1.9-0.6,2.4-1.2V6.8h0.8V14h-0.9V14.1z"/>
			<path class="st2" d="M14.1,14.1V6.9h0.8v1.2c0.6-0.8,1.4-1.4,2.4-1.4v0.9c-0.1,0-0.2,0-0.4,0c-0.7,0-1.7,0.7-2.1,1.3v5.3h-0.7
				V14.1z"/>
			<path class="st2" d="M27.3,14.1v-0.9c-0.6,0.7-1.5,1-2.5,1c-1.2,0-2.5-0.9-2.5-2.4c0-1.6,1.3-2.4,2.5-2.4c1,0,1.8,0.3,2.5,1V9
				c0-1.1-0.9-1.7-1.9-1.7c-0.9,0-1.6,0.3-2.3,1.1l-0.4-0.5c0.8-0.8,1.6-1.2,2.8-1.2c1.5,0,2.6,0.7,2.6,2.3v5.1L27.3,14.1L27.3,14.1
				z M27.3,12.7v-1.6c-0.5-0.7-1.3-1-2.2-1c-1.2,0-2,0.8-2,1.8s0.8,1.8,2,1.8C26,13.7,26.8,13.4,27.3,12.7z"/>
			<path class="st2" d="M31.3,12.9v3.9h-0.8v-10h0.8v1.1c0.5-0.7,1.4-1.3,2.5-1.3c1.9,0,3.2,1.5,3.2,3.8s-1.3,3.8-3.2,3.8
				C32.8,14.3,31.9,13.8,31.3,12.9z M36.2,10.5c0-1.8-0.9-3.1-2.5-3.1c-1,0-2,0.6-2.4,1.3v3.6c0.4,0.7,1.4,1.3,2.4,1.3
				C35.3,13.6,36.2,12.2,36.2,10.5z"/>
			<path class="st2" d="M39.8,12.9v3.9H39v-10h0.8v1.1c0.5-0.7,1.4-1.3,2.5-1.3c1.9,0,3.2,1.5,3.2,3.8s-1.3,3.8-3.2,3.8
				C41.3,14.3,40.4,13.8,39.8,12.9z M44.7,10.5c0-1.8-0.9-3.1-2.5-3.1c-1,0-2,0.6-2.4,1.3v3.6c0.4,0.7,1.4,1.3,2.4,1.3
				C43.8,13.6,44.7,12.2,44.7,10.5z"/>
		</g>
	</g>
</g>
<g>
	<g>
		<rect x="-249.6" y="288.4" class="st0" width="305.2" height="19"/>
	</g>
	<g class="st1">
		<path class="st2" d="M-134.4,294.7c0-3.9,2.8-6.6,6.4-6.6c2,0,3.6,0.9,4.6,2.2l-0.9,0.6c-0.8-1.1-2.2-1.8-3.7-1.8
			c-3,0-5.3,2.3-5.3,5.6c0,3.3,2.3,5.6,5.3,5.6c1.5,0,2.9-0.7,3.7-1.8l0.9,0.6c-1.1,1.4-2.6,2.3-4.6,2.3
			C-131.6,301.3-134.4,298.6-134.4,294.7z"/>
		<path class="st2" d="M-115,301.1v-6.3c0-1.8-0.9-2.3-2.2-2.3c-1.2,0-2.4,0.7-3,1.6v6.9h-1v-12.7h1v4.9c0.7-0.8,2-1.6,3.3-1.6
			c1.9,0,2.9,0.9,2.9,2.9v6.5H-115z"/>
		<path class="st2" d="M-105.1,301.1V300c-0.8,0.9-1.8,1.3-3.1,1.3c-1.6,0-3.2-1.1-3.2-3.1c0-2,1.6-3,3.2-3c1.3,0,2.3,0.4,3.1,1.3
			v-1.9c0-1.4-1.1-2.1-2.5-2.1c-1.2,0-2.1,0.4-2.9,1.3l-0.6-0.7c0.9-1,2-1.5,3.5-1.5c1.9,0,3.3,0.9,3.3,2.9v6.5H-105.1z
			 M-105.1,299.3v-2c-0.6-0.9-1.7-1.3-2.8-1.3c-1.5,0-2.5,1-2.5,2.3c0,1.3,1,2.3,2.5,2.3C-106.8,300.5-105.8,300.1-105.1,299.3z"/>
		<path class="st2" d="M-94.9,301.1v-6.2c0-1.8-0.9-2.3-2.2-2.3c-1.2,0-2.4,0.7-3,1.6v6.9h-1v-9.2h1v1.4c0.7-0.8,2-1.6,3.3-1.6
			c1.9,0,2.9,0.9,2.9,3v6.4H-94.9z"/>
		<path class="st2" d="M-84.6,301.1v-6.2c0-1.8-0.9-2.3-2.2-2.3c-1.2,0-2.4,0.7-3,1.6v6.9h-1v-9.2h1v1.4c0.7-0.8,2-1.6,3.3-1.6
			c1.9,0,2.9,0.9,2.9,3v6.4H-84.6z"/>
		<path class="st2" d="M-81,296.5c0-2.7,1.9-4.8,4.4-4.8c2.8,0,4.3,2.2,4.3,4.9v0.3H-80c0.1,2,1.4,3.6,3.6,3.6c1.2,0,2.2-0.4,3-1.3
			l0.5,0.6c-0.9,1-2.1,1.5-3.6,1.5C-79.1,301.3-81,299.3-81,296.5z M-76.7,292.5c-2.2,0-3.2,1.9-3.3,3.5h6.7
			C-73.3,294.4-74.4,292.5-76.7,292.5z"/>
		<path class="st2" d="M-69.8,301.1v-12.7h1v12.7H-69.8z"/>
		<path class="st2" d="M-66.5,299.8l0.6-0.7c0.6,0.7,1.7,1.3,3,1.3c1.5,0,2.5-0.8,2.5-1.9c0-2.5-5.8-1.1-5.8-4.4
			c0-1.4,1.2-2.5,3.3-2.5c1.6,0,2.6,0.6,3.3,1.3l-0.6,0.7c-0.5-0.7-1.5-1.2-2.7-1.2c-1.4,0-2.3,0.7-2.3,1.7c0,2.3,5.8,0.9,5.8,4.4
			c0,1.5-1.1,2.7-3.4,2.7C-64.4,301.3-65.6,300.8-66.5,299.8z"/>
	</g>
</g>
<g>
	<g>
		<rect x="-249.6" y="47.5" class="st0" width="305.2" height="18.9"/>
	</g>
	<g class="st1">
		<path class="st2" d="M-229,53.9c0-3.7,2.4-6.6,6.2-6.6c3.7,0,6.2,2.8,6.2,6.6s-2.5,6.6-6.2,6.6C-226.5,60.4-229,57.6-229,53.9z
			 M-217.8,53.9c0-3.2-2-5.6-5-5.6c-3.1,0-5,2.4-5,5.6c0,3.2,2,5.6,5,5.6C-219.8,59.4-217.8,57.1-217.8,53.9z"/>
		<path class="st2" d="M-213.7,60.2v-8.3h-1.5V51h1.5v-0.8c0-1.8,0.9-2.8,2.5-2.8c0.6,0,1.2,0.1,1.7,0.6l-0.5,0.7
			c-0.3-0.3-0.7-0.5-1.2-0.5c-1,0-1.6,0.7-1.6,2V51h1.9v0.9h-1.9v8.3H-213.7z M-208.7,60.2v-8.3h-1.5V51h1.5v-0.8
			c0-1.8,1-2.8,2.5-2.8c0.5,0,0.9,0.1,1.2,0.3l-0.3,0.8c-0.2-0.1-0.5-0.2-0.8-0.2c-1,0-1.6,0.7-1.6,2v0.8h1.9V52h-1.9v8.3h-1V60.2z
			 M-203.9,60.2V47.5h1v12.7H-203.9z"/>
		<path class="st2" d="M-200.2,48.8c0-0.4,0.4-0.7,0.8-0.7s0.8,0.3,0.8,0.7s-0.3,0.8-0.8,0.8C-199.8,49.6-200.2,49.2-200.2,48.8z
			 M-199.9,60.2V51h1v9.2H-199.9z"/>
		<path class="st2" d="M-189.6,60.2V54c0-1.8-0.9-2.3-2.2-2.3c-1.2,0-2.4,0.7-3,1.6v6.9h-1V51h1v1.4c0.7-0.8,2-1.6,3.3-1.6
			c1.9,0,2.9,0.9,2.9,3v6.4L-189.6,60.2L-189.6,60.2z"/>
		<path class="st2" d="M-186.1,55.6c0-2.7,1.9-4.8,4.4-4.8c2.8,0,4.3,2.2,4.3,4.9V56h-7.6c0.1,2,1.4,3.6,3.6,3.6
			c1.2,0,2.2-0.4,3-1.3l0.5,0.6c-0.9,1-2.1,1.5-3.6,1.5C-184.2,60.4-186.1,58.4-186.1,55.6z M-181.7,51.7c-2.2,0-3.2,1.9-3.3,3.5
			h6.7C-178.4,53.6-179.4,51.7-181.7,51.7z"/>
		<path class="st2" d="M-170.7,59l0.6-0.7c0.6,0.7,1.7,1.3,3,1.3c1.5,0,2.5-0.8,2.5-1.9c0-2.5-5.8-1.1-5.8-4.4
			c0-1.4,1.2-2.5,3.3-2.5c1.6,0,2.6,0.6,3.3,1.3l-0.6,0.7c-0.5-0.7-1.5-1.2-2.7-1.2c-1.4,0-2.3,0.7-2.3,1.7c0,2.3,5.8,0.9,5.8,4.4
			c0,1.5-1.1,2.7-3.4,2.7C-168.6,60.4-169.8,60-170.7,59z"/>
		<path class="st2" d="M-161.7,55.6c0-2.7,1.7-4.8,4.4-4.8c2.7,0,4.4,2.1,4.4,4.8s-1.7,4.8-4.4,4.8C-160,60.4-161.7,58.3-161.7,55.6
			z M-153.9,55.6c0-2-1.2-3.9-3.4-3.9c-2.1,0-3.3,1.9-3.3,3.9c0,2.1,1.2,3.9,3.3,3.9C-155.1,59.5-153.9,57.7-153.9,55.6z"/>
		<path class="st2" d="M-144.1,60.2v-1.3c-0.7,0.8-2,1.6-3.3,1.6c-1.9,0-2.9-0.9-2.9-2.9V51h1v6.2c0,1.8,0.9,2.3,2.2,2.3
			c1.2,0,2.4-0.7,3-1.5v-7h1v9.2H-144.1z"/>
		<path class="st2" d="M-140,60.2V51h1v1.6c0.8-1,1.8-1.8,3.1-1.8v1.1c-0.2,0-0.3,0-0.5,0c-0.9,0-2.2,0.8-2.6,1.6v6.7L-140,60.2
			L-140,60.2z"/>
		<path class="st2" d="M-134.5,55.6c0-2.7,1.7-4.8,4.4-4.8c1.6,0,2.5,0.6,3.2,1.6l-0.7,0.6c-0.7-0.9-1.5-1.3-2.5-1.3
			c-2.1,0-3.5,1.7-3.5,3.9s1.3,3.9,3.5,3.9c1,0,1.8-0.4,2.5-1.3l0.7,0.6c-0.7,0.9-1.7,1.6-3.2,1.6
			C-132.8,60.4-134.5,58.3-134.5,55.6z"/>
		<path class="st2" d="M-125.1,55.6c0-2.7,1.9-4.8,4.4-4.8c2.8,0,4.3,2.2,4.3,4.9V56h-7.7c0.1,2,1.4,3.6,3.6,3.6
			c1.2,0,2.2-0.4,3-1.3l0.5,0.6c-0.9,1-2.1,1.5-3.6,1.5C-123.2,60.4-125.1,58.4-125.1,55.6z M-120.8,51.7c-2.2,0-3.2,1.9-3.3,3.5
			h6.7C-117.4,53.6-118.5,51.7-120.8,51.7z"/>
		<path class="st2" d="M-114.7,59l0.6-0.7c0.6,0.7,1.7,1.3,3,1.3c1.5,0,2.5-0.8,2.5-1.9c0-2.5-5.8-1.1-5.8-4.4
			c0-1.4,1.2-2.5,3.3-2.5c1.6,0,2.6,0.6,3.3,1.3l-0.6,0.7c-0.5-0.7-1.5-1.2-2.7-1.2c-1.4,0-2.3,0.7-2.3,1.7c0,2.3,5.8,0.9,5.8,4.4
			c0,1.5-1.1,2.7-3.4,2.7C-112.6,60.4-113.7,60-114.7,59z"/>
		<path class="st2" d="M-100.7,55.6c0-2.7,1.7-4.8,4.4-4.8s4.4,2.1,4.4,4.8s-1.7,4.8-4.4,4.8C-99,60.4-100.7,58.3-100.7,55.6z
			 M-93,55.6c0-2-1.2-3.9-3.4-3.9c-2.1,0-3.3,1.9-3.3,3.9c0,2.1,1.2,3.9,3.3,3.9C-94.2,59.5-93,57.7-93,55.6z"/>
		<path class="st2" d="M-89,60.2v-8.3h-1.5V51h1.5v-0.8c0-1.8,0.9-2.8,2.5-2.8c0.6,0,1.2,0.1,1.7,0.6l-0.5,0.7
			c-0.3-0.3-0.7-0.5-1.2-0.5c-1,0-1.6,0.7-1.6,2V51h1.9v0.9H-88v8.3H-89z"/>
		<path class="st2" d="M-79.9,55.6c0-2.7,1.7-4.8,4.4-4.8c1.6,0,2.5,0.6,3.2,1.6L-73,53c-0.7-0.9-1.5-1.3-2.5-1.3
			c-2.1,0-3.5,1.7-3.5,3.9s1.3,3.9,3.5,3.9c1,0,1.8-0.4,2.5-1.3l0.7,0.6c-0.7,0.9-1.7,1.6-3.2,1.6C-78.2,60.4-79.9,58.3-79.9,55.6z"
			/>
		<path class="st2" d="M-63.8,60.2v-1.3c-0.7,0.8-2,1.6-3.3,1.6c-1.9,0-2.9-0.9-2.9-2.9V51h1v6.2c0,1.8,0.9,2.3,2.2,2.3
			c1.2,0,2.4-0.7,3-1.5v-7h1v9.2H-63.8z"/>
		<path class="st2" d="M-60.6,59l0.6-0.7c0.6,0.7,1.7,1.3,3,1.3c1.5,0,2.5-0.8,2.5-1.9c0-2.5-5.8-1.1-5.8-4.4c0-1.4,1.2-2.5,3.3-2.5
			c1.6,0,2.6,0.6,3.3,1.3l-0.6,0.7c-0.5-0.7-1.5-1.2-2.7-1.2c-1.4,0-2.3,0.7-2.3,1.7c0,2.3,5.8,0.9,5.8,4.4c0,1.5-1.1,2.7-3.4,2.7
			C-58.5,60.4-59.7,60-60.6,59z"/>
		<path class="st2" d="M-50.9,58.4v-6.5h-1.5V51h1.5v-2.5h1V51h1.9v0.9h-1.9v6.4c0,0.7,0.3,1.3,0.9,1.3c0.4,0,0.8-0.2,1-0.4l0.4,0.8
			c-0.4,0.3-0.8,0.6-1.6,0.6C-50.3,60.4-50.9,59.7-50.9,58.4z"/>
		<path class="st2" d="M-46.3,55.6c0-2.7,1.7-4.8,4.4-4.8s4.4,2.1,4.4,4.8s-1.7,4.8-4.4,4.8C-44.6,60.4-46.3,58.3-46.3,55.6z
			 M-38.6,55.6c0-2-1.2-3.9-3.4-3.9c-2.1,0-3.3,1.9-3.3,3.9c0,2.1,1.2,3.9,3.3,3.9C-39.8,59.5-38.6,57.7-38.6,55.6z"/>
		<path class="st2" d="M-24.1,60.2v-6.4c0-1.3-0.6-2.1-1.8-2.1c-1,0-2.1,0.7-2.6,1.6v7h-1v-6.4c0-1.3-0.5-2.1-1.8-2.1
			c-1,0-2.1,0.7-2.6,1.6v6.9h-1V51h1v1.4c0.4-0.6,1.6-1.6,3-1.6s2.2,0.8,2.4,1.7c0.5-0.9,1.7-1.7,3-1.7c1.7,0,2.5,0.9,2.5,2.8v6.6
			H-24.1z"/>
		<path class="st2" d="M-20.5,55.6c0-2.7,1.9-4.8,4.4-4.8c2.8,0,4.3,2.2,4.3,4.9V56h-7.7c0.1,2,1.4,3.6,3.6,3.6c1.2,0,2.2-0.4,3-1.3
			l0.5,0.6c-0.9,1-2.1,1.5-3.6,1.5C-18.6,60.4-20.5,58.4-20.5,55.6z M-16.1,51.7c-2.2,0-3.2,1.9-3.3,3.5h6.7
			C-12.8,53.6-13.8,51.7-16.1,51.7z"/>
		<path class="st2" d="M-9.2,60.2V51h1v1.6c0.8-1,1.8-1.8,3.1-1.8v1.1c-0.2,0-0.3,0-0.5,0c-0.9,0-2.2,0.8-2.6,1.6v6.7L-9.2,60.2
			L-9.2,60.2z"/>
		<path class="st2" d="M8.5,60.2v-1.5c-0.6,1-1.8,1.7-3.2,1.7c-2.4,0-4.1-1.9-4.1-4.8c0-2.9,1.7-4.8,4.1-4.8c1.3,0,2.5,0.7,3.2,1.7
			v-5h1v12.7L8.5,60.2L8.5,60.2z M8.5,57.9v-4.5c-0.5-0.9-1.7-1.7-3-1.7c-2,0-3.2,1.7-3.2,3.9s1.2,3.9,3.2,3.9
			C6.8,59.5,8,58.8,8.5,57.9z"/>
		<path class="st2" d="M18.4,60.2v-1.1c-0.8,0.9-1.8,1.3-3.1,1.3c-1.6,0-3.2-1.1-3.2-3.1s1.6-3,3.2-3c1.3,0,2.3,0.4,3.1,1.3v-1.9
			c0-1.4-1.1-2.1-2.5-2.1c-1.2,0-2.1,0.4-2.9,1.3l-0.6-0.7c1-1,2-1.5,3.5-1.5c1.9,0,3.3,0.9,3.3,2.9v6.5h-0.8V60.2z M18.4,58.4v-2
			c-0.6-0.9-1.7-1.3-2.8-1.3c-1.5,0-2.5,1-2.5,2.3s1,2.3,2.5,2.3C16.7,59.7,17.8,59.2,18.4,58.4z"/>
		<path class="st2" d="M22.7,58.4v-6.5h-1.5V51h1.5v-2.5h1V51h1.9v0.9h-1.9v6.4c0,0.7,0.3,1.3,1,1.3c0.4,0,0.8-0.2,1-0.4l0.4,0.8
			c-0.4,0.3-0.8,0.6-1.6,0.6C23.3,60.4,22.7,59.7,22.7,58.4z"/>
		<path class="st2" d="M33.5,60.2v-1.1c-0.8,0.9-1.8,1.3-3.1,1.3c-1.6,0-3.2-1.1-3.2-3.1s1.6-3,3.2-3c1.3,0,2.3,0.4,3.1,1.3v-1.9
			c0-1.4-1.1-2.1-2.5-2.1c-1.2,0-2.1,0.4-2.9,1.3l-0.6-0.7c1-1,2-1.5,3.5-1.5c1.9,0,3.3,0.9,3.3,2.9v6.5h-0.8V60.2z M33.5,58.4v-2
			c-0.6-0.9-1.7-1.3-2.8-1.3c-1.5,0-2.5,1-2.5,2.3s1,2.3,2.5,2.3C31.9,59.7,32.9,59.2,33.5,58.4z"/>
	</g>
</g>
<path class="st3" d="M-155,159.2c0,6.5-5.1,12.8-11.6,12.8h-76.6c-6.5,0-13.8-6.2-13.8-12.8V83.5c0-6.5,7.3-10.5,13.8-10.5h76.6
	c6.5,0,11.6,4,11.6,10.5V159.2z"/>
<rect x="-254" y="145.5" class="st0" width="99.4" height="16.4"/>
<path class="st3" d="M-46,159.6c0,6.6-5.6,13.4-12.2,13.4h-77.3c-6.6,0-13.5-6.8-13.5-13.4V83.1c0-6.6,6.9-9.1,13.5-9.1h77.3
	c6.6,0,12.2,2.5,12.2,9.1V159.6z"/>
<path class="st3" d="M62,159.2c0,6.5-5.2,12.8-11.8,12.8h-76.6c-6.5,0-13.7-6.2-13.7-12.8V83.5C-40.1,77-33,73-26.4,73h76.6
	C56.7,73,62,77,62,83.5V159.2z"/>
<g>
	<g>
		<g>
			<rect x="-135.7" y="134.3" class="st0" width="76.5" height="30.3"/>
		</g>
		<g class="st1">
			<path class="st2" d="M-132.6,144.2v-10h3.2c3.1,0,5.1,2.3,5.1,5c0,2.8-1.9,5-5.1,5H-132.6z M-125.2,139.2c0-2.3-1.5-4.2-4.2-4.2
				h-2.3v8.4h2.3C-126.7,143.4-125.2,141.6-125.2,139.2z"/>
			<path class="st2" d="M-117.6,144.2v-0.9c-0.6,0.7-1.5,1-2.5,1c-1.2,0-2.5-0.9-2.5-2.4c0-1.6,1.3-2.4,2.5-2.4c1,0,1.8,0.3,2.5,1
				V139c0-1.1-0.9-1.7-1.9-1.7c-0.9,0-1.6,0.3-2.3,1.1l-0.4-0.5c0.8-0.8,1.6-1.2,2.8-1.2c1.5,0,2.6,0.7,2.6,2.3v5.1h-0.8V144.2z
				 M-117.6,142.8v-1.6c-0.5-0.7-1.3-1-2.2-1c-1.2,0-2,0.8-2,1.8s0.8,1.8,2,1.8C-118.9,143.8-118.1,143.5-117.6,142.8z"/>
			<path class="st2" d="M-114.2,142.8v-5.2h-1.2V137h1.2v-2h0.8v2h1.5v0.7h-1.5v5c0,0.6,0.2,1,0.8,1c0.3,0,0.6-0.2,0.8-0.3l0.3,0.6
				c-0.3,0.3-0.6,0.4-1.2,0.4C-113.8,144.4-114.2,143.8-114.2,142.8z"/>
			<path class="st2" d="M-105.7,144.2v-0.9c-0.6,0.7-1.5,1-2.5,1c-1.2,0-2.5-0.9-2.5-2.4c0-1.6,1.3-2.4,2.5-2.4c1,0,1.8,0.3,2.5,1
				V139c0-1.1-0.9-1.7-1.9-1.7c-0.9,0-1.6,0.3-2.3,1.1l-0.4-0.5c0.8-0.8,1.6-1.2,2.8-1.2c1.5,0,2.6,0.7,2.6,2.3v5.1h-0.8V144.2z
				 M-105.7,142.8v-1.6c-0.5-0.7-1.3-1-2.2-1c-1.2,0-2,0.8-2,1.8s0.8,1.8,2,1.8C-107,143.8-106.2,143.5-105.7,142.8z"/>
			<path class="st2" d="M-90.9,144.2l-2.4-8.6l-2.4,8.6h-1l-2.9-10h1l2.4,8.8l2.5-8.8h0.8l2.4,8.8l2.4-8.8h1l-2.8,10H-90.9z"/>
			<path class="st2" d="M-81.6,144.2v-0.9c-0.6,0.7-1.5,1-2.5,1c-1.2,0-2.5-0.9-2.5-2.4c0-1.6,1.3-2.4,2.5-2.4c1,0,1.8,0.3,2.5,1
				V139c0-1.1-0.9-1.7-1.9-1.7c-0.9,0-1.6,0.3-2.3,1.1l-0.4-0.5c0.8-0.8,1.6-1.2,2.8-1.2c1.5,0,2.6,0.7,2.6,2.3v5.1h-0.8V144.2z
				 M-81.6,142.8v-1.6c-0.5-0.7-1.3-1-2.2-1c-1.2,0-2,0.8-2,1.8s0.8,1.8,2,1.8C-82.9,143.8-82.1,143.5-81.6,142.8z"/>
			<path class="st2" d="M-78.4,144.2V137h0.8v1.2c0.6-0.8,1.4-1.4,2.4-1.4v0.9c-0.1,0-0.2,0-0.4,0c-0.7,0-1.7,0.7-2.1,1.3v5.3
				L-78.4,144.2L-78.4,144.2z"/>
			<path class="st2" d="M-74,140.6c0-2.1,1.5-3.8,3.5-3.8c2.2,0,3.4,1.7,3.4,3.8v0.2h-6.1c0.1,1.6,1.1,2.9,2.8,2.9
				c0.9,0,1.8-0.3,2.4-1l0.4,0.5c-0.7,0.8-1.6,1.2-2.8,1.2C-72.5,144.4-74,142.8-74,140.6z M-70.5,137.5c-1.7,0-2.6,1.5-2.6,2.8h5.3
				C-67.9,139-68.7,137.5-70.5,137.5z"/>
		</g>
		<g class="st1">
			<path class="st2" d="M-65.3,140.9v-0.7h3.6v0.7H-65.3z"/>
		</g>
		<g class="st1">
			<path class="st2" d="M-111.5,157.8v-4.9c0-1.4-0.7-1.8-1.8-1.8c-0.9,0-1.9,0.6-2.4,1.2v5.5h-0.8v-10h0.8v3.9
				c0.5-0.6,1.6-1.3,2.6-1.3c1.5,0,2.3,0.7,2.3,2.3v5.1L-111.5,157.8L-111.5,157.8z"/>
			<path class="st2" d="M-108.7,154.2c0-2.1,1.3-3.8,3.5-3.8c2.1,0,3.5,1.7,3.5,3.8s-1.3,3.8-3.5,3.8
				C-107.3,158-108.7,156.3-108.7,154.2z M-102.6,154.2c0-1.6-0.9-3.1-2.7-3.1c-1.7,0-2.6,1.5-2.6,3.1s1,3.1,2.6,3.1
				C-103.5,157.3-102.6,155.8-102.6,154.2z"/>
			<path class="st2" d="M-94.8,157.8v-1.1c-0.6,0.7-1.6,1.2-2.6,1.2c-1.5,0-2.3-0.7-2.3-2.3v-5.1h0.8v4.9c0,1.4,0.7,1.8,1.8,1.8
				c0.9,0,1.9-0.6,2.4-1.2v-5.5h0.8v7.2h-0.9V157.8z"/>
			<path class="st2" d="M-92.3,156.8l0.5-0.6c0.5,0.6,1.3,1.1,2.3,1.1c1.2,0,1.9-0.6,1.9-1.5c0-2-4.6-0.9-4.6-3.5c0-1.1,0.9-2,2.6-2
				c1.2,0,2.1,0.5,2.6,1.1l-0.4,0.6c-0.4-0.6-1.2-1-2.2-1c-1.1,0-1.8,0.6-1.8,1.3c0,1.8,4.6,0.7,4.6,3.5c0,1.2-0.9,2.1-2.7,2.1
				C-90.6,158-91.5,157.7-92.3,156.8z"/>
			<path class="st2" d="M-85.1,154.2c0-2.1,1.5-3.8,3.5-3.8c2.2,0,3.4,1.7,3.4,3.8v0.2h-6.1c0.1,1.6,1.1,2.9,2.8,2.9
				c0.9,0,1.8-0.3,2.4-1l0.4,0.5c-0.7,0.8-1.6,1.2-2.8,1.2C-83.6,158-85.1,156.4-85.1,154.2z M-81.7,151.1c-1.7,0-2.6,1.5-2.6,2.8
				h5.3C-79.1,152.6-79.9,151.1-81.7,151.1z"/>
		</g>
	</g>
	<g>
		<path class="st2" d="M-92.1,82.5H-106c-0.5,0-0.6,1.4-0.6,1.9v40.7c0,0.5,0.1,1.4,0.6,1.4h13.9c0.5,0,0.5-0.9,0.5-1.4V84.4
			C-91.6,83.9-91.6,82.5-92.1,82.5L-92.1,82.5z M-98.9,118.2c-1.7,0-3.1-1.4-3.1-3.1c0-1.7,1.4-3.1,3.1-3.1c1.7,0,3.1,1.4,3.1,3.1
			C-95.9,116.9-97.2,118.2-98.9,118.2L-98.9,118.2z M-93.6,102.5c0,0.5-0.2,0-0.6,0h-9.6c-0.5,0-0.8,0.5-0.8,0v-0.9
			c0-0.5,0.3-1.1,0.8-1.1h9.6c0.5,0,0.6,0.6,0.6,1.1V102.5z M-93.6,98.1c0,0.5-0.2,0.4-0.6,0.4h-9.6c-0.5,0-0.8,0.1-0.8-0.4v-0.9
			c0-0.5,0.3-0.7,0.8-0.7h9.6c0.5,0,0.6,0.2,0.6,0.7V98.1z M-93.6,93.7c0,0.5-0.2,0.8-0.6,0.8h-9.6c-0.5,0-0.8-0.3-0.8-0.8v-0.9
			c0-0.5,0.3-1.3,0.8-1.3h9.6c0.5,0,0.6,0.8,0.6,1.3V93.7z M-93.6,89.2c0,0.5-0.2,1.3-0.6,1.3h-9.6c-0.5,0-0.8-0.8-0.8-1.3v-0.9
			c0-0.5,0.3-0.9,0.8-0.9h9.6c0.5,0,0.6,0.4,0.6,0.9V89.2z"/>
		<path class="st2" d="M-71.6,88.2c0-0.4-0.4-0.8-0.9-0.8c-4.1-0.4-8.3-0.7-12.4-1.1c0,0-0.5,0-0.6,0l-5.1,1.2v37.8l5.3,0.7
			c0.1,0,0.3,0,0.3,0c4.1-0.4,8.4-0.8,12.5-1.2c0.4,0,0.9-0.4,0.9-0.8C-71.6,114.4-71.6,97.8-71.6,88.2L-71.6,88.2z M-83.6,90.8
			c0-0.4,0.3-0.8,0.7-0.8c2.8,0.2,5.7,0.4,8.5,0.6c0.4,0,0.8,0.4,0.8,0.8v0.8c0,0.4-0.4,0.7-0.8,0.7c-2.8-0.2-5.6-0.3-8.5-0.5
			c-0.4,0-0.7-0.4-0.7-0.9V90.8z M-73.6,103.7c0,0.4-0.4,0.8-0.8,0.8c-2.8,0-5.6,0.1-8.5,0.1c-0.4,0-0.7-0.4-0.7-0.8V103
			c0-0.4,0.3-0.8,0.7-0.8c2.8,0,5.7,0,8.5,0c0.4,0,0.8,0.3,0.8,0.8V103.7z M-74.4,100.6c-2.8,0-5.6-0.1-8.4-0.1
			c-0.4,0-0.7-0.4-0.7-0.8v-0.8c0-0.4,0.3-0.8,0.7-0.8c2.8,0.1,5.6,0.1,8.5,0.2c0.4,0,0.8,0.4,0.8,0.8c0,0.3,0,0.5,0,0.8
			C-73.7,100.3-73.9,100.6-74.4,100.6L-74.4,100.6z M-73.6,96.1c0,0.4-0.4,0.7-0.8,0.7c-2.8-0.1-5.6-0.2-8.5-0.3
			c-0.4,0-0.7-0.4-0.7-0.8v-0.8c0-0.4,0.3-0.8,0.7-0.8c2.8,0.1,5.7,0.3,8.5,0.4c0.4,0,0.8,0.4,0.8,0.8V96.1z"/>
		<path class="st2" d="M-113.2,86.3c-4.1,0.4-8.2,0.7-12.3,1.1c-0.4,0-0.8,0.4-0.8,0.8c0,9.6,0,26.2,0,35.8c0,0.4,0.4,0.8,0.8,0.8
			c4.1,0.4,8.2,0.8,12.3,1.2c0,0-0.2,0-0.1,0l4.7-0.7V87.5L-113.2,86.3C-113.2,86.3-113.1,86.3-113.2,86.3L-113.2,86.3z
			 M-114.6,103.7c0,0.4-0.2,0.8-0.6,0.8c-2.8,0-5.2-0.1-8-0.1c-0.4,0-0.3-0.3-0.3-0.8v-0.8c0-0.4,0-0.8,0.4-0.8c2.8,0,5.3,0,8.2,0
			c0.4,0,0.4,0.4,0.4,0.8L-114.6,103.7L-114.6,103.7z M-114.6,99.7c0,0.4-0.2,0.8-0.6,0.8c-2.8,0-5.2,0.1-8,0.1
			c-0.4,0-0.3-0.3-0.3-0.8c0-0.3,0-0.5,0-0.8c0-0.4,0-0.8,0.4-0.8c2.8-0.1,5.3-0.1,8.2-0.2c0.4,0,0.4,0.3,0.4,0.8L-114.6,99.7
			L-114.6,99.7z M-114.6,95.7c0,0.4-0.2,0.8-0.6,0.8c-2.8,0.1-5.2,0.2-8,0.3c-0.4,0-0.3-0.3-0.3-0.7v-0.8c0-0.4,0-0.8,0.4-0.8
			c2.8-0.1,5.3-0.3,8.2-0.4c0.4,0,0.4,0.3,0.4,0.8L-114.6,95.7L-114.6,95.7z M-114.6,91.6c0,0.4-0.2,0.8-0.6,0.9
			c-2.8,0.2-5.2,0.3-8,0.5c-0.4,0-0.3-0.3-0.3-0.7v-0.8c0-0.4,0-0.8,0.4-0.8c2.8-0.2,5.3-0.4,8.2-0.6c0.4,0,0.4,0.3,0.4,0.8
			L-114.6,91.6L-114.6,91.6z"/>
	</g>
</g>
<g>
	<g>
		<g>
			<rect x="-27.7" y="142.5" class="st0" width="77.4" height="17.7"/>
		</g>
		<g class="st1">
			<path class="st2" d="M-24.3,147.5c0-3.1,2.2-5.2,5.1-5.2c1.6,0,2.8,0.7,3.6,1.8l-0.7,0.5c-0.6-0.9-1.7-1.5-2.9-1.5
				c-2.3,0-4.2,1.8-4.2,4.4s1.8,4.4,4.2,4.4c1.2,0,2.3-0.6,2.9-1.5l0.7,0.5c-0.9,1.1-2.1,1.8-3.7,1.8
				C-22.1,152.7-24.3,150.6-24.3,147.5z"/>
			<path class="st2" d="M-9.3,152.5v-0.9c-0.6,0.7-1.5,1-2.5,1c-1.2,0-2.5-0.9-2.5-2.4c0-1.6,1.3-2.4,2.5-2.4c1,0,1.8,0.3,2.5,1
				v-1.5c0-1.1-0.9-1.7-1.9-1.7c-0.9,0-1.6,0.3-2.3,1.1l-0.4-0.5c0.8-0.8,1.6-1.2,2.8-1.2c1.5,0,2.6,0.7,2.6,2.3v5.1h-0.8V152.5z
				 M-9.3,151.1v-1.6c-0.5-0.7-1.3-1-2.2-1c-1.2,0-2,0.8-2,1.8s0.8,1.8,2,1.8C-10.6,152.1-9.8,151.7-9.3,151.1z"/>
			<path class="st2" d="M-6.1,152.5v-10h0.8v10H-6.1z"/>
			<path class="st2" d="M-2.9,152.5v-10h0.8v10H-2.9z"/>
			<path class="st2" d="M3.9,147.5c0-3.1,2.2-5.2,5.1-5.2c1.6,0,2.8,0.7,3.6,1.8l-0.7,0.5c-0.6-0.9-1.7-1.5-2.9-1.5
				c-2.3,0-4.2,1.8-4.2,4.4s1.8,4.4,4.2,4.4c1.2,0,2.3-0.6,2.9-1.5l0.7,0.5c-0.9,1.1-2.1,1.8-3.7,1.8C6.1,152.7,3.9,150.6,3.9,147.5
				z"/>
			<path class="st2" d="M13.9,148.9c0-2.1,1.5-3.8,3.5-3.8c2.2,0,3.4,1.7,3.4,3.8v0.2h-6.1c0.1,1.6,1.1,2.9,2.8,2.9
				c0.9,0,1.8-0.3,2.4-1l0.4,0.5c-0.7,0.8-1.6,1.2-2.8,1.2C15.4,152.7,13.9,151.1,13.9,148.9z M17.4,145.8c-1.7,0-2.6,1.5-2.6,2.8
				h5.3C20,147.3,19.2,145.8,17.4,145.8z"/>
			<path class="st2" d="M27.7,152.5v-4.9c0-1.4-0.7-1.8-1.8-1.8c-0.9,0-1.9,0.6-2.4,1.2v5.5h-0.8v-7.2h0.8v1.1
				c0.5-0.6,1.6-1.3,2.6-1.3c1.5,0,2.3,0.7,2.3,2.4v5.1h-0.7V152.5z"/>
			<path class="st2" d="M31.1,151.1V146h-1.2v-0.7h1.2v-2h0.8v2h1.5v0.7h-1.5v5c0,0.6,0.2,1,0.8,1c0.3,0,0.6-0.2,0.8-0.3l0.3,0.6
				c-0.3,0.3-0.6,0.4-1.2,0.4C31.5,152.7,31.1,152.1,31.1,151.1z"/>
			<path class="st2" d="M35,152.5v-7.2h0.8v1.2c0.6-0.8,1.4-1.4,2.4-1.4v0.9c-0.1,0-0.2,0-0.4,0c-0.7,0-1.7,0.7-2.1,1.3v5.3
				L35,152.5L35,152.5z"/>
			<path class="st2" d="M39.4,148.9c0-2.1,1.5-3.8,3.5-3.8c2.2,0,3.4,1.7,3.4,3.8v0.2h-6.1c0.1,1.6,1.1,2.9,2.8,2.9
				c0.9,0,1.8-0.3,2.4-1l0.4,0.5c-0.7,0.8-1.6,1.2-2.8,1.2C40.9,152.7,39.4,151.1,39.4,148.9z M42.8,145.8c-1.7,0-2.6,1.5-2.6,2.8
				h5.3C45.5,147.3,44.7,145.8,42.8,145.8z"/>
		</g>
	</g>
	<g>
		<path class="st2" d="M32.8,123.6v6.4h-40v-6.5c0-2.8,2.5-6.3,5.5-7.7l6.6-3.1l4.6,9.5l2.4-6.3c0.5,0.1,0.9,0.2,1.4,0.2
			s0.9-0.1,1.4-0.2l2.2,6l4.5-9.3l6.4,3.2C30.6,117.3,32.8,120.6,32.8,123.6L32.8,123.6z M-1.2,102.7v-4.3c0-0.7,0.5-1.4,1-1.7
			C0.6,90,6.3,84.8,13.2,84.8S25.9,90,26.7,96.7c0.6,0.4,1.1,1,1.1,1.7v4.3c0,1.1-0.9,2.1-2,2.1s-2-0.9-2-2.1v-0.9
			c-1,5.6-5.1,10.8-10,10.8s-9-5.2-10-10.8v0.9c0,0.9-1,1.7-1.8,2c0.8,2.8,2.5,5.2,5,6.8c0.5-0.2,1-0.1,1.5,0.2
			c0.9,0.5,1.3,1.4,1,2.1c-0.3,0.7-1.4,0.8-2.3,0.3c-0.7-0.3-1.1-0.9-1.1-1.5c-2.9-1.8-5-4.7-5.9-7.9
			C-0.6,104.4-1.2,103.6-1.2,102.7L-1.2,102.7z M1.4,96.2c0.1,0,0.1,0,0.2,0c0.2,0,0.3,0.2,0.3,0.3c0.4,0.2,0.8,0.5,1,1
			c0.6-5.7,5-8.7,10.4-8.7s9.8,3,10.4,8.7c0.3-0.6,0.9-1,1.6-1.1c-0.9-5.8-5.9-10.2-11.9-10.2C7.3,86.2,2.3,90.5,1.4,96.2L1.4,96.2z
			"/>
	</g>
</g>
<g>
	<g class="st1">
		<path class="st2" d="M-219.2,151.3c0-3.1,2.2-5.2,5.1-5.2c1.6,0,2.8,0.7,3.6,1.8l-0.7,0.5c-0.6-0.9-1.7-1.5-2.9-1.5
			c-2.3,0-4.2,1.8-4.2,4.4s1.8,4.4,4.2,4.4c1.2,0,2.3-0.6,2.9-1.5l0.7,0.5c-0.9,1.1-2.1,1.8-3.7,1.8
			C-217,156.4-219.2,154.3-219.2,151.3z"/>
		<path class="st2" d="M-202.9,156.3l-2.8-4.1h-2.2v4.1h-0.9v-10h3.7c1.7,0,3,1.1,3,2.9s-1.3,2.8-2.8,2.9l2.9,4.2H-202.9z
			 M-202.9,149.2c0-1.3-0.9-2.1-2.2-2.1h-2.8v4.3h2.8C-203.8,151.3-202.9,150.4-202.9,149.2z"/>
		<path class="st2" d="M-191.4,156.3v-8.9l-3.6,8.9h-0.3l-3.7-8.9v8.9h-0.9v-10h1.3l3.4,8.3l3.4-8.3h1.3v10H-191.4z"/>
	</g>
	<g>
		<path class="st2" d="M-203.6,99c1.4-1,2.4-2.8,2.4-4.8c0-2.8-0.6-5.6-4.8-5.6c-4.2,0-4.8,2.8-4.8,5.6c0,2.1,0.9,3.9,2.4,4.8
			c-3.1,0.9-5.4,3.6-5.4,6.8c0,1.6,0.8,2.8,2.5,3.5c1.2,0.5,2.9,0.7,5.3,0.7s4.1-0.2,5.3-0.7c1.6-0.7,2.5-1.8,2.5-3.5
			C-198.2,102.7-200.5,100-203.6,99L-203.6,99z"/>
		<path class="st2" d="M-218.5,120.2c1.4-1,2.4-2.8,2.4-4.8c0-2.8-0.6-5.6-4.8-5.6c-4.2,0-4.8,2.9-4.8,5.6c0,2.1,1,3.9,2.4,4.8
			c-3.1,0.9-5.4,3.6-5.4,6.8c0,1.6,0.8,2.8,2.5,3.5c1.2,0.5,2.9,0.7,5.3,0.7c2.4,0,4.1-0.2,5.3-0.7c1.7-0.7,2.5-1.8,2.5-3.5
			C-213.1,123.8-215.4,121.1-218.5,120.2L-218.5,120.2z"/>
		<path class="st2" d="M-188.7,120.2c1.4-1,2.4-2.8,2.4-4.8c0-2.8-0.6-5.6-4.8-5.6c-4.2,0-4.8,2.9-4.8,5.6c0,2.1,0.9,3.9,2.4,4.8
			c-3.1,0.9-5.4,3.6-5.4,6.8c0,1.6,0.8,2.8,2.5,3.5c1.2,0.5,2.9,0.7,5.3,0.7c2.4,0,4.1-0.2,5.3-0.7c1.7-0.7,2.5-1.8,2.5-3.5
			C-183.4,123.8-185.6,121.1-188.7,120.2L-188.7,120.2z"/>
		<path class="st2" d="M-200.8,130.8c-0.1-0.1-0.2-0.2-0.3-0.3s-0.3-0.1-0.4,0c-1.2,0.5-2.7,0.7-4.5,0.7c-1.9,0-3.3-0.2-4.5-0.7
			c-0.1-0.1-0.3-0.1-0.4,0s-0.2,0.2-0.3,0.3l-0.4,1c-0.1,0.3,0,0.6,0.3,0.7c1.5,0.6,3.2,0.9,5.4,0.9c2.1,0,3.9-0.3,5.4-0.9
			c0.3-0.1,0.4-0.4,0.3-0.7L-200.8,130.8z"/>
		<path class="st2" d="M-222.4,106.8l1,0.4c0.1,0,0.1,0,0.2,0c0.2,0,0.4-0.1,0.5-0.3c0.5-1.2,1.4-2.4,2.7-3.7
			c1.3-1.3,2.5-2.2,3.7-2.7c0.1-0.1,0.2-0.2,0.3-0.3s0.1-0.3,0-0.4l-0.4-1c-0.1-0.3-0.4-0.4-0.7-0.3c-1.4,0.6-2.9,1.7-4.4,3.2
			s-2.6,3-3.2,4.4C-222.8,106.4-222.7,106.7-222.4,106.8L-222.4,106.8z"/>
		<path class="st2" d="M-197.8,100.6c1.2,0.5,2.4,1.4,3.7,2.7c1.3,1.3,2.2,2.5,2.7,3.7c0.1,0.2,0.3,0.3,0.5,0.3c0.1,0,0.1,0,0.2,0
			l1-0.4c0.3-0.1,0.4-0.4,0.3-0.7c-0.6-1.4-1.7-2.9-3.2-4.4s-3-2.6-4.4-3.2c-0.3-0.1-0.6,0-0.7,0.3l-0.4,1c-0.1,0.1-0.1,0.3,0,0.4
			C-198,100.4-197.9,100.5-197.8,100.6L-197.8,100.6z"/>
	</g>
</g>
<path class="st3" d="M-105,266.3c0,6.5-4.5,13.7-11,13.7h-76.5c-6.5,0-14.5-7.1-14.5-13.7v-75.7c0-6.5,7.9-9.7,14.5-9.7h76.5
	c6.5,0,11,3.1,11,9.7V266.3z"/>
<rect x="-202.8" y="246.9" class="st0" width="98.4" height="27.1"/>
<path class="st3" d="M8,266.3C8,272.8,3.1,280-3.5,280H-80c-6.5,0-14-7.1-14-13.7v-75.7c0-6.5,7.5-9.7,14-9.7h76.5
	C3,180.9,8,184,8,190.6V266.3z"/>
<g>
	<g class="st1">
		<path class="st2" d="M-177.9,253.5v-10h0.9v9.2h4.8v0.8H-177.9z"/>
		<path class="st2" d="M-171.3,249.9c0-2.1,1.4-3.8,3.5-3.8s3.5,1.7,3.5,3.8s-1.3,3.8-3.5,3.8C-169.9,253.7-171.3,252-171.3,249.9z
			 M-165.1,249.9c0-1.6-0.9-3.1-2.7-3.1c-1.7,0-2.6,1.5-2.6,3.1s1,3.1,2.6,3.1C-166.1,253-165.1,251.5-165.1,249.9z"/>
		<path class="st2" d="M-162.6,255.7c0.2,0.1,0.4,0.1,0.6,0.1c0.5,0,0.8-0.2,1.1-0.9l0.6-1.3l-3.1-7.3h0.9l2.6,6.3l2.6-6.3h0.9
			l-3.8,8.8c-0.4,0.9-1,1.3-1.8,1.3c-0.3,0-0.6,0-0.8-0.1L-162.6,255.7z"/>
		<path class="st2" d="M-150.5,253.5v-0.9c-0.6,0.7-1.5,1-2.5,1c-1.2,0-2.5-0.9-2.5-2.4c0-1.6,1.3-2.4,2.5-2.4c1,0,1.8,0.3,2.5,1
			v-1.5c0-1.1-0.9-1.7-1.9-1.7c-0.9,0-1.6,0.3-2.3,1.1l-0.4-0.5c0.8-0.8,1.6-1.2,2.8-1.2c1.5,0,2.6,0.7,2.6,2.3v5.1h-0.8V253.5z
			 M-150.5,252.1v-1.6c-0.5-0.7-1.3-1-2.2-1c-1.2,0-2,0.8-2,1.8s0.8,1.8,2,1.8C-151.8,253.1-151,252.8-150.5,252.1z"/>
		<path class="st2" d="M-147.3,253.5v-10h0.8v10H-147.3z"/>
		<path class="st2" d="M-143.9,252.2V247h-1.2v-0.7h1.2v-2h0.8v2h1.5v0.7h-1.5v5c0,0.6,0.2,1,0.7,1c0.3,0,0.6-0.2,0.8-0.3l0.3,0.6
			c-0.3,0.3-0.6,0.4-1.2,0.4C-143.4,253.7-143.9,253.1-143.9,252.2z"/>
		<path class="st2" d="M-140.3,255.7c0.2,0.1,0.4,0.1,0.6,0.1c0.5,0,0.8-0.2,1.1-0.9l0.6-1.3l-3.1-7.3h0.9l2.6,6.3l2.6-6.3h0.9
			l-3.8,8.8c-0.4,0.9-1,1.3-1.8,1.3c-0.3,0-0.6,0-0.8-0.1L-140.3,255.7z"/>
	</g>
	<g class="st1">
		<path class="st2" d="M-185,266v3.9h-0.8v-10h0.8v1.1c0.5-0.7,1.4-1.3,2.5-1.3c1.9,0,3.2,1.5,3.2,3.8s-1.3,3.8-3.2,3.8
			C-183.5,267.3-184.5,266.8-185,266z M-180.1,263.5c0-1.8-0.9-3.1-2.5-3.1c-1,0-2,0.6-2.4,1.3v3.6c0.4,0.7,1.4,1.3,2.4,1.3
			C-181,266.6-180.1,265.3-180.1,263.5z"/>
		<path class="st2" d="M-177.3,267.1v-7.2h0.8v1.2c0.6-0.8,1.4-1.4,2.4-1.4v0.9c-0.1,0-0.2,0-0.4,0c-0.7,0-1.7,0.7-2.1,1.3v5.3
			L-177.3,267.1L-177.3,267.1z"/>
		<path class="st2" d="M-173,263.5c0-2.1,1.4-3.8,3.5-3.8s3.5,1.7,3.5,3.8s-1.3,3.8-3.5,3.8C-171.6,267.3-173,265.6-173,263.5z
			 M-166.9,263.5c0-1.6-0.9-3.1-2.7-3.1c-1.7,0-2.6,1.5-2.6,3.1s1,3.1,2.6,3.1C-167.8,266.6-166.9,265.1-166.9,263.5z"/>
		<path class="st2" d="M-164,269l0.5-0.6c0.6,0.8,1.3,1,2.4,1c1.3,0,2.5-0.7,2.5-2.3v-1.2c-0.5,0.8-1.4,1.4-2.5,1.4
			c-1.9,0-3.2-1.5-3.2-3.8s1.3-3.8,3.2-3.8c1,0,1.9,0.5,2.5,1.3v-1.2h0.8v7.2c0,2.2-1.5,3-3.3,3C-162.4,270.1-163.1,269.9-164,269z
			 M-158.7,265.3v-3.5c-0.4-0.7-1.4-1.3-2.4-1.3c-1.6,0-2.5,1.3-2.5,3.1s0.9,3.1,2.5,3.1C-160,266.6-159.1,266-158.7,265.3z"/>
		<path class="st2" d="M-155.5,267.1v-7.2h0.8v1.2c0.6-0.8,1.4-1.4,2.4-1.4v0.9c-0.1,0-0.2,0-0.4,0c-0.7,0-1.7,0.7-2.1,1.3v5.3
			L-155.5,267.1L-155.5,267.1z"/>
		<path class="st2" d="M-146.1,267.1v-0.9c-0.6,0.7-1.5,1-2.5,1c-1.2,0-2.5-0.9-2.5-2.4c0-1.6,1.3-2.4,2.5-2.4c1,0,1.8,0.3,2.5,1
			v-1.5c0-1.1-0.9-1.7-1.9-1.7c-0.9,0-1.6,0.3-2.3,1.1l-0.4-0.5c0.8-0.8,1.6-1.2,2.8-1.2c1.5,0,2.6,0.7,2.6,2.3v5.1h-0.8V267.1z
			 M-146.1,265.7v-1.6c-0.5-0.7-1.3-1-2.2-1c-1.2,0-2,0.8-2,1.8s0.8,1.8,2,1.8C-147.4,266.7-146.6,266.4-146.1,265.7z"/>
		<path class="st2" d="M-134.3,267.1V262c0-1-0.4-1.7-1.5-1.7c-0.8,0-1.7,0.6-2.1,1.2v5.5h-0.8v-5.1c0-1-0.4-1.7-1.4-1.7
			c-0.8,0-1.7,0.6-2.1,1.2v5.5h-0.8v-7.2h0.8v1.1c0.3-0.5,1.3-1.3,2.3-1.3c1.1,0,1.7,0.7,1.9,1.4c0.4-0.7,1.4-1.4,2.4-1.4
			c1.3,0,2,0.8,2,2.2v5.2h-0.7V267.1z"/>
		<path class="st2" d="M-131.7,266.2l0.5-0.6c0.5,0.6,1.3,1.1,2.3,1.1c1.2,0,1.9-0.6,1.9-1.5c0-2-4.6-0.9-4.6-3.5c0-1.1,0.9-2,2.6-2
			c1.2,0,2.1,0.5,2.6,1.1l-0.4,0.6c-0.4-0.6-1.2-1-2.2-1c-1.1,0-1.8,0.6-1.8,1.3c0,1.8,4.6,0.7,4.6,3.5c0,1.2-0.9,2.1-2.7,2.1
			C-130.1,267.3-131,267-131.7,266.2z"/>
	</g>
	<g>
		<path class="st2" d="M-176.4,218.7c0,0,0.5-2.1-1.2-3.8c-1.7-1.8-3.9-1.8-3.9-1.8s-0.5,2.4,1.1,4.2
			C-178.6,218.9-176.4,218.7-176.4,218.7L-176.4,218.7z"/>
		<path class="st2" d="M-172.6,218.3c0,0,2-1.1,2.4-3.5s-1.5-4.1-1.5-4.1s-1.8,1.2-2.1,3.7C-174.2,216.9-172.6,218.3-172.6,218.3
			L-172.6,218.3z"/>
		<path class="st2" d="M-169.6,224.3c0,0,1.8-1.3,1.9-3.8c0.1-2.4-2-3.8-2-3.8s-1.6,1.5-1.6,4C-171.3,223.1-169.6,224.3-169.6,224.3
			L-169.6,224.3z"/>
		<path class="st2" d="M-163.5,223.9c-0.2-2.4-2.3-3.6-2.3-3.6s-1.4,1.6-1.3,4.1c0.2,2.5,2.1,3.5,2.1,3.5S-163.3,226.3-163.5,223.9
			L-163.5,223.9z"/>
		<path class="st2" d="M-159.3,230.8c0,0,1.2-1.9,0.3-4.2c-0.9-2.3-3.3-2.8-3.3-2.8s-0.9,2,0,4.3S-159.3,230.8-159.3,230.8
			L-159.3,230.8z"/>
		<path class="st2" d="M-175.5,213.4c0,0,1.6-1.4,1.1-3.9c-0.4-2.4-2.2-3.6-2.2-3.6s-1.8,1.7-1.4,4.1
			C-177.6,212.3-175.5,213.4-175.5,213.4L-175.5,213.4z"/>
		<path class="st2" d="M-174.3,223.3c0,0-0.1-2.1-2.3-3.3c-2.2-1.2-4.2-0.6-4.2-0.6s0.2,2.5,2.3,3.6
			C-176.4,224.3-174.3,223.3-174.3,223.3L-174.3,223.3z"/>
		<path class="st2" d="M-170.6,227.5c0,0-0.6-2-3-2.7c-2.4-0.7-4.3,0.4-4.3,0.4s0.7,2.4,3.1,3C-172.5,228.8-170.6,227.5-170.6,227.5
			L-170.6,227.5z"/>
		<path class="st2" d="M-166.5,230.4c0,0-1.2-1.8-3.7-1.7c-2.5,0.1-4,1.7-4,1.7s1.4,2,3.9,2C-167.9,232.3-166.5,230.4-166.5,230.4
			L-166.5,230.4z"/>
		<path class="st2" d="M-164.8,231.6c-2.4,0.4-3.7,2.1-3.7,2.1s1.7,1.8,4.1,1.5c2.4-0.3,3.5-2.3,3.5-2.3S-162.3,231.3-164.8,231.6
			L-164.8,231.6z"/>
		<path class="st2" d="M-174.7,214.6l-1.2-0.1c0,0.1-0.3,13,19.1,18.7l0.3-1.1C-174.9,226.6-174.7,215.1-174.7,214.6L-174.7,214.6z"
			/>
		<path class="st2" d="M-134.3,218.7c0,0,2.3,0.3,4-1.5s1.1-4.2,1.1-4.2s-2.2,0-3.9,1.8C-134.8,216.6-134.3,218.7-134.3,218.7
			L-134.3,218.7z"/>
		<path class="st2" d="M-140.5,214.8c0.4,2.4,2.4,3.5,2.4,3.5s1.6-1.4,1.2-3.8c-0.4-2.5-2.1-3.7-2.1-3.7S-140.9,212.4-140.5,214.8
			L-140.5,214.8z"/>
		<path class="st2" d="M-141.1,216.7c0,0-2,1.4-2,3.9c0.1,2.4,1.9,3.8,1.9,3.8s1.8-1.2,1.7-3.7
			C-139.5,218.2-141.1,216.7-141.1,216.7L-141.1,216.7z"/>
		<path class="st2" d="M-147.2,223.9c-0.2,2.4,1.5,3.9,1.5,3.9s1.9-1,2.1-3.5c0.2-2.5-1.3-4.1-1.3-4.1S-147,221.5-147.2,223.9
			L-147.2,223.9z"/>
		<path class="st2" d="M-151.7,226.6c-0.9,2.3,0.3,4.2,0.3,4.2s2.1-0.4,3-2.7c0.9-2.3,0-4.3,0-4.3S-150.8,224.4-151.7,226.6
			L-151.7,226.6z"/>
		<path class="st2" d="M-135.2,213.4c0,0,2-1,2.5-3.4c0.4-2.4-1.4-4.1-1.4-4.1s-1.8,1.2-2.2,3.7C-136.7,212-135.2,213.4-135.2,213.4
			L-135.2,213.4z"/>
		<path class="st2" d="M-134.1,220.1c-2.2,1.2-2.3,3.3-2.3,3.3s2.1,0.9,4.2-0.3c2.1-1.2,2.3-3.7,2.3-3.7S-131.9,218.8-134.1,220.1
			L-134.1,220.1z"/>
		<path class="st2" d="M-137.1,224.8c-2.4,0.7-3,2.7-3,2.7s1.8,1.4,4.2,0.7c2.3-0.7,3.1-3.1,3.1-3.1S-134.7,224.1-137.1,224.8
			L-137.1,224.8z"/>
		<path class="st2" d="M-140.5,228.7c-2.5-0.1-3.7,1.7-3.7,1.7s1.3,1.9,3.8,1.9c2.4,0.1,3.8-2,3.8-2S-138,228.8-140.5,228.7
			L-140.5,228.7z"/>
		<path class="st2" d="M-145.9,231.6c-2.5-0.4-3.8,1.3-3.8,1.3s1.1,2,3.5,2.3c2.4,0.4,4.1-1.5,4.1-1.5S-143.4,232-145.9,231.6
			L-145.9,231.6z"/>
		<path class="st2" d="M-134.8,214.6h-1.2c0,0.5,0.2,12.1-18.2,17.6l0.3,1.1C-134.5,227.5-134.8,214.7-134.8,214.6L-134.8,214.6z"/>
		<path class="st2" d="M-146.2,219.7l-1.3-10.9l7.4-7.4l-10.6-1.4l-4.9-9.2l0,0l-4.6,9.2l-10.4,1.4l7.4,7.4l-1.4,10.9l9.2-5l0,0
			L-146.2,219.7z"/>
	</g>
</g>
<g>
	<rect x="-98.7" y="245.4" class="st0" width="111.5" height="27.1"/>
	<g class="st1">
		<path class="st2" d="M-73.5,250.4c0-3.1,2.2-5.2,5.1-5.2c1.6,0,2.8,0.7,3.6,1.8l-0.7,0.5c-0.6-0.9-1.7-1.5-2.9-1.5
			c-2.3,0-4.2,1.8-4.2,4.4s1.8,4.4,4.2,4.4c1.2,0,2.3-0.6,2.9-1.5l0.7,0.5c-0.9,1.1-2.1,1.8-3.7,1.8
			C-71.3,255.6-73.5,253.5-73.5,250.4z"/>
		<path class="st2" d="M-58.2,255.4v-1.1c-0.6,0.7-1.6,1.2-2.6,1.2c-1.5,0-2.3-0.7-2.3-2.3v-5.1h0.8v4.9c0,1.4,0.7,1.8,1.8,1.8
			c0.9,0,1.9-0.6,2.4-1.2v-5.5h0.8v7.2h-0.9V255.4z"/>
		<path class="st2" d="M-55.6,254.5l0.5-0.6c0.5,0.6,1.3,1.1,2.3,1.1c1.2,0,1.9-0.6,1.9-1.5c0-2-4.6-0.9-4.6-3.5c0-1.1,0.9-2,2.6-2
			c1.2,0,2.1,0.5,2.6,1.1l-0.4,0.6c-0.4-0.6-1.2-1-2.2-1c-1.1,0-1.8,0.6-1.8,1.3c0,1.8,4.6,0.7,4.6,3.5c0,1.2-0.9,2.1-2.7,2.1
			C-54,255.6-54.9,255.3-55.6,254.5z"/>
		<path class="st2" d="M-48,254v-5.2h-1.2v-0.7h1.2v-2h0.8v2h1.5v0.7h-1.5v5c0,0.6,0.2,1,0.8,1c0.3,0,0.6-0.2,0.8-0.3l0.3,0.6
			c-0.3,0.3-0.6,0.4-1.2,0.4C-47.5,255.6-48,255-48,254z"/>
		<path class="st2" d="M-44.4,251.8c0-2.1,1.3-3.8,3.5-3.8c2.1,0,3.5,1.7,3.5,3.8s-1.3,3.8-3.5,3.8
			C-43.1,255.6-44.4,253.9-44.4,251.8z M-38.3,251.8c0-1.6-0.9-3.1-2.7-3.1c-1.7,0-2.6,1.5-2.6,3.1s1,3.1,2.6,3.1
			C-39.2,254.9-38.3,253.4-38.3,251.8z"/>
		<path class="st2" d="M-26.8,255.4v-5.1c0-1-0.4-1.7-1.5-1.7c-0.8,0-1.7,0.6-2.1,1.2v5.5h-0.8v-5.1c0-1-0.4-1.7-1.4-1.7
			c-0.8,0-1.6,0.6-2.1,1.2v5.5h-0.8V248h0.8v1.1c0.3-0.5,1.3-1.3,2.3-1.3c1.1,0,1.7,0.7,1.9,1.4c0.4-0.7,1.4-1.4,2.4-1.4
			c1.3,0,2,0.8,2,2.2v5.2h-0.7V255.4z"/>
		<path class="st2" d="M-24,251.8c0-2.1,1.5-3.8,3.5-3.8c2.2,0,3.4,1.7,3.4,3.8v0.2h-6.1c0.1,1.6,1.1,2.9,2.8,2.9
			c0.9,0,1.8-0.3,2.4-1l0.4,0.5c-0.7,0.8-1.6,1.2-2.8,1.2C-22.5,255.6-24,254-24,251.8z M-20.5,248.7c-1.7,0-2.6,1.5-2.6,2.8h5.3
			C-17.9,250.2-18.7,248.7-20.5,248.7z"/>
		<path class="st2" d="M-15.1,255.4v-7.2h0.8v1.2c0.6-0.8,1.4-1.4,2.4-1.4v0.9c-0.1,0-0.2,0-0.4,0c-0.7,0-1.7,0.7-2.1,1.3v5.3
			L-15.1,255.4L-15.1,255.4z"/>
	</g>
	<g class="st1">
		<path class="st2" d="M-71.9,269v-6.6h-1.2v-0.7h1.2V261c0-1.4,0.8-2.3,2-2.3c0.5,0,0.9,0.1,1.4,0.5L-69,260
			c-0.2-0.2-0.5-0.4-0.9-0.4c-0.8,0-1.2,0.6-1.2,1.5v0.7h1.5v0.7h-1.5v6.6h-0.8V269z"/>
		<path class="st2" d="M-68.6,265.4c0-2.1,1.5-3.8,3.5-3.8c2.2,0,3.4,1.7,3.4,3.8v0.2h-6.1c0.1,1.6,1.1,2.9,2.8,2.9
			c0.9,0,1.8-0.3,2.4-1l0.4,0.5c-0.7,0.8-1.6,1.2-2.8,1.2C-67.1,269.2-68.6,267.6-68.6,265.4z M-65.1,262.3c-1.7,0-2.6,1.5-2.6,2.8
			h5.3C-62.5,263.8-63.3,262.3-65.1,262.3z"/>
		<path class="st2" d="M-60.1,265.4c0-2.1,1.5-3.8,3.5-3.8c2.2,0,3.4,1.7,3.4,3.8v0.2h-6.1c0.1,1.6,1.1,2.9,2.8,2.9
			c0.9,0,1.8-0.3,2.4-1l0.4,0.5c-0.7,0.8-1.6,1.2-2.8,1.2C-58.6,269.2-60.1,267.6-60.1,265.4z M-56.6,262.3c-1.7,0-2.6,1.5-2.6,2.8
			h5.3C-54,263.8-54.8,262.3-56.6,262.3z"/>
		<path class="st2" d="M-45.9,269v-1.2c-0.5,0.8-1.4,1.3-2.5,1.3c-1.9,0-3.2-1.5-3.2-3.8s1.3-3.8,3.2-3.8c1,0,2,0.5,2.5,1.3V259h0.8
			v10H-45.9z M-45.9,267.2v-3.6c-0.4-0.7-1.4-1.3-2.4-1.3c-1.6,0-2.5,1.3-2.5,3.1s0.9,3.1,2.5,3.1
			C-47.2,268.5-46.3,267.9-45.9,267.2z"/>
		<path class="st2" d="M-42.6,269v-10h0.8v3.9c0.6-0.8,1.5-1.3,2.5-1.3c1.9,0,3.2,1.5,3.2,3.8s-1.3,3.8-3.2,3.8
			c-1.1,0-2-0.6-2.5-1.3v1.2h-0.8V269z M-39.5,268.5c1.6,0,2.5-1.3,2.5-3.1s-0.9-3.1-2.5-3.1c-1,0-2,0.6-2.4,1.3v3.6
			C-41.4,267.9-40.5,268.5-39.5,268.5z"/>
		<path class="st2" d="M-29.5,269v-0.9c-0.6,0.7-1.5,1-2.5,1c-1.2,0-2.5-0.9-2.5-2.4c0-1.6,1.3-2.4,2.5-2.4c1,0,1.8,0.3,2.5,1V264
			c0-1.1-0.9-1.7-1.9-1.7c-0.9,0-1.6,0.3-2.3,1.1l-0.4-0.5c0.8-0.8,1.6-1.2,2.8-1.2c1.5,0,2.6,0.7,2.6,2.3v5.1L-29.5,269L-29.5,269z
			 M-29.5,267.6V266c-0.5-0.7-1.3-1-2.2-1c-1.2,0-2,0.8-2,1.8s0.8,1.8,2,1.8C-30.8,268.6-30,268.3-29.5,267.6z"/>
		<path class="st2" d="M-26.7,265.4c0-2.1,1.4-3.8,3.5-3.8c1.3,0,2,0.5,2.6,1.2l-0.5,0.5c-0.5-0.7-1.2-1-2-1c-1.7,0-2.7,1.3-2.7,3.1
			s1,3.1,2.7,3.1c0.8,0,1.5-0.3,2-1l0.5,0.5c-0.6,0.8-1.3,1.2-2.6,1.2C-25.3,269.2-26.7,267.5-26.7,265.4z"/>
		<path class="st2" d="M-13.8,269l-2.9-3.5l-1.3,1.3v2.2h-0.8v-10h0.8v6.9l4.3-4.1h1l-3.4,3.3l3.4,4L-13.8,269L-13.8,269z"/>
	</g>
	<g>
		<path class="st2" d="M-10.6,190.4h-23.3c-1.5,0-3.3,2.1-3.3,3.6v12c0,1.5,1.8,2.4,3.3,2.4h1.7v5.1c0,0.3,0.4,0.6,0.7,0.8
			c0.1,0.1,0.3,0.1,0.4,0.1c0.2,0,0.4-0.2,0.6-0.4l6.3-5.6h13.6c1.5,0,3.4-0.9,3.4-2.4v-12C-7.2,192.5-9.1,190.4-10.6,190.4
			L-10.6,190.4z M-27.2,199.5l-1.2,1.2l0.3,1.7c0,0.1,0,0.2-0.1,0.3c-0.1,0-0.1,0.1-0.2,0.1s-0.1,0-0.1,0L-30,202l-1.5,0.8
			c-0.1,0.1-0.2,0-0.3,0c-0.1-0.1-0.2-0.2-0.1-0.3l0.3-1.7l-1.2-1.2c-0.1-0.1-0.1-0.2-0.1-0.3s0.1-0.2,0.3-0.2l1.7-0.2l0.8-1.6
			c0.1-0.1,0.2-0.2,0.3-0.2s0.2,0.1,0.3,0.2l0.8,1.6l1.7,0.2c0.1,0,0.2,0.1,0.3,0.2C-27,199.3-27.1,199.4-27.2,199.5L-27.2,199.5z
			 M-19.4,199.5l-1.2,1.2l0.3,1.7c0,0.1,0,0.2-0.1,0.3c-0.1,0-0.1,0.1-0.2,0.1s-0.1,0-0.2,0l-1.5-0.8l-1.5,0.8c-0.1,0.1-0.2,0-0.3,0
			c-0.1-0.1-0.2-0.2-0.1-0.3l0.3-1.7l-1.2-1.2c-0.1-0.1-0.1-0.2-0.1-0.3s0.1-0.2,0.3-0.2l1.7-0.2l0.8-1.6c0.1-0.1,0.2-0.2,0.3-0.2
			c0.1,0,0.2,0.1,0.3,0.2l0.8,1.6l1.7,0.2c0.1,0,0.2,0.1,0.3,0.2C-19.1,199.3-19.2,199.4-19.4,199.5L-19.4,199.5z M-11.5,199.5
			l-1.2,1.2l0.3,1.7c0,0.1,0,0.2-0.1,0.3c-0.1,0-0.1,0.1-0.2,0.1s-0.1,0-0.2,0l-1.5-0.8l-1.5,0.8c-0.1,0.1-0.2,0-0.3,0
			c-0.1-0.1-0.2-0.2-0.1-0.3l0.3-1.7l-1.2-1.2c-0.1-0.1-0.1-0.2-0.1-0.3s0.1-0.2,0.3-0.2l1.7-0.2l0.8-1.6c0.1-0.1,0.2-0.2,0.3-0.2
			c0.1,0,0.2,0.1,0.3,0.2l0.8,1.6l1.7,0.2c0.1,0,0.2,0.1,0.3,0.2C-11.2,199.3-11.4,199.4-11.5,199.5L-11.5,199.5z"/>
		<path class="st2" d="M-47.6,199.6c-5.7,0-8.9,3-8.8,8.6c0.1,7.8,3.4,12.5,8.8,12.4c0,0,8.8,0.4,8.8-12.4
			C-38.7,202.5-41.7,199.6-47.6,199.6L-47.6,199.6z"/>
		<path class="st2" d="M-32,226.5l-8.8-3.4l-2.1-1.7c-0.5-0.5-1.3-0.4-1.8,0.1l-2.9,2.9l-2.9-2.8c-0.5-0.5-1.3-0.5-1.8-0.1l-2.1,1.7
			l-8.8,3.4c-2.8,1.1-2.8,10.9-3.1,11.9H-29C-29.1,237.4-29.1,227.6-32,226.5L-32,226.5z"/>
	</g>
</g>
<g>
	<g>
		<rect x="-249.6" y="421.4" class="st0" width="305.2" height="19"/>
	</g>
	<g class="st1">
		<path class="st2" d="M-180.3,434l-5.2-12.7h1.3l4.6,11.5l4.6-11.5h1.3l-5.2,12.7H-180.3z"/>
		<path class="st2" d="M-172.2,422.7c0-0.4,0.4-0.7,0.8-0.7c0.4,0,0.8,0.3,0.8,0.7s-0.3,0.8-0.8,0.8
			C-171.8,423.4-172.2,423.1-172.2,422.7z M-171.9,434v-9.2h1v9.2H-171.9z"/>
		<path class="st2" d="M-168.3,434v-0.8l5.4-7.5h-5.4v-0.9h6.7v0.8l-5.5,7.5h5.6v0.9H-168.3z"/>
		<path class="st2" d="M-152.7,434v-1.3c-0.7,0.8-2,1.6-3.3,1.6c-1.9,0-2.9-0.9-2.9-2.9v-6.5h1v6.2c0,1.8,0.9,2.3,2.2,2.3
			c1.2,0,2.4-0.7,3-1.5v-7h1v9.2H-152.7z"/>
		<path class="st2" d="M-148.7,434v-9.2h1v1.6c0.8-1,1.8-1.8,3.1-1.8v1.1c-0.2,0-0.3,0-0.5,0c-0.9,0-2.2,0.8-2.6,1.6v6.7H-148.7z"/>
		<path class="st2" d="M-143.1,436.7c0.2,0.1,0.6,0.2,0.8,0.2c0.6,0,1-0.2,1.4-1.1l0.7-1.6l-3.9-9.3h1.1l3.3,8l3.3-8h1.1l-4.7,11.2
			c-0.5,1.2-1.3,1.7-2.3,1.7c-0.3,0-0.7-0.1-1-0.1L-143.1,436.7z"/>
		<path class="st2" d="M-127.6,432.6v5h-1v-12.7h1v1.4c0.6-0.9,1.8-1.7,3.2-1.7c2.5,0,4.1,1.9,4.1,4.8c0,2.9-1.7,4.8-4.1,4.8
			C-125.7,434.3-126.9,433.6-127.6,432.6z M-121.4,429.5c0-2.2-1.2-3.9-3.2-3.9c-1.3,0-2.5,0.8-3,1.6v4.5c0.5,0.9,1.7,1.7,3,1.7
			C-122.5,433.4-121.4,431.7-121.4,429.5z"/>
		<path class="st2" d="M-117.8,434v-9.2h1v1.6c0.8-1,1.8-1.8,3.1-1.8v1.1c-0.2,0-0.3,0-0.5,0c-0.9,0-2.2,0.8-2.6,1.6v6.7H-117.8z"/>
		<path class="st2" d="M-112.3,429.5c0-2.7,1.9-4.8,4.4-4.8c2.8,0,4.3,2.2,4.3,4.9v0.3h-7.7c0.1,2,1.4,3.6,3.6,3.6
			c1.2,0,2.2-0.4,3-1.3l0.5,0.6c-0.9,1-2.1,1.5-3.6,1.5C-110.4,434.3-112.3,432.3-112.3,429.5z M-107.9,425.5
			c-2.2,0-3.2,1.9-3.3,3.5h6.7C-104.6,427.4-105.6,425.5-107.9,425.5z"/>
		<path class="st2" d="M-94.3,434v-1.5c-0.6,1-1.8,1.7-3.2,1.7c-2.4,0-4.1-1.9-4.1-4.8c0-2.9,1.7-4.8,4.1-4.8c1.3,0,2.5,0.7,3.2,1.7
			v-5h1V434H-94.3z M-94.3,431.8v-4.5c-0.5-0.9-1.7-1.7-3-1.7c-2,0-3.2,1.7-3.2,3.9s1.2,3.9,3.2,3.9
			C-96,433.4-94.8,432.6-94.3,431.8z"/>
		<path class="st2" d="M-90.4,422.7c0-0.4,0.4-0.7,0.8-0.7c0.4,0,0.8,0.3,0.8,0.7s-0.3,0.8-0.8,0.8
			C-90.1,423.4-90.4,423.1-90.4,422.7z M-90.2,434v-9.2h1v9.2H-90.2z"/>
		<path class="st2" d="M-86.6,429.5c0-2.7,1.7-4.8,4.4-4.8c1.6,0,2.5,0.6,3.2,1.6l-0.7,0.6c-0.7-0.9-1.5-1.3-2.5-1.3
			c-2.1,0-3.5,1.7-3.5,3.9c0,2.2,1.3,3.9,3.5,3.9c1,0,1.8-0.4,2.5-1.3l0.7,0.6c-0.7,0.9-1.7,1.6-3.2,1.6
			C-84.9,434.3-86.6,432.1-86.6,429.5z"/>
		<path class="st2" d="M-76.5,432.3v-6.5H-78v-0.9h1.5v-2.5h1v2.5h1.9v0.9h-1.9v6.4c0,0.7,0.3,1.3,1,1.3c0.4,0,0.8-0.2,1-0.4
			l0.4,0.8c-0.4,0.3-0.8,0.6-1.6,0.6C-75.9,434.3-76.5,433.5-76.5,432.3z"/>
		<path class="st2" d="M-71.8,422.7c0-0.4,0.4-0.7,0.8-0.7c0.4,0,0.8,0.3,0.8,0.7s-0.3,0.8-0.8,0.8
			C-71.4,423.4-71.8,423.1-71.8,422.7z M-71.5,434v-9.2h1v9.2H-71.5z"/>
		<path class="st2" d="M-65,434l-3.9-9.2h1.1l3.3,8l3.3-8h1.1l-3.9,9.2H-65z"/>
		<path class="st2" d="M-58.8,429.5c0-2.7,1.9-4.8,4.4-4.8c2.8,0,4.3,2.2,4.3,4.9v0.3h-7.7c0.1,2,1.4,3.6,3.6,3.6
			c1.2,0,2.2-0.4,3-1.3l0.5,0.6c-0.9,1-2.1,1.5-3.6,1.5C-56.9,434.3-58.8,432.3-58.8,429.5z M-54.4,425.5c-2.2,0-3.2,1.9-3.3,3.5
			h6.7C-51.1,427.4-52.1,425.5-54.4,425.5z"/>
		<path class="st2" d="M-35.8,434v-1.5c-0.6,1-1.8,1.7-3.2,1.7c-2.4,0-4.1-1.9-4.1-4.8c0-2.9,1.7-4.8,4.1-4.8c1.3,0,2.5,0.7,3.2,1.7
			v-5h1V434H-35.8z M-35.8,431.8v-4.5c-0.5-0.9-1.7-1.7-3-1.7c-2,0-3.2,1.7-3.2,3.9s1.2,3.9,3.2,3.9
			C-37.6,433.4-36.4,432.6-35.8,431.8z"/>
		<path class="st2" d="M-25.9,434V433c-0.8,0.9-1.8,1.3-3.1,1.3c-1.6,0-3.2-1.1-3.2-3.1c0-2,1.6-3,3.2-3c1.3,0,2.3,0.4,3.1,1.3v-1.9
			c0-1.4-1.1-2.1-2.5-2.1c-1.2,0-2.1,0.4-2.9,1.3l-0.6-0.7c1-1,2-1.5,3.5-1.5c1.9,0,3.3,0.9,3.3,2.9v6.5H-25.9z M-25.9,432.2v-2
			c-0.6-0.9-1.7-1.3-2.8-1.3c-1.5,0-2.5,1-2.5,2.3c0,1.3,1,2.3,2.5,2.3C-27.6,433.5-26.6,433.1-25.9,432.2z"/>
		<path class="st2" d="M-21.7,432.3v-6.5h-1.5v-0.9h1.5v-2.5h1v2.5h1.9v0.9h-1.9v6.4c0,0.7,0.3,1.3,0.9,1.3c0.4,0,0.8-0.2,1-0.4
			l0.4,0.8c-0.4,0.3-0.8,0.6-1.6,0.6C-21.1,434.3-21.7,433.5-21.7,432.3z"/>
		<path class="st2" d="M-10.8,434V433c-0.8,0.9-1.8,1.3-3.1,1.3c-1.6,0-3.2-1.1-3.2-3.1c0-2,1.6-3,3.2-3c1.3,0,2.3,0.4,3.1,1.3v-1.9
			c0-1.4-1.1-2.1-2.5-2.1c-1.2,0-2.1,0.4-2.9,1.3l-0.6-0.7c1-1,2-1.5,3.5-1.5c1.9,0,3.3,0.9,3.3,2.9v6.5H-10.8z M-10.8,432.2v-2
			c-0.6-0.9-1.7-1.3-2.8-1.3c-1.5,0-2.5,1-2.5,2.3c0,1.3,1,2.3,2.5,2.3C-12.5,433.5-11.4,433.1-10.8,432.2z"/>
	</g>
</g>
<path class="st3" d="M-154,397.1c0,6.5-6.5,14.9-13,14.9h-75.8c-6.5,0-15.2-8.5-15.2-14.9v-75c0-6.5,8.7-9.1,15.2-9.1h75.8
	c6.5,0,13,2.6,13,9.1V397.1z"/>
<rect x="-253.7" y="385.4" class="st0" width="95.4" height="24.1"/>
<path class="st3" d="M-48,397.3c0,6.5-2.2,14.7-8.7,14.7H-133c-6.5,0-14-8.2-14-14.7v-75.4c0-6.5,7.5-8.9,14-8.9h76.3
	c6.5,0,8.7,2.3,8.7,8.9V397.3z"/>
<path class="st3" d="M62,397.5c0,6.5-6.3,14.5-12.8,14.5h-76.5c-6.5,0-14.7-8-14.7-14.5v-75.7c0-6.5,8.2-8.8,14.7-8.8h76.5
	c6.5,0,12.8,2.3,12.8,8.8V397.5z"/>
<g>
	<g class="st1">
		<path class="st2" d="M-211.5,395.4l-1-2.5h-5.3l-1,2.5h-1l4.1-10h1.1l4.1,10H-211.5z M-215.1,386.3l-2.4,5.8h4.7L-215.1,386.3z"/>
		<path class="st2" d="M-207.5,395.4v-9.2h-3.3v-0.8h7.4v0.8h-3.3v9.2H-207.5z"/>
		<path class="st2" d="M-193.1,395.4v-8.9l-3.6,8.9h-0.3l-3.7-8.9v8.9h-0.9v-10h1.3l3.4,8.3l3.4-8.3h1.3v10H-193.1z"/>
	</g>
	<g>
		<path class="st2" d="M-187.2,327h-37.6c-1,0-1.2,0.9-1.2,1.9v45.9c0,1,0.2,1.2,1.2,1.2h37.6c1,0,1.2-0.2,1.2-1.2v-45.9
			C-186,327.9-186.2,327-187.2,327L-187.2,327z M-193,349.3c0,0.4,0,0.7-0.4,0.7h-26.2c-0.4,0-0.4-0.3-0.4-0.7v-16.1
			c0-0.4,0-1.2,0.4-1.2h26.3c0.4,0,0.4,0.9,0.4,1.2L-193,349.3L-193,349.3z M-209,370.1c0,0.4-0.8-0.1-1.2-0.1h-7.3
			c-0.4,0-0.5,0.5-0.5,0.1v-11.3c0-0.4,0.1-0.7,0.5-0.7h7.3c0.4,0,1.2,0.4,1.2,0.7V370.1z M-207,357.7c0,0.4-0.3,0.3-0.7,0.3h-0.8
			c-0.4,0-0.5,0-0.5-0.3V357h-9v0.7c0,0.4-0.9,0.3-1.2,0.3h-0.8c-0.4,0,0,0,0-0.3v-1.8c0-0.4-0.4-0.8,0-0.8h12.4
			c0.4,0,0.7,0.5,0.7,0.8L-207,357.7L-207,357.7z M-202,370.6c0,0.3-0.1,0.4-0.3,0.4h-2.7c-0.3,0-1-0.2-1-0.4v-2.7
			c0-0.3,0.7-0.9,1-0.9h2.7c0.3,0,0.3,0.6,0.3,0.9V370.6z M-202,365.3c0,0.3-0.1-0.3-0.3-0.3h-2.7c-0.3,0-1,0.5-1,0.3v-2.7
			c0-0.3,0.7-0.6,1-0.6h2.7c0.3,0,0.3,0.3,0.3,0.6V365.3z M-202,360c0,0.3-0.1,0-0.3,0h-2.7c-0.3,0-1,0.2-1,0v-2.7
			c0-0.3,0.7-0.3,1-0.3h2.7c0.3,0,0.3,0,0.3,0.3V360z M-197,370.6c0,0.3,0.2,0.4,0,0.4h-2.7c-0.3,0-0.3-0.2-0.3-0.4v-2.7
			c0-0.3,0-0.9,0.3-0.9h2.7c0.3,0,0,0.6,0,0.9V370.6z M-197,365.3c0,0.3,0.2-0.3,0-0.3h-2.7c-0.3,0-0.3,0.5-0.3,0.3v-2.7
			c0-0.3,0-0.6,0.3-0.6h2.7c0.3,0,0,0.3,0,0.6V365.3z M-197,360C-197,360.2-196.8,360-197,360h-2.7c-0.3,0-0.3,0.2-0.3,0v-2.7
			c0-0.3,0-0.3,0.3-0.3h2.7c0.3,0,0,0,0,0.3V360z M-192,370.6c0,0.3,0.5,0.4,0.3,0.4h-2.7c-0.3,0-0.6-0.2-0.6-0.4v-2.7
			c0-0.3,0.3-0.9,0.6-0.9h2.7c0.3,0-0.3,0.6-0.3,0.9V370.6z M-192,365.3c0,0.3,0.5-0.3,0.3-0.3h-2.7c-0.3,0-0.6,0.5-0.6,0.3v-2.7
			c0-0.3,0.3-0.6,0.6-0.6h2.7c0.3,0-0.3,0.3-0.3,0.6V365.3z M-192,360c0,0.3,0.5,0,0.3,0h-2.7c-0.3,0-0.6,0.2-0.6,0v-2.7
			c0-0.3,0.3-0.3,0.6-0.3h2.7c0.3,0-0.3,0-0.3,0.3V360z"/>
		<path class="st2" d="M-217.1,345h1.2c0.2,0,0.4-0.1,0.4-0.3l0.5-1.7h2.2l0.5,1.8c0.1,0.2,0.2,0.2,0.4,0.2h1.3c0.1,0,0.3,0.1,0.4,0
			s0.1-0.2,0.1-0.3l-2.4-8c-0.1-0.2-0.2-0.7-0.4-0.7h-2c-0.2,0-0.4,0.5-0.4,0.7l-2.3,7.8c0,0.1,0,0.2,0.1,0.4
			C-217.4,345-217.3,345-217.1,345L-217.1,345z M-214.2,340.1c0.1-0.3,0.2-0.7,0.2-1.1c0-0.1,0-0.2,0.1-0.3c0.1,0.4,0.2,1.1,0.3,1.4
			l0.5,1.8h-1.6L-214.2,340.1z"/>
		<path class="st2" d="M-210.3,339h1.3v5.8c0,0.2,0.7,0.2,0.9,0.2h1.2c0.2,0,0.9,0.1,0.9-0.2V339h1.4c0.2,0,0.6-0.6,0.6-0.9v-0.9
			c0-0.2-0.4-1.2-0.6-1.2h-5.7c-0.2,0-0.7,1-0.7,1.2v0.9C-211,338.4-210.6,339-210.3,339L-210.3,339z"/>
		<path class="st2" d="M-203.3,345h1c0.2,0,0.4,0,0.4-0.3l0.1-2.7c0-0.7,0.1-1.4,0.1-2.2c0-0.2,0-0.3,0-0.4c0.2,0.8,0.4,1.7,0.6,2.5
			l0.8,2.9c0.1,0.2,0.2,0.3,0.4,0.3h1c0.2,0,0.4,0,0.4-0.2l0.9-3c0.3-0.8,0.5-1.7,0.8-2.6c0,1,0,2,0.1,2.8l0.1,2.7
			c0,0.2,0.2,0.3,0.4,0.3h1.1c0.1,0,0.2,0.1,0.3,0c0.1-0.1,0.1-0.1,0.1-0.3l-0.4-8c0-0.2-0.2-0.8-0.4-0.8h-1.9
			c-0.2,0-0.4,0.5-0.4,0.7l-0.8,2.7v0.1c-0.3,0.9-0.7,1.9-0.8,2.7c-0.1-0.7-0.8-1.5-0.8-2.6l0,0l-0.6-2.9c-0.1-0.2-0.1-0.7-0.3-0.7
			h-1.9c-0.2,0-0.4,0.6-0.4,0.8l-0.5,7.8c0,0.1,0,0.2,0.1,0.3C-203.5,345-203.4,345-203.3,345L-203.3,345z"/>
	</g>
</g>
<g>
	<g>
		<g>
			<rect x="-134.9" y="385.4" class="st0" width="74.7" height="23.7"/>
		</g>
		<g class="st1">
			<path class="st2" d="M-111.5,394l0.6-0.6c0.6,0.7,1.7,1.5,3.1,1.5c2,0,2.6-1.1,2.6-2c0-2.9-6-1.4-6-4.9c0-1.6,1.5-2.7,3.3-2.7
				c1.5,0,2.6,0.5,3.4,1.4l-0.6,0.6c-0.7-0.9-1.7-1.3-2.9-1.3c-1.3,0-2.3,0.8-2.3,1.8c0,2.6,6,1.2,6,4.9c0,1.3-0.9,2.8-3.6,2.8
				C-109.5,395.6-110.7,394.9-111.5,394z"/>
			<path class="st2" d="M-93.7,395.4v-8.9l-3.6,8.9h-0.3l-3.7-8.9v8.9h-0.9v-10h1.3l3.4,8.3l3.4-8.3h1.3v10H-93.7z"/>
			<path class="st2" d="M-90.9,394l0.6-0.6c0.6,0.7,1.7,1.5,3.1,1.5c2,0,2.6-1.1,2.6-2c0-2.9-6-1.4-6-4.9c0-1.6,1.5-2.7,3.3-2.7
				c1.5,0,2.6,0.5,3.4,1.4l-0.6,0.6c-0.7-0.9-1.7-1.3-2.9-1.3c-1.3,0-2.3,0.8-2.3,1.8c0,2.6,6,1.2,6,4.9c0,1.3-0.9,2.8-3.6,2.8
				C-88.9,395.6-90.1,394.9-90.9,394z"/>
		</g>
	</g>
	<g>
		<path class="st2" d="M-76.1,344.9h-1.4v15c0,2.4-1.3,4-4.1,4h-26.9v1.3c0,2.1,2,3.7,4.5,3.7h20.8l8,4.7l-1.2-4.7h0.3
			c2.5,0,3.6-1.6,3.6-3.7v-16.9C-72.5,346.2-73.6,344.9-76.1,344.9L-76.1,344.9z"/>
		<path class="st2" d="M-85.7,333.9h-31.6c-2.8,0-6.2,2.6-6.2,5v19.2c0,2.2,2.8,3.8,5.4,4l-1.6,6.3l10.9-6.5h23.1
			c2.8,0,5.2-1.5,5.2-3.9v-19.1C-80.5,336.5-82.9,333.9-85.7,333.9L-85.7,333.9z M-112.5,350.2c-1.6,0-2.9-1.3-2.9-2.9
			s1.3-2.9,2.9-2.9s2.9,1.3,2.9,2.9S-110.9,350.2-112.5,350.2L-112.5,350.2z M-101.9,350.2c-1.6,0-2.9-1.3-2.9-2.9s1.3-2.9,2.9-2.9
			c1.6,0,2.9,1.3,2.9,2.9C-99,348.9-100.2,350.2-101.9,350.2L-101.9,350.2z M-91.1,350.2c-1.6,0-2.9-1.3-2.9-2.9s1.3-2.9,2.9-2.9
			s2.9,1.3,2.9,2.9C-88.4,348.9-89.6,350.2-91.1,350.2L-91.1,350.2z"/>
	</g>
</g>
<g>
	<g>
		<g>
			<rect x="-27.1" y="385" class="st0" width="76.5" height="15.2"/>
		</g>
		<g class="st1">
			<path class="st2" d="M-4.8,395.1v-10h6.3v0.8H-4v3.7h5.4v0.8H-4v4h5.5v0.8L-4.8,395.1L-4.8,395.1z"/>
			<path class="st2" d="M12.2,395.1V390c0-1-0.4-1.7-1.5-1.7c-0.8,0-1.7,0.6-2.1,1.2v5.5H7.8v-5c0-1-0.4-1.7-1.4-1.7
				c-0.8,0-1.7,0.6-2.1,1.2v5.5H3.5v-7.2h0.8v1.1c0.3-0.5,1.3-1.3,2.3-1.3c1.1,0,1.7,0.7,1.9,1.4c0.4-0.7,1.4-1.4,2.4-1.4
				c1.3,0,2,0.8,2,2.2v5.2L12.2,395.1L12.2,395.1z"/>
			<path class="st2" d="M20.1,395.1v-0.9c-0.6,0.7-1.5,1-2.5,1c-1.2,0-2.5-0.9-2.5-2.4c0-1.6,1.3-2.4,2.5-2.4c1,0,1.8,0.3,2.5,1V390
				c0-1.1-0.9-1.7-1.9-1.7c-0.9,0-1.6,0.3-2.3,1.1l-0.4-0.5c0.8-0.8,1.6-1.2,2.8-1.2c1.5,0,2.6,0.7,2.6,2.3v5.1H20.1z M20.1,393.6
				V392c-0.5-0.7-1.3-1-2.2-1c-1.2,0-2,0.8-2,1.8c0,1,0.8,1.8,2,1.8C18.7,394.6,19.5,394.3,20.1,393.6z"/>
			<path class="st2" d="M23.1,386.1c0-0.3,0.3-0.6,0.6-0.6c0.3,0,0.6,0.3,0.6,0.6s-0.3,0.6-0.6,0.6
				C23.3,386.7,23.1,386.4,23.1,386.1z M23.3,395.1v-7.2h0.8v7.2H23.3z"/>
			<path class="st2" d="M26.5,395.1v-10h0.8v10H26.5z"/>
		</g>
	</g>
	<g>
		<path class="st2" d="M-5,344.7v-2.9c0-1.7,1.1-3,2.8-3H25c1.6,0,3.1,1.4,3.1,3v2.9l3.8-3.8c0.2-0.2,0.2-0.4,0.2-0.6
			s-0.1-0.4-0.3-0.6l-18.5-14.4c-1.1-0.8-2.6-0.8-3.7,0L-9,339.7c-0.2,0.1-0.3,0.4-0.3,0.6s0.2,0.4,0.3,0.6L-5,344.7z"/>
		<path class="st2" d="M35.5,343.2c-0.3-0.1-0.7-0.1-0.9,0.2l-20.3,20.3c-0.8,0.8-1.8,1.2-2.9,1.2s-2.1-0.4-2.9-1.2l-20.3-20.3
			c-0.2-0.2-0.5-0.3-0.8-0.2c-0.3,0.1-0.4,0.4-0.4,0.7v25.9c0,1.8,1.3,3,3.1,3h42.6c1.8,0,3.4-1.2,3.4-3V344
			C36,343.7,35.8,343.4,35.5,343.2L35.5,343.2z"/>
		<path class="st2" d="M20.4,342.8H2.2c-0.9,0-1.6,0.6-1.6,1.5s0.7,1.5,1.6,1.5h18.2c0.9,0,1.6-0.6,1.6-1.5
			C22.1,343.4,21.3,342.8,20.4,342.8L20.4,342.8z"/>
		<path class="st2" d="M20.4,349.8H2.2c-0.9,0-1.6,1.1-1.6,2s0.7,2,1.6,2h18.2c0.9,0,1.6-1.1,1.6-2
			C22.1,350.9,21.3,349.8,20.4,349.8L20.4,349.8z"/>
	</g>
</g>
<path class="st3" d="M-154,530.5c0,6.5-6.1,13.5-12.7,13.5h-76.5c-6.5,0-14.8-7-14.8-13.5v-75.7c0-6.5,8.3-9.8,14.8-9.8h76.5
	c6.5,0,12.7,3.2,12.7,9.8V530.5z"/>
<rect x="-255.2" y="482" class="st0" width="98.4" height="24.9"/>
<path class="st3" d="M-47,530.5c0,6.5-5.1,13.5-11.6,13.5h-76.5c-6.5,0-13.8-7-13.8-13.5v-75.7c0-6.5,7.3-9.8,13.8-9.8h76.5
	c6.5,0,11.6,3.2,11.6,9.8V530.5z"/>
<path class="st3" d="M62,530.5c0,6.5-6.3,13.5-12.8,13.5h-76.5c-6.5,0-14.7-7-14.7-13.5v-75.7c0-6.5,8.2-9.8,14.7-9.8h76.5
	c6.5,0,12.8,3.2,12.8,9.8V530.5z"/>
<g>
	<g class="st1">
		<path class="st2" d="M-230.4,523.5l-1-2.5h-5.3l-1,2.5h-1l4.1-10h1.1l4.1,10H-230.4z M-234,514.4l-2.4,5.8h4.7L-234,514.4z"/>
		<path class="st2" d="M-222.6,523.5v-1.2c-0.5,0.8-1.4,1.3-2.5,1.3c-1.9,0-3.2-1.5-3.2-3.8s1.3-3.8,3.2-3.8c1,0,2,0.5,2.5,1.3v-3.9
			h0.8v10h-0.8V523.5z M-222.6,521.6V518c-0.4-0.7-1.4-1.3-2.4-1.3c-1.6,0-2.5,1.3-2.5,3.1s0.9,3.1,2.5,3.1
			C-224,522.9-223,522.3-222.6,521.6z"/>
		<path class="st2" d="M-208.2,523.5l-1-2.5h-5.3l-1,2.5h-1l4.1-10h1.1l4.1,10H-208.2z M-211.8,514.4l-2.4,5.8h4.7L-211.8,514.4z"/>
		<path class="st2" d="M-205.6,523.5v-6.6h-1.2v-0.7h1.2v-0.7c0-1.4,0.8-2.3,2-2.3c0.5,0,0.9,0.1,1.4,0.5l-0.4,0.6
			c-0.2-0.2-0.5-0.4-0.9-0.4c-0.8,0-1.2,0.6-1.2,1.5v0.7h1.5v0.7h-1.5v6.6h-0.9V523.5z M-201.6,523.5v-6.6h-1.2v-0.7h1.2v-0.7
			c0-1.4,0.8-2.3,2-2.3c0.4,0,0.7,0.1,1,0.2l-0.2,0.6c-0.2-0.1-0.4-0.2-0.7-0.2c-0.8,0-1.2,0.6-1.2,1.5v0.7h1.5v0.7h-1.5v6.6h-0.9
			V523.5z M-198.1,514.5c0-0.3,0.3-0.6,0.6-0.6c0.3,0,0.6,0.3,0.6,0.6s-0.3,0.6-0.6,0.6C-197.8,515.1-198.1,514.8-198.1,514.5z
			 M-197.9,523.5v-7.2h0.8v7.2H-197.9z"/>
		<path class="st2" d="M-189.8,523.5v-4.9c0-1.4-0.7-1.8-1.8-1.8c-0.9,0-1.9,0.6-2.4,1.2v5.5h-0.8v-7.2h0.8v1.1
			c0.5-0.6,1.6-1.3,2.6-1.3c1.5,0,2.3,0.7,2.3,2.4v5.1L-189.8,523.5L-189.8,523.5z"/>
		<path class="st2" d="M-186.8,514.5c0-0.3,0.3-0.6,0.6-0.6c0.3,0,0.6,0.3,0.6,0.6s-0.3,0.6-0.6,0.6
			C-186.5,515.1-186.8,514.8-186.8,514.5z M-186.6,523.5v-7.2h0.8v7.2H-186.6z"/>
		<path class="st2" d="M-183.2,522.1v-5.2h-1.2v-0.7h1.2v-2h0.8v2h1.5v0.7h-1.5v5c0,0.6,0.2,1,0.7,1c0.3,0,0.6-0.2,0.8-0.3l0.3,0.6
			c-0.3,0.3-0.6,0.4-1.2,0.4C-182.8,523.6-183.2,523-183.2,522.1z"/>
		<path class="st2" d="M-179.6,525.6c0.2,0.1,0.4,0.1,0.6,0.1c0.5,0,0.8-0.2,1.1-0.9l0.6-1.3l-3.1-7.3h0.9l2.6,6.3l2.6-6.3h0.9
			l-3.8,8.8c-0.4,0.9-1,1.3-1.8,1.3c-0.3,0-0.6,0-0.8-0.1L-179.6,525.6z"/>
	</g>
	<g>
		<path class="st2" d="M-186.9,468c0,2.9-8.4,5.3-18.7,5.3s-18.7-2.4-18.7-5.3c0-3,8.4-5.4,18.7-5.4S-186.9,465-186.9,468"/>
		<path class="st2" d="M-205.7,476c-1.7,0-14-0.1-19-3.7v6.4c0,3,8.7,5.4,19,5.4s19-2.4,19-5.4v-6.4C-191.7,475.8-204,476-205.7,476
			"/>
		<path class="st2" d="M-205.7,486.7c-1.7,0-14-0.1-19-3.7v6.4c0,2.9,8.7,5.4,19,5.4s19-2.4,19-5.4V483
			C-191.7,486.5-204,486.7-205.7,486.7"/>
		<path class="st2" d="M-205.7,497.4c-1.7,0-14-0.1-19-3.7v6.4c0,2.9,8.7,5.3,19,5.3s19-2.4,19-5.3v-6.4
			C-191.7,497.2-204,497.4-205.7,497.4"/>
	</g>
</g>
<g>
	<g>
		<g>
			<rect x="-147.4" y="507.3" class="st0" width="98.9" height="24.3"/>
		</g>
		<g class="st1">
			<path class="st2" d="M-135.3,513.6v-6.2h0.9v6.2c0,2,1.1,3.3,3,3.3c2,0,3-1.2,3-3.3v-6.2h0.9v6.2c0,2.5-1.3,4-3.9,4
				C-133.9,517.6-135.3,516-135.3,513.6z"/>
			<path class="st2" d="M-120.1,517.4v-4.9c0-1.4-0.7-1.8-1.8-1.8c-0.9,0-1.9,0.6-2.4,1.2v5.5h-0.7v-7.2h0.8v1.1
				c0.5-0.6,1.6-1.3,2.6-1.3c1.5,0,2.3,0.7,2.3,2.4v5.1L-120.1,517.4L-120.1,517.4z"/>
			<path class="st2" d="M-117.1,508.4c0-0.3,0.3-0.6,0.6-0.6s0.6,0.3,0.6,0.6s-0.3,0.6-0.6,0.6S-117.1,508.7-117.1,508.4z
				 M-116.9,517.4v-7.2h0.8v7.2H-116.9z"/>
			<path class="st2" d="M-114.2,513.8c0-2.3,1.3-3.8,3.2-3.8c1.1,0,2,0.6,2.5,1.3v-1.1h0.8v10h-0.8v-3.9c-0.6,0.8-1.5,1.3-2.5,1.3
				C-112.9,517.6-114.2,516.1-114.2,513.8z M-108.4,515.6V512c-0.4-0.7-1.4-1.3-2.4-1.3c-1.6,0-2.5,1.3-2.5,3.1s0.9,3.1,2.5,3.1
				C-109.8,516.9-108.8,516.2-108.4,515.6z"/>
			<path class="st2" d="M-100.3,517.4v-1.1c-0.6,0.7-1.6,1.2-2.6,1.2c-1.5,0-2.3-0.7-2.3-2.3v-5.1h0.8v4.9c0,1.4,0.7,1.8,1.8,1.8
				c0.9,0,1.9-0.6,2.4-1.2v-5.5h0.8v7.2L-100.3,517.4L-100.3,517.4z"/>
			<path class="st2" d="M-97.5,513.8c0-2.1,1.5-3.8,3.5-3.8c2.2,0,3.4,1.7,3.4,3.8v0.2h-6.1c0.1,1.6,1.1,2.9,2.8,2.9
				c0.9,0,1.8-0.3,2.4-1l0.4,0.5c-0.7,0.8-1.6,1.2-2.8,1.2C-96,517.6-97.5,516-97.5,513.8z M-94,510.6c-1.7,0-2.6,1.5-2.6,2.8h5.3
				C-91.4,512.2-92.2,510.6-94,510.6z"/>
			<path class="st2" d="M-84.7,513.6v-6.2h0.9v6.2c0,2,1.1,3.3,3,3.3s3-1.2,3-3.3v-6.2h0.9v6.2c0,2.5-1.3,4-3.9,4
				C-83.3,517.6-84.7,516-84.7,513.6z"/>
			<path class="st2" d="M-75.1,516.4l0.5-0.6c0.5,0.6,1.3,1.1,2.3,1.1c1.2,0,1.9-0.6,1.9-1.5c0-2-4.6-0.9-4.6-3.5c0-1.1,0.9-2,2.6-2
				c1.2,0,2.1,0.5,2.6,1.1l-0.4,0.6c-0.4-0.6-1.2-1-2.2-1c-1.1,0-1.8,0.6-1.8,1.3c0,1.8,4.6,0.7,4.6,3.5c0,1.2-0.9,2.1-2.7,2.1
				C-73.4,517.6-74.3,517.2-75.1,516.4z"/>
			<path class="st2" d="M-67.9,513.8c0-2.1,1.5-3.8,3.5-3.8c2.2,0,3.4,1.7,3.4,3.8v0.2h-6.1c0.1,1.6,1.1,2.9,2.8,2.9
				c0.9,0,1.8-0.3,2.4-1l0.4,0.5c-0.7,0.8-1.6,1.2-2.8,1.2C-66.4,517.6-67.9,516-67.9,513.8z M-64.5,510.6c-1.7,0-2.6,1.5-2.6,2.8
				h5.3C-61.9,512.2-62.7,510.6-64.5,510.6z"/>
			<path class="st2" d="M-59,517.4v-7.2h0.8v1.2c0.6-0.8,1.4-1.4,2.4-1.4v0.9c-0.1,0-0.2,0-0.4,0c-0.7,0-1.7,0.7-2.1,1.3v5.3
				L-59,517.4L-59,517.4z"/>
		</g>
		<g class="st1">
			<path class="st2" d="M-100.4,520.6c0-0.3,0.3-0.6,0.6-0.6s0.6,0.3,0.6,0.6s-0.3,0.6-0.6,0.6
				C-100.1,521.2-100.4,520.9-100.4,520.6z M-100.2,529.6v-7.2h0.8v7.2H-100.2z"/>
			<path class="st2" d="M-91.7,529.6v-1.2c-0.5,0.8-1.4,1.3-2.5,1.3c-1.9,0-3.2-1.5-3.2-3.8s1.3-3.8,3.2-3.8c1,0,2,0.5,2.5,1.3v-3.9
				h0.8v10h-0.8V529.6z M-91.7,527.8v-3.6c-0.4-0.7-1.4-1.3-2.4-1.3c-1.6,0-2.5,1.3-2.5,3.1s0.9,3.1,2.5,3.1
				C-93,529.1-92.1,528.5-91.7,527.8z"/>
		</g>
	</g>
	<g>
		<path class="st2" d="M-78.3,457.3h-39.6c-4.5,0-7.6,3.9-7.6,8.4v25.1c0,4.5,3.1,8.4,7.6,8.4h39.6c4.5,0,7.8-3.9,7.8-8.4v-25.1
			C-70.5,461.3-73.8,457.3-78.3,457.3L-78.3,457.3z M-75.5,491.1c0,1.8-1.5,3.3-3.3,3.3h-39.4c-1.8,0-3.3-1.5-3.3-3.3v-25.4
			c0-1.8,1.5-3.3,3.3-3.3h39.4c1.8,0,3.3,1.5,3.3,3.3L-75.5,491.1L-75.5,491.1z"/>
		<path class="st2" d="M-106.1,475.6c1.1-0.9,1.8-2.2,1.8-3.8c0-2.6-2.1-4.8-4.8-4.8c-2.6,0-4.8,2.1-4.8,4.8c0,1.5,0.9,2.8,2,3.7
			c-2.3,1.1-3.7,3.4-3.7,6.1v6.1c0,1,0.5,1.7,1.5,1.7h9.9c1,0,1.6-0.8,1.6-1.7v-6.1C-102.5,478.9-103.7,476.7-106.1,475.6
			L-106.1,475.6z"/>
		<path class="st2" d="M-98.3,472.3h10.1c1.3,0,2.6-1,2.6-2.5s-1.1-2.5-2.6-2.5h-10.1c-1.3,0-2.6,1-2.6,2.5
			C-100.8,471.3-99.7,472.3-98.3,472.3L-98.3,472.3z"/>
		<path class="st2" d="M-83.1,475.3h-15.1c-1.3,0-2.6,1.5-2.6,3s1.1,3,2.6,3H-83c1.3,0,2.6-1.5,2.6-3
			C-80.5,476.8-81.7,475.3-83.1,475.3L-83.1,475.3z"/>
		<path class="st2" d="M-83.1,484.3h-15.1c-1.5,0-2.6,0.7-2.6,2s1.1,2,2.6,2H-83c1.3,0,2.6-0.5,2.6-2
			C-80.5,484.8-81.7,484.3-83.1,484.3L-83.1,484.3z"/>
	</g>
</g>
<g>
	<g>
		<g>
			<rect x="-28.2" y="506.4" class="st0" width="76.5" height="27.2"/>
		</g>
		<g class="st1">
			<path class="st2" d="M-18.8,516.4v-10h3.8c1.9,0,3,1.4,3,2.9c0,1.6-1.1,2.9-3,2.9h-2.9v4.2L-18.8,516.4L-18.8,516.4z
				 M-12.9,509.4c0-1.3-0.9-2.1-2.2-2.1h-2.8v4.3h2.8C-13.8,511.5-12.9,510.6-12.9,509.4z"/>
			<path class="st2" d="M-5.3,516.4v-1.1c-0.6,0.7-1.6,1.2-2.6,1.2c-1.5,0-2.3-0.7-2.3-2.3v-5.1h0.8v4.9c0,1.4,0.7,1.8,1.8,1.8
				c0.9,0,1.9-0.6,2.4-1.2v-5.5h0.8v7.2L-5.3,516.4L-5.3,516.4z"/>
			<path class="st2" d="M-2.1,516.4v-7.2h0.8v1.2c0.6-0.8,1.4-1.4,2.4-1.4v0.9c-0.1,0-0.2,0-0.4,0c-0.7,0-1.7,0.7-2.1,1.3v5.3
				L-2.1,516.4L-2.1,516.4z"/>
			<path class="st2" d="M2.2,512.8c0-2.1,1.4-3.8,3.5-3.8c1.3,0,2,0.5,2.6,1.2l-0.5,0.5c-0.5-0.7-1.2-1-2-1c-1.7,0-2.7,1.3-2.7,3.1
				s1,3.1,2.7,3.1c0.8,0,1.5-0.3,2-1l0.5,0.5c-0.6,0.8-1.3,1.2-2.6,1.2C3.6,516.6,2.2,514.9,2.2,512.8z"/>
			<path class="st2" d="M14.9,516.4v-4.9c0-1.4-0.7-1.8-1.8-1.8c-0.9,0-1.9,0.6-2.4,1.2v5.5H10v-10h0.8v3.9c0.5-0.6,1.6-1.3,2.6-1.3
				c1.5,0,2.3,0.7,2.3,2.3v5.1H14.9z"/>
			<path class="st2" d="M22.7,516.4v-0.9c-0.6,0.7-1.5,1-2.5,1c-1.2,0-2.5-0.9-2.5-2.4c0-1.6,1.3-2.4,2.5-2.4c1,0,1.8,0.3,2.5,1
				v-1.5c0-1.1-0.9-1.7-1.9-1.7c-0.9,0-1.6,0.3-2.3,1.1l-0.4-0.5c0.8-0.8,1.6-1.2,2.8-1.2c1.5,0,2.6,0.7,2.6,2.3v5.1h-0.8V516.4z
				 M22.7,515v-1.6c-0.5-0.7-1.3-1-2.2-1c-1.2,0-2,0.8-2,1.8s0.8,1.8,2,1.8C21.4,516,22.2,515.7,22.7,515z"/>
			<path class="st2" d="M25.3,515.5l0.5-0.6c0.5,0.6,1.3,1.1,2.3,1.1c1.2,0,1.9-0.6,1.9-1.5c0-2-4.6-0.9-4.6-3.5c0-1.1,0.9-2,2.6-2
				c1.2,0,2.1,0.5,2.6,1.1l-0.4,0.6c-0.4-0.6-1.2-1-2.2-1c-1.1,0-1.8,0.6-1.8,1.3c0,1.8,4.6,0.7,4.6,3.5c0,1.2-0.9,2.1-2.7,2.1
				C26.9,516.6,26,516.3,25.3,515.5z"/>
			<path class="st2" d="M32.4,512.8c0-2.1,1.5-3.8,3.5-3.8c2.2,0,3.4,1.7,3.4,3.8v0.2h-6.1c0.1,1.6,1.1,2.9,2.8,2.9
				c0.9,0,1.8-0.3,2.4-1l0.4,0.5c-0.7,0.8-1.6,1.2-2.8,1.2C33.9,516.6,32.4,515.1,32.4,512.8z M35.9,509.7c-1.7,0-2.6,1.5-2.6,2.8
				h5.3C38.5,511.2,37.7,509.7,35.9,509.7z"/>
		</g>
		<g class="st1">
			<path class="st2" d="M-22.9,530v-10h3.7c1.9,0,3,1.4,3,2.9c0,1.6-1.1,2.9-3,2.9H-22v4.2L-22.9,530L-22.9,530z M-17,523
				c0-1.3-0.9-2.1-2.2-2.1H-22v4.3h2.8C-17.9,525.1-17,524.2-17,523z"/>
			<path class="st2" d="M-14.3,530v-7.2h0.8v1.2c0.6-0.8,1.4-1.4,2.4-1.4v0.9c-0.1,0-0.2,0-0.4,0c-0.7,0-1.7,0.7-2.1,1.3v5.3
				L-14.3,530L-14.3,530z"/>
			<path class="st2" d="M-10,526.4c0-2.1,1.3-3.8,3.5-3.8c2.1,0,3.5,1.7,3.5,3.8s-1.3,3.8-3.5,3.8C-8.6,530.2-10,528.5-10,526.4z
				 M-3.9,526.4c0-1.6-0.9-3.1-2.7-3.1c-1.7,0-2.6,1.5-2.6,3.1s1,3.1,2.6,3.1C-4.8,529.5-3.9,528-3.9,526.4z"/>
			<path class="st2" d="M-0.2,528.9v3.9H-1v-10h0.8v1.1c0.5-0.7,1.4-1.3,2.5-1.3c1.9,0,3.2,1.5,3.2,3.8s-1.3,3.8-3.2,3.8
				C1.3,530.2,0.4,529.7-0.2,528.9z M4.7,526.4c0-1.8-0.9-3.1-2.5-3.1c-1,0-2,0.6-2.4,1.3v3.6c0.4,0.7,1.4,1.3,2.4,1.3
				C3.8,529.5,4.7,528.2,4.7,526.4z"/>
			<path class="st2" d="M7.1,526.4c0-2.1,1.5-3.8,3.5-3.8c2.2,0,3.4,1.7,3.4,3.8v0.2H7.9c0.1,1.6,1.1,2.9,2.8,2.9
				c0.9,0,1.8-0.3,2.4-1l0.4,0.5c-0.7,0.8-1.6,1.2-2.8,1.2C8.6,530.2,7.1,528.7,7.1,526.4z M10.5,523.3c-1.7,0-2.6,1.5-2.6,2.8h5.3
				C13.2,524.8,12.4,523.3,10.5,523.3z"/>
			<path class="st2" d="M20.9,530v-4.9c0-1.4-0.7-1.8-1.8-1.8c-0.9,0-1.9,0.6-2.4,1.2v5.5H16v-7.2h0.8v1.1c0.5-0.6,1.6-1.3,2.6-1.3
				c1.5,0,2.3,0.7,2.3,2.4v5.1L20.9,530L20.9,530z"/>
			<path class="st2" d="M23.5,529.1l0.5-0.6c0.5,0.6,1.3,1.1,2.3,1.1c1.2,0,1.9-0.6,1.9-1.5c0-2-4.6-0.9-4.6-3.5c0-1.1,0.9-2,2.6-2
				c1.2,0,2.1,0.5,2.6,1.1l-0.4,0.6c-0.4-0.6-1.2-1-2.2-1c-1.1,0-1.8,0.6-1.8,1.3c0,1.8,4.6,0.7,4.6,3.5c0,1.2-0.9,2.1-2.7,2.1
				C25.1,530.2,24.2,529.9,23.5,529.1z"/>
			<path class="st2" d="M30.8,521.1c0-0.3,0.3-0.6,0.6-0.6c0.3,0,0.6,0.3,0.6,0.6s-0.3,0.6-0.6,0.6
				C31.1,521.7,30.8,521.4,30.8,521.1z M31,530v-7.2h0.8v7.2H31z"/>
			<path class="st2" d="M34.3,528.7v-5.2h-1.2v-0.7h1.2v-2h0.8v2h1.5v0.7h-1.5v5c0,0.6,0.2,1,0.7,1c0.3,0,0.6-0.2,0.8-0.3l0.3,0.6
				c-0.3,0.3-0.6,0.4-1.2,0.4C34.8,530.2,34.3,529.6,34.3,528.7z"/>
			<path class="st2" d="M38,532.2c0.2,0.1,0.4,0.1,0.6,0.1c0.5,0,0.8-0.2,1.1-0.9l0.6-1.3l-3.1-7.3h0.9l2.6,6.3l2.6-6.3h0.9
				l-3.8,8.8c-0.4,0.9-1,1.3-1.8,1.3c-0.3,0-0.6,0-0.8-0.1L38,532.2z"/>
		</g>
	</g>
	<path class="st2" d="M34.5,465.8c-0.6-0.8-1.6-1.4-2.6-1.4h-2.6l0.6-0.4c0.2-0.2,0.3-0.4,0.3-0.7s-0.1-0.5-0.3-0.7l-6.2-6.2
		c-0.4-0.4-1.1-0.4-1.6,0l-7.2,7.2v-6.4c0-0.6-0.5-1.8-1.1-1.8h-14c-0.6,0-1.9,1.2-1.9,1.8v7.6v-0.3h-3.6l-0.4-1.7
		c-0.2-1.2-1.1-2.1-2.3-2.5l-9.6-2.9c-1.8-0.5-3.6,0.5-4.2,2.2c-0.5,1.8,0.4,3.6,2.2,4.2l7.7,2.4l5.9,25.8c0.2,1.1,0.9,2,1.9,2.4
		c0,0.2,0,0.5,0,0.7c0,3.1,2.5,5.7,5.7,5.7c3.1,0,5.7-2.6,5.7-5.7c0-0.1,0-0.5,0-0.5h8.9c0,0,0,0.3,0,0.5c0,3.1,2.5,5.7,5.7,5.7
		c3.1,0,5.7-2.5,5.7-5.6c0-0.1,0-0.3,0-0.4c1.4-0.2,2.6-1.2,2.9-2.7l5.3-23.2C35.4,467.6,35.1,466.5,34.5,465.8L34.5,465.8z
		 M1.1,497.7c-1.5,0-2.8-1.2-2.8-2.8c0-1.5,1.2-2.8,2.8-2.8c1.5,0,2.8,1.2,2.8,2.8C3.8,496.5,2.6,497.7,1.1,497.7L1.1,497.7z
		 M21.3,497.7c-1.5,0-2.8-1.2-2.8-2.8c0-1.5,1.2-2.8,2.8-2.8c1.5,0,2.8,1.2,2.8,2.8C24.1,496.5,22.8,497.7,21.3,497.7L21.3,497.7z
		 M23.1,486.4H0.2c-1.1,0-2-0.9-2-2s0.9-2,2-2h22.9c1.1,0,2,0.9,2,2C25.3,485.5,24.4,486.4,23.1,486.4L23.1,486.4z M23.1,475.4H0.2
		c-1.1,0-2-0.9-2-2s0.9-2,2-2h22.9c1.1,0,2,0.9,2,2C25.3,474.5,24.4,475.4,23.1,475.4L23.1,475.4z"/>
</g>
<path class="st3" d="M-101,644.2c0,6.5-5.8,12.8-12.3,12.8h-76.6c-6.5,0-14.1-6.3-14.1-12.8v-75.7c0-6.5,7.5-10.4,14.1-10.4h76.6
	c6.5,0,12.3,3.9,12.3,10.4V644.2z"/>
<rect x="-201.7" y="630.2" class="st0" width="98.4" height="24.9"/>
<g class="st1">
	<path class="st2" d="M-195.7,636v-10h0.9v9.2h4.8v0.8H-195.7z"/>
	<path class="st2" d="M-189.1,632.4c0-2.1,1.4-3.8,3.5-3.8c2.1,0,3.5,1.7,3.5,3.8s-1.3,3.8-3.5,3.8
		C-187.7,636.2-189.1,634.5-189.1,632.4z M-182.9,632.4c0-1.6-0.9-3.1-2.7-3.1c-1.7,0-2.6,1.5-2.6,3.1s1,3.1,2.6,3.1
		C-183.9,635.5-182.9,634-182.9,632.4z"/>
	<path class="st2" d="M-180.5,632.4c0-2.1,1.4-3.8,3.5-3.8c1.3,0,2,0.5,2.6,1.2l-0.5,0.5c-0.5-0.7-1.2-1-2-1c-1.7,0-2.7,1.3-2.7,3.1
		s1,3.1,2.7,3.1c0.8,0,1.5-0.3,2-1l0.5,0.5c-0.6,0.8-1.3,1.2-2.6,1.2C-179.1,636.2-180.5,634.5-180.5,632.4z"/>
	<path class="st2" d="M-168.1,636v-0.9c-0.6,0.7-1.5,1-2.5,1c-1.2,0-2.5-0.9-2.5-2.4c0-1.6,1.3-2.4,2.5-2.4c1,0,1.8,0.3,2.5,1v-1.5
		c0-1.1-0.9-1.7-1.9-1.7c-0.9,0-1.6,0.3-2.3,1.1l-0.4-0.5c0.8-0.8,1.6-1.2,2.8-1.2c1.5,0,2.6,0.7,2.6,2.3v5.1h-0.8V636z
		 M-168.1,634.6V633c-0.5-0.7-1.3-1-2.2-1c-1.2,0-2,0.8-2,1.8s0.8,1.8,2,1.8C-169.4,635.6-168.6,635.2-168.1,634.6z"/>
	<path class="st2" d="M-164.7,634.6v-5.2h-1.2v-0.7h1.2v-2h0.8v2h1.5v0.7h-1.5v5c0,0.6,0.2,1,0.8,1c0.3,0,0.6-0.2,0.8-0.3l0.3,0.6
		c-0.3,0.3-0.6,0.4-1.2,0.4C-164.3,636.2-164.7,635.6-164.7,634.6z"/>
	<path class="st2" d="M-161,627c0-0.3,0.3-0.6,0.6-0.6c0.3,0,0.6,0.3,0.6,0.6s-0.3,0.6-0.6,0.6C-160.7,627.6-161,627.3-161,627z
		 M-160.7,636v-7.2h0.8v7.2H-160.7z"/>
	<path class="st2" d="M-157.9,632.4c0-2.1,1.3-3.8,3.5-3.8c2.1,0,3.5,1.7,3.5,3.8s-1.3,3.8-3.5,3.8
		C-156.6,636.2-157.9,634.5-157.9,632.4z M-151.8,632.4c0-1.6-0.9-3.1-2.7-3.1c-1.7,0-2.6,1.5-2.6,3.1s1,3.1,2.6,3.1
		C-152.8,635.5-151.8,634-151.8,632.4z"/>
	<path class="st2" d="M-144.1,636v-4.9c0-1.4-0.7-1.8-1.8-1.8c-0.9,0-1.9,0.6-2.4,1.2v5.5h-0.7v-7.2h0.8v1.1
		c0.5-0.6,1.6-1.3,2.6-1.3c1.5,0,2.3,0.7,2.3,2.4v5.1L-144.1,636L-144.1,636z"/>
	<path class="st2" d="M-137,636v-10h3.2c3.1,0,5.1,2.3,5.1,5c0,2.8-1.9,5-5.1,5H-137z M-129.6,631c0-2.3-1.5-4.2-4.2-4.2h-2.3v8.4
		h2.3C-131.1,635.2-129.6,633.3-129.6,631z"/>
	<path class="st2" d="M-122,636v-0.9c-0.6,0.7-1.5,1-2.5,1c-1.2,0-2.5-0.9-2.5-2.4c0-1.6,1.3-2.4,2.5-2.4c1,0,1.8,0.3,2.5,1v-1.5
		c0-1.1-0.9-1.7-1.9-1.7c-0.9,0-1.6,0.3-2.3,1.1l-0.4-0.5c0.8-0.8,1.6-1.2,2.8-1.2c1.5,0,2.6,0.7,2.6,2.3v5.1h-0.8V636z M-122,634.6
		V633c-0.5-0.7-1.3-1-2.2-1c-1.2,0-2,0.8-2,1.8s0.8,1.8,2,1.8C-123.3,635.6-122.5,635.2-122,634.6z"/>
	<path class="st2" d="M-118.6,634.6v-5.2h-1.2v-0.7h1.2v-2h0.8v2h1.5v0.7h-1.5v5c0,0.6,0.2,1,0.7,1c0.3,0,0.6-0.2,0.8-0.3l0.3,0.6
		c-0.3,0.3-0.6,0.4-1.2,0.4C-118.2,636.2-118.6,635.6-118.6,634.6z"/>
	<path class="st2" d="M-110.1,636v-0.9c-0.6,0.7-1.5,1-2.5,1c-1.2,0-2.5-0.9-2.5-2.4c0-1.6,1.3-2.4,2.5-2.4c1,0,1.8,0.3,2.5,1v-1.5
		c0-1.1-0.9-1.7-1.9-1.7c-0.9,0-1.6,0.3-2.3,1.1l-0.4-0.5c0.8-0.8,1.6-1.2,2.8-1.2c1.5,0,2.6,0.7,2.6,2.3v5.1h-0.8V636z
		 M-110.1,634.6V633c-0.5-0.7-1.3-1-2.2-1c-1.2,0-2,0.8-2,1.8s0.8,1.8,2,1.8C-111.4,635.6-110.6,635.2-110.1,634.6z"/>
</g>
<path class="st3" d="M8,644.2C8,650.7,3.2,659-3.3,659h-76.6c-6.5,0-13.1-8.3-13.1-14.8v-75.7c0-6.5,6.6-8.5,13.1-8.5h76.6
	c6.5,0,11.3,1.9,11.3,8.5V644.2z"/>
<g>
	<g>
		<rect x="-92.5" y="626" class="st0" width="100" height="27.9"/>
	</g>
	<g class="st1">
		<path class="st2" d="M-67.6,636l-1-2.5h-5.3l-1,2.5h-1l4.1-10h1.1l4.1,10H-67.6z M-71.2,626.9l-2.4,5.8h4.7L-71.2,626.9z"/>
		<path class="st2" d="M-64.4,634.8v3.9h-0.8v-10h0.8v1.1c0.5-0.7,1.4-1.3,2.5-1.3c1.9,0,3.2,1.5,3.2,3.8s-1.3,3.8-3.2,3.8
			C-62.9,636.2-63.8,635.7-64.4,634.8z M-59.5,632.4c0-1.8-0.9-3.1-2.5-3.1c-1,0-2,0.6-2.4,1.3v3.6c0.4,0.7,1.4,1.3,2.4,1.3
			C-60.4,635.5-59.5,634.1-59.5,632.4z"/>
		<path class="st2" d="M-55.9,634.8v3.9h-0.8v-10h0.8v1.1c0.5-0.7,1.4-1.3,2.5-1.3c1.9,0,3.2,1.5,3.2,3.8s-1.3,3.8-3.2,3.8
			C-54.4,636.2-55.3,635.7-55.9,634.8z M-51,632.4c0-1.8-0.9-3.1-2.5-3.1c-1,0-2,0.6-2.4,1.3v3.6c0.4,0.7,1.4,1.3,2.4,1.3
			C-51.9,635.5-51,634.1-51,632.4z"/>
		<path class="st2" d="M-44.3,636v-10h0.9v10H-44.3z"/>
		<path class="st2" d="M-36.1,636v-4.9c0-1.4-0.7-1.8-1.8-1.8c-0.9,0-1.9,0.6-2.4,1.2v5.5h-0.8v-7.2h0.8v1.1
			c0.5-0.6,1.6-1.3,2.6-1.3c1.5,0,2.3,0.7,2.3,2.4v5.1L-36.1,636L-36.1,636z"/>
		<path class="st2" d="M-33.5,635l0.5-0.6c0.5,0.6,1.3,1.1,2.3,1.1c1.2,0,1.9-0.6,1.9-1.5c0-2-4.6-0.9-4.6-3.5c0-1.1,0.9-2,2.6-2
			c1.2,0,2.1,0.5,2.6,1.1l-0.4,0.6c-0.4-0.6-1.2-1-2.2-1c-1.1,0-1.8,0.6-1.8,1.3c0,1.8,4.6,0.7,4.6,3.5c0,1.2-0.9,2.1-2.7,2.1
			C-31.9,636.2-32.8,635.8-33.5,635z"/>
		<path class="st2" d="M-25.8,634.6v-5.2H-27v-0.7h1.2v-2h0.8v2h1.5v0.7H-25v5c0,0.6,0.2,1,0.8,1c0.3,0,0.6-0.2,0.8-0.3l0.3,0.6
			c-0.3,0.3-0.6,0.4-1.2,0.4C-25.3,636.2-25.8,635.6-25.8,634.6z"/>
		<path class="st2" d="M-17.2,636v-0.9c-0.6,0.7-1.5,1-2.5,1c-1.2,0-2.5-0.9-2.5-2.4c0-1.6,1.3-2.4,2.5-2.4c1,0,1.8,0.3,2.5,1v-1.5
			c0-1.1-0.9-1.7-1.9-1.7c-0.9,0-1.6,0.3-2.3,1.1l-0.4-0.5c0.8-0.8,1.6-1.2,2.8-1.2c1.5,0,2.6,0.7,2.6,2.3v5.1h-0.8V636z
			 M-17.2,634.6V633c-0.5-0.7-1.3-1-2.2-1c-1.2,0-2,0.8-2,1.8s0.8,1.8,2,1.8C-18.6,635.6-17.7,635.2-17.2,634.6z"/>
		<path class="st2" d="M-14,636v-10h0.8v10H-14z"/>
		<path class="st2" d="M-10.8,636v-10h0.8v10H-10.8z"/>
	</g>
	<g class="st1">
		<path class="st2" d="M-56.3,649.8v-10h3.2c3.1,0,5.1,2.3,5.1,5c0,2.8-2,5-5.1,5H-56.3z M-48.9,644.8c0-2.3-1.5-4.2-4.2-4.2h-2.3
			v8.4h2.3C-50.4,649-48.9,647.1-48.9,644.8z"/>
		<path class="st2" d="M-41.3,649.8v-0.9c-0.6,0.7-1.5,1-2.5,1c-1.2,0-2.5-0.9-2.5-2.4c0-1.6,1.3-2.4,2.5-2.4c1,0,1.8,0.3,2.5,1
			v-1.5c0-1.1-0.9-1.7-1.9-1.7c-0.9,0-1.6,0.3-2.3,1.1l-0.4-0.5c0.8-0.8,1.6-1.2,2.8-1.2c1.5,0,2.6,0.7,2.6,2.3v5.1h-0.8V649.8z
			 M-41.3,648.4v-1.6c-0.5-0.7-1.3-1-2.2-1c-1.2,0-2,0.8-2,1.8s0.8,1.8,2,1.8C-42.6,649.4-41.8,649-41.3,648.4z"/>
		<path class="st2" d="M-37.9,648.4v-5.2h-1.2v-0.7h1.2v-2h0.8v2h1.5v0.7h-1.5v5c0,0.6,0.2,1,0.8,1c0.3,0,0.6-0.2,0.8-0.3l0.3,0.6
			c-0.3,0.3-0.6,0.4-1.2,0.4C-37.5,650-37.9,649.4-37.9,648.4z"/>
		<path class="st2" d="M-29.4,649.8v-0.9c-0.6,0.7-1.5,1-2.5,1c-1.2,0-2.5-0.9-2.5-2.4c0-1.6,1.3-2.4,2.5-2.4c1,0,1.8,0.3,2.5,1
			v-1.5c0-1.1-0.9-1.7-1.9-1.7c-0.9,0-1.6,0.3-2.3,1.1l-0.4-0.5c0.8-0.8,1.6-1.2,2.8-1.2c1.5,0,2.6,0.7,2.6,2.3v5.1h-0.8V649.8z
			 M-29.4,648.4v-1.6c-0.5-0.7-1.3-1-2.2-1c-1.2,0-2,0.8-2,1.8s0.8,1.8,2,1.8C-30.7,649.4-29.9,649-29.4,648.4z"/>
	</g>
</g>
<g>
	<path class="st2" d="M-150.7,578.1c-0.8-1.4-2.2-2.1-3.9-2.1h-20.1c-1.6,0-2.3,1.2-2.3,2.8v1.2h27.3L-150.7,578.1z"/>
	<path class="st2" d="M-131.4,583h-45.5v27c0,1.6,0.7,2,2.3,2h43.2c1.6,0,3.5-0.4,3.5-2v-24.1c0-1.6-1.5-2.9-3.1-2.9H-131.4z"/>
</g>
<g>
	<path class="st2" d="M-37.2,608h-23.3v-34h24v2h3v-2.5c0-3-2.9-5.5-5.9-5.5h-18.8c-3,0-5.2,2.5-5.2,5.5V613c0,3,2.2,6,5.2,6h18.8
		c3,0,5.9-2.9,5.9-6v-5H-37.2L-37.2,608z M-48.8,615.8c-1.4,0-2.5-1.1-2.5-2.5s1.1-2.5,2.5-2.5s2.5,1.1,2.5,2.5
		S-47.4,615.8-48.8,615.8L-48.8,615.8z"/>
	<rect x="-57.5" y="577" class="st2" width="7" height="5"/>
	<rect x="-57.5" y="588" class="st2" width="7" height="5"/>
	<rect x="-57.5" y="600" class="st2" width="7" height="4"/>
	<path class="st2" d="M-25.7,590c-0.3-1-0.8-2.3-1.5-3.3l2.5-2.4l-2.6-2.5l-2.1,2.6c-1.1-0.7-2.1-1.2-3.1-1.4v-4h-4v3.9
		c-1,0.3-2.8,0.8-3.8,1.5l-2.7-2.5l-2.6,2.6l2.5,2.3c-0.7,1.1-1.2,2.3-1.5,3.3h-2.9v4h2.8c0.2,1,0.8,2.6,1.5,3.7l-2.5,2.6l2.6,2.6
		l2.8-2.5c1.1,0.7,2.8,1.2,3.8,1.5v3.2h4V602c1-0.2,2.1-0.8,3.1-1.5l2.3,2.5l2.5-2.6l-2.6-2.6c0.7-1.1,1.2-2.7,1.4-3.7h4.2v-4
		L-25.7,590L-25.7,590z M-35.2,596.3c-2.2,0-4-1.8-4-4s1.8-4,4-4s4,1.8,4,4S-33,596.3-35.2,596.3L-35.2,596.3z"/>
</g>
</svg>
