<?xml version="1.0" encoding="utf-8"?>
<!-- Generator: Adobe Illustrator 19.1.0, SVG Export Plug-In . SVG Version: 6.00 Build 0)  -->
<svg version="1.1" id="Layer_1" xmlns="http://www.w3.org/2000/svg" xmlns:xlink="http://www.w3.org/1999/xlink" x="0px" y="0px"
	 viewBox="0 0 298.5 496.1" style="enable-background:new 0 0 298.5 496.1;" xml:space="preserve">
<style type="text/css">
	.st0{fill:#4ABEBF;}
	.st1{fill:none;}
	.st2{fill:#FFFFFF;}
	.st3{fill:#231F20;}
	.st4{fill:#FFFFFF;stroke:#4BBEBE;stroke-width:0.6102;stroke-miterlimit:10;}
	.st5{fill:none;stroke:#FFFFFF;stroke-width:0.623;stroke-miterlimit:10;}
	.st6{fill:none;stroke:#FFFFFF;stroke-width:0.5196;stroke-miterlimit:10;}
	.st7{fill:none;stroke:#FFFFFF;stroke-width:0.5212;}
	.st8{fill:none;stroke:#FFFFFF;stroke-width:0.4075;}
	.st9{fill:none;stroke:#FFFFFF;stroke-width:0.415;}
	.st10{fill:none;stroke:#FFFFFF;stroke-width:0.4261;}
	.st11{fill:none;stroke:#FFFFFF;stroke-width:0.3943;}
	.st12{fill:#1E1F1E;}
	.st13{fill-rule:evenodd;clip-rule:evenodd;fill:#FFFFFF;}
</style>
<path class="st0" d="M204.5,477.3c0,7.3-5.9,13.3-13.3,13.3h-85.8c-7.3,0-13.3-5.9-13.3-13.3v-84.9c0-7.3,5.9-13.3,13.3-13.3h85.8
	c7.3,0,13.3,5.9,13.3,13.3V477.3z"/>
<path class="st0" d="M136.5,353.1c0,7.3-5.9,13.3-13.3,13.3H37.4c-7.3,0-13.3-5.9-13.3-13.3v-84.9c0-7.3,5.9-13.3,13.3-13.3h85.8
	c7.3,0,13.3,5.9,13.3,13.3V353.1z"/>
<path class="st0" d="M273.5,353.1c0,7.3-5.9,13.3-13.3,13.3h-85.8c-7.3,0-13.3-5.9-13.3-13.3v-84.9c0-7.3,5.9-13.3,13.3-13.3h85.8
	c7.3,0,13.3,5.9,13.3,13.3V353.1z"/>
<path class="st0" d="M136.5,227.4c0,7.3-5.9,13.3-13.3,13.3H37.4c-7.3,0-13.3-5.9-13.3-13.3v-84.9c0-7.3,5.9-13.3,13.3-13.3h85.8
	c7.3,0,13.3,5.9,13.3,13.3V227.4z"/>
<path class="st0" d="M273.5,227.4c0,7.3-5.9,13.3-13.3,13.3h-85.8c-7.3,0-13.3-5.9-13.3-13.3v-84.9c0-7.3,5.9-13.3,13.3-13.3h85.8
	c7.3,0,13.3,5.9,13.3,13.3V227.4z"/>
<rect x="48" y="141.6" class="st1" width="57.2" height="57.3"/>
<path class="st2" d="M99.8,164.8h-5.8c-0.3-1.1-0.8-2.2-1.4-3.2l3.9-3.9c0.9-0.9,0.9-2.4,0-3.3l-1.6-1.6c-0.9-0.9-2.4-0.9-3.3,0
	l-3.9,3.9c-1.1-0.6-2.2-1.1-3.4-1.4v-5.1c0-1.3-1-2.3-2.3-2.3h-2.3c-1.3,0-2.3,1-2.3,2.3v5.1c-1.3,0.3-2.6,0.9-3.7,1.6l-3.3-3.3
	c-0.9-0.9-2.4-0.9-3.3,0l-1.7,1.6c-0.9,0.9-0.9,2.4,0,3.3l3.4,3.4c-0.7,1.2-1.2,2.6-1.6,4h-4.4c-1.3,0-2.3,1-2.3,2.3v2.3
	c0,1.3,1,2.3,2.3,2.3h4.7c0.4,1.4,1.1,2.7,1.9,3.9l-3.2,3.2c-0.9,0.9-0.9,2.4,0,3.3l1.6,1.6c0.9,0.9,2.4,0.9,3.3,0l3.5-3.5
	c1.2,0.6,2.5,1,3.9,1.2v4.9c0,1.3,1,2.3,2.3,2.3h2.3c1.3,0,2.3-1,2.3-2.3v-5.5c1.2-0.4,2.3-1,3.3-1.7l3.7,3.7c0.9,0.9,2.4,0.9,3.3,0
	l1.6-1.6c0.9-0.9,0.9-2.4,0-3.3l-4.1-4.1c0.5-1,0.9-2.1,1.1-3.3h5.5c1.3,0,2.3-1,2.3-2.3v-2.3C102.1,165.9,101.1,164.8,99.8,164.8z
	 M80.5,176.8c-4.4,0-7.9-3.5-7.9-7.9c0-4.4,3.5-7.9,7.9-7.9c4.4,0,7.9,3.5,7.9,7.9C88.4,173.3,84.9,176.8,80.5,176.8z"/>
<g>
	<path class="st3" d="M48.8,213.9v-8h3c1.5,0,2.4,1.1,2.4,2.3s-0.9,2.3-2.4,2.3h-2.3v3.3H48.8z M53.4,208.3c0-1-0.7-1.7-1.8-1.7
		h-2.2v3.4h2.2C52.7,210,53.4,209.3,53.4,208.3z"/>
	<path class="st3" d="M55.1,211.1c0-1.7,1.2-3,2.8-3c1.8,0,2.7,1.4,2.7,3.1v0.2h-4.8c0.1,1.3,0.9,2.3,2.3,2.3c0.7,0,1.4-0.3,1.9-0.8
		l0.3,0.4c-0.6,0.6-1.3,0.9-2.3,0.9C56.3,214.1,55.1,212.8,55.1,211.1z M57.9,208.6c-1.4,0-2,1.2-2.1,2.2H60
		C60,209.8,59.3,208.6,57.9,208.6z"/>
	<path class="st3" d="M62.2,213.9v-5.8h0.6v1c0.5-0.6,1.1-1.1,2-1.1v0.7c-0.1,0-0.2,0-0.3,0c-0.6,0-1.4,0.5-1.6,1v4.2H62.2z"/>
	<path class="st3" d="M65.5,213.2l0.4-0.5c0.4,0.5,1.1,0.9,1.9,0.9c1,0,1.5-0.5,1.5-1.2c0-1.6-3.7-0.7-3.7-2.8
		c0-0.9,0.8-1.6,2.1-1.6c1,0,1.7,0.4,2.1,0.9l-0.3,0.4c-0.3-0.5-1-0.8-1.7-0.8c-0.9,0-1.4,0.5-1.4,1.1c0,1.4,3.6,0.6,3.6,2.8
		c0,0.9-0.7,1.7-2.2,1.7C66.8,214.1,66.1,213.8,65.5,213.2z"/>
	<path class="st3" d="M71.2,211.1c0-1.7,1.1-3,2.8-3c1.7,0,2.8,1.3,2.8,3c0,1.7-1.1,3-2.8,3C72.3,214.1,71.2,212.7,71.2,211.1z
		 M76.1,211.1c0-1.3-0.8-2.5-2.1-2.5c-1.3,0-2.1,1.2-2.1,2.5c0,1.3,0.8,2.5,2.1,2.5C75.3,213.5,76.1,212.3,76.1,211.1z"/>
	<path class="st3" d="M82.2,213.9V210c0-1.1-0.6-1.4-1.4-1.4c-0.7,0-1.5,0.5-1.9,1v4.4h-0.6v-5.8H79v0.9c0.4-0.5,1.2-1,2.1-1
		c1.2,0,1.8,0.6,1.8,1.9v4H82.2z"/>
	<path class="st3" d="M88.5,213.9v-0.7c-0.5,0.6-1.2,0.8-2,0.8c-1,0-2-0.7-2-1.9c0-1.3,1-1.9,2-1.9c0.8,0,1.5,0.3,2,0.8v-1.2
		c0-0.9-0.7-1.3-1.5-1.3c-0.7,0-1.3,0.3-1.8,0.9l-0.3-0.4c0.6-0.6,1.3-1,2.2-1c1.2,0,2.1,0.6,2.1,1.9v4.1H88.5z M88.5,212.8v-1.3
		c-0.4-0.5-1.1-0.8-1.7-0.8c-0.9,0-1.6,0.6-1.6,1.4c0,0.8,0.6,1.4,1.6,1.4C87.4,213.6,88.1,213.3,88.5,212.8z"/>
	<path class="st3" d="M91,213.9v-8h0.6v8H91z"/>
	<path class="st3" d="M93.4,206.8c0-0.3,0.2-0.5,0.5-0.5c0.3,0,0.5,0.2,0.5,0.5c0,0.3-0.2,0.5-0.5,0.5
		C93.7,207.3,93.4,207,93.4,206.8z M93.6,213.9v-5.8h0.6v5.8H93.6z"/>
	<path class="st3" d="M95.9,213.9v-0.5l3.4-4.7h-3.4v-0.6h4.2v0.5l-3.5,4.7h3.5v0.6H95.9z"/>
	<path class="st3" d="M101.4,211.1c0-1.7,1.2-3,2.8-3c1.8,0,2.7,1.4,2.7,3.1v0.2h-4.8c0.1,1.3,0.9,2.3,2.3,2.3
		c0.7,0,1.4-0.3,1.9-0.8l0.3,0.4c-0.6,0.6-1.3,0.9-2.3,0.9C102.6,214.1,101.4,212.8,101.4,211.1z M104.2,208.6c-1.4,0-2,1.2-2.1,2.2
		h4.2C106.3,209.8,105.7,208.6,104.2,208.6z"/>
	<path class="st3" d="M112.8,213.9V213c-0.4,0.6-1.1,1.1-2,1.1c-1.5,0-2.6-1.2-2.6-3c0-1.8,1-3,2.6-3c0.8,0,1.6,0.4,2,1.1V206h0.6v8
		H112.8z M112.8,212.5v-2.9c-0.3-0.6-1.1-1.1-1.9-1.1c-1.3,0-2,1.1-2,2.5s0.7,2.5,2,2.5C111.7,213.5,112.5,213.1,112.8,212.5z"/>
	<path class="st3" d="M41.4,225.8l-2.2-3.3h-1.8v3.3h-0.7v-8h3c1.4,0,2.4,0.9,2.4,2.3c0,1.4-1,2.3-2.2,2.3l2.3,3.4H41.4z
		 M41.5,220.2c0-1-0.7-1.7-1.8-1.7h-2.2v3.4h2.2C40.7,221.9,41.5,221.2,41.5,220.2z"/>
	<path class="st3" d="M43.2,222.9c0-1.7,1.2-3,2.8-3c1.8,0,2.7,1.4,2.7,3.1v0.2h-4.8c0.1,1.3,0.9,2.3,2.3,2.3c0.7,0,1.4-0.3,1.9-0.8
		l0.3,0.4c-0.6,0.6-1.3,0.9-2.3,0.9C44.4,226,43.2,224.7,43.2,222.9z M45.9,220.5c-1.4,0-2,1.2-2.1,2.2H48
		C48,221.7,47.4,220.5,45.9,220.5z"/>
	<path class="st3" d="M50,222.9c0-1.7,1.1-3,2.8-3c1,0,1.6,0.4,2,1l-0.4,0.4c-0.4-0.6-0.9-0.8-1.6-0.8c-1.4,0-2.2,1.1-2.2,2.5
		c0,1.4,0.8,2.5,2.2,2.5c0.6,0,1.2-0.2,1.6-0.8l0.4,0.4c-0.5,0.6-1,1-2,1C51.1,226,50,224.6,50,222.9z"/>
	<path class="st3" d="M55.9,222.9c0-1.7,1.1-3,2.8-3c1.7,0,2.8,1.3,2.8,3c0,1.7-1.1,3-2.8,3C56.9,226,55.9,224.6,55.9,222.9z
		 M60.7,222.9c0-1.3-0.8-2.5-2.1-2.5c-1.3,0-2.1,1.2-2.1,2.5c0,1.3,0.8,2.5,2.1,2.5C60,225.4,60.7,224.2,60.7,222.9z"/>
	<path class="st3" d="M69.9,225.8v-4c0-0.8-0.3-1.3-1.2-1.3c-0.6,0-1.3,0.5-1.7,1v4.4h-0.6v-4c0-0.8-0.3-1.3-1.1-1.3
		c-0.6,0-1.3,0.5-1.7,1v4.4H63v-5.8h0.6v0.9c0.2-0.4,1-1,1.9-1c0.9,0,1.4,0.5,1.5,1.1c0.3-0.5,1.1-1.1,1.9-1.1
		c1.1,0,1.6,0.6,1.6,1.8v4.2H69.9z"/>
	<path class="st3" d="M79.3,225.8v-4c0-0.8-0.3-1.3-1.2-1.3c-0.6,0-1.3,0.5-1.7,1v4.4h-0.6v-4c0-0.8-0.3-1.3-1.1-1.3
		c-0.6,0-1.3,0.5-1.7,1v4.4h-0.6v-5.8h0.6v0.9c0.2-0.4,1-1,1.9-1c0.9,0,1.4,0.5,1.5,1.1c0.3-0.5,1.1-1.1,1.9-1.1
		c1.1,0,1.6,0.6,1.6,1.8v4.2H79.3z"/>
	<path class="st3" d="M81.6,222.9c0-1.7,1.2-3,2.8-3c1.8,0,2.7,1.4,2.7,3.1v0.2h-4.8c0.1,1.3,0.9,2.3,2.3,2.3c0.7,0,1.4-0.3,1.9-0.8
		l0.3,0.4c-0.6,0.6-1.3,0.9-2.3,0.9C82.8,226,81.6,224.7,81.6,222.9z M84.4,220.5c-1.4,0-2,1.2-2.1,2.2h4.2
		C86.4,221.7,85.8,220.5,84.4,220.5z"/>
	<path class="st3" d="M92.6,225.8v-3.9c0-1.1-0.6-1.4-1.4-1.4c-0.7,0-1.5,0.5-1.9,1v4.4h-0.6v-5.8h0.6v0.9c0.4-0.5,1.2-1,2.1-1
		c1.2,0,1.8,0.6,1.8,1.9v4H92.6z"/>
	<path class="st3" d="M99.4,225.8v-0.9c-0.4,0.6-1.1,1.1-2,1.1c-1.5,0-2.6-1.2-2.6-3c0-1.8,1-3,2.6-3c0.8,0,1.6,0.4,2,1.1v-3.1h0.6
		v8H99.4z M99.4,224.4v-2.9c-0.3-0.6-1.1-1.1-1.9-1.1c-1.3,0-2,1.1-2,2.5s0.7,2.5,2,2.5C98.3,225.4,99.1,224.9,99.4,224.4z"/>
	<path class="st3" d="M105.7,225.8v-0.7c-0.5,0.6-1.2,0.8-2,0.8c-1,0-2-0.7-2-1.9c0-1.3,1-1.9,2-1.9c0.8,0,1.5,0.3,2,0.8v-1.2
		c0-0.9-0.7-1.3-1.5-1.3c-0.7,0-1.3,0.3-1.8,0.9l-0.3-0.4c0.6-0.6,1.3-1,2.2-1c1.2,0,2.1,0.6,2.1,1.9v4.1H105.7z M105.7,224.7v-1.3
		c-0.4-0.5-1.1-0.8-1.7-0.8c-0.9,0-1.6,0.6-1.6,1.4c0,0.8,0.6,1.4,1.6,1.4C104.6,225.5,105.3,225.2,105.7,224.7z"/>
	<path class="st3" d="M108.4,224.7v-4.1h-1v-0.6h1v-1.6h0.6v1.6h1.2v0.6H109v4c0,0.5,0.2,0.8,0.6,0.8c0.3,0,0.5-0.1,0.6-0.3l0.2,0.5
		c-0.2,0.2-0.5,0.4-1,0.4C108.7,226,108.4,225.5,108.4,224.7z"/>
	<path class="st3" d="M111.4,218.7c0-0.3,0.2-0.5,0.5-0.5c0.3,0,0.5,0.2,0.5,0.5c0,0.3-0.2,0.5-0.5,0.5
		C111.6,219.1,111.4,218.9,111.4,218.7z M111.5,225.8v-5.8h0.6v5.8H111.5z"/>
	<path class="st3" d="M113.8,222.9c0-1.7,1.1-3,2.8-3c1.7,0,2.8,1.3,2.8,3c0,1.7-1.1,3-2.8,3C114.8,226,113.8,224.6,113.8,222.9z
		 M118.6,222.9c0-1.3-0.8-2.5-2.1-2.5c-1.3,0-2.1,1.2-2.1,2.5c0,1.3,0.8,2.5,2.1,2.5C117.9,225.4,118.6,224.2,118.6,222.9z"/>
	<path class="st3" d="M124.8,225.8v-3.9c0-1.1-0.6-1.4-1.4-1.4c-0.7,0-1.5,0.5-1.9,1v4.4h-0.6v-5.8h0.6v0.9c0.4-0.5,1.2-1,2.1-1
		c1.2,0,1.8,0.6,1.8,1.9v4H124.8z"/>
</g>
<g>
	<path class="st3" d="M34.7,341v-8H38c1.3,0,2.2,0.8,2.2,2c0,1-0.7,1.7-1.4,1.8c0.8,0.1,1.6,1,1.6,2c0,1.3-0.9,2.2-2.3,2.2H34.7z
		 M39.4,335.1c0-0.8-0.5-1.5-1.6-1.5h-2.5v3h2.5C38.9,336.6,39.4,335.9,39.4,335.1z M39.6,338.8c0-0.8-0.6-1.6-1.7-1.6h-2.6v3.2h2.6
		C39,340.4,39.6,339.8,39.6,338.8z"/>
	<path class="st3" d="M41.9,333.8c0-0.3,0.2-0.5,0.5-0.5c0.3,0,0.5,0.2,0.5,0.5c0,0.3-0.2,0.5-0.5,0.5
		C42.1,334.3,41.9,334.1,41.9,333.8z M42,341v-5.8h0.6v5.8H42z"/>
	<path class="st3" d="M44.6,342.5L45,342c0.5,0.6,1.1,0.8,1.9,0.8c1,0,2-0.5,2-1.8V340c-0.4,0.6-1.1,1.1-2,1.1c-1.5,0-2.6-1.2-2.6-3
		c0-1.8,1-3,2.6-3c0.8,0,1.5,0.4,2,1.1v-0.9h0.6v5.7c0,1.8-1.2,2.4-2.6,2.4C45.9,343.3,45.3,343.2,44.6,342.5z M48.8,339.5v-2.8
		c-0.3-0.6-1.1-1.1-1.9-1.1c-1.3,0-2,1.1-2,2.5s0.7,2.5,2,2.5C47.7,340.5,48.5,340.1,48.8,339.5z"/>
	<path class="st3" d="M54.5,341v-8h2.6c2.5,0,4,1.8,4,4c0,2.2-1.6,4-4,4H54.5z M60.4,337c0-1.9-1.2-3.4-3.3-3.4h-1.9v6.7h1.9
		C59.2,340.4,60.4,338.9,60.4,337z"/>
	<path class="st3" d="M66.5,341v-0.7c-0.5,0.6-1.2,0.8-2,0.8c-1,0-2-0.7-2-1.9c0-1.3,1-1.9,2-1.9c0.8,0,1.5,0.3,2,0.8v-1.2
		c0-0.9-0.7-1.3-1.5-1.3c-0.7,0-1.3,0.3-1.8,0.9l-0.3-0.4c0.6-0.6,1.3-1,2.2-1c1.2,0,2.1,0.6,2.1,1.9v4.1H66.5z M66.5,339.9v-1.3
		c-0.4-0.5-1.1-0.8-1.7-0.8c-0.9,0-1.6,0.6-1.6,1.4c0,0.8,0.6,1.4,1.6,1.4C65.4,340.6,66.1,340.4,66.5,339.9z"/>
	<path class="st3" d="M69.1,339.9v-4.1h-1v-0.6h1v-1.6h0.6v1.6h1.2v0.6h-1.2v4c0,0.5,0.2,0.8,0.6,0.8c0.3,0,0.5-0.1,0.6-0.3l0.2,0.5
		c-0.2,0.2-0.5,0.4-1,0.4C69.5,341.1,69.1,340.7,69.1,339.9z"/>
	<path class="st3" d="M76,341v-0.7c-0.5,0.6-1.2,0.8-2,0.8c-1,0-2-0.7-2-1.9c0-1.3,1-1.9,2-1.9c0.8,0,1.5,0.3,2,0.8v-1.2
		c0-0.9-0.7-1.3-1.5-1.3c-0.7,0-1.3,0.3-1.8,0.9l-0.3-0.4c0.6-0.6,1.3-1,2.2-1c1.2,0,2.1,0.6,2.1,1.9v4.1H76z M76,339.9v-1.3
		c-0.4-0.5-1.1-0.8-1.7-0.8c-0.9,0-1.6,0.6-1.6,1.4c0,0.8,0.6,1.4,1.6,1.4C74.9,340.6,75.6,340.4,76,339.9z"/>
	<path class="st3" d="M87.5,341l-0.8-2h-4.2l-0.8,2h-0.8l3.3-8H85l3.3,8H87.5z M84.6,333.7l-1.9,4.7h3.8L84.6,333.7z"/>
	<path class="st3" d="M93.3,341v-3.9c0-1.1-0.6-1.4-1.4-1.4c-0.7,0-1.5,0.5-1.9,1v4.4h-0.6v-5.8H90v0.9c0.4-0.5,1.2-1,2.1-1
		c1.2,0,1.8,0.6,1.8,1.9v4H93.3z"/>
	<path class="st3" d="M99.5,341v-0.7c-0.5,0.6-1.2,0.8-2,0.8c-1,0-2-0.7-2-1.9c0-1.3,1-1.9,2-1.9c0.8,0,1.5,0.3,2,0.8v-1.2
		c0-0.9-0.7-1.3-1.5-1.3c-0.7,0-1.3,0.3-1.8,0.9l-0.3-0.4c0.6-0.6,1.3-1,2.2-1c1.2,0,2.1,0.6,2.1,1.9v4.1H99.5z M99.5,339.9v-1.3
		c-0.4-0.5-1.1-0.8-1.7-0.8c-0.9,0-1.6,0.6-1.6,1.4c0,0.8,0.6,1.4,1.6,1.4C98.5,340.6,99.1,340.4,99.5,339.9z"/>
	<path class="st3" d="M102.1,341v-8h0.6v8H102.1z"/>
	<path class="st3" d="M104.4,342.7c0.1,0.1,0.4,0.1,0.5,0.1c0.4,0,0.6-0.2,0.9-0.7l0.5-1l-2.5-5.8h0.7l2.1,5.1l2.1-5.1h0.7l-3,7.1
		c-0.3,0.7-0.8,1.1-1.5,1.1c-0.2,0-0.5,0-0.6-0.1L104.4,342.7z"/>
	<path class="st3" d="M110.5,339.9v-4.1h-1v-0.6h1v-1.6h0.6v1.6h1.2v0.6h-1.2v4c0,0.5,0.2,0.8,0.6,0.8c0.3,0,0.5-0.1,0.6-0.3
		l0.2,0.5c-0.2,0.2-0.5,0.4-1,0.4C110.9,341.1,110.5,340.7,110.5,339.9z"/>
	<path class="st3" d="M113.5,333.8c0-0.3,0.2-0.5,0.5-0.5c0.3,0,0.5,0.2,0.5,0.5c0,0.3-0.2,0.5-0.5,0.5
		C113.8,334.3,113.5,334.1,113.5,333.8z M113.7,341v-5.8h0.6v5.8H113.7z"/>
	<path class="st3" d="M115.9,338.1c0-1.7,1.1-3,2.8-3c1,0,1.6,0.4,2,1l-0.4,0.4c-0.4-0.6-0.9-0.8-1.6-0.8c-1.4,0-2.2,1.1-2.2,2.5
		s0.8,2.5,2.2,2.5c0.6,0,1.2-0.2,1.6-0.8l0.4,0.4c-0.5,0.6-1,1-2,1C117,341.1,115.9,339.8,115.9,338.1z"/>
	<path class="st3" d="M121.7,340.2l0.4-0.5c0.4,0.5,1.1,0.9,1.9,0.9c1,0,1.5-0.5,1.5-1.2c0-1.6-3.7-0.7-3.7-2.8
		c0-0.9,0.8-1.6,2.1-1.6c1,0,1.7,0.4,2.1,0.8l-0.3,0.4c-0.3-0.5-1-0.8-1.7-0.8c-0.9,0-1.4,0.5-1.4,1.1c0,1.4,3.6,0.6,3.6,2.8
		c0,0.9-0.7,1.7-2.2,1.7C123,341.1,122.2,340.9,121.7,340.2z"/>
</g>
<g>
	<path class="st2" d="M97.5,279.4c0,2.8-7.9,5.1-17.7,5.1c-9.8,0-17.7-2.3-17.7-5.1c0-2.8,7.9-5.1,17.7-5.1
		C89.6,274.3,97.5,276.6,97.5,279.4"/>
	<path class="st2" d="M79.8,287c-1.6,0-12.7-0.1-17.7-3.5v6.1c0,2.8,7.9,5.1,17.7,5.1c9.8,0,17.7-2.3,17.7-5.1v-6.1
		C92.4,286.9,81.4,287,79.8,287"/>
	<path class="st2" d="M79.8,297.1c-1.6,0-12.7-0.1-17.7-3.5v6.1c0,2.8,7.9,5.1,17.7,5.1c9.8,0,17.7-2.3,17.7-5.1v-6.1
		C92.4,297,81.4,297.1,79.8,297.1"/>
	<path class="st2" d="M79.8,307.3c-1.6,0-12.7-0.1-17.7-3.5v6.1c0,2.8,7.9,5.1,17.7,5.1c9.8,0,17.7-2.3,17.7-5.1v-6.1
		C92.4,307.1,81.4,307.3,79.8,307.3"/>
</g>
<g>
	<path class="st3" d="M182.8,340.3l0.4-0.5c0.5,0.6,1.4,1.2,2.5,1.2c1.6,0,2.1-0.9,2.1-1.6c0-2.3-4.8-1.1-4.8-3.9
		c0-1.3,1.2-2.1,2.6-2.1c1.2,0,2.1,0.4,2.7,1.1l-0.5,0.5c-0.6-0.7-1.4-1-2.3-1c-1.1,0-1.9,0.6-1.9,1.5c0,2,4.8,0.9,4.8,3.9
		c0,1-0.7,2.3-2.8,2.3C184.4,341.5,183.4,341,182.8,340.3z"/>
	<path class="st3" d="M189.9,338.5c0-1.7,1.2-3,2.8-3c1.8,0,2.7,1.4,2.7,3.1v0.2h-4.8c0.1,1.3,0.9,2.3,2.3,2.3
		c0.7,0,1.4-0.3,1.9-0.8l0.3,0.4c-0.6,0.6-1.3,0.9-2.3,0.9C191.1,341.5,189.9,340.3,189.9,338.5z M192.6,336c-1.4,0-2,1.2-2.1,2.2
		h4.2C194.7,337.2,194.1,336,192.6,336z"/>
	<path class="st3" d="M197,342.9l0.4-0.5c0.5,0.6,1.1,0.8,1.9,0.8c1,0,2-0.5,2-1.8v-0.9c-0.4,0.6-1.1,1.1-2,1.1
		c-1.5,0-2.6-1.2-2.6-3c0-1.8,1-3,2.6-3c0.8,0,1.5,0.4,2,1.1v-0.9h0.6v5.7c0,1.8-1.2,2.4-2.6,2.4C198.3,343.7,197.7,343.6,197,342.9
		z M201.2,339.9v-2.8c-0.3-0.6-1.1-1.1-1.9-1.1c-1.3,0-2,1.1-2,2.5s0.7,2.5,2,2.5C200.1,341,200.9,340.5,201.2,339.9z"/>
	<path class="st3" d="M210.7,341.4v-4c0-0.8-0.3-1.3-1.2-1.3c-0.6,0-1.3,0.5-1.7,1v4.4h-0.6v-4c0-0.8-0.3-1.3-1.1-1.3
		c-0.6,0-1.3,0.5-1.7,1v4.4h-0.6v-5.8h0.6v0.9c0.2-0.4,1-1,1.9-1c0.9,0,1.4,0.5,1.5,1.1c0.3-0.5,1.1-1.1,1.9-1.1
		c1.1,0,1.6,0.6,1.6,1.8v4.2H210.7z"/>
	<path class="st3" d="M212.9,338.5c0-1.7,1.2-3,2.8-3c1.8,0,2.7,1.4,2.7,3.1v0.2h-4.8c0.1,1.3,0.9,2.3,2.3,2.3
		c0.7,0,1.4-0.3,1.9-0.8l0.3,0.4c-0.6,0.6-1.3,0.9-2.3,0.9C214.1,341.5,212.9,340.3,212.9,338.5z M215.7,336c-1.4,0-2,1.2-2.1,2.2
		h4.2C217.8,337.2,217.1,336,215.7,336z"/>
	<path class="st3" d="M223.9,341.4v-3.9c0-1.1-0.6-1.4-1.4-1.4c-0.7,0-1.5,0.5-1.9,1v4.4H220v-5.8h0.6v0.9c0.4-0.5,1.2-1,2.1-1
		c1.2,0,1.8,0.6,1.8,1.9v4H223.9z"/>
	<path class="st3" d="M226.6,340.3v-4.1h-1v-0.6h1V334h0.6v1.6h1.2v0.6h-1.2v4c0,0.5,0.2,0.8,0.6,0.8c0.3,0,0.5-0.1,0.6-0.3l0.2,0.5
		c-0.2,0.2-0.5,0.4-1,0.4C227,341.5,226.6,341.1,226.6,340.3z"/>
	<path class="st3" d="M233.4,341.4v-0.7c-0.5,0.6-1.2,0.8-2,0.8c-1,0-2-0.7-2-1.9c0-1.3,1-1.9,2-1.9c0.8,0,1.5,0.3,2,0.8v-1.2
		c0-0.9-0.7-1.3-1.5-1.3c-0.7,0-1.3,0.3-1.8,0.9l-0.3-0.4c0.6-0.6,1.3-1,2.2-1c1.2,0,2.1,0.6,2.1,1.9v4.1H233.4z M233.4,340.3V339
		c-0.4-0.5-1.1-0.8-1.7-0.8c-0.9,0-1.6,0.6-1.6,1.4c0,0.8,0.6,1.4,1.6,1.4C232.4,341,233,340.8,233.4,340.3z"/>
	<path class="st3" d="M236.1,340.3v-4.1h-1v-0.6h1V334h0.6v1.6h1.2v0.6h-1.2v4c0,0.5,0.2,0.8,0.6,0.8c0.3,0,0.5-0.1,0.6-0.3l0.2,0.5
		c-0.2,0.2-0.5,0.4-1,0.4C236.5,341.5,236.1,341.1,236.1,340.3z"/>
	<path class="st3" d="M239.1,334.2c0-0.3,0.2-0.5,0.5-0.5c0.3,0,0.5,0.2,0.5,0.5c0,0.3-0.2,0.5-0.5,0.5
		C239.4,334.7,239.1,334.5,239.1,334.2z M239.3,341.4v-5.8h0.6v5.8H239.3z"/>
	<path class="st3" d="M241.5,338.5c0-1.7,1.1-3,2.8-3c1.7,0,2.8,1.3,2.8,3c0,1.7-1.1,3-2.8,3C242.6,341.5,241.5,340.2,241.5,338.5z
		 M246.4,338.5c0-1.3-0.8-2.5-2.1-2.5c-1.3,0-2.1,1.2-2.1,2.5c0,1.3,0.8,2.5,2.1,2.5C245.7,341,246.4,339.8,246.4,338.5z"/>
	<path class="st3" d="M252.6,341.4v-3.9c0-1.1-0.6-1.4-1.4-1.4c-0.7,0-1.5,0.5-1.9,1v4.4h-0.6v-5.8h0.6v0.9c0.4-0.5,1.2-1,2.1-1
		c1.2,0,1.8,0.6,1.8,1.9v4H252.6z"/>
</g>
<path class="st2" d="M224.2,288.3c0,0-13,0-13.9,0h0c-1.2,0-2.2,1-2.2,2.2l0,13.4c0,1.2,1,2.2,2.1,2.2h0c0.7,0,1.3-0.3,1.7-0.8
	l0.8,13.1c0.1,1.2,1,2,2.2,2h4.4c1.2,0,2.1-0.9,2.2-2.1l0.8-13.1c0.4,0.5,1,0.8,1.7,0.8h0c1.2,0,2.1-1,2.1-2.2l0-13.4
	C226.3,289.3,225.4,288.3,224.2,288.3L224.2,288.3z M224.2,288.3"/>
<path class="st2" d="M223.1,280.9c0,3.3-2.7,5.9-5.9,5.9c-3.3,0-5.9-2.7-5.9-5.9c0-3.3,2.7-5.9,5.9-5.9
	C220.5,275,223.1,277.6,223.1,280.9L223.1,280.9z M223.1,280.9"/>
<g>
	<path class="st4" d="M208.7,287.6c0,0-8.3,0-8.9,0h0c-0.8,0-1.4,0.6-1.4,1.4l0,8.6c0,0.8,0.6,1.4,1.4,1.4h0c0.4,0,0.8-0.2,1.1-0.5
		l0.5,8.4c0,0.7,0.7,1.3,1.4,1.3h2.8c0.7,0,1.4-0.6,1.4-1.3l0.5-8.4c0.2,0.3,0.6,0.5,1.1,0.5l0,0c0.8,0,1.4-0.6,1.4-1.4l0-8.6
		C210,288.3,209.4,287.6,208.7,287.6L208.7,287.6z M208.7,287.6"/>
	<path class="st4" d="M208,282.9c0,2.1-1.7,3.8-3.8,3.8c-2.1,0-3.8-1.7-3.8-3.8c0-2.1,1.7-3.8,3.8-3.8
		C206.3,279.1,208,280.8,208,282.9L208,282.9z M208,282.9"/>
</g>
<g>
	<path class="st4" d="M235.5,287.6c0,0-8.3,0-8.9,0h0c-0.8,0-1.4,0.6-1.4,1.4l0,8.6c0,0.8,0.6,1.4,1.4,1.4h0c0.4,0,0.8-0.2,1.1-0.5
		l0.6,8.4c0,0.7,0.7,1.3,1.4,1.3h2.8c0.7,0,1.4-0.6,1.4-1.3l0.6-8.4c0.2,0.3,0.6,0.5,1,0.5h0c0.8,0,1.4-0.6,1.4-1.4l0-8.6
		C236.9,288.3,236.3,287.6,235.5,287.6L235.5,287.6z M235.5,287.6"/>
	<path class="st4" d="M234.9,282.9c0,2.1-1.7,3.8-3.8,3.8c-2.1,0-3.8-1.7-3.8-3.8c0-2.1,1.7-3.8,3.8-3.8
		C233.2,279.1,234.9,280.8,234.9,282.9L234.9,282.9z M234.9,282.9"/>
</g>
<g>
	<path class="st3" d="M103.5,468.9v-8h3c1.5,0,2.4,1.1,2.4,2.3c0,1.3-0.9,2.3-2.4,2.3h-2.3v3.3H103.5z M108.2,463.2
		c0-1-0.7-1.7-1.8-1.7h-2.2v3.4h2.2C107.5,464.9,108.2,464.2,108.2,463.2z"/>
	<path class="st3" d="M110.3,468.9v-5.8h0.6v1c0.5-0.6,1.1-1.1,2-1.1v0.7c-0.1,0-0.2,0-0.3,0c-0.6,0-1.4,0.5-1.6,1v4.2H110.3z"/>
	<path class="st3" d="M113.8,466c0-1.7,1.2-3,2.8-3c1.8,0,2.7,1.4,2.7,3.1v0.2h-4.8c0.1,1.3,0.9,2.3,2.3,2.3c0.7,0,1.4-0.3,1.9-0.8
		l0.3,0.4c-0.6,0.6-1.3,0.9-2.3,0.9C115,469,113.8,467.8,113.8,466z M116.6,463.5c-1.4,0-2,1.2-2.1,2.2h4.2
		C118.7,464.7,118,463.5,116.6,463.5z"/>
	<path class="st3" d="M125.2,468.9V468c-0.4,0.6-1.1,1.1-2,1.1c-1.5,0-2.6-1.2-2.6-3c0-1.8,1-3,2.6-3c0.8,0,1.6,0.4,2,1.1v-3.1h0.6
		v8H125.2z M125.2,467.4v-2.9c-0.3-0.6-1.1-1.1-1.9-1.1c-1.3,0-2,1.1-2,2.5s0.7,2.5,2,2.5C124.1,468.5,124.8,468,125.2,467.4z"/>
	<path class="st3" d="M127.6,461.7c0-0.3,0.2-0.5,0.5-0.5c0.3,0,0.5,0.2,0.5,0.5s-0.2,0.5-0.5,0.5
		C127.8,462.2,127.6,462,127.6,461.7z M127.7,468.9v-5.8h0.6v5.8H127.7z"/>
	<path class="st3" d="M130,466c0-1.7,1.1-3,2.8-3c1,0,1.6,0.4,2,1l-0.4,0.4c-0.4-0.6-0.9-0.8-1.6-0.8c-1.4,0-2.2,1.1-2.2,2.5
		s0.8,2.5,2.2,2.5c0.6,0,1.2-0.2,1.6-0.8l0.4,0.4c-0.5,0.6-1,1-2,1C131.1,469,130,467.7,130,466z"/>
	<path class="st3" d="M136.3,467.8v-4.1h-1v-0.6h1v-1.6h0.6v1.6h1.2v0.6H137v4c0,0.5,0.2,0.8,0.6,0.8c0.3,0,0.5-0.1,0.6-0.3l0.2,0.5
		c-0.2,0.2-0.5,0.4-1,0.4C136.7,469,136.3,468.6,136.3,467.8z"/>
	<path class="st3" d="M139.3,461.7c0-0.3,0.2-0.5,0.5-0.5c0.3,0,0.5,0.2,0.5,0.5s-0.2,0.5-0.5,0.5
		C139.6,462.2,139.3,462,139.3,461.7z M139.5,468.9v-5.8h0.6v5.8H139.5z"/>
	<path class="st3" d="M143.6,468.9l-2.4-5.8h0.7l2.1,5.1l2.1-5.1h0.7l-2.4,5.8H143.6z"/>
	<path class="st3" d="M147.5,466c0-1.7,1.2-3,2.8-3c1.8,0,2.7,1.4,2.7,3.1v0.2h-4.8c0.1,1.3,0.9,2.3,2.3,2.3c0.7,0,1.4-0.3,1.9-0.8
		l0.3,0.4c-0.6,0.6-1.3,0.9-2.3,0.9C148.7,469,147.5,467.8,147.5,466z M150.3,463.5c-1.4,0-2,1.2-2.1,2.2h4.2
		C152.4,464.7,151.7,463.5,150.3,463.5z"/>
	<path class="st3" d="M157.3,467.7l0.4-0.5c0.5,0.6,1.4,1.2,2.5,1.2c1.6,0,2.1-0.9,2.1-1.6c0-2.3-4.8-1.1-4.8-3.9
		c0-1.3,1.2-2.1,2.6-2.1c1.2,0,2.1,0.4,2.7,1.1l-0.5,0.5c-0.6-0.7-1.4-1-2.3-1c-1.1,0-1.9,0.6-1.9,1.5c0,2,4.8,0.9,4.8,3.9
		c0,1-0.7,2.3-2.8,2.3C158.9,469,157.9,468.5,157.3,467.7z"/>
	<path class="st3" d="M164.4,470.6c0.1,0.1,0.4,0.1,0.5,0.1c0.4,0,0.6-0.2,0.9-0.7l0.5-1l-2.5-5.8h0.7l2.1,5.1l2.1-5.1h0.7l-3,7.1
		c-0.3,0.7-0.8,1.1-1.5,1.1c-0.2,0-0.5,0-0.6-0.1L164.4,470.6z"/>
	<path class="st3" d="M169.9,468.1l0.4-0.5c0.4,0.5,1.1,0.9,1.9,0.9c1,0,1.5-0.5,1.5-1.2c0-1.6-3.7-0.7-3.7-2.8
		c0-0.9,0.8-1.6,2.1-1.6c1,0,1.7,0.4,2.1,0.8l-0.3,0.4c-0.3-0.5-1-0.8-1.7-0.8c-0.9,0-1.4,0.5-1.4,1.1c0,1.4,3.6,0.6,3.6,2.8
		c0,0.9-0.7,1.7-2.2,1.7C171.2,469,170.5,468.7,169.9,468.1z"/>
	<path class="st3" d="M176,467.8v-4.1h-1v-0.6h1v-1.6h0.6v1.6h1.2v0.6h-1.2v4c0,0.5,0.2,0.8,0.6,0.8c0.3,0,0.5-0.1,0.6-0.3l0.2,0.5
		c-0.2,0.2-0.5,0.4-1,0.4C176.4,469,176,468.6,176,467.8z"/>
	<path class="st3" d="M178.9,466c0-1.7,1.2-3,2.8-3c1.8,0,2.7,1.4,2.7,3.1v0.2h-4.8c0.1,1.3,0.9,2.3,2.3,2.3c0.7,0,1.4-0.3,1.9-0.8
		l0.3,0.4c-0.6,0.6-1.3,0.9-2.3,0.9C180.1,469,178.9,467.8,178.9,466z M181.6,463.5c-1.4,0-2,1.2-2.1,2.2h4.2
		C183.7,464.7,183.1,463.5,181.6,463.5z"/>
	<path class="st3" d="M192.8,468.9v-4c0-0.8-0.3-1.3-1.2-1.3c-0.6,0-1.3,0.5-1.7,1v4.4h-0.6v-4c0-0.8-0.3-1.3-1.1-1.3
		c-0.6,0-1.3,0.5-1.7,1v4.4H186v-5.8h0.6v0.9c0.2-0.4,1-1,1.9-1c0.9,0,1.4,0.5,1.5,1.1c0.3-0.5,1.1-1.1,1.9-1.1
		c1.1,0,1.6,0.6,1.6,1.8v4.2H192.8z"/>
</g>
<g>
	<path class="st5" d="M119.6,418.9c0,1.8-1.5,3.3-3.3,3.3c-1.8,0-3.3-1.5-3.3-3.3c0-1.8,1.5-3.3,3.3-3.3
		C118.1,415.5,119.6,417,119.6,418.9z"/>
	<path class="st5" d="M138,407.7c0,1.8-1.5,3.3-3.3,3.3c-1.8,0-3.3-1.5-3.3-3.3s1.5-3.3,3.3-3.3C136.5,404.3,138,405.8,138,407.7z"
		/>
	<path class="st5" d="M148.9,418.9c0,1.8-1.5,3.3-3.3,3.3c-1.8,0-3.3-1.5-3.3-3.3c0-1.8,1.5-3.3,3.3-3.3
		C147.4,415.5,148.9,417,148.9,418.9z"/>
	<path class="st5" d="M159.7,407.7c0,1.8-1.5,3.3-3.3,3.3c-1.8,0-3.3-1.5-3.3-3.3s1.5-3.3,3.3-3.3
		C158.2,404.3,159.7,405.8,159.7,407.7z"/>
	<path class="st5" d="M173.4,420.6c0,1.8-1.5,3.3-3.3,3.3c-1.8,0-3.3-1.5-3.3-3.3c0-1.8,1.5-3.3,3.3-3.3
		C171.9,417.3,173.4,418.8,173.4,420.6z"/>
	<path class="st6" d="M179.7,421.9c0,5.3-4.3,9.6-9.6,9.6c-5.3,0-9.6-4.3-9.6-9.6c0-5.3,4.3-9.6,9.6-9.6
		C175.4,412.3,179.7,416.6,179.7,421.9z"/>
	<path class="st5" d="M181.4,407.7c0,1.8-1.5,3.3-3.3,3.3c-1.8,0-3.3-1.5-3.3-3.3s1.5-3.3,3.3-3.3
		C179.9,404.3,181.4,405.8,181.4,407.7z"/>
	<path class="st2" d="M187.6,445.4c0.3,0.4,0,1-0.5,1.4l0,0c-0.6,0.4-1.2,0.3-1.5-0.1l-10.5-16.3c-0.3-0.4,0-1.1,0.5-1.4l0,0
		c0.6-0.4,1.2-0.3,1.5,0.1L187.6,445.4z"/>
	<line class="st7" x1="119" y1="418.3" x2="132.2" y2="408.7"/>
	<line class="st8" x1="136.3" y1="410.1" x2="143.1" y2="417.3"/>
	<line class="st9" x1="148.2" y1="417.5" x2="154.6" y2="410.2"/>
	<line class="st10" x1="158.2" y1="409.9" x2="167" y2="418.5"/>
	<line class="st11" x1="171.2" y1="417.8" x2="176.6" y2="410"/>
</g>
<g>
	<path class="st3" d="M167.5,210c0-2.5,1.8-4.1,4-4.1c1.3,0,2.2,0.6,2.9,1.4l-0.6,0.4c-0.5-0.7-1.4-1.2-2.3-1.2
		c-1.9,0-3.3,1.4-3.3,3.5c0,2.1,1.5,3.5,3.3,3.5c1,0,1.8-0.5,2.3-1.2l0.6,0.4c-0.7,0.9-1.7,1.4-2.9,1.4
		C169.3,214.1,167.5,212.4,167.5,210z"/>
	<path class="st3" d="M179.5,213.9v-0.7c-0.5,0.6-1.2,0.8-2,0.8c-1,0-2-0.7-2-1.9c0-1.3,1-1.9,2-1.9c0.8,0,1.5,0.3,2,0.8v-1.2
		c0-0.9-0.7-1.3-1.5-1.3c-0.7,0-1.3,0.3-1.8,0.9l-0.3-0.4c0.6-0.6,1.3-1,2.2-1c1.2,0,2.1,0.6,2.1,1.9v4.1H179.5z M179.5,212.8v-1.3
		c-0.4-0.5-1.1-0.8-1.7-0.8c-0.9,0-1.6,0.6-1.6,1.4c0,0.8,0.6,1.4,1.6,1.4C178.4,213.6,179.1,213.3,179.5,212.8z"/>
	<path class="st3" d="M188.9,213.9v-4c0-0.8-0.3-1.3-1.2-1.3c-0.6,0-1.3,0.5-1.7,1v4.4h-0.6v-4c0-0.8-0.3-1.3-1.1-1.3
		c-0.6,0-1.3,0.5-1.7,1v4.4H182v-5.8h0.6v0.9c0.2-0.4,1-1,1.9-1c0.9,0,1.4,0.5,1.5,1.1c0.3-0.5,1.1-1.1,1.9-1.1
		c1.1,0,1.6,0.6,1.6,1.8v4.2H188.9z"/>
	<path class="st3" d="M192.1,213v3.1h-0.6v-8h0.6v0.9c0.4-0.6,1.1-1.1,2-1.1c1.5,0,2.6,1.2,2.6,3c0,1.8-1,3-2.6,3
		C193.3,214.1,192.6,213.7,192.1,213z M196,211.1c0-1.4-0.7-2.5-2-2.5c-0.8,0-1.6,0.5-1.9,1v2.9c0.3,0.6,1.1,1.1,1.9,1.1
		C195.3,213.5,196,212.5,196,211.1z"/>
	<path class="st3" d="M201.9,213.9v-0.7c-0.5,0.6-1.2,0.8-2,0.8c-1,0-2-0.7-2-1.9c0-1.3,1-1.9,2-1.9c0.8,0,1.5,0.3,2,0.8v-1.2
		c0-0.9-0.7-1.3-1.5-1.3c-0.7,0-1.3,0.3-1.8,0.9l-0.3-0.4c0.6-0.6,1.3-1,2.2-1c1.2,0,2.1,0.6,2.1,1.9v4.1H201.9z M201.9,212.8v-1.3
		c-0.4-0.5-1.1-0.8-1.7-0.8c-0.9,0-1.6,0.6-1.6,1.4c0,0.8,0.6,1.4,1.6,1.4C200.9,213.6,201.5,213.3,201.9,212.8z"/>
	<path class="st3" d="M204.3,206.8c0-0.3,0.2-0.5,0.5-0.5c0.3,0,0.5,0.2,0.5,0.5c0,0.3-0.2,0.5-0.5,0.5
		C204.6,207.3,204.3,207,204.3,206.8z M204.5,213.9v-5.8h0.6v5.8H204.5z"/>
	<path class="st3" d="M207.1,215.4l0.4-0.5c0.5,0.6,1.1,0.8,1.9,0.8c1,0,2-0.5,2-1.8V213c-0.4,0.6-1.1,1.1-2,1.1
		c-1.5,0-2.6-1.2-2.6-3c0-1.8,1-3,2.6-3c0.8,0,1.5,0.4,2,1.1v-0.9h0.6v5.7c0,1.8-1.2,2.4-2.6,2.4
		C208.4,216.3,207.8,216.1,207.1,215.4z M211.3,212.5v-2.8c-0.3-0.6-1.1-1.1-1.9-1.1c-1.3,0-2,1.1-2,2.5c0,1.4,0.7,2.5,2,2.5
		C210.2,213.5,211,213,211.3,212.5z"/>
	<path class="st3" d="M217.8,213.9V210c0-1.1-0.6-1.4-1.4-1.4c-0.7,0-1.5,0.5-1.9,1v4.4h-0.6v-5.8h0.6v0.9c0.4-0.5,1.2-1,2.1-1
		c1.2,0,1.8,0.6,1.8,1.9v4H217.8z"/>
	<path class="st3" d="M229.3,213.9l-0.8-2h-4.2l-0.8,2h-0.8l3.3-8h0.8l3.3,8H229.3z M226.4,206.7l-1.9,4.7h3.8L226.4,206.7z"/>
	<path class="st3" d="M235.1,213.9V210c0-1.1-0.6-1.4-1.4-1.4c-0.7,0-1.5,0.5-1.9,1v4.4h-0.6v-5.8h0.6v0.9c0.4-0.5,1.2-1,2.1-1
		c1.2,0,1.8,0.6,1.8,1.9v4H235.1z"/>
	<path class="st3" d="M241.3,213.9v-0.7c-0.5,0.6-1.2,0.8-2,0.8c-1,0-2-0.7-2-1.9c0-1.3,1-1.9,2-1.9c0.8,0,1.5,0.3,2,0.8v-1.2
		c0-0.9-0.7-1.3-1.5-1.3c-0.7,0-1.3,0.3-1.8,0.9l-0.3-0.4c0.6-0.6,1.3-1,2.2-1c1.2,0,2.1,0.6,2.1,1.9v4.1H241.3z M241.3,212.8v-1.3
		c-0.4-0.5-1.1-0.8-1.7-0.8c-0.9,0-1.6,0.6-1.6,1.4c0,0.8,0.6,1.4,1.6,1.4C240.3,213.6,240.9,213.3,241.3,212.8z"/>
	<path class="st3" d="M243.9,213.9v-8h0.6v8H243.9z"/>
	<path class="st3" d="M246.2,215.6c0.1,0.1,0.4,0.1,0.5,0.1c0.4,0,0.6-0.2,0.9-0.7l0.5-1l-2.5-5.8h0.7l2.1,5.1l2.1-5.1h0.7l-3,7.1
		c-0.3,0.7-0.8,1.1-1.5,1.1c-0.2,0-0.5,0-0.6-0.1L246.2,215.6z"/>
	<path class="st3" d="M252.3,212.8v-4.1h-1v-0.6h1v-1.6h0.6v1.6h1.2v0.6H253v4c0,0.5,0.2,0.8,0.6,0.8c0.3,0,0.5-0.1,0.6-0.3l0.2,0.5
		c-0.2,0.2-0.5,0.4-1,0.4C252.7,214.1,252.3,213.6,252.3,212.8z"/>
	<path class="st3" d="M255.3,206.8c0-0.3,0.2-0.5,0.5-0.5c0.3,0,0.5,0.2,0.5,0.5c0,0.3-0.2,0.5-0.5,0.5
		C255.6,207.3,255.3,207,255.3,206.8z M255.5,213.9v-5.8h0.6v5.8H255.5z"/>
	<path class="st3" d="M257.7,211.1c0-1.7,1.1-3,2.8-3c1,0,1.6,0.4,2,1l-0.4,0.4c-0.4-0.6-0.9-0.8-1.6-0.8c-1.4,0-2.2,1.1-2.2,2.5
		c0,1.4,0.8,2.5,2.2,2.5c0.6,0,1.2-0.2,1.6-0.8l0.4,0.4c-0.5,0.6-1,1-2,1C258.8,214.1,257.7,212.7,257.7,211.1z"/>
	<path class="st3" d="M263.5,213.2l0.4-0.5c0.4,0.5,1.1,0.9,1.9,0.9c1,0,1.5-0.5,1.5-1.2c0-1.6-3.7-0.7-3.7-2.8
		c0-0.9,0.8-1.6,2.1-1.6c1,0,1.7,0.4,2.1,0.9l-0.3,0.4c-0.3-0.5-1-0.8-1.7-0.8c-0.9,0-1.4,0.5-1.4,1.1c0,1.4,3.6,0.6,3.6,2.8
		c0,0.9-0.7,1.7-2.2,1.7C264.8,214.1,264.1,213.8,263.5,213.2z"/>
</g>
<g>
	<path class="st2" d="M246.5,172.7l-4.3-4.3c-0.5-0.5-1.1-0.7-1.7-0.8l-1.5-1.5c2.2-3.4,1.8-8.1-1.2-11c-3.5-3.5-9.1-3.5-12.6,0
		c-3.5,3.5-3.5,9.1,0,12.6c3,3,7.6,3.4,11,1.2l1.5,1.5c0,0.6,0.3,1.2,0.8,1.7l4.3,4.3c1,1,2.7,1,3.7,0
		C247.6,175.4,247.6,173.8,246.5,172.7L246.5,172.7z M236,165.9c-2.4,2.4-6.4,2.4-8.9,0c-2.4-2.4-2.4-6.4,0-8.9
		c2.4-2.4,6.4-2.4,8.9,0C238.4,159.5,238.4,163.5,236,165.9L236,165.9z M236,165.9"/>
	<path class="st2" d="M231.7,157.7c-2.2,0-4,1.8-4,4c0,0.2,0,0.4,0,0.6l-1,0.6c0.2,0.8,0.7,1.6,1.3,2.2c0,0,0.1,0.1,0.1,0.1l0.9-0.5
		c0.7,0.6,1.6,1,2.6,1c2.2,0,4-1.8,4-4C235.6,159.5,233.9,157.7,231.7,157.7L231.7,157.7z M231.7,162.9c-0.7,0-1.3-0.6-1.3-1.3
		c0-0.7,0.6-1.3,1.3-1.3c0.7,0,1.3,0.6,1.3,1.3C233,162.4,232.4,162.9,231.7,162.9L231.7,162.9z M231.7,162.9"/>
	<path class="st2" d="M219.6,170.4c0-0.1,0-0.2,0-0.3l4-2.4c-0.6-0.7-1-1.5-1.4-2.3l-3.8,2.2c-0.7-0.8-1.7-1.2-2.9-1.2
		c-1.4,0-2.6,0.7-3.3,1.8l-9.2-3.6c0-0.1,0-0.2,0-0.4c0-2.2-1.8-4-4-4s-4,1.8-4,4c0,2.2,1.8,4,4,4c1.1,0,2.1-0.4,2.8-1.2l9.8,3.8
		c0.2,1.9,1.9,3.5,3.9,3.5C217.9,174.3,219.6,172.6,219.6,170.4L219.6,170.4z M199.2,165.6c-0.7,0-1.3-0.6-1.3-1.3
		c0-0.7,0.6-1.3,1.3-1.3s1.3,0.6,1.3,1.3C200.5,165,199.9,165.6,199.2,165.6L199.2,165.6z M215.7,171.7c-0.7,0-1.3-0.6-1.3-1.3
		s0.6-1.3,1.3-1.3c0.7,0,1.3,0.6,1.3,1.3S216.4,171.7,215.7,171.7L215.7,171.7z M215.7,171.7"/>
	<path class="st2" d="M225.2,169.3l-4.1,2.4c-0.3,2.5-2.3,4.6-4.9,4.8v12.3h18.2v-17.6c-0.9,0.3-1.8,0.4-2.8,0.4
		C229.2,171.6,227,170.8,225.2,169.3L225.2,169.3z M225.2,169.3"/>
	<path class="st2" d="M210.5,172.7l-8.2-3.2c-0.9,0.6-2,1-3.1,1c-1,0-1.9-0.3-2.7-0.7v19.1h18.2v-12.4
		C212.7,176.1,211.1,174.6,210.5,172.7L210.5,172.7z M210.5,172.7"/>
</g>
<path class="st0" d="M274.4,103.8c0,7.3-5.9,13.3-13.3,13.3H37.4c-7.3,0-13.3-5.9-13.3-13.3V18.9c0-7.3,5.9-13.3,13.3-13.3h223.8
	c7.3,0,13.3,5.9,13.3,13.3V103.8z"/>
<g>
	<path class="st2" d="M67.7,39.9c0,3-2.5,5.5-5.5,5.5c-3,0-5.5-2.5-5.5-5.5c0-3,2.5-5.5,5.5-5.5C65.2,34.4,67.7,36.9,67.7,39.9
		L67.7,39.9z M67.7,39.9"/>
	<path class="st2" d="M101.9,39.9c0,3-2.5,5.5-5.5,5.5c-3,0-5.5-2.5-5.5-5.5c0-3,2.5-5.5,5.5-5.5C99.5,34.4,101.9,36.9,101.9,39.9
		L101.9,39.9z M101.9,39.9"/>
	<path class="st2" d="M101.9,69.1c0,3-2.5,5.5-5.5,5.5c-3,0-5.5-2.5-5.5-5.5c0-3,2.5-5.5,5.5-5.5C99.5,63.7,101.9,66.1,101.9,69.1
		L101.9,69.1z M101.9,69.1"/>
	<path class="st2" d="M67.7,69.1c0,3-2.5,5.5-5.5,5.5c-3,0-5.5-2.5-5.5-5.5c0-3,2.5-5.5,5.5-5.5C65.2,63.7,67.7,66.1,67.7,69.1
		L67.7,69.1z M67.7,69.1"/>
	<path class="st2" d="M103.8,53.1c0-3.9-3.3-7.1-7.4-7.1c-4.1,0-7.4,3.2-7.4,7.1v2.6l-4.3,4.6H74l-4.4-4.7v-2.5
		c0-3.9-3.3-7.1-7.4-7.1c-4.1,0-7.4,3.2-7.4,7.1v4h13.3l3.7,3.9v8.6l-4.3,7.7c-1.3-1.3-3.2-2.1-5.2-2.1c-4.1,0-7.4,3.2-7.4,7.1v4
		h14.8v-4c0-1.1-0.3-2.2-0.8-3.2l5.1-9.2h10.9l5.1,9.1c-0.5,1-0.9,2.1-0.9,3.3v4h14.8v-4c0-3.9-3.3-7.1-7.4-7.1c-2,0-3.8,0.8-5.1,2
		l-4.7-8.5v-7.3l4.1-4.4h13.2V53.1z M103.8,53.1"/>
</g>
<g>
	<path class="st3" d="M136.5,61v-4.9h0.7V61c0,1.6,0.9,2.6,2.4,2.6s2.4-1,2.4-2.6v-4.9h0.7V61c0,2-1.1,3.2-3.1,3.2
		C137.6,64.2,136.5,63,136.5,61z"/>
	<path class="st3" d="M148.6,64.1v-3.9c0-1.1-0.6-1.4-1.4-1.4c-0.7,0-1.5,0.5-1.9,1v4.4h-0.6v-5.8h0.6v0.9c0.4-0.5,1.2-1,2.1-1
		c1.2,0,1.8,0.6,1.8,1.9v4H148.6z"/>
	<path class="st3" d="M151,56.9c0-0.3,0.2-0.5,0.5-0.5c0.3,0,0.5,0.2,0.5,0.5c0,0.3-0.2,0.5-0.5,0.5C151.3,57.4,151,57.1,151,56.9z
		 M151.2,64.1v-5.8h0.6v5.8H151.2z"/>
	<path class="st3" d="M154,64.1v-5.2h-1v-0.6h1v-0.5c0-1.1,0.6-1.8,1.6-1.8c0.3,0,0.6,0,0.8,0.2l-0.2,0.5c-0.1-0.1-0.3-0.1-0.5-0.1
		c-0.7,0-1,0.5-1,1.2v0.5h1.2v0.6h-1.2v5.2H154z M156.8,56.9c0-0.3,0.2-0.5,0.5-0.5c0.3,0,0.5,0.2,0.5,0.5c0,0.3-0.2,0.5-0.5,0.5
		C157,57.4,156.8,57.1,156.8,56.9z M156.9,64.1v-5.8h0.6v5.8H156.9z"/>
	<path class="st3" d="M159.2,61.2c0-1.7,1.2-3,2.8-3c1.8,0,2.7,1.4,2.7,3.1v0.2h-4.8c0.1,1.3,0.9,2.3,2.3,2.3c0.7,0,1.4-0.3,1.9-0.8
		l0.3,0.4c-0.6,0.6-1.3,0.9-2.3,0.9C160.4,64.2,159.2,62.9,159.2,61.2z M161.9,58.7c-1.4,0-2,1.2-2.1,2.2h4.2
		C164,59.9,163.4,58.7,161.9,58.7z"/>
	<path class="st3" d="M170.5,64.1v-0.9c-0.4,0.6-1.1,1.1-2,1.1c-1.5,0-2.6-1.2-2.6-3c0-1.8,1-3,2.6-3c0.8,0,1.6,0.4,2,1.1v-3.1h0.6
		v8H170.5z M170.5,62.6v-2.9c-0.3-0.6-1.1-1.1-1.9-1.1c-1.3,0-2,1.1-2,2.5c0,1.4,0.7,2.5,2,2.5C169.4,63.6,170.2,63.2,170.5,62.6z"
		/>
	<path class="st3" d="M176.2,61v-4.9h0.7V61c0,1.6,0.9,2.6,2.4,2.6s2.4-1,2.4-2.6v-4.9h0.7V61c0,2-1.1,3.2-3.1,3.2
		C177.3,64.2,176.2,63,176.2,61z"/>
	<path class="st3" d="M183.9,63.3l0.4-0.5c0.4,0.5,1.1,0.9,1.9,0.9c1,0,1.5-0.5,1.5-1.2c0-1.6-3.7-0.7-3.7-2.8
		c0-0.9,0.8-1.6,2.1-1.6c1,0,1.7,0.4,2.1,0.9l-0.3,0.4c-0.3-0.5-1-0.8-1.7-0.8c-0.9,0-1.4,0.5-1.4,1.1c0,1.4,3.6,0.6,3.6,2.8
		c0,0.9-0.7,1.7-2.2,1.7C185.2,64.2,184.5,63.9,183.9,63.3z"/>
	<path class="st3" d="M189.6,61.2c0-1.7,1.2-3,2.8-3c1.8,0,2.7,1.4,2.7,3.1v0.2h-4.8c0.1,1.3,0.9,2.3,2.3,2.3c0.7,0,1.4-0.3,1.9-0.8
		l0.3,0.4c-0.6,0.6-1.3,0.9-2.3,0.9C190.8,64.2,189.6,62.9,189.6,61.2z M192.3,58.7c-1.4,0-2,1.2-2.1,2.2h4.2
		C194.4,59.9,193.8,58.7,192.3,58.7z"/>
	<path class="st3" d="M196.7,64.1v-5.8h0.6v1c0.5-0.6,1.1-1.1,2-1.1v0.7c-0.1,0-0.2,0-0.3,0c-0.6,0-1.4,0.5-1.6,1v4.2H196.7z"/>
	<path class="st3" d="M206.1,64.1l-3.3-8h0.8l2.9,7.2l2.9-7.2h0.8l-3.3,8H206.1z"/>
	<path class="st3" d="M211.2,56.9c0-0.3,0.2-0.5,0.5-0.5c0.3,0,0.5,0.2,0.5,0.5c0,0.3-0.2,0.5-0.5,0.5
		C211.4,57.4,211.2,57.1,211.2,56.9z M211.3,64.1v-5.8h0.6v5.8H211.3z"/>
	<path class="st3" d="M213.6,61.2c0-1.7,1.2-3,2.8-3c1.8,0,2.7,1.4,2.7,3.1v0.2h-4.8c0.1,1.3,0.9,2.3,2.3,2.3c0.7,0,1.4-0.3,1.9-0.8
		l0.3,0.4c-0.6,0.6-1.3,0.9-2.3,0.9C214.8,64.2,213.6,62.9,213.6,61.2z M216.3,58.7c-1.4,0-2,1.2-2.1,2.2h4.2
		C218.4,59.9,217.8,58.7,216.3,58.7z"/>
	<path class="st3" d="M225.6,64.1l-1.6-4.9l-1.6,4.9h-0.6l-1.9-5.8h0.7l1.5,4.9l1.6-4.9h0.5l1.6,4.9l1.5-4.9h0.7l-1.9,5.8H225.6z"/>
</g>
</svg>
