<?xml version="1.0" encoding="utf-8"?>
<!-- Generator: Adobe Illustrator 19.1.0, SVG Export Plug-In . SVG Version: 6.00 Build 0)  -->
<svg version="1.1" id="Layer_1" xmlns="http://www.w3.org/2000/svg" xmlns:xlink="http://www.w3.org/1999/xlink" x="0px" y="0px"
	 viewBox="-417 218 125 125" style="enable-background:new -417 218 125 125;" xml:space="preserve">
<style type="text/css">
	.st0{fill:#7B7B7B;}
</style>
<g id="XMLID_16025_">
	<g id="XMLID_16037_">
		<path id="XMLID_16043_" class="st0" d="M-319.5,260.4c0-1.8,0-3.6,0-5.4c-0.7,0-1.4,0-2.2,0c0-3.5,0-7,0-10.5c2.5,0,5,0,7.6,0
			c0,0.2,0,0.4,0,0.6c0,6.3,0,12.7,0,19c0,1.8-0.7,2.9-2.2,3.2c-0.6,0.1-1.2,0-1.8-0.2c-4.1-1.6-8.2-3.3-12.3-5
			c-0.2-0.1-0.3-0.2-0.4-0.2c-0.2,0.1-0.6,0.1-0.6,0.2c-0.2,0.2,0,0.6,0.3,0.6c0.6,0.2,1.3,0.6,1.9,0.8c0.9,0.4,1.8,0.7,2.8,1.1
			c0.2,0.1,0.4,0.2,0.5,0.4c1,3.6,1.9,7.2,2.9,10.9c-0.2,0-0.4,0-0.6,0c-5.2,0-10.4,0-15.7,0c-0.4,0-0.6-0.1-0.6-0.5
			c-0.9-4.4-1-8.8,0.2-13.1c0.6-2,1.4-3.8,2.8-5.3c1.8-1.8,3.8-2.2,6-1.4c3.3,1.3,6.6,2.6,9.9,4C-320.5,260-320,260.2-319.5,260.4z"
			/>
		<path id="XMLID_16042_" class="st0" d="M-323.4,248.7c0,3.4-2.6,5.9-5.8,5.9c-3.1,0-5.7-2.6-5.7-5.9s2.6-6,5.7-6
			C-325.9,242.7-323.4,245.4-323.4,248.7z"/>
		<path id="XMLID_16040_" class="st0" d="M-302,253.9c-2-0.6-3.9-1.1-5.9-1.7c0-1,0-2.1,0-3.1c0-0.9,0-1.7,0-2.6
			c0-0.2,0.2-0.4,0.2-0.5c1.8-0.6,3.8-1.1,5.7-1.6C-302,247.5-302,250.7-302,253.9z"/>
		<path id="XMLID_16039_" class="st0" d="M-309.2,252.1c-1.2,0-2.4,0-3.6,0c0-2,0-4,0-6c1.2,0,2.4,0,3.6,0
			C-309.2,248.1-309.2,250.1-309.2,252.1z"/>
	</g>
	<g id="XMLID_16027_">
		<path id="XMLID_16033_" class="st0" d="M-375.3,318.3c2.9-4,5.6-7.9,8.5-11.9c-2.8-0.6-5.5-1.2-8.1-1.8c-0.3-6-0.6-12-0.9-18.1
			c2.5-0.8,5-1.7,7.9-2.6c-3.3-3.7-6.4-7.3-9.8-11c0.6-0.1,1-0.2,1.4-0.2c4.8-0.2,9.7-0.5,14.5-0.8c1.1-0.1,1.8,0.3,2.4,1.1
			c1.7,1.9,3.4,3.8,4.9,5.5c4.4-1,8.7-2.2,12.9-2.8c13.5-1.9,26.4,0.2,38.5,7c2.2,1.3,4.3,3.1,6.1,5.1c2.2,2.5,1.9,4.6-0.5,7.5
			c-2.8,3.4-6.3,6-10.1,8.2c-13.9,7.8-28.6,9.9-44,6.4c-0.9-0.2-1.3,0.1-1.8,0.7c-1.4,2-2.7,3.9-4.2,5.8c-0.3,0.4-0.9,0.8-1.4,0.9
			c-5.2,0.3-10.5,0.6-15.7,0.9C-374.6,318.4-374.9,318.3-375.3,318.3z M-327.6,297.9c2.9,2.7,7.3,2.6,9.9-0.5
			c2.6-3,2.3-7.5-0.5-10.2s-7.3-2.5-9.9,0.5C-330.6,290.8-330.5,295.3-327.6,297.9z"/>
		<path id="XMLID_16031_" class="st0" d="M-382,295.1c-0.6,0.3-1.3,0.8-1.9,0.9c-3.2,0.6-6.4,1.3-9.7,1.4
			c-5.5,0.2-11.1,0.2-16.7,0.2c-1,0-1.9-0.4-3-0.6c0-0.2-0.1-0.4-0.1-0.6c0.8-0.3,1.5-0.9,2.3-1c3.6-0.6,7.3-1.3,10.9-1.5
			c5-0.2,9.9-0.1,14.9-0.1c1,0,2.1,0.4,3.1,0.6C-382.1,294.8-382.1,295-382,295.1z"/>
		<path id="XMLID_16030_" class="st0" d="M-382.2,301.8c-0.3,0.2-0.8,0.4-1.2,0.6c-4.6,1.4-9.3,1.7-14.1,0.9
			c-0.3-0.1-0.6-0.2-0.9-0.3c-0.4-0.2-0.7-0.6-1-1c0.3-0.3,0.6-0.8,1-1c3.1-1.4,6.5-1.7,9.9-1.6c2,0.1,4,0.5,5.9,0.9
			C-381.8,300.4-381.5,300.9-382.2,301.8z"/>
		<path id="XMLID_16028_" class="st0" d="M-382.5,289.5c-0.9,0.4-1.3,0.6-1.8,0.8c-4.5,1.4-9,1.6-13.5,0.8c-0.8-0.2-1.4-0.8-2.2-1.3
			c0.6-0.5,1.3-1.2,2-1.4c4.5-1.4,9.1-1.6,13.7-0.7c0.5,0.1,1,0.2,1.4,0.6C-382.7,288.5-382.6,289-382.5,289.5z"/>
	</g>
</g>
</svg>
