<?xml version="1.0" encoding="utf-8"?>
<!-- Generator: Adobe Illustrator 19.1.0, SVG Export Plug-In . SVG Version: 6.00 Build 0)  -->
<svg version="1.1" id="Layer_1" xmlns="http://www.w3.org/2000/svg" xmlns:xlink="http://www.w3.org/1999/xlink" x="0px" y="0px"
	 viewBox="-417 218 125 125" style="enable-background:new -417 218 125 125;" xml:space="preserve">
<style type="text/css">
	.st0{fill:none;stroke:#7B7B7B;stroke-miterlimit:10;}
</style>
<g id="XMLID_9069_">
	<path id="XMLID_9076_" class="st0" d="M-326.6,266.6c0.7-2.3,1.4-4.5,2-6.7c0.5-1.6,1.1-3.2,1.7-4.8c0.2-0.5,0.3-1,0.8-1.4
		c0.4-0.4,1.1-0.9,1.6-0.9c0.9,0,1.1,0.8,1.3,1.5c0.1,0.5,0.1,1.1,0.1,1.6c-0.4,3.8-0.9,7.6-1.3,11.4c-0.1,0.7-0.2,1.4-0.3,2
		c-0.2,0.7,0.2,1,0.7,1.4s0.9,0.1,1.2-0.2c3.2-2,6.6-3.8,10.3-4.4c6.9-1.2,11.4,2,12.5,9c0.8,4.8,0.2,9.6-0.7,14.3
		c-0.5,2.6-1.2,5-1.7,7.5c-0.2,0.7-0.2,1.4,0.1,2c2.4,6.5,3.6,13.1,3.7,20c0,1.8-0.3,2.1-2,2.1c-21.5,0-43,0-64.4,0
		c-0.7,0-1.2,0.1-1.5,0.9c-1.6,2.7-5.5,2.7-7.1-0.1c-0.3-0.6-0.8-0.8-1.4-0.8c-13.7,0-27.4,0-41.1,0c-2.1,0-2.3-0.3-2.3-2.3
		c0.3-13.1,4.4-24.9,12.3-35.4c0.3-0.4,0.4-0.8,0.3-1.4c-0.9-2.6,0.8-5.1,3.4-5.5c0.8-0.1,1.1-0.4,1.5-1.1c2.9-5.9,6.3-11.4,11.1-16
		c3.2-3.2,6.9-5.6,11.3-7.1c0.4-0.1,0.8-0.5,1-0.9c2.3-3.8,4.9-7.4,8.4-10.3c3.2-2.6,6.7-4.3,11-3.9c3.8,0.3,7,2.2,9.7,4.7
		c3.8,3.4,6.7,7.5,9,12.1c1.5,3.2,2.8,6.5,4.3,9.7c0.2,0.4,0.6,0.9,1,1.2C-329.2,265.5-327.9,266-326.6,266.6z M-370.8,251.3
		c2.6,0,4.9-0.2,7.2,0c5.5,0.6,10.6,2.8,15.2,5.8c1.9,1.2,3.5,2.8,5.5,3.8c2,0.9,4.3,1.2,6.4,1.8c0.6,0.2,1.2,0.3,1.9,0.6
		c0-0.3,0-0.3-0.1-0.4c-2-5.4-4.6-10.4-8.2-14.9c-2.1-2.7-4.5-5.1-7.6-6.7c-3.5-1.8-7-1.9-10.5,0
		C-365.1,243.3-368,247.1-370.8,251.3z M-317.4,272.7c7.3,5.9,12.8,12.9,17,21.1c0.6-2.3,1.1-4.5,1.5-6.8c0.6-3.9,1-7.9,0.3-11.8
		c-0.9-5.4-4.3-7.6-9.6-6.5C-311.5,269.5-314.4,270.9-317.4,272.7z M-377.3,263.7c0.1,0.1,0.2,0.2,0.3,0.3c9-3.6,18.4-4.9,28.2-4.3
		c-2.5-1.5-4.9-2.8-7.4-3.9c-4.9-2.1-10.2-2.9-15.5-1.7c-0.3,0.1-0.8,0.3-0.9,0.5C-374.3,257.7-375.7,260.8-377.3,263.7z
		 M-376.3,255.6c-8.2,3.9-13.1,10.7-17.3,18.4c0.3-0.2,0.5-0.3,0.6-0.3c3.7-3.1,7.7-5.6,11.9-7.8c0.3-0.2,0.5-0.4,0.7-0.7
		C-379.1,262-377.8,258.9-376.3,255.6z M-309.7,301.5c0.6,2.5,1.3,4.8,1.8,7.2c3.2,0,6.2,0,9.6,0c-0.7-2.3-1.3-4.5-1.9-6.7
		c-0.1-0.2-0.4-0.3-0.7-0.3C-303.8,301.5-306.7,301.5-309.7,301.5z M-402.9,318.4c0.3-2.4,0.6-4.7,0.9-7.2c-3,0-6.1,0-9,0
		c-0.2,0-0.5,0.2-0.5,0.3c-0.3,2.2-0.4,4.4-0.7,6.8C-409,318.4-406,318.4-402.9,318.4z M-401.4,308.6c0.3-0.9,0.4-1.9,0.7-2.8
		c0.4-1.4,0.9-2.7-0.5-3.8c-0.3-0.2-0.5-0.5-0.9-0.5c-2.1,0-4.3,0-6.4,0c-0.3,0-0.7,0.2-0.7,0.3c-0.7,2.2-1.3,4.4-2,6.8
		C-407.7,308.6-404.7,308.6-401.4,308.6z M-307.3,311.3c0.3,2.1,0.6,4.2,0.8,6.2c0.1,0.8,0.3,0.9,1,0.9c2.4,0,4.8,0,7.3,0
		c0.3,0,0.6,0,1-0.1c-0.2-2.4-0.4-4.7-0.6-7.1C-301.1,311.3-304.1,311.3-307.3,311.3z M-353.4,318.4c3.1,0,6.1,0,9.1,0
		c0-2.4,0-4.7,0-7.1c-3.1,0-6.1,0-9.1,0C-353.4,313.7-353.4,316-353.4,318.4z M-390.4,311.3c-3,0-6,0-9,0c-0.3,2.4-0.7,4.7-1,7.1
		c3.2,0,6.1,0,9.2,0C-390.9,316-390.7,313.7-390.4,311.3z M-353.4,308.6c3.1,0,6.1,0,9,0c0-2.4,0-4.8,0-7.1c-3.1,0-6,0-9,0
		C-353.4,303.9-353.4,306.2-353.4,308.6z M-301.1,298.9c-1.2-2.4-2.3-4.6-3.4-6.8c-0.1-0.2-0.3-0.3-0.5-0.3c-2.6,0-5.4,0-8.1,0
		c0.9,2.4,1.7,4.6,2.5,6.8c0.1,0.2,0.3,0.3,0.5,0.3C-307.2,298.9-304.3,298.9-301.1,298.9z M-379,311.3c-2.8,0-5.5,0-8.3,0
		c-0.2,0-0.5,0.3-0.5,0.4c-0.3,2.2-0.5,4.4-0.8,6.7c3,0,5.8,0,8.7,0c0.2,0,0.5-0.4,0.5-0.7C-379.2,315.6-379.1,313.5-379,311.3z
		 M-341.6,311.3c0,2.5,0,4.8,0,7.1c3,0,6,0,9.1,0c-0.2-2.4-0.3-4.8-0.4-7.1C-335.9,311.3-338.7,311.3-341.6,311.3z M-344.5,298.8
		c-0.2-2.5-0.3-4.8-0.4-7.1c-2.9,0-5.6,0-8.4,0c0,2.4,0,4.7,0,7.1C-350.4,298.8-347.6,298.8-344.5,298.8z M-309.9,311.3
		c-1.5,0-2.9,0-4.3,0c-1.2,0-2.1,0.2-3.1,1.3c-1.1,1.3-1.4,2.3-1.1,3.8c0.1,0.4,0.1,0.9,0.1,1.3c0,0.7,0.3,0.9,0.9,0.9
		c2.6,0,5,0,7.6,0c0.3,0,0.4-0.1,0.8-0.1C-309.2,316-309.6,313.7-309.9,311.3z M-387.4,308.6c3,0,5.8,0,8.7,0
		c0.3-2.4,0.6-4.7,0.9-7.1c-2.7,0-5.4,0-8.1,0C-386.4,303.9-386.9,306.2-387.4,308.6z M-396.1,291.6c-2.8,0-5.5,0-8.2,0
		c-0.3,0-0.5,0.2-0.6,0.3c-1.1,2.2-2.2,4.4-3.4,6.8c2.3,0,4.4,0,6.4,0c0.3,0,0.5-0.3,0.7-0.5c0.7-1.2,1.6-1.9,2.9-2.2
		c0.3-0.1,0.6-0.3,0.7-0.4C-397.1,294.4-396.6,293.1-396.1,291.6z M-376.4,311.3c-0.2,2.4-0.3,4.7-0.4,7.2c2.1,0,4.2,0,6.1,0
		c0.2,0,0.4-0.3,0.6-0.5c0.6-0.6,1.3-1.3,1.9-1.9c0.2-0.2,0.5-0.4,0.5-0.6c0-1.4,0-2.7,0-4.1C-370.6,311.3-373.4,311.3-376.4,311.3z
		 M-320.8,318.4c-0.1-1.3-0.2-2.5-0.3-3.7c-0.1-0.3-0.3-0.7-0.7-0.9c-0.6-0.5-1.5-0.9-1.9-1.5c-0.5-0.9-1.1-1.1-2-1
		c-0.7,0.1-1.4,0-2.1,0c-0.9,0-1.6,0-2.5,0c0.2,2.5,0.3,4.8,0.4,7.1C-326.8,318.4-323.8,318.4-320.8,318.4z M-334,301.5
		c-2.6,0-5.2,0-7.6,0c0,2.4,0,4.8,0,7.1c2.9,0,5.6,0,8.4,0C-333.5,306.2-333.7,303.9-334,301.5z M-375.2,301.5
		c-0.3,2.4-0.6,4.7-0.9,7.1c2.9,0,5.6,0,8.5,0c0-2.4,0-4.8,0-7.1C-370.1,301.5-372.6,301.5-375.2,301.5z M-356.1,318.4
		c0-2.5,0-4.8,0-7.2c-2.2,0-4.4,0-6.5,0c-1.7,0-1.5-0.3-1.8,1.5c-0.1,0.7-0.2,1.3-0.3,2c-0.2,0.8-0.1,1.4,0.8,1.8
		c0.5,0.3,0.9,1,1.3,1.5c0.2,0.2,0.4,0.5,0.6,0.5C-360,318.4-358.1,318.4-356.1,318.4z M-331.4,301.5c0.3,2.5,0.6,4.8,0.9,7.2
		c2,0,3.9,0.3,5.7-0.1c0.9-0.3,2.1-1.6,2.3-2.6c0.2-1.4-0.5-2.9-0.8-4.4C-326.1,301.5-328.6,301.5-331.4,301.5z M-356.1,281.9
		c-2.4,0-4.8,0-7.2,0c-0.3,2.4-0.6,4.7-0.9,7.1c2.8,0,5.4,0,8,0C-356.1,286.6-356.1,284.3-356.1,281.9z M-388.6,301.5
		c-1.6,0-3.2,0-4.6,0c-0.2,0-0.4,0.3-0.5,0.4c-0.8,1.4-1.8,2.1-3.4,2.4c-0.2,0-0.5,0.2-0.6,0.3c-0.3,1.3-0.7,2.6-1,3.9
		c3,0,5.9,0,8.8,0C-389.5,306.2-389,303.9-388.6,301.5z M-385.4,298.8c2.6,0,5.3,0,7.9,0c0.4-2.4,0.9-4.8,1.3-7.2
		c-2.4,0-4.7,0-7.1,0C-384,294-384.6,296.4-385.4,298.8z M-333.1,291.6c0.3,1.9,0.7,3.7,0.9,5.5c0.3,1.7,0.3,1.7,2,1.7
		c2,0,4,0,6.1,0c-0.8-2.5-1.5-4.9-2-7.2C-328.4,291.6-330.7,291.6-333.1,291.6z M-318.1,281.8c1.2,2.4,2.4,4.5,3.5,6.7
		c0.1,0.3,0.4,0.4,0.7,0.5c2.6,0,5,0,7.6,0c0-0.2,0-0.3,0-0.3c-1.6-2.2-3.2-4.4-4.9-6.6c-0.2-0.2-0.4-0.3-0.7-0.3
		C-313.9,281.8-316,281.8-318.1,281.8z M-366.9,291.7c-2.2,0-4.4,0-6.6,0c-0.4,2.4-0.9,4.7-1.3,7.1c2.6,0,5,0,7.5,0
		C-367.2,296.4-367,294.1-366.9,291.7z M-342.4,291.7c0.2,2.5,0.3,4.8,0.4,7.1c2.5,0,4.9,0,7.5,0c-0.4-2.5-0.9-4.8-1.4-7.1
		C-338,291.7-340.1,291.7-342.4,291.7z M-356.1,308.6c0-2.4,0-4.8,0-7.2c-1.5,0-2.8,0-4.3,0c-0.2,0-0.5,0.2-0.6,0.3
		c-0.9,2.2-1.8,4.4-2.6,6.7C-361,308.6-358.5,308.6-356.1,308.6z M-391.2,281.8c-0.9,0-1.6-0.1-2.4,0c-0.3,0-0.8,0.3-0.9,0.5
		c-1.1,1.9-2.7,2.6-4.9,2.1c-0.3-0.1-0.7,0-0.8,0.1c-1,1.4-2,2.7-3.2,4.4c2.8,0,5.5,0,8,0c0.2,0,0.4-0.2,0.5-0.3
		C-393.6,286.4-392.4,284.2-391.2,281.8z M-382.4,289c2.4,0,4.6,0,6.8,0c0.6-2.4,1.3-4.7,1.9-7.2c-1.1,0-2.2-0.3-3.2,0.1
		c-1.2,0.4-2.6,1-3.3,2C-381.2,285.3-381.6,287.2-382.4,289z M-388,298.9c0.7-2.5,1.4-4.8,2-7.2c-1.4,0-2.6,0-3.8,0
		c-0.3,0-0.6,0.2-0.8,0.4c-1.2,1.5-2.5,3.1-3.6,4.6c-0.4,0.6,0.4,2.1,1.1,2.1C-391.4,298.9-389.7,298.9-388,298.9z M-373,289
		c2.2,0,4.3,0,6.2,0c0.3-2.4,0.5-4.7,0.9-7.2c-1.6,0-3.1,0-4.5,0c-0.3,0-0.7,0.3-0.8,0.6C-371.7,284.6-372.3,286.8-373,289z
		 M-316.6,298.8c-0.1-2.4-0.6-4.6-1.5-6.7c-0.1-0.2-0.3-0.4-0.5-0.4c-1.5,0-3.1,0-4.6,0c0.7,2.5,1.4,4.8,2,7.2
		C-319.7,298.8-318.2,298.8-316.6,298.8z M-333.6,289c2.2,0,4.4,0,6.7,0c-0.5-1.4-1-2.6-1.6-3.9c-0.1-0.2-0.4-0.3-0.7-0.3
		c-1.5-0.2-2.6-0.9-3.4-2c-0.1-0.2-0.4-0.4-0.7-0.4c-0.7,0.1-1.4,0.3-2,0.4C-334.8,284.8-334.2,287-333.6,289z M-357.5,291.7
		c-2.2,0-4.5,0-6.9,0c-0.2,2.4-0.3,4.7-0.4,7.2c0.7,0,1.3,0,1.9,0c0.3,0,0.6-0.2,0.8-0.3C-360.5,296.3-359,294-357.5,291.7z
		 M-383.7,272c-1.2,0.1-2.5-0.3-3.2,0.3c-2.6,1.8-4.9,3.8-7.3,5.9c-0.2,0.1-0.2,0.5-0.2,0.7c0.1,0.2,0.3,0.4,0.6,0.4
		c0.7,0.1,1.5-0.1,2.1,0c1.7,0.3,2.7-0.3,3.7-1.8C-386.8,275.6-385.3,274-383.7,272z M-386.2,278.9c0.1,0.1,0.2,0.3,0.2,0.3
		c1.5,0,2.8,0,4.3,0c0.6,0,0.9-0.2,1.1-0.7c0.8-1.5,1.6-2.8,2.5-4.3c0.4-0.7,0.9-1.5,1.5-2.3c-0.9,0-1.6,0-2.3,0
		c-0.4,0-1,0.1-1.3,0.3C-382.2,274.6-384.2,276.8-386.2,278.9z M-346.1,281.9c-2.4,0-4.8,0-7.3,0c0,2,0,4.1,0,6.2
		c0.3-0.3,0.6-0.4,0.9-0.6c1.8-1.1,3.6-2.3,5.4-3.4C-345.8,283.4-345.8,283.5-346.1,281.9z M-337.9,283.2c-1.7,0.6-3.2,1.1-4.8,1.7
		c-0.2,0.1-0.3,0.4-0.3,0.6c0.1,1.2,0.3,2.3,0.3,3.5c2.1,0,4.1,0,6.2,0C-336.9,287.1-337.3,285.2-337.9,283.2z M-346.5,279.3
		c-0.3-1.5-0.5-2.7-0.9-4.1c-2,0-4.1,0-6.1,0c0,1.5,0,2.7,0,4.1C-351.1,279.3-348.8,279.3-346.5,279.3z M-314.1,301.5
		c-0.3,2.2-1,4.4-2.3,6.3c-0.3,0.4-0.1,0.9,0.4,0.9c1.8,0,3.6,0,5.5,0c-0.5-2-1-3.9-1.5-5.8C-312.4,301.4-312.4,301.4-314.1,301.5z
		 M-369.9,272.1c-0.9,0-1.5,0.1-2,0c-0.9-0.1-1.5,0.3-2,1c-0.7,1-1.4,2-2,3c-0.6,0.9-1.2,2-2,3.2c2.1-0.9,4-1.8,5.9-2.6
		c0.2-0.1,0.3-0.3,0.4-0.4C-371.1,274.9-370.6,273.6-369.9,272.1z M-362.7,279.2c2.3,0,4.5,0,6.7,0c0-1.3,0-2.6,0-3.9
		c-2,0.3-3.8,0.7-5.7,1c-0.3,0-0.5,0.3-0.6,0.6C-362.5,277.6-362.7,278.3-362.7,279.2z M-382.7,281.8c-1.6,0-3.2,0-4.9,0
		c-0.2,0-0.5,0.2-0.6,0.3c-1.3,2.2-2.6,4.4-4,6.8c0.3,0,0.6,0.1,0.6,0.1C-388.6,286.7-385.7,284.3-382.7,281.8z M-314.3,279.3
		c0-0.1,0.1-0.2,0.1-0.3c-1.7-1.5-3.4-3-5.2-4.4c-0.2-0.1-0.5-0.1-0.7,0c-0.8,0.5-1.5,1-2.1,1.6c0.7,0.9,1.3,1.9,2,2.6
		c0.2,0.2,0.4,0.4,0.6,0.4C-317.9,279.3-316.1,279.3-314.3,279.3z M-325.5,282.9c-0.8,0.8-0.8,0.8-0.4,1.5c0.5,1.3,1,2.6,1.5,3.9
		c0.1,0.3,0.3,0.7,0.6,0.7c1.4,0.1,2.7,0,4.3,0C-321.2,286.4-323,284.4-325.5,282.9z M-353.4,269.5c1.5,0,2.9,0,4.4,0
		c-1-2.6-2-4.9-4.4-6.7C-353.4,265.2-353.4,267.3-353.4,269.5z M-360.3,269.5c1.5,0,2.8,0,4.3,0c0-2.1,0-4.3,0-6.6
		C-358.3,264.7-359.3,267-360.3,269.5z M-339.2,279.3c-0.3-0.9-0.5-1.5-0.8-2.1c-0.1-0.3-0.3-0.7-0.5-0.8c-1.3-0.3-2.6-0.6-4-0.9
		c0.3,1.2,0.3,2.3,0.6,3.3c0,0.2,0.4,0.4,0.6,0.4C-342,279.3-340.7,279.3-339.2,279.3z M-318.2,306.1c0.5-1.5,1-3,1.6-4.6
		c-1.5,0-2.8,0-4.1,0c0.3,1.1,0.5,2,0.6,3.1C-320,305.6-319.5,306.1-318.2,306.1z M-339.5,272.1c0.5,0.9,0.8,1.9,1.4,2.2
		c1.6,0.9,3.3,1.4,5.3,2.1c-1.1-1.5-2-2.7-2.9-4c-0.1-0.2-0.3-0.3-0.6-0.3C-337.3,272.1-338.3,272.1-339.5,272.1z M-368.5,275.2
		c0.1,0.1,0.2,0.1,0.2,0.1c0.8-0.3,1.6-0.5,2.4-0.7c1.7-0.5,1.8-0.6,1.9-2.6c-0.9,0-1.6,0-2.5,0c-0.3,0-0.5,0.2-0.6,0.3
		C-367.6,273.4-368,274.3-368.5,275.2z M-356,294.6c-0.1,0-0.2-0.1-0.3-0.1c-1,1.4-2,2.8-3.1,4.3c1.3,0,2.3,0,3.3,0
		C-356,297.4-356,296-356,294.6z M-345.5,286.2c-1.6,0.9-3,1.8-4.4,2.6c0,0.1,0.1,0.1,0.1,0.2c1.5,0,3,0,4.6,0
		C-345.3,288.2-345.3,287.3-345.5,286.2z M-365.4,269.2c0.1,0.1,0.2,0.2,0.3,0.3c0.4,0,0.9,0,1.3,0c0.3,0,0.8-0.1,0.9-0.3
		c0.7-1.5,1.3-3,2-4.5c-0.1-0.1-0.2-0.1-0.2-0.2C-362.7,266.1-364,267.7-365.4,269.2z M-343.7,269.4c-1.5-1.7-2.8-3.2-4.2-4.7
		c-0.1,0.1-0.2,0.2-0.3,0.3c0.3,0.5,0.5,0.9,0.8,1.5s0.5,1.1,0.7,1.6c0.7,1.6,0.7,1.6,2.4,1.5C-344.2,269.5-344.1,269.5-343.7,269.4
		z M-370,279.3c1.5,0,2.7,0,4.1,0c0.2,0,0.5-0.3,0.6-0.5c0.2-0.5,0.2-1.1,0.3-1.6C-367.4,277.6-369.7,278.4-370,279.3z
		 M-338.3,269.4c-1.8-1.4-3.3-2.6-4.9-3.9c-0.1,0.1-0.1,0.2-0.2,0.2c0.6,0.8,1.3,1.5,1.7,2.4C-341.1,269.5-340,269.8-338.3,269.4z
		 M-365.9,265.7c-0.1-0.1-0.1-0.2-0.2-0.2c-1.5,1.3-3.2,2.5-4.7,3.8c0.1,0.1,0.1,0.2,0.2,0.3c0.4,0,0.8,0.1,1.2,0
		c0.4-0.1,1-0.2,1.3-0.5C-367.4,268-366.7,266.8-365.9,265.7z M-361.5,273.5c1.7-0.3,3.3-0.4,4.9-0.7c0.2,0,0.3-0.3,0.5-0.4
		c-0.2-0.1-0.3-0.3-0.5-0.3c-1.2,0-2.3,0.1-3.5,0C-361.1,272-361.6,272.4-361.5,273.5z M-323.2,268.5c0.3-2.2,0.6-4.4,0.9-6.5
		c-0.8,1.7-1.2,3.4-1.8,5.1C-324.3,267.9-324.1,268.3-323.2,268.5z M-323.8,274.2c0.7-0.5,1.3-0.9,1.9-1.5c-1.1-1-2.3-0.4-3.6-0.3
		C-324.9,272.9-324.4,273.5-323.8,274.2z M-376.4,269.3c0.1,0.1,0.1,0.3,0.2,0.3c0.6-0.1,1.5,0,1.9-0.3c0.9-0.8,1.7-1.7,2.5-2.6
		c-0.1-0.1-0.1-0.2-0.2-0.2C-373.5,267.4-375,268.4-376.4,269.3z M-384.3,286.4c-1,0.9-2,1.7-3.2,2.6
		C-385,289.3-385,289.3-384.3,286.4z M-345.3,272.4c0.9,1,2.3,0.7,3.6,1.1C-342.3,271.9-342.5,271.9-345.3,272.4z M-333.6,279.1
		c-1.2-0.6-2.2-1-3.4-1.5C-336.6,279.4-336.1,279.6-333.6,279.1z M-348.1,272.4c0-0.1,0-0.1,0-0.2c-1.8,0-3.5,0-5.3,0
		c0,0.1,0,0.1,0,0.2C-351.6,272.4-349.9,272.4-348.1,272.4z M-332.7,269.4c-1.3-0.9-2.3-1.5-3.4-2.2c0,0.1-0.1,0.2-0.2,0.2
		C-335.2,268.2-334.9,270-332.7,269.4z M-382.3,269.4c1.8,0.5,2.4-0.9,3.2-1.7C-380.1,268.3-381.1,268.8-382.3,269.4z M-364.8,301.5
		c0,0.9,0,1.7,0,2.6c0,0,0.1,0,0.2,0c0.3-0.9,0.7-1.7,1-2.6C-364,301.5-364.4,301.5-364.8,301.5z M-324.3,277.7
		c-0.3,0.5-0.6,0.9-0.9,1.4c0.6,0.1,1.2,0.2,1.8,0.3c0-0.1,0.1-0.2,0.1-0.3C-323.6,278.7-323.8,278.3-324.3,277.7z M-327.3,269.2
		c-0.9-0.4-1.7-0.9-2.6-1.4C-328.5,269.5-328.5,269.6-327.3,269.2z M-322.3,281.9c0.7,0.6,1.3,1.1,1.9,1.6
		C-321.1,281.8-321.1,281.8-322.3,281.9z M-313.3,298.7c-0.3-0.7-0.4-1.3-0.8-2.1C-314.2,298.6-314.1,298.8-313.3,298.7z"/>
</g>
</svg>
