<?xml version="1.0" encoding="utf-8"?>
<!-- Generator: Adobe Illustrator 19.1.0, SVG Export Plug-In . SVG Version: 6.00 Build 0)  -->
<svg version="1.1" id="Layer_1" xmlns="http://www.w3.org/2000/svg" xmlns:xlink="http://www.w3.org/1999/xlink" x="0px" y="0px"
	 viewBox="-417 218 125 125" style="enable-background:new -417 218 125 125;" xml:space="preserve">
<style type="text/css">
	.st0{fill:none;stroke:#7B7B7B;stroke-width:1.5;stroke-miterlimit:10;}
</style>
<g id="XMLID_27_">
	<path id="XMLID_9513_" class="st0" d="M-305.7,303.8c3.8,0,7.4,0,11,0c0.9,4.1-1.1,6.9-5.3,6.9c-36.1,0-72.2,0-108.4,0
		c-2.2,0-3.8-0.9-5.2-2.6c-1-1.3-0.8-2.8-0.8-4.3c3.7,0,7.3,0,11.1,0c0-0.5,0-0.9,0-1.3c0-15.7,0-31.3,0-47c0-3.4,1.6-5,4.9-5
		c29.1,0,58,0,87.1-0.1c2.8,0,5.4,2.5,5.4,5.4c-0.1,15.4,0,30.9,0,46.3C-305.7,302.8-305.7,303.1-305.7,303.8z M-310.1,300.5
		c0-15.3,0-30.4,0-45.7c-29.7,0-59.5,0-89.2,0c0,15.3,0,30.4,0,45.7C-369.5,300.5-339.9,300.5-310.1,300.5z M-346.8,304.3
		c-5.3,0-10.5,0-15.8,0c0,0.4,0,0.8,0,1.1c5.3,0,10.6,0,15.9,0C-346.8,304.9-346.8,304.6-346.8,304.3z"/>
	<path id="XMLID_9517_" class="st0" d="M-395.4,265.9c0-4.7,3.8-8.5,8.5-8.5s8.5,3.9,8.5,8.5c0,4.7-3.8,8.5-8.5,8.5
		S-395.4,270.6-395.4,265.9z M-387,257.9c-4.6-0.1-8.3,3.9-8,8.5c0.3,4.7,4.5,8,9.2,7.5c3.9-0.4,7.4-4.7,6.7-8.1c-2.6,0-5.3,0-8,0
		C-387,263.1-387,260.5-387,257.9z"/>
	<path id="XMLID_9520_" class="st0" d="M-352.1,265.9c0-4.7,3.8-8.5,8.5-8.6c4.7,0,8.5,3.9,8.6,8.5c0.1,4.7-3.8,8.5-8.5,8.6
		C-348.3,274.5-352.1,270.6-352.1,265.9z M-343.6,273.8c2.8,0.3,6-1.7,7.3-4.7c1.5-3.2,0.7-6.9-2-9.3c-2.5-2.3-6.4-2.8-9.4-1
		c-2.7,1.5-4.5,4.7-4,7.2c2.6,0,5.2,0,7.9,0C-343.6,268.6-343.6,271.3-343.6,273.8z"/>
	<path id="XMLID_9523_" class="st0" d="M-373.8,265.9c0-4.7,3.8-8.5,8.5-8.6c4.7,0,8.5,3.8,8.5,8.5s-3.8,8.5-8.5,8.6
		C-369.9,274.5-373.8,270.6-373.8,265.9z M-357.2,265.8c0.2-3.2-2-6.3-5.1-7.5c-3.2-1.3-6.9-0.3-9.1,2.3c-2.2,2.7-2.5,6.6-0.6,9.5
		c1.6,2.5,4.7,4.1,6.9,3.5c0-2.6,0-5.2,0-7.9C-362.4,265.8-359.8,265.8-357.2,265.8z"/>
	<g id="XMLID_9526_">
		<path id="XMLID_9527_" class="st0" d="M-319.1,264.5c1.8,0,3.7,0,5.5,0c0,10.5,0,21.1,0,31.7c-1.8,0-3.7,0-5.5,0
			C-319.1,285.6-319.1,275.1-319.1,264.5z"/>
		<path id="XMLID_9528_" class="st0" d="M-325.6,270.3c1.9,0,3.7,0,5.5,0c0,8.6,0,17.3,0,26c-1.8,0-3.7,0-5.5,0
			C-325.6,287.6-325.6,278.9-325.6,270.3z"/>
		<path id="XMLID_9529_" class="st0" d="M-326.5,296.3c-1.8,0-3.7,0-5.5,0c0-6.7,0-13.4,0-20.2c1.8,0,3.7,0,5.5,0
			C-326.5,282.8-326.5,289.4-326.5,296.3z"/>
		<path id="XMLID_9530_" class="st0" d="M-333.2,281.8c0,4.8,0,9.6,0,14.4c-1.8,0-3.7,0-5.6,0c0-4.8,0-9.6,0-14.4
			C-336.9,281.8-335.1,281.8-333.2,281.8z"/>
		<path id="XMLID_9531_" class="st0" d="M-345.3,287.5c1.9,0,3.7,0,5.5,0c0,2.8,0,5.8,0,8.6c-1.8,0-3.7,0-5.5,0
			C-345.3,293.3-345.3,290.5-345.3,287.5z"/>
	</g>
</g>
</svg>
