<?xml version="1.0" encoding="utf-8"?>
<!-- Generator: Adobe Illustrator 19.0.0, SVG Export Plug-In . SVG Version: 6.00 Build 0)  -->
<svg version="1.1" id="Layer_1" xmlns="http://www.w3.org/2000/svg" xmlns:xlink="http://www.w3.org/1999/xlink" x="0px" y="0px"
	 viewBox="1110 -60 150 150" style="enable-background:new 1110 -60 150 150;" xml:space="preserve">
<style type="text/css">
	.st0{fill:none;stroke:#A3BB3A;stroke-width:2;stroke-miterlimit:10;}
</style>
<g id="XMLID_27_">
	<path id="XMLID_9513_" class="st0" d="M1241.9,44.4c4.4,0,8.6,0,12.8,0c1.1,4.8-1.3,8-6.1,8c-41.9,0-83.8,0-125.7,0
		c-2.5,0-4.4-1.1-6-3c-1.2-1.5-0.9-3.2-0.9-5c4.3,0,8.5,0,12.9,0c0-0.6,0-1.1,0-1.5c0-18.2,0-36.3,0-54.5c0-3.9,1.9-5.8,5.7-5.8
		c33.7,0,67.3,0,101-0.1c3.2,0,6.3,2.9,6.3,6.3c-0.1,17.9,0,35.8,0,53.7C1241.9,43.2,1241.9,43.7,1241.9,44.4z M1236.9,40.7
		c0-17.7,0-35.3,0-53c-34.5,0-69,0-103.5,0c0,17.7,0,35.3,0,53C1167.9,40.7,1202.3,40.7,1236.9,40.7z M1194.3,45
		c-6.1,0-12.2,0-18.3,0c0,0.5,0,0.9,0,1.3c6.2,0,12.3,0,18.4,0C1194.3,45.8,1194.3,45.4,1194.3,45z"/>
	<path id="XMLID_9517_" class="st0" d="M1137.9,0.5c0-5.5,4.4-9.9,9.9-9.9c5.5,0,9.9,4.5,9.9,9.9c0,5.5-4.4,9.9-9.9,9.9
		S1137.9,6,1137.9,0.5z M1147.7-8.8c-5.3-0.1-9.6,4.5-9.3,9.9s5.2,9.3,10.7,8.7c4.5-0.5,8.6-5.4,7.8-9.4c-3,0-6.1,0-9.3,0
		C1147.7-2.7,1147.7-5.7,1147.7-8.8z"/>
	<path id="XMLID_9520_" class="st0" d="M1188.1,0.5c0-5.5,4.4-9.9,9.9-10c5.4,0,9.9,4.5,10,9.9s-4.4,9.9-9.9,10
		C1192.5,10.5,1188.1,6,1188.1,0.5z M1198,9.7c3.3,0.4,7-2,8.5-5.4c1.7-3.7,0.8-8-2.3-10.8c-2.9-2.7-7.4-3.2-10.9-1.2
		c-3.1,1.7-5.2,5.4-4.6,8.3c3,0,6,0,9.2,0C1198,3.7,1198,6.7,1198,9.7z"/>
	<path id="XMLID_9523_" class="st0" d="M1163,0.5c0-5.5,4.4-9.9,9.9-10c5.5,0,9.9,4.4,9.9,9.9c0,5.5-4.4,9.9-9.9,10
		C1167.5,10.5,1163,6,1163,0.5z M1182.2,0.4c0.2-3.7-2.3-7.3-5.9-8.7c-3.7-1.5-8-0.3-10.6,2.7c-2.6,3.1-2.9,7.6-0.7,11
		c1.8,2.9,5.4,4.8,8,4.1c0-3,0-6,0-9.2C1176.2,0.4,1179.2,0.4,1182.2,0.4z"/>
	<g id="XMLID_9526_">
		<path id="XMLID_9527_" class="st0" d="M1226.4-1.1c2.1,0,4.3,0,6.4,0c0,12.2,0,24.5,0,36.8c-2.1,0-4.3,0-6.4,0
			C1226.4,23.4,1226.4,11.2,1226.4-1.1z"/>
		<path id="XMLID_9528_" class="st0" d="M1218.9,5.6c2.2,0,4.3,0,6.4,0c0,10,0,20.1,0,30.1c-2.1,0-4.3,0-6.4,0
			C1218.9,25.7,1218.9,15.6,1218.9,5.6z"/>
		<path id="XMLID_9529_" class="st0" d="M1217.8,35.7c-2.1,0-4.3,0-6.4,0c0-7.8,0-15.6,0-23.4c2.1,0,4.3,0,6.4,0
			C1217.8,20.1,1217.8,27.8,1217.8,35.7z"/>
		<path id="XMLID_9530_" class="st0" d="M1210.1,19c0,5.6,0,11.1,0,16.7c-2.1,0-4.3,0-6.5,0c0-5.6,0-11.1,0-16.7
			C1205.8,19,1207.9,19,1210.1,19z"/>
		<path id="XMLID_9531_" class="st0" d="M1196,25.6c2.2,0,4.3,0,6.4,0c0,3.3,0,6.7,0,10c-2.1,0-4.3,0-6.4,0
			C1196,32.3,1196,29,1196,25.6z"/>
	</g>
</g>
</svg>
