<?xml version="1.0" encoding="utf-8"?>
<!-- Generator: Adobe Illustrator 19.1.0, SVG Export Plug-In . SVG Version: 6.00 Build 0)  -->
<svg version="1.1" id="Layer_1" xmlns="http://www.w3.org/2000/svg" xmlns:xlink="http://www.w3.org/1999/xlink" x="0px" y="0px"
	 viewBox="-417 218 125 125" style="enable-background:new -417 218 125 125;" xml:space="preserve">
<style type="text/css">
	.st0{fill:none;stroke:#7B7B7B;stroke-width:2;stroke-miterlimit:10;}
	.st1{fill:#7B7B7B;}
</style>
<path id="XMLID_9283_" class="st0" d="M-368.2,234c12.7,6.8,25.5,13.6,38.1,20.3c-3,2.5-6.1,3-9.4,1.1c-4.9-2.8-9.7-5.8-14.6-8.7
	c-6.1-3.6-12.1-7.3-18.7-10c-1.1-0.4-2.3-0.8-3.5-1.2c-3.6-1.1-5.9-4-5.8-7.4c0.1-3.3,2.5-6.2,6-7.2c3.5-0.9,7.3,0.4,9.2,3.2
	c2,2.9,1.7,6.5-0.8,9.1C-367.8,233.5-367.9,233.8-368.2,234z M-373.7,224.2c-2.4,0-4.5,1.8-4.5,4c-0.1,2.3,1.9,4.2,4.4,4.2
	c2.4,0,4.5-1.9,4.5-4.1C-369.3,226.1-371.3,224.2-373.7,224.2z"/>
<path id="XMLID_9286_" class="st0" d="M-364,242.6c-1.4,0.8-2.7,1.4-3.7,2c0.8,1.5,1.7,2.8,2,4.2c1,4-1.7,7.8-6,8.9
	c-4.2,1-8.6-1.3-10-5.1c-1.3-3.9,0.9-8,5.1-9.4c2.4-0.8,4.9-1.8,7.3-2.7c0.3-0.1,0.8-0.3,1-0.1C-366.8,241.1-365.6,241.8-364,242.6z
	 M-373.7,246.3c-2.4,0-4.4,1.8-4.4,4.1s1.9,4.1,4.5,4.1c2.4,0,4.4-1.9,4.4-4.1C-369.3,248.2-371.2,246.3-373.7,246.3z"/>
<path id="XMLID_9300_" class="st0" d="M-329.9,224.4c-0.5,0.3-0.8,0.5-1.2,0.7c-8,4.3-16,8.6-24.1,12.9c-0.7,0.4-1.3,0.4-1.9,0
	c-1.1-0.7-2.2-1.2-3.6-2c0.3-0.1,0.5-0.2,0.7-0.3c5.7-3.5,11.4-6.9,17-10.4c1.4-0.8,2.9-1.6,4.3-2.4c1.9-1,3.7-1,5.6-0.2
	C-332,223.3-331,223.8-329.9,224.4z"/>
<path id="XMLID_9301_" class="st1" d="M-406,241.3c0,0.8,0.1,1.4,0,2c-0.1,1.2-1,2-2.3,1.9c-1.2-0.1-2-0.8-2.1-2
	c-0.1-1.4-0.1-2.6,0-4c0.1-1.3,0.8-2,2.2-2c1.4-0.1,3-0.1,4.4,0c1.3,0.1,2.1,0.9,2.1,1.9c0,1.1-0.8,1.9-2.1,2
	C-404.5,241.3-405.1,241.3-406,241.3z"/>
<path id="XMLID_9302_" class="st1" d="M-302.9,241.3c-0.8,0-1.5,0-2.2,0c-1.3-0.1-2.2-0.9-2.2-2.1c0-1.1,0.9-1.9,2.2-1.9
	c1.4-0.1,3-0.1,4.4,0c1.3,0.1,2,0.8,2.1,1.9c0.1,1.4,0.1,2.7,0,4.1c-0.1,1.2-0.9,1.9-2.1,1.9c-1.3,0-2.1-0.8-2.2-2
	C-303,242.6-302.9,242-302.9,241.3z"/>
<path id="XMLID_9303_" class="st1" d="M-302.9,336.1c0-0.8,0-1.4,0-2c0.1-1.2,1-2,2.2-2s2.1,0.8,2.1,1.9c0.1,1.4,0.1,2.7,0,4.1
	c-0.1,1.3-0.9,1.9-2.2,2c-1.4,0-2.9,0.1-4.3,0c-1.3-0.1-2.2-0.9-2.2-2s0.9-1.9,2.2-1.9C-304.4,336.1-303.8,336.1-302.9,336.1z"/>
<path id="XMLID_9304_" class="st1" d="M-406,336.1c0.9,0,1.6,0,2.4,0c1.2,0.1,2,0.9,2,1.9s-0.8,1.9-1.9,2c-1.6,0.1-3.2,0.1-4.8,0
	c-1.1-0.1-1.9-0.7-1.9-1.8c-0.1-1.4-0.1-3,0-4.4c0.1-1.1,1-1.9,2.1-1.9s2,0.8,2.2,1.9C-405.9,334.6-406,335.3-406,336.1z"/>
<path id="XMLID_9305_" class="st1" d="M-320.2,340.2c-0.8,0-1.4,0-2.1,0c-1.3-0.1-2.1-0.9-2.1-2s0.9-2,2.2-2c1.4,0,3-0.1,4.4,0
	c1.3,0,2.1,0.9,2.1,1.9c0,1.1-0.8,1.9-2.1,2C-318.6,340.2-319.4,340.2-320.2,340.2z"/>
<path id="XMLID_9306_" class="st1" d="M-388.8,336.1c0.8,0,1.5,0,2.3,0c1.2,0.1,2,0.8,2.1,1.9c0.1,1-0.8,2-2,2.1
	c-1.5,0.1-3.1,0.1-4.6,0c-1.2-0.1-2.1-1-2.1-2c0-1.1,0.9-1.9,2.1-1.9C-390.3,336.1-389.5,336.1-388.8,336.1z"/>
<path id="XMLID_9307_" class="st1" d="M-337.3,340.2c-0.8,0-1.5,0-2.3,0c-1.3-0.1-2.1-0.9-2.1-2s0.8-1.9,2.2-2c1.4,0,3-0.1,4.4,0
	c1.3,0,2.1,0.9,2.1,1.9c0,1.1-0.8,1.9-2.1,2C-335.8,340.2-336.5,340.2-337.3,340.2z"/>
<path id="XMLID_9308_" class="st1" d="M-387.8,237.2c0.8,0,1.5,0,2.3,0c1.2,0.1,2,0.8,2.1,1.9c0.1,1-0.7,2-1.9,2.1
	c-1.7,0.1-3.4,0.1-5,0c-1.2-0.1-1.9-1-1.9-2.1c0.1-1.1,0.8-1.8,2.1-1.9C-389.3,237.2-388.5,237.2-387.8,237.2z"/>
<path id="XMLID_9309_" class="st1" d="M-406,257.1c0,0.7,0.1,1.4,0,2c-0.1,1.1-1,1.9-2.2,1.9s-2.1-0.8-2.1-1.9
	c-0.1-1.4-0.1-2.8,0-4.2c0.1-1.2,1-1.9,2.1-1.9s2,0.8,2.2,1.9c0,0.1,0,0.2,0,0.3C-406,255.8-406,256.5-406,257.1L-406,257.1z"/>
<path id="XMLID_9310_" class="st1" d="M-298.6,257.1c0,0.7,0.1,1.4,0,2.1c-0.1,1.1-1,1.9-2.1,1.9s-2.1-0.8-2.2-1.8
	c-0.1-1.5-0.1-3,0-4.5c0.1-1.1,1.2-1.8,2.2-1.8c1.1,0.1,2,0.8,2.1,1.9C-298.5,255.7-298.6,256.4-298.6,257.1z"/>
<path id="XMLID_9311_" class="st1" d="M-337.8,237.2c0.8,0,1.4,0,2.1,0c1.3,0.1,2.1,0.8,2.1,1.9c0,1-0.8,1.9-1.9,2
	c-1.6,0.1-3.3,0.1-4.9,0c-1.2-0.1-1.9-1-1.9-2c0.1-1,0.8-1.9,2-1.9c0.1,0,0.2,0,0.3,0C-339.2,237.2-338.5,237.2-337.8,237.2
	L-337.8,237.2z"/>
<path id="XMLID_9312_" class="st1" d="M-298.6,272.8c0,0.7,0,1.4,0,2.1c-0.1,1.2-0.9,1.9-2.1,1.9s-2.1-0.8-2.2-1.9
	c-0.1-1.4-0.1-2.9,0-4.3c0.1-1.1,1.1-1.9,2.3-1.9c1.2,0.1,1.9,0.8,2,1.9C-298.5,271.5-298.6,272.2-298.6,272.8L-298.6,272.8z"/>
<path id="XMLID_9313_" class="st1" d="M-406,272.8c0,0.7,0,1.4,0,2c-0.1,1.3-1,2-2.2,2c-1.3,0-2.1-0.8-2.2-2c-0.1-1.4-0.1-2.6,0-4
	c0.1-1.3,0.9-2,2.2-2s2.1,0.8,2.2,2C-406,271.6-406,272.2-406,272.8z"/>
<path id="XMLID_9314_" class="st1" d="M-298.6,288.7c0,0.7,0.1,1.4,0,2.1c-0.1,1.1-0.9,1.9-2,1.9s-2.2-0.7-2.3-1.8
	c-0.1-1.5-0.1-3.1,0-4.6c0.1-1.1,1.2-1.8,2.3-1.7c1.1,0.1,1.9,0.8,2,1.9c0,0.1,0,0.2,0,0.3C-298.6,287.4-298.6,288-298.6,288.7
	L-298.6,288.7z"/>
<path id="XMLID_9315_" class="st1" d="M-406,288.8c0,0.7,0.1,1.4,0,2c-0.1,1.2-1.1,2-2.3,1.9c-1.2-0.1-2-0.8-2.1-2
	c-0.1-1.4-0.1-2.7,0-4.1c0.1-1.2,0.9-1.9,2.1-2c1.2,0,2.1,0.8,2.2,1.9C-405.9,287.3-406,288-406,288.8L-406,288.8z"/>
<path id="XMLID_9316_" class="st1" d="M-371.7,340.2c-0.8,0-1.5,0.1-2.3,0c-1.2-0.1-2.1-1-2-2c0-1.1,0.9-1.9,2.1-1.9
	c1.5-0.1,3-0.1,4.6,0c1.2,0,2,0.8,2,1.9c0.1,1.1-0.8,2-2,2.1C-370.1,340.2-370.9,340.2-371.7,340.2z"/>
<path id="XMLID_9317_" class="st1" d="M-354.5,336.1c0.8,0,1.6,0,2.4,0c1.2,0.1,1.9,0.8,2,1.9c0,1-0.8,1.9-1.9,2
	c-1.6,0.1-3.3,0.1-4.9,0c-1.2-0.1-1.9-1-1.9-2s0.8-1.9,2-1.9C-356,336.1-355.3,336.1-354.5,336.1z"/>
<path id="XMLID_9318_" class="st1" d="M-298.6,320.3c0,0.8,0.1,1.4,0,2.2c-0.1,1.1-0.9,1.8-2,1.9s-2.2-0.6-2.3-1.7
	c-0.1-1.5-0.1-3.1,0-4.6c0.1-1.1,1.1-1.8,2.2-1.8c1.1,0.1,1.9,0.8,2,1.9C-298.5,318.9-298.6,319.6-298.6,320.3L-298.6,320.3z"/>
<path id="XMLID_9319_" class="st1" d="M-320.4,241.3c-0.8,0-1.4,0-2.1,0c-1.4-0.1-2.2-0.9-2.2-2s0.8-1.9,2.2-2c1.4,0,2.9,0,4.3,0
	s2.2,0.8,2.2,2c0,1.1-0.9,1.9-2.2,2C-319,241.3-319.7,241.3-320.4,241.3z"/>
<path id="XMLID_9320_" class="st1" d="M-410.4,304.5c0-0.7-0.1-1.4,0-2.1c0.1-1.1,0.9-1.9,2.1-1.9c1.1,0,2.1,0.7,2.2,1.8
	c0.1,1.5,0.1,3,0,4.5c-0.1,1.1-1.1,1.8-2.2,1.8c-1.2,0-2-0.8-2.1-1.9C-410.4,305.8-410.4,305.2-410.4,304.5L-410.4,304.5z"/>
<path id="XMLID_9321_" class="st1" d="M-410.4,320.4c0-0.7,0-1.4,0-2.1c0.1-1.2,1-1.9,2.1-1.9c1.2,0,2.1,0.8,2.2,1.9
	c0.1,1.4,0.1,2.9,0,4.3c-0.1,1.1-1.1,1.9-2.3,1.9c-1.1-0.1-1.9-0.8-2-1.9C-410.4,321.7-410.4,321-410.4,320.4L-410.4,320.4z"/>
<path id="XMLID_9322_" class="st1" d="M-298.6,304.6c0,0.7,0.1,1.4,0,2.1c-0.1,1.1-0.9,1.9-2.1,1.9c-1.1,0-2.1-0.7-2.2-1.8
	c-0.1-1.5-0.1-3,0-4.5c0.1-1.1,1.1-1.8,2.2-1.8c1.2,0,2,0.8,2.1,1.9C-298.5,303.1-298.6,303.8-298.6,304.6z"/>
<g id="XMLID_9323_">
	<path id="XMLID_9324_" class="st0" d="M-345.6,309.6c-1.4-2.4-2.9-4.8-4.4-7.3c-0.2-0.3-0.2-0.5-0.2-0.8c0-12.1,0-24.1,0-36.2
		c0-0.2,0-0.3,0.1-0.4c3.9,0,7.7,0,11.6,0c0,0.3,0.1,0.7,0.1,1c0,12.2,0,24.6,0,36.8c0,0.5-0.3,1.1-0.6,1.5c-1.3,1.5-2.7,2.9-4,4.4
		C-343.8,309.1-344.4,309.8-345.6,309.6z"/>
	<path id="XMLID_9325_" class="st0" d="M-354.6,326.7c-3.9,0-7.7,0-11.6,0c0-0.3-0.1-0.7-0.1-1c0-11.9,0-23.8,0-35.8
		c0-0.7,0.2-1.1,0.8-1.5c0.4-0.3,0.8-0.6,1.2-0.9c1.1-0.8,1.9-2,3.8-1.6c0.9,1.6,1.9,3.5,3,5.1c2.4,3.2,3,6.7,3,10.6
		c-0.3,8-0.1,16-0.1,24C-354.6,325.9-354.6,326.3-354.6,326.7z"/>
	<path id="XMLID_9326_" class="st0" d="M-382.9,286.9c1.4,3.1,2.6,6.2,4,9.3c0.1,0.3,0,0.6-0.1,0.8c-0.2,0.8,0.3,1.5,1.1,1.6
		c0.8,0.2,1.5-0.3,1.8-1.2c0.1-0.4,0.3-0.8,0.6-1.1c1.5-1.3,3.1-2.5,4.7-3.9c0,11.4,0,22.7,0,34.1c-4.1,0-8.1,0-12.2,0
		c0-13.3,0-26.5,0-39.8C-382.9,286.9-382.9,286.9-382.9,286.9z"/>
	<path id="XMLID_9327_" class="st0" d="M-321.8,326.7c-4.1,0-8.1,0-12.3,0c0-0.3,0-0.7,0-1c0-8.3,0-16.5,0-24.8
		c0-0.5,0.3-1.1,0.6-1.5c0.8-1,1.8-1.9,2.7-3c0.8-0.9,1.5-2.1,3.4-1.9c1.8,1.9,3.6,3.9,5.5,6c0.2,0.3,0.3,0.6,0.3,0.8
		c0,8.2,0,16.5,0,24.6C-321.8,326.2-321.8,326.4-321.8,326.7z"/>
	<path id="XMLID_9328_" class="st0" d="M-378.3,296.2c-1.6-3.7-3.1-7.3-4.6-10.9c-0.1-0.3-0.2-0.6-0.2-0.8c0-6.4,0-12.8,0-19.2
		c0-0.2,0-0.3,0-0.5c4.1,0,8.2,0,12.4,0c0,0.3,0,0.7,0,0.9c0,8.2,0,16.4,0,24.6c0,0.6-0.2,1-0.7,1.4c-1.7,1.3-3.3,2.7-5,4
		C-376.9,296-377.6,296-378.3,296.2z"/>
	<path id="XMLID_9329_" class="st0" d="M-349.9,303.6c1.3,2.1,2.4,4.1,3.7,6.2c0.2,0.3,0.1,0.7,0.1,1c0.1,0.8,0.7,1.4,1.5,1.3
		s1.5-0.7,1.3-1.4c-0.2-0.6,0.1-0.8,0.4-1.3c1.4-1.5,2.8-3,4.3-4.6c0,7.4,0,14.6,0,21.9c-3.9,0-7.7,0-11.6,0c0-7.7,0-15.3,0-23
		C-350.1,303.7-350,303.7-349.9,303.6z"/>
	<path id="XMLID_9330_" class="st0" d="M-321.8,284.3c0,5,0,9.9,0,14.9c-0.2-0.1-0.3-0.1-0.3-0.2c-1.6-1.7-3.2-3.5-4.8-5.2
		c-0.2-0.2-0.3-0.5-0.3-0.8c-0.3-0.8-0.8-1.1-1.7-1c-0.8,0.1-1.2,0.7-1.2,1.5c0,0.4-0.1,0.8-0.3,1.1c-1.1,1.3-2.3,2.5-3.5,3.9
		c0-4.8,0-9.5,0-14.3C-330,284.3-326,284.3-321.8,284.3z"/>
	<path id="XMLID_9331_" class="st0" d="M-366.2,287.6c0-4,0-7.7,0-11.4c3.9,0,7.7,0,11.6,0c0,6,0,12,0,18.1
		c-0.3-0.3-0.4-0.5-0.6-0.8c-1.4-2.4-2.9-4.7-4.2-7.2c-0.3-0.6-0.5-1.4-0.7-2c-0.2-0.7-0.5-1.1-1.3-1.2s-1.5,0.2-1.5,0.9
		c-0.1,0.9-0.8,1.4-1.4,1.9C-364.8,286.5-365.5,287-366.2,287.6z"/>
</g>
</svg>
