<?xml version="1.0" encoding="utf-8"?>
<!-- Generator: Adobe Illustrator 19.1.0, SVG Export Plug-In . SVG Version: 6.00 Build 0)  -->
<svg version="1.1" id="Layer_1" xmlns="http://www.w3.org/2000/svg" xmlns:xlink="http://www.w3.org/1999/xlink" x="0px" y="0px"
	 viewBox="-417 218 125 125" style="enable-background:new -417 218 125 125;" xml:space="preserve">
<style type="text/css">
	.st0{fill:none;stroke:#7B7B7B;stroke-width:2;stroke-miterlimit:10;}
</style>
<g id="XMLID_27_">
	<path id="XMLID_9414_" class="st0" d="M-295.1,317.9c-3.2,0-6.2,0-9.3,0c0-10.5,0-21,0-31.6c-1.5,0-2.9,0-4.5,0c0,10.4,0,21,0,31.5
		c-8.8,0-17.6,0-26.4,0c0-10.5,0-21,0-31.5c-1.5,0-3,0-4.5,0c0,10.5,0,21,0,31.5c-3.2,0-6.2,0-9.4,0c0-0.4,0-0.8,0-1.2
		c0-10.1,0.1-20.3,0-30.4c-0.1-8,5.6-13.8,13.6-14.3c5.4-0.3,10.9-0.1,16.3-0.1c3.5,0,7.1-0.1,10.6,0.1c6.4,0.3,11.6,4.3,13.2,10.1
		c0.3,1.1,0.5,2.3,0.5,3.5c0,10.5,0,21,0,31.5C-295.1,317.3-295.1,317.6-295.1,317.9z"/>
	<path id="XMLID_9415_" class="st0" d="M-352.3,317.9c-5.3,0-10.4,0-15.7,0c0-10.5,0-21.1,0-31.6c-1.5,0-2.9,0-4.5,0
		c0,10.4,0,21,0,31.6c-3.2,0-6.2,0-9.4,0c0-0.4,0-0.9,0-1.2c0-10.1,0.1-20.3,0-30.4c-0.1-7.5,5.1-13.8,13.4-14.2
		c7.9-0.4,15.8-0.1,23.7-0.2c0.1,0,0.1,0,0.3,0.1c-0.3,0.2-0.6,0.3-0.9,0.5c-4.3,2.7-6.7,6.7-6.9,11.7c-0.3,5.6-0.1,11.4-0.1,17.1
		c0,5.1,0,10.2,0,15.3C-352.3,317-352.3,317.4-352.3,317.9z"/>
	<path id="XMLID_9416_" class="st0" d="M-377.1,272c-4.3,2.4-6.8,5.7-7.7,10.2c-0.3,1.2-0.3,2.4-0.3,3.7c0,10.3,0,20.5,0,30.8
		c0,0.4,0,0.8,0,1.3c-5,0-10,0-15.1,0c0-10.5,0-21,0-31.6c-1.5,0-3,0-4.5,0c0,10.5,0,21,0,31.6c-3.2,0-6.2,0-9.4,0
		c0-0.3,0-0.8,0-1.1c0-10.2,0-20.5,0-30.7c0-7.3,4.8-12.8,12-13.9c1.1-0.2,2.3-0.3,3.4-0.3c6.8,0,13.6,0,20.5,0
		C-377.9,271.9-377.7,271.9-377.1,272z"/>
	<path id="XMLID_9417_" class="st0" d="M-322.5,244.9c6.1,0,11,4.9,11,11s-4.9,11-11,11s-11-4.9-11-11S-328.6,244.9-322.5,244.9z"/>
	<path id="XMLID_9418_" class="st0" d="M-401.1,255.9c4.3-4.3,8.6-8.6,12.8-12.8c4.3,4.3,8.6,8.6,12.8,12.8
		c-4.2,4.2-8.6,8.6-12.8,12.8C-392.5,264.5-396.8,260.1-401.1,255.9z"/>
	<path id="XMLID_9419_" class="st0" d="M-356.4,269.1c-4.9-7.4-9.8-14.5-14.6-22c9.8,0,19.5,0,29.4,0
		C-346.7,254.5-351.5,261.8-356.4,269.1z"/>
</g>
</svg>
