<?xml version="1.0" encoding="utf-8"?>
<!-- Generator: Adobe Illustrator 19.1.0, SVG Export Plug-In . SVG Version: 6.00 Build 0)  -->
<svg version="1.1" id="Layer_1" xmlns="http://www.w3.org/2000/svg" xmlns:xlink="http://www.w3.org/1999/xlink" x="0px" y="0px"
	 viewBox="-417 218 125 125" style="enable-background:new -417 218 125 125;" xml:space="preserve">
<style type="text/css">
	.st0{fill:#7B7B7B;}
	.st1{fill:none;stroke:#7B7B7B;stroke-width:2;stroke-miterlimit:10;}
</style>
<g id="XMLID_15935_">
	<path id="XMLID_15942_" class="st0" d="M-322.9,339.6c-20.8,0-41.7,0-62.7,0c0-7.8,0-15.5,0-23.2c-0.1,0-0.2-0.1-0.2-0.1
		c-1.8,7.8-3.7,15.5-5.6,23.3c-6.2,0-12.4,0-18.8,0c0.8-4.1,1.7-8.2,2.5-12.2c2.2-11.1,4.5-22.1,6.9-33.1c0.4-1.8,1-3.6,1.6-5.5
		c1.6-5.2,5.2-8,10.6-8.5c4.1-0.4,8.2-0.7,12.3-0.7c15.3-0.1,30.7-0.1,46,0c4.2,0,8.5,0.5,12.7,1.1c3.9,0.6,6.6,3,7.8,6.7
		c1.4,4.3,2.5,8.7,3.4,13.2c2.6,12.8,5.1,25.7,7.7,38.6c0,0.2,0,0.3,0,0.6c-6.1,0-12.2,0-18.4,0c-1.9-7.9-3.8-15.6-5.7-23.5
		c-0.1,0-0.1,0-0.2,0C-322.9,323.9-322.9,331.8-322.9,339.6z M-362.3,318.9c-0.1,3.7,3,6.9,6.7,6.9c3.7,0.1,6.8-3,6.9-6.7
		c0.1-3.6-3-6.8-6.7-6.9C-358.8,312.1-362.1,315.3-362.3,318.9z M-355.4,311c2.2-4.5,4.3-8.7,6.5-13c-4.4,0-8.6,0-13,0
		C-359.8,302.3-357.6,306.5-355.4,311z M-348.8,313.5c1.7,1.5,2.9,3.2,2.9,5.5c0,2.4-1.2,4.1-3,5.7c3.5,1.2,6.8,0.1,8.4-2.6
		c1.4-2.2,1.2-5-0.5-6.9C-342.9,313-346.1,312.2-348.8,313.5z M-340.3,313.5c2.1,1.4,3.1,3.3,3.1,5.6c0,2.3-1.2,4.1-3.1,5.6
		c3.3,1.1,6.5,0.2,8.3-2.2c1.5-2.1,1.5-4.9,0-6.9C-333.8,313.2-336.8,312.2-340.3,313.5z M-346.3,311c2.2-4.5,4.3-8.7,6.5-13.1
		c-2,0-3.6-0.1-5.2,0.1c-0.5,0.1-1.2,0.5-1.5,0.9c-0.9,1.6-1.7,3.3-2.5,5c-0.2,0.4-0.3,0.9-0.2,1.2
		C-348.3,307-347.3,308.9-346.3,311z M-337.5,311c2.2-4.5,4.3-8.7,6.5-13.1c-2.1,0-3.8,0-5.6,0c-0.3,0-0.7,0.3-0.9,0.6
		c-1,1.8-1.9,3.6-2.7,5.5c-0.2,0.3-0.2,0.9,0,1.3C-339.5,307.1-338.5,308.9-337.5,311z"/>
	<path id="XMLID_15936_" class="st0" d="M-375.1,250c0-12,9.8-21.8,21.7-21.8c11.7,0,21.9,9.3,22,22c0.1,12.2-9.9,22-21.8,22
		C-365.5,272.1-375.1,262.4-375.1,250z M-340.8,256.9c0.8-0.1,2-0.8,2.1,0.6c0.1,1.2-0.9,1.8-2,1.7c-1.1-0.2-2.2-0.5-3.1-1.1
		c-1.2-0.8-2.2-2-3.3-3c-1.7-1.5-3.5-1.5-5.5-0.8c-0.5,0.2-1.2,0.2-1.8,0c-2-0.7-3.8-0.6-5.5,0.9c-1.2,1.1-2.2,2.2-3.4,3.1
		c-0.8,0.6-2,0.9-3,0.9c-1.6,0-2-0.7-1.6-2.5c0.6,0.1,1.2,0.2,1.9,0.2c-0.4-1.2-1-2.2-2.4-2c-1.4,0.2-1.6,1.5-1.6,2.6
		c0,1.9,0.8,3.5,2.6,4c2,0.6,4.1,0.9,6.2,0.8c3.1-0.1,5.7-1.5,7.7-4.1c0.3,0.3,0.5,0.5,0.7,0.7c3.1,3.2,8.6,4.5,12.7,2.9
		c2.3-0.9,3.5-2.7,3.2-4.9c-0.2-1.1-0.5-2.2-1.8-2.2C-339.9,254.9-340.5,255.7-340.8,256.9z"/>
</g>
<ellipse id="XMLID_15933_" class="st1" cx="-353.5" cy="226.1" rx="25.1" ry="4.9"/>
</svg>
