<?xml version="1.0" encoding="utf-8"?>
<!-- Generator: Adobe Illustrator 19.0.0, SVG Export Plug-In . SVG Version: 6.00 Build 0)  -->
<svg version="1.1" id="Layer_1" xmlns="http://www.w3.org/2000/svg" xmlns:xlink="http://www.w3.org/1999/xlink" x="0px" y="0px"
	 viewBox="0 0 1000 426" style="enable-background:new 0 0 1000 426;" xml:space="preserve">
<style type="text/css">
	.st0{fill:none;stroke:#231F20;stroke-width:2;stroke-miterlimit:10;}
</style>
<g>
	<path class="st0" d="M995,120.9c0-8.6-2.5-11.1-10.9-11.1c-32.3,0-354.7,0-387,0h-5.9c26-29.2,17.9-65.2-2.3-82.8
		c-11.1-9.8-24.1-14.8-38.8-14.5c-20.4,0.5-36.1,10-47.6,26.8c-21.2-30.9-57-32.9-80.2-17.3c-11.9,8-19.9,19.1-23.4,33.1
		c-5,20.4,0.3,38.4,14.9,54.6h-6.5c-32.2,0-354.3,0-386.5,0c-8.5,0-11,2.4-11,11c0,17.8,0,35.7,0,53.5c0,15.5,0,15.5,15.1,16.8
		c0.2,0,0.3,0.1,1.2,0.4v6c0,69.5,0,139,0,208.5c0,9.3,2.2,11.6,11.4,11.6c116.5,0,813,0,929.5,0c9.2,0,11.5-2.3,11.5-11.5
		c0-69.5,0-139,0-208.5v-6.4c1.6-0.1,2.6-0.3,3.6-0.3c10.9-0.2,12.7-2.1,12.7-13C995,158.9,995,139.9,995,120.9z M511.9,60.6
		c2.8-20.2,22.6-33.5,43.7-31.6c19.3,1.8,35.4,19.1,35.8,38.6c0.5,21.1-14.2,39.6-34.7,41.3c-15.1,1.3-30.5,0.2-46.7,0.2
		C510.5,93,509.7,76.6,511.9,60.6z M413.5,66.2c1.1-19.5,17.8-36.2,37.3-37.3c21-1.2,40.2,12.6,42.4,32.7
		c1.7,15.6,0.3,31.6,0.3,47.2c-15.5,0-31.4,1.3-47.1-0.3C426.4,106.5,412.3,87,413.5,66.2z M978.2,174H962c0,5.7-0.1,11.4-0.1,17.1
		h0.2v209.7H510.7l-16.6,0H42.8V191.1h0.1V174H26.6v-47.7h467.6v0h16.4v0h467.6V174z"/>
</g>
</svg>
