<?xml version="1.0" encoding="utf-8"?>
<!-- Generator: Adobe Illustrator 19.1.0, SVG Export Plug-In . SVG Version: 6.00 Build 0)  -->
<svg version="1.1" id="Layer_1" xmlns="http://www.w3.org/2000/svg" xmlns:xlink="http://www.w3.org/1999/xlink" x="0px" y="0px"
	 viewBox="-389 191 180 180" style="enable-background:new -389 191 180 180;" xml:space="preserve">
<style type="text/css">
	.st0{fill:#A3BB37;}
	.st1{enable-background:new    ;}
	.st2{fill:#344860;}
</style>
<g id="XMLID_3_">
	<path id="XMLID_56_" class="st0" d="M-386.4,285.7c0-3.1,0-6.2,0-9.2c0.5-2.8,0.9-5.6,1.3-8.4c4.8-35.6,33.8-66,69.1-72.4
		c4.1-0.7,8.3-1.3,12.3-2c3.1,0,6.2,0,9.2,0c0.9,0.2,1.7,0.6,2.6,0.7c4.1,0.7,8.3,1,12.4,2c33.3,7.4,59.5,34.7,65.8,68.4
		c0.7,3.9,1.3,7.8,2,11.7c0,3.1,0,6.2,0,9.2c-0.5,2.8-0.9,5.4-1.3,8.2c-5.4,36.7-32.9,65.5-69.7,72.7c-3.9,0.8-7.8,1.3-11.7,1.8
		c-3.1,0-6.2,0-9.2,0c-0.9-0.2-1.7-0.6-2.6-0.7c-4.1-0.7-8.3-1-12.4-2c-33.2-7.4-59.6-34.8-65.8-68.4
		C-385.3,293.5-385.8,289.6-386.4,285.7z M-299.3,201c-44,0.1-80,36-79.8,80.2c0.2,44.1,35.5,79.7,80,79.7
		c44.6-0.1,79.7-35.7,79.8-79.8C-219.1,237-255.3,201-299.3,201z"/>
</g>
<g class="st1">
	<path class="st2" d="M-349.4,293.4l5.1-7.1c2.7,2.4,6.7,3.3,9.4,3.3c3.4,0,5.1-1.1,5.1-2.4c0-1.2-0.7-1.9-5.3-1.9
		c-1.5,0-4.5,0.1-5.1,0.1v-9.3c0.7,0.1,3.8,0.1,5.1,0.1c3.3,0,4.8-0.6,4.8-1.7c0-1.6-2.1-2.2-5.1-2.2c-3,0-6.1,1-8.4,3l-4.9-6.5
		c3-3.4,7.7-5.7,14.5-5.7c9.5,0,14.4,3.9,14.4,9.6c0,3.7-3.2,6.9-7.6,7.7c3.8,0.4,8.2,3.3,8.2,8.1c0,6.2-6.1,10.4-15,10.4
		C-341.3,298.8-346.5,296.5-349.4,293.4z"/>
	<path class="st2" d="M-311.8,298.2l10.9-25.5h-16.3v-9.1h28.3v7.3l-11.5,27.3H-311.8z"/>
	<path class="st2" d="M-287.1,271.8c0-4.8,3.6-8.8,9.2-8.8c5.7,0,9.3,3.9,9.3,8.8c0,4.8-3.6,8.6-9.3,8.6
		C-283.6,280.5-287.1,276.7-287.1,271.8z M-281.4,298.2l22.1-34.6h5.1l-22.1,34.6H-281.4z M-274.9,271.8c0-2.4-1.3-3.3-3-3.3
		c-1.6,0-2.9,0.9-2.9,3.3c0,2.2,1.3,3.2,2.9,3.2S-274.9,274.1-274.9,271.8z M-267.1,290.2c0-4.8,3.6-8.8,9.2-8.8
		c5.6,0,9.3,3.9,9.3,8.8c0,4.8-3.6,8.6-9.3,8.6C-263.5,298.8-267.1,295-267.1,290.2z M-254.8,290.2c0-2.4-1.3-3.3-3-3.3
		c-1.7,0-3,0.9-3,3.3c0,2.3,1.3,3.2,3,3.2C-256.2,293.3-254.8,292.4-254.8,290.2z"/>
</g>
</svg>
