<?xml version="1.0" encoding="utf-8"?>
<!-- Generator: Adobe Illustrator 19.1.0, SVG Export Plug-In . SVG Version: 6.00 Build 0)  -->
<svg version="1.1" id="Layer_1" xmlns="http://www.w3.org/2000/svg" xmlns:xlink="http://www.w3.org/1999/xlink" x="0px" y="0px"
	 viewBox="-389 191 180 180" style="enable-background:new -389 191 180 180;" xml:space="preserve">
<style type="text/css">
	.st0{fill:#A3BB37;}
	.st1{enable-background:new    ;}
	.st2{fill:#344860;}
</style>
<g id="XMLID_3_">
	<path id="XMLID_56_" class="st0" d="M-386.4,285.7c0-3.1,0-6.3,0-9.2c0.5-2.7,0.9-5.7,1.3-8.4c4.9-35.7,33.9-66.1,69.2-72.5
		c4.1-0.7,8.3-1.3,12.3-1.9c3.1,0,6.3,0,9.2,0c0.9,0.2,1.7,0.6,2.6,0.7c4.1,0.7,8.3,1,12.4,1.9c33.4,7.4,59.5,34.8,65.8,68.5
		c0.7,3.9,1.3,7.9,1.9,11.7c0,3.1,0,6.3,0,9.2c-0.5,2.7-0.9,5.5-1.3,8.2c-5.5,36.8-33.1,65.7-69.8,72.7c-3.9,0.8-7.9,1.3-11.7,1.8
		c-3.1,0-6.3,0-9.2,0c-0.9-0.2-1.7-0.6-2.6-0.7c-4.1-0.7-8.3-1-12.4-1.9c-33.3-7.4-59.6-34.9-65.8-68.5
		C-385.3,293.5-385.8,289.6-386.4,285.7z M-299.2,200.9c-44,0.1-80.1,36.1-79.9,80.4c0.2,44.1,35.6,79.8,80.1,79.8
		c44.7-0.1,79.8-35.8,79.9-79.9C-218.9,236.9-255.2,200.9-299.2,200.9z"/>
</g>
<g class="st1">
	<path class="st2" d="M-328.6,293.5l5.1-7.2c2.7,2.4,6.8,3.3,9.4,3.3c3.4,0,5.1-1.1,5.1-2.4c0-1.2-0.7-1.9-5.4-1.9
		c-1.5,0-4.5,0-5.1,0.1v-9.3c0.7,0,3.8,0,5.1,0c3.3,0,4.8-0.6,4.8-1.7c0-1.6-2.1-2.2-5.1-2.2c-3,0-6.1,1-8.5,3l-5-6.5
		c3.1-3.4,7.8-5.7,14.6-5.7c9.6,0,14.5,3.9,14.5,9.6c0,3.7-3.2,7-7.7,7.7c3.9,0.4,8.2,3.3,8.2,8.1c0,6.2-6.1,10.4-15.1,10.4
		C-320.5,298.9-325.7,296.6-328.6,293.5z"/>
	<path class="st2" d="M-279.6,298.3l-3.9-6.7l-4,6.7h-10.2l8.2-12.9l-7.7-12.2h10.3l3.4,5.9l3.4-5.9h10.3l-7.7,12.2l8.3,12.9H-279.6
		z"/>
</g>
</svg>
