<?xml version="1.0" encoding="utf-8"?>
<!-- Generator: Adobe Illustrator 19.1.0, SVG Export Plug-In . SVG Version: 6.00 Build 0)  -->
<svg version="1.1" id="Layer_1" xmlns="http://www.w3.org/2000/svg" xmlns:xlink="http://www.w3.org/1999/xlink" x="0px" y="0px"
	 viewBox="-389 191 180 180" enable-background="new -389 191 180 180" xml:space="preserve">
<g id="XMLID_3_">
	<path id="XMLID_56_" fill="#A3BB37" d="M-386.4,285.6c0-3.1,0-6.2,0-9.2c0.5-2.8,0.9-5.6,1.3-8.4c4.8-35.6,33.8-66,69.1-72.4
		c4.1-0.7,8.3-1.3,12.3-2c3.1,0,6.2,0,9.2,0c0.9,0.2,1.7,0.6,2.6,0.7c4.1,0.7,8.3,1,12.4,2c33.3,7.4,59.5,34.7,65.8,68.4
		c0.7,3.9,1.3,7.8,2,11.7c0,3.1,0,6.2,0,9.2c-0.5,2.8-0.9,5.4-1.3,8.2c-5.4,36.7-32.9,65.5-69.7,72.7c-3.9,0.8-7.8,1.3-11.7,1.8
		c-3.1,0-6.2,0-9.2,0c-0.9-0.2-1.7-0.6-2.6-0.7c-4.1-0.7-8.3-1-12.4-2c-33.2-7.4-59.6-34.8-65.8-68.4
		C-385.3,293.4-385.8,289.5-386.4,285.6z M-299.3,200.9c-44,0.1-80,36-79.8,80.2c0.2,44.1,35.5,79.7,80,79.7
		c44.6-0.1,79.7-35.7,79.8-79.8C-219.1,236.9-255.3,200.9-299.3,200.9z"/>
</g>
<g>
	<path fill="#344860" d="M-327.5,298.9v-8.3c16.1-11.4,17.7-12.7,17.7-15.3c0-1.7-1.8-2.8-4.1-2.8c-3.8,0-6.6,1.4-9.3,3.6l-5.8-7.1
		c4.1-4.3,10-6,14.9-6c9.1,0,15.1,5.1,15.1,12.2c0,4.8-2.8,8.8-11.2,14.3h11.5v9.3H-327.5z"/>
	<path fill="#344860" d="M-279.4,298.9l-4-6.8l-4.1,6.8h-10.4l8.4-13.1l-7.8-12.4h10.4l3.4,6l3.4-6h10.4l-7.8,12.4l8.4,13.1H-279.4z
		"/>
</g>
</svg>
