<?xml version="1.0" encoding="utf-8"?>
<!-- Generator: Adobe Illustrator 19.1.0, SVG Export Plug-In . SVG Version: 6.00 Build 0)  -->
<svg version="1.1" id="Layer_1" xmlns="http://www.w3.org/2000/svg" xmlns:xlink="http://www.w3.org/1999/xlink" x="0px" y="0px"
	 viewBox="-389 191 180 180" style="enable-background:new -389 191 180 180;" xml:space="preserve">
<style type="text/css">
	.st0{fill:#A3BB37;}
	.st1{enable-background:new    ;}
	.st2{fill:#344860;}
</style>
<g id="XMLID_3_">
	<path id="XMLID_56_" class="st0" d="M-386.4,285.7c0-3.1,0-6.2,0-9.2c0.5-2.8,0.9-5.6,1.3-8.4c4.8-35.6,33.8-66,69.1-72.4
		c4.1-0.7,8.3-1.3,12.3-2c3.1,0,6.2,0,9.2,0c0.9,0.2,1.7,0.6,2.6,0.7c4.1,0.7,8.3,1,12.4,2c33.3,7.4,59.5,34.7,65.8,68.4
		c0.7,3.9,1.3,7.8,2,11.7c0,3.1,0,6.2,0,9.2c-0.5,2.8-0.9,5.4-1.3,8.2c-5.4,36.7-32.9,65.5-69.7,72.7c-3.9,0.8-7.8,1.3-11.7,1.8
		c-3.1,0-6.2,0-9.2,0c-0.9-0.2-1.7-0.6-2.6-0.7c-4.1-0.7-8.3-1-12.4-2c-33.2-7.4-59.6-34.8-65.8-68.4
		C-385.3,293.5-385.8,289.6-386.4,285.7z M-299.3,201c-44,0.1-80,36-79.8,80.2c0.2,44.1,35.5,79.7,80,79.7
		c44.6-0.1,79.7-35.7,79.8-79.8C-219.1,237-255.3,201-299.3,201z"/>
</g>
<g class="st1">
	<path class="st2" d="M-350.7,294l5.6-7.4c2.4,2,5.8,3,8.8,3c3.5,0,4.9-1.4,4.9-2.9c0-1.5-1.3-2.9-4.5-2.9c-2.6,0-4.7,0.7-6.4,2.4
		l-7.3-1.7v-21h26.5v9.2h-16v4.9c1.7-1.6,4.3-2.6,7.3-2.6c5.9,0,11.2,4.4,11.2,11.4c0,7.6-5.7,12.6-15.5,12.6
		C-342.4,298.9-347.3,297-350.7,294z"/>
	<path class="st2" d="M-318.9,289c0-3.7,2.6-7,6.6-8.6c-3.7-1.5-6-4-6-8c0-6.8,7.8-9.3,14.9-9.3s14.9,2.5,14.9,9.3
		c0,4-2.4,6.5-6.1,8c4,1.7,6.7,4.9,6.7,8.6c0,7-7.8,9.9-15.5,9.9S-318.9,296.1-318.9,289z M-298.6,287.8c0-1.3-2.6-2.4-4.8-2.7
		c-2.3,0.3-4.8,1.3-4.8,2.7c0,1.5,1.8,2.6,4.8,2.6C-300.5,290.4-298.6,289.4-298.6,287.8z M-299.2,274c0-1.4-1.5-2.3-4.2-2.3
		s-4.2,1-4.2,2.3c0,1.1,2.1,2.1,4.2,2.4C-301.3,276-299.2,275-299.2,274z"/>
	<path class="st2" d="M-286,271.8c0-4.9,3.6-8.8,9.2-8.8c5.7,0,9.4,3.9,9.4,8.8c0,4.8-3.7,8.6-9.4,8.6
		C-282.4,280.6-286,276.7-286,271.8z M-280.2,298.3l22.1-34.7h5.1l-22.2,34.7H-280.2z M-273.7,271.8c0-2.3-1.3-3.3-3-3.3
		c-1.6,0-2.9,1-2.9,3.3c0,2.3,1.3,3.2,2.9,3.2S-273.7,274.1-273.7,271.8z M-265.9,290.2c0-4.9,3.6-8.8,9.2-8.8
		c5.6,0,9.3,3.9,9.3,8.8c0,4.8-3.7,8.6-9.3,8.6C-262.3,298.9-265.9,295.1-265.9,290.2z M-253.6,290.2c0-2.3-1.3-3.3-3-3.3
		c-1.7,0-2.9,1-2.9,3.3c0,2.3,1.3,3.2,2.9,3.2S-253.6,292.5-253.6,290.2z"/>
</g>
</svg>
