<?xml version="1.0" encoding="utf-8"?>
<!-- Generator: Adobe Illustrator 19.0.0, SVG Export Plug-In . SVG Version: 6.00 Build 0)  -->
<svg version="1.1" id="Layer_1" xmlns="http://www.w3.org/2000/svg" xmlns:xlink="http://www.w3.org/1999/xlink" x="0px" y="0px"
	 viewBox="1110 -60 150 150" style="enable-background:new 1110 -60 150 150;" xml:space="preserve">
<style type="text/css">
	.st0{fill:none;stroke:#4DBEC0;stroke-width:3;stroke-miterlimit:10;}
	.st1{fill:#4DBEC0;}
</style>
<path id="XMLID_10360_" class="st0" d="M1183.7-54c1.2,0,2.5,0,3.7,0c3.6,0.7,6.5,2.7,9.3,5c1.3,1,2.5,2.1,3.9,2.8
	c1.9,1,3.9,2.2,5.9,2.5c3.5,0.5,7,0.3,10.6,0.3c6.4,0,11.6,3.9,13.5,10.1c0.8,2.5,1.6,5.1,2.4,7.6c1,3.2,2.8,5.8,5.5,7.8
	c2.3,1.6,4.6,3.3,6.8,5c4.4,3.5,6.3,8.2,5.2,13.7c-0.7,3.4-1.9,6.8-3,10.1c-0.9,3-1,6,0,9.1c0.9,2.7,1.7,5.4,2.6,8.1
	c1.9,6.2,0,12.2-5.1,16.1c-2.1,1.6-4.2,3.1-6.3,4.7c-2.7,2-4.6,4.6-5.6,7.8c-0.8,2.8-1.6,5.5-2.6,8.2c-1.8,5.1-5.4,8.4-10.7,9.2
	c-3.4,0.5-6.9,0.3-10.4,0.3c-3.3,0-6.3,1-9,3c-2.1,1.6-4.3,3.2-6.4,4.8c-5.1,3.7-11.3,3.7-16.4,0c-2.2-1.6-4.4-3.3-6.6-5
	c-2.6-1.9-5.4-2.9-8.6-2.8c-2.7,0-5.5,0-8.2,0c-6,0-11.1-3.7-13.1-9.6c-0.9-2.6-1.7-5.3-2.5-8c-1-3.4-2.9-6-5.7-8
	c-2.2-1.6-4.4-3.2-6.5-4.8c-4.7-3.7-6.7-9.8-4.9-15.6c0.8-2.8,1.7-5.5,2.6-8.2c1-3.1,1-6.1,0-9.2c-0.8-2.6-1.7-5.1-2.5-7.7
	c-2-6.5-0.1-12.5,5.2-16.5c2.1-1.6,4.3-3.2,6.4-4.8c2.6-1.9,4.3-4.4,5.2-7.5c0.8-2.6,1.6-5.2,2.4-7.7c1.2-3.7,3.3-6.8,6.8-8.4
	c1.9-0.9,4.1-1.4,6.2-1.6c2.8-0.3,5.6-0.1,8.5-0.1c3.2,0,6.1-1,8.8-2.9C1174.9-49.2,1178.5-53.1,1183.7-54z"/>
<path id="XMLID_10341_" class="st0" d="M1138.6,15.5c0,26.6,21,48.1,46.9,48.2c25.8,0,46.9-21.6,47-48.1c0-26.5-21-48.1-46.9-48.2
	C1159.7-32.7,1138.6-11.1,1138.6,15.5z"/>
<path id="XMLID_10340_" class="st1" d="M1212.4-5.6c-1-0.7-2-0.2-2.7,0.6c-6.9,6.9-13.9,13.8-20.7,20.7c-3.1,3.2-6,6.7-9.1,10.2
	c-0.3-0.3-0.6-0.6-1-0.8c-5.9-4.9-11.7-9.8-17.5-14.6c-0.9-0.7-2-1.3-3-0.4c-1,1,0,1.9,0.5,2.7c5.4,7.8,11.5,15.1,17.8,22.2
	c0.2,0.3,0.5,0.5,0.7,0.8c2.1,1.9,4.4,1.5,6.6-0.9c10.4-11.4,19.3-23.9,28.1-36.7c0.2-0.3,0.4-0.7,0.6-1.1
	C1213-3.8,1213.4-4.9,1212.4-5.6z"/>
</svg>
