<?xml version="1.0" encoding="utf-8"?>
<!-- Generator: Adobe Illustrator 19.1.0, SVG Export Plug-In . SVG Version: 6.00 Build 0)  -->
<svg version="1.1" id="Layer_1" xmlns="http://www.w3.org/2000/svg" xmlns:xlink="http://www.w3.org/1999/xlink" x="0px" y="0px"
	 viewBox="-417 218 125 125" style="enable-background:new -417 218 125 125;" xml:space="preserve">
<style type="text/css">
	.st0{fill:none;stroke:#7B7B7B;stroke-width:3;stroke-miterlimit:10;}
	.st1{fill:#7B7B7B;}
</style>
<path id="XMLID_10360_" class="st0" d="M-356.5,221.7c1,0,2.1,0,3.1,0c3,0.6,5.5,2.3,7.9,4.2c1.1,0.8,2.1,1.8,3.3,2.4
	c1.6,0.8,3.3,1.9,5,2.1c3,0.4,5.9,0.3,9,0.3c5.4,0,9.8,3.3,11.4,8.5c0.7,2.1,1.4,4.3,2,6.4c0.8,2.7,2.4,4.9,4.7,6.6
	c1.9,1.4,3.9,2.8,5.8,4.2c3.7,3,5.3,6.9,4.4,11.6c-0.6,2.9-1.6,5.8-2.5,8.5c-0.8,2.5-0.8,5.1,0,7.7c0.8,2.3,1.4,4.6,2.2,6.9
	c1.6,5.2,0,10.3-4.3,13.6c-1.8,1.4-3.6,2.6-5.3,4c-2.3,1.7-3.9,3.9-4.7,6.6c-0.7,2.4-1.4,4.7-2.2,6.9c-1.5,4.3-4.6,7.1-9.1,7.8
	c-2.9,0.4-5.8,0.3-8.8,0.3c-2.8,0-5.3,0.8-7.6,2.5c-1.8,1.4-3.6,2.7-5.4,4.1c-4.3,3.1-9.6,3.1-13.9,0c-1.9-1.4-3.7-2.8-5.6-4.2
	c-2.2-1.6-4.6-2.5-7.3-2.4c-2.3,0-4.7,0-6.9,0c-5.1,0-9.4-3.1-11.1-8.1c-0.8-2.2-1.4-4.5-2.1-6.8c-0.8-2.9-2.5-5.1-4.8-6.8
	c-1.9-1.4-3.7-2.7-5.5-4.1c-4-3.1-5.7-8.3-4.1-13.2c0.7-2.4,1.4-4.7,2.2-6.9c0.8-2.6,0.8-5.2,0-7.8c-0.7-2.2-1.4-4.3-2.1-6.5
	c-1.7-5.5-0.1-10.6,4.4-14c1.8-1.4,3.6-2.7,5.4-4.1c2.2-1.6,3.6-3.7,4.4-6.3c0.7-2.2,1.4-4.4,2-6.5c1-3.1,2.8-5.8,5.8-7.1
	c1.6-0.8,3.5-1.2,5.2-1.4c2.4-0.3,4.7-0.1,7.2-0.1c2.7,0,5.2-0.8,7.4-2.5C-363.9,225.8-360.9,222.5-356.5,221.7z"/>
<path id="XMLID_10341_" class="st0" d="M-394.7,280.5c0,22.5,17.8,40.7,39.7,40.8c21.8,0,39.7-18.3,39.8-40.7
	c0-22.4-17.8-40.7-39.7-40.8C-376.8,239.7-394.7,258-394.7,280.5z"/>
<path id="XMLID_10340_" class="st1" d="M-332.2,262.7c-0.8-0.6-1.7-0.2-2.3,0.5c-5.8,5.8-11.8,11.7-17.5,17.5
	c-2.6,2.7-5.1,5.7-7.7,8.6c-0.3-0.3-0.5-0.5-0.8-0.7c-5-4.1-9.9-8.3-14.8-12.4c-0.8-0.6-1.7-1.1-2.5-0.3c-0.8,0.8,0,1.6,0.4,2.3
	c4.6,6.6,9.7,12.8,15.1,18.8c0.2,0.3,0.4,0.4,0.6,0.7c1.8,1.6,3.7,1.3,5.6-0.8c8.8-9.6,16.3-20.2,23.8-31c0.2-0.3,0.3-0.6,0.5-0.9
	C-331.7,264.2-331.4,263.3-332.2,262.7z"/>
</svg>
