<?xml version="1.0" encoding="utf-8"?>
<!-- Generator: Adobe Illustrator 19.1.0, SVG Export Plug-In . SVG Version: 6.00 Build 0)  -->
<svg version="1.1" id="Layer_1" xmlns="http://www.w3.org/2000/svg" xmlns:xlink="http://www.w3.org/1999/xlink" x="0px" y="0px"
	 viewBox="-354 156 250 250" style="enable-background:new -354 156 250 250;" xml:space="preserve">
<style type="text/css">
	.st0{fill:#F2F2F2;}
	.st1{fill:#C0BFBF;}
	.st2{fill:#E5E5E5;}
</style>
<g id="XMLID_10335_">
	<polygon id="XMLID_14868_" class="st0" points="-189.5,249.9 -167.7,313.1 -190.3,403 -334.6,371.5 -338.3,220.6 	"/>
	<polygon id="XMLID_12513_" class="st1" points="-119.6,189 -120.4,335.3 -190.3,403 -189.5,249.9 	"/>
	<polygon id="XMLID_12508_" class="st2" points="-258.4,158.9 -119.6,189 -189.5,249.9 -338.3,220.6 	"/>
</g>
<g id="XMLID_16096_">
	<g id="XMLID_16121_">
		<path id="XMLID_16094_" d="M-317.3,319c0.3,1,1,1.8,1.9,2.4c1.3,1,2.8,1.8,4.3,2.3c2.6,1,5.2,1.3,7.7,1.1c0.5-0.1,1-0.2,1.5-0.4
			c0.7-0.3,1.2-0.6,1.4-1.4c2.2,0.8,4.3,1.5,6.5,2.4c1.6,0.7,2.9,1.9,4.1,3.4c-4-1.2-7.1-0.5-9.1,2.5s-1.7,6.5,0.4,10.4
			c-0.8-0.1-1.6-0.2-2.4-0.4c-4-0.7-7.9-1.5-11.9-2.6c-4.2-1.1-8.5-2.6-12.6-4.8c-1.3-0.7-2.5-1.5-3.6-2.6c-1.6-1.6-2.3-3.4-1.9-5.2
			c0.5-2.3,1.4-4.2,2.8-5.8c1.5-1.7,3.5-2.3,6-2c1.4,0.2,2.8,0.4,4.3,0.6C-317.8,319-317.5,319-317.3,319z"/>
		<path id="XMLID_16127_" d="M-298.1,305.7c0,0.2,0,0.4,0,0.5c0,0.4,0,0.8,0.4,1.3c0.3,0.4,0.4,1,0.5,1.5c0.2,1.4,0,2.7-0.6,3.7
			c-0.2,0.4-0.7,0.8-1,1.1c-0.1,0.2-0.2,0.3-0.3,0.5c-1,2.5-2.5,4.6-4.7,5.9c-1.6,1-3.5,1.5-5.8,0.8c-1.7-0.5-3.2-1.6-4.6-3
			c-2.4-2.5-4-5.4-5.2-8.3c-0.1-0.3-0.3-0.6-0.6-0.9c-0.2-0.1-0.4-0.4-0.6-0.7c-1-1.9-1.4-3.7-1-5.5c0.1-0.4,0.4-0.6,0.6-0.9
			c0.1-0.1,0.1-0.3,0.1-0.5c0.2-1.5,0.3-3.1,0.6-4.6c0.7-3,2.7-4.7,5.6-5.2c3.2-0.5,6.6,0.2,9.9,2.2c3.6,2.2,5.6,5.3,6.3,9.2
			C-298.2,303.9-298.2,304.7-298.1,305.7L-298.1,305.7z M-317.9,308.5C-317.9,308.6-317.9,308.6-317.9,308.5
			c0.1,0.2,0.2,0.4,0.2,0.5c1,2.7,2.3,5.2,4.4,7.3c2.6,2.8,5.6,3.5,8.2,2c1.5-0.9,2.6-2.1,3.4-3.7c0.4-0.7,0.7-1.4,1-2.1
			c0,0,0,0.1,0.1,0.1c0.2-0.1,0.6-0.1,0.7-0.3c0.7-1,1.1-2.2,0.7-3.6c-0.2-0.7-0.3-0.7-1-0.9c0-0.2-0.1-0.3-0.2-0.6
			c-0.4-1.3-0.8-2.5-1.6-3.7c-0.2-0.3-0.4-0.4-0.6-0.7l-0.1,0.1c0.1,0.3,0.2,0.7,0.4,1.2c-0.7-0.5-1.2-0.9-1.8-1.3
			c-0.9-0.6-1.9-1-2.8-1c-1.8,0.1-3.6-0.3-5.4-1.1c-0.6-0.3-1.2-0.7-1.8-0.8c-1.7-0.4-3.1,0-3.8,1.4c-0.3,0.7-0.5,1.4-0.8,2
			c-0.5-0.2-0.8-0.2-0.8,0.3c-0.1,1.2-0.2,2.3,0.5,3.5C-318.8,308.1-318.5,308.5-317.9,308.5z"/>
		<path id="XMLID_16123_" d="M-291.1,329.6c4.6,1,8.4,5.7,8.5,10.3c0.1,4.6-3.5,7.6-8.1,6.4s-8.3-5.7-8.4-10.3
			C-299.3,331.5-295.7,328.6-291.1,329.6z M-292.7,341.3c2-1.6,4-3.1,5.9-4.7c-0.4-0.5-0.8-1.1-1.3-1.6c-1.5,1.3-3.1,2.5-4.8,3.8
			c-0.4-0.6-0.8-1.1-1.2-1.7c-0.5,0.4-0.9,0.8-1.3,1.1C-294.4,339.2-293.5,340.3-292.7,341.3z"/>
	</g>
	<g id="XMLID_16109_">
		<path id="XMLID_16087_" d="M-237.5,337.7c0.3,1,1,1.8,1.9,2.4c1.3,1,2.8,1.8,4.3,2.3c2.6,1,5.2,1.3,7.7,1.1c0.5-0.1,1-0.2,1.5-0.4
			c0.7-0.3,1.2-0.6,1.4-1.4c2.2,0.8,4.3,1.5,6.5,2.4c1.6,0.7,2.9,1.9,4.1,3.4c-4-1.2-7.1-0.5-9.1,2.5c-2,2.9-1.7,6.5,0.4,10.4
			c-0.8-0.1-1.6-0.2-2.4-0.4c-4-0.7-7.9-1.5-11.9-2.6c-4.2-1.1-8.5-2.6-12.6-4.8c-1.3-0.7-2.5-1.5-3.6-2.6c-1.6-1.6-2.3-3.4-1.9-5.2
			c0.5-2.3,1.4-4.2,2.8-5.8c1.5-1.7,3.5-2.3,6-2c1.4,0.2,2.8,0.4,4.3,0.6C-238,337.7-237.8,337.7-237.5,337.7z"/>
		<path id="XMLID_16115_" d="M-218.3,324.3c0,0.2,0,0.4,0,0.5c0,0.4,0,0.8,0.4,1.3c0.3,0.4,0.4,1,0.5,1.5c0.2,1.4,0,2.7-0.6,3.7
			c-0.2,0.4-0.7,0.8-1,1.1c-0.1,0.2-0.2,0.3-0.3,0.5c-1,2.5-2.5,4.6-4.7,5.9c-1.6,1-3.5,1.5-5.8,0.8c-1.7-0.5-3.2-1.6-4.6-3
			c-2.4-2.5-4-5.4-5.2-8.3c-0.1-0.3-0.3-0.6-0.6-0.9c-0.2-0.1-0.4-0.4-0.6-0.7c-1-1.9-1.4-3.7-1-5.5c0.1-0.4,0.4-0.6,0.6-0.9
			c0.1-0.1,0.1-0.3,0.1-0.5c0.2-1.5,0.3-3.1,0.6-4.6c0.7-3,2.7-4.7,5.6-5.2c3.2-0.5,6.6,0.2,9.9,2.2c3.6,2.2,5.6,5.3,6.3,9.2
			C-218.4,322.7-218.4,323.5-218.3,324.3L-218.3,324.3z M-238.2,327.2C-238.1,327.2-238.1,327.2-238.2,327.2
			c0.1,0.2,0.2,0.4,0.2,0.5c1,2.7,2.3,5.2,4.4,7.3c2.6,2.8,5.6,3.5,8.2,2c1.5-0.9,2.6-2.1,3.4-3.7c0.4-0.7,0.7-1.4,1-2.1
			c0,0,0,0.1,0.1,0.1c0.2-0.1,0.6-0.1,0.7-0.3c0.7-1,1.1-2.2,0.7-3.6c-0.2-0.7-0.3-0.7-1-0.9c0-0.2-0.1-0.3-0.2-0.6
			c-0.4-1.3-0.8-2.5-1.6-3.7c-0.2-0.3-0.4-0.4-0.6-0.7l-0.1,0.1c0.1,0.3,0.2,0.7,0.4,1.2c-0.7-0.5-1.2-0.9-1.8-1.3
			c-0.9-0.6-1.9-1-2.8-1c-1.8,0.1-3.6-0.3-5.4-1.1c-0.6-0.3-1.2-0.7-1.8-0.8c-1.7-0.4-3.1,0-3.8,1.4c-0.3,0.7-0.5,1.4-0.8,2
			c-0.5-0.2-0.8-0.2-0.8,0.3c-0.1,1.2-0.2,2.3,0.5,3.5C-239,326.8-238.8,327.2-238.2,327.2z"/>
		<path id="XMLID_16111_" d="M-211.4,348.3c4.6,1,8.4,5.7,8.5,10.3c0.1,4.6-3.5,7.6-8.1,6.4s-8.3-5.7-8.4-10.3
			S-215.9,347.3-211.4,348.3z M-212.9,360c2-1.6,4-3.1,5.9-4.7c-0.4-0.5-0.8-1.1-1.3-1.6c-1.5,1.3-3.1,2.5-4.8,3.8
			c-0.4-0.6-0.8-1.1-1.2-1.7c-0.5,0.4-0.9,0.8-1.3,1.1C-214.6,357.9-213.7,358.9-212.9,360z"/>
	</g>
	<g id="XMLID_16097_">
		<path id="XMLID_16079_" d="M-278.6,280.8c0.3,1,1,1.8,1.9,2.4c1.3,1,2.8,1.8,4.3,2.3c2.6,1,5.2,1.3,7.7,1.1c0.5-0.1,1-0.2,1.5-0.4
			c0.7-0.3,1.2-0.6,1.4-1.4c2.2,0.8,4.3,1.5,6.5,2.4c1.6,0.7,2.9,1.9,4.1,3.4c-4-1.2-7.1-0.5-9.1,2.5s-1.7,6.5,0.4,10.4
			c-0.8-0.1-1.6-0.2-2.4-0.4c-4-0.7-7.9-1.5-11.9-2.6c-4.2-1.1-8.5-2.6-12.6-4.8c-1.3-0.7-2.5-1.5-3.6-2.6c-1.6-1.6-2.3-3.4-1.9-5.2
			c0.5-2.3,1.4-4.2,2.8-5.8c1.5-1.7,3.5-2.3,6-2c1.4,0.2,2.8,0.4,4.3,0.6C-279.1,280.8-278.8,280.8-278.6,280.8z"/>
		<path id="XMLID_16103_" d="M-259.4,267.5c0,0.2,0,0.4,0,0.5c0,0.4,0,0.8,0.4,1.3c0.3,0.4,0.4,1,0.5,1.5c0.2,1.4,0,2.7-0.6,3.7
			c-0.2,0.4-0.7,0.8-1,1.1c-0.1,0.2-0.2,0.3-0.3,0.5c-1,2.5-2.5,4.6-4.7,5.9c-1.6,1-3.5,1.5-5.8,0.8c-1.7-0.5-3.2-1.6-4.6-3
			c-2.4-2.5-4-5.4-5.2-8.3c-0.1-0.3-0.3-0.6-0.6-0.9c-0.2-0.1-0.4-0.4-0.6-0.7c-1-1.9-1.4-3.7-1-5.5c0.1-0.4,0.4-0.6,0.6-0.9
			c0.1-0.1,0.1-0.3,0.1-0.5c0.2-1.5,0.3-3.1,0.6-4.6c0.7-3,2.7-4.7,5.6-5.2c3.2-0.5,6.6,0.2,9.9,2.2c3.6,2.2,5.6,5.3,6.3,9.2
			C-259.5,265.7-259.4,266.6-259.4,267.5C-259.3,267.5-259.3,267.5-259.4,267.5z M-279.2,270.3
			C-279.2,270.4-279.2,270.4-279.2,270.3c0.1,0.2,0.2,0.4,0.2,0.5c1,2.7,2.3,5.2,4.4,7.3c2.6,2.8,5.6,3.5,8.2,2
			c1.5-0.9,2.6-2.1,3.4-3.7c0.4-0.7,0.7-1.4,1-2.1c0,0,0,0.1,0.1,0.1c0.2-0.1,0.6-0.1,0.7-0.3c0.7-1,1.1-2.2,0.7-3.6
			c-0.2-0.7-0.3-0.7-1-0.9c0-0.2-0.1-0.3-0.2-0.6c-0.4-1.3-0.8-2.5-1.6-3.7c-0.2-0.3-0.4-0.4-0.6-0.7l-0.1,0.1
			c0.1,0.3,0.2,0.7,0.4,1.2c-0.7-0.5-1.2-0.9-1.8-1.3c-0.9-0.6-1.9-1-2.8-1c-1.8,0.1-3.6-0.3-5.4-1.1c-0.6-0.3-1.2-0.7-1.8-0.8
			c-1.7-0.4-3.1,0-3.8,1.4c-0.3,0.7-0.5,1.4-0.8,2c-0.5-0.2-0.8-0.2-0.8,0.3c-0.1,1.2-0.2,2.3,0.5,3.5
			C-280.1,269.9-279.8,270.3-279.2,270.3z"/>
		<path id="XMLID_16099_" d="M-252.4,291.5c4.6,1,8.4,5.7,8.5,10.3c0.1,4.6-3.5,7.6-8.1,6.4c-4.6-1.1-8.3-5.7-8.4-10.3
			C-260.6,293.3-257,290.3-252.4,291.5z M-253.9,303.1c2-1.6,4-3.1,5.9-4.7c-0.4-0.5-0.8-1.1-1.3-1.6c-1.5,1.3-3.1,2.5-4.8,3.8
			c-0.4-0.6-0.8-1.1-1.2-1.7c-0.5,0.4-0.9,0.8-1.3,1.1C-255.7,301-254.8,302.1-253.9,303.1z"/>
	</g>
</g>
</svg>
