<?xml version="1.0" encoding="utf-8"?>
<!-- Generator: Adobe Illustrator 19.0.0, SVG Export Plug-In . SVG Version: 6.00 Build 0)  -->
<svg version="1.1" id="Layer_1" xmlns="http://www.w3.org/2000/svg" xmlns:xlink="http://www.w3.org/1999/xlink" x="0px" y="0px"
	 viewBox="1110 -60 150 150" style="enable-background:new 1110 -60 150 150;" xml:space="preserve">
<g id="XMLID_15851_">
	<g id="XMLID_15762_">
		<path id="XMLID_15839_" d="M1194.5,75.4c22.8-10.5,39.6-27.2,50.9-49.5c3.6-7.1,5.8-14.7,5.3-22.9c-0.4-7.7-5.1-13.7-12.3-15.6
			c-5.3-1.4-10.6-0.8-15.8,0.6c-11.3,3-21,8.9-30.1,16.2c-2.3,1.8-4.4,3.8-6.5,5.6c0,0,0,0,0,0c0,0-0.1,0.1-0.1,0.1
			c-0.1,0.1-0.2,0.1-0.2,0.2l0,0c-1.1,1.2-4.8,4.8-4.9,5c-7.2,7.6-13.2,15.9-17.7,25.3c-3.2,6.9-5.6,14-5.4,21.8
			c0.3,10.4,6.8,17,17.2,17.4C1181.8,79.9,1188.3,78.2,1194.5,75.4z M1167.3,59.2c-0.7-4-0.2-8,0.9-11.8c2.3-8.4,6.7-15.7,12-22.5
			c1.6-2.1,7.4-8.2,9.6-10.6l0,0c0.3-0.3,0.7-0.6,1.1-0.9c4.9-3.6,9.6-7.6,14.7-10.7c7-4.3,14.6-7.2,23.2-6.6
			c6.4,0.4,11.3,4.8,12.4,11.2c1,5.9-0.3,11.5-2.6,16.8c-8.2,19-21.9,32.8-40.3,42.1c-5.5,2.8-11.3,4.4-17.6,4.2
			C1173.8,70.2,1168.6,66,1167.3,59.2z"/>
		<path id="XMLID_15834_" d="M1198.9,57.8c13.2-6,23-15.6,29.5-28.4c2.1-4.1,3.3-8.4,3.1-13.1c-0.3-4.4-3-7.9-7.1-8.9
			c-3.1-0.8-6.1-0.5-9.1,0.3c-6.6,1.7-12.2,5.1-17.4,9.3c-1.4,1.1-2.7,2.3-3.9,3.3l0,0c-0.1,0.1-2.8,2.8-2.9,2.9
			c-4.2,4.3-7.7,9.1-10.2,14.5c-1.9,3.9-3.2,8-3.1,12.5c0.2,6,4,9.8,10,10C1191.6,60.3,1195.3,59.4,1198.9,57.8z M1183.1,48.5
			c-0.4-2.3-0.1-4.6,0.5-6.8c1.3-4.8,3.9-9,7-12.9c1-1.2,4.3-4.8,5.6-6.1l0,0c0.2-0.2,0.4-0.3,0.6-0.5c2.8-2.1,5.5-4.3,8.6-6.1
			c4.1-2.5,8.5-4.1,13.5-3.8c3.7,0.3,6.5,2.8,7.2,6.4c0.6,3.4-0.2,6.6-1.5,9.7c-4.8,10.9-12.7,18.8-23.4,24.2
			c-3.2,1.6-6.6,2.5-10.2,2.4C1186.9,54.8,1183.8,52.4,1183.1,48.5z"/>
		<path id="XMLID_15771_" d="M1256.8,7.7c-0.7-5.2-3.4-9.1-7.4-12.3c2.5,4.6,3.2,9.5,2.6,14.7c-0.8,7.2-3.4,13.9-6.7,20.2
			c-5.6,10.6-13,19.8-21.8,27.9c-8.4,7.8-17.6,14.5-28.4,18.8c-9.4,3.8-18.9,6.3-28.9,1c4,5.2,9.1,7.8,15.4,7.9
			c7.8,0.2,15-2.2,21.9-5.5c12.1-5.8,22.4-14.1,31.4-23.9c7-7.6,12.9-15.8,17.1-25.2C1255.5,23.9,1257.9,16.1,1256.8,7.7z"/>
		<path id="XMLID_15769_" d="M1199.7,42.2c3.3-0.5,5.9-2.2,8.1-4.4h0c0.1-0.1,0.1-0.1,0.2-0.2l0,0c0.1-0.1,0.1-0.1,0.2-0.2
			c0.4-0.4,0.8-0.8,0.9-1c0.1-0.1,0.2-0.2,0.2-0.3c2.2-2.4,4-5.1,4-8.6c0-2.4-1.4-3.9-3.8-3.6c-0.3,0-0.5,0.1-0.8,0.1l0,0
			c0,0-12.2,1.9-13.5,13.3C1194.5,40.8,1196.3,42.7,1199.7,42.2z"/>
	</g>
	<g id="XMLID_11122_">
		<path id="XMLID_15759_" d="M1123.2-41.7c-2.4,0.2-4.7,0.5-7.4,0.8c0.6,0.7,1,1.1,1.4,1.6c2.7,2.7,5.6,5.4,8.2,8.2
			c1.8,2.1,3.7,3.2,6.6,2.3c1.4-0.4,2.9-0.3,4.8-0.5c-4.2-4.2-8.1-8.1-12-12C1124.4-41.6,1123.7-41.8,1123.2-41.7z"/>
		<path id="XMLID_15754_" d="M1140-32.1c0.2-1.9,0.1-3.4,0.5-4.8c0.8-2.9-0.3-4.7-2.4-6.6c-2.9-2.6-5.5-5.4-8.3-8.1
			c-0.4-0.4-0.9-0.8-1.6-1.4c-0.3,2.7-0.6,5-0.8,7.4c0,0.5,0.1,1.2,0.5,1.5C1131.9-40.2,1135.8-36.3,1140-32.1z"/>
		<path id="XMLID_15744_" d="M1201.8,29.2c0-0.1,0-0.1-0.1-0.2c0,0,0-0.1-0.1-0.1c0,0,0-0.1,0-0.1c-1.4-3.6-2.6-6.9-4-10.4
			c-1,1.8-1.8,3.3-2.7,5.1c-22.9-23-45.7-45.7-68.6-68.6c-0.7,0.7-1.4,1.4-2.4,2.3c23,23,45.7,45.7,68.5,68.5
			c-1.5,0.8-3,1.6-4.8,2.6c3.7,1.4,7.1,2.7,10.5,4.1l5.5,1.7L1201.8,29.2z"/>
	</g>
</g>
</svg>
