<?xml version="1.0" encoding="utf-8"?>
<!-- Generator: Adobe Illustrator 19.0.0, SVG Export Plug-In . SVG Version: 6.00 Build 0)  -->
<svg version="1.1" id="Layer_1" xmlns="http://www.w3.org/2000/svg" xmlns:xlink="http://www.w3.org/1999/xlink" x="0px" y="0px"
	 viewBox="410 -60 150 150" style="enable-background:new 410 -60 150 150;" xml:space="preserve">
<style type="text/css">
	.st0{fill:none;stroke:#F5825E;stroke-miterlimit:10;}
</style>
<g id="XMLID_1_">
	<g id="XMLID_39_">
		<path id="XMLID_16_" class="st0" d="M493.1,48.5c8.7,0,9.1,0,17.8,0v-6.1h-51.4c0,0,0,5.6-0.1,6c9.9,0,13.4,0,23.3,0h1.5V58h-16.4
			v3.5h40.1v-3.5h-16.4v-9.4L493.1,48.5L493.1,48.5z"/>
		<path id="XMLID_15_" class="st0" d="M544.6-18.1c0-1.9-0.2-2.1-2.1-2.1c-36.5,0-73,0-109.5,0c-1.9,0-2.1,0.3-2.1,2.1
			c0,10.1,0,7.9,0,18.1h3.6v-16.5H541v33h3.7C544.6,1.7,544.6-3.4,544.6-18.1z"/>
	</g>
	<g id="XMLID_28_">
		<path id="XMLID_29_" class="st0" d="M510.9,41.2c0-5.7,0-11.3,0-17c0-1.5,0.7-2.6,1.9-3c0.5-0.2,1-0.2,1.4-0.2
			c5.1,0,10.1,0,15.2,0c2.2,0,3.4,1.2,3.4,3.4c0,11.3,0,22.5,0,33.8c0,2.2-1.1,3.4-3.3,3.4c-5.1,0-10.2,0-15.3,0
			c-2.2,0-3.3-1.2-3.3-3.4C510.9,52.5,510.9,46.8,510.9,41.2z M512.8,38.9c0,4.8,0,9.7,0,14.5c0,1.4,0.3,1.7,1.7,1.7c5,0,10,0,15,0
			c1.2,0,1.5-0.3,1.5-1.5c0-9.8,0-19.5,0-29.3c0-1.2-0.4-1.5-1.5-1.5c-5,0-10,0-14.9,0c-1.5,0-1.8,0.2-1.8,1.7
			C512.8,29.3,512.8,34.1,512.8,38.9z M521.9,60.2c1.1,0,1.9-0.9,1.9-1.9c0-1.1-0.9-1.9-1.9-1.9c-1.1,0-1.9,0.9-1.9,1.9
			C520,59.4,520.9,60.2,521.9,60.2z"/>
	</g>
	<path id="XMLID_20_" class="st0" d="M414.3,30.6c0-9,0-18.1,0-27.2c0-1.1,0.3-2,1.2-2.7c0.6-0.5,1.3-0.7,2-0.7
		c10.4,0,28.4,0,38.7,0c1.8,0,3,1.3,3.1,3.1c0,0.1,0,0.3,0,0.4c0,18.1,0,36.2,0,54.3c0,1-0.2,1.9-1,2.6c-0.6,0.6-1.4,0.9-2.3,0.9
		c-10.3,0-28.2,0-38.5,0c-2,0-3.2-1.3-3.2-3.3C414.3,48.8,414.3,39.7,414.3,30.6z M456.1,53.3c0-16.7,0-33.4,0-50.1
		c-10.4,0-28.4,0-38.7,0c0,16.7,0,33.4,0,50.1C427.7,53.3,445.7,53.3,456.1,53.3z M436.8,60c1.4,0,2.5-1.2,2.5-2.5s-1.2-2.5-2.6-2.5
		c-1.4,0-2.5,1.2-2.5,2.6C434.3,58.8,435.4,60,436.8,60z"/>
	<g id="XMLID_10_">
		<path id="XMLID_11_" class="st0" d="M535,38.9c0-5.7,0-11.3,0-16.9c0-3.2,1.3-4.7,4.5-5.2c1.1-0.2,2.2-0.3,3.3-0.3
			c3.3,0,6.6,0,9.9,0.2c1,0,1.9,0.3,2.8,0.7c1.8,0.8,2.5,2.3,2.5,4.1c0,7.7,0,15.5,0,23.2c0,3.7-0.1,7.4,0,11.1
			c0.1,3.6-2,5.2-4.7,5.8c-0.8,0.2-1.5,0.3-2.3,0.3c-3.2,0-6.3,0-9.4,0c-1.8,0-3.6-0.5-5-1.8c-1.1-1-1.5-2.3-1.5-3.7
			C535,50.5,535,44.7,535,38.9z M556.5,56.4c0-11.9,0-23.8,0-35.7c-6.7,0-13.4,0-20.1,0c0,11.9,0,23.8,0,35.7
			C543.2,56.4,549.8,56.4,556.5,56.4z M546.5,58.8c-0.6,0-1.3,0-1.9,0c-0.3,0-0.7,0.2-0.7,0.4c-0.1,0.5,0.2,0.9,0.7,0.9
			c1.3,0.1,2.5,0.1,3.8,0c0.5,0,0.7-0.5,0.6-0.9c0-0.2-0.5-0.4-0.7-0.4C547.7,58.7,547.1,58.8,546.5,58.8z"/>
	</g>
</g>
</svg>
