<?xml version="1.0" encoding="utf-8"?>
<!-- Generator: Adobe Illustrator 19.1.0, SVG Export Plug-In . SVG Version: 6.00 Build 0)  -->
<svg version="1.1" id="Layer_1" xmlns="http://www.w3.org/2000/svg" xmlns:xlink="http://www.w3.org/1999/xlink" x="0px" y="0px"
	 viewBox="-417 218 125 125" style="enable-background:new -417 218 125 125;" xml:space="preserve">
<style type="text/css">
	.st0{fill:#7B7B7B;}
	.st1{fill:none;stroke:#7B7B7B;stroke-miterlimit:10;}
</style>
<g id="XMLID_10486_">
	<path id="XMLID_10962_" class="st0" d="M-332,275.9c-0.4-0.4-0.8-0.5-1.1-0.8c-1.2-1.2-2.5-2.5-3.7-3.7c-1.1-1.1-1.1-1.4,0-2.5
		c4.9-4.4,9.7-8.9,14.5-13.3c7-6.4,13.9-12.7,20.8-19.1c1.1-1.1,1.4-1.1,2.6,0.1c0.2,0.2,0.3,0.3,0.4,0.4c1.1,1.1,1.1,1.4,0.1,2.6
		c-5,5.6-10.2,11-15.2,16.6c-5.7,6.3-11.4,12.4-17.1,18.7C-331.1,275.2-331.5,275.5-332,275.9z"/>
	<path id="XMLID_10959_" class="st0" d="M-339.5,272.7c1.4,1.4,2.8,2.8,4.1,4.2c0.2,0.3,0.3,0.9,0.1,1.1c-2.8,5.3-6.9,9.5-11.8,13.1
		c-0.5-1-1.3-1.1-2.4-0.8c-1,0.4-1.2,1.2-1.2,2.1c-0.2,3.2-1.7,5.3-4.8,6.4c-3,1.1-5.9,2.5-9,3.9c0.2-0.4,0.2-0.8,0.4-1.1
		c1.1-2.7,2.4-5.5,3.4-8.3c1.1-2.9,3.1-4.4,6.2-4.7c0.6-0.1,1.4-0.3,1.9-0.7c0.9-0.7,0.7-2-0.4-3
		C-349.6,279.9-345.2,275.7-339.5,272.7z M-354,294c0-1.1-1-1.9-2-1.9c-1.1,0-1.9,0.9-1.9,2s1,1.9,2,1.9
		C-354.8,296-353.9,295-354,294z"/>
</g>
<g id="XMLID_10513_">
	<path id="XMLID_10518_" class="st1" d="M-311.7,285.3c-6.9,0-13.8,0-20.7,0c-0.5,0-1,0-1.4,0.1h-65v23.3h88.4v-23.4H-311.7z
		 M-325.4,303.1h-32v0.1h-24.7v-12.4h52.3h0.1h5.4v5.5C-324.2,296.3-323.9,303.1-325.4,303.1z"/>
	<path id="XMLID_10517_" class="st1" d="M-414,319.9c0.5,0,0.9,0,1.2,0c14.5,0,29,0,43.4,0c0.6,0,1.1,0.1,1.6,0.6
		c0.4,0.4,1.2,0.7,1.9,0.7c7.6,0.1,15.2,0,22.8,0c0.6,0,1.4-0.3,1.8-0.7c0.5-0.6,1.1-0.7,1.8-0.7c14.4,0,28.8,0,43.2,0
		c0.4,0,0.8,0,1.1,0c0.8,3.1-1.1,5.5-4.3,5.5c-14.5,0-29,0-43.4,0c-22.1,0-44.2,0-66.3,0c-2.3,0-4-1.1-4.5-3
		C-414,321.6-414,320.8-414,319.9z"/>
	<path id="XMLID_10514_" class="st1" d="M-302.2,250.8c0,0-0.6,0-0.9,0c-27.5,0-72.1,0-99.6,0c-0.4,0-1,0-1.4,0
		c-2.3,0.3-3,1.1-3,3.4c0,20.6,0,41,0,61.6c0,0.4,0,0.8,0,1.2c35,0,70,0,104.9,0C-302.2,295.1-302.2,250.8-302.2,250.8z
		 M-307.6,309.3c0,1.9-0.4,2.2-2.2,2.2c-29.8,0-59.8,0-89.6,0c-1.8,0-2.2-0.4-2.2-2.2c0-16.9,0-33.8,0-50.7c0-2,0.4-2.4,2.4-2.4
		c23.3,0,63.6-0.1,86.9,0.1c0.1,0,0.2,0,0.3,0h4.4v2c0,0.1,0,0.1,0,0.2C-307.5,275.5-307.6,292.4-307.6,309.3z"/>
</g>
</svg>
