<?xml version="1.0" encoding="utf-8"?>
<!-- Generator: Adobe Illustrator 19.0.0, SVG Export Plug-In . SVG Version: 6.00 Build 0)  -->
<svg version="1.1" id="Layer_1" xmlns="http://www.w3.org/2000/svg" xmlns:xlink="http://www.w3.org/1999/xlink" x="0px" y="0px"
	 viewBox="-122 508 1674 66" style="enable-background:new -122 508 1674 66;" xml:space="preserve">
<style type="text/css">
	.st0{fill:#F9835E;}
	.st1{fill:#46D9C6;}
	.st2{fill:#A4BC37;}
	.st3{fill:#EE6237;}
	.st4{fill:#C2D568;}
	.st5{fill:#96DABE;}
</style>
<rect x="-81" y="537" class="st0" width="1953" height="11"/>
<rect x="-75" y="537" class="st1" width="1953" height="11"/>
<rect x="-52" y="537" class="st0" width="1953" height="11"/>
<rect x="-10" y="537" class="st1" width="1953" height="11"/>
<rect x="32" y="537" class="st2" width="1953" height="11"/>
<rect x="46" y="537" class="st3" width="1953" height="11"/>
<rect x="60" y="537" class="st1" width="1953" height="11"/>
<rect x="81" y="537" class="st4" width="1953" height="11"/>
<rect x="115" y="537" class="st3" width="1953" height="11"/>
<rect x="146" y="537" class="st1" width="1953" height="11"/>
<rect x="167" y="537" class="st2" width="1953" height="11"/>
<rect x="195" y="537" class="st3" width="1953" height="11"/>
<rect x="239" y="537" class="st5" width="1953" height="11"/>
<rect x="281" y="537" class="st2" width="1953" height="11"/>
<rect x="348" y="537" class="st3" width="1953" height="11"/>
<rect x="388" y="537" class="st0" width="1953" height="11"/>
<rect x="454" y="537" class="st1" width="1953" height="11"/>
<rect x="515" y="537" class="st4" width="1953" height="11"/>
<rect x="606" y="537" class="st0" width="1953" height="11"/>
<rect x="678" y="537" class="st1" width="1953" height="11"/>
<rect x="720" y="537" class="st2" width="1953" height="11"/>
<rect x="787" y="537" class="st3" width="1953" height="11"/>
<rect x="819" y="537" class="st1" width="1953" height="11"/>
<rect x="889" y="537" class="st4" width="1953" height="11"/>
<rect x="966" y="537" class="st3" width="1953" height="11"/>
<rect x="1032" y="537" class="st1" width="1953" height="11"/>
<rect x="1083" y="537" class="st2" width="1953" height="11"/>
<rect x="1131" y="537" class="st3" width="1953" height="11"/>
<rect x="1256" y="537" class="st5" width="1953" height="11"/>
<rect x="1298" y="537" class="st2" width="1953" height="11"/>
<rect x="1365" y="537" class="st3" width="1953" height="11"/>
<rect x="1448" y="537" class="st1" width="1953" height="11"/>
</svg>
