<?xml version="1.0" encoding="utf-8"?>
<!-- Generator: Adobe Illustrator 19.0.0, SVG Export Plug-In . SVG Version: 6.00 Build 0)  -->
<svg version="1.1" id="Layer_1" xmlns="http://www.w3.org/2000/svg" xmlns:xlink="http://www.w3.org/1999/xlink" x="0px" y="0px"
	 viewBox="0 0 200 42" style="enable-background:new 0 0 200 42;" xml:space="preserve">
<style type="text/css">
	.st0{fill:#FFFFFF;}
</style>
<path id="XMLID_51_" class="st0" d="M112.1,8.5h-18c0.1,0,0.1,0.1,0.2,0.2l6.2,13.2c0.2,0.3,0.6,0.3,0.7,0l2.4-7.1
	c0.1-0.2,0.2-0.3,0.4-0.3h5.9c0.3,0,0.5,0.3,0.4,0.6l-7.9,18c-0.1,0.1-0.2,0.2-0.4,0.2h-2.3c-0.2,0-0.3-0.1-0.4-0.2L87.5,9
	c0,0,0-0.1,0-0.1c0,0,0,0,0,0v24.2c0,0.2,0.2,0.4,0.4,0.4h24.2c0.2,0,0.4-0.2,0.4-0.4V8.9C112.5,8.7,112.3,8.5,112.1,8.5z"/>
<g id="XMLID_45_">
	<g id="XMLID_191_">
		<path id="XMLID_210_" class="st0" d="M30.2,33.7v-7.1c0-0.3-0.3-0.6-0.6-0.6h-7.1c-0.3,0-0.6,0.3-0.6,0.6v7.1
			c0,0.3,0.3,0.6,0.6,0.6h7.1C29.9,34.2,30.2,34,30.2,33.7z"/>
		<path id="XMLID_209_" class="st0" d="M7.3,33.7V29c0-0.3-0.3-0.6-0.6-0.6H2.1c-0.3,0-0.6,0.3-0.6,0.6v4.7c0,0.3,0.3,0.6,0.6,0.6
			h4.7C7.1,34.2,7.3,34,7.3,33.7z"/>
		<path id="XMLID_208_" class="st0" d="M18,31v-7c0-0.3-0.3-0.6-0.6-0.6h-7c-0.3,0-0.6,0.3-0.6,0.6v7c0,0.3,0.3,0.6,0.6,0.6h7
			C17.8,31.6,18,31.3,18,31z"/>
		<path id="XMLID_207_" class="st0" d="M38.3,23.4V16c0-0.3-0.3-0.6-0.6-0.6h-7.4c-0.3,0-0.6,0.3-0.6,0.6v7.4c0,0.3,0.3,0.6,0.6,0.6
			h7.4C38,24,38.3,23.7,38.3,23.4z"/>
		<path id="XMLID_206_" class="st0" d="M27.7,21v-7.7c0-0.3-0.3-0.6-0.6-0.6h-7.7c-0.3,0-0.6,0.3-0.6,0.6V21c0,0.3,0.3,0.6,0.6,0.6
			h7.7C27.4,21.6,27.7,21.3,27.7,21z"/>
		<path id="XMLID_205_" class="st0" d="M38.9,37.4v-5c0-0.3-0.3-0.6-0.6-0.6h-5c-0.3,0-0.6,0.3-0.6,0.6v5c0,0.3,0.3,0.6,0.6,0.6h5
			C38.6,38,38.9,37.7,38.9,37.4z"/>
		<path id="XMLID_204_" class="st0" d="M70.3,4.5H44.6c0.1,0.1,0.2,0.1,0.2,0.3l8.9,18.8c0.2,0.5,0.9,0.4,1.1-0.1l3.4-10.1
			c0.1-0.2,0.3-0.4,0.5-0.4h8.5c0.4,0,0.7,0.4,0.5,0.8L56.5,39.5c-0.1,0.2-0.3,0.3-0.5,0.3h-3.2c-0.2,0-0.4-0.1-0.5-0.3l-17-34.2
			c0-0.1,0-0.1-0.1-0.2c0,0,0,0,0,0v34.5c0,0.3,0.3,0.6,0.6,0.6h34.5c0.3,0,0.6-0.3,0.6-0.6V5.1C70.8,4.8,70.6,4.5,70.3,4.5z"/>
		<path id="XMLID_202_" class="st0" d="M82.8,13v26.7c0,0.2-0.2,0.4-0.4,0.4h-6c-0.2,0-0.4-0.2-0.4-0.4V13c0-0.2,0.2-0.4,0.4-0.4h6
			C82.6,12.6,82.8,12.8,82.8,13z"/>
		<path id="XMLID_200_" class="st0" d="M112.5,13.3L98.4,34.4c-0.2,0.3,0,0.7,0.4,0.7h13.8c0.2,0,0.4,0.2,0.4,0.4v4.2
			c0,0.2-0.2,0.4-0.4,0.4H87.1c-0.4,0-0.6-0.4-0.4-0.7l14.2-21.1c0.2-0.3,0-0.7-0.4-0.7H87.7c-0.2,0-0.4-0.2-0.4-0.4V13
			c0-0.2,0.2-0.4,0.4-0.4h24.4C112.5,12.6,112.7,13,112.5,13.3z"/>
		<path id="XMLID_198_" class="st0" d="M138.2,12.6h6c0.2,0,0.4,0.2,0.4,0.4v15.2c0,4-1.2,7.1-3.6,9.2c-2.4,2.1-5.8,3.1-10.2,3.1
			c-4.4,0-7.8-1.1-10.2-3.2c-2.4-2.1-3.6-5.1-3.6-9.1V13c0-0.2,0.2-0.4,0.4-0.4h6c0.2,0,0.4,0.2,0.4,0.4v15.4c0,1.9,0.6,3.5,1.9,4.6
			c1.3,1.2,2.9,1.7,4.9,1.7c2.1,0,3.8-0.6,5.1-1.8c1.3-1.2,1.9-2.9,1.9-5V13C137.8,12.8,138,12.6,138.2,12.6z"/>
		<path id="XMLID_195_" class="st0" d="M150.6,13c0-0.2,0.2-0.4,0.4-0.4h11.9c2.7,0,4.8,0.8,6.5,2.3c1.7,1.5,2.5,3.4,2.5,5.6
			c0,2.8-1.3,4.9-4,6.4c-0.3,0.2-0.3,0.5-0.1,0.7c1.1,0.8,2.2,2.4,3.3,4.7c1.1,2.5,2.2,4.9,3.3,7.2c0.1,0.3-0.1,0.6-0.4,0.6h-6.6
			c-0.2,0-0.3-0.1-0.4-0.2c-0.5-1-1.2-2.6-2.2-4.9c-1.1-2.6-2.1-4.2-2.9-4.9s-1.6-1.1-2.6-1.1h-1.5c-0.2,0-0.4,0.2-0.4,0.4v10.3
			c0,0.2-0.2,0.4-0.4,0.4h-6c-0.2,0-0.4-0.2-0.4-0.4V13z M157.5,18.1v5.4c0,0.2,0.2,0.4,0.4,0.4h3.2c1.2,0,2.1-0.3,2.8-0.8
			c0.7-0.5,1-1.3,1-2.3c0-2.1-1.3-3.1-3.9-3.1h-3C157.7,17.6,157.5,17.8,157.5,18.1z"/>
		<path id="XMLID_193_" class="st0" d="M181.7,39.7V27.4c0-0.1,0-0.2-0.1-0.3l-10.3-13.9c-0.2-0.3,0-0.7,0.4-0.7h7.2
			c0.1,0,0.3,0.1,0.4,0.2l5.5,7.9c0.2,0.3,0.5,0.3,0.7,0l5.5-7.9c0.1-0.1,0.2-0.2,0.4-0.2h7.2c0.4,0,0.6,0.4,0.4,0.7l-10.3,13.9
			c-0.1,0.1-0.1,0.2-0.1,0.3v12.3c0,0.2-0.2,0.4-0.4,0.4h-6C181.9,40.1,181.7,39.9,181.7,39.7z"/>
		<path id="XMLID_192_" class="st0" d="M82.8,10.6V5.1c0-0.4-0.3-0.7-0.7-0.7h-5.5c-0.4,0-0.7,0.3-0.7,0.7v5.5
			c0,0.4,0.3,0.7,0.7,0.7h5.5C82.5,11.3,82.8,11,82.8,10.6z"/>
	</g>
</g>
</svg>
