<?xml version="1.0" encoding="utf-8"?>
<!-- Generator: Adobe Illustrator 19.0.0, SVG Export Plug-In . SVG Version: 6.00 Build 0)  -->
<svg version="1.1" id="Layer_1" xmlns="http://www.w3.org/2000/svg" xmlns:xlink="http://www.w3.org/1999/xlink" x="0px" y="0px"
	 viewBox="52.5 2.5 25 25" style="enable-background:new 52.5 2.5 25 25;" xml:space="preserve">
<style type="text/css">
	.st0{fill:#62C5BB;}
</style>
<g id="XMLID_15614_">
	<path id="XMLID_15616_" class="st0" d="M74.2,11.7c0,1.7-0.5,3.3-1.2,4.9c-1.1,2.6-2.5,4.9-4.3,7.1c-0.8,1.1-1.7,2.2-2.7,3.2
		c-0.7,0.8-1.6,0.8-2.3,0c-2.4-2.7-4.6-5.7-6.3-8.9c-0.8-1.6-1.5-3.3-1.7-5.2c-0.3-2.9,0.5-5.5,2.7-7.6c1.9-1.9,4.3-2.8,6.9-2.7
		c4.3,0.2,8,3.6,8.5,7.8C74.1,10.8,74.1,11.2,74.2,11.7z M65,7.8c-2,0-3.6,1.6-3.6,3.6S63,15,65,15c2,0,3.6-1.6,3.6-3.6
		C68.6,9.4,67,7.8,65,7.8z"/>
</g>
</svg>
