<?xml version="1.0" encoding="utf-8"?>
<!-- Generator: Adobe Illustrator 19.1.0, SVG Export Plug-In . SVG Version: 6.00 Build 0)  -->
<svg version="1.1" id="Layer_1" xmlns="http://www.w3.org/2000/svg" xmlns:xlink="http://www.w3.org/1999/xlink" x="0px" y="0px"
	 viewBox="-417 218 125 125" style="enable-background:new -417 218 125 125;" xml:space="preserve">
<style type="text/css">
	.st0{fill:#7B7B7B;}
	.st1{fill:none;stroke:#7B7B7B;stroke-miterlimit:10;}
	.st2{enable-background:new    ;}
</style>
<g id="XMLID_15887_">
	<path id="XMLID_15893_" class="st0" d="M-355,263.5c-0.3-0.6-0.6-1.2-0.9-1.7c0.1-0.1,0.1-0.1,0.1-0.2c0.8,0.5,1.7,1,2.6,1.6
		c0.4-0.5,0.8-1.1,1.4-1.8c-0.1,0.8-0.2,1.4-0.3,2.2c0.3,0.1,0.8,0.2,1.1,0.3c5.2,1.4,9.8,3.7,13.5,7.7c2.9,3.1,4.1,6.9,4.3,11
		c0.2,4.1-0.3,8.1-1.6,12c-1.4,3.8-3.3,7.4-6.4,10.1c-0.1,0.1-0.2,0.2-0.3,0.3c0.4,0.4,0.8,0.8,1.3,1.1c2.7,2.6,4.2,5.9,5,9.6
		c0.9,4.2,1.2,8.3,1.2,12.5c0,0.8-0.4,1.3-1.1,1.5c-0.9,0.3-1.9,0.6-2.7,0.9c-0.3,0.1-0.5,0.3-0.5,0.5c-0.8,5-4.2,6.5-7.7,7.1
		c-1.8,0.3-3.6,0.4-5.3,0.4c-3.8,0-7.7,0-11.5-0.2c-1.4-0.1-3-0.5-4.4-1c-2.5-1-3.8-3.1-4.2-5.7c-0.1-0.8-0.4-1.3-1.3-1.4
		c-0.8-0.2-1.5-0.4-2.3-0.8c-0.6-0.3-1-0.8-1-1.4c0.1-5.3,0.4-10.5,2.3-15.5c1.1-2.9,2.2-4.4,5-7.3c-0.1-0.1-0.1-0.2-0.2-0.3
		c-2.6-2.2-4.5-4.9-5.9-8.1c-2.5-5.3-3.1-10.8-2.3-16.4c0.8-6.5,4.4-11.2,10.3-14.2c3.6-1.9,7.4-2.8,11.4-3.1
		C-355.3,263.6-355.2,263.6-355,263.5z M-342.5,291.7c-0.5,0.1-0.8,0.1-1,0.1c-3.1-0.1-6.1,0-9.1-0.2c-2-0.2-4.1-0.4-6-1
		c-3.8-1.2-7-3.6-10-6.1c-0.3-0.2-0.4-0.3-0.7-0.6c-0.7,2.5-2,4.7-3.7,6.4c-0.5,0.4-0.5,0.9-0.4,1.5c1.2,8.7,8.3,15.3,17.1,16
		c8.5,0.6,16.4-4.7,18.9-12.8c0.3-1,0.5-2,0.8-3.1c-2.9,0.3-5.3-1.1-7.8-1.5C-344,290.7-343.4,291.1-342.5,291.7z M-346.3,308.4
		c0.4,0.5,0.9,1,1.4,1.4c0.8,0.9,0.8,1.3-0.2,2c-0.4,0.3-0.9,0.7-1.4,1.1c0.2,0.3,0.3,0.7,0.5,0.9c0.6,0.8,0.4,1.4-0.2,2.1
		c-2.6,3.3-5.2,6.6-7.7,9.9c-0.2,0.2-0.3,0.4-0.3,0.7c-0.1,1.2,0,2.3,0,3.5c4.6,0,9,0,13.5,0c0.3-4.2-0.3-8.3-0.2-12.5
		c0.7,3.6,1.3,7.1,2,10.8c0.6-0.2,1.2-0.3,1.7-0.5s0.7-0.4,0.7-0.9c-0.3-2.9-0.3-5.8-0.7-8.6c-0.4-3.1-1.4-6.2-3.4-8.8
		c-0.8-1.1-1.9-2-2.7-2.9C-344.5,307.3-345.4,307.9-346.3,308.4z M-370.8,328.4c0.7-3.6,1.3-7.2,1.9-10.4c0,0.9,0,2.2,0,3.5
		c-0.1,2.5-0.2,5.1-0.2,7.6c0,1.1,0,1.1,1.1,1.1c3.6,0,7.3,0,10.9,0c0.3,0,0.6,0,0.8,0c0-1.1,0-2.1,0-3.1c0-0.3-0.2-0.8-0.4-1.1
		c-2.6-3.5-5.3-6.9-8-10.3c-0.3-0.5-0.4-0.8-0.1-1.4c0.3-0.4,0.5-0.8,0.8-1.4c-0.5-0.4-1-0.8-1.5-1.3c-0.7-0.5-0.7-0.9-0.2-1.6
		c0.5-0.6,1-1.1,1.5-1.7c-0.8-0.4-1.5-0.8-2.3-1.3c-0.2,0.2-0.4,0.3-0.6,0.4c-2.4,2-3.8,4.6-4.7,7.5c-1.2,3.7-1.5,7.5-1.7,11.4
		c0,1.2-0.1,1.2,1.1,1.5C-371.9,328.1-371.4,328.2-370.8,328.4z M-368.7,332.2c0.1,0.2,0.1,0.3,0.1,0.3c0.6,1.9,2,2.8,3.8,3.1
		c1.4,0.3,2.8,0.4,4.2,0.5c4.7,0.2,9.3,0.3,13.9-0.3c1.4-0.2,2.9-0.5,4.1-1.5c0.7-0.6,1.2-1.3,1.4-2.2
		C-350.4,332.2-359.6,332.2-368.7,332.2z M-358.4,320.9c-0.6-2-1.2-3.6-1.5-5.5c-0.4-1.8-0.6-3.6-0.8-5.5c-0.1-0.4-1.4-0.9-1.8-0.6
		c-0.5,0.4-0.8,0.9-1.4,1.5c0.4,0.3,0.8,0.7,1.2,0.9c0.9,0.8,0.9,0.8,0.3,1.9c-0.2,0.3-0.3,0.6-0.5,0.8c-0.1,0.2-0.1,0.5,0.1,0.6
		C-361.3,317-359.9,318.9-358.4,320.9z M-346.6,310.8c-0.3-0.3-0.7-0.6-0.8-0.9c-0.4-0.8-1-0.5-1.6-0.4c-0.7,0.2-0.7,0.7-0.8,1.2
		c-0.3,2.6-0.7,5.2-1.5,7.7c-0.3,0.8-0.5,1.6-0.8,2.4c1.3-1.4,2.3-2.9,3.5-4.2c0.9-1,1.4-2,0.3-3.1c-0.3-0.4-0.3-0.9,0.3-1.3
		C-347.6,311.6-347.1,311.2-346.6,310.8z M-357.6,311.4c-1.1,0.7-1,0.7-0.8,1.9c0.1,0.5,0.1,1.1,0.2,1.6c0.2,0.8,0.4,1.8,0.6,2.6
		c0.1,0,0.2,0,0.2-0.1c0.3-0.8,0.3-1.7,0.7-2.5C-356.3,313.6-356.9,312.5-357.6,311.4z M-353.1,317.4c0.1,0,0.2,0,0.3,0
		c0.3-1.4,0.6-2.9,0.8-4.2c0.3-1.2,0.3-1.2-0.9-1.9c-0.3,0.4-0.4,0.8-0.6,1.2c-0.2,0.4-0.4,0.9-0.3,1.4
		C-353.8,315-353.4,316.2-353.1,317.4z M-351.7,311.2c0.1-0.4,0.1-0.8,0.2-1.2c-0.5,0.1-0.8,0.1-1.4,0.2
		C-352.4,310.5-352.1,310.9-351.7,311.2z M-358.8,311.2c0.4-0.3,0.8-0.7,1.2-1c-0.5-0.1-0.8-0.1-1.3-0.2
		C-358.9,310.4-358.9,310.8-358.8,311.2z"/>
	<path id="XMLID_15891_" class="st0" d="M-348.5,297.9c0,0.4,0.1,0.9,0,1.4c-0.2,1-0.9,1.7-2,1.7c-0.9,0-1.8-0.7-1.9-1.7
		c-0.1-0.8-0.1-1.8,0-2.6c0.1-0.9,0.9-1.7,1.9-1.7c0.9,0,1.8,0.7,2,1.7C-348.5,297-348.5,297.5-348.5,297.9L-348.5,297.9z"/>
	<path id="XMLID_15890_" class="st0" d="M-361.8,297.9c0-0.4,0-0.8,0-1.3c0.1-0.9,0.9-1.8,1.9-1.8s1.9,0.8,1.9,1.7
		c0.1,0.8,0.1,1.7,0,2.6c-0.1,1-0.8,1.7-1.9,1.8c-1,0-1.9-0.8-1.9-1.8C-361.9,298.7-361.9,298.3-361.8,297.9
		C-361.9,297.9-361.9,297.9-361.8,297.9z"/>
	<path id="XMLID_15888_" class="st0" d="M-354.9,306.4c-3.7-0.1-7-1.2-9.8-3.1c-0.2-0.1-0.3-0.2-0.3-0.3c-0.3-0.3-0.5-0.5-0.3-0.9
		c0.3-0.3,0.6-0.3,0.9,0c1.4,1.1,3,2,4.7,2.5c5.1,1.6,9.7,0.6,13.7-3c0.3-0.3,0.6-0.5,1-0.2c0.4,0.4,0.1,0.8-0.2,1
		C-348,304.9-351.3,306.4-354.9,306.4z"/>
</g>
<g id="XMLID_15915_">
	<path id="XMLID_15917_" class="st1" d="M-331.7,268.4c-1.8-0.3-3.6-0.6-5.3-0.9c-4.9-1-8.1-5.2-8.9-9.5c-0.8-4.5-0.9-9.1-0.3-13.6
		c0.3-2.6,1.2-5.1,2.8-7.1c1.8-2.2,4.1-3.6,7-4.1c5.9-1.2,11.9-1.4,17.9-1.3c4.2,0.1,8.3,0.4,12.4,1.4c4.7,1,7.5,4,8.7,8.5
		c1,3.6,1.3,7.4,0.9,11.2c-0.2,2.1-0.4,4.4-1,6.4c-1.4,4.6-4.5,7.4-9.2,8.3c-3.8,0.7-7.5,1.1-11.4,1.2c-1.2,0-2,0.3-3.1,1
		c-3,2.2-5.9,4.4-9.5,5.5c-1.3,0.4-2.5,0.7-3.8,0.8c-0.3,0.1-0.7-0.2-1-0.3c0.2-0.3,0.2-0.8,0.4-1c0.8-0.9,1.6-1.8,2.3-2.8
		C-331.9,270.7-331.5,269.5-331.7,268.4z"/>
</g>
<g id="XMLID_15911_">
	<g class="st2">
		<path class="st0" d="M-338.3,249.5v-2.3h-2.8v2.3h-0.9v-5.3h0.9v2.2h2.8v-2.2h0.9v5.3H-338.3z"/>
		<path class="st0" d="M-336.4,246.8c0-1.6,1.1-2.7,2.7-2.7s2.7,1.2,2.7,2.7s-1.1,2.7-2.7,2.7C-335.3,249.6-336.4,248.4-336.4,246.8
			z M-332,246.8c0-1.1-0.7-1.9-1.8-1.9c-1.1,0-1.8,0.8-1.8,1.9c0,1.1,0.7,1.9,1.8,1.9C-332.7,248.8-332,247.9-332,246.8z"/>
		<path class="st0" d="M-326.2,249.5l-1-3.9l-1,3.9h-1l-1.5-5.3h1l1,4.1l1.1-4.1h0.7l1.1,4.1l1-4.1h1l-1.5,5.3H-326.2z"/>
		<path class="st0" d="M-321.3,246.8c0-1.6,1.2-2.7,2.8-2.7c1.1,0,1.7,0.5,2.1,1.2l-0.8,0.4c-0.3-0.4-0.8-0.8-1.3-0.8
			c-1,0-1.8,0.8-1.8,1.9c0,1.1,0.8,1.9,1.8,1.9c0.6,0,1.1-0.3,1.3-0.8l0.8,0.4c-0.4,0.6-1.1,1.2-2.1,1.2
			C-320.1,249.6-321.3,248.5-321.3,246.8z"/>
		<path class="st0" d="M-312,249.5l-0.4-1h-2.4l-0.4,1h-1.1l2.1-5.3h1.2l2.1,5.3H-312z M-313.6,245.1l-1,2.5h1.9L-313.6,245.1z"/>
		<path class="st0" d="M-306.6,249.5l-2.8-3.8v3.8h-0.9v-5.3h1l2.7,3.7v-3.7h0.9v5.3H-306.6z"/>
		<path class="st0" d="M-302.6,249.5v-5.3h0.9v5.3H-302.6z"/>
	</g>
	<g class="st2">
		<path class="st0" d="M-338.3,259v-2.3h-2.8v2.3h-0.9v-5.3h0.9v2.2h2.8v-2.2h0.9v5.3H-338.3z"/>
		<path class="st0" d="M-336.2,259v-5.3h3.6v0.8h-2.7v1.4h2.6v0.8h-2.6v1.5h2.7v0.8L-336.2,259L-336.2,259z"/>
		<path class="st0" d="M-331.7,259v-5.3h0.9v4.5h2.3v0.8L-331.7,259L-331.7,259z"/>
		<path class="st0" d="M-327.6,259v-5.3h2.3c1.1,0,1.7,0.8,1.7,1.7s-0.6,1.7-1.7,1.7h-1.4v2h-0.9V259z M-324.5,255.4
			c0-0.5-0.4-0.8-0.9-0.8h-1.3v1.7h1.3C-324.9,256.2-324.5,255.9-324.5,255.4z"/>
		<path class="st0" d="M-319.2,259v-2.2l-2.1-3.1h1.1l1.5,2.3l1.5-2.3h1.1l-2.1,3.1v2.2L-319.2,259L-319.2,259z"/>
		<path class="st0" d="M-316.2,256.4c0-1.6,1.1-2.7,2.7-2.7s2.7,1.2,2.7,2.7s-1.1,2.7-2.7,2.7C-315.1,259.1-316.2,258-316.2,256.4z
			 M-311.7,256.4c0-1.1-0.7-1.9-1.8-1.9c-1.1,0-1.8,0.8-1.8,1.9c0,1.1,0.7,1.9,1.8,1.9C-312.4,258.3-311.7,257.5-311.7,256.4z"/>
		<path class="st0" d="M-309.9,256.9v-3.2h0.9v3.2c0,0.8,0.5,1.4,1.4,1.4s1.4-0.5,1.4-1.4v-3.2h0.9v3.2c0,1.3-0.8,2.2-2.3,2.2
			S-309.9,258.2-309.9,256.9z"/>
		<path class="st0" d="M-303.5,256.8c0-1,1.3-1.1,1.3-1.7c0-0.3-0.2-0.6-0.8-0.6c-0.5,0-0.8,0.2-1.1,0.6l-0.5-0.6
			c0.4-0.5,1-0.8,1.7-0.8c1,0,1.6,0.5,1.6,1.2c0,1.2-1.4,1.3-1.4,2c0,0.1,0.1,0.3,0.2,0.4l-0.7,0.2
			C-303.4,257.3-303.5,257-303.5,256.8z M-303.5,258.5c0-0.3,0.3-0.5,0.6-0.5c0.3,0,0.6,0.3,0.6,0.5c0,0.3-0.3,0.6-0.6,0.6
			C-303.3,259.1-303.5,258.8-303.5,258.5z"/>
	</g>
</g>
<g id="XMLID_15914_">
	<path id="XMLID_15918_" class="st1" d="M-375.7,260.4c1.9-0.3,3.7-0.6,5.5-1c5.1-1,8.4-5.3,9.2-9.8c0.9-4.7,0.9-9.4,0.3-14.2
		c-0.4-2.7-1.2-5.3-3-7.5c-1.9-2.3-4.2-3.6-7.2-4.2c-6.2-1.2-12.4-1.4-18.6-1.3c-4.3,0.1-8.6,0.4-12.9,1.4c-4.8,1-7.8,4.2-9.2,8.8
		c-1.1,3.8-1.3,7.7-0.9,11.6c0.2,2.3,0.4,4.6,1.1,6.7c1.4,4.7,4.7,7.7,9.7,8.6c3.9,0.8,7.9,1.1,11.9,1.2c1.2,0,2.1,0.3,3.1,1.1
		c3.1,2.3,6.2,4.6,9.9,5.8c1.3,0.4,2.6,0.7,4,0.9c0.3,0.1,0.8-0.3,1.1-0.3c-0.2-0.3-0.2-0.8-0.4-1.1c-0.8-1-1.7-1.9-2.4-2.9
		C-375.3,262.9-375.8,261.5-375.7,260.4z"/>
</g>
<g id="XMLID_15912_" class="st2">
	<path class="st0" d="M-383.6,250.2v-7.4h-8.8v7.4h-3v-16.9h3v6.9h8.8v-6.9h3v16.9H-383.6z"/>
	<path class="st0" d="M-377,250.2v-16.9h3v16.9H-377z"/>
</g>
</svg>
