<?xml version="1.0" encoding="utf-8"?>
<!-- Generator: Adobe Illustrator 19.1.0, SVG Export Plug-In . SVG Version: 6.00 Build 0)  -->
<svg version="1.1" id="Layer_1" xmlns="http://www.w3.org/2000/svg" xmlns:xlink="http://www.w3.org/1999/xlink" x="0px" y="0px"
	 viewBox="537 -538 1200 1200" style="enable-background:new 537 -538 1200 1200;" xml:space="preserve">
<style type="text/css">
	.st0{fill:#F2F2F2;}
	.st1{fill:#C0BFBF;}
	.st2{fill:#E5E5E5;}
</style>
<g>
	<g id="XMLID_10335_">
		<polygon id="XMLID_14868_" class="st0" points="1312.8,-77 1411.6,203.3 1314.2,603.1 672.3,467.6 651.4,-202.6 		"/>
		<polygon id="XMLID_12513_" class="st1" points="1621.5,-349.8 1622.7,299.8 1314.2,603.1 1312.8,-77 		"/>
		<polygon id="XMLID_12508_" class="st2" points="1004,-479.1 1621.5,-349.8 1312.8,-77 651.4,-202.6 		"/>
	</g>
	<g id="XMLID_15620_">
		<path id="XMLID_15637_" d="M1120.4,462.3c0.3,17.5-10.2,26.3-27.4,22.8c-89-18.4-177.9-36.9-266.8-55.5
			c-7.4-1.7-14.2-5.2-19.7-11.4c-6.5-7.5-8.7-15.6-8.9-24.3c-3.1-156.5-6.2-313-9.4-469.4c0-1.1,0-2.2,0-3.3
			c0.1-15.5,10.5-24.1,26-20.9c89.6,18.6,179.4,37.2,269,55.9c6.5,1.4,12.4,4.4,17.5,9.6c7.6,7.7,10.2,16.1,10.4,25.5
			c1.5,78.2,3.1,156.5,4.6,234.7C1117.3,304.8,1118.9,383.5,1120.4,462.3z M1092.7,416.2c-2.9-144.2-5.8-288.3-8.7-432.5
			c-89.6-18.7-179.1-37.3-268.9-56c2.9,144,5.8,288,8.7,432.5C913.5,378.9,1003,397.4,1092.7,416.2z M980.7,429
			c0.1-11.7-10.1-23.9-21.9-26.5c-12.2-2.8-22.2,5-22.1,17c0,11.8,10.2,23.7,22.1,26.3S980.6,440.9,980.7,429z"/>
		<path id="XMLID_15633_" d="M927.4,193.2c2.2,4.2,4.6,6.3,9.1,7.2c25.6,5,51.1,10.5,76.7,15.8c12.7,2.7,18.7,9.8,19.1,22.3
			c0.6,29.9,1.2,59.8,1.7,89.7c0.2,13.1-5.4,17.6-18.5,14.8c-42.9-8.9-85.7-17.8-128.7-26.8c-12.6-2.7-18.8-9.9-19.2-22.2
			c-0.7-29.9-1.2-59.8-1.7-89.7c-0.1-11.3,4.1-15.5,15.2-15.1c2.7,0.1,5.5,0.6,8.2,1.4c3.7,1.1,5.9,0.2,7.7-2.8
			c4.6-7.8,9.7-15.3,14.9-23.5C917.4,174.4,922.5,183.7,927.4,193.2z M997.7,230c-23.2-4.8-46.4-9.8-69.6-14.4
			c-5.1-1-8.4-3-10.5-8.1c-1.2-2.9-3.1-5.7-5-9.4c-2.2,3.5-3.8,6.7-6.2,9.3c-1.3,1.5-3.9,2.4-6,2.2c-5.6-0.7-11.3-2.2-17.4-3.5
			c0.6,31.4,1.3,62.3,1.8,93.6c43.9,9.2,87.8,18.3,132.2,27.5c-0.6-31-1.2-61.9-1.8-93.6C1009,232.3,1003.3,231.2,997.7,230z"/>
		<path id="XMLID_15628_" d="M983.3,139.2c-1.7-3.3-3.8-4.7-7.1-5.4c-21.3-4.3-42.7-8.8-64-13.2c-9.5-2-14.8-8.1-15-17.6
			c-0.7-25.7-1.1-51.3-1.6-77c-0.1-8.8,5-12.9,13.9-11.1c36.8,7.6,73.6,15.3,110.4,23c8.3,1.8,13.9,8.4,14.1,16.7
			c0.6,26,1.2,52.1,1.6,78.1c0.1,9-5.7,12.9-14.7,10c-6-1.9-10.4-1.8-13.1,3.9c-2.9,6.1-7.2,11.4-11.3,17.7
			C991.6,155.3,987.1,147.4,983.3,139.2z M909.6,29.1c0.6,25.7,1,51.3,1.6,77.3c2.1,0.5,4,1.1,6,1.5c21.5,4.5,43,9.2,64.5,13.2
			c5.6,1,9,3.4,11.2,8.9c0.8,2,2.1,3.8,3.2,5.8c3.2-3.2,5.5-8.1,9.5-9c4.2-1,10,1.7,15.4,2.8c-0.6-26.1-1-51.5-1.6-77.6
			C982.8,44.3,946.4,36.7,909.6,29.1z"/>
		<path id="XMLID_15627_" d="M900.8,255c-0.2-5.6-0.2-10.6-0.3-15.7c32.5,6.7,64.5,13.3,96.7,20.1c0.2,5.5,0.2,10.5,0.3,15.7
			C965.1,268.4,932.9,261.6,900.8,255z"/>
		<path id="XMLID_15625_" d="M939.8,293.3c-0.2-5.4-0.2-10.4-0.3-15.7c19.4,4,38.6,8.1,57.8,12c0.2,5.4,0.2,10.4,0.3,15.7
			C978.2,301.3,959.1,297.3,939.8,293.3z"/>
		<path id="XMLID_15624_" d="M925.9,85.9c-0.2-4.7-0.2-9-0.3-13.4c27.1,5.6,53.8,11.2,80.9,16.8c0.2,4.6,0.2,8.9,0.3,13.4
			C979.6,97,952.7,91.4,925.9,85.9z"/>
		<path id="XMLID_15622_" d="M974,57.1c0.2,4.5,0.2,8.6,0.3,12.9c-16.2-3.5-32.1-6.6-48.3-10.1c-0.2-4.4-0.2-8.5-0.3-12.9
			C942.1,50.5,958.1,53.8,974,57.1z"/>
	</g>
</g>
</svg>
