<?xml version="1.0" encoding="utf-8"?>
<!-- Generator: Adobe Illustrator 19.1.0, SVG Export Plug-In . SVG Version: 6.00 Build 0)  -->
<svg version="1.1" id="Layer_1" xmlns="http://www.w3.org/2000/svg" xmlns:xlink="http://www.w3.org/1999/xlink" x="0px" y="0px"
	 viewBox="480 -170 1920 900" style="enable-background:new 480 -170 1920 900;" xml:space="preserve">
<style type="text/css">
	.st0{clip-path:url(#SVGID_2_);}
	.st1{fill:none;stroke:#B5B7B9;stroke-width:1.1999;stroke-miterlimit:22.9256;}
	.st2{fill:none;stroke:#CACCCE;stroke-width:1.1999;stroke-miterlimit:22.9256;}
	.st3{fill:#CACCCE;}
	.st4{fill:#B5B7B9;}
</style>
<g id="Background">
	<g>
		<g>
			<defs>
				<rect id="SVGID_1_" x="476.1" y="-672.8" width="1923.2" height="1923.2"/>
			</defs>
			<clipPath id="SVGID_2_">
				<use xlink:href="#SVGID_1_"  style="overflow:visible;"/>
			</clipPath>
			<g class="st0">
				<line class="st1" x1="1984.6" y1="743.5" x2="2462.8" y2="-306.6"/>
				<path class="st2" d="M2696,878.2L1707.7,6.9l276.9,736.7l615-355.5l-133.3-677.3l-381.8,423.4 M1708.8,479.1l856.1-267.3
					l-374.4,275l-1310.4,507l1240.3,48.9L2696,878.1l-453.7,411.6l133.9-1143.5l319.9,731.9l-85.7,304.8"/>
				<path class="st1" d="M144.3-38l306-649l542.5-156.7l-430,691.3L1106-90.8 M1234.4,579.8l380.3,800L951,1280.3l331.4,176.5
					l160.3-562.7l747.6-407.2l-106.1-352.7l-333.6,761.6l945.2-17.6l-711.5-134.7l621,456.5l-1654.4,80.2L824,1627.1l-157.3-283.6
					L426.2,903.4L1234.4,579.8L951,1280.2L596.2,687.1L434.8,15.7L450.3-687"/>
				<path class="st1" d="M627.6,1566.1l323.5-285.8L423,886.1 M1295.2,293.2L880,993.9l777.1,114.4l-698.5,396.5"/>
				<path class="st2" d="M958.2,1502.3l349.3-365.4l-427.4-143 M1442.8,894.1l796,378.4l-118.5-229.7l-825.1-749.6l455.6,602.6
					l699.5-112.1l-74.2-637.4L2599.5,388l-942.4,720.3L2696,878.2l-453.7,411.6l-51.8-802.9l415.1,713.1l-485.1-157.2l-837.9,414
					 M423,886.1l1019.8,8l-491.7,386.1l-551.6-85.6"/>
				<polyline class="st1" points="170.4,-589.7 562.9,-152.4 450.3,-687 1059.2,-440.6 629.4,-465.8 1541.1,-597.7 1236.8,-896.7 
					1059.2,-440.6 1551.4,-284.7 1844.4,-899.1 2340.8,-982.2 2048.6,-1089.5 2216.4,-646.4 2376.1,146.3 1707.7,6.9 1995.4,-280.5 
					2460.6,-727.4 				"/>
				<polyline class="st1" points="2462.8,-306.6 1984.8,-483.6 1707.7,6.9 1106.1,-90.8 1541.1,-597.7 1984.8,-483.6 1995.4,-280.5 
					1691.4,482.6 951.1,1280.3 1008.5,212.3 562.9,-152.4 323.8,363.5 1234.4,579.8 1717,-360.7 860,-298.8 629.4,-465.8 
					768.8,-669.1 1107.8,-640.6 629.4,-465.8 148.8,-265 860,-298.8 1106.1,-90.8 2190.4,486.9 1307.4,1136.9 1008.5,212.3 
					596.3,687.1 866.3,-25.3 				"/>
				<polyline class="st2" points="1059.2,-440.6 866.3,-25.3 1008.6,214.1 1295.2,293.2 2177.5,-136.9 1691.4,482.6 1984.6,743.5 
					2190.4,486.9 2599.5,388.1 2450.3,783.7 2190.4,486.9 1707.7,6.9 1442.8,894.1 1984.6,743.5 2605.5,1200 2242.3,1289.8 
					2450.3,783.7 2120.4,1042.8 1657.1,1108.3 1307.4,1136.9 951.1,1280.3 666.9,1343.5 399.5,1194.7 820,577.2 1376.9,-147.8 
					1236.8,-896.7 1844.4,-899.1 2216.4,-646.4 2462.8,-306.6 2376.1,146.3 2599.5,388.1 				"/>
				<polyline class="st1" points="148.8,-265 434.8,15.7 562.9,-152.4 1376.9,-147.8 1691.4,482.6 1442.8,894.1 1295.2,293.2 
					1376.9,-147.8 1441,-827 				"/>
				<polyline class="st1" points="399.5,1194.7 880.1,993.9 820,577.2 1295.2,293.2 2084.4,134.2 1984.6,743.5 				"/>
				<polyline class="st2" points="450.3,-687 768.8,-669.1 1059.2,-440.6 1376.9,-147.8 996,226.4 820,577.2 1442.8,894.1 
					951.1,1280.3 1282.5,1456.8 1307.4,1136.9 1981.3,1341.2 1750.8,895.8 1657.1,1108.3 1282.5,1456.8 				"/>
				<polyline class="st1" points="1984.6,743.5 2450.3,783.7 2696,878.2 2599.5,388.1 2084.4,134.2 1995.4,-280.5 1717,-360.7 
					1844.4,-899.1 1541.1,-597.7 1059.2,-440.6 1106.1,-90.8 1295.2,293.2 				"/>
				<path class="st1" d="M880.1,993.9l-204,334.5l282.1,173.9l-7.1-222C951.1,1280.3,897.4,990.5,880.1,993.9
					c-17.3,3.4-283.8-306.8-283.8-306.8l223.8-110l414.4,2.7l457-97.3l16.2-475.7l-156.3-291.6l444,4.2L2177.5-137l38.9-509.5
					l124.4-335.8c3.4,17.3,119.7,254.8,119.7,254.8l2.2,420.8L2177.4-137L1707.6,6.8l-412.4,286.4l-60.8,286.7"/>
				<polyline class="st2" points="2048.6,-1089.5 1844.4,-899.1 1946.1,-754.3 1984.8,-483.6 2177.5,-136.9 2376.1,146.3 
					2084.4,134.2 2190.4,486.9 1691.4,482.6 1750.8,895.8 1984.6,743.5 2120.4,1042.8 1981.3,1341.2 1657.1,1108.3 1442.8,894.1 
					1307.4,1136.9 880.1,993.9 423,886.1 596.3,687.1 323.8,363.5 633,203.7 434.8,15.7 866.3,-25.3 562.9,-152.4 148.8,-265 
					450.3,-687 629.4,-465.8 562.9,-152.4 860,-298.8 768.8,-669.1 1059.2,-440.6 1107.8,-640.6 1236.8,-896.7 1441,-827 
					1541.1,-597.7 1551.4,-284.7 1240.2,-879.4 				"/>
				<path class="st1" d="M2460.6-727.4l-244.1,81l-231.7,162.8l-433.4,198.8l-174.5,137L1707.7,6.9l376.7,127.3l-543.3-731.9
					L860-298.8c0,0,152,530.2,148.6,512.8c-3.4-17.3,97.5-304.9,97.5-304.9L866.3-25.4L633,203.7l187,373.4l487.4,559.7l443.4-241.1
					l-308-1.6l-208.4-314.3l-225.8-365.7L323.8,363.5L820,577.2"/>
				<g>
					<path class="st3" d="M1554.8-267.4c9.6-1.9,15.8-11.2,13.9-20.8c-1.9-9.6-11.2-15.8-20.8-13.9c-9.6,1.9-15.8,11.2-13.9,20.8
						C1536-271.7,1545.2-265.5,1554.8-267.4z"/>
					<path class="st4" d="M1949.5-737c9.6-1.9,15.8-11.2,13.9-20.8c-1.9-9.6-11.2-15.8-20.8-13.9c-9.6,1.9-15.8,11.2-13.9,20.8
						C1930.7-741.3,1940-735.1,1949.5-737z"/>
					<circle class="st4" cx="2216.4" cy="-646.4" r="17.7"/>
					<path class="st4" d="M2181-119.6c9.6-1.9,15.8-11.2,13.9-20.8c-1.9-9.6-11.2-15.8-20.8-13.9s-15.8,11.2-13.9,20.8
						C2162.1-123.9,2171.4-117.7,2181-119.6z"/>
					<circle class="st4" cx="1984.8" cy="-483.6" r="17.7"/>
					<path class="st3" d="M1544.5-580.3c9.6-1.9,15.8-11.2,13.9-20.8c-1.9-9.6-11.2-15.8-20.8-13.9c-9.6,1.9-15.8,11.2-13.9,20.8
						C1525.6-584.7,1534.9-578.4,1544.5-580.3z"/>
					<circle class="st4" cx="1107.8" cy="-640.6" r="17.7"/>
					<circle class="st4" cx="860" cy="-298.8" r="17.7"/>
					<circle class="st4" cx="450.3" cy="-687" r="17.7"/>
					<circle class="st4" cx="148.8" cy="-265" r="17.7"/>
					<circle class="st4" cx="562.9" cy="-152.4" r="17.7"/>
					<circle class="st3" cx="633" cy="203.7" r="17.7"/>
					<circle class="st4" cx="866.3" cy="-25.3" r="17.7"/>
					<circle class="st4" cx="1059.2" cy="-440.6" r="17.7"/>
					<path class="st3" d="M632.8-448.5c9.6-1.9,15.8-11.2,13.9-20.8c-1.9-9.6-11.2-15.8-20.8-13.9c-9.6,1.9-15.8,11.2-13.9,20.8
						S623.2-446.6,632.8-448.5z"/>
					<circle class="st3" cx="434.8" cy="15.7" r="17.7"/>
					<circle class="st4" cx="596.3" cy="687.1" r="17.7"/>
					<circle class="st4" cx="1234.4" cy="579.8" r="17.7"/>
					<circle class="st4" cx="1295.2" cy="293.2" r="17.7"/>
					<path class="st4" d="M1694.9,499.9c9.6-1.9,15.8-11.2,13.9-20.8c-1.9-9.6-11.2-15.8-20.8-13.9c-9.6,1.9-15.8,11.2-13.9,20.8
						C1676,495.5,1685.3,501.8,1694.9,499.9z"/>
					<circle class="st4" cx="1376.9" cy="-147.8" r="17.7"/>
					<circle class="st4" cx="1008.6" cy="214.1" r="17.7"/>
					<path class="st4" d="M426.4,903.4c9.6-1.9,15.8-11.2,13.9-20.8c-1.9-9.6-11.2-15.8-20.8-13.9s-15.8,11.2-13.9,20.8
						C407.5,899.1,416.8,905.3,426.4,903.4z"/>
					<circle class="st4" cx="323.8" cy="363.5" r="17.7"/>
					<circle class="st4" cx="768.8" cy="-669.1" r="17.7"/>
					<circle class="st4" cx="1236.8" cy="-896.7" r="17.7"/>
					<path class="st4" d="M1444.4-809.7c9.6-1.9,15.8-11.2,13.9-20.8c-1.9-9.6-11.2-15.8-20.8-13.9c-9.6,1.9-15.8,11.2-13.9,20.8
						C1425.5-814.1,1434.8-807.8,1444.4-809.7z"/>
					<path class="st4" d="M1847.8-881.8c9.6-1.9,15.8-11.2,13.9-20.8s-11.2-15.8-20.8-13.9c-9.6,1.9-15.8,11.2-13.9,20.8
						S1838.2-879.9,1847.8-881.8z"/>
					<path class="st4" d="M2052.1-1072.2c9.6-1.9,15.8-11.2,13.9-20.8s-11.2-15.8-20.8-13.9c-9.6,1.9-15.8,11.2-13.9,20.8
						S2042.5-1070.3,2052.1-1072.2z"/>
					<path class="st4" d="M2464-710c9.6-1.9,15.8-11.2,13.9-20.8c-1.9-9.6-11.2-15.8-20.8-13.9c-9.6,1.9-15.8,11.2-13.9,20.8
						C2445.1-714.4,2454.4-708.2,2464-710z"/>
					<circle class="st4" cx="2340.8" cy="-982.2" r="17.7"/>
					<path class="st4" d="M2466.2-289.3c9.6-1.9,15.8-11.2,13.9-20.8c-1.9-9.6-11.2-15.8-20.8-13.9c-9.6,1.9-15.8,11.2-13.9,20.8
						C2447.3-293.6,2456.6-287.4,2466.2-289.3z"/>
					<circle class="st4" cx="1995.4" cy="-280.5" r="17.7"/>
					<path class="st3" d="M1711.1,24.2c9.6-1.9,15.8-11.2,13.9-20.8s-11.2-15.8-20.8-13.9c-9.6,1.9-15.8,11.2-13.9,20.8
						C1692.2,19.8,1701.5,26.1,1711.1,24.2z"/>
					<circle class="st3" cx="1106.1" cy="-90.8" r="17.7"/>
					<path class="st4" d="M2193.8,504.2c9.6-1.9,15.8-11.2,13.9-20.8c-1.9-9.6-11.2-15.8-20.8-13.9c-9.6,1.9-15.8,11.2-13.9,20.8
						C2175,499.9,2184.3,506.1,2193.8,504.2z"/>
					<path class="st3" d="M1446.2,911.5c9.6-1.9,15.8-11.2,13.9-20.8c-1.9-9.6-11.2-15.8-20.8-13.9s-15.8,11.2-13.9,20.8
						C1427.3,907.1,1436.6,913.3,1446.2,911.5z"/>
					<circle class="st4" cx="880.1" cy="993.9" r="17.7"/>
					<path class="st4" d="M670.3,1360.9c9.6-1.9,15.8-11.2,13.9-20.8c-1.9-9.6-11.2-15.8-20.8-13.9c-9.6,1.9-15.8,11.2-13.9,20.8
						C651.4,1356.5,660.7,1362.8,670.3,1360.9z"/>
					<circle class="st4" cx="399.5" cy="1194.7" r="17.7"/>
					
						<ellipse transform="matrix(0.9812 -0.1931 0.1931 0.9812 -272.539 213.4134)" class="st4" cx="958.5" cy="1504.8" rx="17.7" ry="20.3"/>
					<path class="st4" d="M1285.9,1474.1c9.6-1.9,15.8-11.2,13.9-20.8c-1.9-9.6-11.2-15.8-20.8-13.9c-9.6,1.9-15.8,11.2-13.9,20.8
						C1267.1,1469.8,1276.3,1476,1285.9,1474.1z"/>
					<path class="st4" d="M1310.9,1154.2c9.6-1.9,15.8-11.2,13.9-20.8c-1.9-9.6-11.2-15.8-20.8-13.9c-9.6,1.9-15.8,11.2-13.9,20.8
						C1292,1149.8,1301.3,1156.1,1310.9,1154.2z"/>
					<path class="st4" d="M2245.7,1307.2c9.6-1.9,15.8-11.2,13.9-20.8c-1.9-9.6-11.2-15.8-20.8-13.9c-9.6,1.9-15.8,11.2-13.9,20.8
						C2226.8,1302.8,2236.1,1309.1,2245.7,1307.2z"/>
					<path class="st4" d="M2123.8,1060.1c9.6-1.9,15.8-11.2,13.9-20.8c-1.9-9.6-11.2-15.8-20.8-13.9c-9.6,1.9-15.8,11.2-13.9,20.8
						S2114.2,1062,2123.8,1060.1z"/>
					<circle class="st4" cx="1750.8" cy="895.8" r="17.7"/>
					<circle class="st3" cx="951.1" cy="1280.3" r="17.7"/>
					<circle class="st4" cx="2084.4" cy="134.2" r="17.7"/>
					<circle class="st3" cx="2450.3" cy="783.7" r="17.7"/>
					<path class="st3" d="M1988,760.9c9.6-1.9,15.8-11.2,13.9-20.8c-1.9-9.6-11.2-15.8-20.8-13.9c-9.6,1.9-15.8,11.2-13.9,20.8
						C1969.1,756.5,1978.4,762.7,1988,760.9z"/>
					<path class="st4" d="M2602.9,405.4c9.6-1.9,15.8-11.2,13.9-20.8c-1.9-9.6-11.2-15.8-20.8-13.9c-9.6,1.9-15.8,11.2-13.9,20.8
						C2584.1,401,2593.4,407.3,2602.9,405.4z"/>
					<path class="st4" d="M2699.4,895.5c9.6-1.9,15.8-11.2,13.9-20.8c-1.9-9.6-11.2-15.8-20.8-13.9s-15.8,11.2-13.9,20.8
						C2680.6,891.2,2689.8,897.4,2699.4,895.5z"/>
					<path class="st4" d="M2608.9,1217.4c9.6-1.9,15.8-11.2,13.9-20.8c-1.9-9.6-11.2-15.8-20.8-13.9s-15.8,11.2-13.9,20.8
						C2590.1,1213,2599.4,1219.2,2608.9,1217.4z"/>
					<path class="st3" d="M2379.5,163.7c9.6-1.9,15.8-11.2,13.9-20.8c-1.9-9.6-11.2-15.8-20.8-13.9c-9.6,1.9-15.8,11.2-13.9,20.8
						C2360.7,159.3,2370,165.6,2379.5,163.7z"/>
					<path class="st4" d="M1660.5,1125.7c9.6-1.9,15.8-11.2,13.9-20.8c-1.9-9.6-11.2-15.8-20.8-13.9c-9.6,1.9-15.8,11.2-13.9,20.8
						C1641.7,1121.3,1651,1127.5,1660.5,1125.7z"/>
					<circle class="st4" cx="1981.3" cy="1341.2" r="17.7"/>
					<circle class="st3" cx="820" cy="577.2" r="17.7"/>
					<path class="st4" d="M1720.4-343.4c9.6-1.9,15.8-11.2,13.9-20.8c-1.9-9.6-11.2-15.8-20.8-13.9c-9.6,1.9-15.8,11.2-13.9,20.8
						C1701.6-347.7,1710.9-341.5,1720.4-343.4z"/>
					<circle class="st4" cx="170.4" cy="-589.7" r="17.7"/>
					
						<ellipse transform="matrix(0.9812 -0.1931 0.1931 0.9812 -290.5716 150.6431)" class="st4" cx="627.5" cy="1566" rx="17.7" ry="20.3"/>
					<circle class="st4" cx="144.3" cy="-38" r="17.7"/>
					<circle class="st4" cx="326.6" cy="618" r="17.7"/>
					<path class="st4" d="M2671.2-75.2c9.6-1.9,15.8-11.2,13.9-20.8c-1.9-9.6-11.2-15.8-20.8-13.9s-15.8,11.2-13.9,20.8
						C2652.3-79.6,2661.6-73.3,2671.2-75.2z"/>
					<circle class="st4" cx="2815.5" cy="553.9" r="17.7"/>
					<path class="st4" d="M1618.2,1397.1c9.6-1.9,15.8-11.2,13.9-20.8c-1.9-9.6-11.2-15.8-20.8-13.9c-9.6,1.9-15.8,11.2-13.9,20.8
						C1599.3,1392.8,1608.6,1399,1618.2,1397.1z"/>
					<circle class="st4" cx="992.8" cy="-843.7" r="17.7"/>
				</g>
				<polygon class="st1" points="2048.6,-1089.5 1946.1,-754.3 2340.8,-982.2 1981.4,-500.9 				"/>
			</g>
		</g>
	</g>
</g>
<g id="Objects">
</g>
</svg>
