<?xml version="1.0" encoding="utf-8"?>
<!-- Generator: Adobe Illustrator 19.0.0, SVG Export Plug-In . SVG Version: 6.00 Build 0)  -->
<svg version="1.1" id="Layer_1" xmlns="http://www.w3.org/2000/svg" xmlns:xlink="http://www.w3.org/1999/xlink" x="0px" y="0px"
	 viewBox="1110 -60 150 150" style="enable-background:new 1110 -60 150 150;" xml:space="preserve">
<style type="text/css">
	.st0{fill:none;stroke:#4DBEC0;stroke-width:2;stroke-miterlimit:10;}
	.st1{fill:#4CBEC0;}
</style>
<path id="XMLID_10432_" class="st0" d="M1197.2,66.7c2.9,0,5.7,0,8.5,0c0.7,3.2-0.9,5.4-4.1,5.4c-27.9,0-55.9,0-83.8,0
	c-1.7,0-3-0.7-4-2c-0.8-1-0.6-2.1-0.6-3.4c2.8,0,5.7,0,8.6,0c0-0.4,0-0.7,0-1c0-12.1,0-24.2,0-36.3c0-2.6,1.2-3.8,3.8-3.8
	c22.4,0,44.9,0,67.3,0c2.1,0,4.2,1.9,4.2,4.2c-0.1,11.9,0,23.9,0,35.8C1197.2,65.9,1197.2,66.2,1197.2,66.7z M1193.9,64.2
	c0-11.8,0-23.6,0-35.3c-23,0-46,0-69,0c0,11.8,0,23.6,0,35.3C1147.9,64.2,1170.8,64.2,1193.9,64.2z M1165.5,67c-4.1,0-8.1,0-12.2,0
	c0,0.3,0,0.6,0,0.9c4.1,0,8.2,0,12.3,0C1165.5,67.6,1165.5,67.3,1165.5,67z"/>
<g id="XMLID_10202_">
	<path id="XMLID_10898_" class="st1" d="M1244.8-35.6c0.4,0.4,0.9,0.7,1.3,1.1c3.7,3.6,7.3,7.3,11,11c1.3,1.3,1.3,2,0,3.3
		c-8.5,8.5-17,17-25.6,25.6c-1.3,1.3-2.1,1.3-3.4,0c-3.7-3.7-7.5-7.5-11.2-11.2c-1.1-1.2-1.2-2,0-3.1c8.6-8.6,17.2-17.2,25.8-25.8
		c0.3-0.3,0.6-0.5,0.9-0.8C1244-35.6,1244.4-35.6,1244.8-35.6z M1231.6,3.1c7.5-7.4,15-14.9,22.3-22.3c-4.1-4.1-8.3-8.3-12.4-12.4
		c-7.4,7.4-14.9,14.9-22.3,22.3C1223.3-5.1,1227.5-1,1231.6,3.1z M1225-1.1c-0.1-0.2-0.1-0.3-0.1-0.4c-1-1-1.9-2-2.9-2.9
		c-0.1-0.1-0.6,0-0.8,0.2s-0.1,0.6,0,0.8c0.9,1,1.8,1.9,2.7,2.7c0.1,0.1,0.5,0.2,0.7,0.1C1224.8-0.7,1224.9-0.9,1225-1.1z
		 M1249.6-26c0.6,0,1.3-0.6,1.3-1.2c0-0.7-0.6-1.3-1.2-1.3c-0.6,0-1.3,0.6-1.3,1.2C1248.3-26.7,1249-26.1,1249.6-26z M1227.1,0.6
		c-0.5-0.3-0.7-0.6-0.9-0.5c-0.2,0-0.5,0.4-0.5,0.6c0,0.2,0.4,0.5,0.6,0.5C1226.4,1.3,1226.7,0.9,1227.1,0.6z"/>
	<path id="XMLID_10891_" class="st1" d="M1208.8-1.9c0.5,0,1,0,1.4,0c0.9,8.4,5.5,13.1,14,14c0,0.1,0,0.2,0.1,0.3c0,0.3,0,0.7,0,1
		C1216.9,14.1,1208.4,7.1,1208.8-1.9z"/>
	<path id="XMLID_10890_" class="st1" d="M1209.5,28.3c-0.5,0-1,0-1.5,0c-0.2-8-6.7-13.8-14-13.9c0-0.5,0-1,0-1.4
		C1200.9,12.2,1209.7,18.9,1209.5,28.3z"/>
	<path id="XMLID_10889_" class="st1" d="M1224.2,8.3c0,0.6,0,1.1,0,1.5c-6.1,0.4-12.1-5.4-11.8-11.8c0.5,0,1,0,1.5,0
		c0.1,2.8,1.1,5.2,3,7.2C1219,7.3,1221.4,8.2,1224.2,8.3z"/>
	<path id="XMLID_10888_" class="st1" d="M1205.7,28.3c-0.5,0-1,0-1.4,0c-0.6-6.2-4-9.6-10.3-10.3c0-0.4,0-0.9,0-1.4
		C1200,16,1206.2,22.1,1205.7,28.3z"/>
	<path id="XMLID_10881_" class="st1" d="M1202.2,28.3c-0.5,0-1,0-1.5,0c-0.4-3.9-2.6-6.1-6.6-6.6c0-0.3,0-0.5,0-0.8
		c0-0.2,0-0.5,0-0.7C1197.8,19.9,1202.2,23.4,1202.2,28.3z"/>
	<path id="XMLID_10880_" class="st1" d="M1224.2,6.3c-5.1,0-8.3-4.5-8.1-8.2c0.5,0,1,0,1.5,0c0.4,3.9,2.6,6.1,6.6,6.6
		C1224.2,5.2,1224.2,5.7,1224.2,6.3z"/>
</g>
</svg>
