<?xml version="1.0" encoding="utf-8"?>
<!-- Generator: Adobe Illustrator 19.1.0, SVG Export Plug-In . SVG Version: 6.00 Build 0)  -->
<svg version="1.1" id="Layer_1" xmlns="http://www.w3.org/2000/svg" xmlns:xlink="http://www.w3.org/1999/xlink" x="0px" y="0px"
	 viewBox="-417 218 125 125" style="enable-background:new -417 218 125 125;" xml:space="preserve">
<style type="text/css">
	.st0{fill:#7B7B7B;}
</style>
<g id="XMLID_15932_">
	<g id="XMLID_15929_">
		<path id="XMLID_15930_" class="st0" d="M-362.1,265.2c20.5,12.2,41,24.3,61.8,36.7c-7.8,1.9-15.2,3.7-22.9,5.6
			c7.3,8.5,14.6,17,22,25.5c-2.3,1.9-4.5,3.8-6.8,5.7c-7.1-8.4-14.1-16.9-21.2-25.3c-3.2,6.7-6.4,13.2-9.7,19.9
			c-7.9-22.8-15.7-45.4-23.5-67.9C-362.2,265.4-362.2,265.3-362.1,265.2z"/>
	</g>
	<g id="XMLID_15923_">
		<path id="XMLID_15927_" class="st0" d="M-339.6,223.5c-0.3,2.7-0.5,5.3-0.8,8c-15.5-3-29.5-0.2-41.8,9.6
			c-12.3,9.9-18.2,23-18.5,38.9c-1.3-0.2-2.6-0.4-3.9-0.6c-1.4-0.2-2.6-0.3-4-0.4C-409.3,245.3-376.9,215.6-339.6,223.5z"/>
		<path id="XMLID_15926_" class="st0" d="M-340.8,236.5c-0.3,2.6-0.5,5.3-0.8,7.9c-22.6-5.9-46.5,11.7-46.3,36.9
			c-2.6-0.3-5.3-0.6-8-0.9C-395.8,250.7-367.7,230.1-340.8,236.5z"/>
		<path id="XMLID_15924_" class="st0" d="M-374.9,283.3c-2.4-0.3-4.7-0.6-7.1-0.9c-0.3,0-0.6-0.1-0.8-0.2c-0.8-20,18.7-38,40.9-32.9
			c-0.3,2.6-0.5,5.3-0.8,8.1c-8.3-1.9-15.9-0.6-22.6,4.7C-372,267.6-375,274.7-374.9,283.3z"/>
	</g>
</g>
</svg>
