<?xml version="1.0" encoding="utf-8"?>
<!-- Generator: Adobe Illustrator 19.0.0, SVG Export Plug-In . SVG Version: 6.00 Build 0)  -->
<svg version="1.1" id="Layer_1" xmlns="http://www.w3.org/2000/svg" xmlns:xlink="http://www.w3.org/1999/xlink" x="0px" y="0px"
	 viewBox="1110 -60 150 150" style="enable-background:new 1110 -60 150 150;" xml:space="preserve">
<style type="text/css">
	.st0{fill:none;stroke:#4DBEC0;stroke-width:3;stroke-miterlimit:10;}
	.st1{fill:#4DBEC0;}
	.st2{fill:#FFFFFF;}
</style>
<path id="XMLID_10338_" class="st0" d="M1162.6,25.4c-0.5,15.1,2.9,29.5,7.1,43.8c0.3,1.2,0.6,2.5,2.4,2.4c5.9-0.3,11.3,1.8,16.9,3
	c11.5,2.6,23.1,4.9,35,3.1c11.1-1.7,16.4-6.5,18.1-16.9c0.2-1.5,1.3-2.1,2.2-2.9c4.8-4.4,6.8-9.9,5.3-16.3c-0.4-1.9-0.3-3.2,0.7-4.9
	c3.5-6,3.8-12.1,0-18.1c-0.8-1.2-0.9-2.2-0.5-3.5c3.1-10.6-1.6-17.4-12.5-18.9c-5.1-0.7-10.2,0.3-15.3-0.6c-5.7-0.9-5.7-0.7-3.4-6.2
	c2.1-5.1,5.2-9.7,6.6-15.1c2.6-9.8-0.8-20.9-7.7-25.2c-7.3-4.5-13.7-1.2-14.1,7.4c-0.1,2.8,0.3,5.8-1.1,8.3
	c-4.5,8.2-9.5,16.2-16.7,22.4c-5.5,4.7-9.8,10-13,16.4c-1.1,2.3-2.2,5.1-4.8,5.8c-5,1.5-5.1,5.2-5.1,9.2
	C1162.6,20.8,1162.6,23.1,1162.6,25.4z"/>
<path id="XMLID_10337_" class="st1" d="M1142,9.3c0,0.2,0,0.3,0,0.5c-4.9,0-9.7-0.2-14.6,0.1c-4.7,0.3-7.1,3-7.4,7.7
	c-1.1,19.2,2,37.7,8.1,55.9c1.9,5.7,7.2,8.6,13.2,7.2c7.1-1.6,14.1-3.5,21.2-5.2c2.6-0.6,3.2-1.7,2.4-4.3c-5.9-19.1-9.3-38.5-7-58.6
	c0.3-2.7-0.8-3.3-3.2-3.2C1150.4,9.4,1146.2,9.3,1142,9.3z"/>
<path id="XMLID_10335_" class="st2" d="M1153.8,72.3c-2.6-0.1-5.1-2.6-5.2-5.2c0-2.8,2.6-5.4,5.4-5.4c2.6,0.1,5.1,2.6,5.2,5.2
	C1159.3,69.8,1156.6,72.4,1153.8,72.3z"/>
</svg>
