<?xml version="1.0" encoding="utf-8"?>
<!-- Generator: Adobe Illustrator 19.1.0, SVG Export Plug-In . SVG Version: 6.00 Build 0)  -->
<svg version="1.1" id="Layer_1" xmlns="http://www.w3.org/2000/svg" xmlns:xlink="http://www.w3.org/1999/xlink" x="0px" y="0px"
	 viewBox="-429 231 100 100" style="enable-background:new -429 231 100 100;" xml:space="preserve">
<style type="text/css">
	.st0{fill:#FFFFFF;}
</style>
<g>
	<g id="XMLID_11271_">
		<path id="XMLID_11272_" class="st0" d="M-379,329.2c-6.5,0-12.9-1.2-18.8-3.8c-5.7-2.4-10.9-5.9-15.4-10.4
			c-4.5-4.5-7.9-9.5-10.4-15.4s-3.7-12-3.7-18.6c0-6.5,1.2-12.9,3.8-18.8c2.4-5.7,5.9-10.9,10.4-15.4c4.5-4.5,9.5-7.9,15.4-10.4
			c5.8-2.4,12.1-3.7,18.7-3.7s12.8,1.3,18.7,3.8c5.7,2.4,10.9,5.9,15.4,10.4c4.5,4.5,7.9,9.5,10.4,15.4c2.5,5.9,3.8,12.2,3.8,18.8
			c0,6.5-1.2,12.9-3.8,18.8c-2.4,5.7-5.9,10.9-10.4,15.4c-4.5,4.5-9.5,7.9-15.4,10.4C-366.2,328-372.6,329.2-379,329.2z M-379,237.6
			c-24,0-43.5,19.5-43.5,43.5s19.5,43.5,43.5,43.5s43.5-19.5,43.5-43.5S-355.1,237.6-379,237.6z"/>
	</g>
	<g id="XMLID_11201_">
		<path id="XMLID_11268_" class="st0" d="M-382.1,277.8v-15.7h6.2v15.7h15.9v6h-16v16h-6.2v-16H-398v-6
			C-398,277.8-382.1,277.8-382.1,277.8z"/>
	</g>
</g>
</svg>
