<?xml version="1.0" encoding="utf-8"?>
<!-- Generator: Adobe Illustrator 19.1.0, SVG Export Plug-In . SVG Version: 6.00 Build 0)  -->
<svg version="1.1" id="Layer_1" xmlns="http://www.w3.org/2000/svg" xmlns:xlink="http://www.w3.org/1999/xlink" x="0px" y="0px"
	 viewBox="-172 69 519 77" style="enable-background:new -172 69 519 77;" xml:space="preserve">
<style type="text/css">
	.st0{fill:#F8835E;}
	.st1{fill:#202020;}
	.st2{fill:#7B7B7B;}
	.st3{fill:#4BBFC0;}
	.st4{fill:#A3BB37;}
</style>
<g id="XMLID_1_">
	<path id="XMLID_3_" class="st0" d="M-170.9,71.6c0.1,0.3,0.3,0.5,0.4,0.7c4.3,8.6,8.6,17.2,12.9,25.8c4.8,9.6,9.5,19.1,14.3,28.7
		c2.7,5.4,5.4,10.8,8.1,16.3c0.4,0.8,0.9,1.1,1.7,1.1c2-0.1,4,0,6,0c0.8,0,1.3-0.3,1.6-1c3-6.9,6-13.8,9.1-20.7
		c3.4-7.7,6.7-15.4,10.1-23.1c1.4-3.1,2.8-6.3,4.1-9.4c0.5-1.2,0-2-1.3-2c-5.7,0-11.4,0-17.1,0c-1,0-1.3,0.2-1.6,1.1
		c-2.3,6.9-4.7,13.7-7,20.6c-0.2,0.6-0.5,1.1-1.2,1.1s-1-0.4-1.3-0.9c-4.2-8.9-8.4-17.7-12.5-26.6c-2-4.2-3.9-8.3-5.9-12.5
		c-0.1-0.2-0.2-0.4-0.4-0.7c0.2-0.2,0.4-0.1,0.6-0.1c17.6,0,35.1,0,52.7,0c1.3,0,1.6,0.3,1.6,1.6c0,23.9,0,47.9,0,71.8
		c0,1.3-0.4,1.6-1.6,1.6c-23.9,0-47.9,0-71.8,0c-1.3,0-1.6-0.3-1.6-1.6c0-23.6,0-47.3,0-71C-171,72.1-171.1,71.9-170.9,71.6z"/>
</g>
<g>
	<path class="st2" d="M-92.1,146V70.5h51.7v11.7h-38.5v19.5h37.7v11.7h-37.7v21.1h38.5V146H-92.1z"/>
	<path class="st2" d="M25.9,146l-39.4-54v54h-13.2V70.5h13.6l38.6,52.3V70.5h13.2V146H25.9z"/>
	<path class="st2" d="M51.5,108.3c0-23.8,17.7-39.1,39.6-39.1c14.7,0,24.3,7,30.3,15.6l-10.8,6.2C106.6,85.4,99.5,81,91.1,81
		c-14.9,0-26,11.3-26,27.3c0,15.7,11.1,27.3,26,27.3c7.7,0,14.5-3.5,17.9-6.8v-11.7H86.4v-11.7h35.8v28.2c-7.4,8.3-18,13.8-31,13.8
		C69.1,147.5,51.5,132,51.5,108.3z"/>
	<path class="st2" d="M188.4,146l-5.5-14.6h-34.6l-5.5,14.6h-15.1l29.7-75.5h16.5l29.7,75.5H188.4z M165.5,83.7l-13.6,36h27.2
		L165.5,83.7z"/>
	<path class="st2" d="M204.3,108.3c0-23.8,17.7-39.1,39.6-39.1c14.7,0,24.3,7,30.3,15.6l-10.8,6.2C259.5,85.4,252.4,81,244,81
		c-14.9,0-26,11.3-26,27.3c0,15.7,11.1,27.3,26,27.3c7.7,0,14.5-3.5,17.9-6.8v-11.7h-22.6v-11.7H275v28.2c-7.4,8.3-18,13.8-31,13.8
		C222,147.5,204.3,132,204.3,108.3z"/>
	<path class="st2" d="M288.8,146V70.5h51.7v11.7h-38.5v19.5h37.7v11.7h-37.7v21.1h38.5V146H288.8z"/>
</g>
</svg>
