<?xml version="1.0" encoding="utf-8"?>
<!-- Generator: Adobe Illustrator 19.0.0, SVG Export Plug-In . SVG Version: 6.00 Build 0)  -->
<svg version="1.1" id="Layer_1" xmlns="http://www.w3.org/2000/svg" xmlns:xlink="http://www.w3.org/1999/xlink" x="0px" y="0px"
	 viewBox="1060 -110 250 250" style="enable-background:new 1060 -110 250 250;" xml:space="preserve">
<style type="text/css">
	.st0{fill:#FFFFFF;}
	.st1{fill:#F2F2F2;}
	.st2{fill:#C0BFBF;}
	.st3{fill:#E5E5E5;}
	.st4{fill:#010101;}
</style>
<g id="XMLID_2_">
	<path id="XMLID_10335_" class="st0" d="M1124.2,133.5c-5.3,0-10.5-4.9-10.7-10.2c-0.2-5.6,5-11.2,10.6-11.2c5.3,0,10.6,5,10.8,10.3
		C1135.1,128,1129.8,133.5,1124.2,133.5z"/>
	<g id="XMLID_1_">
		<polygon id="XMLID_14868_" class="st1" points="1297.9,-45.6 1295,108.2 1148.2,141.1 1124.7,49.7 1146.6,-14.9 		"/>
		<polygon id="XMLID_12513_" class="st2" points="1146.6,-14.9 1148.2,141.1 1076.6,72.4 1075,-76.5 		"/>
		<polygon id="XMLID_12508_" class="st3" points="1297.9,-45.6 1146.6,-14.9 1075,-76.5 1216.2,-107.9 		"/>
	</g>
	<path id="XMLID_14876_" class="st4" d="M1287.7,35.6c0,7.5,0.1,14.9-0.1,22.5c-0.1,1.9-1,4.5-2.3,6.1c-10.2,12.8-20.6,25.4-31.1,38
		c-1.3,1.6-3.6,2.9-5.5,3.3c-14.6,3-29.3,5.8-43.9,8.4c-1.8,0.3-4.1-0.2-5.4-1.3c-10.5-8.5-20.8-17.2-31-26c-1.2-1-2.1-2.8-2.2-4.4
		c-0.3-14.9-0.3-29.8-0.5-44.7c0-3.1,0.9-5.5,3-8.1c10.3-12.4,20.3-24.9,30.7-37.2c1.6-1.9,4.3-3.6,6.5-4.1
		c14.2-3,28.5-5.7,42.7-8.2c2.1-0.4,4.6,0.3,6.2,1.5c10.2,8.3,20.1,16.9,30.2,25.3c2.2,1.8,3,3.9,2.9,7
		C1287.7,20.9,1287.8,28.2,1287.7,35.6C1287.7,35.6,1287.7,35.6,1287.7,35.6z M1284.3,36.2C1284.3,36.2,1284.3,36.2,1284.3,36.2
		c0-7.2,0.1-14.4-0.1-21.6c0-1.6-0.5-3.5-1.6-4.4c-9.8-8.4-19.7-16.6-29.7-24.7c-1.3-1.1-3.6-1.6-5.5-1.3c-13.6,2.4-27.1,5-40.7,7.8
		c-1.8,0.4-4.1,1.8-5.4,3.4c-9.8,11.6-19.4,23.4-28.8,35.2c-1.4,1.7-2.3,4.4-2.3,6.5c-0.3,14.1-0.4,28.1-0.3,42
		c0,1.8,0.9,3.8,2.1,4.9c9.5,8.3,19.2,16.5,29,24.5c1.3,1.1,3.6,1.6,5.4,1.3c13.7-2.4,27.4-5,41.1-7.8c1.9-0.4,4.2-1.8,5.5-3.3
		c9.8-11.6,19.4-23.4,28.9-35.2c1.4-1.7,2.3-4.4,2.4-6.5C1284.4,50,1284.3,43.1,1284.3,36.2z"/>
	<g id="XMLID_14873_">
		<path id="XMLID_14874_" class="st4" d="M1217,68.8l8.9-1.8l0.1-29.3l-8.5,4.5l0-10.5l19.6-11.3l-0.1,44.3l8.3-1.7l0,9.9l-28.3,5.9
			L1217,68.8z"/>
	</g>
</g>
</svg>
