<?xml version="1.0" encoding="utf-8"?>
<!-- Generator: Adobe Illustrator 19.1.0, SVG Export Plug-In . SVG Version: 6.00 Build 0)  -->
<svg version="1.1" id="Layer_1" xmlns="http://www.w3.org/2000/svg" xmlns:xlink="http://www.w3.org/1999/xlink" x="0px" y="0px"
	 viewBox="-160 -33 519 77" style="enable-background:new -160 -33 519 77;" xml:space="preserve">
<style type="text/css">
	.st0{fill:#F8835E;}
	.st1{fill:#202020;}
	.st2{fill:#7B7B7B;}
	.st3{fill:#4BBFC0;}
	.st4{fill:#A3BB37;}
</style>
<g id="XMLID_2_">
	<path id="XMLID_12_" class="st0" d="M-158.9-30.4c0.1,0.3,0.3,0.5,0.4,0.7c4.3,8.6,8.6,17.2,12.9,25.8c4.8,9.6,9.5,19.1,14.3,28.7
		c2.7,5.4,5.4,10.8,8.1,16.3c0.4,0.8,0.9,1.1,1.7,1.1c2-0.1,4,0,6,0c0.8,0,1.3-0.3,1.6-1c3-6.9,6-13.8,9.1-20.7
		c3.4-7.7,6.7-15.4,10.1-23.1c1.4-3.1,2.8-6.3,4.1-9.4c0.5-1.2,0-2-1.3-2c-5.7,0-11.4,0-17.1,0c-1,0-1.3,0.2-1.6,1.1
		c-2.3,6.9-4.7,13.7-7,20.6c-0.2,0.6-0.5,1.1-1.2,1.1c-0.7,0-1-0.4-1.3-0.9c-4.2-8.9-8.4-17.7-12.5-26.6c-2-4.2-3.9-8.3-5.9-12.5
		c-0.1-0.2-0.2-0.4-0.4-0.7c0.2-0.2,0.4-0.1,0.6-0.1c17.6,0,35.1,0,52.7,0c1.3,0,1.6,0.3,1.6,1.6c0,23.9,0,47.9,0,71.8
		c0,1.3-0.4,1.6-1.6,1.6c-23.9,0-47.9,0-71.8,0c-1.3,0-1.6-0.3-1.6-1.6c0-23.6,0-47.3,0-71C-159-29.9-159.1-30.1-158.9-30.4z"/>
</g>
<g>
	<path class="st1" d="M-80.1,44v-75.5h51.7v11.7h-38.5v19.5h37.7v11.7h-37.7v21.1h38.5V44H-80.1z"/>
	<path class="st1" d="M37.9,44L-1.5-10v54h-13.2v-75.5h13.6l38.6,52.3v-52.3h13.2V44H37.9z"/>
	<path class="st1" d="M63.5,6.3c0-23.8,17.7-39.1,39.6-39.1c14.7,0,24.3,7,30.3,15.6l-10.8,6.2c-4.1-5.7-11.2-10.1-19.6-10.1
		c-14.9,0-26,11.3-26,27.3c0,15.7,11.1,27.3,26,27.3c7.7,0,14.5-3.5,17.9-6.8V15.1H98.4V3.5h35.8v28.2c-7.4,8.3-18,13.8-31,13.8
		C81.1,45.5,63.5,30,63.5,6.3z"/>
	<path class="st1" d="M200.4,44l-5.5-14.6h-34.6L154.6,44h-15.1l29.7-75.5h16.5L215.4,44H200.4z M177.5-18.3l-13.6,36h27.2
		L177.5-18.3z"/>
	<path class="st1" d="M216.3,6.3c0-23.8,17.7-39.1,39.6-39.1c14.7,0,24.3,7,30.3,15.6l-10.8,6.2C271.5-16.6,264.4-21,256-21
		c-14.9,0-26,11.3-26,27.3c0,15.7,11.1,27.3,26,27.3c7.7,0,14.5-3.5,17.9-6.8V15.1h-22.6V3.5H287v28.2c-7.4,8.3-18,13.8-31,13.8
		C234,45.5,216.3,30,216.3,6.3z"/>
	<path class="st1" d="M300.8,44v-75.5h51.7v11.7h-38.5v19.5h37.7v11.7h-37.7v21.1h38.5V44H300.8z"/>
</g>
</svg>
