<?xml version="1.0" encoding="utf-8"?>
<!-- Generator: Adobe Illustrator 19.1.0, SVG Export Plug-In . SVG Version: 6.00 Build 0)  -->
<svg version="1.1" id="Layer_1" xmlns="http://www.w3.org/2000/svg" xmlns:xlink="http://www.w3.org/1999/xlink" x="0px" y="0px"
	 viewBox="512 187.8 601.9 79.8" style="enable-background:new 512 187.8 601.9 79.8;" xml:space="preserve">
<style type="text/css">
	.st0{fill:#F8835E;}
	.st1{fill:#202020;}
	.st2{fill:#7B7B7B;}
	.st3{fill:#4BBFC0;}
	.st4{fill:#A3BB37;}
</style>
<g id="XMLID_10_">
	<path id="XMLID_11_" class="st3" d="M513,191.9c0.1,0.3,0.3,0.5,0.4,0.7c4.3,8.6,8.6,17.2,12.9,25.8c4.8,9.6,9.5,19.1,14.3,28.7
		c2.7,5.4,5.4,10.8,8.1,16.3c0.4,0.8,0.9,1.1,1.7,1.1c2-0.1,4,0,6,0c0.8,0,1.3-0.3,1.6-1c3-6.9,6-13.8,9.1-20.7
		c3.4-7.7,6.7-15.4,10.1-23.1c1.4-3.1,2.8-6.3,4.1-9.4c0.5-1.2,0-2-1.3-2c-5.7,0-11.4,0-17.1,0c-1,0-1.3,0.2-1.6,1.1
		c-2.3,6.9-4.7,13.7-7,20.6c-0.2,0.6-0.5,1.1-1.2,1.1s-1-0.4-1.3-0.9c-4.2-8.9-8.4-17.7-12.5-26.6c-2-4.2-3.9-8.3-5.9-12.5
		c-0.1-0.2-0.2-0.4-0.4-0.7c0.2-0.2,0.4-0.1,0.6-0.1c17.6,0,35.1,0,52.7,0c1.3,0,1.6,0.3,1.6,1.6c0,23.9,0,47.9,0,71.8
		c0,1.3-0.4,1.6-1.6,1.6c-23.9,0-47.9,0-71.8,0c-1.3,0-1.6-0.3-1.6-1.6c0-23.6,0-47.3,0-71C512.9,192.4,512.8,192.2,513,191.9z"/>
</g>
<g>
	<path class="st2" d="M591.7,228.3c0-23.5,17.5-39.4,40-39.4c15.3,0,24.9,7.9,30.5,17l-11.3,5.9c-3.7-6.4-11.1-11.1-19.2-11.1
		c-15.1,0-26.3,11.4-26.3,27.5c0,15.9,11.2,27.5,26.3,27.5c8.1,0,15.5-4.8,19.2-11.1l11.4,5.7c-5.8,9.1-15.3,17.3-30.6,17.3
		C609.2,267.7,591.7,251.7,591.7,228.3z"/>
	<path class="st2" d="M669.6,228.3c0-22.7,16.1-39.4,39-39.4c22.7,0,39,16.7,39,39.4s-16.2,39.4-39,39.4
		C685.7,267.7,669.6,251,669.6,228.3z M733.8,228.3c0-15.8-9.9-27.5-25.2-27.5c-15.4,0-25.2,11.8-25.2,27.5
		c0,15.7,9.8,27.5,25.2,27.5C723.9,255.8,733.8,244,733.8,228.3z"/>
	<path class="st2" d="M813.5,266.4l-39.8-54.5v54.5h-13.4v-76.2H774l39,52.8v-52.8h13.4v76.2H813.5z"/>
	<path class="st2" d="M864.6,266.4l-29.9-76.2h15.2l23.1,61.6l23.1-61.6h15.2l-29.9,76.2H864.6z"/>
	<path class="st2" d="M919.5,266.4v-76.2h52.2v11.8h-38.8v19.6h38v11.8h-38v21.3h38.8v11.8H919.5z"/>
	<path class="st2" d="M1028.9,266.4l-16.8-28.4h-13.4v28.4h-13.4v-76.2h33.5c15.1,0,25,9.7,25,23.9c0,13.5-8.9,20.9-18.2,22.4
		l18.7,29.9H1028.9z M1030.2,213.9c0-7.3-5.5-12-13-12h-18.4v24.2h18.4C1024.7,226.1,1030.2,221.3,1030.2,213.9z"/>
	<path class="st2" d="M1074.3,266.4v-64.4h-23.1v-11.8h59.5v11.8h-23.1v64.4H1074.3z"/>
</g>
</svg>
