<?xml version="1.0" encoding="utf-8"?>
<!-- Generator: Adobe Illustrator 19.1.0, SVG Export Plug-In . SVG Version: 6.00 Build 0)  -->
<svg version="1.1" id="Layer_1" xmlns="http://www.w3.org/2000/svg" xmlns:xlink="http://www.w3.org/1999/xlink" x="0px" y="0px"
	 viewBox="0 0 150 38.3" style="enable-background:new 0 0 150 38.3;" xml:space="preserve">
<style type="text/css">
	.st0{fill:#3A3A3A;}
	.st1{fill-rule:evenodd;clip-rule:evenodd;fill:#F4815D;}
</style>
<g>
	<path class="st0" d="M50.1,27.6H38.2c-0.5,0-0.8-0.3-0.8-0.8V5.1c0-0.5,0.3-0.8,0.8-0.8h11.8c0.5,0,0.7,0.3,0.7,0.8v2.5
		c0,0.5-0.2,0.8-0.7,0.8h-7.6c-0.3,0-0.4,0.1-0.4,0.4v4.7c0,0.3,0.1,0.4,0.4,0.4h6.2c0.5,0,0.8,0.3,0.8,0.8v2.5
		c0,0.5-0.3,0.8-0.8,0.8h-6.2c-0.3,0-0.4,0.1-0.4,0.4v5c0,0.3,0.1,0.4,0.4,0.4h7.6c0.5,0,0.7,0.3,0.7,0.8v2.5
		C50.8,27.4,50.6,27.6,50.1,27.6z"/>
	<path class="st0" d="M58.3,27.6h-3.1c-0.5,0-0.8-0.3-0.8-0.8V9.9c0-0.5,0.3-0.8,0.8-0.8h3.1c0.5,0,0.8,0.3,0.8,0.8v1.2h0.1
		c0.5-1.3,1.7-2,3.5-2h1.2c3.8,0,5.7,2,5.7,5.9v11.8c0,0.5-0.3,0.8-0.8,0.8h-3c-0.5,0-0.8-0.3-0.8-0.8V15.3c0-0.8-0.2-1.3-0.5-1.6
		c-0.3-0.3-0.9-0.5-1.6-0.5h-1.3c-1.7,0-2.5,0.9-2.5,2.8v11C59.1,27.4,58.8,27.6,58.3,27.6z"/>
	<path class="st0" d="M79.9,26.8h-1.2c-1.9,0-3.3-0.5-4.2-1.5c-1-1-1.4-2.5-1.4-4.4v-5.8c0-1.9,0.5-3.4,1.6-4.4c1-1,2.5-1.5,4.4-1.5
		h8.4c0.5,0,0.8,0.3,0.8,0.8v17.8c0,1.9-0.5,3.3-1.6,4.3c-1,1-2.5,1.5-4.4,1.5h-6.9c-0.3,0-0.5-0.1-0.6-0.2
		c-0.1-0.1-0.2-0.3-0.2-0.6v-2.5c0-0.5,0.3-0.8,0.8-0.8h6.2c0.8,0,1.3-0.2,1.6-0.5c0.3-0.3,0.5-0.9,0.5-1.6v-2.7h-0.1
		c-0.3,0.7-0.7,1.1-1.4,1.5C81.4,26.6,80.6,26.8,79.9,26.8z M83.6,20.1v-6.5c0-0.3-0.1-0.4-0.4-0.4h-3.4c-0.8,0-1.3,0.2-1.6,0.5
		c-0.3,0.3-0.5,0.9-0.5,1.6v5.4c0,0.8,0.2,1.3,0.5,1.6c0.3,0.3,0.9,0.5,1.6,0.5h1.3C82.8,22.8,83.6,21.9,83.6,20.1z"/>
	<path class="st0" d="M98.6,27.6h-0.9c-1.9,0-3.4-0.5-4.4-1.5c-1-1-1.6-2.5-1.6-4.4v-6.7c0-1.9,0.5-3.4,1.6-4.4c1-1,2.5-1.5,4.4-1.5
		h8.4c0.5,0,0.8,0.3,0.8,0.8v16.9c0,0.5-0.3,0.8-0.8,0.8h-3c-0.5,0-0.8-0.3-0.8-0.8v-1.2h-0.1c-0.3,0.7-0.7,1.1-1.4,1.5
		C100.1,27.5,99.4,27.6,98.6,27.6z M102.3,20.9v-7.3c0-0.3-0.1-0.4-0.4-0.4h-3.4c-0.8,0-1.3,0.2-1.6,0.5c-0.3,0.3-0.5,0.9-0.5,1.6
		v6.2c0,0.8,0.2,1.3,0.5,1.6c0.3,0.3,0.9,0.5,1.6,0.5h1.3C101.5,23.6,102.3,22.7,102.3,20.9z"/>
	<path class="st0" d="M117.4,26.8h-1.2c-1.9,0-3.3-0.5-4.2-1.5c-1-1-1.4-2.5-1.4-4.4v-5.8c0-1.9,0.5-3.4,1.6-4.4
		c1-1,2.5-1.5,4.4-1.5h8.4c0.5,0,0.8,0.3,0.8,0.8v17.8c0,1.9-0.5,3.3-1.6,4.3c-1,1-2.5,1.5-4.4,1.5h-6.9c-0.3,0-0.5-0.1-0.6-0.2
		c-0.1-0.1-0.2-0.3-0.2-0.6v-2.5c0-0.5,0.3-0.8,0.8-0.8h6.2c0.8,0,1.3-0.2,1.6-0.5c0.3-0.3,0.5-0.9,0.5-1.6v-2.7H121
		c-0.3,0.7-0.7,1.1-1.4,1.5C118.9,26.6,118.2,26.8,117.4,26.8z M121.1,20.1v-6.5c0-0.3-0.1-0.4-0.4-0.4h-3.4c-0.8,0-1.3,0.2-1.6,0.5
		c-0.3,0.3-0.5,0.9-0.5,1.6v5.4c0,0.8,0.2,1.3,0.5,1.6c0.3,0.3,0.9,0.5,1.6,0.5h1.3C120.3,22.8,121.1,21.9,121.1,20.1z"/>
	<path class="st0" d="M143.3,27.6h-8c-1.9,0-3.4-0.5-4.4-1.5c-1-1-1.6-2.5-1.6-4.4v-6.7c0-1.9,0.5-3.4,1.6-4.4c1-1,2.5-1.5,4.4-1.5
		h2.9c1.9,0,3.4,0.5,4.4,1.5c1,1,1.6,2.5,1.6,4.4v4.6c0,0.5-0.3,0.8-0.8,0.8h-9.1c-0.3,0-0.4,0.1-0.4,0.4v0.8c0,0.7,0.2,1.3,0.5,1.6
		c0.3,0.3,0.9,0.5,1.6,0.5h7.3c0.5,0,0.8,0.3,0.8,0.8v2.4c0,0.3-0.1,0.5-0.2,0.6C143.8,27.6,143.6,27.6,143.3,27.6z M134.3,17.4h4.9
		c0.3,0,0.4-0.1,0.4-0.4v-1.7c0-0.8-0.2-1.3-0.5-1.6c-0.3-0.3-0.9-0.5-1.6-0.5H136c-0.8,0-1.3,0.2-1.6,0.5c-0.3,0.3-0.5,0.9-0.5,1.6
		V17C133.9,17.2,134,17.4,134.3,17.4z"/>
</g>
<path class="st1" d="M31.4,4.3c-5.2,0-10.4,0-15.6,0c-0.2,0-0.3,0-0.6,0c0.1,0.2,0.1,0.3,0.2,0.4c1.8,3.9,3.7,7.9,5.6,11.8
	c0.1,0.2,0.3,0.3,0.5,0.4c0.1-0.2,0.4-0.3,0.4-0.5c0.7-2,1.4-4,2-6c0.1-0.4,0.3-0.5,0.7-0.5c1.7,0,3.3,0,5,0c0.5,0,0.7,0.2,0.4,0.7
	c-2.4,5.4-4.7,10.8-7.1,16.2c-0.1,0.3-0.3,0.4-0.6,0.4c-0.5,0-1,0-1.5,0c-0.4,0-0.6-0.2-0.8-0.5c-0.9-1.9-1.9-3.8-2.8-5.7
	c-2.4-4.7-4.7-9.5-7.1-14.2c-0.3-0.6-0.6-1.3-1-1.9c0,0-0.1,0-0.1,0C9,7,9,9.2,9,11.4c0,0,0,0,0,0V17c0,0,0,0,0,0c0,1.7,0,3.4,0,5
	c0,0,0,0,0,0v4c0,0,0,0,0,0c0,0.2,0,0.4,0,0.5c0,0.9,0.1,0.9,0.9,0.9c7.1,0,14.3,0,21.4,0c0.8,0,0.8,0,0.8-0.8c0-7.2,0-14.4,0-21.6
	C32.2,4.4,32.1,4.3,31.4,4.3z"/>
</svg>
