<?xml version="1.0" encoding="utf-8"?>
<!-- Generator: Adobe Illustrator 19.1.0, SVG Export Plug-In . SVG Version: 6.00 Build 0)  -->
<svg version="1.1" id="Layer_1" xmlns="http://www.w3.org/2000/svg" xmlns:xlink="http://www.w3.org/1999/xlink" x="0px" y="0px"
	 viewBox="0 0 150 38.3" style="enable-background:new 0 0 150 38.3;" xml:space="preserve">
<style type="text/css">
	.st0{fill:#3A3A3A;}
	.st1{fill-rule:evenodd;clip-rule:evenodd;fill:#A2BB3A;}
</style>
<g>
	<g>
		<path class="st0" d="M44.9,34.9h-3.8c-0.6,0-0.9-0.3-0.9-0.9V7.2c0-0.6,0.3-0.9,0.9-0.9h10.6c2.3,0,4.1,0.6,5.4,1.9
			c1.3,1.3,2,3.1,2,5.4V17c0,3.3-1.3,5.6-4,6.7v0.2l4.8,9.9c0.3,0.7,0,1.1-0.8,1.1h-3.6c-0.5,0-0.9-0.1-1.2-0.2
			c-0.2-0.1-0.4-0.4-0.6-0.8l-4.4-9.6h-3c-0.4,0-0.5,0.2-0.5,0.5v9.1C45.9,34.5,45.5,34.9,44.9,34.9z M46.3,19.8h4.4
			c0.9,0,1.6-0.2,2.1-0.6c0.4-0.4,0.7-1,0.7-1.9v-3.5c0-0.9-0.2-1.6-0.7-2c-0.4-0.4-1.1-0.6-2.1-0.6h-4.4c-0.3,0-0.5,0.2-0.5,0.5
			v7.6C45.9,19.6,46,19.8,46.3,19.8z"/>
		<path class="st0" d="M80.8,34.9H71c-2.3,0-4.1-0.6-5.4-1.9c-1.3-1.2-1.9-3-1.9-5.4v-8.2c0-2.3,0.6-4.1,1.9-5.4
			c1.3-1.2,3.1-1.9,5.4-1.9h3.5c2.3,0,4.1,0.6,5.4,1.9c1.3,1.2,1.9,3,1.9,5.4v5.6c0,0.6-0.3,0.9-0.9,0.9H69.7
			c-0.4,0-0.5,0.2-0.5,0.5v1c0,0.9,0.2,1.6,0.6,2c0.4,0.4,1.1,0.6,2,0.6h9c0.6,0,0.9,0.3,0.9,1V34c0,0.3-0.1,0.6-0.2,0.7
			C81.4,34.8,81.1,34.9,80.8,34.9z M69.7,22.2h6c0.3,0,0.5-0.2,0.5-0.5v-2.1c0-0.9-0.2-1.6-0.6-2c-0.4-0.4-1.1-0.6-2-0.6h-1.9
			c-0.9,0-1.6,0.2-2,0.6c-0.4,0.4-0.6,1.1-0.6,2v2.1C69.2,22.1,69.4,22.2,69.7,22.2z"/>
		<path class="st0" d="M94,34.9h-1.1c-2.3,0-4.1-0.6-5.4-1.9c-1.3-1.2-1.9-3-1.9-5.4v-8.2c0-2.3,0.6-4.1,1.9-5.4
			c1.3-1.2,3.1-1.9,5.4-1.9h10.3c0.7,0,1,0.3,1,0.9v20.8c0,0.6-0.3,0.9-1,0.9h-3.7c-0.6,0-0.9-0.3-0.9-0.9v-1.5h-0.2
			c-0.3,0.8-0.9,1.4-1.7,1.8C95.8,34.7,94.9,34.9,94,34.9z M98.5,26.6v-9c0-0.3-0.2-0.5-0.5-0.5h-4.2c-0.9,0-1.6,0.2-2,0.6
			c-0.4,0.4-0.6,1.1-0.6,2v7.6c0,0.9,0.2,1.6,0.6,2c0.4,0.4,1.1,0.6,2,0.6h1.6C97.5,30,98.5,28.8,98.5,26.6z"/>
		<path class="st0" d="M123.5,30.9V34c0,0.3-0.1,0.6-0.2,0.7c-0.1,0.1-0.4,0.2-0.7,0.2h-6.6c-2.3,0-4.1-0.6-5.4-1.9
			c-1.3-1.2-1.9-3-1.9-5.4v-8.2c0-2.3,0.6-4.1,1.9-5.4c1.3-1.2,3.1-1.9,5.4-1.9h6.6c0.6,0,0.9,0.3,0.9,0.9v3.1
			c0,0.3-0.1,0.6-0.2,0.7c-0.1,0.1-0.4,0.2-0.7,0.2h-5.7c-0.9,0-1.6,0.2-2,0.6c-0.4,0.4-0.6,1.1-0.6,2v7.6c0,0.9,0.2,1.6,0.6,2
			c0.4,0.4,1.1,0.6,2,0.6h5.7C123.2,30,123.5,30.3,123.5,30.9z"/>
		<path class="st0" d="M132,34.9h-3.8c-0.6,0-0.9-0.3-0.9-0.9V4.5c0-0.6,0.3-0.9,0.9-0.9h3.8c0.6,0,0.9,0.3,0.9,0.9v10h0.2
			c0.7-1.6,2.1-2.4,4.4-2.4h1.4c4.7,0,7,2.4,7,7.2v14.5c0,0.6-0.3,0.9-1,0.9h-3.7c-0.6,0-0.9-0.3-0.9-0.9V19.7c0-0.9-0.2-1.6-0.6-2
			c-0.4-0.4-1.1-0.6-2-0.6H136c-2,0-3.1,1.1-3.1,3.4v13.5C133,34.5,132.6,34.9,132,34.9z"/>
	</g>
	<path class="st1" d="M32.7,6.2c-6.4,0-12.8,0-19.2,0c-0.2,0-0.4,0-0.7,0C12.9,6.4,13,6.6,13,6.7c2.3,4.8,4.5,9.6,6.8,14.5
		c0.1,0.2,0.4,0.4,0.6,0.5c0.2-0.2,0.5-0.4,0.5-0.6c0.9-2.5,1.7-4.9,2.5-7.4c0.1-0.4,0.4-0.6,0.9-0.6c2,0,4.1,0,6.2,0
		c0.7,0,0.8,0.2,0.5,0.8c-2.9,6.6-5.8,13.3-8.7,19.9c-0.2,0.4-0.4,0.5-0.8,0.5c-0.6,0-1.2,0-1.8,0c-0.5,0-0.8-0.2-1-0.6
		c-1.1-2.3-2.3-4.7-3.5-7c-2.9-5.8-5.8-11.6-8.7-17.5C6.2,8.5,5.8,7.7,5.4,6.9c0,0-0.1,0-0.1,0c0,2.7,0,5.3,0,8c0,0,0,0,0,0v6.9
		c0,0,0,0,0,0c0,2.1,0,4.1,0,6.2c0,0,0,0,0,0v5c0,0,0,0,0,0c0,0.3,0,0.4,0,0.6c0,1.1,0.1,1.1,1.1,1.1c8.8,0,17.6,0,26.3,0
		c1,0,1-0.1,1-1c0-8.8,0-17.7,0-26.5C33.7,6.3,33.6,6.2,32.7,6.2z"/>
</g>
</svg>
