<?xml version="1.0" encoding="utf-8"?>
<!-- Generator: Adobe Illustrator 19.1.0, SVG Export Plug-In . SVG Version: 6.00 Build 0)  -->
<svg version="1.1" id="Layer_1" xmlns="http://www.w3.org/2000/svg" xmlns:xlink="http://www.w3.org/1999/xlink" x="0px" y="0px"
	 viewBox="-238 62.7 150 38.3" style="enable-background:new -238 62.7 150 38.3;" xml:space="preserve">
<style type="text/css">
	.st0{fill:#3A3A3A;}
	.st1{fill-rule:evenodd;clip-rule:evenodd;fill:#A2BB3A;}
</style>
<g>
	<g>
		<path class="st0" d="M-188,94.6h-3.1c-0.5,0-0.8-0.3-0.8-0.8V72c0-0.5,0.3-0.8,0.8-0.8h8.6c1.9,0,3.4,0.5,4.4,1.6
			c1.1,1,1.6,2.5,1.6,4.4v2.8c0,2.7-1.1,4.6-3.2,5.4v0.1l3.9,8.1c0.2,0.6,0,0.9-0.6,0.9h-2.9c-0.4,0-0.8,0-0.9-0.1
			c-0.2-0.1-0.4-0.3-0.5-0.6l-3.6-7.8h-2.4c-0.3,0-0.4,0.1-0.4,0.4v7.4C-187.2,94.4-187.5,94.6-188,94.6z M-186.8,82.3h3.6
			c0.8,0,1.3-0.2,1.7-0.5c0.4-0.3,0.5-0.9,0.5-1.6v-2.8c0-0.7-0.2-1.3-0.5-1.6c-0.4-0.3-0.9-0.5-1.7-0.5h-3.6
			c-0.3,0-0.4,0.1-0.4,0.4v6.2C-187.2,82.2-187.1,82.3-186.8,82.3z"/>
		<path class="st0" d="M-158.7,94.6h-8c-1.9,0-3.4-0.5-4.4-1.5c-1-1-1.6-2.5-1.6-4.4V82c0-1.9,0.5-3.4,1.6-4.4c1-1,2.5-1.5,4.4-1.5
			h2.9c1.9,0,3.4,0.5,4.4,1.5c1,1,1.6,2.5,1.6,4.4v4.6c0,0.5-0.3,0.8-0.8,0.8h-9.1c-0.3,0-0.4,0.1-0.4,0.4v0.8
			c0,0.8,0.2,1.3,0.5,1.6c0.3,0.3,0.9,0.5,1.7,0.5h7.3c0.5,0,0.8,0.3,0.8,0.8v2.4c0,0.3-0.1,0.5-0.2,0.6
			C-158.2,94.6-158.4,94.6-158.7,94.6z M-167.7,84.3h4.9c0.3,0,0.4-0.1,0.4-0.4v-1.7c0-0.8-0.2-1.3-0.5-1.6
			c-0.3-0.3-0.9-0.5-1.6-0.5h-1.5c-0.8,0-1.3,0.2-1.6,0.5c-0.3,0.3-0.5,0.9-0.5,1.6v1.7C-168.1,84.2-168,84.3-167.7,84.3z"/>
		<path class="st0" d="M-147.9,94.6h-0.9c-1.9,0-3.4-0.5-4.4-1.5c-1-1-1.6-2.5-1.6-4.4V82c0-1.9,0.5-3.4,1.6-4.4
			c1-1,2.5-1.5,4.4-1.5h8.4c0.5,0,0.8,0.3,0.8,0.8v17c0,0.5-0.3,0.8-0.8,0.8h-3.1c-0.5,0-0.8-0.3-0.8-0.8v-1.2h-0.1
			c-0.3,0.7-0.7,1.1-1.4,1.5C-146.5,94.5-147.2,94.6-147.9,94.6z M-144.2,87.9v-7.4c0-0.3-0.1-0.4-0.4-0.4h-3.4
			c-0.8,0-1.3,0.2-1.6,0.5c-0.3,0.3-0.5,0.9-0.5,1.7v6.2c0,0.8,0.2,1.3,0.5,1.7c0.3,0.3,0.9,0.5,1.6,0.5h1.3
			C-145,90.6-144.2,89.7-144.2,87.9z"/>
		<path class="st0" d="M-123.8,91.4v2.5c0,0.3-0.1,0.5-0.2,0.6c-0.1,0.1-0.3,0.2-0.6,0.2h-5.4c-1.9,0-3.4-0.5-4.4-1.5
			c-1-1-1.6-2.5-1.6-4.4V82c0-1.9,0.5-3.4,1.6-4.4c1-1,2.5-1.5,4.4-1.5h5.4c0.5,0,0.8,0.3,0.8,0.8v2.5c0,0.3-0.1,0.5-0.2,0.6
			c-0.1,0.1-0.3,0.2-0.6,0.2h-4.7c-0.8,0-1.3,0.2-1.6,0.5c-0.3,0.3-0.5,0.9-0.5,1.7v6.2c0,0.8,0.2,1.3,0.5,1.7
			c0.3,0.3,0.9,0.5,1.6,0.5h4.7C-124.1,90.6-123.8,90.9-123.8,91.4z"/>
		<path class="st0" d="M-116.8,94.6h-3.1c-0.5,0-0.8-0.3-0.8-0.8v-24c0-0.5,0.3-0.8,0.8-0.8h3.1c0.5,0,0.8,0.3,0.8,0.8v8.2h0.1
			c0.5-1.3,1.7-2,3.6-2h1.2c3.8,0,5.7,2,5.7,5.9v11.8c0,0.5-0.3,0.8-0.8,0.8h-3.1c-0.5,0-0.8-0.3-0.8-0.8V82.2
			c0-0.8-0.2-1.3-0.5-1.7c-0.3-0.3-0.9-0.5-1.7-0.5h-1.3c-1.7,0-2.5,0.9-2.5,2.8v11C-116.1,94.4-116.3,94.6-116.8,94.6z"/>
	</g>
	<path class="st1" d="M-198,71.2c-5.2,0-10.5,0-15.7,0c-0.2,0-0.3,0-0.6,0c0.1,0.2,0.1,0.3,0.2,0.4c1.9,3.9,3.7,7.9,5.6,11.8
		c0.1,0.2,0.3,0.3,0.5,0.4c0.1-0.2,0.4-0.3,0.4-0.5c0.7-2,1.4-4,2.1-6c0.1-0.4,0.3-0.5,0.7-0.5c1.7,0,3.4,0,5,0
		c0.5,0,0.7,0.2,0.4,0.7c-2.4,5.4-4.7,10.8-7.1,16.3c-0.1,0.3-0.3,0.4-0.6,0.4c-0.5,0-1,0-1.5,0c-0.4,0-0.7-0.2-0.8-0.5
		c-0.9-1.9-1.9-3.8-2.8-5.7c-2.4-4.8-4.7-9.5-7.1-14.3c-0.3-0.6-0.7-1.3-1-1.9c0,0-0.1,0-0.1,0c0,2.2,0,4.4,0,6.6c0,0,0,0,0,0V84
		c0,0,0,0,0,0c0,1.7,0,3.4,0,5.1c0,0,0,0,0,0v4.1c0,0,0,0,0,0c0,0.2,0,0.4,0,0.5c0,0.9,0.1,0.9,0.9,0.9c7.2,0,14.3,0,21.5,0
		c0.8,0,0.8,0,0.8-0.8c0-7.2,0-14.4,0-21.7C-197.2,71.3-197.2,71.2-198,71.2z"/>
</g>
</svg>
