<?xml version="1.0" encoding="utf-8"?>
<!-- Generator: Adobe Illustrator 19.1.0, SVG Export Plug-In . SVG Version: 6.00 Build 0)  -->
<svg version="1.1" id="Layer_1" xmlns="http://www.w3.org/2000/svg" xmlns:xlink="http://www.w3.org/1999/xlink" x="0px" y="0px"
	 viewBox="444.4 -202.3 450.3 78.3" style="enable-background:new 444.4 -202.3 450.3 78.3;" xml:space="preserve">
<style type="text/css">
	.st0{fill:#F8835E;}
	.st1{fill:#202020;}
	.st2{fill:#7B7B7B;}
	.st3{fill:#4BBFC0;}
	.st4{fill:#A3BB37;}
</style>
<g id="XMLID_4_">
	<path id="XMLID_5_" class="st4" d="M445.4-199c0.1,0.3,0.3,0.5,0.4,0.7c4.3,8.6,8.6,17.2,12.9,25.8c4.8,9.6,9.5,19.1,14.3,28.7
		c2.7,5.4,5.4,10.8,8.1,16.3c0.4,0.8,0.9,1.1,1.7,1.1c2-0.1,4,0,6,0c0.8,0,1.3-0.3,1.6-1c3-6.9,6-13.8,9.1-20.7
		c3.4-7.7,6.7-15.4,10.1-23.1c1.4-3.1,2.8-6.3,4.1-9.4c0.5-1.2,0-2-1.3-2c-5.7,0-11.4,0-17.1,0c-1,0-1.3,0.2-1.6,1.1
		c-2.3,6.9-4.7,13.7-7,20.6c-0.2,0.6-0.5,1.1-1.2,1.1s-1-0.4-1.3-0.9c-4.2-8.9-8.4-17.7-12.5-26.6c-2-4.2-3.9-8.3-5.9-12.5
		c-0.1-0.2-0.2-0.4-0.4-0.7c0.2-0.2,0.4-0.1,0.6-0.1c17.6,0,35.1,0,52.7,0c1.3,0,1.6,0.3,1.6,1.6c0,23.9,0,47.9,0,71.8
		c0,1.3-0.4,1.6-1.6,1.6c-23.9,0-47.9,0-71.8,0c-1.3,0-1.6-0.3-1.6-1.6c0-23.6,0-47.3,0-71C445.3-198.5,445.2-198.7,445.4-199z"/>
</g>
<g>
	<path class="st1" d="M568.9-124l-16.8-28.4h-13.4v28.4h-13.4v-76.2h33.5c15.1,0,25,9.7,25,23.9c0,13.5-8.9,20.9-18.2,22.4
		l18.7,29.9H568.9z M570.1-176.4c0-7.3-5.5-12-13-12h-18.4v24.2h18.4C564.6-164.2,570.1-169,570.1-176.4z"/>
	<path class="st1" d="M597.2-124v-76.2h52.2v11.8h-38.8v19.6h38v11.8h-38v21.2h38.8v11.8H597.2z"/>
	<path class="st1" d="M716.6-124l-5.6-14.7h-35l-5.6,14.7h-15.2l29.9-76.2h16.7l29.9,76.2H716.6z M693.5-186.8l-13.7,36.3h27.4
		L693.5-186.8z"/>
	<path class="st1" d="M732.7-162c0-23.5,17.5-39.4,40-39.4c15.3,0,24.9,7.9,30.5,17l-11.3,5.9c-3.7-6.4-11.1-11.1-19.2-11.1
		c-15.1,0-26.3,11.4-26.3,27.5c0,15.9,11.2,27.5,26.3,27.5c8.1,0,15.5-4.8,19.2-11.1l11.4,5.7c-5.8,9.1-15.3,17.3-30.6,17.3
		C750.2-122.6,732.7-138.6,732.7-162z"/>
	<path class="st1" d="M866.9-124v-33.4h-39.6v33.4h-13.4v-76.2h13.4v31.1h39.6v-31.1h13.4v76.2H866.9z"/>
</g>
</svg>
