<?xml version="1.0" encoding="utf-8"?>
<!-- Generator: Adobe Illustrator 19.1.0, SVG Export Plug-In . SVG Version: 6.00 Build 0)  -->
<svg version="1.1" id="Layer_1" xmlns="http://www.w3.org/2000/svg" xmlns:xlink="http://www.w3.org/1999/xlink" x="0px" y="0px"
	 viewBox="-417 218 125 125" style="enable-background:new -417 218 125 125;" xml:space="preserve">
<style type="text/css">
	.st0{fill:#7B7B7B;}
</style>
<g id="XMLID_15774_">
	<path id="XMLID_11002_" class="st0" d="M-392.3,285.4c0-1.2,0-2.5,0-3.8c0-1.2,0.7-2,2-2c1.1,0,2.1,0,3.2,0c0.8,0,1.5,0.3,1.9,0.9
		c0.2,0.2,0.4,0.7,0.4,1c0,2.5,0,4.9,0,7.4c0,0.8-0.7,1.6-1.7,1.6c-1.5,0.1-2.9,0.1-4.4,0c-0.7,0-1.3-0.7-1.3-1.6
		C-392.3,287.9-392.3,286.7-392.3,285.4z"/>
	<path id="XMLID_11001_" class="st0" d="M-312,233.9c0-1.2,0-2.5,0-3.8c0-1.1,0.7-1.9,1.9-1.9c1.1,0,2.1,0,3.2,0
		c0.7,0,1.3,0.2,1.8,0.7c0.3,0.3,0.5,0.7,0.5,1.2c0,2.5,0,4.8,0,7.3c0,0.6-0.2,1.1-0.7,1.3c-0.5,0.2-1,0.5-1.6,0.5
		c-1.1,0.1-2.3,0-3.4,0c-1.1,0-1.8-0.7-1.8-1.9C-312,236.3-312,235.1-312,233.9z"/>
	<path id="XMLID_11000_" class="st0" d="M-414,333.4c0-1.2,0-2.5,0-3.8c0-1.1,0.7-1.9,1.9-1.9c1.1,0,2.1,0,3.2,0
		c0.7,0,1.4,0.2,1.8,0.8c0.2,0.3,0.5,0.7,0.5,1.1c0.1,2.4,0,4.7,0,7c0,1.1-0.5,1.7-1.6,2c-0.3,0.1-0.7,0.1-1.1,0.1c-1,0-2,0-2.9,0
		c-1.2,0-1.8-0.7-1.8-1.8S-414,334.7-414,333.4z"/>
	<path id="XMLID_10993_" class="st0" d="M-366.3,287.7c0-1.3,0-2.5,0-3.8c0-1.1,0.7-1.8,1.8-1.8c1.1,0,2.3,0,3.4,0
		c1.2,0,2.2,0.9,2.2,2.2c0,2.3,0,4.6,0,6.9c0,1.1-0.7,2-1.9,2c-1.3,0.1-2.7,0.1-4,0c-0.8,0-1.5-0.7-1.5-1.6
		C-366.3,290.3-366.3,289-366.3,287.7z"/>
	<path id="XMLID_10992_" class="st0" d="M-381,324.5c0-1.3,0-2.5,0-3.8c0-1.1,0.7-1.8,1.8-1.8c1.1,0,2.3,0,3.4,0
		c1.3,0,2.2,0.9,2.2,2.2c0,2.3,0,4.5,0,6.8c0,1.2-0.7,2-1.9,2c-1.3,0.1-2.7,0-4,0c-0.9,0-1.5-0.7-1.5-1.6
		C-381,327.1-381,325.8-381,324.5z"/>
	<path id="XMLID_10991_" class="st0" d="M-402.3,306.1c0-1.2,0-2.5,0-3.7c0-1.1,0.7-1.9,1.9-1.9c1.1,0,2.2,0,3.4,0
		c1.2,0,2.2,0.9,2.2,2.2c0,2.3,0,4.6,0,6.9c0,1.1-0.7,2-2,2c-1.3,0.1-2.6,0-3.9,0c-0.9,0-1.5-0.7-1.6-1.6
		C-402.3,308.7-402.3,307.4-402.3,306.1z"/>
	<path id="XMLID_10989_" class="st0" d="M-334.7,302.9c0-1.2,0-2.5,0-3.8c0-1.1,0.7-1.9,1.9-1.9c1.1,0,2.2,0,3.4,0
		c1.3,0,2.2,0.9,2.2,2.2c0,2.3,0,4.5,0,6.8c0,1.2-0.7,2-1.9,2c-1.3,0.1-2.7,0-4,0c-0.9,0-1.5-0.7-1.5-1.6
		C-334.7,305.4-334.7,304.1-334.7,302.9z"/>
	<path id="XMLID_10988_" class="st0" d="M-302.4,281.6c0-1.2,0-2.5,0-3.8c0-1.1,0.7-1.8,1.8-1.8s2.3,0,3.4,0c0.7,0,1.4,0.3,1.8,0.9
		c0.2,0.2,0.4,0.7,0.4,1c0,2.5,0,5,0,7.4c0,0.5-0.2,0.9-0.6,1.1c-0.5,0.2-1.1,0.5-1.6,0.6c-1.1,0.1-2.3,0-3.5,0
		c-1.1,0-1.7-0.7-1.7-1.7C-302.4,284.1-302.4,282.8-302.4,281.6z"/>
	<path id="XMLID_10987_" class="st0" d="M-300.5,324.8c0,1.1,0,2.2,0,3.4c0,1.2-0.7,2-2,2c-1.3,0.1-2.6,0.1-3.9,0
		c-0.9,0-1.6-0.7-1.6-1.6c0-2.5,0-5.1,0-7.6c0-1.1,0.7-1.8,1.8-1.8c1.1,0,2.2,0,3.4,0c0.7,0,1.3,0.2,1.7,0.8
		c0.2,0.3,0.4,0.7,0.5,1.1C-300.5,322.3-300.5,323.5-300.5,324.8z"/>
	<path id="XMLID_10986_" class="st0" d="M-351,248.3c0-1.2,0-2.5,0-3.8c0-1.1,0.7-1.9,1.9-1.9c1.1,0,2.1,0,3.2,0c0.8,0,1.5,0.3,2,1
		c0.2,0.2,0.3,0.7,0.3,1c0,2.4,0,4.7,0,7.1c0,1.1-0.5,1.9-1.6,2c-1.5,0.1-3,0.1-4.5,0c-0.7,0-1.2-0.7-1.2-1.5
		C-351,250.9-351,249.6-351,248.3z"/>
	<path id="XMLID_10985_" class="st0" d="M-375.2,263.1c0-1.2,0-2.5,0-3.8c0-1.1,0.7-1.9,1.9-1.9c1.1,0,2.1,0,3.2,0
		c0.7,0,1.3,0.2,1.8,0.7c0.3,0.3,0.6,0.7,0.6,1.2c0,2.4,0,4.7,0,7c0,1.1-0.6,1.9-1.6,2c-1.5,0.1-2.9,0.1-4.4,0
		c-0.7,0-1.3-0.7-1.3-1.6C-375.2,265.6-375.2,264.4-375.2,263.1z"/>
	<path id="XMLID_10984_" class="st0" d="M-338.8,279.4c0-1.2,0-2.5,0-3.8c0-1.1,0.7-1.9,1.9-1.9c1.1,0,2.1,0,3.2,0
		c0.7,0,1.2,0.2,1.7,0.7c0.3,0.3,0.6,0.7,0.6,1.2c0,2.3,0,4.7,0,6.9c0,1.3-0.7,2-2,2.1s-2.5,0.1-3.8,0c-1,0-1.6-0.7-1.6-1.6
		C-338.8,281.9-338.8,280.7-338.8,279.4z"/>
	<path id="XMLID_10983_" class="st0" d="M-403.9,233.8c0-1.2,0-2.5,0-3.8c0-1.1,0.7-1.9,1.9-1.9c1.1,0,2.2,0,3.3,0
		c0.7,0,1.3,0.3,1.8,0.7c0.3,0.3,0.5,0.7,0.5,1.2c0,2.5,0,4.9,0,7.4c0,0.6-0.2,1-0.7,1.2c-0.5,0.2-1.1,0.5-1.6,0.5
		c-1.1,0.1-2.3,0-3.4,0c-1.1,0-1.7-0.7-1.7-1.7C-403.9,236.3-403.9,235-403.9,233.8z"/>
	<path id="XMLID_10982_" class="st0" d="M-394.2,231.9c0,0-0.2-0.2-0.3-0.2c0.2-0.1,0.2-0.2,0.4-0.2c3.8-0.3,7.6-0.6,11.4-0.8
		c4-0.3,7.9-0.6,11.9-0.9c3-0.2,6.1-0.4,9.2-0.7c3.5-0.2,7-0.6,10.5-0.8c3-0.2,6.1-0.4,9.2-0.7c3-0.2,6.1-0.5,9.2-0.7
		c2.6-0.2,5.1-0.3,7.8-0.6c3-0.2,6.1-0.4,9.2-0.7c1-0.1,1.9-0.2,2.9-0.2c0.2,0,0.2,0.2,0.4,0.2c-0.1,0.1-0.2,0.2-0.3,0.2
		c-1.2,0.1-2.5,0.2-3.6,0.3c-2.7,0.2-5.3,0.4-7.9,0.6c-2.5,0.2-5.1,0.3-7.7,0.6c-2.6,0.2-5.2,0.4-7.8,0.6c-2.5,0.2-5.1,0.3-7.6,0.6
		c-2.7,0.2-5.3,0.4-7.9,0.6c-2.5,0.2-5.1,0.3-7.7,0.6c-2.6,0.2-5.2,0.4-7.8,0.6c-2.5,0.2-5.1,0.3-7.6,0.6c-2.7,0.2-5.3,0.4-7.9,0.6
		C-389.1,231.5-391.6,231.7-394.2,231.9z"/>
	<path id="XMLID_10981_" class="st0" d="M-340.6,326.4c-9.6,0.2-19.2,0.2-28.8,0.4c-0.2,0-0.4,0-0.6,0c-0.1,0-0.2-0.2-0.3-0.2
		c0.1-0.1,0.2-0.2,0.3-0.2c0.1-0.1,0.2,0,0.3,0c13.2-0.2,26.5-0.3,39.6-0.6c6.1-0.1,12.3-0.2,18.4-0.2c0.2,0,0.7-0.2,0.7,0.2
		c0,0.1-0.4,0.2-0.7,0.2C-321.3,326.2-330.9,326.2-340.6,326.4L-340.6,326.4z"/>
	<path id="XMLID_10980_" class="st0" d="M-400.4,268.4c0.1,6.4,0.2,14.7,0.3,23c0,0.2-0.2,0.7-0.2,0.7c-0.4-0.1-0.2-0.4-0.2-0.7
		c-0.2-16.4-0.4-32.9-0.7-49.3c0-0.3,0-0.7,0-0.9c0-0.2,0.2-0.3,0.2-0.5c0.1,0.2,0.2,0.3,0.2,0.5c0.1,2,0.1,4.1,0.1,6.1
		C-400.5,253.8-400.5,260.1-400.4,268.4z"/>
	<path id="XMLID_10979_" class="st0" d="M-371.9,256.5c-1.4,0-2.4-1.1-2.4-2.4c0-1.3,1.1-2.4,2.4-2.5c1.3,0,2.5,1.1,2.5,2.4
		C-369.5,255.4-370.6,256.5-371.9,256.5z"/>
	<path id="XMLID_10978_" class="st0" d="M-345.3,239.3c0,1.4-1.1,2.4-2.4,2.4s-2.5-1.1-2.4-2.4c0-1.3,1.1-2.4,2.5-2.4
		C-346.4,236.9-345.3,238-345.3,239.3z"/>
	<path id="XMLID_10977_" class="st0" d="M-360.6,278.8c0,1.3-1.1,2.4-2.5,2.4c-1.3,0-2.4-1.1-2.4-2.5s1.1-2.4,2.5-2.4
		C-361.6,276.3-360.6,277.4-360.6,278.8z"/>
	<path id="XMLID_10976_" class="st0" d="M-375.3,315.5c0,1.3-1.1,2.5-2.4,2.5s-2.5-1.1-2.5-2.5c0-1.3,1.1-2.4,2.4-2.4
		C-376.4,313.2-375.3,314.2-375.3,315.5z"/>
	<path id="XMLID_10975_" class="st0" d="M-331.3,291.5c1.4,0,2.4,1.1,2.4,2.4s-1.1,2.5-2.4,2.4c-1.3,0-2.5-1.1-2.4-2.5
		C-333.7,292.6-332.6,291.5-331.3,291.5z"/>
	<path id="XMLID_10974_" class="st0" d="M-302.2,315.8c0,1.3-1.1,2.5-2.4,2.5s-2.5-1.1-2.5-2.4s1.1-2.4,2.4-2.4
		C-303.2,313.3-302.2,314.4-302.2,315.8z"/>
	<path id="XMLID_10973_" class="st0" d="M-399,294.8c1.4,0,2.4,1.1,2.5,2.4c0,1.3-1.1,2.5-2.4,2.5s-2.5-1.1-2.5-2.4
		C-401.4,295.8-400.3,294.8-399,294.8z"/>
	<path id="XMLID_10972_" class="st0" d="M-296.7,272.6c0,1.3-1.1,2.5-2.5,2.4c-1.3,0-2.4-1.1-2.4-2.5c0-1.3,1.1-2.4,2.5-2.4
		C-297.7,270.3-296.7,271.3-296.7,272.6z"/>
	<path id="XMLID_10971_" class="st0" d="M-333,270.5c0,1.3-1.1,2.5-2.5,2.4c-1.3,0-2.4-1.1-2.4-2.5c0-1.3,1.1-2.4,2.5-2.4
		C-334.1,268.1-333,269.2-333,270.5z"/>
	<path id="XMLID_10970_" class="st0" d="M-311.1,224.9c0-1.3,1.1-2.5,2.4-2.5s2.5,1.1,2.5,2.4c0,1.3-1.1,2.4-2.4,2.5
		C-310,227.4-311.1,226.3-311.1,224.9z"/>
	<path id="XMLID_10969_" class="st0" d="M-398.2,224.8c0,1.3-1.1,2.5-2.5,2.4c-1.3,0-2.4-1.1-2.4-2.5c0-1.3,1.1-2.4,2.5-2.4
		C-399.2,222.5-398.2,223.5-398.2,224.8z"/>
	<path id="XMLID_10968_" class="st0" d="M-413,324.4c0-1.3,1.1-2.5,2.4-2.5s2.5,1.1,2.5,2.4s-1.1,2.4-2.4,2.5
		C-411.9,326.8-413,325.8-413,324.4z"/>
	<path id="XMLID_10967_" class="st0" d="M-391.3,276.4c0-1.3,1.1-2.4,2.5-2.4c1.3,0,2.5,1.1,2.4,2.5c0,1.3-1.1,2.4-2.5,2.4
		C-390.3,278.8-391.3,277.7-391.3,276.4z"/>
	<path id="XMLID_10966_" class="st0" d="M-370.8,323c-0.1-0.1-0.2-0.1-0.2-0.2s0-0.2,0-0.2c0.2-0.1,0.3-0.2,0.4-0.2
		c10.6-5.6,21.2-11,31.9-16.5c0.1-0.1,0.2-0.1,0.2-0.1c0.2,0,0.2,0,0.4,0c-0.1,0.2-0.1,0.2-0.2,0.4c-0.1,0.1-0.2,0.1-0.2,0.2
		c-10.5,5.5-21.2,11-31.7,16.4C-370.5,322.7-370.6,322.8-370.8,323z"/>
	<path id="XMLID_10965_" class="st0" d="M-311.1,241c-0.1,0.2-0.2,0.3-0.3,0.5c-3.8,6-7.5,11.8-11.3,17.8c-2.1,3.4-4.2,6.8-6.4,10.1
		c0,0,0,0.1-0.1,0.1c-0.2,0.2-0.3,0.2-0.5,0.3c0-0.2,0-0.4,0.1-0.7c5.9-9.4,11.8-18.7,17.7-28.1c0.1-0.1,0.2-0.2,0.2-0.3
		c0.1-0.1,0.2-0.1,0.2-0.1C-311.1,240.8-311.1,240.9-311.1,241z"/>
	<path id="XMLID_10964_" class="st0" d="M-342.1,242.9c-0.1-0.1-0.2-0.1-0.2-0.2c0-0.1,0.1-0.2,0.2-0.2c0.3-0.2,0.7-0.2,1-0.3
		c9.3-3.3,18.6-6.6,27.9-9.9c0.2-0.1,0.7-0.1,0.7,0c0.2,0.4-0.3,0.4-0.5,0.5c-9.5,3.4-19,6.8-28.5,10.1
		C-341.8,242.8-341.9,242.8-342.1,242.9z"/>
	<path id="XMLID_10955_" class="st0" d="M-339.6,275.3c-0.2,0-0.3,0.1-0.5,0.1c-1.1-0.3-2.1-0.7-3.3-0.9c-7-2-14.1-4.2-21-6.2
		c-0.1,0-0.2,0-0.2-0.1c-0.1-0.1-0.2-0.2-0.3-0.3c0.2-0.1,0.3-0.2,0.5-0.1c1.6,0.4,3.1,0.9,4.6,1.3c6.6,2,13.2,3.9,19.8,5.8
		c0.2,0.1,0.3,0.2,0.5,0.2C-339.6,275.2-339.6,275.2-339.6,275.3z"/>
	<path id="XMLID_10954_" class="st0" d="M-378.3,258.1c-0.1,0.1-0.1,0.2-0.2,0.2c-0.1,0-0.2,0-0.2,0c-0.1-0.1-0.2-0.2-0.2-0.3
		c-5-6.3-10-12.6-15-19c0,0,0,0,0-0.1c-0.1-0.2-0.1-0.4-0.2-0.7c0.2,0.1,0.4,0.2,0.6,0.3c5,6.3,10.1,12.7,15,19
		C-378.6,257.8-378.4,257.9-378.3,258.1z"/>
	<path id="XMLID_10953_" class="st0" d="M-325.4,299.5c-0.1-0.1-0.2-0.1-0.2-0.2s0-0.2,0-0.2c0.1-0.1,0.2-0.2,0.3-0.3
		c6.5-4.7,13.1-9.3,19.7-14c0.2-0.2,0.7-0.2,0.7-0.2c0.2,0.4-0.2,0.5-0.4,0.6c-6.5,4.7-13.1,9.3-19.6,14
		C-325,299.4-325.2,299.4-325.4,299.5z"/>
	<path id="XMLID_10952_" class="st0" d="M-301.5,267.9c-0.1,0.1-0.2,0.2-0.2,0.2c-0.1-0.1-0.2-0.2-0.2-0.3c-0.2-1.1-0.3-2.2-0.5-3.3
		c-0.5-3.2-0.9-6.4-1.4-9.5c-0.4-2.9-0.9-5.9-1.3-8.8c-0.1-0.7-0.2-1.2-0.2-1.9c0-0.2,0.1-0.3,0.2-0.5c0.1,0.2,0.2,0.2,0.3,0.4
		c0.5,3.5,1.1,7,1.6,10.5c0.5,3.2,0.9,6.4,1.4,9.5C-301.9,265.4-301.7,266.6-301.5,267.9z"/>
	<path id="XMLID_10951_" class="st0" d="M-317,278c-2.7-0.1-5.3-0.2-8-0.3c-1.1-0.1-2-0.1-3.1-0.2c-0.1,0-0.2,0-0.2,0
		c-0.1-0.1-0.2-0.2-0.2-0.2c0.1-0.1,0.2-0.2,0.3-0.2s0.2,0,0.3,0c3.6,0.2,7.3,0.3,10.9,0.5c3.4,0.2,6.8,0.3,10.1,0.4
		c0.5,0,0.9,0.1,1.4,0.1c0.1,0,0.2,0.2,0.2,0.2c-0.1,0.1-0.2,0.2-0.2,0.2s-0.1,0-0.2,0C-309.6,278.4-313.3,278.2-317,278L-317,278z"
		/>
	<path id="XMLID_10950_" class="st0" d="M-299.1,289.3c-0.3,1.4-0.6,2.7-0.9,4c-1.3,5.7-2.5,11.4-3.8,17.1c-0.1,0.2-0.3,0.7-0.4,0.7
		c-0.4-0.2-0.2-0.5-0.1-0.7c1.6-6.9,3.1-13.9,4.7-20.8c0-0.2,0.2-0.3,0.3-0.4C-299.2,289.1-299.1,289.3-299.1,289.3z"/>
	<path id="XMLID_10949_" class="st0" d="M-309.3,322.6c-0.2,0-0.2,0.1-0.4,0.1c-0.1,0-0.2-0.2-0.3-0.2c-5.2-4.5-10.4-8.9-15.6-13.4
		c-0.1-0.1-0.2-0.2-0.2-0.2c-0.1-0.1-0.1-0.2,0-0.3c0.1-0.1,0.2-0.1,0.3,0c0.2,0.2,0.4,0.3,0.6,0.5c5.1,4.4,10.2,8.8,15.4,13.2
		c0.1,0.1,0.2,0.2,0.4,0.2C-309.2,322.4-309.2,322.5-309.3,322.6z"/>
	<path id="XMLID_10948_" class="st0" d="M-383.7,327.8c-0.3,0.2-0.5,0.2-0.7,0.3c-2.3,0.7-4.6,1.5-6.9,2.1c-4,1.2-8.1,2.5-12.1,3.8
		c-0.1,0-0.1,0.1-0.2,0.1c-0.2,0-0.4-0.1-0.6-0.1c0.2-0.1,0.2-0.3,0.4-0.3c1.7-0.6,3.4-1.1,5.1-1.6c4.7-1.5,9.3-2.9,14-4.3
		c0.1,0,0.2-0.1,0.3-0.1C-384,327.6-384,327.7-383.7,327.8z"/>
	<path id="XMLID_10947_" class="st0" d="M-356.7,287.7c-0.1-0.1-0.2-0.1-0.2-0.2s0-0.2,0.1-0.2c0.1-0.1,0.2-0.2,0.3-0.2
		c4.9-2,9.9-4.2,14.8-6.2c0,0,0,0,0.1,0c0.2,0,0.4,0,0.6,0c-0.2,0.2-0.2,0.3-0.4,0.4c-1.4,0.6-2.8,1.2-4.2,1.8
		c-3.6,1.5-7.1,3-10.7,4.5C-356.5,287.6-356.6,287.7-356.7,287.7z"/>
	<path id="XMLID_10946_" class="st0" d="M-352.3,252.5c-0.2,0.2-0.3,0.3-0.5,0.5c-2.9,2.2-5.8,4.3-8.7,6.5c-1.3,1-2.6,2-3.9,3
		c-0.1,0.1-0.2,0.2-0.3,0.2c-0.1,0-0.2,0-0.3-0.1c-0.1-0.1,0-0.2,0.1-0.3c0.1-0.1,0.2-0.2,0.2-0.2c4.2-3.2,8.5-6.4,12.7-9.6
		c0.1-0.1,0.2-0.2,0.3-0.2C-352.7,252.4-352.6,252.4-352.3,252.5z"/>
	<path id="XMLID_10945_" class="st0" d="M-368.9,287.9c-2.8-0.2-5.3-0.5-7.9-0.7c-2-0.2-4-0.3-6-0.5c-0.2,0-0.3-0.2-0.5-0.3
		c0.2-0.1,0.4-0.2,0.6-0.2c2.6,0.2,5.3,0.4,7.9,0.7c2,0.2,3.9,0.3,5.9,0.5c0.2,0,0.2,0.2,0.3,0.2
		C-368.8,287.8-368.9,287.8-368.9,287.9z"/>
	<path id="XMLID_10944_" class="st0" d="M-343.5,255c0.1,0.1,0.2,0.2,0.2,0.3c2.3,3.7,4.6,7.4,6.9,11c0.1,0.2,0,0.3,0,0.6
		c-0.2-0.1-0.3-0.2-0.4-0.2c-2.3-3.7-4.6-7.4-6.9-11c-0.1-0.1-0.1-0.2-0.1-0.4C-343.8,255.1-343.6,255.1-343.5,255z"/>
	<path id="XMLID_10943_" class="st0" d="M-405.6,326c0-0.2-0.1-0.3,0-0.5c0.5-1.1,0.9-2.3,1.4-3.4c1-2.5,2-4.9,3-7.3
		c0.1-0.1,0.1-0.2,0.2-0.3c0.1-0.1,0.2-0.1,0.3-0.1c0.1,0,0.1,0.2,0.1,0.3c-0.1,0.2-0.2,0.4-0.2,0.7c-1.5,3.4-2.9,6.9-4.3,10.3
		c-0.1,0.2-0.2,0.3-0.3,0.5C-405.5,326-405.5,326-405.6,326z"/>
	<path id="XMLID_10942_" class="st0" d="M-393.3,312.4c0.1,0.1,0.2,0.1,0.3,0.2c3.2,2.1,6.5,4.3,9.6,6.5c0.2,0.1,0.2,0.2,0.2,0.4
		c-0.2,0-0.4,0.1-0.5,0c-3.2-2.1-6.5-4.3-9.6-6.5c-0.1-0.1-0.2-0.2-0.2-0.4C-393.5,312.5-393.4,312.4-393.3,312.4L-393.3,312.4z"/>
	<path id="XMLID_10941_" class="st0" d="M-375.3,270.3c-0.1,0.1-0.2,0.2-0.2,0.3c-2.5,2.1-4.9,4.3-7.4,6.5c-0.1,0.1-0.3,0.1-0.5,0.1
		c0.1-0.2,0.1-0.3,0.2-0.4c2.5-2.1,4.9-4.3,7.4-6.5c0.1-0.1,0.2-0.2,0.4-0.2L-375.3,270.3z"/>
	<path id="XMLID_10940_" class="st0" d="M-389.5,292.3c-0.1,0.2-0.1,0.3-0.2,0.4c-0.9,2.4-1.9,4.7-2.8,7.1c-0.1,0.1-0.1,0.2-0.2,0.3
		c-0.1,0.1-0.2,0.1-0.3,0.1s-0.1-0.2-0.1-0.2c0-0.1,0.1-0.2,0.1-0.3c0.9-2.4,1.9-4.7,2.9-7.2c0.1-0.1,0.1-0.2,0.2-0.2
		c0.1-0.1,0.2-0.1,0.3-0.1C-389.6,292.2-389.6,292.2-389.5,292.3z"/>
</g>
</svg>
