<?xml version="1.0" encoding="utf-8"?>
<!-- Generator: Adobe Illustrator 19.1.0, SVG Export Plug-In . SVG Version: 6.00 Build 0)  -->
<svg version="1.1" id="Layer_1" xmlns="http://www.w3.org/2000/svg" xmlns:xlink="http://www.w3.org/1999/xlink" x="0px" y="0px"
	 viewBox="-354 156 250 250" style="enable-background:new -354 156 250 250;" xml:space="preserve">
<style type="text/css">
	.st0{fill:#F2F2F2;}
	.st1{fill:#C0BFBF;}
	.st2{fill:#E5E5E5;}
</style>
<g id="XMLID_27_">
	<g id="XMLID_14892_">
		<polygon id="XMLID_14899_" class="st0" points="-268.7,249.7 -290.8,313.3 -268.2,403.7 -122.9,372.2 -119.1,220.4 		"/>
		<polygon id="XMLID_14896_" class="st1" points="-338.9,188.4 -338.3,335.4 -268.2,403.7 -268.7,249.7 		"/>
		<polygon id="XMLID_14893_" class="st2" points="-199.3,158.3 -338.9,188.4 -268.7,249.7 -119.1,220.4 		"/>
	</g>
	<path id="XMLID_16144_" d="M-263.4,324.4c-0.2,14.7-0.4,29.3-0.6,43.9c0,2.3,0.4,2.6,2.7,2.1c14.2-3.1,28.4-6.1,42.6-9.2
		c2.2-0.5,2.7-1.1,2.7-3.3c0-3.1,0.1-6.1,0.1-9.2c3.7-0.8,7.3-1.6,11-2.4c-0.4,3.3-0.9,6.6-1.4,9.9c0,0.2-0.5,0.6-0.8,0.7
		c-1.2,0.5-2.4,0.8-3.5,1.3c-0.2,0.1-0.5,0.5-0.7,0.8c0.3,0.1,0.5,0.3,0.8,0.4c0.2,0.1,0.4-0.1,0.7-0.1c12-2.6,23.9-5.1,35.9-7.7
		c0.2-0.1,0.5-0.1,0.7-0.2c0.3-0.1,0.5-0.4,0.8-0.6c-0.2-0.1-0.4-0.4-0.7-0.4c-1.1,0-2.3,0-3.4,0.1c-0.7,0-0.9-0.2-1-0.8
		c-0.3-3-0.7-6-1.1-9.1c0.5-0.1,1-0.2,1.5-0.3c14.6-3.1,29.2-6.3,43.8-9.4c2.7-0.6,4.4-2.5,4.4-5.3c0-3,0.1-6.1,0.1-9.1
		c0.2-19.2,0.4-38.5,0.7-57.7c0-2.6-0.9-3.4-3.6-2.8c-40.2,8.6-80.3,17.3-120.5,25.9c-2.4,0.5-3.4,1.7-3.4,4.1
		c-0.1,10.8-0.3,21.6-0.4,32.4c0,0.5,0,1,0,1.6c-1.9,0.4-3.7,0.8-5.4,1.2c-1.4,0.3-2,1.1-2.1,2.4
		C-263.6,323.9-263.6,324.2-263.4,324.4z M-217.3,326.4c-2.6,0.6-5.2,1.1-7.8,1.7c-0.4,0.1-0.8,0.2-1.2,0.3
		c0.1-4.3,0.2-8.3,0.2-12.4c0-1.9-0.6-2.4-2.5-2c-7.2,1.6-14.4,3.1-21.6,4.7c-0.5,0.1-0.9,0.2-1.3,0.3c0.1-10.6,0.3-21,0.4-31.4
		c39.5-8.5,78.9-16.9,118.4-25.4c-0.3,20-0.5,39.9-0.8,59.7c-27.5,5.9-54.9,11.8-82.4,17.7c0.1-4,0.1-7.9,0.2-11.8
		C-215.7,326.7-216.2,326.3-217.3,326.4z M-226.6,359.6c0-0.9,0.6-1.6,1.6-1.8c1-0.2,1.5,0.2,1.5,1.2s-0.6,1.6-1.7,1.9
		C-226.1,361-226.7,360.6-226.6,359.6z M-232.3,335.9c5-1.1,10-2.1,14.9-3.2c-0.1,7.5-0.2,14.9-0.3,22.3c-5,1.1-9.9,2.1-14.9,3.2
		C-232.4,350.7-232.3,343.3-232.3,335.9z M-249.7,365.6c0-0.8,0.7-1.6,1.5-1.8c0.9-0.1,1.5,0.4,1.5,1.2c0,0.8-0.7,1.6-1.5,1.8
		C-248.9,366.9-249.7,366.4-249.7,365.6z M-260.6,326.9c10-2.1,19.9-4.3,29.8-6.4c0,3-0.1,6-0.1,8.9c-0.3,0.1-0.4,0.2-0.6,0.2
		c-2.3,0.5-2.4,0.6-2.4,2.8c-0.1,5.2-0.1,10.5-0.2,15.7c0,3.9-0.1,7.8-0.1,11.8c-9.1,2-18,3.9-26.9,5.8
		C-260.8,352.8-260.7,339.9-260.6,326.9z"/>
</g>
</svg>
