<?xml version="1.0" encoding="utf-8"?>
<!-- Generator: Adobe Illustrator 19.0.0, SVG Export Plug-In . SVG Version: 6.00 Build 0)  -->
<svg version="1.1" id="objects" xmlns="http://www.w3.org/2000/svg" xmlns:xlink="http://www.w3.org/1999/xlink" x="0px" y="0px"
	 viewBox="0 0 1920 1080" style="enable-background:new 0 0 1920 1080;" xml:space="preserve">
<style type="text/css">
	.st0{opacity:0.15;fill-rule:evenodd;clip-rule:evenodd;fill:#B6BC3B;stroke:#FFFFFF;stroke-miterlimit:10;}
	.st1{opacity:0.1;fill-rule:evenodd;clip-rule:evenodd;fill:#B6BC3B;stroke:#FFFFFF;stroke-miterlimit:10;}
	.st2{opacity:0.2;fill-rule:evenodd;clip-rule:evenodd;fill:#B6BC3B;stroke:#FFFFFF;stroke-miterlimit:10;}
</style>
<g>
	<path class="st0" d="M1777,836.2h-102.7c-2.5,0-4.6-2.1-4.6-4.6V728.9c0-2.5,2.1-4.6,4.6-4.6H1777c2.5,0,4.6,2.1,4.6,4.6v102.7
		C1781.6,834.1,1779.6,836.2,1777,836.2z"/>
	<path class="st1" d="M1859.4,1077.4h-102.7c-2.5,0-4.6-2.1-4.6-4.6V970.2c0-2.5,2.1-4.6,4.6-4.6h102.7c2.5,0,4.6,2.1,4.6,4.6v102.7
		C1864,1075.4,1862,1077.4,1859.4,1077.4z"/>
	<path class="st0" d="M1777,1021.5h-102.7c-2.5,0-4.6-2.1-4.6-4.6V914.2c0-2.5,2.1-4.6,4.6-4.6H1777c2.5,0,4.6,2.1,4.6,4.6v102.7
		C1781.6,1019.4,1779.6,1021.5,1777,1021.5z"/>
	<path class="st0" d="M1100,814.9H997.3c-2.5,0-4.6-2.1-4.6-4.6V707.7c0-2.5,2.1-4.6,4.6-4.6H1100c2.5,0,4.6,2.1,4.6,4.6v102.7
		C1104.6,812.9,1102.5,814.9,1100,814.9z"/>
	<path class="st1" d="M1100,948.3H997.3c-2.5,0-4.6-2.1-4.6-4.6V841.1c0-2.5,2.1-4.6,4.6-4.6H1100c2.5,0,4.6,2.1,4.6,4.6v102.7
		C1104.6,946.3,1102.5,948.3,1100,948.3z"/>
	<path class="st1" d="M1155.9,1004.3h-102.7c-2.5,0-4.6-2.1-4.6-4.6V897c0-2.5,2.1-4.6,4.6-4.6h102.7c2.5,0,4.6,2.1,4.6,4.6v102.7
		C1160.5,1002.2,1158.5,1004.3,1155.9,1004.3z"/>
	<path class="st0" d="M1231.5,870.9h-102.7c-2.5,0-4.6-2.1-4.6-4.6V763.6c0-2.5,2.1-4.6,4.6-4.6h102.7c2.5,0,4.6,2.1,4.6,4.6v102.7
		C1236.1,868.8,1234.1,870.9,1231.5,870.9z"/>
	<path class="st1" d="M1365.6,870.9h-102.7c-2.5,0-4.6-2.1-4.6-4.6V763.6c0-2.5,2.1-4.6,4.6-4.6h102.7c2.5,0,4.6,2.1,4.6,4.6v102.7
		C1370.2,868.8,1368.2,870.9,1365.6,870.9z"/>
	<path class="st0" d="M1915.3,1021.5h-102.7c-2.5,0-4.6-2.1-4.6-4.6V914.2c0-2.5,2.1-4.6,4.6-4.6h102.7c2.5,0,4.6,2.1,4.6,4.6v102.7
		C1920,1019.4,1917.9,1021.5,1915.3,1021.5z"/>
	<path class="st1" d="M1915.3,836.2h-102.7c-2.5,0-4.6-2.1-4.6-4.6V728.9c0-2.5,2.1-4.6,4.6-4.6h102.7c2.5,0,4.6,2.1,4.6,4.6v102.7
		C1920,834.1,1917.9,836.2,1915.3,836.2z"/>
	<path class="st1" d="M1287.5,814.9h-102.7c-2.5,0-4.6-2.1-4.6-4.6V707.7c0-2.5,2.1-4.6,4.6-4.6h102.7c2.5,0,4.6,2.1,4.6,4.6v102.7
		C1292.1,812.9,1290,814.9,1287.5,814.9z"/>
	<path class="st1" d="M1287.5,1004.3h-102.7c-2.5,0-4.6-2.1-4.6-4.6V897c0-2.5,2.1-4.6,4.6-4.6h102.7c2.5,0,4.6,2.1,4.6,4.6v102.7
		C1292.1,1002.2,1290,1004.3,1287.5,1004.3z"/>
	<path class="st0" d="M1423.1,926.8h-102.7c-2.5,0-4.6-2.1-4.6-4.6V819.5c0-2.5,2.1-4.6,4.6-4.6h102.7c2.5,0,4.6,2.1,4.6,4.6v102.7
		C1427.7,924.7,1425.7,926.8,1423.1,926.8z"/>
	<path class="st1" d="M1557.6,1004.3H1455c-2.5,0-4.6-2.1-4.6-4.6V897c0-2.5,2.1-4.6,4.6-4.6h102.7c2.5,0,4.6,2.1,4.6,4.6v102.7
		C1562.2,1002.2,1560.2,1004.3,1557.6,1004.3z"/>
	<path class="st1" d="M1613.6,1060.2h-102.7c-2.5,0-4.6-2.1-4.6-4.6V952.9c0-2.5,2.1-4.6,4.6-4.6h102.7c2.5,0,4.6,2.1,4.6,4.6v102.7
		C1618.2,1058.1,1616.1,1060.2,1613.6,1060.2z"/>
	<path class="st0" d="M1343.4,1060.2h-102.7c-2.5,0-4.6-2.1-4.6-4.6V952.9c0-2.5,2.1-4.6,4.6-4.6h102.7c2.5,0,4.6,2.1,4.6,4.6v102.7
		C1348,1058.1,1346,1060.2,1343.4,1060.2z"/>
	<path class="st2" d="M1477.7,1060.2h-102.7c-2.5,0-4.6-2.1-4.6-4.6V952.9c0-2.5,2.1-4.6,4.6-4.6h102.7c2.5,0,4.6,2.1,4.6,4.6v102.7
		C1482.4,1058.1,1480.3,1060.2,1477.7,1060.2z"/>
	<path class="st2" d="M1044,759H941.4c-2.5,0-4.6-2.1-4.6-4.6V651.7c0-2.5,2.1-4.6,4.6-4.6H1044c2.5,0,4.6,2.1,4.6,4.6v102.7
		C1048.6,756.9,1046.6,759,1044,759z"/>
	<path class="st0" d="M1697.1,965.6h-102.7c-2.5,0-4.6-2.1-4.6-4.6V858.3c0-2.5,2.1-4.6,4.6-4.6h102.7c2.5,0,4.6,2.1,4.6,4.6v102.7
		C1701.7,963.5,1699.7,965.6,1697.1,965.6z"/>
	<path class="st0" d="M1020.1,1080H917.4c-2.5,0-4.6-2.1-4.6-4.6V972.7c0-2.5,2.1-4.6,4.6-4.6h102.7c2.5,0,4.6,2.1,4.6,4.6v102.7
		C1024.7,1077.9,1022.6,1080,1020.1,1080z"/>
	<path class="st2" d="M1211.9,1080h-102.7c-2.5,0-4.6-2.1-4.6-4.6V972.7c0-2.5,2.1-4.6,4.6-4.6h102.7c2.5,0,4.6,2.1,4.6,4.6v102.7
		C1216.5,1077.9,1214.4,1080,1211.9,1080z"/>
	<path class="st1" d="M1833,892.1h-102.7c-2.5,0-4.6-2.1-4.6-4.6V784.8c0-2.5,2.1-4.6,4.6-4.6H1833c2.5,0,4.6,2.1,4.6,4.6v102.7
		C1837.6,890,1835.5,892.1,1833,892.1z"/>
</g>
<g>
	<path class="st0" d="M866.2,836.2H763.6c-2.5,0-4.6-2.1-4.6-4.6V728.9c0-2.5,2.1-4.6,4.6-4.6h102.7c2.5,0,4.6,2.1,4.6,4.6v102.7
		C870.9,834.1,868.8,836.2,866.2,836.2z"/>
	<path class="st1" d="M948.6,1077.4H846c-2.5,0-4.6-2.1-4.6-4.6V970.2c0-2.5,2.1-4.6,4.6-4.6h102.7c2.5,0,4.6,2.1,4.6,4.6v102.7
		C953.2,1075.4,951.2,1077.4,948.6,1077.4z"/>
	<path class="st0" d="M866.2,1021.5H763.6c-2.5,0-4.6-2.1-4.6-4.6V914.2c0-2.5,2.1-4.6,4.6-4.6h102.7c2.5,0,4.6,2.1,4.6,4.6v102.7
		C870.9,1019.4,868.8,1021.5,866.2,1021.5z"/>
	<path class="st0" d="M189.2,814.9H86.5c-2.5,0-4.6-2.1-4.6-4.6V707.7c0-2.5,2.1-4.6,4.6-4.6h102.7c2.5,0,4.6,2.1,4.6,4.6v102.7
		C193.8,812.9,191.7,814.9,189.2,814.9z"/>
	<path class="st1" d="M189.2,948.3H86.5c-2.5,0-4.6-2.1-4.6-4.6V841.1c0-2.5,2.1-4.6,4.6-4.6h102.7c2.5,0,4.6,2.1,4.6,4.6v102.7
		C193.8,946.3,191.7,948.3,189.2,948.3z"/>
	<path class="st1" d="M245.1,1004.3H142.5c-2.5,0-4.6-2.1-4.6-4.6V897c0-2.5,2.1-4.6,4.6-4.6h102.7c2.5,0,4.6,2.1,4.6,4.6v102.7
		C249.7,1002.2,247.7,1004.3,245.1,1004.3z"/>
	<path class="st0" d="M320.7,870.9H218.1c-2.5,0-4.6-2.1-4.6-4.6V763.6c0-2.5,2.1-4.6,4.6-4.6h102.7c2.5,0,4.6,2.1,4.6,4.6v102.7
		C325.4,868.8,323.3,870.9,320.7,870.9z"/>
	<path class="st1" d="M454.8,870.9H352.2c-2.5,0-4.6-2.1-4.6-4.6V763.6c0-2.5,2.1-4.6,4.6-4.6h102.7c2.5,0,4.6,2.1,4.6,4.6v102.7
		C459.4,868.8,457.4,870.9,454.8,870.9z"/>
	<path class="st0" d="M1004.6,1021.5H901.9c-2.5,0-4.6-2.1-4.6-4.6V914.2c0-2.5,2.1-4.6,4.6-4.6h102.7c2.5,0,4.6,2.1,4.6,4.6v102.7
		C1009.2,1019.4,1007.1,1021.5,1004.6,1021.5z"/>
	<path class="st1" d="M1004.6,836.2H901.9c-2.5,0-4.6-2.1-4.6-4.6V728.9c0-2.5,2.1-4.6,4.6-4.6h102.7c2.5,0,4.6,2.1,4.6,4.6v102.7
		C1009.2,834.1,1007.1,836.2,1004.6,836.2z"/>
	<path class="st1" d="M376.7,814.9H274c-2.5,0-4.6-2.1-4.6-4.6V707.7c0-2.5,2.1-4.6,4.6-4.6h102.7c2.5,0,4.6,2.1,4.6,4.6v102.7
		C381.3,812.9,379.2,814.9,376.7,814.9z"/>
	<path class="st1" d="M376.7,1004.3H274c-2.5,0-4.6-2.1-4.6-4.6V897c0-2.5,2.1-4.6,4.6-4.6h102.7c2.5,0,4.6,2.1,4.6,4.6v102.7
		C381.3,1002.2,379.2,1004.3,376.7,1004.3z"/>
	<path class="st0" d="M512.3,926.8H409.7c-2.5,0-4.6-2.1-4.6-4.6V819.5c0-2.5,2.1-4.6,4.6-4.6h102.7c2.5,0,4.6,2.1,4.6,4.6v102.7
		C516.9,924.7,514.9,926.8,512.3,926.8z"/>
	<path class="st1" d="M646.8,1004.3H544.2c-2.5,0-4.6-2.1-4.6-4.6V897c0-2.5,2.1-4.6,4.6-4.6h102.7c2.5,0,4.6,2.1,4.6,4.6v102.7
		C651.5,1002.2,649.4,1004.3,646.8,1004.3z"/>
	<path class="st1" d="M702.8,1060.2H600.1c-2.5,0-4.6-2.1-4.6-4.6V952.9c0-2.5,2.1-4.6,4.6-4.6h102.7c2.5,0,4.6,2.1,4.6,4.6v102.7
		C707.4,1058.1,705.3,1060.2,702.8,1060.2z"/>
	<path class="st0" d="M432.6,1060.2H330c-2.5,0-4.6-2.1-4.6-4.6V952.9c0-2.5,2.1-4.6,4.6-4.6h102.7c2.5,0,4.6,2.1,4.6,4.6v102.7
		C437.2,1058.1,435.2,1060.2,432.6,1060.2z"/>
	<path class="st2" d="M567,1060.2H464.3c-2.5,0-4.6-2.1-4.6-4.6V952.9c0-2.5,2.1-4.6,4.6-4.6H567c2.5,0,4.6,2.1,4.6,4.6v102.7
		C571.6,1058.1,569.5,1060.2,567,1060.2z"/>
	<path class="st2" d="M133.2,759H30.6c-2.5,0-4.6-2.1-4.6-4.6V651.7c0-2.5,2.1-4.6,4.6-4.6h102.7c2.5,0,4.6,2.1,4.6,4.6v102.7
		C137.9,756.9,135.8,759,133.2,759z"/>
	<path class="st0" d="M786.3,965.6H683.7c-2.5,0-4.6-2.1-4.6-4.6V858.3c0-2.5,2.1-4.6,4.6-4.6h102.7c2.5,0,4.6,2.1,4.6,4.6v102.7
		C790.9,963.5,788.9,965.6,786.3,965.6z"/>
	<path class="st0" d="M109.3,1080H6.6c-2.5,0-4.6-2.1-4.6-4.6V972.7c0-2.5,2.1-4.6,4.6-4.6h102.7c2.5,0,4.6,2.1,4.6,4.6v102.7
		C113.9,1077.9,111.8,1080,109.3,1080z"/>
	<path class="st2" d="M301.1,1080H198.4c-2.5,0-4.6-2.1-4.6-4.6V972.7c0-2.5,2.1-4.6,4.6-4.6h102.7c2.5,0,4.6,2.1,4.6,4.6v102.7
		C305.7,1077.9,303.6,1080,301.1,1080z"/>
	<path class="st1" d="M922.2,892.1H819.5c-2.5,0-4.6-2.1-4.6-4.6V784.8c0-2.5,2.1-4.6,4.6-4.6h102.7c2.5,0,4.6,2.1,4.6,4.6v102.7
		C926.8,890,924.7,892.1,922.2,892.1z"/>
</g>
<g>
	<path class="st0" d="M864.2,405.7H761.6c-2.5,0-4.6-2.1-4.6-4.6V298.4c0-2.5,2.1-4.6,4.6-4.6h102.7c2.5,0,4.6,2.1,4.6,4.6v102.7
		C868.9,403.6,866.8,405.7,864.2,405.7z"/>
	<path class="st1" d="M946.6,647H844c-2.5,0-4.6-2.1-4.6-4.6V539.7c0-2.5,2.1-4.6,4.6-4.6h102.7c2.5,0,4.6,2.1,4.6,4.6v102.7
		C951.2,644.9,949.2,647,946.6,647z"/>
	<path class="st0" d="M864.2,591H761.6c-2.5,0-4.6-2.1-4.6-4.6V483.7c0-2.5,2.1-4.6,4.6-4.6h102.7c2.5,0,4.6,2.1,4.6,4.6v102.7
		C868.9,589,866.8,591,864.2,591z"/>
	<path class="st0" d="M187.2,384.4H84.5c-2.5,0-4.6-2.1-4.6-4.6V277.2c0-2.5,2.1-4.6,4.6-4.6h102.7c2.5,0,4.6,2.1,4.6,4.6v102.7
		C191.8,382.4,189.7,384.4,187.2,384.4z"/>
	<path class="st1" d="M187.2,517.8H84.5c-2.5,0-4.6-2.1-4.6-4.6V410.6c0-2.5,2.1-4.6,4.6-4.6h102.7c2.5,0,4.6,2.1,4.6,4.6v102.7
		C191.8,515.8,189.7,517.8,187.2,517.8z"/>
	<path class="st1" d="M243.1,573.8H140.5c-2.5,0-4.6-2.1-4.6-4.6V466.5c0-2.5,2.1-4.6,4.6-4.6h102.7c2.5,0,4.6,2.1,4.6,4.6v102.7
		C247.7,571.7,245.7,573.8,243.1,573.8z"/>
	<path class="st0" d="M318.7,440.4H216.1c-2.5,0-4.6-2.1-4.6-4.6V333.1c0-2.5,2.1-4.6,4.6-4.6h102.7c2.5,0,4.6,2.1,4.6,4.6v102.7
		C323.4,438.3,321.3,440.4,318.7,440.4z"/>
	<path class="st1" d="M452.8,440.4H350.2c-2.5,0-4.6-2.1-4.6-4.6V333.1c0-2.5,2.1-4.6,4.6-4.6h102.7c2.5,0,4.6,2.1,4.6,4.6v102.7
		C457.4,438.3,455.4,440.4,452.8,440.4z"/>
	<path class="st0" d="M1002.6,591H899.9c-2.5,0-4.6-2.1-4.6-4.6V483.7c0-2.5,2.1-4.6,4.6-4.6h102.7c2.5,0,4.6,2.1,4.6,4.6v102.7
		C1007.2,589,1005.1,591,1002.6,591z"/>
	<path class="st1" d="M1002.6,405.7H899.9c-2.5,0-4.6-2.1-4.6-4.6V298.4c0-2.5,2.1-4.6,4.6-4.6h102.7c2.5,0,4.6,2.1,4.6,4.6v102.7
		C1007.2,403.6,1005.1,405.7,1002.6,405.7z"/>
	<path class="st1" d="M374.7,384.4H272c-2.5,0-4.6-2.1-4.6-4.6V277.2c0-2.5,2.1-4.6,4.6-4.6h102.7c2.5,0,4.6,2.1,4.6,4.6v102.7
		C379.3,382.4,377.2,384.4,374.7,384.4z"/>
	<path class="st1" d="M374.7,573.8H272c-2.5,0-4.6-2.1-4.6-4.6V466.5c0-2.5,2.1-4.6,4.6-4.6h102.7c2.5,0,4.6,2.1,4.6,4.6v102.7
		C379.3,571.7,377.2,573.8,374.7,573.8z"/>
	<path class="st0" d="M510.3,496.3H407.7c-2.5,0-4.6-2.1-4.6-4.6V389.1c0-2.5,2.1-4.6,4.6-4.6h102.7c2.5,0,4.6,2.1,4.6,4.6v102.7
		C514.9,494.3,512.9,496.3,510.3,496.3z"/>
	<path class="st1" d="M644.8,573.8H542.2c-2.5,0-4.6-2.1-4.6-4.6V466.5c0-2.5,2.1-4.6,4.6-4.6h102.7c2.5,0,4.6,2.1,4.6,4.6v102.7
		C649.5,571.7,647.4,573.8,644.8,573.8z"/>
	<path class="st1" d="M700.8,629.7H598.1c-2.5,0-4.6-2.1-4.6-4.6V522.5c0-2.5,2.1-4.6,4.6-4.6h102.7c2.5,0,4.6,2.1,4.6,4.6v102.7
		C705.4,627.7,703.3,629.7,700.8,629.7z"/>
	<path class="st0" d="M430.6,629.7H328c-2.5,0-4.6-2.1-4.6-4.6V522.5c0-2.5,2.1-4.6,4.6-4.6h102.7c2.5,0,4.6,2.1,4.6,4.6v102.7
		C435.2,627.7,433.2,629.7,430.6,629.7z"/>
	<path class="st2" d="M565,629.7H462.3c-2.5,0-4.6-2.1-4.6-4.6V522.5c0-2.5,2.1-4.6,4.6-4.6H565c2.5,0,4.6,2.1,4.6,4.6v102.7
		C569.6,627.7,567.5,629.7,565,629.7z"/>
	<path class="st2" d="M131.2,328.5H28.6c-2.5,0-4.6-2.1-4.6-4.6V221.2c0-2.5,2.1-4.6,4.6-4.6h102.7c2.5,0,4.6,2.1,4.6,4.6v102.7
		C135.9,326.4,133.8,328.5,131.2,328.5z"/>
	<path class="st0" d="M784.3,535.1H681.7c-2.5,0-4.6-2.1-4.6-4.6V427.8c0-2.5,2.1-4.6,4.6-4.6h102.7c2.5,0,4.6,2.1,4.6,4.6v102.7
		C788.9,533,786.9,535.1,784.3,535.1z"/>
	<path class="st0" d="M107.3,649.5H4.6c-2.5,0-4.6-2.1-4.6-4.6V542.3c0-2.5,2.1-4.6,4.6-4.6h102.7c2.5,0,4.6,2.1,4.6,4.6v102.7
		C111.9,647.5,109.8,649.5,107.3,649.5z"/>
	<path class="st2" d="M299.1,649.5H196.4c-2.5,0-4.6-2.1-4.6-4.6V542.3c0-2.5,2.1-4.6,4.6-4.6h102.7c2.5,0,4.6,2.1,4.6,4.6v102.7
		C303.7,647.5,301.6,649.5,299.1,649.5z"/>
	<path class="st1" d="M920.2,461.6H817.5c-2.5,0-4.6-2.1-4.6-4.6V354.4c0-2.5,2.1-4.6,4.6-4.6h102.7c2.5,0,4.6,2.1,4.6,4.6V457
		C924.8,459.6,922.7,461.6,920.2,461.6z"/>
</g>
</svg>
