<?xml version="1.0" encoding="utf-8"?>
<!-- Generator: Adobe Illustrator 19.1.0, SVG Export Plug-In . SVG Version: 6.00 Build 0)  -->
<svg version="1.1" id="Layer_1" xmlns="http://www.w3.org/2000/svg" xmlns:xlink="http://www.w3.org/1999/xlink" x="0px" y="0px"
	 viewBox="-50 50 25 25" style="enable-background:new -50 50 25 25;" xml:space="preserve">
<style type="text/css">
	.st0{fill:#FFFFFF;}
</style>
<g id="XMLID_15614_">
	<path id="XMLID_15616_" class="st0" d="M-161,9.8c-1.1,2.5-2.4,4.8-4.2,6.9c-0.8,1.1-1.7,2.1-2.6,3.1c-0.7,0.8-1.6,0.8-2.2,0
		c-2.3-2.6-4.5-5.6-6.1-8.7c-0.8-1.6-1.5-3.2-1.7-5.1c-0.3-2.8,0.5-5.4,2.6-7.4c1.9-1.9,4.2-2.7,6.7-2.6c4.2,0.2,7.8,3.5,8.3,7.6
		C-159.9,4.2-160.3,8.3-161,9.8z M-168.8,1.2c-1.9,0-3.5,1.6-3.5,3.5s1.6,3.5,3.5,3.5c1.9,0,3.5-1.6,3.5-3.5S-166.8,1.2-168.8,1.2z"
		/>
</g>
<g>
	<path class="st0" d="M-37.5,74.1c-6.3,0-11.7-5.3-11.6-11.7c0-6.3,5.3-11.6,11.7-11.6c6.3,0,11.6,5.3,11.6,11.6
		C-25.9,68.8-31.2,74.1-37.5,74.1z M-37.6,73c5.7,0.1,10.6-4.7,10.6-10.3c0.1-5.8-4.7-10.7-10.3-10.8C-43.1,51.9-48,56.7-48,62.3
		C-48.1,68.1-43.3,73-37.6,73z"/>
	<path class="st0" d="M-33.5,63.1c-0.1,0-0.3,0-0.4,0c-2.9,0-5.7,0-8.6,0c-0.1,0-0.3,0-0.4,0c-0.3-0.1-0.4-0.3-0.4-0.5
		c0-0.3,0.1-0.5,0.4-0.5c0.1,0,0.3,0,0.4,0c2.9,0,5.8,0,8.7,0c0.1,0,0.3,0,0.5,0c-0.1-0.1-0.2-0.2-0.3-0.3c-1.1-1.1-2.2-2.2-3.3-3.3
		c-0.1-0.1-0.2-0.2-0.3-0.3c-0.1-0.2-0.1-0.5,0.1-0.7c0.2-0.2,0.4-0.2,0.7-0.1c0.1,0.1,0.2,0.2,0.3,0.3c1.4,1.4,2.9,2.9,4.3,4.3
		c0.5,0.5,0.5,0.7,0,1.1c-1.4,1.4-2.9,2.9-4.3,4.3c-0.1,0.1-0.1,0.2-0.2,0.2c-0.2,0.2-0.5,0.2-0.7,0c-0.2-0.2-0.3-0.5-0.1-0.7
		c0.1-0.2,0.3-0.3,0.4-0.5C-35.6,65.3-34.5,64.2-33.5,63.1C-33.5,63.1-33.5,63.1-33.5,63.1z"/>
</g>
</svg>
