<?xml version="1.0" encoding="utf-8"?>
<!-- Generator: Adobe Illustrator 19.1.0, SVG Export Plug-In . SVG Version: 6.00 Build 0)  -->
<svg version="1.1" id="Layer_1" xmlns="http://www.w3.org/2000/svg" xmlns:xlink="http://www.w3.org/1999/xlink" x="0px" y="0px"
	 viewBox="-464 266 30 30" style="enable-background:new -464 266 30 30;" xml:space="preserve">
<style type="text/css">
	.st0{fill:#FFFFFF;}
	.st1{fill:#CBEFFB;}
	.st2{fill:#576177;}
	.st3{fill:#FCE43A;}
	.st4{fill:#FFEB99;}
	.st5{fill:#E8E1CF;}
	.st6{fill:#E2D9C3;}
	.st7{fill:#F7F1DA;}
	.st8{fill:#EFE8D5;}
	.st9{fill:#3D495B;}
	.st10{fill:#FF936D;}
	.st11{fill:#FF8B6C;}
	.st12{fill:#F48967;}
	.st13{fill:#BEE4ED;}
	.st14{fill:#707F99;}
	.st15{fill:#DEF6FC;}
	.st16{fill:#E5E5E5;}
	.st17{fill:#263547;}
	.st18{fill:#9BACBC;}
	.st19{fill:#FDFFFE;}
	.st20{fill:#52DDB5;}
	.st21{fill:#2D4859;}
	.st22{fill:#849EBC;}
	.st23{fill:#564640;}
	.st24{fill:#6AC2CE;}
	.st25{fill:#E2B150;}
	.st26{fill:#ADADAD;}
	.st27{fill:#606060;}
	.st28{fill:#A64A42;}
	.st29{fill:#2D2D2D;}
	.st30{fill:#EFEFEF;}
	.st31{fill:#0F3758;}
	.st32{fill:#7BBABE;}
	.st33{fill:#76BBC1;}
	.st34{fill:#0E3757;}
	.st35{fill:#EC574F;}
	.st36{fill:#F6AA1E;}
	.st37{opacity:0.75;fill:#7BBABE;enable-background:new    ;}
	.st38{opacity:0.75;fill:#EC574F;enable-background:new    ;}
	.st39{opacity:0.75;fill:#F6AA1E;enable-background:new    ;}
	.st40{fill:url(#SVGID_1_);}
	.st41{fill:url(#SVGID_2_);}
	.st42{fill:#25A6DE;}
	.st43{fill:url(#SVGID_3_);}
	.st44{fill:#0984C6;}
	.st45{fill:url(#SVGID_4_);}
	.st46{fill:#44535D;}
	.st47{fill:url(#SVGID_5_);}
	.st48{fill:url(#SVGID_6_);}
	.st49{fill:url(#SVGID_7_);}
	.st50{fill:url(#SVGID_8_);}
	.st51{fill:url(#SVGID_9_);}
	.st52{fill:url(#SVGID_10_);}
	.st53{fill:url(#SVGID_11_);}
	.st54{fill:url(#SVGID_12_);}
	.st55{fill:url(#SVGID_13_);}
	.st56{fill:#D1D1D1;}
	.st57{fill:#364D5C;}
	.st58{fill:#EF7154;}
	.st59{fill:#0D2038;}
	.st60{opacity:0.5;fill:#231F20;enable-background:new    ;}
	.st61{fill:#0E2037;}
	.st62{opacity:0.8;fill:#D1CCE8;enable-background:new    ;}
	.st63{fill:#C9C9C9;}
	.st64{fill:#1ABC9C;}
	.st65{fill:#F39C12;}
	.st66{fill:#77B3D4;}
	.st67{fill:#0E2947;}
	.st68{fill:#72C6E9;}
	.st69{fill:#EA3924;}
	.st70{fill:#F3735C;}
	.st71{fill:#F29C21;}
	.st72{fill:#7B7B7B;}
	.st73{fill:#FFFFFF;stroke:#000000;stroke-miterlimit:10;}
</style>
<g>
	<g>
		<ellipse class="st0" cx="-628.8" cy="2263.5" rx="13.2" ry="14.1"/>
		<ellipse class="st0" cx="-587.1" cy="2263.5" rx="13.2" ry="14.1"/>
		<ellipse class="st0" cx="-570.8" cy="2267.3" rx="9.6" ry="10.2"/>
		<ellipse class="st0" cx="-641" cy="2267.3" rx="9.6" ry="10.2"/>
		<ellipse class="st0" cx="-608.1" cy="2255.5" rx="20.7" ry="22"/>
	</g>
	<g>
		<ellipse class="st0" cx="-481.2" cy="2267.8" rx="15.2" ry="16.2"/>
		<ellipse class="st0" cx="-433.3" cy="2276.6" rx="15.2" ry="16.2"/>
		<ellipse class="st0" cx="-414.6" cy="2276.6" rx="11" ry="11.7"/>
		<ellipse class="st0" cx="-495.2" cy="2270.9" rx="11" ry="11.7"/>
		<ellipse class="st0" cx="-457.4" cy="2267.8" rx="23.7" ry="25.3"/>
	</g>
	<g>
		<g>
			<path class="st1" d="M-419.9,2311.5c0,59.9-48.5,105.6-108.4,105.6s-108.4-45.8-108.4-105.6c0-59.9,48.5-108.4,108.4-108.4
				C-468.5,2203.1-419.9,2251.6-419.9,2311.5z"/>
			<g>
				<path class="st0" d="M-587.5,2363.8c0.1,0,0.1,0,0.2-0.1l0,0C-587.3,2363.7-587.4,2363.8-587.5,2363.8z"/>
				<path class="st0" d="M-410.9,2321.9c0-6.5-5.5-11.7-12.4-11.7c-5.3,0-9.7,3.1-11.5,7.4c-0.5,0-1.1-0.1-1.6-0.1
					c-11.1,0-20.2,9.2-20.2,20.5c0,3.7,1,7.2,2.7,10.2c4.7-1.4,9.1-0.6,11.4,2.4c0.3,0.4,0.5,0.8,0.7,1.2c-0.2,0.1-0.4,0.1-0.6,0.2
					c-2.3-2.4-6.3-3-10.4-1.9l0,0c-2.4,0.6-4.8,1.8-7.1,3.5c-4,3.1-6.5,7.1-7,10.8c-0.1,0.9-0.2,1.8,0,2.7c0.2,1.3,0.6,2.6,1.4,3.6
					c0.4,0.5,0.8,0.9,1.3,1.3c-0.1,0-0.1,0-0.2,0.1c-1.1-0.5-2-1.2-2.7-2.2c-0.7-1-1.2-2.1-1.4-3.3c-3.3-1-7-1.4-10.9-1
					c-9.7,1-18.1,6.3-22.4,13.3c-10-12-14.8-50.1-14.8-50.1H-540c0,0-4.9,38.5-15,50.3c-0.8,0.1-1.7,0.2-2.5,0.4
					c-1.4-5.2-4.8-10-10-13.3c-6.3-4-13.8-4.7-19.8-2.4c0.3,2.3-0.1,4.5-1.4,6.2c-0.7,0.9-1.6,1.6-2.7,2.2c-0.1,0-0.1,0-0.2-0.1
					c0.5-0.4,0.9-0.8,1.3-1.3c1.3-1.7,1.8-4,1.4-6.3l0,0l0,0c-0.6-3.7-3-7.8-7-10.8c-2.3-1.7-4.7-2.9-7.1-3.5l0,0
					c-4.2-1.1-8.1-0.5-10.4,1.9c-0.2-0.1-0.4-0.1-0.6-0.2c0.2-0.4,0.4-0.8,0.7-1.2c2.3-3,6.7-3.8,11.4-2.4c1.7-3,2.7-6.5,2.7-10.2
					c0-11.3-9-20.5-20.2-20.5c-0.5,0-1.1,0-1.6,0.1l0,0l0,0c-1.8-4.3-6.3-7.4-11.5-7.4c-6.9,0-12.4,5.2-12.4,11.7
					c0,3.2,1.4,6.1,3.6,8.3l0,0c0.8,0.7,1.7,1.4,2.6,1.9c-0.6,1.9-0.9,3.9-0.9,6c0,7.7,4.1,14.3,10.3,17.9c-0.1,0.1-0.2,0.2-0.3,0.3
					c-5,6.3-3.4,15.9,3.5,21.4c3.9,3.1,8.7,4.3,13.1,3.7c0.5,6.7,7.1,14.9,17.1,20.5c5.7,3.2,11.6,4.9,16.7,5.3
					c-0.2,0.8-0.3,1.5-0.3,2.3c0,5.7,5.7,10.3,12.7,10.3c2.8,0,5.3-0.7,7.4-1.9c3,4.7,8.8,7.9,15.5,7.9c2,0,3.9-0.3,5.7-0.8
					c4.1-0.5,7.8-2.3,10.4-4.9c2.7,2.6,6.3,4.3,10.4,4.9c1.8,0.5,3.7,0.8,5.7,0.8c6.1,0,11.5-2.7,14.7-6.8l0,0
					c0.3-0.4,0.5-0.8,0.8-1.1c0.1-0.1,0.1-0.2,0.2-0.3c2,1.4,4.5,2.3,7.2,2.3c7,0,12.6-5.7,12.7-12.7c0.1,0,0.1,0,0.2,0
					c0.5,0,1.1-0.1,1.6-0.2l0,0c4.6-0.6,9.6-2.3,14.5-5c10-5.5,16.5-13.8,17.1-20.5c4.3,0.7,9.1-0.5,13.1-3.7
					c7-5.6,8.5-15.2,3.5-21.4c-0.1-0.1-0.2-0.2-0.3-0.3c6.1-3.5,10.3-10.2,10.3-17.9c0-2.1-0.3-4.1-0.9-6
					C-413.5,2330-410.9,2326.3-410.9,2321.9z"/>
			</g>
			<path class="st2" d="M-502.8,2312c7.6,2,12.4,10.4,14.7,15.6c1.1,2.4,2.5,2.4,3.3-0.1c11.3-35-2-49.8-8.5-54.7L-502.8,2312z"/>
			<path class="st2" d="M-553.9,2312c-7.6,2-12.4,10.4-14.7,15.6c-1.1,2.4-2.5,2.4-3.3-0.1c-11.2-35,2-49.8,8.5-54.7L-553.9,2312z"
				/>
			<path class="st3" d="M-528.3,2326c-7.2-0.2-12.5,6.3-12.9,11.6c-0.8,5.7,3.2,10.2,6.6,13.5c4.3,3.7,5.7,7.4,6.1,9.7h0.3
				c0.4-2.4,1.8-6,6.1-9.7c3.4-3.2,7.4-7.8,6.6-13.5C-515.9,2332.3-521.1,2325.8-528.3,2326z"/>
			<path class="st4" d="M-528.3,2326.7c-5.1-0.2-8.8,4.4-9.1,8.2c-0.6,4,2.3,7.2,4.7,9.5c3,2.6,4,5.2,4.3,6.8h0.2
				c0.3-1.7,1.2-4.2,4.3-6.8c2.4-2.3,5.2-5.5,4.7-9.5C-519.6,2331.1-523.3,2326.5-528.3,2326.7z"/>
			<path class="st5" d="M-539.9,2323.3v3.6c0,1.6,1.3,2.9,2.9,2.9h17.4c1.6,0,2.9-1.3,2.9-2.9v-3.6H-539.9z"/>
			<rect x="-539.9" y="2323.3" class="st6" width="23.2" height="2.2"/>
			<path class="st7" d="M-543,2318v3.9c0,1.6,1.3,2.9,2.9,2.9h23.5c1.6,0,2.9-1.3,2.9-2.9v-3.9H-543z"/>
			<rect x="-543" y="2318" class="st8" width="29.2" height="3.4"/>
			<path class="st9" d="M-557.2,2313.3c1-0.6,2.1-1.1,3.3-1.4l-9.4-39.1c-0.6,0.5-1.3,1-2,1.7
				C-564.9,2288.5-561.6,2301.7-557.2,2313.3z"/>
			<path class="st10" d="M-525.3,2183.6c-1.7-2.1-4.5-2.1-6.1,0c-8.7,10.9-32.9,44.7-32.9,84.7c0,17.7,4.7,34.1,10.7,47.9
				c1.1,2.4,4.1,4.4,6.8,4.4h37c2.6,0,5.7-1.9,6.8-4.4c6-13.8,10.7-30.2,10.7-47.9C-492.3,2228.3-516.6,2194.4-525.3,2183.6z"/>
			<path class="st11" d="M-523.9,2185.3c11.5,23.1,44.4,102.6-30.4,129.4c0.2,0.5,0.4,1,0.6,1.5c1.1,2.4,4.1,4.4,6.8,4.4h37
				c2.6,0,5.7-1.9,6.8-4.4c6-13.8,10.7-30.2,10.7-47.9C-492.3,2230.2-514.3,2197.7-523.9,2185.3z"/>
			<path class="st9" d="M-491.3,2274.5c-0.7-0.7-1.4-1.2-2-1.7l-9.4,39.1c1.2,0.3,2.3,0.8,3.3,1.4
				C-495.1,2301.7-491.8,2288.5-491.3,2274.5z"/>
			<path class="st12" d="M-525.3,2183.6c-0.1-0.1-0.2-0.2-0.3-0.3c15.9,21.5,45.1,89.6,5.3,137.3h10.5c2.6,0,5.7-1.9,6.8-4.4
				c6-13.8,10.7-30.2,10.7-47.9C-492.3,2228.3-516.6,2194.4-525.3,2183.6z"/>
			<g>
				<g>
					<path class="st0" d="M-528.4,2258.5c-8.8,0-15.9-7.1-15.9-15.9c0-8.8,7.1-15.9,15.9-15.9c8.8,0,15.9,7.1,15.9,15.9
						C-512.5,2251.4-519.7,2258.5-528.4,2258.5z"/>
				</g>
			</g>
			<path class="st13" d="M-525.2,2229.5c-1-0.2-2.1-0.4-3.1-0.4s-1.9,0.1-2.8,0.3c-6.1,1.3-10.6,6.7-10.6,13.2
				c0,6.6,4.8,12.2,11.2,13.3c0.4,0.1,0.7,0.1,1.1,0.1c0.4,0,0.8,0.1,1.2,0.1c7.4,0,13.5-6,13.5-13.5
				C-514.9,2236.3-519.3,2230.9-525.2,2229.5z"/>
			<path class="st2" d="M-532.3,2299.9c-0.3-16.3,1.5-29.6,4-29.6s4.3,13.3,4,29.6c-0.3,16.3-2.1,29.5-4,29.5
				C-530.2,2329.4-532,2316.2-532.3,2299.9z"/>
			<path class="st14" d="M-530.4,2286.7c-0.2-6.5,0.8-11.7,2.1-11.7s2.2,5.2,2.1,11.7c-0.2,6.5-1.1,11.7-2.1,11.7
				S-530.3,2293.2-530.4,2286.7z"/>
			<g>
				<path class="st15" d="M-532.6,2238.4c-1.7,1.6-2.7,4.1-4.2,4.2c-1.5,0.3-3.1-4.3,0.4-8c3.5-3.6,8-2.3,7.7-0.8
					C-528.9,2235.3-531.1,2236.6-532.6,2238.4z"/>
			</g>
		</g>
		<path class="st0" d="M-463.6,2279.7c0.2-8.7-0.9-11.7-2.9-13.9c-2.2-2-5.2-3.1-13.9-2.9c8.7,0.2,11.7-0.9,13.9-2.9
			c2-2.2,3.1-5.2,2.9-13.9c-0.2,8.7,0.9,11.7,2.9,13.9c2.2,2,5.2,3.1,13.9,2.9c-8.7-0.2-11.7,0.9-13.9,2.9
			C-462.7,2267.9-463.8,2271-463.6,2279.7z"/>
		<path class="st1" d="M-601.4,2217.2c0.2-8.7-0.9-11.7-2.9-13.9c-2.2-2-5.2-3.1-13.9-2.9c8.7,0.2,11.7-0.9,13.9-2.9
			c2-2.2,3.1-5.2,2.9-13.9c-0.2,8.7,0.9,11.7,2.9,13.9c2.2,2,5.2,3.1,13.9,2.9c-8.7-0.2-11.7,0.9-13.9,2.9
			C-600.6,2205.5-601.7,2208.6-601.4,2217.2z"/>
		<circle class="st0" cx="-602.2" cy="2286.7" r="5.6"/>
		<circle class="st0" cx="-476.3" cy="2338.9" r="5.6"/>
	</g>
</g>
<path class="st16" d="M-652.1,2659.8c-5.4,0-9.8-4.4-9.8-9.9v-17.3v-0.6H-418v0.6v17.3c0,5.5-4.4,9.9-9.8,9.9H-652.1z"/>
<path class="st17" d="M-427.8,2490.5h-224.3c-5.4,0-9.8,4.4-9.8,9.9V2632H-418v-131.5C-418,2495-422.3,2490.5-427.8,2490.5z"/>
<rect x="-653.3" y="2498.6" class="st18" width="225.7" height="125.5"/>
<g>
	<path class="st0" d="M-566.8,2660.8h56c0,21.5,9.7,22.1,9.7,22.1v5.6h-5.1h-67.1h-4.4v-5.6c0,0,11.3-1.2,11.3-22.1"/>
	<path class="st16" d="M-501.1,2683v-0.1c0,0-9.7-0.7-9.7-22.1h-55.6c0,21-11.3,22.1-11.3,22.1v0.1H-501.1z"/>
</g>
<g>
	<rect x="-645.7" y="2503.8" class="st19" width="142.5" height="114.8"/>
	<g>
		<path class="st20" d="M-603.1,2548.3c-0.6,0.5-1.1,0.9-1.8,1.2l7.6,14l0,0c8.1-4.4,12.9-12,13.5-21.2l-15.9-1
			C-599.8,2543.9-601,2546.5-603.1,2548.3z"/>
		<path class="st21" d="M-604.9,2549.5c-4.1,2.2-9.2,1.3-12.3-2.3l0,0l-14.1,12l0,0c8.8,10.3,23.3,13,35.2,6.5L-604.9,2549.5z"/>
		<path class="st22" d="M-635.1,2541.8L-635.1,2541.8c0.3,6,2.1,10.8,6.1,15.4l11.8-10.1c-1.5-1.8-2.3-3.9-2.4-6L-635.1,2541.8z"/>
		<path class="st23" d="M-599.6,2541.3l13.4,0.8l0,0c0.3-4.4-0.5-8.3-2.6-12.2l0,0l-11.9,6.2
			C-599.9,2537.7-599.5,2539.5-599.6,2541.3z"/>
		<path class="st24" d="M-607.4,2512L-607.4,2512l-1.5,18.7c2.6,0.2,5.1,1.4,6.9,3.5c0.5,0.6,0.9,1.2,1.3,1.9l16.6-8.7
			C-588.8,2518.3-597.2,2512.8-607.4,2512z"/>
		<path class="st25" d="M-641.5,2542.1l21.9-0.9c-0.1-3,1.1-6,3.5-8c2.1-1.8,4.7-2.6,7.2-2.4l1.7-21.8c-1.3-0.1-2.6-0.1-3.9-0.1
			C-628.6,2509.6-642.2,2524.5-641.5,2542.1z"/>
	</g>
	<rect x="-496.9" y="2503.8" class="st25" width="59.9" height="114.8"/>
	<rect x="-569.9" y="2512" class="st26" width="56.9" height="2.5"/>
	<rect x="-495.4" y="2507.6" class="st27" width="56.9" height="2.5"/>
	<rect x="-495.4" y="2518.8" class="st27" width="56.9" height="2.5"/>
	<rect x="-495.4" y="2530" class="st27" width="56.9" height="2.5"/>
	<rect x="-495.4" y="2541.2" class="st27" width="56.9" height="2.5"/>
	<rect x="-495.4" y="2552.4" class="st27" width="56.9" height="2.4"/>
	<rect x="-495.4" y="2563.6" class="st27" width="56.9" height="2.5"/>
	<rect x="-495.4" y="2574.9" class="st27" width="56.9" height="2.5"/>
	<rect x="-569.9" y="2521.6" class="st26" width="56.9" height="2.5"/>
	<rect x="-569.9" y="2531.2" class="st26" width="56.9" height="2.5"/>
	<rect x="-569.9" y="2540.8" class="st26" width="56.9" height="2.5"/>
	<rect x="-569.9" y="2550.3" class="st26" width="56.9" height="2.4"/>
	<rect x="-569.9" y="2559.9" class="st26" width="56.9" height="2.5"/>
	<rect x="-569.9" y="2569.5" class="st26" width="56.9" height="2.5"/>
	<rect x="-569.9" y="2579.1" class="st26" width="56.9" height="2.5"/>
	<rect x="-569.9" y="2588.7" class="st26" width="56.9" height="2.5"/>
	<rect x="-569.9" y="2598.3" class="st26" width="56.9" height="2.5"/>
	<rect x="-638.1" y="2581.6" class="st25" width="54.3" height="28.7"/>
	<g>
		<rect x="-632.2" y="2597.8" class="st28" width="3.7" height="7.7"/>
		<rect x="-626.4" y="2594.2" class="st28" width="3.7" height="11.3"/>
		<rect x="-620.8" y="2591" class="st28" width="3.7" height="14.5"/>
		<polygon class="st28" points="-618.9,2585.7 -621.3,2586.4 -620.7,2587.3 -631.9,2594.8 -631.4,2595.5 -620.2,2588.1 
			-619.7,2588.9 -618.1,2587 -616.5,2585 		"/>
	</g>
	<rect x="-608.9" y="2587.5" class="st29" width="19.7" height="2.5"/>
	<rect x="-608.9" y="2594.7" class="st29" width="19.7" height="2.5"/>
	<rect x="-608.9" y="2601.9" class="st29" width="19.7" height="2.5"/>
</g>
<g>
	<path class="st30" d="M257.5,2446.9H54.6c-1.6,0-3-1.3-3-3v-169.3c0-1.6,1.4-3,3-3h202.9c1.7,0,3,1.4,3,3v169.3
		C260.5,2445.5,259.2,2446.9,257.5,2446.9z"/>
	<path class="st31" d="M51.6,2280.2c0-5.1-0.8-13.9,9.2-15.4h190.5c10.7,0.1,9.2,10.3,9.2,15.4"/>
	<rect x="67" y="2297.5" class="st32" width="32.5" height="32.5"/>
	<rect x="67" y="2347.5" class="st32" width="54.3" height="79.3"/>
	<rect x="131.1" y="2347.5" class="st31" width="104.3" height="8.7"/>
	<rect x="131.1" y="2363.8" class="st33" width="104.3" height="8.7"/>
	<rect x="131.1" y="2380.1" class="st33" width="104.3" height="8.7"/>
	<rect x="131.1" y="2396.4" class="st33" width="104.3" height="8.7"/>
	<rect x="131.1" y="2412.7" class="st33" width="72.8" height="8.7"/>
	<rect x="115.2" y="2297.5" class="st34" width="32.5" height="32.5"/>
	<rect x="163.4" y="2297.5" class="st35" width="32.5" height="32.5"/>
	<rect x="211.5" y="2297.5" class="st36" width="32.5" height="32.5"/>
	<circle class="st37" cx="62.4" cy="2272.6" r="2.9"/>
	<circle class="st38" cx="73.2" cy="2272.6" r="2.9"/>
	<circle class="st39" cx="84.1" cy="2272.6" r="2.9"/>
	<g>
		<g>
			<g>
				
					<linearGradient id="SVGID_1_" gradientUnits="userSpaceOnUse" x1="-270.0618" y1="2124.5442" x2="-247.7706" y2="2124.5442" gradientTransform="matrix(0.7071 0.7071 -0.7071 0.7071 1974.6954 1015.514)">
					<stop  offset="0" style="stop-color:#CF837A"/>
					<stop  offset="0.2242" style="stop-color:#F7AC9D"/>
					<stop  offset="0.8121" style="stop-color:#844D46"/>
					<stop  offset="0.8196" style="stop-color:#875048"/>
					<stop  offset="1" style="stop-color:#D08A7F"/>
				</linearGradient>
				<path class="st40" d="M298.2,2341.6c2.1-2.1,2.5-5.1,0.9-6.6l-10-10c-1.6-1.6-4.6-1.2-6.6,0.9l-5.7,5.7l15.8,15.8L298.2,2341.6z
					"/>
				
					<linearGradient id="SVGID_2_" gradientUnits="userSpaceOnUse" x1="180.5125" y1="2360.0745" x2="192.1834" y2="2373.2051" gradientTransform="matrix(1.0087 2.640000e-002 2.640000e-002 1.0087 -36.5017 18.8435)">
					<stop  offset="0" style="stop-color:#E3CC94"/>
					<stop  offset="0.2788" style="stop-color:#F8E0AC"/>
					<stop  offset="0.8652" style="stop-color:#A2913F"/>
				</linearGradient>
				<path class="st41" d="M213.2,2395.2l-10.2,20.6l5.3,5.3l20.6-10.3C229.5,2410.8,213.2,2394.6,213.2,2395.2z"/>
				<path class="st42" d="M264.5,2343.8l-2.2,2.2l-44.4,44.4l-2.5,2.5l-1.8,1.8c-0.1,0.2-0.3,0.3-0.4,0.5c0,0-0.8,1.3-2.1,4.3
					s4.7-1.6,4.7-1.6l2.2-2.2l46.9-46.9l2.2-2.2L264.5,2343.8z"/>
				
					<linearGradient id="SVGID_3_" gradientUnits="userSpaceOnUse" x1="243.9935" y1="2373.2917" x2="255.7105" y2="2385.5415" gradientTransform="matrix(1 0 0 1 0 4)">
					<stop  offset="0" style="stop-color:#00589A"/>
					<stop  offset="1" style="stop-color:#0374AF"/>
				</linearGradient>
				<path class="st43" d="M274.2,2353.4l-2.2,2.2l-46.9,46.9l-2.2,2.2c0,0-1.5,6.3,0.4,6.7s5.7-0.7,5.7-0.7c0.2-0.1,0.3-0.3,0.5-0.4
					l1.8-1.8l2.5-2.5l44.4-44.4l2.2-2.2L274.2,2353.4z"/>
				<path class="st44" d="M267.2,2346.5l-2.2,2.2l-46.9,46.9l-2.2,2.2c0,0-1.3,5.4,0.2,6.5c1.5,1.2,6.8,0.4,6.8,0.4l2.2-2.2
					l46.9-46.9l2.2-2.2L267.2,2346.5z"/>
				<path class="st0" d="M269.3,2343.9l-0.3,0.3l-52.7,52.4l-0.4,0.3l-0.2,0.2c0,0,0,0-0.1,0.1l0.4,0.4l0.3-0.3l53-52.7l0.3-0.3
					L269.3,2343.9z"/>
				
					<linearGradient id="SVGID_4_" gradientUnits="userSpaceOnUse" x1="-270.0504" y1="2561.3071" x2="-247.7762" y2="2561.3071" gradientTransform="matrix(0.7071 0.7071 -2.8128 2.8128 7666.0972 -4675.8921)">
					<stop  offset="5.617980e-003" style="stop-color:#B3D4E4"/>
					<stop  offset="6.034555e-002" style="stop-color:#C4DCE8"/>
					<stop  offset="0.1399" style="stop-color:#D6E5ED"/>
					<stop  offset="0.2244" style="stop-color:#E1EAEF"/>
					<stop  offset="0.3212" style="stop-color:#E4ECF0"/>
					<stop  offset="0.8424" style="stop-color:#4E7A8B"/>
				</linearGradient>
				<polygon class="st45" points="277,2331.3 264.4,2343.9 280.2,2359.6 292.7,2347.1 				"/>
				<polygon class="st0" points="278.1,2333.2 281.7,2336.8 269.7,2348.8 266.3,2345.2 				"/>
				<g>
					<polygon class="st46" points="267.5,2340.8 283.2,2356.6 284.5,2355.3 268.8,2339.5 					"/>
					<polygon class="st46" points="265.8,2342.5 281.5,2358.3 282,2357.8 266.3,2342 					"/>
				</g>
				<g>
					
						<linearGradient id="SVGID_5_" gradientUnits="userSpaceOnUse" x1="-302.1771" y1="1240.0219" x2="-279.8869" y2="1240.0219" gradientTransform="matrix(0.7231 0.7231 -0.2716 0.2716 823.5942 2221.4143)">
						<stop  offset="5.617980e-003" style="stop-color:#9AB8C7"/>
						<stop  offset="7.052061e-002" style="stop-color:#ABC4D1"/>
						<stop  offset="0.2175" style="stop-color:#CEDDE5"/>
						<stop  offset="0.297" style="stop-color:#DBE6EC"/>
						<stop  offset="0.6788" style="stop-color:#647881"/>
						<stop  offset="0.7639" style="stop-color:#657B85"/>
						<stop  offset="0.8506" style="stop-color:#688491"/>
						<stop  offset="0.9376" style="stop-color:#6C92A6"/>
						<stop  offset="1" style="stop-color:#71A0B9"/>
					</linearGradient>
					<polygon class="st47" points="267.7,2340.3 283.8,2356.5 285.1,2355.2 269,2339.1 					"/>
					
						<linearGradient id="SVGID_6_" gradientUnits="userSpaceOnUse" x1="-302.1501" y1="1247.7539" x2="-279.885" y2="1247.7539" gradientTransform="matrix(0.7231 0.7231 -0.2716 0.2716 823.5942 2221.4143)">
						<stop  offset="5.617980e-003" style="stop-color:#9AB8C7"/>
						<stop  offset="7.052061e-002" style="stop-color:#ABC4D1"/>
						<stop  offset="0.2175" style="stop-color:#CEDDE5"/>
						<stop  offset="0.297" style="stop-color:#DBE6EC"/>
						<stop  offset="0.6788" style="stop-color:#647881"/>
						<stop  offset="0.7639" style="stop-color:#657B85"/>
						<stop  offset="0.8506" style="stop-color:#688491"/>
						<stop  offset="0.9376" style="stop-color:#6C92A6"/>
						<stop  offset="1" style="stop-color:#71A0B9"/>
					</linearGradient>
					<polygon class="st48" points="266,2342.1 282.1,2358.2 282.6,2357.7 266.5,2341.6 					"/>
				</g>
				<g>
					<polygon class="st46" points="274,2334.3 289.7,2350.1 291,2348.8 275.2,2333.1 					"/>
					<polygon class="st46" points="272.3,2336 288,2351.8 288.5,2351.3 272.8,2335.5 					"/>
				</g>
				<g>
					
						<linearGradient id="SVGID_7_" gradientUnits="userSpaceOnUse" x1="-302.177" y1="1216.0896" x2="-279.8858" y2="1216.0896" gradientTransform="matrix(0.7231 0.7231 -0.2716 0.2716 823.5942 2221.4143)">
						<stop  offset="5.617980e-003" style="stop-color:#9AB8C7"/>
						<stop  offset="4.872734e-002" style="stop-color:#A9C3D0"/>
						<stop  offset="0.1587" style="stop-color:#CCDCE3"/>
						<stop  offset="0.2182" style="stop-color:#D9E5EB"/>
						<stop  offset="0.7273" style="stop-color:#6A808C"/>
						<stop  offset="0.8044" style="stop-color:#6B8391"/>
						<stop  offset="0.8948" style="stop-color:#6D8E9F"/>
						<stop  offset="0.9916" style="stop-color:#719EB7"/>
						<stop  offset="1" style="stop-color:#71A0B9"/>
					</linearGradient>
					<polygon class="st49" points="274.2,2333.9 290.3,2350 291.6,2348.7 275.4,2332.6 					"/>
					
						<linearGradient id="SVGID_8_" gradientUnits="userSpaceOnUse" x1="-302.1577" y1="1223.8217" x2="-279.8679" y2="1223.8217" gradientTransform="matrix(0.7231 0.7231 -0.2716 0.2716 823.5942 2221.4143)">
						<stop  offset="5.617980e-003" style="stop-color:#9AB8C7"/>
						<stop  offset="4.872734e-002" style="stop-color:#A9C3D0"/>
						<stop  offset="0.1587" style="stop-color:#CCDCE3"/>
						<stop  offset="0.2182" style="stop-color:#D9E5EB"/>
						<stop  offset="0.7273" style="stop-color:#6A808C"/>
						<stop  offset="0.8044" style="stop-color:#6B8391"/>
						<stop  offset="0.8948" style="stop-color:#6D8E9F"/>
						<stop  offset="0.9916" style="stop-color:#719EB7"/>
						<stop  offset="1" style="stop-color:#71A0B9"/>
					</linearGradient>
					<polygon class="st50" points="272.5,2335.6 288.6,2351.7 289.1,2351.2 273,2335.1 					"/>
				</g>
				
					<linearGradient id="SVGID_9_" gradientUnits="userSpaceOnUse" x1="278.6489" y1="2326.5789" x2="292.785" y2="2326.5789" gradientTransform="matrix(1 0 0 1 0 4)">
					<stop  offset="0" style="stop-color:#FFFFFF"/>
					<stop  offset="1" style="stop-color:#F7AC9D"/>
				</linearGradient>
				<path class="st51" d="M282.4,2335.5l4.6-4.6c1.8-1.8,4.3-2.1,5.7-0.8l-3.6-3.6c-1.4-1.4-3.9-1-5.7,0.8l-4.9,4.9l0,0l0.2-0.2
					L282.4,2335.5z"/>
				
					<rect x="268.8" y="2342" transform="matrix(-0.7076 -0.7066 0.7066 -0.7076 -1191.853 4192.4048)" class="st0" width="5.3" height="1.6"/>
				<polygon class="st0" points="267.4,2343.5 271,2347.1 271.4,2346.7 267.9,2343.1 				"/>
				
					<rect x="275.4" y="2335.7" transform="matrix(-0.7066 -0.7076 0.7076 -0.7066 -1178.8828 4184.208)" class="st0" width="5.2" height="1.6"/>
				<polygon class="st0" points="277.6,2340.7 277.9,2340.5 278,2340.3 278.1,2340.2 274.3,2336.5 274.3,2336.5 274.2,2336.7 
					273.9,2337 				"/>
				
					<linearGradient id="SVGID_10_" gradientUnits="userSpaceOnUse" x1="198.3288" y1="2415.0186" x2="204.7116" y2="2420.7363" gradientTransform="matrix(1 0 0 1 0 4)">
					<stop  offset="0" style="stop-color:#5F6062"/>
					<stop  offset="0.4909" style="stop-color:#808083"/>
					<stop  offset="0.5428" style="stop-color:#666567"/>
					<stop  offset="0.6052" style="stop-color:#4D4B4D"/>
					<stop  offset="0.6742" style="stop-color:#3A3838"/>
					<stop  offset="0.7519" style="stop-color:#2C2A2A"/>
					<stop  offset="0.8458" style="stop-color:#242122"/>
					<stop  offset="1" style="stop-color:#221F1F"/>
				</linearGradient>
				<path class="st52" d="M210,2419.9c0.1-0.2-0.4-0.2-0.5-0.3c-0.1,0-0.3,0-0.4,0s-0.3-0.2-0.2-0.4c0-0.2-0.2,0-0.2,0s-0.2,0-0.3,0
					s-0.2,0-0.4-0.1l-0.3-0.2c0,0,0,0,0.1,0c0-0.1,0-0.1,0-0.2c0-0.1,0-0.3-0.2-0.4s-0.2,0-0.5,0.1c-0.4,0.1-0.2-0.2-0.2-0.2h-0.1
					c0,0-0.1,0-0.3,0l-0.4-0.2l0.1-0.1c0-0.1-0.2-0.1-0.4-0.1l-0.2-0.1c0-0.1,0.1-0.2,0.1-0.2h-0.2c0,0-0.1,0-0.2,0l-0.2-0.1
					c0-0.1,0.2-0.3,0.2-0.3H205c0,0-0.3-0.1-0.3-0.2v-0.2l-0.4-0.1c0,0,0-0.1,0-0.2s0-0.1,0-0.1l-0.2,0.1h-0.2v-0.2h-0.1l-0.1-0.1
					h-0.1h-0.1v-0.1v-0.1l-0.2,0.1c0,0.1,0,0.1-0.1,0.2l-0.2-0.1l-5.9,11.1l-0.1,0.3h0.3l12.6-6.9l-0.4-0.2
					C209.8,2420,210,2419.9,210,2419.9z"/>
				<g>
					
						<linearGradient id="SVGID_11_" gradientUnits="userSpaceOnUse" x1="204.3785" y1="2402.8687" x2="218.0419" y2="2418.1267" gradientTransform="matrix(1 0 0 1 0 4)">
						<stop  offset="0" style="stop-color:#E9D29B"/>
						<stop  offset="0.2788" style="stop-color:#F6E0B9"/>
						<stop  offset="0.8061" style="stop-color:#B9A55A"/>
					</linearGradient>
					<path class="st53" d="M205.1,2413.3c0.4,0.8-0.9,1.5,0.7,2.1c1.7,0.6,0.7,0.8,4.2,0.7s5.6-1.5,5.9-0.9s-0.3,2.3-0.3,2.3
						l0.9-0.5c0,0,1.9-2.9,0.5-3.1c-1.4-0.2-3.3,1.1-5.8,1.1c-2.5,0.1-5.7,0.5-5.5-0.8c0.1-1.3-0.2-2-0.2-2L205.1,2413.3z"/>
					
						<linearGradient id="SVGID_12_" gradientUnits="userSpaceOnUse" x1="207.2154" y1="2400.322" x2="220.8816" y2="2415.5835" gradientTransform="matrix(1 0 0 1 0 4)">
						<stop  offset="0" style="stop-color:#E9D29B"/>
						<stop  offset="0.2788" style="stop-color:#F6E0B9"/>
						<stop  offset="0.8061" style="stop-color:#B9A55A"/>
					</linearGradient>
					<path class="st54" d="M206.9,2408.6l-0.7,1.2c0,0-0.3,5.5,2.9,3.9c3.2-1.7,9.6-3.5,9.8-1.9c0.3,1.6,0.2,3.3,0.2,3.3l-0.1,0.6
						l1.3-0.7c0,0,1.7-5.1-0.2-5.4c-1.9-0.3-6.4,0.7-8.4,1.9c-2,1.1-3.6,3.1-4.1,1.2C207.2,2410.8,206.9,2408.6,206.9,2408.6z"/>
					
						<linearGradient id="SVGID_13_" gradientUnits="userSpaceOnUse" x1="210.2954" y1="2397.5813" x2="223.9464" y2="2412.8259" gradientTransform="matrix(1 0 0 1 0 4)">
						<stop  offset="0" style="stop-color:#E9D29B"/>
						<stop  offset="0.2788" style="stop-color:#F6E0B9"/>
						<stop  offset="0.8061" style="stop-color:#B9A55A"/>
					</linearGradient>
					<path class="st55" d="M208.6,2405.4l-1.1,1.9l0.9,1.8c0,0,0.3,1.9,2.5,1c2.1-0.9,7-4.1,8.6-3.3s2.4,0.3,2.5-0.6
						c0.1-0.9,0.4-1.1,0.4-1.1s-1.2,2-2,0.7s-4.5,0.7-5.9,1.3s-4.6,4.5-5.3,1.4C208.6,2405.4,208.6,2405.4,208.6,2405.4z"/>
				</g>
			</g>
		</g>
	</g>
</g>
<g>
	<g>
		<polygon class="st56" points="162.2,2740.4 130.8,2745.5 130.8,2838.7 162.2,2838.7 		"/>
	</g>
	<path class="st56" d="M131.5,2742.4c0.1,3,0.4,5.1,0.8,5.1c0.5,0.1,0.8-1,0.8-2.2c0,0,0-1.2,0-2.9h10.3c0,1.8,0,2.9,0,2.9
		c0,1.2,0.3,2.2,0.7,2.2s0.7-1,0.7-2.2v-2.9h10.9c0.1,3,0.4,5.2,1,5.1c0.4,0,0.7-2.2,0.8-5.1h10.7l0.1,11c0,4.4,3.5,7.9,7.9,7.9h8.5
		v9.8c0,4.1-3.3,7.3-7.3,7.3H161c0,0-14.8,0-27.7,0c-3.5,0-12.2-0.8-12.2-12.8c0,0,0-12.7,0-23.3L131.5,2742.4z"/>
	<path class="st57" d="M253.9,2756.3h-11.7l-12.6,7.4l-16.8-9.5l-0.2-19.3l16.7-9.8l13.5,7.6H254v-3.9l-27.3-15.8l-27.3,15.8v3.9
		h-82.6c-3.3-3.9-8.3-6.4-13.8-6.4c-10.1,0-18.2,8.2-18.2,18.2c0,10.1,8.2,18.2,18.2,18.2c5.5,0,10.5-2.5,13.8-6.4h82.6v3.9
		l27.3,15.8l27.3-15.8L253.9,2756.3L253.9,2756.3z M102,2756l-10.1-5.7l-0.1-11.6l10-5.9l10.1,5.7l0.1,11.6L102,2756z"/>
	<path class="st56" d="M184.8,2750c0-4.4-2.8-7.9-6.3-7.9h-1.1c-3.5,0-6.3,3.5-6.3,7.9v15h13.7L184.8,2750L184.8,2750z"/>
	<g>
		<path class="st56" d="M157.9,2738.4c0,3.2-0.1,5.5-0.1,5.6c0.4,3.7,2.6,6.6,5.3,6.6c2.6,0,4.7-2.6,5.3-6.2c0-0.1,0-0.3,0.1-0.4
			l-0.1-18.2v-1.2c-0.4-3.7-2.7-6.6-5.3-6.6c-2.7,0-4.9,2.8-5.3,6.6C157.6,2724.9,157.9,2738.4,157.9,2738.4z"/>
		<path class="st56" d="M145.1,2744L145.1,2744c0,4.4,2.5,7.9,5.5,7.9c2.6,0,4.8-2.5,5.4-6c0.1-0.6,0.2-1.3,0.2-1.9l0,0
			c0,0-0.1-2.4-0.2-5.7c-0.1-2.7-0.1-6.1-0.1-9.1c0.1-2.7,0.2-4.6,0.2-4.6l0,0c0-4.4-2.5-7.9-5.5-7.9c-3.1,0-5.5,3.5-5.5,7.9l0,0
			l0.1,13.4L145.1,2744z"/>
		<path class="st56" d="M133.4,2744c0.4,3.7,2.5,6.6,5.1,6.6c2.4,0,4.9-2.2,5-5.8c0-0.2,0.1-0.5,0.1-0.7s0-2.7,0-6
			c0-4-0.2-13.3-0.2-13.4c-0.4-3.7-2.5-6.6-5.1-6.6c-2.5,0-4.7,2.8-5.1,6.6C133.3,2724.9,133.4,2743.9,133.4,2744z"/>
	</g>
	<path class="st56" d="M122,2737.7c0,2.6-0.1,4.5-0.1,4.6c0.4,3,2.5,5.4,5,5.4c2.4,0,4.4-2.2,4.9-5c0-0.1,0-0.2,0.1-0.3l-0.1-14.9
		v-0.9c-0.4-3-2.5-5.4-5-5.4s-4.6,2.3-5,5.4C121.7,2726.6,122,2737.7,122,2737.7z"/>
	<path class="st58" d="M293.3,2759.5h-21.7c-0.3-15.5-6.4-29.9-17.3-40.8c-10.9-10.9-25.3-17.1-40.7-17.4v-21.6
		C257.3,2680.4,292.7,2715.8,293.3,2759.5L293.3,2759.5z"/>
	<path class="st58" d="M335.5,2759.5h-21.6c-0.6-55.1-45.2-99.8-100.1-100.4v-21.6C280.6,2638.2,334.9,2692.6,335.5,2759.5
		L335.5,2759.5z"/>
	<polygon class="st58" points="242.8,2753.6 229.7,2761 215.3,2753.1 215.3,2736 229.4,2728.2 242.8,2735.4 	"/>
</g>
<g>
	<rect x="-324.8" y="2900.3" class="st57" width="69.7" height="34.9"/>
	<path class="st59" d="M-225.2,2939.3v-0.2c0-4.6-3.7-8.3-8.3-8.3h-112.4c-4.6,0-8.3,3.7-8.3,8.3v0.2H-225.2z"/>
	<polygon class="st60" points="-255.1,2922.7 -324.8,2901 -255.1,2901 	"/>
	<path class="st57" d="M-176.5,2711.2c5.1,0,9.3,4.1,9.3,9.2v171.3c0,5.1-4.2,9.2-9.3,9.2h-226.9c-5.1,0-9.3-4.1-9.3-9.2v-171.3
		c0-5.1,4.2-9.2,9.3-9.2H-176.5z"/>
	<path class="st61" d="M-167.2,2887.4v-0.1V2716c0-5.1-4.2-9.2-9.3-9.2h-226.9c-5.1,0-9.3,4.1-9.3,9.2v171.3v0.1L-167.2,2887.4
		L-167.2,2887.4z"/>
	<rect x="-408.6" y="2719.5" class="st0" width="235.5" height="164.3"/>
	<rect x="-408.5" y="2719.5" class="st62" width="235.5" height="12.9"/>
	<g>
		<rect x="-393.4" y="2763" class="st63" width="10" height="8.9"/>
		<rect x="-393.4" y="2744.2" class="st63" width="10" height="8.9"/>
		<rect x="-393.4" y="2864" class="st63" width="10" height="8.9"/>
	</g>
	<g>
		<rect x="-226.2" y="2782.9" class="st64" width="26.2" height="8.9"/>
		<rect x="-365.1" y="2782.9" class="st61" width="34.8" height="8.9"/>
		<rect x="-324.8" y="2782.9" class="st65" width="93.5" height="8.9"/>
	</g>
	<rect x="-393.4" y="2782.9" class="st63" width="10" height="8.9"/>
	<rect x="-393.4" y="2842.6" class="st63" width="10" height="8.9"/>
	<g>
		<rect x="-365.1" y="2826.8" class="st66" width="54.6" height="8.9"/>
		<rect x="-304.9" y="2826.8" class="st67" width="54.6" height="8.9"/>
		<rect x="-244.5" y="2826.8" class="st68" width="28.8" height="8.9"/>
	</g>
	<rect x="-393.4" y="2822.7" class="st63" width="10" height="8.9"/>
	<g>
		<rect x="-365.1" y="2804.9" class="st69" width="26.2" height="8.9"/>
		<rect x="-271" y="2804.9" class="st70" width="42.3" height="8.9"/>
		<rect x="-332.2" y="2804.9" class="st71" width="54.6" height="8.9"/>
	</g>
	<rect x="-393.4" y="2802.8" class="st63" width="10" height="8.9"/>
	<rect x="-378.5" y="2732.4" class="st63" width="3.5" height="151.4"/>
	<g>
		<polygon class="st59" points="-345.1,2853.6 -350.4,2848.3 -359.7,2857.6 -359.7,2857.6 -365.1,2863 -365.1,2863 -365.1,2863 
			-359.7,2868.3 -359.7,2868.3 -350.4,2877.7 -345.1,2872.3 -354.4,2863 		"/>
		<polygon class="st59" points="-296,2863 -296,2863 -296,2863 -301.3,2857.6 -301.3,2857.6 -310.7,2848.3 -316,2853.6 -306.7,2863 
			-316,2872.3 -310.7,2877.7 -301.3,2868.3 -301.3,2868.3 		"/>
		
			<rect x="-334.1" y="2848.9" transform="matrix(-0.8526 -0.5225 0.5225 -0.8526 -2108.3425 5131.2104)" class="st59" width="7" height="28"/>
	</g>
	<g>
		<polygon class="st59" points="-344.8,2749.6 -350.1,2744.2 -359.5,2753.6 -359.5,2753.6 -364.8,2758.9 -364.8,2758.9 
			-364.8,2758.9 -359.5,2764.3 -359.5,2764.3 -350.1,2773.6 -344.8,2768.3 -354.1,2758.9 		"/>
		<polygon class="st59" points="-290.2,2758.9 -290.2,2758.9 -290.2,2758.9 -295.5,2753.6 -295.5,2753.6 -304.9,2744.2 
			-310.2,2749.6 -300.8,2758.9 -310.2,2768.3 -304.9,2773.6 -295.5,2764.3 -295.5,2764.3 		"/>
		<rect x="-341.5" y="2755" class="st59" width="27.7" height="8.3"/>
	</g>
</g>
<path d="M-101.5,1374.2c10.9,0.1,19.7,9,19.5,19.8c-0.2,11-8.9,19.5-19.9,19.5c-10.9-0.1-19.6-9-19.5-19.9
	S-112.5,1374.1-101.5,1374.2z M-98.3,1391.4c-5.9,0-10.5,0-15,0c-1.2,3.3-0.2,4.6,3,4.5c3.7-0.1,7.4,0,12.3,0
	c-3,3.2-5.1,5.4-7.6,8.1c8.9,1,10.7-6.8,16.4-10.2c-5.7-3.4-7.5-11.4-16.3-10.2C-103,1386.2-101.1,1388.3-98.3,1391.4z"/>
<path class="st0" d="M-98.3,1391.4c-2.8-3.1-4.8-5.2-7.2-7.8c8.8-1.1,10.6,6.8,16.3,10.2c-5.7,3.4-7.6,11.2-16.4,10.2
	c2.5-2.7,4.6-4.8,7.6-8.1c-4.9,0-8.6-0.1-12.3,0c-3.2,0.1-4.2-1.2-3-4.5C-108.7,1391.4-104.1,1391.4-98.3,1391.4z"/>
<path class="st72" d="M-912.8,561c-7.7,0-13.9-6.2-13.9-13.9c0-7.6,6.2-13.8,13.9-13.8c7.6,0.1,13.8,6.3,13.8,13.9
	C-899,554.8-905.2,561-912.8,561z M-921.5,549.9c2.8,0,5.6,0,8.4,0c-1.2,1.2-2.4,2.3-3.4,3.4c1.3,1.3,2.5,2.5,3.7,3.7
	c3.3-3.3,6.6-6.6,9.8-9.8c-3.3-3.3-6.6-6.6-9.9-9.9c-1.2,1.2-2.5,2.4-3.8,3.7c1.1,1.1,2.3,2.3,3.5,3.5c-2.8,0-5.6,0-8.4,0
	C-921.5,546.3-921.5,548-921.5,549.9z"/>
<path class="st72" d="M-923.6,550c0-2.1,0-3.9,0-6c3.1,0,6.2,0,9.5,0c-1.4-1.4-2.7-2.6-3.9-3.8c1.5-1.5,2.9-2.8,4.3-4.2
	c3.6,3.6,7.4,7.4,11.1,11.1c-3.6,3.6-7.4,7.4-11,11c-1.4-1.4-2.7-2.7-4.2-4.2c1.2-1.2,2.5-2.5,3.8-3.8
	C-917.4,550-920.5,550-923.6,550z M-910.3,545.5c-3.9,0-7.8,0-11.7,0c0,0.9,0,1.9,0,2.8c3.9,0,7.8,0,11.7,0
	c-1.9,1.9-3.7,3.7-5.5,5.5c0.7,0.7,1.4,1.4,2,2c2.9-2.9,5.9-5.9,8.8-8.8c-2.9-2.9-5.9-5.9-8.8-8.8c-0.6,0.6-1.2,1.2-2,2
	C-914,541.9-912.2,543.7-910.3,545.5z"/>
<path d="M-269.2,431.7c-22-21.9-43-42.8-63.6-63.3c8.2-8.1,15.8-15.7,23.2-23.1c33.8,33.9,68.1,68.5,102.1,102.6
	c-33.8,33.8-68.3,68.3-102.3,102.3c-6.9-6.8-14.5-14.4-22.7-22.7c20.5-20.5,41.6-41.6,63.3-63.2c-45.4,0-90.2,0-135.3,0
	c0-11,0-21.5,0-32.6C-359.8,431.7-315.1,431.7-269.2,431.7z"/>
<path class="st73" d="M-240,117"/>
<g>
	<path class="st72" d="M-449,266.3c8.1,0,14.7,6.6,14.7,14.7c0,8.1-6.6,14.7-14.7,14.7c-8.1,0-14.7-6.6-14.7-14.7
		C-463.7,272.9-457.1,266.3-449,266.3z M-446,282.5c-1.7,1.8-3.4,3.5-5.1,5.3c0.7,0.6,1.4,1.3,2.1,2c3-3,5.9-5.9,8.7-8.8
		c-2.9-2.9-5.8-5.8-8.8-8.8c-0.6,0.7-1.3,1.4-1.9,2.1c1.6,1.6,3.3,3.4,5,5.2c-3.9,0-7.9,0-11.8,0c0,1,0,1.9,0,2.9
		C-453.8,282.5-449.9,282.5-446,282.5z"/>
</g>
</svg>
