<?xml version="1.0" encoding="utf-8"?>
<!-- Generator: Adobe Illustrator 19.1.0, SVG Export Plug-In . SVG Version: 6.00 Build 0)  -->
<svg version="1.1" id="Layer_1" xmlns="http://www.w3.org/2000/svg" xmlns:xlink="http://www.w3.org/1999/xlink" x="0px" y="0px"
	 viewBox="0 0 30 30" style="enable-background:new 0 0 30 30;" xml:space="preserve">
<style type="text/css">
	.st0{fill:#FFFFFF;}
	.st1{fill:#CBEFFB;}
	.st2{fill:#576177;}
	.st3{fill:#FCE43A;}
	.st4{fill:#FFEB99;}
	.st5{fill:#E8E1CF;}
	.st6{fill:#E2D9C3;}
	.st7{fill:#F7F1DA;}
	.st8{fill:#EFE8D5;}
	.st9{fill:#3D495B;}
	.st10{fill:#FF936D;}
	.st11{fill:#FF8B6C;}
	.st12{fill:#F48967;}
	.st13{fill:#BEE4ED;}
	.st14{fill:#707F99;}
	.st15{fill:#DEF6FC;}
	.st16{fill:#E5E5E5;}
	.st17{fill:#263547;}
	.st18{fill:#9BACBC;}
	.st19{fill:#FDFFFE;}
	.st20{fill:#52DDB5;}
	.st21{fill:#2D4859;}
	.st22{fill:#849EBC;}
	.st23{fill:#564640;}
	.st24{fill:#6AC2CE;}
	.st25{fill:#E2B150;}
	.st26{fill:#ADADAD;}
	.st27{fill:#606060;}
	.st28{fill:#A64A42;}
	.st29{fill:#2D2D2D;}
	.st30{fill:#EFEFEF;}
	.st31{fill:#0F3758;}
	.st32{fill:#7BBABE;}
	.st33{fill:#76BBC1;}
	.st34{fill:#0E3757;}
	.st35{fill:#EC574F;}
	.st36{fill:#F6AA1E;}
	.st37{opacity:0.75;fill:#7BBABE;}
	.st38{opacity:0.75;fill:#EC574F;}
	.st39{opacity:0.75;fill:#F6AA1E;}
	.st40{fill:url(#SVGID_1_);}
	.st41{fill:url(#SVGID_2_);}
	.st42{fill:#25A6DE;}
	.st43{fill:url(#SVGID_3_);}
	.st44{fill:#0984C6;}
	.st45{fill:url(#SVGID_4_);}
	.st46{fill:#44535D;}
	.st47{fill:url(#SVGID_5_);}
	.st48{fill:url(#SVGID_6_);}
	.st49{fill:url(#SVGID_7_);}
	.st50{fill:url(#SVGID_8_);}
	.st51{fill:url(#SVGID_9_);}
	.st52{fill:url(#SVGID_10_);}
	.st53{fill:url(#SVGID_11_);}
	.st54{fill:url(#SVGID_12_);}
	.st55{fill:url(#SVGID_13_);}
	.st56{fill:#D1D1D1;}
	.st57{fill:#364D5C;}
	.st58{fill:#EF7154;}
	.st59{fill:#0D2038;}
	.st60{opacity:0.5;fill:#231F20;}
	.st61{fill:#0E2037;}
	.st62{opacity:0.8;fill:#D1CCE8;}
	.st63{fill:#C9C9C9;}
	.st64{fill:#1ABC9C;}
	.st65{fill:#F39C12;}
	.st66{fill:#77B3D4;}
	.st67{fill:#0E2947;}
	.st68{fill:#72C6E9;}
	.st69{fill:#EA3924;}
	.st70{fill:#F3735C;}
	.st71{fill:#F29C21;}
	.st72{fill:#7B7B7B;}
</style>
<g>
	<g>
		<ellipse class="st0" cx="299.2" cy="1731.5" rx="13.2" ry="14.1"/>
		<ellipse class="st0" cx="340.9" cy="1731.5" rx="13.2" ry="14.1"/>
		<ellipse class="st0" cx="357.2" cy="1735.3" rx="9.6" ry="10.2"/>
		<ellipse class="st0" cx="287" cy="1735.3" rx="9.6" ry="10.2"/>
		<ellipse class="st0" cx="319.9" cy="1723.5" rx="20.7" ry="22"/>
	</g>
	<g>
		<ellipse class="st0" cx="446.8" cy="1735.8" rx="15.2" ry="16.2"/>
		<ellipse class="st0" cx="494.7" cy="1744.6" rx="15.2" ry="16.2"/>
		<ellipse class="st0" cx="513.4" cy="1744.6" rx="11" ry="11.7"/>
		<ellipse class="st0" cx="432.8" cy="1738.9" rx="11" ry="11.7"/>
		<ellipse class="st0" cx="470.6" cy="1735.8" rx="23.7" ry="25.3"/>
	</g>
	<g>
		<g>
			<path class="st1" d="M508.1,1779.5c0,59.9-48.5,105.6-108.4,105.6c-59.9,0-108.4-45.8-108.4-105.6c0-59.9,48.5-108.4,108.4-108.4
				C459.5,1671.1,508.1,1719.6,508.1,1779.5z"/>
			<g>
				<path class="st0" d="M340.5,1831.8c0.1,0,0.1,0,0.2-0.1c0,0,0,0,0,0C340.7,1831.7,340.6,1831.8,340.5,1831.8z"/>
				<path class="st0" d="M517.1,1789.9c0-6.5-5.5-11.7-12.4-11.7c-5.3,0-9.7,3.1-11.5,7.4c-0.5,0-1.1-0.1-1.6-0.1
					c-11.1,0-20.2,9.2-20.2,20.5c0,3.7,1,7.2,2.7,10.2c4.7-1.4,9.1-0.6,11.4,2.4c0.3,0.4,0.5,0.8,0.7,1.2c-0.2,0.1-0.4,0.1-0.6,0.2
					c-2.3-2.4-6.3-3-10.4-1.9c0,0,0,0,0,0c-2.4,0.6-4.8,1.8-7.1,3.5c-4,3.1-6.5,7.1-7,10.8c-0.1,0.9-0.2,1.8,0,2.7
					c0.2,1.3,0.6,2.6,1.4,3.6c0.4,0.5,0.8,0.9,1.3,1.3c-0.1,0-0.1,0-0.2,0.1c-1.1-0.5-2-1.2-2.7-2.2c-0.7-1-1.2-2.1-1.4-3.3
					c-3.3-1-7-1.4-10.9-1c-9.7,1-18.1,6.3-22.4,13.3c-10-12-14.8-50.1-14.8-50.1H388c0,0-4.9,38.5-15,50.3c-0.8,0.1-1.7,0.2-2.5,0.4
					c-1.4-5.2-4.8-10-10-13.3c-6.3-4-13.8-4.7-19.8-2.4c0.3,2.3-0.1,4.5-1.4,6.2c-0.7,0.9-1.6,1.6-2.7,2.2c-0.1,0-0.1,0-0.2-0.1
					c0.5-0.4,0.9-0.8,1.3-1.3c1.3-1.7,1.8-4,1.4-6.3c0,0,0,0,0,0c0,0,0,0,0,0c-0.6-3.7-3-7.8-7-10.8c-2.3-1.7-4.7-2.9-7.1-3.5
					c0,0,0,0,0,0c-4.2-1.1-8.1-0.5-10.4,1.9c-0.2-0.1-0.4-0.1-0.6-0.2c0.2-0.4,0.4-0.8,0.7-1.2c2.3-3,6.7-3.8,11.4-2.4
					c1.7-3,2.7-6.5,2.7-10.2c0-11.3-9-20.5-20.2-20.5c-0.5,0-1.1,0-1.6,0.1c0,0,0,0,0,0c0,0,0,0,0,0c-1.8-4.3-6.3-7.4-11.5-7.4
					c-6.9,0-12.4,5.2-12.4,11.7c0,3.2,1.4,6.1,3.6,8.3l0,0c0.8,0.7,1.7,1.4,2.6,1.9c-0.6,1.9-0.9,3.9-0.9,6
					c0,7.7,4.1,14.3,10.3,17.9c-0.1,0.1-0.2,0.2-0.3,0.3c-5,6.3-3.4,15.9,3.5,21.4c3.9,3.1,8.7,4.3,13.1,3.7
					c0.5,6.7,7.1,14.9,17.1,20.5c5.7,3.2,11.6,4.9,16.7,5.3c-0.2,0.8-0.3,1.5-0.3,2.3c0,5.7,5.7,10.3,12.7,10.3
					c2.8,0,5.3-0.7,7.4-1.9c3,4.7,8.8,7.9,15.5,7.9c2,0,3.9-0.3,5.7-0.8c4.1-0.5,7.8-2.3,10.4-4.9c2.7,2.6,6.3,4.3,10.4,4.9
					c1.8,0.5,3.7,0.8,5.7,0.8c6.1,0,11.5-2.7,14.7-6.8v0c0.3-0.4,0.5-0.8,0.8-1.1c0.1-0.1,0.1-0.2,0.2-0.3c2,1.4,4.5,2.3,7.2,2.3
					c7,0,12.6-5.7,12.7-12.7c0.1,0,0.1,0,0.2,0c0.5,0,1.1-0.1,1.6-0.2c0,0,0,0,0,0c4.6-0.6,9.6-2.3,14.5-5
					c10-5.5,16.5-13.8,17.1-20.5c4.3,0.7,9.1-0.5,13.1-3.7c7-5.6,8.5-15.2,3.5-21.4c-0.1-0.1-0.2-0.2-0.3-0.3
					c6.1-3.5,10.3-10.2,10.3-17.9c0-2.1-0.3-4.1-0.9-6C514.5,1798,517.1,1794.3,517.1,1789.9z"/>
			</g>
			<path class="st2" d="M425.2,1780c7.6,2,12.4,10.4,14.7,15.6c1.1,2.4,2.5,2.4,3.3-0.1c11.3-35-2-49.8-8.5-54.7L425.2,1780z"/>
			<path class="st2" d="M374.1,1780c-7.6,2-12.4,10.4-14.7,15.6c-1.1,2.4-2.5,2.4-3.3-0.1c-11.2-35,2-49.8,8.5-54.7L374.1,1780z"/>
			<path class="st3" d="M399.7,1794c-7.2-0.2-12.5,6.3-12.9,11.6c-0.8,5.7,3.2,10.2,6.6,13.5c4.3,3.7,5.7,7.4,6.1,9.7h0.3
				c0.4-2.4,1.8-6,6.1-9.7c3.4-3.2,7.4-7.8,6.6-13.5C412.1,1800.3,406.9,1793.8,399.7,1794z"/>
			<path class="st4" d="M399.7,1794.7c-5.1-0.2-8.8,4.4-9.1,8.2c-0.6,4,2.3,7.2,4.7,9.5c3,2.6,4,5.2,4.3,6.8h0.2
				c0.3-1.7,1.2-4.2,4.3-6.8c2.4-2.3,5.2-5.5,4.7-9.5C408.4,1799.1,404.7,1794.5,399.7,1794.7z"/>
			<path class="st5" d="M388.1,1791.3v3.6c0,1.6,1.3,2.9,2.9,2.9h17.4c1.6,0,2.9-1.3,2.9-2.9v-3.6H388.1z"/>
			<rect x="388.1" y="1791.3" class="st6" width="23.2" height="2.2"/>
			<path class="st7" d="M385,1786v3.9c0,1.6,1.3,2.9,2.9,2.9h23.5c1.6,0,2.9-1.3,2.9-2.9v-3.9H385z"/>
			<rect x="385" y="1786" class="st8" width="29.2" height="3.4"/>
			<path class="st9" d="M370.8,1781.3c1-0.6,2.1-1.1,3.3-1.4l-9.4-39.1c-0.6,0.5-1.3,1-2,1.7
				C363.1,1756.5,366.4,1769.7,370.8,1781.3z"/>
			<path class="st10" d="M402.7,1651.6c-1.7-2.1-4.5-2.1-6.1,0c-8.7,10.9-32.9,44.7-32.9,84.7c0,17.7,4.7,34.1,10.7,47.9
				c1.1,2.4,4.1,4.4,6.8,4.4h37c2.6,0,5.7-1.9,6.8-4.4c6-13.8,10.7-30.2,10.7-47.9C435.7,1696.3,411.4,1662.4,402.7,1651.6z"/>
			<path class="st11" d="M404.1,1653.3c11.5,23.1,44.4,102.6-30.4,129.4c0.2,0.5,0.4,1,0.6,1.5c1.1,2.4,4.1,4.4,6.8,4.4h37
				c2.6,0,5.7-1.9,6.8-4.4c6-13.8,10.7-30.2,10.7-47.9C435.7,1698.2,413.7,1665.7,404.1,1653.3z"/>
			<path class="st9" d="M436.7,1742.5c-0.7-0.7-1.4-1.2-2-1.7l-9.4,39.1c1.2,0.3,2.3,0.8,3.3,1.4
				C432.9,1769.7,436.2,1756.5,436.7,1742.5z"/>
			<path class="st12" d="M402.7,1651.6c-0.1-0.1-0.2-0.2-0.3-0.3c15.9,21.5,45.1,89.6,5.3,137.3h10.5c2.6,0,5.7-1.9,6.8-4.4
				c6-13.8,10.7-30.2,10.7-47.9C435.7,1696.3,411.4,1662.4,402.7,1651.6z"/>
			<g>
				<g>
					<path class="st0" d="M399.6,1726.5c-8.8,0-15.9-7.1-15.9-15.9s7.1-15.9,15.9-15.9c8.8,0,15.9,7.1,15.9,15.9
						S408.3,1726.5,399.6,1726.5z"/>
				</g>
			</g>
			<path class="st13" d="M402.8,1697.5c-1-0.2-2.1-0.4-3.1-0.4c-1,0-1.9,0.1-2.8,0.3c-6.1,1.3-10.6,6.7-10.6,13.2
				c0,6.6,4.8,12.2,11.2,13.3c0.4,0.1,0.7,0.1,1.1,0.1c0.4,0,0.8,0.1,1.2,0.1c7.4,0,13.5-6,13.5-13.5
				C413.1,1704.3,408.7,1698.9,402.8,1697.5z"/>
			<path class="st2" d="M395.7,1767.9c-0.3-16.3,1.5-29.6,4-29.6c2.5,0,4.3,13.3,4,29.6c-0.3,16.3-2.1,29.5-4,29.5
				C397.8,1797.4,396,1784.2,395.7,1767.9z"/>
			<path class="st14" d="M397.6,1754.7c-0.2-6.5,0.8-11.7,2.1-11.7c1.3,0,2.2,5.2,2.1,11.7c-0.2,6.5-1.1,11.7-2.1,11.7
				C398.7,1766.4,397.7,1761.2,397.6,1754.7z"/>
			<g>
				<path class="st15" d="M395.4,1706.4c-1.7,1.6-2.7,4.1-4.2,4.2c-1.5,0.3-3.1-4.3,0.4-8c3.5-3.6,8-2.3,7.7-0.8
					C399.1,1703.3,396.9,1704.6,395.4,1706.4z"/>
			</g>
		</g>
		<path class="st0" d="M464.4,1747.7c0.2-8.7-0.9-11.7-2.9-13.9c-2.2-2-5.2-3.1-13.9-2.9c8.7,0.2,11.7-0.9,13.9-2.9
			c2-2.2,3.1-5.2,2.9-13.9c-0.2,8.7,0.9,11.7,2.9,13.9c2.2,2,5.2,3.1,13.9,2.9c-8.7-0.2-11.7,0.9-13.9,2.9
			C465.3,1735.9,464.2,1739,464.4,1747.7z"/>
		<path class="st1" d="M326.6,1685.2c0.2-8.7-0.9-11.7-2.9-13.9c-2.2-2-5.2-3.1-13.9-2.9c8.7,0.2,11.7-0.9,13.9-2.9
			c2-2.2,3.1-5.2,2.9-13.9c-0.2,8.7,0.9,11.7,2.9,13.9c2.2,2,5.2,3.1,13.9,2.9c-8.7-0.2-11.7,0.9-13.9,2.9
			C327.4,1673.5,326.3,1676.6,326.6,1685.2z"/>
		<circle class="st0" cx="325.8" cy="1754.7" r="5.6"/>
		<circle class="st0" cx="451.7" cy="1806.9" r="5.6"/>
	</g>
</g>
<path class="st16" d="M275.9,2127.8c-5.4,0-9.8-4.4-9.8-9.9v-17.3v-0.6H510v0.6v17.3c0,5.5-4.4,9.9-9.8,9.9H275.9z"/>
<path class="st17" d="M500.2,1958.5H275.9c-5.4,0-9.8,4.4-9.8,9.9V2100H510v-131.5C510,1963,505.7,1958.5,500.2,1958.5z"/>
<rect x="274.7" y="1966.6" class="st18" width="225.7" height="125.5"/>
<g>
	<path class="st0" d="M361.2,2128.8h56c0,21.5,9.7,22.1,9.7,22.1v5.6h-5.1h-67.1h-4.4v-5.6c0,0,11.3-1.2,11.3-22.1"/>
	<path class="st16" d="M426.9,2151v-0.1c0,0-9.7-0.7-9.7-22.1h-55.6c0,21-11.3,22.1-11.3,22.1v0.1H426.9z"/>
</g>
<g>
	<rect x="282.3" y="1971.8" class="st19" width="142.5" height="114.8"/>
	<g>
		<path class="st20" d="M324.9,2016.3c-0.6,0.5-1.1,0.9-1.8,1.2l7.6,14c0,0,0,0,0,0c8.1-4.4,12.9-12,13.5-21.2l-15.9-1
			C328.2,2011.9,327,2014.5,324.9,2016.3z"/>
		<path class="st21" d="M323.1,2017.5c-4.1,2.2-9.2,1.3-12.3-2.3c0,0,0,0,0,0l-14.1,12c0,0,0,0,0,0c8.8,10.3,23.3,13,35.2,6.5
			L323.1,2017.5z"/>
		<path class="st22" d="M292.9,2009.8L292.9,2009.8c0.3,6,2.1,10.8,6.1,15.4l11.8-10.1c-1.5-1.8-2.3-3.9-2.4-6L292.9,2009.8z"/>
		<path class="st23" d="M328.4,2009.3l13.4,0.8l0,0c0.3-4.4-0.5-8.3-2.6-12.2c0,0,0,0,0,0l-11.9,6.2
			C328.1,2005.7,328.5,2007.5,328.4,2009.3z"/>
		<path class="st24" d="M320.6,1980C320.6,1980,320.6,1980,320.6,1980l-1.5,18.7c2.6,0.2,5.1,1.4,6.9,3.5c0.5,0.6,0.9,1.2,1.3,1.9
			l16.6-8.7C339.2,1986.3,330.8,1980.8,320.6,1980z"/>
		<path class="st25" d="M286.5,2010.1l21.9-0.9c-0.1-3,1.1-6,3.5-8c2.1-1.8,4.7-2.6,7.2-2.4l1.7-21.8c-1.3-0.1-2.6-0.1-3.9-0.1
			C299.4,1977.6,285.8,1992.5,286.5,2010.1z"/>
	</g>
	<rect x="431.1" y="1971.8" class="st25" width="59.9" height="114.8"/>
	<rect x="358.1" y="1980" class="st26" width="56.9" height="2.5"/>
	<rect x="432.6" y="1975.6" class="st27" width="56.9" height="2.5"/>
	<rect x="432.6" y="1986.8" class="st27" width="56.9" height="2.5"/>
	<rect x="432.6" y="1998" class="st27" width="56.9" height="2.5"/>
	<rect x="432.6" y="2009.2" class="st27" width="56.9" height="2.5"/>
	<rect x="432.6" y="2020.4" class="st27" width="56.9" height="2.4"/>
	<rect x="432.6" y="2031.6" class="st27" width="56.9" height="2.5"/>
	<rect x="432.6" y="2042.9" class="st27" width="56.9" height="2.5"/>
	<rect x="358.1" y="1989.6" class="st26" width="56.9" height="2.5"/>
	<rect x="358.1" y="1999.2" class="st26" width="56.9" height="2.5"/>
	<rect x="358.1" y="2008.8" class="st26" width="56.9" height="2.5"/>
	<rect x="358.1" y="2018.3" class="st26" width="56.9" height="2.4"/>
	<rect x="358.1" y="2027.9" class="st26" width="56.9" height="2.5"/>
	<rect x="358.1" y="2037.5" class="st26" width="56.9" height="2.5"/>
	<rect x="358.1" y="2047.1" class="st26" width="56.9" height="2.5"/>
	<rect x="358.1" y="2056.7" class="st26" width="56.9" height="2.5"/>
	<rect x="358.1" y="2066.3" class="st26" width="56.9" height="2.5"/>
	<rect x="289.9" y="2049.6" class="st25" width="54.3" height="28.7"/>
	<g>
		<rect x="295.8" y="2065.8" class="st28" width="3.7" height="7.7"/>
		<rect x="301.6" y="2062.2" class="st28" width="3.7" height="11.3"/>
		<rect x="307.2" y="2059" class="st28" width="3.7" height="14.5"/>
		<polygon class="st28" points="309.1,2053.7 306.7,2054.4 307.3,2055.3 296.1,2062.8 296.6,2063.5 307.8,2056.1 308.3,2056.9 
			309.9,2055 311.5,2053 		"/>
	</g>
	<rect x="319.1" y="2055.5" class="st29" width="19.7" height="2.5"/>
	<rect x="319.1" y="2062.7" class="st29" width="19.7" height="2.5"/>
	<rect x="319.1" y="2069.9" class="st29" width="19.7" height="2.5"/>
</g>
<g>
	<path class="st30" d="M1185.5,1914.9H982.6c-1.6,0-3-1.3-3-3v-169.3c0-1.6,1.4-3,3-3h202.9c1.7,0,3,1.4,3,3v169.3
		C1188.5,1913.5,1187.2,1914.9,1185.5,1914.9z"/>
	<path class="st31" d="M979.6,1748.2c0-5.1-0.8-13.9,9.2-15.4h190.5c10.7,0.1,9.2,10.3,9.2,15.4"/>
	<rect x="995" y="1765.5" class="st32" width="32.5" height="32.5"/>
	<rect x="995" y="1815.5" class="st32" width="54.3" height="79.3"/>
	<rect x="1059.1" y="1815.5" class="st31" width="104.3" height="8.7"/>
	<rect x="1059.1" y="1831.8" class="st33" width="104.3" height="8.7"/>
	<rect x="1059.1" y="1848.1" class="st33" width="104.3" height="8.7"/>
	<rect x="1059.1" y="1864.4" class="st33" width="104.3" height="8.7"/>
	<rect x="1059.1" y="1880.7" class="st33" width="72.8" height="8.7"/>
	<rect x="1043.2" y="1765.5" class="st34" width="32.5" height="32.5"/>
	<rect x="1091.4" y="1765.5" class="st35" width="32.5" height="32.5"/>
	<rect x="1139.5" y="1765.5" class="st36" width="32.5" height="32.5"/>
	<circle class="st37" cx="990.4" cy="1740.6" r="2.9"/>
	<circle class="st38" cx="1001.2" cy="1740.6" r="2.9"/>
	<circle class="st39" cx="1012.1" cy="1740.6" r="2.9"/>
	<g>
		<g>
			<g>
				
					<linearGradient id="SVGID_1_" gradientUnits="userSpaceOnUse" x1="556.3808" y1="2407.4006" x2="578.672" y2="2407.4006" gradientTransform="matrix(0.7071 0.7071 -0.7071 0.7071 2518.3179 -300.8636)">
					<stop  offset="0" style="stop-color:#CF837A"/>
					<stop  offset="0.2242" style="stop-color:#F7AC9D"/>
					<stop  offset="0.8121" style="stop-color:#844D46"/>
					<stop  offset="0.8196" style="stop-color:#875048"/>
					<stop  offset="1" style="stop-color:#D08A7F"/>
				</linearGradient>
				<path class="st40" d="M1226.2,1809.6c2.1-2.1,2.5-5.1,0.9-6.6l-10-10c-1.6-1.6-4.6-1.2-6.6,0.9l-5.7,5.7l15.8,15.8
					L1226.2,1809.6z"/>
				
					<linearGradient id="SVGID_2_" gradientUnits="userSpaceOnUse" x1="1129.6072" y1="1860.3538" x2="1141.2781" y2="1873.4843" gradientTransform="matrix(1.0087 2.640000e-002 2.640000e-002 1.0087 -52.6489 -34.1549)">
					<stop  offset="0" style="stop-color:#E3CC94"/>
					<stop  offset="0.2788" style="stop-color:#F8E0AC"/>
					<stop  offset="0.8652" style="stop-color:#A2913F"/>
				</linearGradient>
				<path class="st41" d="M1141.2,1863.2l-10.2,20.6l5.3,5.3l20.6-10.3C1157.5,1878.8,1141.2,1862.6,1141.2,1863.2z"/>
				<path class="st42" d="M1192.5,1811.8l-2.2,2.2l-44.4,44.4l-2.5,2.5l-1.8,1.8c-0.1,0.2-0.3,0.3-0.4,0.5c0,0-0.8,1.3-2.1,4.3
					c-1.3,3,4.7-1.6,4.7-1.6l2.2-2.2l46.9-46.9l2.2-2.2L1192.5,1811.8z"/>
				<linearGradient id="SVGID_3_" gradientUnits="userSpaceOnUse" x1="1171.8876" y1="1845.3931" x2="1183.6046" y2="1857.6427">
					<stop  offset="0" style="stop-color:#00589A"/>
					<stop  offset="1" style="stop-color:#0374AF"/>
				</linearGradient>
				<path class="st43" d="M1202.2,1821.4l-2.2,2.2l-46.9,46.9l-2.2,2.2c0,0-1.5,6.3,0.4,6.7c1.9,0.4,5.7-0.7,5.7-0.7
					c0.2-0.1,0.3-0.3,0.5-0.4l1.8-1.8l2.5-2.5l44.4-44.4l2.2-2.2L1202.2,1821.4z"/>
				<path class="st44" d="M1195.2,1814.5l-2.2,2.2l-46.9,46.9l-2.2,2.2c0,0-1.3,5.4,0.2,6.5c1.5,1.2,6.8,0.4,6.8,0.4l2.2-2.2
					l46.9-46.9l2.2-2.2L1195.2,1814.5z"/>
				<path class="st0" d="M1197.3,1811.9l-0.3,0.3l-52.7,52.4l-0.4,0.3l-0.2,0.2c0,0,0,0-0.1,0.1l0.4,0.4l0.3-0.3l53-52.7l0.3-0.3
					L1197.3,1811.9z"/>
				
					<linearGradient id="SVGID_4_" gradientUnits="userSpaceOnUse" x1="556.3845" y1="2632.4158" x2="578.6741" y2="2632.4158" gradientTransform="matrix(0.7071 0.7071 -2.8128 2.8128 8209.7197 -5992.2695)">
					<stop  offset="5.617980e-003" style="stop-color:#B3D4E4"/>
					<stop  offset="6.034555e-002" style="stop-color:#C4DCE8"/>
					<stop  offset="0.1399" style="stop-color:#D6E5ED"/>
					<stop  offset="0.2244" style="stop-color:#E1EAEF"/>
					<stop  offset="0.3212" style="stop-color:#E4ECF0"/>
					<stop  offset="0.8424" style="stop-color:#4E7A8B"/>
				</linearGradient>
				<polygon class="st45" points="1205,1799.3 1192.4,1811.9 1208.2,1827.6 1220.7,1815.1 				"/>
				<polygon class="st0" points="1206.1,1801.2 1209.7,1804.8 1197.7,1816.8 1194.3,1813.2 				"/>
				<g>
					<polygon class="st46" points="1195.5,1808.8 1211.2,1824.6 1212.5,1823.3 1196.8,1807.5 					"/>
					<polygon class="st46" points="1193.8,1810.5 1209.5,1826.3 1210,1825.8 1194.3,1810 					"/>
				</g>
				<g>
					
						<linearGradient id="SVGID_5_" gradientUnits="userSpaceOnUse" x1="547.0648" y1="1976.3501" x2="569.355" y2="1976.3501" gradientTransform="matrix(0.7231 0.7231 -0.2716 0.2716 1337.5206 875.3407)">
						<stop  offset="5.617980e-003" style="stop-color:#9AB8C7"/>
						<stop  offset="7.052061e-002" style="stop-color:#ABC4D1"/>
						<stop  offset="0.2175" style="stop-color:#CEDDE5"/>
						<stop  offset="0.297" style="stop-color:#DBE6EC"/>
						<stop  offset="0.6788" style="stop-color:#647881"/>
						<stop  offset="0.7639" style="stop-color:#657B85"/>
						<stop  offset="0.8506" style="stop-color:#688491"/>
						<stop  offset="0.9376" style="stop-color:#6C92A6"/>
						<stop  offset="1" style="stop-color:#71A0B9"/>
					</linearGradient>
					<polygon class="st47" points="1195.7,1808.3 1211.8,1824.5 1213.1,1823.2 1197,1807.1 					"/>
					
						<linearGradient id="SVGID_6_" gradientUnits="userSpaceOnUse" x1="547.0735" y1="1984.0735" x2="569.3557" y2="1984.0735" gradientTransform="matrix(0.7231 0.7231 -0.2716 0.2716 1337.5206 875.3407)">
						<stop  offset="5.617980e-003" style="stop-color:#9AB8C7"/>
						<stop  offset="7.052061e-002" style="stop-color:#ABC4D1"/>
						<stop  offset="0.2175" style="stop-color:#CEDDE5"/>
						<stop  offset="0.297" style="stop-color:#DBE6EC"/>
						<stop  offset="0.6788" style="stop-color:#647881"/>
						<stop  offset="0.7639" style="stop-color:#657B85"/>
						<stop  offset="0.8506" style="stop-color:#688491"/>
						<stop  offset="0.9376" style="stop-color:#6C92A6"/>
						<stop  offset="1" style="stop-color:#71A0B9"/>
					</linearGradient>
					<polygon class="st48" points="1194,1810.1 1210.1,1826.2 1210.6,1825.7 1194.5,1809.6 					"/>
				</g>
				<g>
					<polygon class="st46" points="1202,1802.3 1217.7,1818.1 1219,1816.8 1203.2,1801.1 					"/>
					<polygon class="st46" points="1200.3,1804 1216,1819.8 1216.5,1819.3 1200.8,1803.5 					"/>
				</g>
				<g>
					
						<linearGradient id="SVGID_7_" gradientUnits="userSpaceOnUse" x1="547.0645" y1="1952.4993" x2="569.3557" y2="1952.4993" gradientTransform="matrix(0.7231 0.7231 -0.2716 0.2716 1337.5206 875.3407)">
						<stop  offset="5.617980e-003" style="stop-color:#9AB8C7"/>
						<stop  offset="4.872734e-002" style="stop-color:#A9C3D0"/>
						<stop  offset="0.1587" style="stop-color:#CCDCE3"/>
						<stop  offset="0.2182" style="stop-color:#D9E5EB"/>
						<stop  offset="0.7273" style="stop-color:#6A808C"/>
						<stop  offset="0.8044" style="stop-color:#6B8391"/>
						<stop  offset="0.8948" style="stop-color:#6D8E9F"/>
						<stop  offset="0.9916" style="stop-color:#719EB7"/>
						<stop  offset="1" style="stop-color:#71A0B9"/>
					</linearGradient>
					<polygon class="st49" points="1202.2,1801.9 1218.3,1818 1219.6,1816.7 1203.4,1800.6 					"/>
					
						<linearGradient id="SVGID_8_" gradientUnits="userSpaceOnUse" x1="547.0659" y1="1960.2311" x2="569.3557" y2="1960.2311" gradientTransform="matrix(0.7231 0.7231 -0.2716 0.2716 1337.5206 875.3407)">
						<stop  offset="5.617980e-003" style="stop-color:#9AB8C7"/>
						<stop  offset="4.872734e-002" style="stop-color:#A9C3D0"/>
						<stop  offset="0.1587" style="stop-color:#CCDCE3"/>
						<stop  offset="0.2182" style="stop-color:#D9E5EB"/>
						<stop  offset="0.7273" style="stop-color:#6A808C"/>
						<stop  offset="0.8044" style="stop-color:#6B8391"/>
						<stop  offset="0.8948" style="stop-color:#6D8E9F"/>
						<stop  offset="0.9916" style="stop-color:#719EB7"/>
						<stop  offset="1" style="stop-color:#71A0B9"/>
					</linearGradient>
					<polygon class="st50" points="1200.5,1803.6 1216.6,1819.7 1217.1,1819.2 1201,1803.1 					"/>
				</g>
				<linearGradient id="SVGID_9_" gradientUnits="userSpaceOnUse" x1="1206.6489" y1="1798.5475" x2="1220.785" y2="1798.5475">
					<stop  offset="0" style="stop-color:#FFFFFF"/>
					<stop  offset="1" style="stop-color:#F7AC9D"/>
				</linearGradient>
				<path class="st51" d="M1210.4,1803.5l4.6-4.6c1.8-1.8,4.3-2.1,5.7-0.8l-3.6-3.6c-1.4-1.4-3.9-1-5.7,0.8l-4.9,4.9l0,0l0.2-0.2
					L1210.4,1803.5z"/>
				
					<rect x="1197" y="1810" transform="matrix(-0.7076 -0.7066 0.7066 -0.7076 768.8041 3939.8289)" class="st0" width="5.3" height="1.6"/>
				<polygon class="st0" points="1195.4,1811.5 1199,1815.1 1199.4,1814.7 1195.9,1811.1 				"/>
				
					<rect x="1203.3" y="1803.6" transform="matrix(-0.7066 -0.7076 0.7076 -0.7066 781.267 3932.7878)" class="st0" width="5.2" height="1.6"/>
				<polygon class="st0" points="1205.6,1808.7 1205.9,1808.5 1206,1808.3 1206.1,1808.2 1202.3,1804.5 1202.3,1804.5 
					1202.2,1804.7 1201.9,1805 				"/>
				<linearGradient id="SVGID_10_" gradientUnits="userSpaceOnUse" x1="1126.4382" y1="1886.8964" x2="1132.8209" y2="1892.6143">
					<stop  offset="0" style="stop-color:#5F6062"/>
					<stop  offset="0.4909" style="stop-color:#808083"/>
					<stop  offset="0.5428" style="stop-color:#666567"/>
					<stop  offset="0.6052" style="stop-color:#4D4B4D"/>
					<stop  offset="0.6742" style="stop-color:#3A3838"/>
					<stop  offset="0.7519" style="stop-color:#2C2A2A"/>
					<stop  offset="0.8458" style="stop-color:#242122"/>
					<stop  offset="1" style="stop-color:#221F1F"/>
				</linearGradient>
				<path class="st52" d="M1138,1887.9c0.1-0.2-0.4-0.2-0.5-0.3c-0.1,0-0.3,0-0.4,0c-0.1,0-0.3-0.2-0.2-0.4c0-0.2-0.2,0-0.2,0
					s-0.2,0-0.3,0c-0.1,0-0.2,0-0.4-0.1l-0.3-0.2c0,0,0,0,0.1,0c0-0.1,0-0.1,0-0.2c0-0.1,0-0.3-0.2-0.4c-0.2-0.1-0.2,0-0.5,0.1
					c-0.4,0.1-0.2-0.2-0.2-0.2l-0.1,0c0,0-0.1,0-0.3,0l-0.4-0.2c0,0,0.1-0.1,0.1-0.1c0-0.1-0.2-0.1-0.4-0.1l-0.2-0.1
					c0-0.1,0.1-0.2,0.1-0.2l-0.2,0c0,0-0.1,0-0.2,0l-0.2-0.1c0-0.1,0.2-0.3,0.2-0.3l-0.3,0c0,0-0.3-0.1-0.3-0.2c0,0,0-0.2,0-0.2
					l-0.4-0.1c0,0,0-0.1,0-0.2c0-0.1,0-0.1,0-0.1l-0.2,0.1l-0.2,0l0-0.2l-0.1,0l-0.1-0.1l-0.1,0h-0.1l0-0.1l0-0.1l-0.2,0.1
					c0,0.1,0,0.1-0.1,0.2l-0.2-0.1l-5.9,11.1l-0.1,0.3l0.3,0l12.6-6.9l-0.4-0.2C1137.8,1888,1138,1887.9,1138,1887.9z"/>
				<g>
					<linearGradient id="SVGID_11_" gradientUnits="userSpaceOnUse" x1="1132.3149" y1="1874.9255" x2="1145.9783" y2="1890.1836">
						<stop  offset="0" style="stop-color:#E9D29B"/>
						<stop  offset="0.2788" style="stop-color:#F6E0B9"/>
						<stop  offset="0.8061" style="stop-color:#B9A55A"/>
					</linearGradient>
					<path class="st53" d="M1133.1,1881.3c0.4,0.8-0.9,1.5,0.7,2.1c1.7,0.6,0.7,0.8,4.2,0.7c3.5-0.1,5.6-1.5,5.9-0.9
						c0.3,0.6-0.3,2.3-0.3,2.3l0.9-0.5c0,0,1.9-2.9,0.5-3.1c-1.4-0.2-3.3,1.1-5.8,1.1c-2.5,0.1-5.7,0.5-5.5-0.8c0.1-1.3-0.2-2-0.2-2
						L1133.1,1881.3z"/>
					<linearGradient id="SVGID_12_" gradientUnits="userSpaceOnUse" x1="1135.2123" y1="1872.3246" x2="1148.8787" y2="1887.5862">
						<stop  offset="0" style="stop-color:#E9D29B"/>
						<stop  offset="0.2788" style="stop-color:#F6E0B9"/>
						<stop  offset="0.8061" style="stop-color:#B9A55A"/>
					</linearGradient>
					<path class="st54" d="M1134.9,1876.6l-0.7,1.2c0,0-0.3,5.5,2.9,3.9c3.2-1.7,9.6-3.5,9.8-1.9c0.3,1.6,0.2,3.3,0.2,3.3l-0.1,0.6
						l1.3-0.7c0,0,1.7-5.1-0.2-5.4c-1.9-0.3-6.4,0.7-8.4,1.9c-2,1.1-3.6,3.1-4.1,1.2C1135.2,1878.8,1134.9,1876.6,1134.9,1876.6z"/>
					<linearGradient id="SVGID_13_" gradientUnits="userSpaceOnUse" x1="1138.3044" y1="1869.5732" x2="1151.9556" y2="1884.8177">
						<stop  offset="0" style="stop-color:#E9D29B"/>
						<stop  offset="0.2788" style="stop-color:#F6E0B9"/>
						<stop  offset="0.8061" style="stop-color:#B9A55A"/>
					</linearGradient>
					<path class="st55" d="M1136.6,1873.4l-1.1,1.9l0.9,1.8c0,0,0.3,1.9,2.5,1c2.1-0.9,7-4.1,8.6-3.3c1.6,0.8,2.4,0.3,2.5-0.6
						c0.1-0.9,0.4-1.1,0.4-1.1s-1.2,2-2,0.7c-0.8-1.3-4.5,0.7-5.9,1.3c-1.4,0.6-4.6,4.5-5.3,1.4
						C1136.6,1873.4,1136.6,1873.4,1136.6,1873.4z"/>
				</g>
			</g>
		</g>
	</g>
</g>
<g>
	<g>
		<polygon class="st56" points="1090.2,2208.4 1058.8,2213.5 1058.8,2306.7 1090.2,2306.7 		"/>
	</g>
	<path class="st56" d="M1059.5,2210.4c0.1,3,0.4,5.1,0.8,5.1c0.5,0.1,0.8-1,0.8-2.2c0,0,0-1.2,0-2.9h10.3c0,1.8,0,2.9,0,2.9
		c0,1.2,0.3,2.2,0.7,2.2c0.4,0,0.7-1,0.7-2.2l0-2.9h10.9c0.1,3,0.4,5.2,1,5.1c0.4,0,0.7-2.2,0.8-5.1l10.7,0l0.1,11
		c0,4.4,3.5,7.9,7.9,7.9l8.5,0v9.8c0,4.1-3.3,7.3-7.3,7.3h-16.4c0,0-14.8,0-27.7,0c-3.5,0-12.2-0.8-12.2-12.8c0,0,0-12.7,0-23.3
		L1059.5,2210.4z"/>
	<path class="st57" d="M1181.9,2224.3l-11.7,0l-12.6,7.4l-16.8-9.5l-0.2-19.3l16.7-9.8l13.5,7.6h11.2v-3.9l-27.3-15.8l-27.3,15.8
		l0,3.9l-82.6,0c-3.3-3.9-8.3-6.4-13.8-6.4c-10.1,0-18.2,8.2-18.2,18.2c0,10.1,8.2,18.2,18.2,18.2c5.5,0,10.5-2.5,13.8-6.4l82.6,0
		l0,3.9l27.3,15.8l27.3-15.8V2224.3z M1030,2224l-10.1-5.7l-0.1-11.6l10-5.9l10.1,5.7l0.1,11.6L1030,2224z"/>
	<path class="st56" d="M1112.8,2218c0-4.4-2.8-7.9-6.3-7.9h-1.1c-3.5,0-6.3,3.5-6.3,7.9v15l13.7,0V2218z"/>
	<g>
		<path class="st56" d="M1085.9,2206.4c0,3.2-0.1,5.5-0.1,5.6c0.4,3.7,2.6,6.6,5.3,6.6c2.6,0,4.7-2.6,5.3-6.2c0-0.1,0-0.3,0.1-0.4
			l-0.1-18.2l0-1.2c-0.4-3.7-2.7-6.6-5.3-6.6c-2.7,0-4.9,2.8-5.3,6.6C1085.6,2192.9,1085.9,2206.4,1085.9,2206.4z"/>
		<path class="st56" d="M1073.1,2212C1073.1,2212,1073.1,2212,1073.1,2212c0,4.4,2.5,7.9,5.5,7.9c2.6,0,4.8-2.5,5.4-6
			c0.1-0.6,0.2-1.3,0.2-1.9c0,0,0,0,0,0c0,0-0.1-2.4-0.2-5.7c-0.1-2.7-0.1-6.1-0.1-9.1c0.1-2.7,0.2-4.6,0.2-4.6c0,0,0,0,0,0
			c0-4.4-2.5-7.9-5.5-7.9c-3.1,0-5.5,3.5-5.5,7.9c0,0,0,0,0,0l0.1,13.4L1073.1,2212z"/>
		<path class="st56" d="M1061.4,2212c0.4,3.7,2.5,6.6,5.1,6.6c2.4,0,4.9-2.2,5-5.8c0-0.2,0.1-0.5,0.1-0.7c0-0.2,0-2.7,0-6
			c0-4-0.2-13.3-0.2-13.4c-0.4-3.7-2.5-6.6-5.1-6.6c-2.5,0-4.7,2.8-5.1,6.6C1061.3,2192.9,1061.4,2211.9,1061.4,2212z"/>
	</g>
	<path class="st56" d="M1050,2205.7c0,2.6-0.1,4.5-0.1,4.6c0.4,3,2.5,5.4,5,5.4c2.4,0,4.4-2.2,4.9-5c0-0.1,0-0.2,0.1-0.3l-0.1-14.9
		l0-0.9c-0.4-3-2.5-5.4-5-5.4c-2.5,0-4.6,2.3-5,5.4C1049.7,2194.6,1050,2205.7,1050,2205.7z"/>
	<path class="st58" d="M1221.3,2227.5h-21.7c-0.3-15.5-6.4-29.9-17.3-40.8c-10.9-10.9-25.3-17.1-40.7-17.4v-21.6
		C1185.3,2148.4,1220.7,2183.8,1221.3,2227.5L1221.3,2227.5z"/>
	<path class="st58" d="M1263.5,2227.5h-21.6c-0.6-55.1-45.2-99.8-100.1-100.4v-21.6C1208.6,2106.2,1262.9,2160.6,1263.5,2227.5
		L1263.5,2227.5z"/>
	<polygon class="st58" points="1170.8,2221.6 1157.7,2229 1143.3,2221.1 1143.3,2204 1157.4,2196.2 1170.8,2203.4 	"/>
</g>
<g>
	<rect x="603.2" y="2368.3" class="st57" width="69.7" height="34.9"/>
	<path class="st59" d="M702.8,2407.3v-0.2c0-4.6-3.7-8.3-8.3-8.3H582.1c-4.6,0-8.3,3.7-8.3,8.3v0.2H702.8z"/>
	<polygon class="st60" points="672.9,2390.7 603.2,2369 672.9,2369 	"/>
	<path class="st57" d="M751.5,2179.2c5.1,0,9.3,4.1,9.3,9.2v171.3c0,5.1-4.2,9.2-9.3,9.2H524.6c-5.1,0-9.3-4.1-9.3-9.2v-171.3
		c0-5.1,4.2-9.2,9.3-9.2H751.5z"/>
	<path class="st61" d="M760.8,2355.4c0,0,0-0.1,0-0.1V2184c0-5.1-4.2-9.2-9.3-9.2H524.6c-5.1,0-9.3,4.1-9.3,9.2v171.3
		c0,0,0,0.1,0,0.1H760.8z"/>
	<rect x="519.4" y="2187.5" class="st0" width="235.5" height="164.3"/>
	<rect x="519.5" y="2187.5" class="st62" width="235.5" height="12.9"/>
	<g>
		<rect x="534.6" y="2231" class="st63" width="10" height="8.9"/>
		<rect x="534.6" y="2212.2" class="st63" width="10" height="8.9"/>
		<rect x="534.6" y="2332" class="st63" width="10" height="8.9"/>
	</g>
	<g>
		<rect x="701.8" y="2250.9" class="st64" width="26.2" height="8.9"/>
		<rect x="562.9" y="2250.9" class="st61" width="34.8" height="8.9"/>
		<rect x="603.2" y="2250.9" class="st65" width="93.5" height="8.9"/>
	</g>
	<rect x="534.6" y="2250.9" class="st63" width="10" height="8.9"/>
	<rect x="534.6" y="2310.6" class="st63" width="10" height="8.9"/>
	<g>
		<rect x="562.9" y="2294.8" class="st66" width="54.6" height="8.9"/>
		<rect x="623.1" y="2294.8" class="st67" width="54.6" height="8.9"/>
		<rect x="683.5" y="2294.8" class="st68" width="28.8" height="8.9"/>
	</g>
	<rect x="534.6" y="2290.7" class="st63" width="10" height="8.9"/>
	<g>
		<rect x="562.9" y="2272.9" class="st69" width="26.2" height="8.9"/>
		<rect x="657" y="2272.9" class="st70" width="42.3" height="8.9"/>
		<rect x="595.8" y="2272.9" class="st71" width="54.6" height="8.9"/>
	</g>
	<rect x="534.6" y="2270.8" class="st63" width="10" height="8.9"/>
	<rect x="549.5" y="2200.4" class="st63" width="3.5" height="151.4"/>
	<g>
		<polygon class="st59" points="582.9,2321.6 577.6,2316.3 568.3,2325.6 568.3,2325.6 562.9,2331 562.9,2331 562.9,2331 
			568.3,2336.3 568.3,2336.3 577.6,2345.7 582.9,2340.3 573.6,2331 		"/>
		<polygon class="st59" points="632,2331 632,2331 632,2331 626.7,2325.6 626.7,2325.6 617.3,2316.3 612,2321.6 621.3,2331 
			612,2340.3 617.3,2345.7 626.7,2336.3 626.7,2336.3 		"/>
		
			<rect x="594" y="2317" transform="matrix(-0.8526 -0.5225 0.5225 -0.8526 -111.1252 4630.5933)" class="st59" width="7" height="28"/>
	</g>
	<g>
		<polygon class="st59" points="583.2,2217.6 577.9,2212.2 568.5,2221.6 568.5,2221.6 563.2,2226.9 563.2,2226.9 563.2,2226.9 
			568.5,2232.3 568.5,2232.3 577.9,2241.6 583.2,2236.3 573.9,2226.9 		"/>
		<polygon class="st59" points="637.8,2226.9 637.8,2226.9 637.8,2226.9 632.5,2221.6 632.5,2221.6 623.1,2212.2 617.8,2217.6 
			627.2,2226.9 617.8,2236.3 623.1,2241.6 632.5,2232.3 632.5,2232.3 		"/>
		<rect x="586.5" y="2223" class="st59" width="27.7" height="8.3"/>
	</g>
</g>
<path d="M826.5,842.2c10.9,0.1,19.7,9,19.5,19.8c-0.2,11-8.9,19.5-19.9,19.5c-10.9-0.1-19.6-9-19.5-19.9
	C806.7,850.7,815.5,842.1,826.5,842.2z M829.7,859.4c-5.9,0-10.5,0-15,0c-1.2,3.3-0.2,4.6,3,4.5c3.7-0.1,7.4,0,12.3,0
	c-3,3.2-5.1,5.4-7.6,8.1c8.9,1,10.7-6.8,16.4-10.2c-5.7-3.4-7.5-11.4-16.3-10.2C825,854.2,826.9,856.3,829.7,859.4z"/>
<path class="st0" d="M829.7,859.4c-2.8-3.1-4.8-5.2-7.2-7.8c8.8-1.1,10.6,6.8,16.3,10.2c-5.7,3.4-7.6,11.2-16.4,10.2
	c2.5-2.7,4.6-4.8,7.6-8.1c-4.9,0-8.6-0.1-12.3,0c-3.2,0.1-4.2-1.2-3-4.5C819.3,859.4,823.9,859.4,829.7,859.4z"/>
<path class="st72" d="M15.2,29C7.5,29,1.3,22.8,1.3,15.1c0-7.6,6.2-13.8,13.9-13.8C22.8,1.4,29,7.6,29,15.2C29,22.8,22.8,29,15.2,29
	z M6.5,17.9c2.8,0,5.6,0,8.4,0c-1.2,1.2-2.4,2.3-3.4,3.4c1.3,1.3,2.5,2.5,3.7,3.7c3.3-3.3,6.6-6.6,9.8-9.8c-3.3-3.3-6.6-6.6-9.9-9.9
	c-1.2,1.2-2.5,2.4-3.8,3.7c1.1,1.1,2.3,2.3,3.5,3.5c-2.8,0-5.6,0-8.4,0C6.5,14.3,6.5,16,6.5,17.9z"/>
<path class="st72" d="M5.5,18.1c0-2,0-3.8,0-5.8c3,0,6,0,9.1,0C13.3,11,12,9.8,10.8,8.6c1.4-1.4,2.8-2.7,4.1-4
	c3.5,3.5,7.1,7.1,10.7,10.7c-3.5,3.5-7.1,7.1-10.6,10.6c-1.3-1.3-2.6-2.6-4-4c1.2-1.2,2.4-2.4,3.7-3.7C11.5,18.1,8.5,18.1,5.5,18.1z
	 M18.3,13.8c-3.8,0-7.5,0-11.3,0c0,0.9,0,1.8,0,2.7c3.8,0,7.5,0,11.3,0c-1.8,1.8-3.6,3.6-5.3,5.3c0.7,0.7,1.3,1.3,1.9,1.9
	c2.8-2.8,5.7-5.7,8.5-8.5c-2.8-2.8-5.7-5.7-8.5-8.5c-0.6,0.6-1.2,1.2-1.9,1.9C14.7,10.3,16.5,12,18.3,13.8z"/>
<path d="M658.8-100.3c-22-21.9-43-42.8-63.6-63.3c8.2-8.1,15.8-15.7,23.2-23.1c33.8,33.9,68.1,68.5,102.1,102.6
	c-33.8,33.8-68.3,68.3-102.3,102.3c-6.9-6.8-14.5-14.4-22.7-22.7C616-25,637.1-46.1,658.8-67.7c-45.4,0-90.2,0-135.3,0
	c0-11,0-21.5,0-32.6C568.2-100.3,612.9-100.3,658.8-100.3z"/>
</svg>
