<?xml version="1.0" encoding="utf-8"?>
<!-- Generator: Adobe Illustrator 19.1.0, SVG Export Plug-In . SVG Version: 6.00 Build 0)  -->
<svg version="1.1" id="Layer_1" xmlns="http://www.w3.org/2000/svg" xmlns:xlink="http://www.w3.org/1999/xlink" x="0px" y="0px"
	 viewBox="-51.8 38.4 40 40" style="enable-background:new -51.8 38.4 40 40;" xml:space="preserve">
<style type="text/css">
	.st0{fill:#344860;}
</style>
<g id="XMLID_15614_">
	<path id="XMLID_15616_" class="st0" d="M-346.1-63.5c-0.6,1.5-1.3,2.7-1.9,3.8c-1,1.7-2.1,3.2-3.3,4.8c-1,1.3-2.1,2.7-3.3,3.9
		c-0.9,1-2,1-2.8,0c-2.9-3.3-5.6-6.9-7.7-10.8c-1-1.9-1.8-4-2.1-6.3c-0.4-3.5,0.6-6.7,3.3-9.2c2.3-2.3,5.2-3.4,8.4-3.3
		c5.2,0.2,9.8,4.4,10.4,9.5C-344.9-67.6-345.6-65-346.1-63.5z M-355.9-74.1c-2.4,0-4.4,1.9-4.4,4.4c0,2.4,2,4.4,4.4,4.4
		s4.4-1.9,4.4-4.4C-351.5-72.2-353.5-74.1-355.9-74.1z"/>
</g>
<g>
	<path d="M-51.1,58.6c0-10.8,8.5-19.5,19.3-19.5c10.6-0.1,19.4,8.7,19.3,19.4c0,10.6-8.7,19.3-19.3,19.3
		C-42.4,77.7-51.1,69-51.1,58.6z M-31.8,40.4c-1.2,0.1-2.3,0.2-3.4,0.4c-7.2,1.4-12.7,6.9-14.1,14.2c-1.3,6.4,1.2,13.9,7.4,18.2
		c6.7,4.6,14.9,3.6,20.1,0.2c4.6-3,6.4-7.3,6.7-8.2c1.1-2.7,1.5-5.8,1-9.2C-15.2,47-22.8,40.5-31.8,40.4z"/>
	<path d="M-34.7,51.8c2.2,2.2,4.5,4.5,6.6,6.6c-2.1,2.1-4.2,4.2-6.3,6.3c-0.2-0.3-0.6-0.7-0.9-1.1c1.7-1.7,3.4-3.4,5.2-5.2
		c-1.9-1.9-3.8-3.8-5.6-5.6C-35.3,52.4-35,52-34.7,51.8z"/>
</g>
</svg>
