<?xml version="1.0" encoding="utf-8"?>
<!-- Generator: Adobe Illustrator 19.1.0, SVG Export Plug-In . SVG Version: 6.00 Build 0)  -->
<svg version="1.1" id="Layer_1" xmlns="http://www.w3.org/2000/svg" xmlns:xlink="http://www.w3.org/1999/xlink" x="0px" y="0px"
	 viewBox="-389 191 180 180" style="enable-background:new -389 191 180 180;" xml:space="preserve">
<style type="text/css">
	.st0{fill:#EE6336;}
	.st1{enable-background:new    ;}
	.st2{fill:#FFFFFF;}
</style>
<g id="XMLID_3_">
	<path id="XMLID_56_" class="st0" d="M-386.4,285.6c0-3.1,0-6.2,0-9.2c0.5-2.8,0.9-5.7,1.3-8.4c4.9-35.7,33.7-66,69.1-72.4
		c4.2-0.7,8.3-1.3,12.4-2c3.1,0,6.2,0,9.2,0c0.9,0.2,1.7,0.6,2.7,0.7c4.2,0.7,8.3,1,12.5,2c33.3,7.4,59.5,34.8,65.7,68.4
		c0.7,3.9,1.3,7.9,2,11.8c0,3.1,0,6.2,0,9.2c-0.5,2.8-0.9,5.4-1.3,8.2c-5.4,36.8-32.9,65.5-69.7,72.7c-3.9,0.8-7.9,1.3-11.8,1.8
		c-3.1,0-6.2,0-9.2,0c-0.9-0.2-1.7-0.6-2.7-0.7c-4.2-0.7-8.3-1-12.5-2c-33.2-7.4-59.6-34.9-65.7-68.4
		C-385.2,293.4-385.8,289.5-386.4,285.6z M-299.2,200.9c-43.9,0.1-80.1,36.2-79.8,80.3c0.2,44,35.5,79.7,80.1,79.7
		c44.6-0.1,79.7-35.8,79.8-79.8C-219.1,236.9-255.3,200.9-299.2,200.9z"/>
</g>
<g class="st1">
	<path class="st2" d="M-327.3,298.4v-5.6H-344v-8.1l12.7-21.1h14.6v20h4v9.2h-4v5.6L-327.3,298.4L-327.3,298.4z M-327.3,272.6
		l-6.5,11h6.5V272.6z"/>
	<path class="st2" d="M-310.9,281c0-9.4,5.1-17.9,15.4-17.9s15.4,8.5,15.4,17.9s-5.1,18-15.4,18S-310.9,290.4-310.9,281z
		 M-290.6,281c0-5.9-1.5-8.6-4.8-8.6s-4.8,2.7-4.8,8.6s1.5,8.7,4.8,8.7S-290.6,286.9-290.6,281z"/>
	<path class="st2" d="M-262.8,283.5v10.1h-6.1v-10.1h-8.8V278h8.8v-9.6h6.1v9.6h8.8v5.5H-262.8z"/>
</g>
</svg>
