<?xml version="1.0" encoding="utf-8"?>
<!-- Generator: Adobe Illustrator 19.1.0, SVG Export Plug-In . SVG Version: 6.00 Build 0)  -->
<svg version="1.1" id="Layer_1" xmlns="http://www.w3.org/2000/svg" xmlns:xlink="http://www.w3.org/1999/xlink" x="0px" y="0px"
	 viewBox="-389 191 180 180" style="enable-background:new -389 191 180 180;" xml:space="preserve">
<style type="text/css">
	.st0{fill:#EE6336;}
	.st1{enable-background:new    ;}
	.st2{fill:#FFFFFF;}
</style>
<g id="XMLID_3_">
	<path id="XMLID_56_" class="st0" d="M-386.4,285.7c0-3.1,0-6.2,0-9.3c0.5-2.7,0.9-5.6,1.3-8.5c4.8-35.6,33.8-66,69.1-72.4
		c4.1-0.7,8.3-1.3,12.4-1.9c3.1,0,6.2,0,9.3,0c0.9,0.2,1.7,0.6,2.6,0.7c4.1,0.7,8.3,1,12.5,1.9c33.3,7.4,59.5,34.7,65.8,68.4
		c0.7,3.9,1.3,7.9,1.9,11.8c0,3.1,0,6.2,0,9.3c-0.5,2.7-0.9,5.4-1.3,8.2c-5.4,36.8-33,65.6-69.7,72.7c-3.9,0.8-7.9,1.3-11.8,1.8
		c-3.1,0-6.2,0-9.3,0c-0.9-0.2-1.7-0.6-2.6-0.7c-4.1-0.7-8.3-1-12.5-1.9c-33.2-7.4-59.6-34.8-65.8-68.4
		C-385.2,293.5-385.8,289.6-386.4,285.7z M-299.2,201c-43.9,0.1-80,36.1-79.8,80.3c0.2,44.1,35.5,79.7,80,79.7
		c44.6-0.1,79.7-35.7,79.8-79.8C-219,237-255.2,201-299.2,201z"/>
</g>
<g class="st1">
	<path class="st2" d="M-359.8,294l5.6-7.4c2.4,2,5.8,3,8.8,3c3.5,0,4.9-1.4,4.9-2.8c0-1.5-1.4-2.8-4.6-2.8c-2.7,0-4.7,0.7-6.4,2.4
		l-7.2-1.6v-21.1h26.5v9.2h-16v4.9c1.6-1.6,4.3-2.7,7.2-2.7c5.9,0,11.2,4.4,11.2,11.4c0,7.7-5.7,12.6-15.5,12.6
		C-351.4,299-356.4,297.1-359.8,294z"/>
	<path class="st2" d="M-327.9,281c0-9.4,5-17.9,15.4-17.9c10.3,0,15.4,8.5,15.4,17.9s-5,18-15.4,18
		C-322.8,299-327.9,290.4-327.9,281z M-307.6,281c0-5.9-1.5-8.6-4.9-8.6c-3.3,0-4.9,2.8-4.9,8.6s1.5,8.7,4.9,8.7
		C-309.1,289.7-307.6,286.8-307.6,281z"/>
	<path class="st2" d="M-295.1,281c0-9.4,5-17.9,15.4-17.9c10.3,0,15.4,8.5,15.4,17.9s-5,18-15.4,18
		C-290.1,299-295.1,290.4-295.1,281z M-274.9,281c0-5.9-1.5-8.6-4.9-8.6c-3.3,0-4.9,2.8-4.9,8.6s1.5,8.7,4.9,8.7
		C-276.4,289.7-274.9,286.8-274.9,281z"/>
	<path class="st2" d="M-247,283.4v10.1h-6v-10.1h-8.8v-5.5h8.8v-9.6h6v9.6h8.8v5.5H-247z"/>
</g>
</svg>
