<?xml version="1.0" encoding="utf-8"?>
<!-- Generator: Adobe Illustrator 19.1.0, SVG Export Plug-In . SVG Version: 6.00 Build 0)  -->
<svg version="1.1" id="Layer_1" xmlns="http://www.w3.org/2000/svg" xmlns:xlink="http://www.w3.org/1999/xlink" x="0px" y="0px"
	 viewBox="-389 191 180 180" style="enable-background:new -389 191 180 180;" xml:space="preserve">
<style type="text/css">
	.st0{fill:#EE6336;}
	.st1{enable-background:new    ;}
	.st2{fill:#FFFFFF;}
</style>
<g id="XMLID_3_">
	<path id="XMLID_56_" class="st0" d="M-386.4,285.7c0-3.1,0-6.3,0-9.2c0.5-2.7,0.9-5.7,1.3-8.4c4.9-35.6,33.8-66,69.1-72.5
		c4.1-0.7,8.3-1.3,12.3-1.9c3.1,0,6.3,0,9.2,0c0.9,0.2,1.7,0.6,2.6,0.7c4.1,0.7,8.3,1,12.4,1.9c33.4,7.4,59.5,34.7,65.8,68.4
		c0.7,3.9,1.3,7.9,1.9,11.7c0,3.1,0,6.3,0,9.2c-0.5,2.7-0.9,5.5-1.3,8.2c-5.5,36.8-33,65.6-69.7,72.7c-3.9,0.8-7.9,1.3-11.7,1.8
		c-3.1,0-6.3,0-9.2,0c-0.9-0.2-1.7-0.6-2.6-0.7c-4.1-0.7-8.3-1-12.4-1.9c-33.2-7.4-59.7-34.8-65.8-68.4
		C-385.3,293.4-385.8,289.6-386.4,285.7z M-299.2,200.9c-43.9,0.1-80.1,36.1-79.9,80.4c0.2,44.1,35.5,79.8,80.1,79.8
		c44.6-0.1,79.8-35.7,79.9-79.9C-218.9,237-255.2,200.9-299.2,200.9z"/>
</g>
<g class="st1">
	<path class="st2" d="M-349,295.8l4.4-8.1c2,1.4,3.8,1.8,6.4,1.8c4.4,0,7.6-2.6,7.6-5.9c0-0.1,0-0.1,0-0.1c-1.8,2.3-4.9,3.5-8,3.5
		c-6.2,0-12.3-4.1-12.3-11.5c0-7.5,6.2-12.5,14.4-12.5c11.3,0,16.5,7.7,16.5,17.8c0,11.5-7.4,17.8-18.1,17.8
		C-342.1,298.7-346.2,297.6-349,295.8z M-330.5,276.7c-0.2-2.3-1.6-4.4-5.3-4.4c-2.6,0-4.3,1.3-4.3,2.8c0,2.2,2.8,3,4.8,3
		C-333.7,278.1-332,277.8-330.5,276.7z"/>
	<path class="st2" d="M-317.4,293.9l5.6-7.4c2.4,2,5.7,3,8.8,3c3.5,0,4.9-1.4,4.9-2.8c0-1.6-1.3-2.8-4.5-2.8c-2.6,0-4.7,0.7-6.4,2.4
		l-7.2-1.6v-21h26.4v9.1h-15.9v4.9c1.6-1.6,4.3-2.6,7.2-2.6c5.9,0,11.1,4.4,11.1,11.3c0,7.6-5.7,12.5-15.4,12.5
		C-309.2,298.8-314.1,297-317.4,293.9z"/>
	<path class="st2" d="M-285.7,271.9c0-4.9,3.5-8.8,9.2-8.8c5.7,0,9.3,3.9,9.3,8.8c0,4.8-3.6,8.6-9.3,8.6
		C-282,280.5-285.7,276.7-285.7,271.9z M-279.9,298.2l22.1-34.6h5.1l-22.1,34.6H-279.9z M-273.4,271.9c0-2.3-1.3-3.3-3-3.3
		c-1.6,0-2.9,0.9-2.9,3.3c0,2.2,1.3,3.2,2.9,3.2C-274.7,275-273.4,274.1-273.4,271.9z M-265.6,290.2c0-4.9,3.5-8.8,9.2-8.8
		c5.7,0,9.3,3.9,9.3,8.8c0,4.8-3.6,8.6-9.3,8.6C-262,298.8-265.6,295-265.6,290.2z M-253.4,290.2c0-2.3-1.3-3.3-3-3.3
		c-1.6,0-3,0.9-3,3.3c0,2.3,1.3,3.2,3,3.2C-254.7,293.4-253.4,292.4-253.4,290.2z"/>
</g>
</svg>
