<?xml version="1.0" encoding="utf-8"?>
<!-- Generator: Adobe Illustrator 19.1.0, SVG Export Plug-In . SVG Version: 6.00 Build 0)  -->
<svg version="1.1" id="Layer_1" xmlns="http://www.w3.org/2000/svg" xmlns:xlink="http://www.w3.org/1999/xlink" x="0px" y="0px"
	 viewBox="-389 191 180 180" style="enable-background:new -389 191 180 180;" xml:space="preserve">
<style type="text/css">
	.st0{fill:#EE6336;}
	.st1{enable-background:new    ;}
	.st2{fill:#FFFFFF;}
</style>
<g id="XMLID_3_">
	<path id="XMLID_56_" class="st0" d="M-386.4,285.6c0-3.1,0-6.2,0-9.2c0.5-2.8,0.9-5.7,1.3-8.4c4.9-35.7,33.7-66,69.1-72.4
		c4.2-0.7,8.3-1.3,12.4-2c3.1,0,6.2,0,9.2,0c0.9,0.2,1.7,0.6,2.7,0.7c4.2,0.7,8.3,1,12.5,2c33.3,7.4,59.5,34.8,65.7,68.4
		c0.7,3.9,1.3,7.9,2,11.8c0,3.1,0,6.2,0,9.2c-0.5,2.8-0.9,5.4-1.3,8.2c-5.4,36.8-32.9,65.5-69.7,72.7c-3.9,0.8-7.9,1.3-11.8,1.8
		c-3.1,0-6.2,0-9.2,0c-0.9-0.2-1.7-0.6-2.7-0.7c-4.2-0.7-8.3-1-12.5-2c-33.2-7.4-59.6-34.9-65.7-68.4
		C-385.2,293.4-385.8,289.5-386.4,285.6z M-299.2,200.9c-43.9,0.1-80.1,36.2-79.8,80.3c0.2,44,35.5,79.7,80.1,79.7
		c44.6-0.1,79.7-35.8,79.8-79.8C-219.1,236.9-255.3,200.9-299.2,200.9z"/>
</g>
<g class="st1">
	<path class="st2" d="M-347.1,289c0-3.7,2.7-7,6.6-8.6c-3.7-1.5-6.1-4-6.1-8c0-6.8,7.8-9.3,14.9-9.3s14.9,2.5,14.9,9.3
		c0,4-2.4,6.5-6.1,8c4,1.7,6.7,4.9,6.7,8.6c0,7.1-7.8,9.9-15.5,9.9C-339.4,299-347.1,296.1-347.1,289z M-326.9,287.9
		c0-1.4-2.6-2.4-4.8-2.7c-2.2,0.3-4.8,1.4-4.8,2.7c0,1.5,1.8,2.5,4.8,2.5C-328.9,290.4-326.9,289.4-326.9,287.9z M-327.6,273.9
		c0-1.4-1.6-2.4-4.2-2.4c-2.7,0-4.2,0.9-4.2,2.4c0,1.1,2.1,2.1,4.2,2.4C-329.6,276-327.6,275.1-327.6,273.9z"/>
	<path class="st2" d="M-314.4,281c0-9.4,5-17.9,15.4-17.9s15.4,8.5,15.4,17.9c0,9.4-5,18-15.4,18S-314.4,290.4-314.4,281z
		 M-294.1,281c0-5.9-1.5-8.6-4.8-8.6s-4.8,2.7-4.8,8.6c0,5.9,1.5,8.7,4.8,8.7S-294.1,286.9-294.1,281z"/>
	<path class="st2" d="M-281.7,281c0-9.4,5-17.9,15.4-17.9c10.4,0,15.4,8.5,15.4,17.9c0,9.4-5,18-15.4,18S-281.7,290.4-281.7,281z
		 M-261.4,281c0-5.9-1.5-8.6-4.8-8.6s-4.8,2.7-4.8,8.6c0,5.9,1.5,8.7,4.8,8.7S-261.4,286.9-261.4,281z"/>
</g>
</svg>
