<?xml version="1.0" encoding="utf-8"?>
<!-- Generator: Adobe Illustrator 19.1.0, SVG Export Plug-In . SVG Version: 6.00 Build 0)  -->
<svg version="1.1" id="Layer_1" xmlns="http://www.w3.org/2000/svg" xmlns:xlink="http://www.w3.org/1999/xlink" x="0px" y="0px"
	 viewBox="-417 218 125 125" style="enable-background:new -417 218 125 125;" xml:space="preserve">
<style type="text/css">
	.st0{fill:#7B7B7B;}
</style>
<g id="XMLID_10465_">
	<path id="XMLID_10476_" class="st0" d="M-318.8,280.5c0,16.8,0,33.5,0,50.3c0,4.6-2.4,8.1-6.5,9.3c-0.8,0.3-1.8,0.4-2.6,0.4
		c-17.7,0-35.4,0-53,0c-5.2,0-9.2-4-9.3-9.1c-0.1-2.1,0-4.2,0-6.2c0-31.6,0-63.3,0-94.9c0-4.7,2.4-8.1,6.6-9.4
		c0.8-0.3,1.7-0.4,2.5-0.4c17.8,0,35.7,0,53.4,0c5,0,8.9,4.1,8.9,9.5c0,10.7,0,21.3,0,32C-318.8,268-318.8,274.3-318.8,280.5z
		 M-386.4,321.7c21.3,0,42.5,0,63.8,0c0-29.4,0-58.8,0-88.2c-21.3,0-42.5,0-63.8,0C-386.4,263-386.4,292.3-386.4,321.7z
		 M-354.4,336.7c3.1,0,5.7-2.5,5.6-5.7c-0.1-3.1-2.5-5.5-5.6-5.5s-5.6,2.4-5.6,5.5C-360.1,334.2-357.6,336.7-354.4,336.7z
		 M-354.5,228.9c2.4,0,4.9,0,7.3,0c0.9,0,1.6-0.3,1.9-1.2c0.6-1.3-0.4-2.6-2.1-2.6c-4.7,0-9.4,0-14.1,0c-1.6,0-2.3,0.6-2.3,1.9
		c0,1.3,0.8,1.8,2.3,1.8C-359.1,228.9-356.8,228.9-354.5,228.9z"/>
	<path id="XMLID_10475_" class="st0" d="M-354.5,237.8c5,0.2,9.7,1.3,14.1,3.9c1.2,0.7,1.3,1.1,0.5,2.2c-4.8,6.9-9.6,13.7-14.4,20.6
		c-0.5,0.7-1,0.9-1.8,0.8c-6.6-0.6-13.2-1.2-19.8-1.8c-1.8-0.2-3.5-0.3-5.3-0.4c-1.1-0.1-1.4-0.5-1.3-1.6
		c1.6-11.2,11.5-21.1,22.7-23C-358.1,238.1-356.3,238-354.5,237.8z"/>
	<path id="XMLID_10474_" class="st0" d="M-355.4,280.8c0,4,0,8.1,0,12.1c0,1.4-0.3,1.7-1.6,1.6c-12.2-0.8-23-10.4-25.3-22.5
		c-0.3-1.8-0.5-3.8-0.6-5.6c-0.1-1.4,0.2-1.6,1.6-1.5c6.8,0.6,13.7,1.2,20.5,1.8c1.3,0.1,2.5,0.2,3.8,0.3c1.3,0.1,1.6,0.3,1.6,1.7
		C-355.4,272.7-355.4,276.7-355.4,280.8z"/>
	<path id="XMLID_10473_" class="st0" d="M-326.1,265.8c-0.1,5.5-1.2,10.1-3.7,14.4c-0.8,1.4-1.1,1.5-2.4,0.6
		c-6.5-4.6-13.1-9.1-19.6-13.8c-1.3-0.9-1.3-1.1-0.4-2.3c4.6-6.5,9.2-13.2,13.8-19.7c0.8-1.3,1.2-1.3,2.3-0.3
		C-329.6,250.3-326.3,257.6-326.1,265.8z"/>
	<path id="XMLID_10472_" class="st0" d="M-360.4,308.9c2.2-4,5.6-4.9,10.1-2.3c3.9-2.9,7.9-5.6,11.9-8.6c0.2-0.2,0.3-0.6,0.3-0.9
		c-0.5-3.4,1.7-6.7,5-7.3c3.5-0.6,6.8,1.5,7.5,5c0.5,2.6-0.3,4.8-2.5,6.4s-4.5,1.7-6.9,0.4c-0.2-0.1-0.3-0.2-0.5-0.3
		c-0.1-0.1-0.3-0.2-0.4-0.3c-3.9,2.9-8,5.7-11.9,8.6c-0.3,0.2-0.3,0.7-0.3,0.9c0.3,3.6-1.5,6.4-4.9,7.1c-3.1,0.8-6.1-0.9-7.5-4.2
		c-0.2-0.3-0.6-0.7-1-0.8c-2.9-0.6-6-1.2-8.9-1.8c-0.6-0.1-1-0.1-1.5,0.6c-1.8,2.5-4.9,3.4-7.7,2.2c-2.7-1.2-4.2-3.9-3.8-6.9
		c0.4-2.9,2.9-5.1,6-5.3c2.9-0.2,5.5,1.8,6.4,4.7c0.2,0.6,0.4,0.8,1,1C-366.9,307.7-363.7,308.3-360.4,308.9z"/>
	<path id="XMLID_10471_" class="st0" d="M-353.6,281.6c0-3.8,0-7.6,0-11.3c0-0.4,0.2-1.2,0.5-1.3c0.3-0.2,1,0.1,1.3,0.3
		c6.2,4.4,12.4,8.7,18.6,13c1.1,0.8,1.1,1.1,0.3,2.1c-5.1,5.9-11.5,9.3-19.3,10c-1.2,0.1-1.5-0.2-1.5-1.4
		C-353.6,289.3-353.6,285.4-353.6,281.6z"/>
</g>
</svg>
