<?xml version="1.0" encoding="utf-8"?>
<!-- Generator: Adobe Illustrator 19.1.0, SVG Export Plug-In . SVG Version: 6.00 Build 0)  -->
<svg version="1.1" id="Layer_1" xmlns="http://www.w3.org/2000/svg" xmlns:xlink="http://www.w3.org/1999/xlink" x="0px" y="0px"
	 viewBox="-417 218 125 125" style="enable-background:new -417 218 125 125;" xml:space="preserve">
<style type="text/css">
	.st0{fill:none;stroke:#FFFFFF;stroke-width:2;stroke-miterlimit:10;}
</style>
<g id="XMLID_10329_">
	<path id="XMLID_10332_" class="st0" d="M-381.8,329.5c6.1-6.1,12.2-12.3,18.3-18.4c6.5-6.5,13-13,19.5-19.5
		c0.5-0.5,0.7-1.5,0.7-2.2c0-17.1,0-34.2,0-51.3c0-0.7,0-1.3,0-2c15.8,1.6,36.1,14.1,42.6,37.3c6.3,22.5-3.1,46.4-22.9,58.7
		C-342.9,344.1-366.3,341.7-381.8,329.5z"/>
	<path id="XMLID_10331_" class="st0" d="M-395.6,254.2c13,13,26,26,38.9,38.9c-12.9,12.9-25.9,25.9-39,39
		C-415.1,310.9-415.3,275.7-395.6,254.2z"/>
	<path id="XMLID_10330_" class="st0" d="M-350.7,287.8c-16-16.1-31.8-31.9-47.6-47.8c7.2-8.6,32.4-18.7,47.6-18.9
		C-350.7,243.2-350.7,265.4-350.7,287.8z"/>
</g>
</svg>
