<?xml version="1.0" encoding="utf-8"?>
<!-- Generator: Adobe Illustrator 19.0.0, SVG Export Plug-In . SVG Version: 6.00 Build 0)  -->
<svg version="1.1" id="Layer_1" xmlns="http://www.w3.org/2000/svg" xmlns:xlink="http://www.w3.org/1999/xlink" x="0px" y="0px"
	 viewBox="1110 -60 150 150" style="enable-background:new 1110 -60 150 150;" xml:space="preserve">
<g id="XMLID_16045_">
	<path id="XMLID_16048_" d="M1185.5,86c-10,0.1-19.9-0.4-29.6-3.4c-5.4-1.7-10.4-4.1-14.4-8.2c-5.5-5.6-7.2-12.6-6.5-20.2
		c1-11.5,4.8-22.4,8.7-33.2c3.2-8.9,7.4-17.4,13.4-24.7c7.7-9.3,17.4-14.4,29.7-13.8c10.9,0.5,19.5,5.6,26.5,13.6
		c8.7,9.9,13.6,21.8,17.1,34.3c2.4,8.5,4.4,17.1,4.4,26c0,13.8-6.2,22.2-19.5,26.3c-7,2.2-14.3,3-21.6,3.3
		C1191.1,86.1,1188.3,86,1185.5,86z M1181.1,4.9c-0.4,0.2-0.8,0.4-1.2,0.5c-5.6,1.6-8.8,5.4-9.5,11c-0.8,6,0.5,11.2,6.1,14.7
		c3.6,2.2,7.1,4.8,10.7,6.9c3.2,1.9,4,4.5,3.5,7.9c-0.5,3.3-2.5,5.1-5.8,5.1c-3.1,0-5.5-2.1-5.9-5.1c-0.1-1.1-0.1-2.3-0.2-3.4
		c-0.1-2.5-0.6-3-3.1-3c-5.6-0.1-5.6-0.1-5.5,5.5c0,6.6,3.4,11,9.7,12.9c0.4,0.1,0.7,0.3,1.1,0.5c0,1.3,0,2.6,0,3.8
		c0,1.6,0.8,2.4,2.3,2.4c4.2-0.1,6.1,1.1,5.7-5c0-0.5,0.6-1.5,1.1-1.6c5.8-1.8,8.9-5.7,9.5-11.7c0.6-6.4-0.8-11.7-6.8-15.1
		c-3.6-2.1-7-4.5-10.6-6.8c-2.2-1.4-3.4-3.2-3.2-5.9c0.2-3.6,2.2-5.9,5.5-6c3.7-0.1,6.1,1.9,6.4,5.5c0.1,0.6,0.1,1.2,0,1.8
		c-0.1,1.7,0.8,2.4,2.4,2.6c4.5,0.4,6-0.1,6.4-2c1-5.1-2-11.6-6.9-13.7c-2.9-1.2-4.5-2.4-3.9-5.7c0.2-1.4-1-2.2-2.3-2.1
		c-1.9,0.2-4.3-1.1-5.5,1.5c-0.2,0.3-0.1,0.8-0.1,1.2C1181.1,2.6,1181.1,3.7,1181.1,4.9z"/>
	<path id="XMLID_16046_" d="M1213.1-44.8c-1.4,1.9-2.9,4.1-4.5,6.4c-3.5,5-7.1,10-10.6,15c-0.6,0.9-1.1,1.3-2.2,0.9
		c-7.2-2.1-14.4-2.1-21.6-0.1c-0.6,0.2-1.6-0.2-1.9-0.6c-5.2-7.2-10.3-14.5-15.4-21.7c3.6-1.8,7-3.8,10.6-5.1c3.3-1.2,6.5-0.2,9.3,2
		c5.3,4.2,11.4,4.1,16.8-0.1c3.7-2.9,7.9-3.1,12-1C1208.1-47.9,1210.5-46.3,1213.1-44.8z"/>
</g>
</svg>
