<?xml version="1.0" encoding="utf-8"?>
<!-- Generator: Adobe Illustrator 19.0.0, SVG Export Plug-In . SVG Version: 6.00 Build 0)  -->
<svg version="1.1" id="Layer_1" xmlns="http://www.w3.org/2000/svg" xmlns:xlink="http://www.w3.org/1999/xlink" x="0px" y="0px"
	 viewBox="0 0 170 170" style="enable-background:new 0 0 170 170;" xml:space="preserve">
<style type="text/css">
	.st0{fill:#FFD846;stroke:#F7C31C;stroke-width:3;stroke-miterlimit:10;}
	.st1{fill:#3A3A3A;}
	.st2{fill:#666666;}
</style>
<path class="st0" d="M157.8,169.2h-145c-5.9,0-10.8-4.9-10.8-10.8v-145C2,7.4,6.9,2.6,12.8,2.6h145c5.9,0,10.8,4.9,10.8,10.8v145
	C168.6,164.3,163.8,169.2,157.8,169.2z"/>
<g>
	<path class="st1" d="M25.2,33.2c5.4,1.4,9.6,4,11.8,8.8c0.7,1.6,1.1,3.5,1.2,5.2c0.2,2.1-1.3,3.6-3.3,3.7c-1.9,0.1-3.4-1.3-3.6-3.3
		c-0.3-3.5-2.2-5.9-5.9-7.5c0,5.4,0,10.6,0,15.8c9.6,3.8,13.3,8.2,12.9,15.6c-0.3,6-5,10.8-13.1,13.3c0,1.5,0,3.1,0,4.7
		c0,2.6-1.4,4.1-3.6,4.1c-2.2,0-3.4-1.5-3.4-4c0-1.6,0-3.2,0-4.8c-3.9-0.9-7.1-2.5-9.6-5.3c-2.1-2.4-3.3-5.1-3.6-8.2
		c-0.2-2.3,1-3.9,3.1-4.1c2.1-0.2,3.7,1,3.9,3.3c0.3,3.5,2.3,5.7,6,7.4c0-2.2,0-4.1,0-6c0-2.7-0.1-5.5,0-8.2
		c0.1-1.4-0.5-1.9-1.9-2.4C7.2,58.6,2.8,50.1,6.2,42.3c1.9-4.3,5.4-7.1,10.1-8.5c1.5-0.4,1.9-1,1.8-2.4c-0.1-1.7-0.1-3.3,0.1-5
		c0.2-1.8,1.7-2.9,3.5-2.9c1.9,0.1,3.3,1.4,3.4,3.2C25.3,28.9,25.2,31,25.2,33.2z M25.4,63.2c0,4.9,0,9.7,0,14.6
		c3.7-1.3,5.9-4.2,5.9-7.5C31.2,67.1,28.9,64.3,25.4,63.2z M18,40.3c-4,1.4-6,4.3-5.8,7.9c0.2,3.1,2.6,5.9,5.8,6.6
		C18,50,18,45.3,18,40.3z"/>
	<path class="st2" d="M94.7,18c-7.3-0.8-14.1-0.6-21,0.7c-9.3,1.7-17.8,5.3-25.5,10.4c-0.9,0.6-2.1,1.4-3,1.3
		c-1.2-0.2-2.7-1.1-3.3-2.1c-0.9-1.4-0.2-2.9,1.3-3.8c5-2.8,9.8-5.9,15.1-8.1c12-5,24.6-6.5,37.6-4.9c1.3,0.2,1.8-0.2,2.2-1.2
		c0.8-2.1,1.7-4.1,2.7-6.1c0.3-0.6,1.1-1.4,1.8-1.4c0.6,0,1.5,0.7,1.9,1.3c3,5,6,10.1,8.9,15.1c1.1,1.9,0.7,2.7-1.4,3.3
		c-5.8,1.5-11.5,3-17.3,4.4c-0.8,0.2-2.2,0.1-2.5-0.3c-0.4-0.6-0.3-1.7,0-2.5C92.8,22.1,93.7,20.2,94.7,18z"/>
	<path class="st2" d="M28.7,117.3c-2.2,1.4-4.2,2.7-6.3,3.9c-0.6,0.4-1.8,0.6-2.3,0.3c-0.5-0.3-0.9-1.3-0.9-2
		c0.5-5.8,1.1-11.7,1.7-17.5c0.2-1.6,1.2-2.1,2.7-1.7c6,1.8,12.1,3.6,18.1,5.5c1.9,0.6,2,2.1,0.4,3.2c-2.4,1.6-4.9,3.1-7.4,4.7
		c6.3,7.7,13.9,13.8,23.1,17.9c3.5,1.6,7.2,2.7,10.9,3.9c2.9,0.9,4.2,2.3,3.5,4.4c-0.6,2.1-2.6,2.8-5.5,2
		c-14.8-4.1-27.1-11.7-36.7-22.9C29.7,118.4,29.3,117.9,28.7,117.3z"/>
	<path class="st2" d="M157.3,89.3c2.8,0.8,5.4,1.6,8.1,2.5c0.7,0.2,1.7,0.9,1.7,1.4c0,0.7-0.6,1.6-1.3,2c-5.1,3.1-10.3,6.2-15.4,9.2
		c-2.1,1.2-2.9,1-3.7-1.2c-2-5.1-4.1-10.3-6-15.4c-0.3-0.7-0.4-2,0.1-2.3c0.6-0.5,1.9-0.5,2.7-0.3c2.3,0.5,4.5,1.3,7,2
		c1-5.4,1-10.5,0.4-15.7c-0.7-6.6-2.7-12.9-5.8-19c-0.5-0.9-1-2.2-0.6-3c0.5-1,1.8-2.1,3-2.5c1.6-0.4,3,0.5,3.6,2
		c2,5,4.2,10,5.6,15.1C158.8,72.4,158.7,80.8,157.3,89.3z"/>
	<path class="st1" d="M145.4,22c-0.1,3.8-3,7.3-5.9,7.3c-2.9,0-5.9-3.3-5.9-6.8c0-2.8,1.3-5.2,3.6-7c1.4-1.1,3.1-1.2,4.5,0
		C144,17.2,145.2,19.6,145.4,22z M141.8,22.5c0.1,0.1,0.2,0.1,0.3,0.2c-0.6,1-1.1,1.9-1.7,2.9c-0.2,0.4-0.2,0.8-0.3,1.2
		c0.5-0.1,1.3,0,1.4-0.2c0.7-1.4,1.5-2.9,1.8-4.5c0.1-0.6-0.7-1.5-1.1-2.2c-0.2,0.7-0.4,1.5-0.5,2.2
		C141.8,22.3,141.8,22.4,141.8,22.5z"/>
	<path class="st1" d="M148.7,37.1c0-3,2.6-6.4,4.9-6.5c2.3-0.1,5.2,3.5,5.2,6.6c0,2.9-2.5,5.9-5,5.9
		C151.2,43.1,148.7,40.2,148.7,37.1z M157.5,37.9c-0.1-0.7-0.1-1-0.2-1.1c-0.3-0.6-0.7-1.2-1-1.7c-0.2,0.6-0.5,1.2-0.7,1.7
		c-0.4,1-0.8,2-1.1,3.1c-0.1,0.4-0.1,0.8-0.2,1.2c0.5-0.1,1.3,0.1,1.4-0.2C156.5,39.8,157,38.6,157.5,37.9z"/>
	<path class="st1" d="M127.6,27.4c0,4.1-2.5,7.1-5.1,7.1c-2.6,0-5.3-3.1-4.9-6.1c0.3-1.8,1.3-3.6,2.4-5.1c1.4-1.8,3.5-1.8,4.9-0.1
		C126.3,24.7,127.1,26.5,127.6,27.4z M126.6,28.7c-0.1-0.1-0.2-0.1-0.4-0.2c0-0.2,0-0.4-0.1-0.6c-0.4-0.5-0.8-1.1-1.2-1.6
		c-0.2,0.6-0.4,1.1-0.5,1.7c-0.3,1-0.7,2.1-1,3.1c-0.1,0.4-0.1,0.9-0.2,1.4c0.5-0.1,1.3-0.1,1.5-0.4
		C125.4,31.1,125.9,29.9,126.6,28.7z"/>
	<path class="st1" d="M140.4,155.2c0,2.5,0,4.9,0,7.4c0,1.1-0.3,2.3-1.8,2.3c-1.5,0-1.9-1.1-1.9-2.2c0-4.9,0-9.8,0-14.8
		c0-1.2,0.2-2.4,1.9-2.4c1.5,0,1.7,1.2,1.7,2.3C140.4,150.3,140.4,152.7,140.4,155.2z"/>
	<path class="st1" d="M110.5,158.5c0-1.3,0-2.7,0-4c0-1.5,0.9-2.4,2.5-2.5c1.6-0.1,2.7,0.8,2.8,2.2c0.1,2.8,0.1,5.7,0,8.5
		c-0.1,1.4-1.2,2.3-2.8,2.1c-1.5-0.1-2.3-1-2.4-2.4C110.4,161.1,110.5,159.8,110.5,158.5C110.5,158.5,110.5,158.5,110.5,158.5z"/>
	<path class="st1" d="M85.9,155.2c0-2.6-0.1-5.2,0.1-7.8c0-0.7,1-1.3,1.6-2c0.6,0.6,1.8,1.2,1.8,1.8c0.1,5.3,0.1,10.5,0,15.8
		c0,0.6-1.2,1.2-1.8,1.8c-0.5-0.6-1.5-1.2-1.5-1.8C85.8,160.4,85.9,157.8,85.9,155.2z"/>
	<path class="st1" d="M108.9,98c0.9-1.8,1.7-3.7,2.8-5.4c0.3-0.4,2-0.6,2.5-0.2c1.9,1.3,3.2,5.6,2.1,7.7c-0.7,1.2-2,2.7-3.3,2.9
		c-1.9,0.3-2.8-1.5-3.4-3c-0.2-0.5-0.2-1.2-0.4-1.7C109.2,98.2,109,98.1,108.9,98z"/>
	<path class="st1" d="M109.6,117.8c-4-0.1-7.1-2.3-7.8-5.5c-0.4-1.8,0.4-2.7,2.3-2.7c4.2,0.1,7.3,2.2,8,5.4
		C112.4,117.1,111.7,117.9,109.6,117.8z"/>
	<path class="st1" d="M116.3,109.7c-1.6,0-2.4-0.6-2.3-2.2c0.2-3.5,5.4-6.9,9-5.9c1.4,0.4,1.7,1.3,1.4,2.5
		C123.8,107.3,120.4,109.7,116.3,109.7z"/>
	<path class="st1" d="M122.1,134.1c2,0,2.7,0.9,2.3,2.7c-0.7,3.3-5.1,6-8.7,5.4c-1.4-0.2-1.8-1.1-1.7-2.3
		C114.4,136.6,117.9,134.1,122.1,134.1z"/>
	<path class="st1" d="M109.5,109.6c-4-0.2-6.9-2.2-7.7-5.3c-0.5-2,0.4-3,2.5-2.8c4.1,0.2,7.1,2.4,7.7,5.5
		C112.4,109,111.7,109.7,109.5,109.6z"/>
	<path class="st1" d="M116.5,117.8c-1.9,0-2.6-0.7-2.4-2.4c0.5-3.5,5.4-6.6,9-5.6c1.4,0.4,1.6,1.4,1.3,2.5
		C123.8,115.5,120.4,117.8,116.5,117.8z"/>
	<path class="st1" d="M116.6,134c-2.2,0-2.8-0.7-2.4-2.7c0.6-3.3,5.4-6.2,8.9-5.3c1.4,0.3,1.6,1.3,1.4,2.5
		C123.9,131.7,120.7,133.9,116.6,134z"/>
	<path class="st1" d="M104.3,134.1c4.2,0.2,7.5,2.6,7.8,5.8c0.1,1.3-0.3,2.1-1.7,2.3c-3.6,0.5-7.7-2-8.6-5.3
		C101.3,134.9,102.1,134,104.3,134.1z"/>
	<path class="st1" d="M109.5,134c-4.1-0.1-7.1-2.2-7.7-5.4c-0.4-1.8,0.4-2.6,2.4-2.6c3.9,0,7.2,2.2,7.9,5.3
		C112.5,133.3,111.8,134,109.5,134z"/>
	<path class="st1" d="M104.3,117.8c3.9,0.1,7,2.2,7.7,5.2c0.5,2.1-0.2,2.9-2.5,2.8c-3.9-0.1-6.9-2.1-7.7-5.2
		C101.3,118.6,102,117.8,104.3,117.8z"/>
	<path class="st1" d="M121.9,117.8c2.3,0,3,0.8,2.5,2.8c-0.9,3.4-5.2,5.9-8.8,5.2c-1.3-0.3-1.6-1.1-1.5-2.2
		C114.4,120.4,117.7,117.9,121.9,117.8z"/>
	<path class="st1" d="M104.4,142.2c4,0.1,7.2,2.4,7.7,5.5c0.3,1.9-0.4,2.6-2.4,2.6c-3.9-0.1-6.9-2.1-7.8-5.2
		C101.3,143,102,142.1,104.4,142.2z"/>
	<path class="st1" d="M122,142.2c2.1,0,2.8,0.9,2.3,2.8c-0.8,3.3-4.9,5.8-8.6,5.3c-1.4-0.2-1.9-1-1.8-2.2
		C114.3,144.8,117.8,142.2,122,142.2z"/>
	<path class="st1" d="M135.6,109c0.6-1.3,1.2-2.8,2.1-4.3c0.2-0.3,1.4-0.5,1.7-0.2c1.7,1.2,2.7,5.4,1.6,7.2c-0.5,0.8-1.5,2-2.2,1.9
		c-0.9-0.1-1.8-1.1-2.4-2C135.8,111,135.9,110.1,135.6,109z"/>
	<path class="st1" d="M90.7,108.9c0,2.5-1.6,4.8-2.9,4.8c-1.3,0-3-2.2-2.7-4c0.2-1.6,1-3.3,1.7-4.8c0.5-1.1,1.5-1.1,2,0
		C89.6,106.3,90.3,108,90.7,108.9z"/>
	<path class="st1" d="M79.7,136.5c3.7,0.2,6.5,2.2,6.8,5c0.1,0.5-0.6,1.4-1,1.5c-3.1,0.6-6.9-1.9-7.5-4.7
		C77.8,136.9,78.3,136.3,79.7,136.5z"/>
	<path class="st1" d="M84.9,126.7c-3.6-0.1-6.5-2.2-6.8-4.9c-0.1-0.5,0.5-1.4,0.9-1.5c3.1-0.6,6.6,1.6,7.5,4.4
		C87,126.3,86.5,126.9,84.9,126.7z"/>
	<path class="st1" d="M140.3,143c-0.2-0.4-0.7-1-0.6-1.5c0.2-2.9,4.6-5.7,7.6-4.9c0.4,0.1,0.9,1.1,0.8,1.6
		C147.6,141.1,144.4,143.1,140.3,143z"/>
	<path class="st1" d="M141.1,126.7c-1.7,0.2-1.8-0.7-1.5-1.9c0.7-2.8,4.4-5,7.5-4.4c0.4,0.1,1,1,1,1.5
		C147.7,124.6,144.8,126.6,141.1,126.7z"/>
	<path class="st1" d="M85,134.8c-3.6-0.1-6.4-1.9-6.8-4.7c-0.1-0.5,0.5-1.6,1-1.7c3.1-0.6,6.7,1.8,7.4,4.6
		C86.9,134.4,86.5,135,85,134.8z"/>
	<path class="st1" d="M95.7,120.3c1.5-0.1,1.8,0.6,1.4,1.8c-0.8,2.8-4.3,5.1-7.5,4.5c-0.4-0.1-1.1-1.1-1-1.7
		C89.1,122.3,92.2,120.2,95.7,120.3z"/>
	<path class="st1" d="M141.3,134.8c-1.7,0.3-2-0.5-1.6-1.9c0.7-2.7,4.4-5,7.4-4.4c0.5,0.1,1.1,1,1,1.5
		C147.8,132.6,145.1,134.6,141.3,134.8z"/>
	<path class="st1" d="M135.9,134.8c-3.6-0.1-6-1.8-6.8-4.5c-0.4-1.4,0-2,1.6-2c3.3,0.2,6.1,2,6.8,4.5
		C137.9,134.1,137.7,135.1,135.9,134.8z"/>
	<path class="st1" d="M90.2,134.8c-1.7,0.3-1.9-0.6-1.6-1.9c0.7-2.7,4.5-5.1,7.5-4.5c0.5,0.1,1.1,1.1,1,1.7
		C96.6,132.8,93.9,134.6,90.2,134.8z"/>
	<path class="st1" d="M131,120.3c3.3,0.2,6,2.1,6.6,4.6c0.3,1.2,0,1.9-1.6,1.8c-3.3-0.1-5.9-1.7-6.8-4.4
		C128.6,120.6,129,120.2,131,120.3z"/>
	<path class="st1" d="M135.8,143c-3.6-0.2-6.1-2-6.8-4.7c-0.4-1.3,0.1-1.9,1.6-1.8c3.4,0.1,6.3,2,6.9,4.6
		C137.8,142.3,137.6,143.2,135.8,143z"/>
	<path class="st1" d="M90.1,143c-1.4,0.1-1.7-0.6-1.5-1.7c0.5-2.9,4.6-5.5,7.7-4.7c0.4,0.1,0.9,1.1,0.8,1.6
		C96.6,140.9,93.7,142.9,90.1,143z"/>
	<path class="st1" d="M131,112.2c3.2,0.1,5.8,1.9,6.5,4.4c0.4,1.4,0.1,2.2-1.7,2.1c-3.2-0.2-5.7-1.8-6.6-4.4
		C128.6,112.5,128.9,112.1,131,112.2z"/>
	<path class="st1" d="M146.6,112.2c1.7-0.2,1.9,0.6,1.5,2.1c-0.9,2.7-4.2,4.7-7.2,4.3c-0.5-0.1-1.2-1.1-1.1-1.5
		C140,114.3,143,112.2,146.6,112.2z"/>
	<path class="st1" d="M85,118.6c-3.4-0.2-6-1.9-6.8-4.2c-0.6-1.8-0.2-2.3,1.8-2.2c3.2,0.2,5.7,1.9,6.5,4.5
		C87,118.2,86.4,118.8,85,118.6z"/>
	<path class="st1" d="M90.1,118.6c-1.4,0.2-1.8-0.5-1.5-1.8c0.6-2.8,4.5-5.3,7.6-4.6c0.4,0.1,1,1.1,0.9,1.6
		C96.6,116.5,93.6,118.6,90.1,118.6z"/>
</g>
</svg>
