<?xml version="1.0" encoding="utf-8"?>
<!-- Generator: Adobe Illustrator 19.1.0, SVG Export Plug-In . SVG Version: 6.00 Build 0)  -->
<svg version="1.1" id="Layer_1" xmlns="http://www.w3.org/2000/svg" xmlns:xlink="http://www.w3.org/1999/xlink" x="0px" y="0px"
	 viewBox="-417 218 125 125" style="enable-background:new -417 218 125 125;" xml:space="preserve">
<style type="text/css">
	.st0{fill:#7B7B7B;}
</style>
<g id="XMLID_15784_">
	<path id="XMLID_11294_" class="st0" d="M-368.3,291.5c0-3.1,0-6.1,0-9.1c9.1,0,18.2,0,27.4,0c0-1.5,0-3,0-4.4c3,3,6.1,6.1,9,9
		c-3,3-6,6-8.9,8.9c0-1.4,0-2.9,0-4.4C-350,291.5-359.1,291.5-368.3,291.5z"/>
	<g id="XMLID_10930_">
		<path id="XMLID_10935_" class="st0" d="M-294,279.7c0,9.8,0,19.5,0,29.3c0,2.6-1.2,4.7-3.2,5.5c-0.4,0.2-0.9,0.3-1.3,0.3
			c-8.5,0-17,0-25.6,0c-2.5,0-4.4-2.3-4.5-5.4c0-1.2,0-2.4,0-3.7c0-18.4,0-36.9,0-55.4c0-2.7,1.2-4.8,3.2-5.5
			c0.4-0.2,0.8-0.3,1.2-0.3c8.6,0,17.1,0,25.7,0c2.4,0,4.3,2.4,4.3,5.5c0,6.2,0,12.4,0,18.7C-294,272.5-294,276.1-294,279.7z
			 M-326.5,303.8c10.2,0,20.5,0,30.7,0c0-17.2,0-34.3,0-51.5c-10.2,0-20.5,0-30.7,0C-326.5,269.5-326.5,286.7-326.5,303.8z
			 M-311.2,312.6c1.5,0,2.7-1.4,2.7-3.3c0-1.8-1.2-3.2-2.7-3.2s-2.7,1.4-2.7,3.2C-313.9,311.1-312.7,312.6-311.2,312.6z
			 M-311.2,249.6c1.2,0,2.4,0,3.5,0c0.4,0,0.8-0.2,0.9-0.7c0.3-0.8-0.2-1.5-1-1.5c-2.3,0-4.5,0-6.8,0c-0.8,0-1.1,0.3-1.1,1.1
			c0,0.7,0.3,1.1,1.1,1.1C-313.5,249.6-312.4,249.6-311.2,249.6z"/>
		<path id="XMLID_10934_" class="st0" d="M-313.8,255.2c0.9-0.2,1.7-0.3,2.6-0.3"/>
		<path id="XMLID_10933_" class="st0" d="M-325.1,295.1"/>
		<path id="XMLID_10932_" class="st0" d="M-323.4,299.1"/>
		<path id="XMLID_10931_" class="st0" d="M-310.6,301.4"/>
	</g>
	<g id="XMLID_10923_">
		<path id="XMLID_10924_" class="st0" d="M-375.8,281c0,10-0.1,20,0,30c0,3.7-2.7,5.6-5.6,5.6c-9.3,0-18.7,0-28,0
			c-2.6,0-4.8-1.4-5.4-3.7c-0.2-0.6-0.2-1.2-0.2-1.8c0-20.1,0-40.1,0-60.3c0-3.7,2.7-5.6,5.6-5.6c4.1,0,8.2,0,12.4,0
			c5.2,0,10.4,0,15.6,0c1.5,0,3,0.4,4.1,1.5c1.1,1,1.5,2.4,1.5,3.8C-375.8,260.7-375.8,270.9-375.8,281z M-377.7,309.1
			c0-19.3,0-38.4,0-57.6c-11.8,0-23.7,0-35.5,0c0,19.3,0,38.4,0,57.6C-401.3,309.1-389.6,309.1-377.7,309.1z M-395.5,311.6
			c-1.4,0-2.7,0-4.2,0c-0.9,0-1.3,0.3-1.3,1.2c0,1.1,0.3,1.4,1.3,1.4c2.7,0,5.5,0,8.2,0c1,0,1.3-0.3,1.3-1.4c0-0.9-0.3-1.2-1.3-1.2
			C-392.7,311.5-394.1,311.6-395.5,311.6z M-395.5,248.3c1,0,2.1,0,3.2,0c0.2,0,0.3-0.2,0.6-0.3c-0.2-0.1-0.4-0.3-0.6-0.3
			c-2,0-4.2,0-6.2,0c-0.2,0-0.3,0.2-0.5,0.3c0.2,0.1,0.3,0.3,0.6,0.3C-397.5,248.3-396.5,248.3-395.5,248.3z M-383.9,247.2
			c-0.5,0-1,0.3-1,0.9c-0.1,0.5,0.3,1,0.9,1c0.6,0.1,1-0.3,1.1-0.9C-383,247.6-383.3,247.2-383.9,247.2z"/>
	</g>
	<path id="XMLID_10913_" class="st0" d="M-360.7,267c9.2,0,18.2,0,27.4,0c0,3.1,0,6.1,0,9.1c-9.1,0-18.2,0-27.4,0c0,1.5,0,3,0,4.4
		c-3-3-6.1-6.1-9-9c3-3,6-6,8.9-8.9C-360.7,264.1-360.7,265.5-360.7,267z"/>
</g>
</svg>
