<?xml version="1.0" encoding="utf-8"?>
<!-- Generator: Adobe Illustrator 19.1.0, SVG Export Plug-In . SVG Version: 6.00 Build 0)  -->
<svg version="1.1" id="Layer_1" xmlns="http://www.w3.org/2000/svg" xmlns:xlink="http://www.w3.org/1999/xlink" x="0px" y="0px"
	 viewBox="158.1 229.4 180 180" style="enable-background:new 158.1 229.4 180 180;" xml:space="preserve">
<style type="text/css">
	.st0{fill:#F8835E;}
	.st1{fill:#FFD846;}
</style>
<g id="XMLID_6_">
	<path id="XMLID_7_" class="st0" d="M160.8,324c0-3.1,0-6.2,0-9.2c0.5-2.7,0.9-5.7,1.3-8.4c4.9-35.6,33.8-66,69.1-72.5
		c4.2-0.7,8.3-1.3,12.4-1.9c3.1,0,6.2,0,9.2,0c0.9,0.2,1.7,0.6,2.6,0.7c4.2,0.7,8.3,1,12.5,1.9c33.4,7.4,59.6,34.7,65.7,68.4
		c0.7,4,1.3,7.8,1.9,11.8c0,3.1,0,6.2,0,9.2c-0.5,2.7-0.9,5.4-1.3,8.2c-5.4,36.8-33,65.6-69.7,72.7c-4,0.8-7.8,1.3-11.8,1.8
		c-3.1,0-6.2,0-9.2,0c-0.9-0.2-1.7-0.6-2.6-0.7c-4.2-0.7-8.3-1-12.5-1.9c-33.2-7.4-59.6-34.9-65.7-68.4
		C161.9,331.8,161.4,327.8,160.8,324z M248,239.2c-43.9,0.1-80,36.1-79.8,80.3c0.2,44.1,35.5,79.8,80,79.8
		c44.6-0.1,79.7-35.8,79.8-79.9C328.2,275.2,292,239.2,248,239.2z"/>
</g>
<g>
	<path class="st1" d="M198.8,339l14.2-32.6h-20.5V297h33v7.5L210.7,339H198.8z"/>
	<path class="st1" d="M228.1,318c0-11.1,5.7-21.7,18-21.7c12.3,0,18,10.6,18,21.7c0,11.1-5.7,21.7-18,21.7
		C233.8,339.7,228.1,329.1,228.1,318z M253.2,318c0-7.4-2-12.1-7.1-12.1c-5,0-7.1,4.7-7.1,12.1c0,7.4,2,12.2,7.1,12.2
		C251.2,330.2,253.2,325.4,253.2,318z"/>
	<path class="st1" d="M267.4,318c0-11.1,5.7-21.7,18-21.7c12.3,0,18,10.6,18,21.7c0,11.1-5.7,21.7-18,21.7
		C273.2,339.7,267.4,329.1,267.4,318z M292.5,318c0-7.4-2-12.1-7.1-12.1s-7.1,4.7-7.1,12.1c0,7.4,2,12.2,7.1,12.2
		S292.5,325.4,292.5,318z"/>
</g>
</svg>
