<?xml version="1.0" encoding="utf-8"?>
<!-- Generator: Adobe Illustrator 19.1.0, SVG Export Plug-In . SVG Version: 6.00 Build 0)  -->
<svg version="1.1" id="Layer_1" xmlns="http://www.w3.org/2000/svg" xmlns:xlink="http://www.w3.org/1999/xlink" x="0px" y="0px"
	 viewBox="-32.9 422.2 180 180" style="enable-background:new -32.9 422.2 180 180;" xml:space="preserve">
<style type="text/css">
	.st0{fill:#F8835E;}
	.st1{fill:#FFD846;}
</style>
<g id="XMLID_1_">
	<path id="XMLID_2_" class="st0" d="M-30.2,516.8c0-3.1,0-6.2,0-9.2c0.5-2.7,0.9-5.7,1.3-8.4c4.9-35.6,33.8-66,69.1-72.5
		c4.2-0.7,8.3-1.3,12.4-1.9c3.1,0,6.2,0,9.2,0c0.9,0.2,1.7,0.6,2.6,0.7c4.2,0.7,8.3,1,12.5,1.9c33.4,7.4,59.6,34.7,65.7,68.4
		c0.7,4,1.3,7.8,1.9,11.8c0,3.1,0,6.2,0,9.2c-0.5,2.7-0.9,5.4-1.3,8.2c-5.4,36.8-33,65.6-69.7,72.7c-4,0.8-7.8,1.3-11.8,1.8
		c-3.1,0-6.2,0-9.2,0c-0.9-0.2-1.7-0.6-2.6-0.7c-4.2-0.7-8.3-1-12.5-1.9c-33.2-7.4-59.6-34.9-65.7-68.4
		C-29.1,524.6-29.6,520.6-30.2,516.8z M57,432c-43.9,0.1-80,36.1-79.8,80.3c0.2,44.1,35.5,79.8,80,79.8
		c44.6-0.1,79.7-35.8,79.8-79.9C137.2,468,101,432,57,432z"/>
</g>
<g>
	<path class="st1" d="M39.6,531.8v-7.7H19.5v-8.4l15.9-25.9h15.1v24.8h5.1v9.5h-5.1v7.7H39.6z M39.6,499.2L30,514.6h9.6V499.2z"/>
	<path class="st1" d="M58.5,510.8c0-11.1,5.7-21.7,18-21.7s18,10.6,18,21.7s-5.7,21.7-18,21.7S58.5,521.9,58.5,510.8z M83.6,510.8
		c0-7.4-2-12.1-7.1-12.1s-7.1,4.7-7.1,12.1s2,12.2,7.1,12.2S83.6,518.2,83.6,510.8z"/>
</g>
</svg>
