<?xml version="1.0" encoding="utf-8"?>
<!-- Generator: Adobe Illustrator 19.1.0, SVG Export Plug-In . SVG Version: 6.00 Build 0)  -->
<svg version="1.1" id="Layer_1" xmlns="http://www.w3.org/2000/svg" xmlns:xlink="http://www.w3.org/1999/xlink" x="0px" y="0px"
	 viewBox="-191.9 150.2 180 180" style="enable-background:new -191.9 150.2 180 180;" xml:space="preserve">
<style type="text/css">
	.st0{fill:#F8835E;}
	.st1{fill:#FFD846;}
</style>
<g id="XMLID_3_">
	<path id="XMLID_56_" class="st0" d="M-189.2,244.8c0-3.1,0-6.2,0-9.2c0.5-2.7,0.9-5.7,1.3-8.4c4.9-35.6,33.8-66,69.1-72.5
		c4.2-0.7,8.3-1.3,12.4-1.9c3.1,0,6.2,0,9.2,0c0.9,0.2,1.7,0.6,2.6,0.7c4.2,0.7,8.3,1,12.5,1.9c33.4,7.4,59.6,34.7,65.7,68.4
		c0.7,4,1.3,7.8,1.9,11.8c0,3.1,0,6.2,0,9.2c-0.5,2.7-0.9,5.4-1.3,8.2c-5.4,36.8-33,65.6-69.7,72.7c-4,0.8-7.8,1.3-11.8,1.8
		c-3.1,0-6.2,0-9.2,0c-0.9-0.2-1.7-0.6-2.6-0.7c-4.2-0.7-8.3-1-12.5-1.9c-33.2-7.4-59.6-34.9-65.7-68.4
		C-188.1,252.6-188.6,248.6-189.2,244.8z M-102,160c-43.9,0.1-80,36.1-79.8,80.3c0.2,44.1,35.5,79.8,80,79.8
		c44.6-0.1,79.7-35.8,79.8-79.9C-21.8,196-58,160-102,160z"/>
</g>
<g>
	<path class="st1" d="M-121.5,259.8v-28.2l-7.1,7.1l-6.2-6.5l14.7-14.5h9.4v42H-121.5z"/>
	<path class="st1" d="M-104.1,259.8v-8.4c18.2-13.2,21.6-16.1,21.6-20.3c0-2.8-2.7-4.3-5.8-4.3c-4.7,0-8.2,1.8-11.2,4.6l-6-7.2
		c4.5-4.9,11.2-7,17-7c9.9,0,17,5.5,17,13.9c0,6.5-4.6,12-15.1,19.3h15.4v9.5H-104.1z"/>
</g>
</svg>
