<?xml version="1.0" encoding="utf-8"?>
<!-- Generator: Adobe Illustrator 19.1.0, SVG Export Plug-In . SVG Version: 6.00 Build 0)  -->
<svg version="1.1" id="Layer_1" xmlns="http://www.w3.org/2000/svg" xmlns:xlink="http://www.w3.org/1999/xlink" x="0px" y="0px"
	 viewBox="-417 218 125 125" style="enable-background:new -417 218 125 125;" xml:space="preserve">
<style type="text/css">
	.st0{fill:#7B7B7B;}
	.st1{fill:none;stroke:#7B7B7B;stroke-miterlimit:10;}
</style>
<g id="XMLID_16007_">
	<path id="XMLID_16010_" class="st0" d="M-356.1,248.2c19.8,0,36.2,16.1,36.3,35.8c0.1,20-16.1,36.5-35.8,36.5
		c-20.2,0-36.5-16.1-36.5-36C-392.2,264.5-376.1,248.2-356.1,248.2z M-343.2,283.4c-0.6-0.3-1-0.4-1.5-0.6c-0.3-0.2-0.7-0.5-0.9-0.4
		c-1.4,0.3-2.7,0.5-4,0.6c-1.5,0.1-2.1,0.2-3-1.2c-0.5-0.8-1.2-1.5-1.6-2.3c-0.3-0.5-0.3-1.1-0.3-1.7c0-0.9,0-1.6,0.1-2.5
		c0-0.2-0.1-0.3,0-0.4c0.6-0.9,1.3-1.9,2-2.8c1-1.4,2.1-2.7,3.3-4.3c-2,0.2-1.8-0.9-1.6-2c0.1-0.4,0-0.9,0-1.5c1,0.1,2,0.1,2.9,0.2
		c0.9-1.5-0.9-1.7-1.3-2.6c0.7-0.2,1.2-0.3,1.7-0.5c0-0.1,0-0.1,0-0.2c-0.6,0-1.2,0-2,0c0.3-0.9,0.4-1.5,0.6-2.2
		c-0.3,0.1-0.5,0.3-0.7,0.6c-0.3,0.3-0.6,0.7-0.9,0.8c-0.3,0.1-0.8-0.3-0.8-0.6c0-0.3,0.3-0.8,0.5-1c0.3-0.3,0.6-0.3,0.9-0.4
		c0.1-0.3,0-0.6,0.2-0.9s0.6-0.7,0.7-0.7c0.3,0.2,0.7,0.4,0.9,0.8c0.4,0.7,0.7,1.5,1,2.2c0.2,0.3,0.4,0.6,0.6,0.9
		c0.7-0.3,1.4-0.8,2.1-1.2c-0.3-0.8-0.1-1.5,0.9-2.1c-0.8-0.1-1.6,0.2-2-0.2c-0.4-0.4-0.4-1.3-0.6-2c-4.3-1.7-11.2-2.1-15.7-1
		c-0.6,0.2-1,0.3-1.3,1c-0.2,0.5-0.8,1.2-1.2,1.2c-0.5,0.1-1.1-0.4-1.7-0.7c0-0.2,0-0.3,0-0.5c-1.9,0.9-3.8,1.7-5.6,2.6
		c0,0.2,0,0.3-0.1,0.4c0.9-0.7,1-0.2,1.2,0.4c0.2,0.8,0.3,1.5,1.3,1.9c0.9,0.4,0.3,1-0.2,1.5c-0.9,0.7-1.8,1.4-2.6,2
		c0.3,0.5,0.5,0.9,0.9,1.5c-0.8,0.3-1.5,0.8-2,0.7c-0.8-0.2-1,0.2-1.4,0.6c-0.3,0.3-0.5,0.9-0.8,1.2c-0.2,0.3-0.4,0.6-0.6,0.9
		c-0.5,0.9-0.9,1.8-1.5,2.4c-0.6,0.7-1,1.2-0.9,2.1c0.1,0.5,0,1-0.1,1.6c-0.1,0-0.3,0-0.3,0c-0.2-0.5-0.3-1-0.5-1.8
		c-1,0.3-2,0.6-3,0.9c0,0.2,0,0.4,0,0.6c0.6,0.2,1.2,0.3,1.7,0.4c0.4,0.2,0.9,0.4,1.5,0.8c-0.7,0.3-1,0.4-1.2,0.5
		c-0.2,0.8-0.3,1.5-0.4,1.8c0.4,0.6,0.9,0.9,1,1.4c0.2,0.5,0.2,1.1,0.2,1.7c1,0.1,1.9,0.1,2.5-0.8c0.3-0.4,0.9-0.6,1.5-0.2
		c0.4,0.3,1,0.3,1.5,0.4c0.3,0.1,0.8,0.2,1.1,0.4c0.7,0.5,1.4,1.3,2.1,1.5c1,0.3,1.7,0.8,2.1,1.8c0.1,0.3,0.3,0.8,0.7,0.9
		c1.1,0.4,2.3,0.8,3.5,1.2c0.6,0.2,1.1,0.4,1.6,0.8c1,0.7,1.3,1.5,0.4,2.3c-0.9,1.1-1.2,2.3-1.3,3.6c0,0.2,0,0.3-0.1,0.6
		c-0.3,0.8-0.4,1.4-1.5,1.5c-0.8,0.1-1.7,0.4-1.6,1.7c0.1,1-1.5,2.8-2.6,3.1c0.2,1,0.1,1.2-0.9,1.4c-0.3,0.1-0.7,0.8-0.9,1.1
		c-0.3,0.7-0.8,1.4-0.2,2.1c0,0-0.1,0.2-0.2,0.3c-0.7,0.9-0.2,1.5,0.4,2c0.3,0.3,0.6,0.4,1.1,0.8c-1.5,0.4-2.2-0.4-2.7-1.1
		c-0.7-0.9-1.2-2.1-1.6-3.2c-0.3-0.7-0.2-1.5-0.3-2.3c-0.1-0.6-0.2-1.2-0.2-1.8c-0.1-1.1,0.1-2.2-0.1-3.3c-0.3-1.8,0.3-3.9-1.9-5
		c-0.2-0.1-0.3-0.3-0.3-0.6c-0.5-0.9-1-2-1.5-2.9c-0.1-0.3-0.2-0.5-0.2-0.8c-0.1-1.1,0.2-2.1,0.8-3.2c0.3-0.5,0-1.3-0.1-2.1
		c-1,0.9-1.5,0.2-1.9-0.4c-0.7-1.2-1.6-1.9-3-2.3c-0.9-0.3-1.9-0.9-1.5-2.2c0.1-0.3-0.2-0.7-0.3-1.3c-0.1,0.6-0.2,0.9-0.2,1.3
		c-0.3-0.3-0.3-0.4-0.5-0.6c-4.4,14.8,3.4,30.4,15.8,36.1c0.1-0.1,0.2-0.2,0.2-0.3c-0.3-0.3-0.8-0.5-1.2-0.8
		c0.4-0.3,0.8-0.4,1.1-0.7c0.3,0.3,0.4,0.7,0.6,0.9c0.2-0.4,0.3-1,0.6-1.3c0.3-0.3,0.9-0.2,1.2-0.2c-0.2,0.6-0.5,1.3-0.3,1.4
		c1.9,1.5,3.3,3.8,6.1,3.9c0.5,0,1,0.2,1.5,0.3c2.5,0.3,5,0.6,7.2-0.9c0.2-0.1,0.3-0.1,0.5-0.2c0.7-0.2,1.3-0.4,2-0.6
		c1.3-0.3,2.6-0.9,3.8-0.7c1.7,0.3,3.2,0.1,4.5-0.6c8-3.9,13.3-10.2,16-18.6c1.9-5.8,1.9-11.8,0.3-17.7c-0.3-0.9-0.3-0.9-1.3-0.9
		c0.9,1.5,0.7,2.1-0.6,3c-0.3,0.3-0.8,0.4-1.2,0.7c-0.6,0.4-1.1,0.9-1.6,1.3c0,0.1,0.1,0.1,0.1,0.2c0.6-0.1,1.3-0.3,2-0.3
		c-0.1,0.6-0.2,1-0.3,1.4c-0.6,1.8-1.4,3.5-2.7,5c-0.5,0.5-0.7,1-0.3,1.7c0.8,1.2,0.6,2.7-0.5,3.6c-0.6,0.5-1,1-0.9,1.9
		c0.1,0.3,0,0.7-0.1,0.9c-0.3,0.7-0.8,1.4-1.3,2c-1.1,1.6-2.3,3.1-4.5,3.2c-0.3,0-0.8-0.3-0.9-0.5c-0.6-1.6-0.9-3.4-1.6-5
		c-0.6-1.3-0.6-2.3-0.2-3.5c0.2-0.5,0.3-1.3,0-1.8c-0.8-1.6-2.1-3-1.5-5C-343.2,283.6-343.2,283.4-343.2,283.4z M-341.4,267.1
		c0.1-0.1,0.2-0.3,0.3-0.3c-0.6-0.5-1.1-1.1-1.7-1.5c-1.5-1.1-3.7-0.4-4.1,1.3c-0.2,0.9-0.7,1-1.3,1.3c-0.3,0.1-0.6,0.2-0.9,0.3
		c0.2,0.3,0.4,0.3,0.6,0.3c1.6-0.2,3.3-0.4,4.9-0.5c0.3,0,0.9,0.2,1,0.3c0.5,1.8,2.3,2.1,3.6,3.1c0.1-1.3,0.7-1.5,1.6-0.9
		c1.1,0.8,2.4,0.9,3.8,0.8c0-0.8,0-1.4,0-2.1c-1.9,0.1-3.4-0.3-3.7-2.7c-0.1,0.4,0,0.8-0.1,1c0,0.3-0.1,0.7-0.3,0.9
		c-0.2,0.1-0.7-0.1-0.8-0.3c-0.4-0.6-0.7-1.3-1-1.9c-0.2-0.3-0.4-0.6-0.7-0.9c-0.1,0.1-0.2,0.2-0.3,0.3c0.3,0.3,0.5,0.6,0.7,0.8
		c-0.7,0.6-1.2,1.2-1.9,1.9c-0.2-0.3-0.4-0.6-0.7-1C-342,267.2-341.7,267.1-341.4,267.1z M-343.3,259.2c0.8,1.5,2.1,0.6,2.8,0.9
		c0.5-0.5,0.1-1.8,1.5-1.2c0-0.1,0-0.2,0-0.3c-0.7-0.5-1.4-0.9-2.1-1.5c-0.3,0.4-0.5,0.8-0.5,1
		C-341.6,259.2-342.2,259.4-343.3,259.2z M-333.4,264.6c-0.8,0.5-1.4,0.5-2-0.2c-0.1-0.1-0.7,0-0.8,0.2c-0.2,0.3-0.3,0.8-0.3,1.1
		c0,0.2,0.6,0.3,0.9,0.3c0.3,0.1,0.8,0,1.1,0.1c0.8,0.2,1.5,0.4,2.3,0.7c0-0.2,0.1-0.3,0.1-0.4c-0.3-0.1-0.5-0.2-0.8-0.2
		c-0.8,0.1-1-0.2-0.9-0.9C-333.6,265.1-333.5,264.9-333.4,264.6z M-333.2,273.2c-0.2,0.1-0.3,0.2-0.4,0.2c1.1,1.7,1.2,4,2.7,5.6
		c0.1-0.1,0.2-0.1,0.3-0.2C-331.5,277-332.4,275.1-333.2,273.2z M-382.5,277.6c0.1,0.1,0.2,0.1,0.3,0.2c0.3-0.5,0.8-0.9,1.2-1.6
		c-0.9-0.1-1.2-0.3-0.3-1.2c-0.8,0.3-1.1,0.3-1.4,0.4C-382.7,276.4-382.6,277-382.5,277.6z M-331.4,265.4c0.3,1.1,0.4,1.9,0.6,2.6
		s0.6,1,1.7,0.9C-329.9,267.6-330.5,266.6-331.4,265.4z M-375.5,260.3c-1.5,1-1.8,1.6-1.2,2.7C-376.3,262-375.8,261.1-375.5,260.3z"
		/>
	<path id="XMLID_16009_" class="st0" d="M-328.5,290.1c0,0.3,0.3,0.9,0.1,1.2c-0.5,1.7-1.1,3.4-1.8,5.1c-0.1,0.3-0.4,0.5-0.7,0.8
		c-0.6,0.4-0.9,0.3-1-0.4c0-0.1,0-0.3,0-0.3c0.3-1.2,0.4-2.4,0.8-3.6c0.1-0.3,0.4-0.6,0.8-0.9C-329.8,291.3-329.3,290.7-328.5,290.1
		z"/>
</g>
<g id="XMLID_16000_">
	<path id="XMLID_16001_" class="st0" d="M-315.8,278.2c-0.3-0.6-0.5-1.2-0.8-1.8c0-0.1-0.1-0.2-0.2-0.2c-1-0.9-1.4-2.2-1.4-3.6
		c0-0.2,0.1-0.4,0.2-0.6c0.2-0.3,0.2-0.5,0.2-0.8c-0.2-1.9,0.4-3.6,1.7-5c0.3-0.3,0.2-0.4,0-0.7c-0.3-0.3-0.7-0.5-1-0.8
		c0.5-0.3,1.4-0.2,2.1,0.4c0.9-0.6,1.8-1,2.9-1.2c2.6-0.3,5,0.1,6.8,2.2c1.3,1.5,1.8,3.3,1.6,5.1c0,0.2,0,0.3,0.1,0.4
		c0.3,0.5,0.3,1.1,0.3,1.7c-0.2,1-0.5,2-1.4,2.6c-0.1,0.1-0.1,0.1-0.1,0.2c-0.3,0.6-0.5,1.2-0.8,1.8c0.3,0.2,0.5,0.3,0.8,0.4
		c1.5,0.9,2.8,1.9,3.9,3.3c0.8,1.1,1.3,2.3,1.1,3.7l0,0c-0.1,0.8-0.1,0.8-0.8,0.9c-2.2,0.6-4.5,0.9-6.8,1.2
		c-2.2,0.2-4.4,0.3-6.7,0.1c-2.3-0.2-4.6-0.5-6.8-1.3c-0.6-0.2-0.6-0.2-0.7-0.9c-0.2-1.4,0.3-2.7,1.1-3.8c1.2-1.5,2.7-2.7,4.4-3.7
		C-316,278.2-316,278.2-315.8,278.2L-315.8,278.2z M-315.1,279c-0.3,0.2-0.5,0.3-0.8,0.4c-1.5,0.9-2.7,1.8-3.8,3.2
		c-0.6,0.8-0.9,1.6-0.9,2.6c0,0.3,0.1,0.3,0.3,0.4c2.7,0.8,5.3,1.1,8,1.2c2.6,0.1,5.2-0.1,7.8-0.5c1.2-0.2,2.4-0.4,3.5-0.7
		c0.2-0.7,0-1.5-0.4-2.2c-0.7-1.3-1.8-2.2-2.9-3.1c-0.7-0.4-1.4-0.9-2.1-1.4C-308.9,281.7-312.3,281.7-315.1,279z M-307.8,273.2
		c-0.2,0-0.3-0.1-0.3-0.1c-2-0.5-3.6-1.5-5.1-2.8c-0.4-0.4-0.6-0.4-1.1-0.1c-0.2,0.2-0.3,0.3-0.5,0.4c-0.4,0.4-0.6,1-0.7,1.6
		c-0.1,0.8-0.2,1.5-0.3,2.3c-0.3-0.6-0.3-1.5-1-1.8c0,0.8,0.2,1.5,0.6,2.1c0.2,0.2,0.3,0.3,0.6,0.4c0.1,0.1,0.2,0.2,0.2,0.3
		c0.3,1.4,1,2.4,2.1,3.3c0.9,0.8,2.1,1.3,3.4,0.9c2.1-0.5,3.5-2,4-4c0.1-0.3,0.1-0.4,0.3-0.4c0.2-0.1,0.3-0.3,0.4-0.3
		c0.3-0.4,0.5-1,0.6-1.6c0-0.3,0-0.4,0-0.7c0-0.1-0.2-0.3-0.3-0.3c-0.1,0-0.2,0.1-0.3,0.2c-0.1,0.1-0.2,0.3-0.2,0.3
		c-0.1,0.3-0.3,0.3-0.5,0.2c-0.4-0.3-0.9-0.4-1.4-0.8c-0.6-0.4-1.1-0.9-1.7-1.5c0.2,0.4,0.3,0.8,0.6,1.1
		C-308.2,272.4-308,272.8-307.8,273.2z"/>
</g>
<g id="XMLID_15990_">
	<path id="XMLID_15994_" class="st0" d="M-406.3,269.8c-0.3-0.6-0.5-1.2-0.8-1.8c0-0.1-0.1-0.2-0.2-0.2c-1-0.9-1.4-2.2-1.4-3.6
		c0-0.2,0.1-0.4,0.2-0.6c0.2-0.3,0.2-0.5,0.2-0.8c-0.2-1.9,0.4-3.6,1.7-5c0.3-0.3,0.2-0.4,0-0.7c-0.3-0.3-0.7-0.5-1-0.8
		c0.5-0.3,1.4-0.2,2.1,0.4c0.9-0.6,1.8-1,2.9-1.2c2.6-0.3,5,0.1,6.8,2.2c1.3,1.5,1.8,3.3,1.6,5.1c0,0.2,0,0.3,0.1,0.4
		c0.3,0.5,0.3,1.1,0.3,1.7c-0.2,1-0.5,2-1.4,2.6c-0.1,0.1-0.1,0.1-0.1,0.2c-0.3,0.6-0.5,1.2-0.8,1.8c0.3,0.2,0.5,0.3,0.8,0.4
		c1.5,0.9,2.8,1.9,3.9,3.3c0.8,1.1,1.3,2.3,1.1,3.7l0,0c-0.1,0.8-0.1,0.8-0.8,0.9c-2.2,0.6-4.5,0.9-6.8,1.2
		c-2.2,0.2-4.4,0.3-6.7,0.1c-2.3-0.2-4.6-0.5-6.8-1.3c-0.6-0.2-0.6-0.2-0.7-0.9c-0.2-1.4,0.3-2.7,1.1-3.8c1.2-1.5,2.7-2.7,4.4-3.7
		C-406.5,269.9-406.4,269.9-406.3,269.8L-406.3,269.8z M-405.5,270.6c-0.3,0.2-0.5,0.3-0.8,0.4c-1.5,0.9-2.7,1.8-3.8,3.2
		c-0.6,0.8-0.9,1.6-0.9,2.6c0,0.3,0.1,0.3,0.3,0.4c2.7,0.8,5.3,1.1,8,1.2c2.6,0.1,5.2-0.1,7.8-0.5c1.2-0.2,2.4-0.4,3.5-0.7
		c0.2-0.7,0-1.5-0.4-2.2c-0.7-1.3-1.8-2.2-2.9-3.1c-0.7-0.4-1.4-0.9-2.1-1.4C-399.5,273.3-402.8,273.3-405.5,270.6z M-398.3,264.8
		c-0.2,0-0.3-0.1-0.3-0.1c-2-0.5-3.6-1.5-5.1-2.8c-0.4-0.4-0.6-0.4-1.1-0.1c-0.2,0.2-0.3,0.3-0.5,0.4c-0.4,0.4-0.6,1-0.7,1.6
		c-0.1,0.8-0.2,1.5-0.3,2.3c-0.3-0.6-0.3-1.5-1-1.8c0,0.8,0.2,1.5,0.6,2.1c0.2,0.2,0.3,0.3,0.6,0.4c0.1,0.1,0.2,0.2,0.2,0.3
		c0.3,1.4,1,2.4,2.1,3.3c0.9,0.8,2.1,1.3,3.4,0.9c2.1-0.5,3.5-2,4-4c0.1-0.3,0.1-0.4,0.3-0.4c0.2-0.1,0.3-0.3,0.4-0.3
		c0.3-0.4,0.5-1,0.6-1.6c0-0.3,0-0.4,0-0.7c0-0.1-0.2-0.3-0.3-0.3c-0.1,0-0.2,0.1-0.3,0.2c-0.1,0.1-0.2,0.3-0.2,0.3
		c-0.1,0.3-0.3,0.3-0.5,0.2c-0.4-0.3-0.9-0.4-1.4-0.8c-0.6-0.4-1.1-0.9-1.7-1.5c0.2,0.4,0.3,0.8,0.6,1.1
		C-398.7,264-398.5,264.4-398.3,264.8z"/>
</g>
<g id="XMLID_15981_">
	<path id="XMLID_15983_" class="st1" d="M-304.4,261.8c-0.5-0.1-1.1-0.2-1.6-0.3c-1.5-0.3-2.5-1.5-2.7-2.9c-0.3-1.4-0.3-2.7-0.1-4.1
		c0.1-0.8,0.3-1.5,0.9-2.1c0.5-0.7,1.3-1,2.1-1.2c1.8-0.3,3.6-0.4,5.5-0.3c1.3,0,2.5,0.2,3.8,0.4c1.5,0.3,2.3,1.2,2.7,2.6
		c0.3,1.1,0.3,2.2,0.3,3.4c-0.1,0.7-0.1,1.4-0.3,2c-0.4,1.4-1.4,2.2-2.8,2.5c-1.1,0.2-2.3,0.3-3.4,0.3c-0.3,0-0.6,0.1-0.9,0.3
		c-0.9,0.7-1.8,1.4-2.9,1.7c-0.3,0.1-0.8,0.2-1.2,0.3c-0.1,0-0.3-0.1-0.3-0.1c0.1-0.1,0.1-0.3,0.2-0.3c0.3-0.3,0.5-0.5,0.7-0.9
		C-304.5,262.5-304.4,262.2-304.4,261.8z"/>
</g>
<g id="XMLID_15978_">
	<path id="XMLID_15980_" class="st1" d="M-404.6,251.4c0.5-0.1,1.1-0.2,1.6-0.3c1.5-0.3,2.5-1.5,2.7-2.9c0.3-1.4,0.3-2.7,0.1-4.1
		c-0.1-0.8-0.3-1.5-0.9-2.1c-0.5-0.7-1.3-1-2.1-1.2c-1.8-0.3-3.6-0.4-5.5-0.3c-1.3,0-2.5,0.2-3.8,0.4c-1.5,0.3-2.3,1.2-2.7,2.6
		c-0.3,1.1-0.3,2.2-0.3,3.4c0.1,0.7,0.1,1.4,0.3,2c0.4,1.4,1.4,2.2,2.8,2.5c1.1,0.2,2.3,0.3,3.4,0.3c0.3,0,0.6,0.1,0.9,0.3
		c0.9,0.7,1.8,1.4,2.9,1.7c0.3,0.1,0.8,0.2,1.2,0.3c0.1,0,0.3-0.1,0.3-0.1c-0.1-0.1-0.1-0.3-0.2-0.3c-0.3-0.3-0.5-0.5-0.7-0.9
		C-404.5,252.2-404.7,251.7-404.6,251.4z"/>
</g>
</svg>
