<?xml version="1.0" encoding="utf-8"?>
<!-- Generator: Adobe Illustrator 19.0.0, SVG Export Plug-In . SVG Version: 6.00 Build 0)  -->
<svg version="1.1" id="Layer_1" xmlns="http://www.w3.org/2000/svg" xmlns:xlink="http://www.w3.org/1999/xlink" x="0px" y="0px"
	 viewBox="1110 -60 150 150" style="enable-background:new 1110 -60 150 150;" xml:space="preserve">
<style type="text/css">
	.st0{fill:none;stroke:#000000;stroke-miterlimit:10;}
</style>
<g id="XMLID_16007_">
	<path id="XMLID_16010_" d="M1183.1-16.6c23.2,0,42.3,18.8,42.4,41.9c0.1,23.4-18.8,42.7-41.9,42.7c-23.6,0-42.7-18.8-42.7-42.1
		C1140.9,2.4,1159.7-16.6,1183.1-16.6z M1198.1,24.5c-0.7-0.3-1.2-0.5-1.7-0.7c-0.4-0.2-0.8-0.6-1.1-0.5c-1.6,0.4-3.1,0.6-4.7,0.7
		c-1.8,0.1-2.5,0.2-3.5-1.4c-0.6-0.9-1.4-1.7-1.9-2.7c-0.3-0.6-0.3-1.3-0.4-2c0-1,0-1.9,0.1-2.9c0-0.2-0.1-0.4,0-0.5
		c0.7-1.1,1.5-2.2,2.3-3.3c1.2-1.6,2.4-3.1,3.8-5c-2.3,0.2-2.1-1.1-1.9-2.3c0.1-0.5,0-1.1,0-1.8c1.2,0.1,2.3,0.1,3.4,0.2
		c1-1.7-1.1-2-1.5-3c0.8-0.2,1.4-0.4,2-0.6c0-0.1,0-0.1,0-0.2c-0.7,0-1.4,0-2.3,0c0.3-1,0.5-1.8,0.7-2.6c-0.4,0.1-0.6,0.4-0.8,0.7
		c-0.3,0.3-0.7,0.8-1.1,0.9c-0.3,0.1-0.9-0.4-0.9-0.7c0-0.4,0.3-0.9,0.6-1.2c0.3-0.3,0.7-0.4,1.1-0.5c0.1-0.3,0-0.7,0.2-1
		c0.2-0.3,0.7-0.8,0.8-0.8c0.4,0.2,0.8,0.5,1,0.9c0.5,0.8,0.8,1.7,1.2,2.6c0.2,0.4,0.5,0.7,0.7,1c0.8-0.4,1.6-0.9,2.5-1.4
		c-0.4-0.9-0.1-1.8,1-2.4c-0.9-0.1-1.9,0.2-2.3-0.2c-0.5-0.5-0.5-1.5-0.7-2.3c-5-2-13.1-2.5-18.4-1.2c-0.7,0.2-1.2,0.4-1.5,1.2
		c-0.2,0.6-0.9,1.4-1.4,1.4c-0.6,0.1-1.3-0.5-2-0.8c0-0.2,0-0.4,0-0.6c-2.2,1-4.4,2-6.6,3c0,0.2,0,0.3-0.1,0.5
		c1-0.8,1.2-0.2,1.4,0.5c0.2,0.9,0.4,1.7,1.5,2.2c1,0.5,0.4,1.2-0.2,1.7c-1,0.8-2.1,1.6-3,2.3c0.3,0.6,0.6,1.1,1,1.8
		c-0.9,0.3-1.7,0.9-2.3,0.8c-0.9-0.2-1.2,0.2-1.6,0.7c-0.4,0.4-0.6,1-0.9,1.4c-0.2,0.4-0.5,0.7-0.7,1c-0.6,1-1,2.1-1.8,2.8
		c-0.7,0.8-1.2,1.4-1,2.5c0.1,0.6,0,1.2-0.1,1.9c-0.1,0-0.3,0-0.4,0c-0.2-0.6-0.4-1.2-0.6-2.1c-1.2,0.4-2.3,0.7-3.5,1.1
		c0,0.2,0,0.5,0,0.7c0.7,0.2,1.4,0.3,2,0.5c0.5,0.2,1,0.5,1.8,0.9c-0.8,0.3-1.2,0.5-1.4,0.6c-0.2,0.9-0.4,1.7-0.5,2.1
		c0.5,0.7,1,1.1,1.2,1.6c0.2,0.6,0.2,1.3,0.2,2c1.2,0.1,2.2,0.1,2.9-0.9c0.4-0.5,1.1-0.7,1.8-0.2c0.5,0.3,1.2,0.3,1.8,0.5
		c0.4,0.1,0.9,0.2,1.3,0.5c0.8,0.6,1.6,1.5,2.5,1.7c1.2,0.4,2,0.9,2.4,2.1c0.1,0.4,0.4,0.9,0.8,1.1c1.3,0.5,2.7,0.9,4.1,1.4
		c0.7,0.2,1.3,0.5,1.9,0.9c1.2,0.8,1.5,1.7,0.5,2.7c-1.1,1.3-1.4,2.7-1.5,4.2c0,0.2,0,0.4-0.1,0.7c-0.3,0.9-0.5,1.6-1.8,1.7
		c-0.9,0.1-2,0.5-1.9,2c0.1,1.2-1.8,3.3-3,3.6c0.2,1.2,0.1,1.4-1,1.6c-0.4,0.1-0.8,0.9-1,1.3c-0.4,0.8-0.9,1.6-0.2,2.5
		c0,0-0.1,0.2-0.2,0.3c-0.8,1-0.2,1.7,0.5,2.3c0.3,0.3,0.7,0.5,1.3,0.9c-1.8,0.5-2.6-0.5-3.2-1.3c-0.8-1.1-1.4-2.4-1.9-3.7
		c-0.3-0.8-0.2-1.8-0.3-2.7c-0.1-0.7-0.2-1.4-0.2-2.1c-0.1-1.3,0.1-2.6-0.1-3.9c-0.3-2.1,0.3-4.6-2.2-5.8c-0.2-0.1-0.3-0.4-0.4-0.7
		c-0.6-1.1-1.2-2.3-1.8-3.4c-0.1-0.3-0.2-0.6-0.2-0.9c-0.1-1.3,0.2-2.5,0.9-3.7c0.3-0.6,0-1.5-0.1-2.4c-1.2,1-1.8,0.2-2.2-0.5
		c-0.8-1.4-1.9-2.2-3.5-2.7c-1.1-0.3-2.2-1-1.8-2.6c0.1-0.4-0.2-0.8-0.4-1.5c-0.1,0.7-0.2,1-0.2,1.5c-0.3-0.3-0.4-0.5-0.6-0.7
		c-5.2,17.3,4,35.5,18.5,42.2c0.1-0.1,0.2-0.2,0.2-0.3c-0.4-0.3-0.9-0.6-1.4-0.9c0.5-0.3,0.9-0.5,1.3-0.8c0.3,0.4,0.5,0.8,0.7,1
		c0.2-0.5,0.3-1.2,0.7-1.5c0.4-0.3,1-0.2,1.4-0.2c-0.2,0.7-0.6,1.5-0.4,1.6c2.2,1.7,3.9,4.4,7.1,4.5c0.6,0,1.2,0.2,1.8,0.3
		c2.9,0.3,5.8,0.7,8.4-1.1c0.2-0.1,0.4-0.1,0.6-0.2c0.8-0.2,1.5-0.5,2.3-0.7c1.5-0.3,3-1,4.4-0.8c2,0.4,3.7,0.1,5.3-0.7
		c9.3-4.6,15.5-11.9,18.7-21.7c2.2-6.8,2.2-13.8,0.3-20.7c-0.3-1.1-0.3-1.1-1.5-1c1,1.7,0.8,2.5-0.7,3.5c-0.4,0.3-0.9,0.5-1.4,0.8
		c-0.7,0.5-1.3,1-1.9,1.5c0,0.1,0.1,0.1,0.1,0.2c0.7-0.1,1.5-0.3,2.3-0.4c-0.1,0.7-0.2,1.2-0.3,1.6c-0.7,2.1-1.6,4.1-3.1,5.8
		c-0.6,0.6-0.8,1.2-0.3,2c0.9,1.4,0.7,3.2-0.6,4.2c-0.7,0.6-1.2,1.2-1,2.2c0.1,0.3,0,0.8-0.1,1.1c-0.4,0.8-0.9,1.6-1.5,2.3
		c-1.3,1.9-2.7,3.6-5.3,3.7c-0.3,0-0.9-0.3-1-0.6c-0.7-1.9-1-4-1.9-5.8c-0.7-1.5-0.7-2.7-0.2-4.1c0.2-0.6,0.3-1.5,0-2.1
		c-0.9-1.9-2.4-3.5-1.8-5.8C1198.2,24.7,1198.1,24.5,1198.1,24.5z M1200.3,5.5c0.1-0.1,0.2-0.3,0.3-0.4c-0.7-0.6-1.3-1.3-2-1.8
		c-1.7-1.3-4.3-0.5-4.8,1.5c-0.2,1-0.8,1.2-1.5,1.5c-0.3,0.1-0.7,0.2-1,0.3c0.2,0.3,0.5,0.3,0.7,0.3c1.9-0.2,3.8-0.5,5.7-0.6
		c0.4,0,1.1,0.2,1.2,0.4c0.6,2.1,2.7,2.4,4.2,3.6c0.1-1.5,0.8-1.8,1.9-1.1c1.3,0.9,2.8,1.1,4.4,0.9c0-0.9,0-1.6,0-2.4
		c-2.2,0.1-4-0.4-4.3-3.1c-0.1,0.5,0,0.9-0.1,1.2c0,0.4-0.1,0.8-0.4,1c-0.2,0.1-0.8-0.1-0.9-0.3c-0.5-0.7-0.8-1.5-1.2-2.2
		c-0.2-0.4-0.5-0.7-0.8-1c-0.1,0.1-0.2,0.2-0.3,0.3c0.3,0.3,0.6,0.7,0.8,0.9c-0.8,0.7-1.4,1.4-2.2,2.2c-0.2-0.3-0.5-0.7-0.8-1.2
		C1199.6,5.6,1199.9,5.5,1200.3,5.5z M1198-3.8c0.9,1.8,2.4,0.7,3.3,1c0.6-0.6,0.1-2.1,1.7-1.4c0-0.1,0-0.2,0-0.4
		c-0.8-0.6-1.6-1.1-2.5-1.8c-0.3,0.5-0.6,0.9-0.6,1.2C1200-3.8,1199.3-3.5,1198-3.8z M1209.6,2.6c-0.9,0.6-1.6,0.6-2.3-0.2
		c-0.1-0.1-0.8,0-0.9,0.2c-0.2,0.4-0.4,0.9-0.3,1.3c0,0.2,0.7,0.3,1.1,0.4c0.4,0.1,0.9,0,1.3,0.1c0.9,0.2,1.8,0.5,2.7,0.8
		c0-0.2,0.1-0.3,0.1-0.5c-0.3-0.1-0.6-0.2-0.9-0.2c-0.9,0.1-1.2-0.2-1-1.1C1209.4,3.1,1209.5,2.9,1209.6,2.6z M1209.8,12.6
		c-0.2,0.1-0.3,0.2-0.5,0.2c1.3,2,1.4,4.7,3.2,6.5c0.1-0.1,0.2-0.1,0.3-0.2C1211.8,17,1210.8,14.8,1209.8,12.6z M1152.2,17.8
		c0.1,0.1,0.2,0.1,0.3,0.2c0.4-0.6,0.9-1.1,1.4-1.9c-1.1-0.1-1.4-0.4-0.4-1.4c-0.9,0.3-1.3,0.4-1.6,0.5
		C1152,16.3,1152.1,17,1152.2,17.8z M1212,3.5c0.3,1.3,0.5,2.2,0.7,3c0.2,0.8,0.7,1.2,2,1.1C1213.7,6.1,1213,4.9,1212,3.5z
		 M1160.4-2.5c-1.8,1.2-2.1,1.9-1.4,3.1C1159.5-0.5,1160-1.5,1160.4-2.5z"/>
	<path id="XMLID_16009_" d="M1215.3,32.3c0,0.3,0.3,1,0.1,1.4c-0.6,2-1.3,4-2.1,6c-0.1,0.3-0.5,0.6-0.8,0.9
		c-0.7,0.5-1.1,0.4-1.2-0.5c0-0.1,0-0.3,0-0.4c0.3-1.4,0.5-2.8,0.9-4.2c0.1-0.4,0.5-0.7,0.9-1.1
		C1213.8,33.7,1214.4,33.1,1215.3,32.3z"/>
</g>
<g id="XMLID_16000_">
	<path id="XMLID_16001_" d="M1230.2,18.4c-0.3-0.7-0.6-1.4-0.9-2.1c0-0.1-0.1-0.2-0.2-0.2c-1.2-1.1-1.6-2.6-1.6-4.2
		c0-0.2,0.1-0.5,0.2-0.7c0.2-0.3,0.2-0.6,0.2-0.9c-0.2-2.2,0.5-4.2,2-5.9c0.3-0.3,0.2-0.5,0-0.8c-0.4-0.3-0.8-0.6-1.2-0.9
		c0.6-0.4,1.6-0.2,2.5,0.5c1-0.7,2.1-1.2,3.4-1.4c3-0.3,5.8,0.1,7.9,2.6c1.5,1.7,2.1,3.8,1.9,6c0,0.2,0,0.4,0.1,0.5
		c0.4,0.6,0.4,1.3,0.3,2c-0.2,1.2-0.6,2.3-1.6,3c-0.1,0.1-0.1,0.1-0.1,0.2c-0.3,0.7-0.6,1.4-0.9,2.1c0.3,0.2,0.6,0.4,0.9,0.5
		c1.7,1,3.3,2.2,4.6,3.9c0.9,1.3,1.5,2.7,1.3,4.3c0,0,0,0,0,0c-0.1,0.9-0.1,0.9-0.9,1.1c-2.6,0.7-5.3,1.1-8,1.4
		c-2.6,0.2-5.2,0.3-7.8,0.1c-2.7-0.2-5.4-0.6-8-1.5c-0.7-0.2-0.7-0.2-0.8-1c-0.2-1.6,0.3-3.1,1.3-4.4c1.4-1.8,3.2-3.1,5.2-4.3
		C1230,18.5,1230,18.5,1230.2,18.4C1230.2,18.4,1230.2,18.4,1230.2,18.4z M1231,19.4c-0.3,0.2-0.6,0.3-0.9,0.5
		c-1.7,1-3.2,2.1-4.4,3.7c-0.7,0.9-1.1,1.9-1.1,3c0,0.3,0.1,0.4,0.4,0.5c3.1,0.9,6.2,1.3,9.4,1.4c3,0.1,6.1-0.1,9.1-0.6
		c1.4-0.2,2.8-0.5,4.1-0.8c0.2-0.8,0-1.8-0.5-2.6c-0.8-1.5-2.1-2.6-3.4-3.6c-0.8-0.5-1.6-1.1-2.4-1.6
		C1238.2,22.5,1234.3,22.5,1231,19.4z M1239.5,12.6c-0.2,0-0.3-0.1-0.4-0.1c-2.3-0.6-4.2-1.8-6-3.3c-0.5-0.5-0.7-0.5-1.3-0.1
		c-0.2,0.2-0.4,0.3-0.6,0.5c-0.5,0.5-0.7,1.2-0.8,1.9c-0.1,0.9-0.2,1.8-0.3,2.7c-0.3-0.7-0.3-1.7-1.2-2.1c0,0.9,0.2,1.8,0.7,2.5
		c0.2,0.2,0.4,0.4,0.7,0.5c0.1,0.1,0.2,0.2,0.2,0.3c0.4,1.6,1.2,2.8,2.4,3.8c1.1,0.9,2.5,1.5,4,1.1c2.5-0.6,4.1-2.3,4.7-4.7
		c0.1-0.3,0.1-0.5,0.4-0.5c0.2-0.1,0.4-0.3,0.5-0.4c0.4-0.5,0.6-1.2,0.7-1.9c0-0.3,0-0.5,0-0.8c0-0.1-0.2-0.3-0.3-0.3
		c-0.1,0-0.2,0.1-0.3,0.2c-0.1,0.1-0.2,0.3-0.2,0.4c-0.1,0.3-0.4,0.3-0.6,0.2c-0.5-0.3-1.1-0.5-1.6-0.9c-0.7-0.5-1.3-1.1-2-1.7
		c0.2,0.5,0.4,0.9,0.7,1.3C1239.1,11.7,1239.3,12.1,1239.5,12.6z"/>
</g>
<g id="XMLID_15990_">
	<path id="XMLID_15994_" d="M1124.4,8.6c-0.3-0.7-0.6-1.4-0.9-2.1c0-0.1-0.1-0.2-0.2-0.2c-1.2-1.1-1.6-2.6-1.6-4.2
		c0-0.2,0.1-0.5,0.2-0.7c0.2-0.3,0.2-0.6,0.2-0.9c-0.2-2.2,0.5-4.2,2-5.9c0.3-0.3,0.2-0.5,0-0.8c-0.4-0.3-0.8-0.6-1.2-0.9
		c0.6-0.4,1.6-0.2,2.5,0.5c1-0.7,2.1-1.2,3.4-1.4c3-0.3,5.8,0.1,7.9,2.6c1.5,1.7,2.1,3.8,1.9,6c0,0.2,0,0.4,0.1,0.5
		c0.4,0.6,0.4,1.3,0.3,2c-0.2,1.2-0.6,2.3-1.6,3c-0.1,0.1-0.1,0.1-0.1,0.2c-0.3,0.7-0.6,1.4-0.9,2.1c0.3,0.2,0.6,0.4,0.9,0.5
		c1.7,1,3.3,2.2,4.6,3.9c0.9,1.3,1.5,2.7,1.3,4.3c0,0,0,0,0,0c-0.1,0.9-0.1,0.9-0.9,1.1c-2.6,0.7-5.3,1.1-8,1.4
		c-2.6,0.2-5.2,0.3-7.8,0.1c-2.7-0.2-5.4-0.6-8-1.5c-0.7-0.2-0.7-0.2-0.8-1c-0.2-1.6,0.3-3.1,1.3-4.4c1.4-1.8,3.2-3.1,5.2-4.3
		C1124.2,8.7,1124.3,8.7,1124.4,8.6C1124.4,8.6,1124.4,8.6,1124.4,8.6z M1125.3,9.6c-0.3,0.2-0.6,0.3-0.9,0.5
		c-1.7,1-3.2,2.1-4.4,3.7c-0.7,0.9-1.1,1.9-1.1,3c0,0.3,0.1,0.4,0.4,0.5c3.1,0.9,6.2,1.3,9.4,1.4c3,0.1,6.1-0.1,9.1-0.6
		c1.4-0.2,2.8-0.5,4.1-0.8c0.2-0.8,0-1.8-0.5-2.6c-0.8-1.5-2.1-2.6-3.4-3.6c-0.8-0.5-1.6-1.1-2.4-1.6
		C1132.4,12.7,1128.5,12.7,1125.3,9.6z M1133.8,2.8c-0.2,0-0.3-0.1-0.4-0.1c-2.3-0.6-4.2-1.8-6-3.3c-0.5-0.5-0.7-0.5-1.3-0.1
		c-0.2,0.2-0.4,0.3-0.6,0.5c-0.5,0.5-0.7,1.2-0.8,1.9c-0.1,0.9-0.2,1.8-0.3,2.7c-0.3-0.7-0.3-1.7-1.2-2.1c0,0.9,0.2,1.8,0.7,2.5
		c0.2,0.2,0.4,0.4,0.7,0.5c0.1,0.1,0.2,0.2,0.2,0.3c0.4,1.6,1.2,2.8,2.4,3.8c1.1,0.9,2.5,1.5,4,1.1c2.5-0.6,4.1-2.3,4.7-4.7
		c0.1-0.3,0.1-0.5,0.4-0.5c0.2-0.1,0.4-0.3,0.5-0.4c0.4-0.5,0.6-1.2,0.7-1.9c0-0.3,0-0.5,0-0.8c0-0.1-0.2-0.3-0.3-0.3
		c-0.1,0-0.2,0.1-0.3,0.2c-0.1,0.1-0.2,0.3-0.2,0.4c-0.1,0.3-0.4,0.3-0.6,0.2c-0.5-0.3-1.1-0.5-1.6-0.9c-0.7-0.5-1.3-1.1-2-1.7
		c0.2,0.5,0.4,0.9,0.7,1.3C1133.3,1.9,1133.5,2.3,1133.8,2.8z"/>
</g>
<g id="XMLID_15981_">
	<path id="XMLID_15983_" class="st0" d="M1243.5-0.7c-0.6-0.1-1.3-0.2-1.9-0.3c-1.7-0.4-2.9-1.8-3.2-3.4c-0.3-1.6-0.3-3.2-0.1-4.8
		c0.1-0.9,0.4-1.8,1-2.5c0.6-0.8,1.5-1.2,2.4-1.4c2.1-0.4,4.2-0.5,6.4-0.4c1.5,0,2.9,0.2,4.4,0.5c1.7,0.4,2.7,1.4,3.1,3
		c0.4,1.3,0.4,2.6,0.3,4c-0.1,0.8-0.1,1.6-0.4,2.3c-0.5,1.6-1.6,2.6-3.3,2.9c-1.3,0.2-2.7,0.4-4,0.4c-0.4,0-0.7,0.1-1.1,0.4
		c-1,0.8-2.1,1.6-3.4,2c-0.4,0.1-0.9,0.2-1.4,0.3c-0.1,0-0.3-0.1-0.4-0.1c0.1-0.1,0.1-0.3,0.2-0.4c0.3-0.3,0.6-0.6,0.8-1
		C1243.4,0.1,1243.5-0.3,1243.5-0.7z"/>
</g>
<g id="XMLID_15978_">
	<path id="XMLID_15980_" class="st0" d="M1126.4-12.9c0.6-0.1,1.3-0.2,1.9-0.3c1.7-0.4,2.9-1.8,3.2-3.4c0.3-1.6,0.3-3.2,0.1-4.8
		c-0.1-0.9-0.4-1.8-1-2.5c-0.6-0.8-1.5-1.2-2.4-1.4c-2.1-0.4-4.2-0.5-6.4-0.4c-1.5,0-2.9,0.2-4.4,0.5c-1.7,0.4-2.7,1.4-3.1,3
		c-0.4,1.3-0.4,2.6-0.3,4c0.1,0.8,0.1,1.6,0.4,2.3c0.5,1.6,1.6,2.6,3.3,2.9c1.3,0.2,2.7,0.4,4,0.4c0.4,0,0.7,0.1,1.1,0.4
		c1,0.8,2.1,1.6,3.4,2c0.4,0.1,0.9,0.2,1.4,0.3c0.1,0,0.3-0.1,0.4-0.1c-0.1-0.1-0.1-0.3-0.2-0.4c-0.3-0.3-0.6-0.6-0.8-1
		C1126.5-12,1126.3-12.5,1126.4-12.9z"/>
</g>
</svg>
