<?xml version="1.0" encoding="utf-8"?>
<!-- Generator: Adobe Illustrator 19.1.0, SVG Export Plug-In . SVG Version: 6.00 Build 0)  -->
<svg version="1.1" id="Layer_1" xmlns="http://www.w3.org/2000/svg" xmlns:xlink="http://www.w3.org/1999/xlink" x="0px" y="0px"
	 viewBox="0 0 113 113" style="enable-background:new 0 0 113 113;" xml:space="preserve">
<style type="text/css">
	.st0{fill:#364D5C;}
	.st1{fill:#0D2038;}
	.st2{opacity:0.5;fill:#231F20;}
	.st3{fill:#0E2037;}
	.st4{fill:#FFFFFF;}
	.st5{opacity:0.8;fill:#D1CCE8;}
	.st6{fill:#C9C9C9;}
	.st7{fill:#62C5BB;}
	.st8{fill:#20201F;}
	.st9{fill:#EE6336;}
	.st10{fill:#98D3BB;}
	.st11{fill:#A4BC39;}
	.st12{fill:#F5825E;}
</style>
<g>
	<rect x="42.2" y="88.4" class="st0" width="28.7" height="14.3"/>
	<path class="st1" d="M83.1,104.4L83.1,104.4c0-2-1.5-3.5-3.4-3.5H33.5c-1.9,0-3.4,1.5-3.4,3.4v0.1H83.1z"/>
	<polygon class="st2" points="70.8,97.6 42.2,88.7 70.8,88.7 	"/>
	<path class="st0" d="M103.1,10.6c2.1,0,3.8,1.7,3.8,3.8v70.5c0,2.1-1.7,3.8-3.8,3.8H9.8C7.7,88.7,6,87,6,84.9V14.4
		c0-2.1,1.7-3.8,3.8-3.8H103.1z"/>
	<path class="st3" d="M107,83.1C107,83.1,107,83,107,83.1l0-70.5c0-2.1-1.7-3.8-3.8-3.8H9.8C7.7,8.7,6,10.4,6,12.5V83c0,0,0,0,0,0.1
		H107z"/>
	<rect x="7.7" y="14" class="st4" width="96.9" height="67.6"/>
	<rect x="7.7" y="14" class="st5" width="96.9" height="5.3"/>
	<g>
		<rect x="13.9" y="31.9" class="st6" width="4.1" height="3.7"/>
		<rect x="13.9" y="24.2" class="st6" width="4.1" height="3.7"/>
		<rect x="13.9" y="73.4" class="st6" width="4.1" height="3.7"/>
	</g>
	<rect x="82.7" y="40.1" class="st7" width="10.8" height="3.7"/>
	<rect x="25.6" y="40.1" class="st8" width="14.3" height="3.7"/>
	<rect x="42.2" y="40.1" class="st9" width="38.5" height="3.7"/>
	<rect x="13.9" y="40.1" class="st6" width="4.1" height="3.7"/>
	<rect x="13.9" y="64.6" class="st6" width="4.1" height="3.7"/>
	<rect x="25.6" y="58.1" class="st10" width="22.5" height="3.7"/>
	<rect x="50.3" y="58.1" class="st11" width="22.5" height="3.7"/>
	<rect x="75.2" y="58.1" class="st7" width="11.8" height="3.7"/>
	<rect x="13.9" y="56.4" class="st6" width="4.1" height="3.7"/>
	<rect x="25.6" y="49.1" class="st9" width="10.8" height="3.7"/>
	<rect x="64.3" y="49.1" class="st12" width="17.4" height="3.7"/>
	<rect x="39.1" y="49.1" class="st10" width="22.5" height="3.7"/>
	<rect x="13.9" y="48.3" class="st6" width="4.1" height="3.7"/>
	<rect x="20.1" y="19.3" class="st6" width="1.4" height="62.3"/>
	<g>
		<g>
			<polygon class="st8" points="33.8,69.2 31.6,67 27.8,70.8 27.8,70.8 25.6,73 25.6,73 25.6,73 27.8,75.2 27.8,75.2 31.6,79.1 
				33.8,76.9 30,73 			"/>
			<polygon class="st8" points="54,73 54,73 54,73 51.8,70.8 51.8,70.8 48,67 45.8,69.2 49.6,73 45.8,76.9 48,79.1 51.8,75.2 
				51.8,75.2 			"/>
			
				<rect x="38.3" y="67.3" transform="matrix(-0.8526 -0.5225 0.5225 -0.8526 35.5667 156.0538)" class="st8" width="2.9" height="11.5"/>
		</g>
	</g>
	<g>
		<g>
			<polygon class="st8" points="33.9,26.4 31.7,24.2 27.9,28 27.9,28 25.7,30.2 25.7,30.2 25.7,30.2 27.9,32.4 27.9,32.4 31.7,36.2 
				33.9,34.1 30.1,30.2 			"/>
			<polygon class="st8" points="56.4,30.2 56.4,30.2 56.4,30.2 54.2,28 54.2,28 50.4,24.2 48.2,26.4 52,30.2 48.2,34.1 50.4,36.2 
				54.2,32.4 54.2,32.4 			"/>
			<rect x="35.3" y="28.6" class="st8" width="11.4" height="3.4"/>
		</g>
	</g>
</g>
</svg>
