<?xml version="1.0" encoding="utf-8"?>
<!-- Generator: Adobe Illustrator 19.1.0, SVG Export Plug-In . SVG Version: 6.00 Build 0)  -->
<svg version="1.1" id="Layer_1" xmlns="http://www.w3.org/2000/svg" xmlns:xlink="http://www.w3.org/1999/xlink" x="0px" y="0px"
	 viewBox="0 0 250 250" style="enable-background:new 0 0 250 250;" xml:space="preserve">
<style type="text/css">
	.st0{fill:#FFFFFF;}
	.st1{fill:#CBEFFB;}
	.st2{fill:#576177;}
	.st3{fill:#FCE43A;}
	.st4{fill:#FFEB99;}
	.st5{fill:#E8E1CF;}
	.st6{fill:#E2D9C3;}
	.st7{fill:#F7F1DA;}
	.st8{fill:#EFE8D5;}
	.st9{fill:#3D495B;}
	.st10{fill:#FF936D;}
	.st11{fill:#FF8B6C;}
	.st12{fill:#F48967;}
	.st13{fill:#BEE4ED;}
	.st14{fill:#707F99;}
	.st15{fill:#DEF6FC;}
	.st16{fill:#E5E5E5;}
	.st17{fill:#263547;}
	.st18{fill:#9BACBC;}
	.st19{fill:#FDFFFE;}
	.st20{fill:#52DDB5;}
	.st21{fill:#2D4859;}
	.st22{fill:#849EBC;}
	.st23{fill:#564640;}
	.st24{fill:#6AC2CE;}
	.st25{fill:#E2B150;}
	.st26{fill:#ADADAD;}
	.st27{fill:#606060;}
	.st28{fill:#A64A42;}
	.st29{fill:#2D2D2D;}
	.st30{fill:#EFEFEF;}
	.st31{fill:#0F3758;}
	.st32{fill:#7BBABE;}
	.st33{fill:#76BBC1;}
	.st34{fill:#0E3757;}
	.st35{fill:#EC574F;}
	.st36{fill:#F6AA1E;}
	.st37{opacity:0.75;fill:#7BBABE;}
	.st38{opacity:0.75;fill:#EC574F;}
	.st39{opacity:0.75;fill:#F6AA1E;}
	.st40{fill:url(#SVGID_1_);}
	.st41{fill:url(#SVGID_2_);}
	.st42{fill:#25A6DE;}
	.st43{fill:url(#SVGID_3_);}
	.st44{fill:#0984C6;}
	.st45{fill:url(#SVGID_4_);}
	.st46{fill:#44535D;}
	.st47{fill:url(#SVGID_5_);}
	.st48{fill:url(#SVGID_6_);}
	.st49{fill:url(#SVGID_7_);}
	.st50{fill:url(#SVGID_8_);}
	.st51{fill:url(#SVGID_9_);}
	.st52{fill:url(#SVGID_10_);}
	.st53{fill:url(#SVGID_11_);}
	.st54{fill:url(#SVGID_12_);}
	.st55{fill:url(#SVGID_13_);}
	.st56{fill:#D1D1D1;}
	.st57{fill:#364D5C;}
	.st58{fill:#EF7154;}
</style>
<g>
	<g>
		<ellipse class="st0" cx="-307.3" cy="-139.5" rx="13.2" ry="14.1"/>
		<ellipse class="st0" cx="-265.6" cy="-139.5" rx="13.2" ry="14.1"/>
		<ellipse class="st0" cx="-249.3" cy="-135.7" rx="9.6" ry="10.2"/>
		<ellipse class="st0" cx="-319.5" cy="-135.7" rx="9.6" ry="10.2"/>
		<ellipse class="st0" cx="-286.6" cy="-147.5" rx="20.7" ry="22"/>
	</g>
	<g>
		<ellipse class="st0" cx="-159.7" cy="-135.2" rx="15.2" ry="16.2"/>
		<ellipse class="st0" cx="-111.8" cy="-126.4" rx="15.2" ry="16.2"/>
		<ellipse class="st0" cx="-93.1" cy="-126.4" rx="11" ry="11.7"/>
		<ellipse class="st0" cx="-173.7" cy="-132.1" rx="11" ry="11.7"/>
		<ellipse class="st0" cx="-136" cy="-135.2" rx="23.7" ry="25.3"/>
	</g>
	<g>
		<g>
			<path class="st1" d="M-98.5-91.5c0,59.9-48.5,105.6-108.4,105.6c-59.9,0-108.4-45.8-108.4-105.6c0-59.9,48.5-108.4,108.4-108.4
				C-147-199.9-98.5-151.4-98.5-91.5z"/>
			<g>
				<path class="st0" d="M-266-39.2c0.1,0,0.1,0,0.2-0.1c0,0,0,0,0,0C-265.9-39.3-266-39.2-266-39.2z"/>
				<path class="st0" d="M-89.5-81.1c0-6.5-5.5-11.7-12.4-11.7c-5.3,0-9.7,3.1-11.5,7.4c-0.5,0-1.1-0.1-1.6-0.1
					c-11.1,0-20.2,9.2-20.2,20.5c0,3.7,1,7.2,2.7,10.2c4.7-1.4,9.1-0.6,11.4,2.4c0.3,0.4,0.5,0.8,0.7,1.2c-0.2,0.1-0.4,0.1-0.6,0.2
					c-2.3-2.4-6.3-3-10.4-1.9c0,0,0,0,0,0c-2.4,0.6-4.8,1.8-7.1,3.5c-4,3.1-6.5,7.1-7,10.8c-0.1,0.9-0.2,1.8,0,2.7
					c0.2,1.3,0.6,2.6,1.4,3.6c0.4,0.5,0.8,0.9,1.3,1.3c-0.1,0-0.1,0-0.2,0.1c-1.1-0.5-2-1.2-2.7-2.2c-0.7-1-1.2-2.1-1.4-3.3
					c-3.3-1-7-1.4-10.9-1c-9.7,1-18.1,6.3-22.4,13.3c-10-12-14.8-50.1-14.8-50.1h-23.3c0,0-4.9,38.5-15,50.3
					c-0.8,0.1-1.7,0.2-2.5,0.4c-1.4-5.2-4.8-10-10-13.3c-6.3-4-13.8-4.7-19.8-2.4c0.3,2.3-0.1,4.5-1.4,6.2c-0.7,0.9-1.6,1.6-2.7,2.2
					c-0.1,0-0.1,0-0.2-0.1c0.5-0.4,0.9-0.8,1.3-1.3c1.3-1.7,1.8-4,1.4-6.3c0,0,0,0,0,0c0,0,0,0,0,0c-0.6-3.7-3-7.8-7-10.8
					c-2.3-1.7-4.7-2.9-7.1-3.5c0,0,0,0,0,0c-4.2-1.1-8.1-0.5-10.4,1.9c-0.2-0.1-0.4-0.1-0.6-0.2c0.2-0.4,0.4-0.8,0.7-1.2
					c2.3-3,6.7-3.8,11.4-2.4c1.7-3,2.7-6.5,2.7-10.2c0-11.3-9-20.5-20.2-20.5c-0.5,0-1.1,0-1.6,0.1c0,0,0,0,0,0c0,0,0,0,0,0
					c-1.8-4.3-6.3-7.4-11.5-7.4c-6.9,0-12.4,5.2-12.4,11.7c0,3.2,1.4,6.1,3.6,8.3l0,0c0.8,0.7,1.7,1.4,2.6,1.9
					c-0.6,1.9-0.9,3.9-0.9,6c0,7.7,4.1,14.3,10.3,17.9c-0.1,0.1-0.2,0.2-0.3,0.3c-5,6.3-3.4,15.9,3.5,21.4c3.9,3.1,8.7,4.3,13.1,3.7
					c0.5,6.7,7.1,14.9,17.1,20.5c5.7,3.2,11.6,4.9,16.7,5.3c-0.2,0.8-0.3,1.5-0.3,2.3c0,5.7,5.7,10.3,12.7,10.3
					c2.8,0,5.3-0.7,7.4-1.9c3,4.7,8.8,7.9,15.5,7.9c2,0,3.9-0.3,5.7-0.8c4.1-0.5,7.8-2.3,10.4-4.9c2.7,2.6,6.3,4.3,10.4,4.9
					c1.8,0.5,3.7,0.8,5.7,0.8c6.1,0,11.5-2.7,14.7-6.8v0c0.3-0.4,0.5-0.8,0.8-1.1c0.1-0.1,0.1-0.2,0.2-0.3c2,1.4,4.5,2.3,7.2,2.3
					c7,0,12.6-5.7,12.7-12.7c0.1,0,0.1,0,0.2,0c0.5,0,1.1-0.1,1.6-0.2c0,0,0,0,0,0c4.6-0.6,9.6-2.3,14.5-5
					c10-5.5,16.5-13.8,17.1-20.5c4.3,0.7,9.1-0.5,13.1-3.7c7-5.6,8.5-15.2,3.5-21.4c-0.1-0.1-0.2-0.2-0.3-0.3
					c6.1-3.5,10.3-10.2,10.3-17.9c0-2.1-0.3-4.1-0.9-6C-92-73-89.5-76.7-89.5-81.1z"/>
			</g>
			<path class="st2" d="M-181.4-91c7.6,2,12.4,10.4,14.7,15.6c1.1,2.4,2.5,2.4,3.3-0.1c11.3-35-2-49.8-8.5-54.7L-181.4-91z"/>
			<path class="st2" d="M-232.4-91c-7.6,2-12.4,10.4-14.7,15.6c-1.1,2.4-2.5,2.4-3.3-0.1c-11.2-35,2-49.8,8.5-54.7L-232.4-91z"/>
			<path class="st3" d="M-206.9-77c-7.2-0.2-12.5,6.3-12.9,11.6c-0.8,5.7,3.2,10.2,6.6,13.5c4.3,3.7,5.7,7.4,6.1,9.7h0.3
				c0.4-2.4,1.8-6,6.1-9.7c3.4-3.2,7.4-7.8,6.6-13.5C-194.4-70.7-199.7-77.2-206.9-77z"/>
			<path class="st4" d="M-206.9-76.3c-5.1-0.2-8.8,4.4-9.1,8.2c-0.6,4,2.3,7.2,4.7,9.5c3,2.6,4,5.2,4.3,6.8h0.2
				c0.3-1.7,1.2-4.2,4.3-6.8c2.4-2.3,5.2-5.5,4.7-9.5C-198.1-71.9-201.8-76.5-206.9-76.3z"/>
			<path class="st5" d="M-218.5-79.7v3.6c0,1.6,1.3,2.9,2.9,2.9h17.4c1.6,0,2.9-1.3,2.9-2.9v-3.6H-218.5z"/>
			<rect x="-218.5" y="-79.7" class="st6" width="23.2" height="2.2"/>
			<path class="st7" d="M-221.5-85v3.9c0,1.6,1.3,2.9,2.9,2.9h23.5c1.6,0,2.9-1.3,2.9-2.9V-85H-221.5z"/>
			<rect x="-221.5" y="-85" class="st8" width="29.2" height="3.4"/>
			<path class="st9" d="M-235.7-89.7c1-0.6,2.1-1.1,3.3-1.4l-9.4-39.1c-0.6,0.5-1.3,1-2,1.7C-243.4-114.5-240.1-101.3-235.7-89.7z"
				/>
			<path class="st10" d="M-203.8-219.4c-1.7-2.1-4.5-2.1-6.1,0c-8.7,10.9-32.9,44.7-32.9,84.7c0,17.7,4.7,34.1,10.7,47.9
				c1.1,2.4,4.1,4.4,6.8,4.4h37c2.6,0,5.7-1.9,6.8-4.4c6-13.8,10.7-30.2,10.7-47.9C-170.9-174.7-195.1-208.6-203.8-219.4z"/>
			<path class="st11" d="M-202.4-217.7c11.5,23.1,44.4,102.6-30.4,129.4c0.2,0.5,0.4,1,0.6,1.5c1.1,2.4,4.1,4.4,6.8,4.4h37
				c2.6,0,5.7-1.9,6.8-4.4c6-13.8,10.7-30.2,10.7-47.9C-170.9-172.8-192.8-205.3-202.4-217.7z"/>
			<path class="st9" d="M-169.9-128.5c-0.7-0.7-1.4-1.2-2-1.7l-9.4,39.1c1.2,0.3,2.3,0.8,3.3,1.4
				C-173.6-101.3-170.4-114.5-169.9-128.5z"/>
			<path class="st12" d="M-203.8-219.4c-0.1-0.1-0.2-0.2-0.3-0.3c15.9,21.5,45.1,89.6,5.3,137.3h10.5c2.6,0,5.7-1.9,6.8-4.4
				c6-13.8,10.7-30.2,10.7-47.9C-170.9-174.7-195.1-208.6-203.8-219.4z"/>
			<g>
				<g>
					<path class="st0" d="M-207-144.5c-8.8,0-15.9-7.1-15.9-15.9c0-8.8,7.1-15.9,15.9-15.9c8.8,0,15.9,7.1,15.9,15.9
						C-191.1-151.6-198.2-144.5-207-144.5z"/>
				</g>
			</g>
			<path class="st13" d="M-203.8-173.5c-1-0.2-2.1-0.4-3.1-0.4c-1,0-1.9,0.1-2.8,0.3c-6.1,1.3-10.6,6.7-10.6,13.2
				c0,6.6,4.8,12.2,11.2,13.3c0.4,0.1,0.7,0.1,1.1,0.1c0.4,0,0.8,0.1,1.2,0.1c7.4,0,13.5-6,13.5-13.5
				C-193.4-166.7-197.9-172.1-203.8-173.5z"/>
			<path class="st2" d="M-210.9-103.1c-0.3-16.3,1.5-29.6,4-29.6c2.5,0,4.3,13.3,4,29.6c-0.3,16.3-2.1,29.5-4,29.5
				C-208.8-73.6-210.6-86.8-210.9-103.1z"/>
			<path class="st14" d="M-209-116.3c-0.2-6.5,0.8-11.7,2.1-11.7c1.3,0,2.2,5.2,2.1,11.7c-0.2,6.5-1.1,11.7-2.1,11.7
				C-207.9-104.6-208.8-109.8-209-116.3z"/>
			<g>
				<path class="st15" d="M-211.2-164.6c-1.7,1.6-2.7,4.1-4.2,4.2c-1.5,0.3-3.1-4.3,0.4-8c3.5-3.6,8-2.3,7.7-0.8
					C-207.5-167.7-209.7-166.4-211.2-164.6z"/>
			</g>
		</g>
		<path class="st0" d="M-142.1-123.3c0.2-8.7-0.9-11.7-2.9-13.9c-2.2-2-5.2-3.1-13.9-2.9c8.7,0.2,11.7-0.9,13.9-2.9
			c2-2.2,3.1-5.2,2.9-13.9c-0.2,8.7,0.9,11.7,2.9,13.9c2.2,2,5.2,3.1,13.9,2.9c-8.7-0.2-11.7,0.9-13.9,2.9
			C-141.2-135.1-142.3-132-142.1-123.3z"/>
		<path class="st1" d="M-280-185.8c0.2-8.7-0.9-11.7-2.9-13.9c-2.2-2-5.2-3.1-13.9-2.9c8.7,0.2,11.7-0.9,13.9-2.9
			c2-2.2,3.1-5.2,2.9-13.9c-0.2,8.7,0.9,11.7,2.9,13.9c2.2,2,5.2,3.1,13.9,2.9c-8.7-0.2-11.7,0.9-13.9,2.9
			C-279.1-197.5-280.2-194.4-280-185.8z"/>
		<circle class="st0" cx="-280.7" cy="-116.3" r="5.6"/>
		<circle class="st0" cx="-154.8" cy="-64.1" r="5.6"/>
	</g>
</g>
<path class="st16" d="M-330.6,256.8c-5.4,0-9.8-4.4-9.8-9.9v-17.3V229h243.9v0.6v17.3c0,5.5-4.4,9.9-9.8,9.9H-330.6z"/>
<path class="st17" d="M-106.3,87.5h-224.3c-5.4,0-9.8,4.4-9.8,9.9V229h243.9V97.5C-96.5,92-100.9,87.5-106.3,87.5z"/>
<rect x="-331.9" y="95.6" class="st18" width="225.7" height="125.5"/>
<g>
	<path class="st0" d="M-245.4,257.8h56c0,21.5,9.7,22.1,9.7,22.1v5.6h-5.1h-67.1h-4.4v-5.6c0,0,11.3-1.2,11.3-22.1"/>
	<path class="st16" d="M-179.7,280v-0.1c0,0-9.7-0.7-9.7-22.1H-245c0,21-11.3,22.1-11.3,22.1v0.1H-179.7z"/>
</g>
<g>
	<rect x="-324.3" y="100.8" class="st19" width="142.5" height="114.8"/>
	<g>
		<path class="st20" d="M-281.7,145.3c-0.6,0.5-1.1,0.9-1.8,1.2l7.6,14c0,0,0,0,0,0c8.1-4.4,12.9-12,13.5-21.2l-15.9-1
			C-278.4,140.9-279.5,143.5-281.7,145.3z"/>
		<path class="st21" d="M-283.4,146.5c-4.1,2.2-9.2,1.3-12.3-2.3c0,0,0,0,0,0l-14.1,12c0,0,0,0,0,0c8.8,10.3,23.3,13,35.2,6.5
			L-283.4,146.5z"/>
		<path class="st22" d="M-313.7,138.8L-313.7,138.8c0.3,6,2.1,10.8,6.1,15.4l11.8-10.1c-1.5-1.8-2.3-3.9-2.4-6L-313.7,138.8z"/>
		<path class="st23" d="M-278.2,138.3l13.4,0.8l0,0c0.3-4.4-0.5-8.3-2.6-12.2c0,0,0,0,0,0l-11.9,6.2
			C-278.5,134.7-278.1,136.5-278.2,138.3z"/>
		<path class="st24" d="M-285.9,109C-285.9,109-285.9,109-285.9,109l-1.5,18.7c2.6,0.2,5.1,1.4,6.9,3.5c0.5,0.6,0.9,1.2,1.3,1.9
			l16.6-8.7C-267.4,115.3-275.7,109.8-285.9,109z"/>
		<path class="st25" d="M-320,139.1l21.9-0.9c-0.1-3,1.1-6,3.5-8c2.1-1.8,4.7-2.6,7.2-2.4l1.7-21.8c-1.3-0.1-2.6-0.1-3.9-0.1
			C-307.2,106.6-320.8,121.5-320,139.1z"/>
	</g>
	<rect x="-175.5" y="100.8" class="st25" width="59.9" height="114.8"/>
	<rect x="-248.4" y="109" class="st26" width="56.9" height="2.5"/>
	<rect x="-174" y="104.6" class="st27" width="56.9" height="2.5"/>
	<rect x="-174" y="115.8" class="st27" width="56.9" height="2.5"/>
	<rect x="-174" y="127" class="st27" width="56.9" height="2.5"/>
	<rect x="-174" y="138.2" class="st27" width="56.9" height="2.5"/>
	<rect x="-174" y="149.4" class="st27" width="56.9" height="2.4"/>
	<rect x="-174" y="160.6" class="st27" width="56.9" height="2.5"/>
	<rect x="-174" y="171.9" class="st27" width="56.9" height="2.5"/>
	<rect x="-248.4" y="118.6" class="st26" width="56.9" height="2.5"/>
	<rect x="-248.4" y="128.2" class="st26" width="56.9" height="2.5"/>
	<rect x="-248.4" y="137.8" class="st26" width="56.9" height="2.5"/>
	<rect x="-248.4" y="147.3" class="st26" width="56.9" height="2.4"/>
	<rect x="-248.4" y="156.9" class="st26" width="56.9" height="2.5"/>
	<rect x="-248.4" y="166.5" class="st26" width="56.9" height="2.5"/>
	<rect x="-248.4" y="176.1" class="st26" width="56.9" height="2.5"/>
	<rect x="-248.4" y="185.7" class="st26" width="56.9" height="2.5"/>
	<rect x="-248.4" y="195.3" class="st26" width="56.9" height="2.5"/>
	<rect x="-316.6" y="178.6" class="st25" width="54.3" height="28.7"/>
	<g>
		<rect x="-310.7" y="194.8" class="st28" width="3.7" height="7.7"/>
		<rect x="-305" y="191.2" class="st28" width="3.7" height="11.3"/>
		<rect x="-299.4" y="188" class="st28" width="3.7" height="14.5"/>
		<polygon class="st28" points="-297.5,182.7 -299.9,183.4 -299.3,184.3 -310.5,191.8 -310,192.5 -298.8,185.1 -298.2,185.9 
			-296.6,184 -295,182 		"/>
	</g>
	<rect x="-287.4" y="184.5" class="st29" width="19.7" height="2.5"/>
	<rect x="-287.4" y="191.7" class="st29" width="19.7" height="2.5"/>
	<rect x="-287.4" y="198.9" class="st29" width="19.7" height="2.5"/>
</g>
<g>
	<path class="st30" d="M579,43.9H376c-1.6,0-3-1.3-3-3v-169.3c0-1.6,1.4-3,3-3H579c1.7,0,3,1.4,3,3V40.9
		C582,42.5,580.6,43.9,579,43.9z"/>
	<path class="st31" d="M373-122.8c0-5.1-0.8-13.9,9.2-15.4h190.5c10.7,0.1,9.2,10.3,9.2,15.4"/>
	<rect x="388.5" y="-105.5" class="st32" width="32.5" height="32.5"/>
	<rect x="388.5" y="-55.5" class="st32" width="54.3" height="79.3"/>
	<rect x="452.5" y="-55.5" class="st31" width="104.3" height="8.7"/>
	<rect x="452.5" y="-39.2" class="st33" width="104.3" height="8.7"/>
	<rect x="452.5" y="-22.9" class="st33" width="104.3" height="8.7"/>
	<rect x="452.5" y="-6.6" class="st33" width="104.3" height="8.7"/>
	<rect x="452.5" y="9.7" class="st33" width="72.8" height="8.7"/>
	<rect x="436.6" y="-105.5" class="st34" width="32.5" height="32.5"/>
	<rect x="484.8" y="-105.5" class="st35" width="32.5" height="32.5"/>
	<rect x="533" y="-105.5" class="st36" width="32.5" height="32.5"/>
	<circle class="st37" cx="383.8" cy="-130.4" r="2.9"/>
	<circle class="st38" cx="394.7" cy="-130.4" r="2.9"/>
	<circle class="st39" cx="405.5" cy="-130.4" r="2.9"/>
	<g>
		<g>
			<g>
				
					<linearGradient id="SVGID_1_" gradientUnits="userSpaceOnUse" x1="-50.1773" y1="536.4006" x2="-27.8861" y2="536.4006" gradientTransform="matrix(0.7071 0.7071 -0.7071 0.7071 1017.6729 -419.9822)">
					<stop  offset="0" style="stop-color:#CF837A"/>
					<stop  offset="0.2242" style="stop-color:#F7AC9D"/>
					<stop  offset="0.8121" style="stop-color:#844D46"/>
					<stop  offset="0.8196" style="stop-color:#875048"/>
					<stop  offset="1" style="stop-color:#D08A7F"/>
				</linearGradient>
				<path class="st40" d="M619.6-61.4c2.1-2.1,2.5-5.1,0.9-6.6l-10-10c-1.6-1.6-4.6-1.2-6.6,0.9l-5.7,5.7l15.8,15.8L619.6-61.4z"/>
				
					<linearGradient id="SVGID_2_" gradientUnits="userSpaceOnUse" x1="523.0491" y1="-10.6462" x2="534.7199" y2="2.4842" gradientTransform="matrix(1.0087 2.640000e-002 2.640000e-002 1.0087 2.0226 -1.8641)">
					<stop  offset="0" style="stop-color:#E3CC94"/>
					<stop  offset="0.2788" style="stop-color:#F8E0AC"/>
					<stop  offset="0.8652" style="stop-color:#A2913F"/>
				</linearGradient>
				<path class="st41" d="M534.7-7.8l-10.2,20.6l5.3,5.3l20.6-10.3C551,7.8,534.6-8.4,534.7-7.8z"/>
				<path class="st42" d="M586-59.2l-2.2,2.2l-44.4,44.4l-2.5,2.5l-1.8,1.8c-0.1,0.2-0.3,0.3-0.4,0.5c0,0-0.8,1.3-2.1,4.3
					c-1.3,3,4.7-1.6,4.7-1.6l2.2-2.2l46.9-46.9l2.2-2.2L586-59.2z"/>
				<linearGradient id="SVGID_3_" gradientUnits="userSpaceOnUse" x1="565.3294" y1="-25.6069" x2="577.0464" y2="-13.3573">
					<stop  offset="0" style="stop-color:#00589A"/>
					<stop  offset="1" style="stop-color:#0374AF"/>
				</linearGradient>
				<path class="st43" d="M595.6-49.6l-2.2,2.2L546.5-0.5l-2.2,2.2c0,0-1.5,6.3,0.4,6.7c1.9,0.4,5.7-0.7,5.7-0.7
					c0.2-0.1,0.3-0.3,0.5-0.4l1.8-1.8l2.5-2.5l44.4-44.4l2.2-2.2L595.6-49.6z"/>
				<path class="st44" d="M588.6-56.5l-2.2,2.2L539.6-7.4l-2.2,2.2c0,0-1.3,5.4,0.2,6.5c1.5,1.2,6.8,0.4,6.8,0.4l2.2-2.2l46.9-46.9
					l2.2-2.2L588.6-56.5z"/>
				<path class="st0" d="M590.7-59.1l-0.3,0.3L537.7-6.4l-0.4,0.3l-0.2,0.2c0,0,0,0-0.1,0.1l0.4,0.4l0.3-0.3l53-52.7l0.3-0.3
					L590.7-59.1z"/>
				
					<linearGradient id="SVGID_4_" gradientUnits="userSpaceOnUse" x1="-50.1736" y1="761.4157" x2="-27.884" y2="761.4157" gradientTransform="matrix(0.7071 0.7071 -2.8128 2.8128 2769.3105 -2171.6233)">
					<stop  offset="5.617980e-003" style="stop-color:#B3D4E4"/>
					<stop  offset="6.034555e-002" style="stop-color:#C4DCE8"/>
					<stop  offset="0.1399" style="stop-color:#D6E5ED"/>
					<stop  offset="0.2244" style="stop-color:#E1EAEF"/>
					<stop  offset="0.3212" style="stop-color:#E4ECF0"/>
					<stop  offset="0.8424" style="stop-color:#4E7A8B"/>
				</linearGradient>
				<polygon class="st45" points="598.4,-71.7 585.9,-59.1 601.6,-43.4 614.2,-55.9 				"/>
				<polygon class="st0" points="599.6,-69.8 603.2,-66.2 591.2,-54.2 587.7,-57.8 				"/>
				<g>
					<polygon class="st46" points="588.9,-62.2 604.7,-46.4 606,-47.7 590.2,-63.5 					"/>
					<polygon class="st46" points="587.2,-60.5 603,-44.7 603.5,-45.2 587.7,-61 					"/>
				</g>
				<g>
					
						<linearGradient id="SVGID_5_" gradientUnits="userSpaceOnUse" x1="-59.4934" y1="105.3501" x2="-37.2031" y2="105.3501" gradientTransform="matrix(0.7231 0.7231 -0.2716 0.2716 661.4011 -48.8935)">
						<stop  offset="5.617980e-003" style="stop-color:#9AB8C7"/>
						<stop  offset="7.052061e-002" style="stop-color:#ABC4D1"/>
						<stop  offset="0.2175" style="stop-color:#CEDDE5"/>
						<stop  offset="0.297" style="stop-color:#DBE6EC"/>
						<stop  offset="0.6788" style="stop-color:#647881"/>
						<stop  offset="0.7639" style="stop-color:#657B85"/>
						<stop  offset="0.8506" style="stop-color:#688491"/>
						<stop  offset="0.9376" style="stop-color:#6C92A6"/>
						<stop  offset="1" style="stop-color:#71A0B9"/>
					</linearGradient>
					<polygon class="st47" points="589.1,-62.7 605.2,-46.5 606.5,-47.8 590.4,-63.9 					"/>
					
						<linearGradient id="SVGID_6_" gradientUnits="userSpaceOnUse" x1="-59.4846" y1="113.0735" x2="-37.2025" y2="113.0735" gradientTransform="matrix(0.7231 0.7231 -0.2716 0.2716 661.4011 -48.8935)">
						<stop  offset="5.617980e-003" style="stop-color:#9AB8C7"/>
						<stop  offset="7.052061e-002" style="stop-color:#ABC4D1"/>
						<stop  offset="0.2175" style="stop-color:#CEDDE5"/>
						<stop  offset="0.297" style="stop-color:#DBE6EC"/>
						<stop  offset="0.6788" style="stop-color:#647881"/>
						<stop  offset="0.7639" style="stop-color:#657B85"/>
						<stop  offset="0.8506" style="stop-color:#688491"/>
						<stop  offset="0.9376" style="stop-color:#6C92A6"/>
						<stop  offset="1" style="stop-color:#71A0B9"/>
					</linearGradient>
					<polygon class="st48" points="587.4,-60.9 603.5,-44.8 604,-45.3 587.9,-61.4 					"/>
				</g>
				<g>
					<polygon class="st46" points="595.4,-68.7 611.2,-52.9 612.4,-54.2 596.7,-69.9 					"/>
					<polygon class="st46" points="593.7,-67 609.5,-51.2 610,-51.7 594.2,-67.5 					"/>
				</g>
				<g>
					
						<linearGradient id="SVGID_7_" gradientUnits="userSpaceOnUse" x1="-59.4936" y1="81.4993" x2="-37.2025" y2="81.4993" gradientTransform="matrix(0.7231 0.7231 -0.2716 0.2716 661.4011 -48.8935)">
						<stop  offset="5.617980e-003" style="stop-color:#9AB8C7"/>
						<stop  offset="4.872734e-002" style="stop-color:#A9C3D0"/>
						<stop  offset="0.1587" style="stop-color:#CCDCE3"/>
						<stop  offset="0.2182" style="stop-color:#D9E5EB"/>
						<stop  offset="0.7273" style="stop-color:#6A808C"/>
						<stop  offset="0.8044" style="stop-color:#6B8391"/>
						<stop  offset="0.8948" style="stop-color:#6D8E9F"/>
						<stop  offset="0.9916" style="stop-color:#719EB7"/>
						<stop  offset="1" style="stop-color:#71A0B9"/>
					</linearGradient>
					<polygon class="st49" points="595.6,-69.1 611.7,-53 613,-54.3 596.9,-70.4 					"/>
					
						<linearGradient id="SVGID_8_" gradientUnits="userSpaceOnUse" x1="-59.4922" y1="89.2311" x2="-37.2025" y2="89.2311" gradientTransform="matrix(0.7231 0.7231 -0.2716 0.2716 661.4011 -48.8935)">
						<stop  offset="5.617980e-003" style="stop-color:#9AB8C7"/>
						<stop  offset="4.872734e-002" style="stop-color:#A9C3D0"/>
						<stop  offset="0.1587" style="stop-color:#CCDCE3"/>
						<stop  offset="0.2182" style="stop-color:#D9E5EB"/>
						<stop  offset="0.7273" style="stop-color:#6A808C"/>
						<stop  offset="0.8044" style="stop-color:#6B8391"/>
						<stop  offset="0.8948" style="stop-color:#6D8E9F"/>
						<stop  offset="0.9916" style="stop-color:#719EB7"/>
						<stop  offset="1" style="stop-color:#71A0B9"/>
					</linearGradient>
					<polygon class="st50" points="593.9,-67.4 610,-51.3 610.5,-51.8 594.4,-67.9 					"/>
				</g>
				<linearGradient id="SVGID_9_" gradientUnits="userSpaceOnUse" x1="600.0908" y1="-72.4525" x2="614.2269" y2="-72.4525">
					<stop  offset="0" style="stop-color:#FFFFFF"/>
					<stop  offset="1" style="stop-color:#F7AC9D"/>
				</linearGradient>
				<path class="st51" d="M603.9-67.5l4.6-4.6c1.8-1.8,4.3-2.1,5.7-0.8l-3.6-3.6c-1.4-1.4-3.9-1-5.7,0.8l-4.9,4.9l0,0l0.2-0.2
					L603.9-67.5z"/>
				
					<rect x="590.4" y="-61" transform="matrix(-0.7076 -0.7066 0.7066 -0.7076 1055.1996 316.3484)" class="st0" width="5.3" height="1.6"/>
				<polygon class="st0" points="588.9,-59.5 592.5,-55.9 592.9,-56.3 589.3,-59.9 				"/>
				
					<rect x="596.7" y="-67.4" transform="matrix(-0.7066 -0.7076 0.7076 -0.7066 1069.9474 310.4734)" class="st0" width="5.2" height="1.6"/>
				<polygon class="st0" points="599.1,-62.3 599.3,-62.5 599.4,-62.7 599.5,-62.8 595.8,-66.5 595.8,-66.5 595.7,-66.3 595.3,-66 
									"/>
				<linearGradient id="SVGID_10_" gradientUnits="userSpaceOnUse" x1="519.8802" y1="15.8964" x2="526.2629" y2="21.6142">
					<stop  offset="0" style="stop-color:#5F6062"/>
					<stop  offset="0.4909" style="stop-color:#808083"/>
					<stop  offset="0.5428" style="stop-color:#666567"/>
					<stop  offset="0.6052" style="stop-color:#4D4B4D"/>
					<stop  offset="0.6742" style="stop-color:#3A3838"/>
					<stop  offset="0.7519" style="stop-color:#2C2A2A"/>
					<stop  offset="0.8458" style="stop-color:#242122"/>
					<stop  offset="1" style="stop-color:#221F1F"/>
				</linearGradient>
				<path class="st52" d="M531.5,16.9c0.1-0.2-0.4-0.2-0.5-0.3c-0.1,0-0.3,0-0.4,0c-0.1,0-0.3-0.2-0.2-0.4c0-0.2-0.2,0-0.2,0
					s-0.2,0-0.3,0c-0.1,0-0.2,0-0.4-0.1l-0.3-0.2c0,0,0,0,0.1,0c0-0.1,0-0.1,0-0.2c0-0.1,0-0.3-0.2-0.4c-0.2-0.1-0.2,0-0.5,0.1
					c-0.4,0.1-0.2-0.2-0.2-0.2l-0.1,0c0,0-0.1,0-0.3,0l-0.4-0.2c0,0,0.1-0.1,0.1-0.1c0-0.1-0.2-0.1-0.4-0.1l-0.2-0.1
					c0-0.1,0.1-0.2,0.1-0.2l-0.2,0c0,0-0.1,0-0.2,0l-0.2-0.1c0-0.1,0.2-0.3,0.2-0.3l-0.3,0c0,0-0.3-0.1-0.3-0.2c0,0,0-0.2,0-0.2
					l-0.4-0.1c0,0,0-0.1,0-0.2c0-0.1,0-0.1,0-0.1l-0.2,0.1l-0.2,0l0-0.2l-0.1,0l-0.1-0.1l-0.1,0h-0.1l0-0.1l0-0.1l-0.2,0.1
					c0,0.1,0,0.1-0.1,0.2l-0.2-0.1l-5.9,11.1l-0.1,0.3l0.3,0l12.6-6.9l-0.4-0.2C531.2,17,531.4,16.9,531.5,16.9z"/>
				<g>
					<linearGradient id="SVGID_11_" gradientUnits="userSpaceOnUse" x1="525.7568" y1="3.9255" x2="539.4201" y2="19.1836">
						<stop  offset="0" style="stop-color:#E9D29B"/>
						<stop  offset="0.2788" style="stop-color:#F6E0B9"/>
						<stop  offset="0.8061" style="stop-color:#B9A55A"/>
					</linearGradient>
					<path class="st53" d="M526.5,10.3c0.4,0.8-0.9,1.5,0.7,2.1c1.7,0.6,0.7,0.8,4.2,0.7c3.5-0.1,5.6-1.5,5.9-0.9
						c0.3,0.6-0.3,2.3-0.3,2.3l0.9-0.5c0,0,1.9-2.9,0.5-3.1c-1.4-0.2-3.3,1.1-5.8,1.1c-2.5,0.1-5.7,0.5-5.5-0.8c0.1-1.3-0.2-2-0.2-2
						L526.5,10.3z"/>
					<linearGradient id="SVGID_12_" gradientUnits="userSpaceOnUse" x1="528.6542" y1="1.3246" x2="542.3206" y2="16.5862">
						<stop  offset="0" style="stop-color:#E9D29B"/>
						<stop  offset="0.2788" style="stop-color:#F6E0B9"/>
						<stop  offset="0.8061" style="stop-color:#B9A55A"/>
					</linearGradient>
					<path class="st54" d="M528.4,5.6l-0.7,1.2c0,0-0.3,5.5,2.9,3.9c3.2-1.7,9.6-3.5,9.8-1.9c0.3,1.6,0.2,3.3,0.2,3.3l-0.1,0.6
						l1.3-0.7c0,0,1.7-5.1-0.2-5.4c-1.9-0.3-6.4,0.7-8.4,1.9c-2,1.1-3.6,3.1-4.1,1.2C528.6,7.8,528.4,5.6,528.4,5.6z"/>
					<linearGradient id="SVGID_13_" gradientUnits="userSpaceOnUse" x1="531.7463" y1="-1.4267" x2="545.3974" y2="13.8177">
						<stop  offset="0" style="stop-color:#E9D29B"/>
						<stop  offset="0.2788" style="stop-color:#F6E0B9"/>
						<stop  offset="0.8061" style="stop-color:#B9A55A"/>
					</linearGradient>
					<path class="st55" d="M530,2.4L529,4.3l0.9,1.8c0,0,0.3,1.9,2.5,1c2.1-0.9,7-4.1,8.6-3.3c1.6,0.8,2.4,0.3,2.5-0.6
						c0.1-0.9,0.4-1.1,0.4-1.1s-1.2,2-2,0.7c-0.8-1.3-4.5,0.7-5.9,1.3c-1.4,0.6-4.6,4.5-5.3,1.4C530,2.4,530,2.4,530,2.4z"/>
				</g>
			</g>
		</g>
	</g>
</g>
<g>
	<g>
		<polygon class="st56" points="77.2,127.3 45.7,132.4 45.7,225.6 77.2,225.6 		"/>
	</g>
	<path class="st56" d="M46.5,129.3c0.1,3,0.4,5.1,0.8,5.1c0.5,0.1,0.8-1,0.8-2.2c0,0,0-1.2,0-2.9h10.3c0,1.8,0,2.9,0,2.9
		c0,1.2,0.3,2.2,0.7,2.2c0.4,0,0.7-1,0.7-2.2l0-2.9h10.9c0.1,3,0.4,5.2,1,5.1c0.4,0,0.7-2.2,0.8-5.1l10.7,0l0.1,11
		c0,4.4,3.5,7.9,7.9,7.9l8.5,0v9.8c0,4.1-3.3,7.3-7.3,7.3H76c0,0-14.8,0-27.7,0c-3.5,0-12.2-0.8-12.2-12.8c0,0,0-12.7,0-23.3
		L46.5,129.3z"/>
	<path class="st57" d="M168.9,143.2l-11.7,0l-12.6,7.4l-16.8-9.5l-0.2-19.3l16.7-9.8l13.5,7.6h11.2v-3.9l-27.3-15.8l-27.3,15.8
		l0,3.9l-82.6,0c-3.3-3.9-8.3-6.4-13.8-6.4c-10.1,0-18.2,8.2-18.2,18.2c0,10.1,8.2,18.2,18.2,18.2c5.5,0,10.5-2.5,13.8-6.4l82.6,0
		l0,3.9l27.3,15.8l27.3-15.8V143.2z M16.9,142.9l-10.1-5.7l-0.1-11.6l10-5.9l10.1,5.7l0.1,11.6L16.9,142.9z"/>
	<path class="st56" d="M99.8,136.9c0-4.4-2.8-7.9-6.3-7.9h-1.1c-3.5,0-6.3,3.5-6.3,7.9v15l13.7,0V136.9z"/>
	<g>
		<path class="st56" d="M72.8,125.3c0,3.2-0.1,5.5-0.1,5.6c0.4,3.7,2.6,6.6,5.3,6.6c2.6,0,4.7-2.6,5.3-6.2c0-0.1,0-0.3,0.1-0.4
			l-0.1-18.2l0-1.2c-0.4-3.7-2.7-6.6-5.3-6.6c-2.7,0-4.9,2.8-5.3,6.6C72.6,111.8,72.8,125.3,72.8,125.3z"/>
		<path class="st56" d="M60.1,130.9C60.1,130.9,60.1,130.9,60.1,130.9c0,4.4,2.5,7.9,5.5,7.9c2.6,0,4.8-2.5,5.4-6
			c0.1-0.6,0.2-1.3,0.2-1.9c0,0,0,0,0,0c0,0-0.1-2.4-0.2-5.7c-0.1-2.7-0.1-6.1-0.1-9.1c0.1-2.7,0.2-4.6,0.2-4.6c0,0,0,0,0,0
			c0-4.4-2.5-7.9-5.5-7.9c-3.1,0-5.5,3.5-5.5,7.9c0,0,0,0,0,0l0.1,13.4L60.1,130.9z"/>
		<path class="st56" d="M48.4,130.9c0.4,3.7,2.5,6.6,5.1,6.6c2.4,0,4.9-2.2,5-5.8c0-0.2,0.1-0.5,0.1-0.7c0-0.2,0-2.7,0-6
			c0-4-0.2-13.3-0.2-13.4c-0.4-3.7-2.5-6.6-5.1-6.6c-2.5,0-4.7,2.8-5.1,6.6C48.2,111.8,48.4,130.7,48.4,130.9z"/>
	</g>
	<path class="st56" d="M36.9,124.5c0,2.6-0.1,4.5-0.1,4.6c0.4,3,2.5,5.4,5,5.4c2.4,0,4.4-2.2,4.9-5c0-0.1,0-0.2,0.1-0.3l-0.1-14.9
		l0-0.9c-0.4-3-2.5-5.4-5-5.4c-2.5,0-4.6,2.3-5,5.4C36.7,113.5,36.9,124.5,36.9,124.5z"/>
	<path class="st58" d="M208.2,146.4h-21.7c-0.3-15.5-6.4-29.9-17.3-40.8c-10.9-10.9-25.3-17.1-40.7-17.4V66.6
		C172.3,67.2,207.7,102.7,208.2,146.4L208.2,146.4z"/>
	<path class="st58" d="M250.4,146.4h-21.6C228.2,91.3,183.6,46.6,128.6,46V24.4C195.5,25,249.8,79.4,250.4,146.4L250.4,146.4z"/>
	<polygon class="st58" points="157.8,140.4 144.7,147.9 130.2,140 130.2,122.9 144.3,115 157.8,122.2 	"/>
</g>
</svg>
