<?xml version="1.0" encoding="utf-8"?>
<!-- Generator: Adobe Illustrator 19.1.0, SVG Export Plug-In . SVG Version: 6.00 Build 0)  -->
<svg version="1.1" id="Layer_1" xmlns="http://www.w3.org/2000/svg" xmlns:xlink="http://www.w3.org/1999/xlink" x="0px" y="0px"
	 viewBox="0 0 250 250" style="enable-background:new 0 0 250 250;" xml:space="preserve">
<style type="text/css">
	.st0{fill:#FFFFFF;}
	.st1{fill:#CBEFFB;}
	.st2{fill:#576177;}
	.st3{fill:#FCE43A;}
	.st4{fill:#FFEB99;}
	.st5{fill:#E8E1CF;}
	.st6{fill:#E2D9C3;}
	.st7{fill:#F7F1DA;}
	.st8{fill:#EFE8D5;}
	.st9{fill:#3D495B;}
	.st10{fill:#FF936D;}
	.st11{fill:#FF8B6C;}
	.st12{fill:#F48967;}
	.st13{fill:#BEE4ED;}
	.st14{fill:#707F99;}
	.st15{fill:#DEF6FC;}
	.st16{fill:#E5E5E5;}
	.st17{fill:#263547;}
	.st18{fill:#9BACBC;}
	.st19{fill:#FDFFFE;}
	.st20{fill:#52DDB5;}
	.st21{fill:#2D4859;}
	.st22{fill:#849EBC;}
	.st23{fill:#564640;}
	.st24{fill:#6AC2CE;}
	.st25{fill:#E2B150;}
	.st26{fill:#ADADAD;}
	.st27{fill:#606060;}
	.st28{fill:#A64A42;}
	.st29{fill:#2D2D2D;}
	.st30{fill:#EFEFEF;}
	.st31{fill:#0F3758;}
	.st32{fill:#7BBABE;}
	.st33{fill:#76BBC1;}
	.st34{fill:#0E3757;}
	.st35{fill:#EC574F;}
	.st36{fill:#F6AA1E;}
	.st37{opacity:0.75;fill:#7BBABE;}
	.st38{opacity:0.75;fill:#EC574F;}
	.st39{opacity:0.75;fill:#F6AA1E;}
	.st40{fill:url(#SVGID_1_);}
	.st41{fill:url(#SVGID_2_);}
	.st42{fill:#25A6DE;}
	.st43{fill:url(#SVGID_3_);}
	.st44{fill:#0984C6;}
	.st45{fill:url(#SVGID_4_);}
	.st46{fill:#44535D;}
	.st47{fill:url(#SVGID_5_);}
	.st48{fill:url(#SVGID_6_);}
	.st49{fill:url(#SVGID_7_);}
	.st50{fill:url(#SVGID_8_);}
	.st51{fill:url(#SVGID_9_);}
	.st52{fill:url(#SVGID_10_);}
	.st53{fill:url(#SVGID_11_);}
	.st54{fill:url(#SVGID_12_);}
	.st55{fill:url(#SVGID_13_);}
</style>
<g>
	<g>
		<ellipse class="st0" cx="-307.3" cy="-139.5" rx="13.2" ry="14.1"/>
		<ellipse class="st0" cx="-265.6" cy="-139.5" rx="13.2" ry="14.1"/>
		<ellipse class="st0" cx="-249.3" cy="-135.7" rx="9.6" ry="10.2"/>
		<ellipse class="st0" cx="-319.5" cy="-135.7" rx="9.6" ry="10.2"/>
		<ellipse class="st0" cx="-286.6" cy="-147.5" rx="20.7" ry="22"/>
	</g>
	<g>
		<ellipse class="st0" cx="-159.7" cy="-135.2" rx="15.2" ry="16.2"/>
		<ellipse class="st0" cx="-111.8" cy="-126.4" rx="15.2" ry="16.2"/>
		<ellipse class="st0" cx="-93.1" cy="-126.4" rx="11" ry="11.7"/>
		<ellipse class="st0" cx="-173.7" cy="-132.1" rx="11" ry="11.7"/>
		<ellipse class="st0" cx="-136" cy="-135.2" rx="23.7" ry="25.3"/>
	</g>
	<g>
		<g>
			<path class="st1" d="M-98.5-91.5c0,59.9-48.5,105.6-108.4,105.6c-59.9,0-108.4-45.8-108.4-105.6c0-59.9,48.5-108.4,108.4-108.4
				C-147-199.9-98.5-151.4-98.5-91.5z"/>
			<g>
				<path class="st0" d="M-266-39.2c0.1,0,0.1,0,0.2-0.1c0,0,0,0,0,0C-265.9-39.3-266-39.2-266-39.2z"/>
				<path class="st0" d="M-89.5-81.1c0-6.5-5.5-11.7-12.4-11.7c-5.3,0-9.7,3.1-11.5,7.4c-0.5,0-1.1-0.1-1.6-0.1
					c-11.1,0-20.2,9.2-20.2,20.5c0,3.7,1,7.2,2.7,10.2c4.7-1.4,9.1-0.6,11.4,2.4c0.3,0.4,0.5,0.8,0.7,1.2c-0.2,0.1-0.4,0.1-0.6,0.2
					c-2.3-2.4-6.3-3-10.4-1.9c0,0,0,0,0,0c-2.4,0.6-4.8,1.8-7.1,3.5c-4,3.1-6.5,7.1-7,10.8c-0.1,0.9-0.2,1.8,0,2.7
					c0.2,1.3,0.6,2.6,1.4,3.6c0.4,0.5,0.8,0.9,1.3,1.3c-0.1,0-0.1,0-0.2,0.1c-1.1-0.5-2-1.2-2.7-2.2c-0.7-1-1.2-2.1-1.4-3.3
					c-3.3-1-7-1.4-10.9-1c-9.7,1-18.1,6.3-22.4,13.3c-10-12-14.8-50.1-14.8-50.1h-23.3c0,0-4.9,38.5-15,50.3
					c-0.8,0.1-1.7,0.2-2.5,0.4c-1.4-5.2-4.8-10-10-13.3c-6.3-4-13.8-4.7-19.8-2.4c0.3,2.3-0.1,4.5-1.4,6.2c-0.7,0.9-1.6,1.6-2.7,2.2
					c-0.1,0-0.1,0-0.2-0.1c0.5-0.4,0.9-0.8,1.3-1.3c1.3-1.7,1.8-4,1.4-6.3c0,0,0,0,0,0c0,0,0,0,0,0c-0.6-3.7-3-7.8-7-10.8
					c-2.3-1.7-4.7-2.9-7.1-3.5c0,0,0,0,0,0c-4.2-1.1-8.1-0.5-10.4,1.9c-0.2-0.1-0.4-0.1-0.6-0.2c0.2-0.4,0.4-0.8,0.7-1.2
					c2.3-3,6.7-3.8,11.4-2.4c1.7-3,2.7-6.5,2.7-10.2c0-11.3-9-20.5-20.2-20.5c-0.5,0-1.1,0-1.6,0.1c0,0,0,0,0,0c0,0,0,0,0,0
					c-1.8-4.3-6.3-7.4-11.5-7.4c-6.9,0-12.4,5.2-12.4,11.7c0,3.2,1.4,6.1,3.6,8.3l0,0c0.8,0.7,1.7,1.4,2.6,1.9
					c-0.6,1.9-0.9,3.9-0.9,6c0,7.7,4.1,14.3,10.3,17.9c-0.1,0.1-0.2,0.2-0.3,0.3c-5,6.3-3.4,15.9,3.5,21.4c3.9,3.1,8.7,4.3,13.1,3.7
					c0.5,6.7,7.1,14.9,17.1,20.5c5.7,3.2,11.6,4.9,16.7,5.3c-0.2,0.8-0.3,1.5-0.3,2.3c0,5.7,5.7,10.3,12.7,10.3
					c2.8,0,5.3-0.7,7.4-1.9c3,4.7,8.8,7.9,15.5,7.9c2,0,3.9-0.3,5.7-0.8c4.1-0.5,7.8-2.3,10.4-4.9c2.7,2.6,6.3,4.3,10.4,4.9
					c1.8,0.5,3.7,0.8,5.7,0.8c6.1,0,11.5-2.7,14.7-6.8v0c0.3-0.4,0.5-0.8,0.8-1.1c0.1-0.1,0.1-0.2,0.2-0.3c2,1.4,4.5,2.3,7.2,2.3
					c7,0,12.6-5.7,12.7-12.7c0.1,0,0.1,0,0.2,0c0.5,0,1.1-0.1,1.6-0.2c0,0,0,0,0,0c4.6-0.6,9.6-2.3,14.5-5
					c10-5.5,16.5-13.8,17.1-20.5c4.3,0.7,9.1-0.5,13.1-3.7c7-5.6,8.5-15.2,3.5-21.4c-0.1-0.1-0.2-0.2-0.3-0.3
					c6.1-3.5,10.3-10.2,10.3-17.9c0-2.1-0.3-4.1-0.9-6C-92-73-89.5-76.7-89.5-81.1z"/>
			</g>
			<path class="st2" d="M-181.4-91c7.6,2,12.4,10.4,14.7,15.6c1.1,2.4,2.5,2.4,3.3-0.1c11.3-35-2-49.8-8.5-54.7L-181.4-91z"/>
			<path class="st2" d="M-232.4-91c-7.6,2-12.4,10.4-14.7,15.6c-1.1,2.4-2.5,2.4-3.3-0.1c-11.2-35,2-49.8,8.5-54.7L-232.4-91z"/>
			<path class="st3" d="M-206.9-77c-7.2-0.2-12.5,6.3-12.9,11.6c-0.8,5.7,3.2,10.2,6.6,13.5c4.3,3.7,5.7,7.4,6.1,9.7h0.3
				c0.4-2.4,1.8-6,6.1-9.7c3.4-3.2,7.4-7.8,6.6-13.5C-194.4-70.7-199.7-77.2-206.9-77z"/>
			<path class="st4" d="M-206.9-76.3c-5.1-0.2-8.8,4.4-9.1,8.2c-0.6,4,2.3,7.2,4.7,9.5c3,2.6,4,5.2,4.3,6.8h0.2
				c0.3-1.7,1.2-4.2,4.3-6.8c2.4-2.3,5.2-5.5,4.7-9.5C-198.1-71.9-201.8-76.5-206.9-76.3z"/>
			<path class="st5" d="M-218.5-79.7v3.6c0,1.6,1.3,2.9,2.9,2.9h17.4c1.6,0,2.9-1.3,2.9-2.9v-3.6H-218.5z"/>
			<rect x="-218.5" y="-79.7" class="st6" width="23.2" height="2.2"/>
			<path class="st7" d="M-221.5-85v3.9c0,1.6,1.3,2.9,2.9,2.9h23.5c1.6,0,2.9-1.3,2.9-2.9V-85H-221.5z"/>
			<rect x="-221.5" y="-85" class="st8" width="29.2" height="3.4"/>
			<path class="st9" d="M-235.7-89.7c1-0.6,2.1-1.1,3.3-1.4l-9.4-39.1c-0.6,0.5-1.3,1-2,1.7C-243.4-114.5-240.1-101.3-235.7-89.7z"
				/>
			<path class="st10" d="M-203.8-219.4c-1.7-2.1-4.5-2.1-6.1,0c-8.7,10.9-32.9,44.7-32.9,84.7c0,17.7,4.7,34.1,10.7,47.9
				c1.1,2.4,4.1,4.4,6.8,4.4h37c2.6,0,5.7-1.9,6.8-4.4c6-13.8,10.7-30.2,10.7-47.9C-170.9-174.7-195.1-208.6-203.8-219.4z"/>
			<path class="st11" d="M-202.4-217.7c11.5,23.1,44.4,102.6-30.4,129.4c0.2,0.5,0.4,1,0.6,1.5c1.1,2.4,4.1,4.4,6.8,4.4h37
				c2.6,0,5.7-1.9,6.8-4.4c6-13.8,10.7-30.2,10.7-47.9C-170.9-172.8-192.8-205.3-202.4-217.7z"/>
			<path class="st9" d="M-169.9-128.5c-0.7-0.7-1.4-1.2-2-1.7l-9.4,39.1c1.2,0.3,2.3,0.8,3.3,1.4
				C-173.6-101.3-170.4-114.5-169.9-128.5z"/>
			<path class="st12" d="M-203.8-219.4c-0.1-0.1-0.2-0.2-0.3-0.3c15.9,21.5,45.1,89.6,5.3,137.3h10.5c2.6,0,5.7-1.9,6.8-4.4
				c6-13.8,10.7-30.2,10.7-47.9C-170.9-174.7-195.1-208.6-203.8-219.4z"/>
			<g>
				<g>
					<path class="st0" d="M-207-144.5c-8.8,0-15.9-7.1-15.9-15.9c0-8.8,7.1-15.9,15.9-15.9c8.8,0,15.9,7.1,15.9,15.9
						C-191.1-151.6-198.2-144.5-207-144.5z"/>
				</g>
			</g>
			<path class="st13" d="M-203.8-173.5c-1-0.2-2.1-0.4-3.1-0.4c-1,0-1.9,0.1-2.8,0.3c-6.1,1.3-10.6,6.7-10.6,13.2
				c0,6.6,4.8,12.2,11.2,13.3c0.4,0.1,0.7,0.1,1.1,0.1c0.4,0,0.8,0.1,1.2,0.1c7.4,0,13.5-6,13.5-13.5
				C-193.4-166.7-197.9-172.1-203.8-173.5z"/>
			<path class="st2" d="M-210.9-103.1c-0.3-16.3,1.5-29.6,4-29.6c2.5,0,4.3,13.3,4,29.6c-0.3,16.3-2.1,29.5-4,29.5
				C-208.8-73.6-210.6-86.8-210.9-103.1z"/>
			<path class="st14" d="M-209-116.3c-0.2-6.5,0.8-11.7,2.1-11.7c1.3,0,2.2,5.2,2.1,11.7c-0.2,6.5-1.1,11.7-2.1,11.7
				C-207.9-104.6-208.8-109.8-209-116.3z"/>
			<g>
				<path class="st15" d="M-211.2-164.6c-1.7,1.6-2.7,4.1-4.2,4.2c-1.5,0.3-3.1-4.3,0.4-8c3.5-3.6,8-2.3,7.7-0.8
					C-207.5-167.7-209.7-166.4-211.2-164.6z"/>
			</g>
		</g>
		<path class="st0" d="M-142.1-123.3c0.2-8.7-0.9-11.7-2.9-13.9c-2.2-2-5.2-3.1-13.9-2.9c8.7,0.2,11.7-0.9,13.9-2.9
			c2-2.2,3.1-5.2,2.9-13.9c-0.2,8.7,0.9,11.7,2.9,13.9c2.2,2,5.2,3.1,13.9,2.9c-8.7-0.2-11.7,0.9-13.9,2.9
			C-141.2-135.1-142.3-132-142.1-123.3z"/>
		<path class="st1" d="M-280-185.8c0.2-8.7-0.9-11.7-2.9-13.9c-2.2-2-5.2-3.1-13.9-2.9c8.7,0.2,11.7-0.9,13.9-2.9
			c2-2.2,3.1-5.2,2.9-13.9c-0.2,8.7,0.9,11.7,2.9,13.9c2.2,2,5.2,3.1,13.9,2.9c-8.7-0.2-11.7,0.9-13.9,2.9
			C-279.1-197.5-280.2-194.4-280-185.8z"/>
		<circle class="st0" cx="-280.7" cy="-116.3" r="5.6"/>
		<circle class="st0" cx="-154.8" cy="-64.1" r="5.6"/>
	</g>
</g>
<path class="st16" d="M-330.6,256.8c-5.4,0-9.8-4.4-9.8-9.9v-17.3V229h243.9v0.6v17.3c0,5.5-4.4,9.9-9.8,9.9H-330.6z"/>
<path class="st17" d="M-106.3,87.5h-224.3c-5.4,0-9.8,4.4-9.8,9.9V229h243.9V97.5C-96.5,92-100.9,87.5-106.3,87.5z"/>
<rect x="-331.9" y="95.6" class="st18" width="225.7" height="125.5"/>
<g>
	<path class="st0" d="M-245.4,257.8h56c0,21.5,9.7,22.1,9.7,22.1v5.6h-5.1h-67.1h-4.4v-5.6c0,0,11.3-1.2,11.3-22.1"/>
	<path class="st16" d="M-179.7,280v-0.1c0,0-9.7-0.7-9.7-22.1H-245c0,21-11.3,22.1-11.3,22.1v0.1H-179.7z"/>
</g>
<g>
	<rect x="-324.3" y="100.8" class="st19" width="142.5" height="114.8"/>
	<g>
		<path class="st20" d="M-281.7,145.3c-0.6,0.5-1.1,0.9-1.8,1.2l7.6,14c0,0,0,0,0,0c8.1-4.4,12.9-12,13.5-21.2l-15.9-1
			C-278.4,140.9-279.5,143.5-281.7,145.3z"/>
		<path class="st21" d="M-283.4,146.5c-4.1,2.2-9.2,1.3-12.3-2.3c0,0,0,0,0,0l-14.1,12c0,0,0,0,0,0c8.8,10.3,23.3,13,35.2,6.5
			L-283.4,146.5z"/>
		<path class="st22" d="M-313.7,138.8L-313.7,138.8c0.3,6,2.1,10.8,6.1,15.4l11.8-10.1c-1.5-1.8-2.3-3.9-2.4-6L-313.7,138.8z"/>
		<path class="st23" d="M-278.2,138.3l13.4,0.8l0,0c0.3-4.4-0.5-8.3-2.6-12.2c0,0,0,0,0,0l-11.9,6.2
			C-278.5,134.7-278.1,136.5-278.2,138.3z"/>
		<path class="st24" d="M-285.9,109C-285.9,109-285.9,109-285.9,109l-1.5,18.7c2.6,0.2,5.1,1.4,6.9,3.5c0.5,0.6,0.9,1.2,1.3,1.9
			l16.6-8.7C-267.4,115.3-275.7,109.8-285.9,109z"/>
		<path class="st25" d="M-320,139.1l21.9-0.9c-0.1-3,1.1-6,3.5-8c2.1-1.8,4.7-2.6,7.2-2.4l1.7-21.8c-1.3-0.1-2.6-0.1-3.9-0.1
			C-307.2,106.6-320.8,121.5-320,139.1z"/>
	</g>
	<rect x="-175.5" y="100.8" class="st25" width="59.9" height="114.8"/>
	<rect x="-248.4" y="109" class="st26" width="56.9" height="2.5"/>
	<rect x="-174" y="104.6" class="st27" width="56.9" height="2.5"/>
	<rect x="-174" y="115.8" class="st27" width="56.9" height="2.5"/>
	<rect x="-174" y="127" class="st27" width="56.9" height="2.5"/>
	<rect x="-174" y="138.2" class="st27" width="56.9" height="2.5"/>
	<rect x="-174" y="149.4" class="st27" width="56.9" height="2.4"/>
	<rect x="-174" y="160.6" class="st27" width="56.9" height="2.5"/>
	<rect x="-174" y="171.9" class="st27" width="56.9" height="2.5"/>
	<rect x="-248.4" y="118.6" class="st26" width="56.9" height="2.5"/>
	<rect x="-248.4" y="128.2" class="st26" width="56.9" height="2.5"/>
	<rect x="-248.4" y="137.8" class="st26" width="56.9" height="2.5"/>
	<rect x="-248.4" y="147.3" class="st26" width="56.9" height="2.4"/>
	<rect x="-248.4" y="156.9" class="st26" width="56.9" height="2.5"/>
	<rect x="-248.4" y="166.5" class="st26" width="56.9" height="2.5"/>
	<rect x="-248.4" y="176.1" class="st26" width="56.9" height="2.5"/>
	<rect x="-248.4" y="185.7" class="st26" width="56.9" height="2.5"/>
	<rect x="-248.4" y="195.3" class="st26" width="56.9" height="2.5"/>
	<rect x="-316.6" y="178.6" class="st25" width="54.3" height="28.7"/>
	<g>
		<rect x="-310.7" y="194.8" class="st28" width="3.7" height="7.7"/>
		<rect x="-305" y="191.2" class="st28" width="3.7" height="11.3"/>
		<rect x="-299.4" y="188" class="st28" width="3.7" height="14.5"/>
		<polygon class="st28" points="-297.5,182.7 -299.9,183.4 -299.3,184.3 -310.5,191.8 -310,192.5 -298.8,185.1 -298.2,185.9 
			-296.6,184 -295,182 		"/>
	</g>
	<rect x="-287.4" y="184.5" class="st29" width="19.7" height="2.5"/>
	<rect x="-287.4" y="191.7" class="st29" width="19.7" height="2.5"/>
	<rect x="-287.4" y="198.9" class="st29" width="19.7" height="2.5"/>
</g>
<g>
	<path class="st30" d="M206,216H3c-1.6,0-3-1.4-3-3V43.7c0-1.7,1.3-3,3-3H206c1.7,0,3,1.3,3,3V213C209,214.7,207.6,216,206,216z"/>
	<path class="st31" d="M0,49.4C0,44.3-0.8,35.5,9.3,34h190.5c10.7,0.1,9.2,10.3,9.2,15.4"/>
	<rect x="15.5" y="66.7" class="st32" width="32.5" height="32.5"/>
	<rect x="15.5" y="116.6" class="st32" width="54.3" height="79.3"/>
	<rect x="79.5" y="116.6" class="st31" width="104.3" height="8.7"/>
	<rect x="79.5" y="132.9" class="st33" width="104.3" height="8.7"/>
	<rect x="79.5" y="149.2" class="st33" width="104.3" height="8.7"/>
	<rect x="79.5" y="165.5" class="st33" width="104.3" height="8.7"/>
	<rect x="79.5" y="181.8" class="st33" width="72.8" height="8.7"/>
	<rect x="63.6" y="66.7" class="st34" width="32.5" height="32.5"/>
	<rect x="111.8" y="66.7" class="st35" width="32.5" height="32.5"/>
	<rect x="160" y="66.7" class="st36" width="32.5" height="32.5"/>
	<circle class="st37" cx="10.8" cy="41.7" r="2.9"/>
	<circle class="st38" cx="21.7" cy="41.7" r="2.9"/>
	<circle class="st39" cx="32.5" cy="41.7" r="2.9"/>
	<g>
		<g>
			<g>
				
					<linearGradient id="SVGID_1_" gradientUnits="userSpaceOnUse" x1="-192.2236" y1="921.861" x2="-169.9324" y2="921.861" gradientTransform="matrix(0.7071 0.7071 -0.7071 0.7071 1017.6729 -419.9822)">
					<stop  offset="0" style="stop-color:#CF837A"/>
					<stop  offset="0.2242" style="stop-color:#F7AC9D"/>
					<stop  offset="0.8121" style="stop-color:#844D46"/>
					<stop  offset="0.8196" style="stop-color:#875048"/>
					<stop  offset="1" style="stop-color:#D08A7F"/>
				</linearGradient>
				<path class="st40" d="M246.6,110.8c2.1-2.1,2.5-5.1,0.9-6.6l-10-10c-1.6-1.6-4.6-1.2-6.6,0.9l-5.7,5.7l15.8,15.8L246.6,110.8z"
					/>
				
					<linearGradient id="SVGID_2_" gradientUnits="userSpaceOnUse" x1="148.5438" y1="169.7891" x2="160.2146" y2="182.9196" gradientTransform="matrix(1.0087 2.640000e-002 2.640000e-002 1.0087 2.0226 -1.8641)">
					<stop  offset="0" style="stop-color:#E3CC94"/>
					<stop  offset="0.2788" style="stop-color:#F8E0AC"/>
					<stop  offset="0.8652" style="stop-color:#A2913F"/>
				</linearGradient>
				<path class="st41" d="M161.7,164.3l-10.2,20.6l5.3,5.3l20.6-10.3C178,180,161.6,163.7,161.7,164.3z"/>
				<path class="st42" d="M213,112.9l-2.2,2.2l-44.4,44.4l-2.5,2.5l-1.8,1.8c-0.1,0.2-0.3,0.3-0.4,0.5c0,0-0.8,1.3-2.1,4.3
					c-1.3,3,4.7-1.6,4.7-1.6l2.2-2.2l46.9-46.9l2.2-2.2L213,112.9z"/>
				<linearGradient id="SVGID_3_" gradientUnits="userSpaceOnUse" x1="192.3294" y1="146.5113" x2="204.0464" y2="158.7609">
					<stop  offset="0" style="stop-color:#00589A"/>
					<stop  offset="1" style="stop-color:#0374AF"/>
				</linearGradient>
				<path class="st43" d="M222.6,122.5l-2.2,2.2l-46.9,46.9l-2.2,2.2c0,0-1.5,6.3,0.4,6.7c1.9,0.4,5.7-0.7,5.7-0.7
					c0.2-0.1,0.3-0.3,0.5-0.4l1.8-1.8l2.5-2.5l44.4-44.4l2.2-2.2L222.6,122.5z"/>
				<path class="st44" d="M215.6,115.6l-2.2,2.2l-46.9,46.9l-2.2,2.2c0,0-1.3,5.4,0.2,6.5c1.5,1.2,6.8,0.4,6.8,0.4l2.2-2.2
					l46.9-46.9l2.2-2.2L215.6,115.6z"/>
				<path class="st0" d="M217.7,113l-0.3,0.3l-52.7,52.4l-0.4,0.3l-0.2,0.2c0,0,0,0-0.1,0.1l0.4,0.4l0.3-0.3l53-52.7l0.3-0.3
					L217.7,113z"/>
				
					<linearGradient id="SVGID_4_" gradientUnits="userSpaceOnUse" x1="-192.2199" y1="858.3152" x2="-169.9303" y2="858.3152" gradientTransform="matrix(0.7071 0.7071 -2.8128 2.8128 2769.3105 -2171.6233)">
					<stop  offset="5.617980e-003" style="stop-color:#B3D4E4"/>
					<stop  offset="6.034555e-002" style="stop-color:#C4DCE8"/>
					<stop  offset="0.1399" style="stop-color:#D6E5ED"/>
					<stop  offset="0.2244" style="stop-color:#E1EAEF"/>
					<stop  offset="0.3212" style="stop-color:#E4ECF0"/>
					<stop  offset="0.8424" style="stop-color:#4E7A8B"/>
				</linearGradient>
				<polygon class="st45" points="225.4,100.5 212.9,113 228.6,128.7 241.2,116.2 				"/>
				<polygon class="st0" points="226.6,102.3 230.2,105.9 218.2,117.9 214.7,114.3 				"/>
				<g>
					<polygon class="st46" points="215.9,109.9 231.7,125.7 233,124.4 217.2,108.7 					"/>
					<polygon class="st46" points="214.2,111.6 230,127.4 230.5,126.9 214.7,111.1 					"/>
				</g>
				<g>
					
						<linearGradient id="SVGID_5_" gradientUnits="userSpaceOnUse" x1="-198.3966" y1="1108.8813" x2="-176.1063" y2="1108.8813" gradientTransform="matrix(0.7231 0.7231 -0.2716 0.2716 661.4011 -48.8935)">
						<stop  offset="5.617980e-003" style="stop-color:#9AB8C7"/>
						<stop  offset="7.052061e-002" style="stop-color:#ABC4D1"/>
						<stop  offset="0.2175" style="stop-color:#CEDDE5"/>
						<stop  offset="0.297" style="stop-color:#DBE6EC"/>
						<stop  offset="0.6788" style="stop-color:#647881"/>
						<stop  offset="0.7639" style="stop-color:#657B85"/>
						<stop  offset="0.8506" style="stop-color:#688491"/>
						<stop  offset="0.9376" style="stop-color:#6C92A6"/>
						<stop  offset="1" style="stop-color:#71A0B9"/>
					</linearGradient>
					<polygon class="st47" points="216.1,109.5 232.2,125.6 233.5,124.3 217.4,108.2 					"/>
					
						<linearGradient id="SVGID_6_" gradientUnits="userSpaceOnUse" x1="-198.3878" y1="1116.6047" x2="-176.1057" y2="1116.6047" gradientTransform="matrix(0.7231 0.7231 -0.2716 0.2716 661.4011 -48.8935)">
						<stop  offset="5.617980e-003" style="stop-color:#9AB8C7"/>
						<stop  offset="7.052061e-002" style="stop-color:#ABC4D1"/>
						<stop  offset="0.2175" style="stop-color:#CEDDE5"/>
						<stop  offset="0.297" style="stop-color:#DBE6EC"/>
						<stop  offset="0.6788" style="stop-color:#647881"/>
						<stop  offset="0.7639" style="stop-color:#657B85"/>
						<stop  offset="0.8506" style="stop-color:#688491"/>
						<stop  offset="0.9376" style="stop-color:#6C92A6"/>
						<stop  offset="1" style="stop-color:#71A0B9"/>
					</linearGradient>
					<polygon class="st48" points="214.4,111.2 230.5,127.3 231,126.8 214.9,110.7 					"/>
				</g>
				<g>
					<polygon class="st46" points="222.4,103.5 238.2,119.2 239.4,117.9 223.7,102.2 					"/>
					<polygon class="st46" points="220.7,105.2 236.5,120.9 237,120.4 221.2,104.6 					"/>
				</g>
				<g>
					
						<linearGradient id="SVGID_7_" gradientUnits="userSpaceOnUse" x1="-198.3968" y1="1085.0305" x2="-176.1057" y2="1085.0305" gradientTransform="matrix(0.7231 0.7231 -0.2716 0.2716 661.4011 -48.8935)">
						<stop  offset="5.617980e-003" style="stop-color:#9AB8C7"/>
						<stop  offset="4.872734e-002" style="stop-color:#A9C3D0"/>
						<stop  offset="0.1587" style="stop-color:#CCDCE3"/>
						<stop  offset="0.2182" style="stop-color:#D9E5EB"/>
						<stop  offset="0.7273" style="stop-color:#6A808C"/>
						<stop  offset="0.8044" style="stop-color:#6B8391"/>
						<stop  offset="0.8948" style="stop-color:#6D8E9F"/>
						<stop  offset="0.9916" style="stop-color:#719EB7"/>
						<stop  offset="1" style="stop-color:#71A0B9"/>
					</linearGradient>
					<polygon class="st49" points="222.6,103 238.7,119.1 240,117.8 223.9,101.7 					"/>
					
						<linearGradient id="SVGID_8_" gradientUnits="userSpaceOnUse" x1="-198.3954" y1="1092.7623" x2="-176.1057" y2="1092.7623" gradientTransform="matrix(0.7231 0.7231 -0.2716 0.2716 661.4011 -48.8935)">
						<stop  offset="5.617980e-003" style="stop-color:#9AB8C7"/>
						<stop  offset="4.872734e-002" style="stop-color:#A9C3D0"/>
						<stop  offset="0.1587" style="stop-color:#CCDCE3"/>
						<stop  offset="0.2182" style="stop-color:#D9E5EB"/>
						<stop  offset="0.7273" style="stop-color:#6A808C"/>
						<stop  offset="0.8044" style="stop-color:#6B8391"/>
						<stop  offset="0.8948" style="stop-color:#6D8E9F"/>
						<stop  offset="0.9916" style="stop-color:#719EB7"/>
						<stop  offset="1" style="stop-color:#71A0B9"/>
					</linearGradient>
					<polygon class="st50" points="220.9,104.7 237,120.8 237.5,120.3 221.4,104.2 					"/>
				</g>
				<linearGradient id="SVGID_9_" gradientUnits="userSpaceOnUse" x1="227.0908" y1="99.6657" x2="241.2269" y2="99.6657">
					<stop  offset="0" style="stop-color:#FFFFFF"/>
					<stop  offset="1" style="stop-color:#F7AC9D"/>
				</linearGradient>
				<path class="st51" d="M230.9,104.6l4.6-4.6c1.8-1.8,4.3-2.1,5.7-0.8l-3.6-3.6c-1.4-1.4-3.9-1-5.7,0.8l-4.9,4.9l0,0l0.2-0.2
					L230.9,104.6z"/>
				
					<rect x="217.4" y="111.2" transform="matrix(-0.7076 -0.7066 0.7066 -0.7076 296.6503 346.6729)" class="st0" width="5.3" height="1.6"/>
				<polygon class="st0" points="215.9,112.6 219.5,116.2 219.9,115.8 216.3,112.2 				"/>
				
					<rect x="223.7" y="104.8" transform="matrix(-0.7066 -0.7076 0.7076 -0.7066 311.5834 340.2952)" class="st0" width="5.2" height="1.6"/>
				<polygon class="st0" points="226.1,109.8 226.3,109.6 226.4,109.4 226.5,109.4 222.8,105.6 222.8,105.6 222.7,105.8 
					222.3,106.1 				"/>
				<linearGradient id="SVGID_10_" gradientUnits="userSpaceOnUse" x1="146.8802" y1="188.0146" x2="153.2628" y2="193.7324">
					<stop  offset="0" style="stop-color:#5F6062"/>
					<stop  offset="0.4909" style="stop-color:#808083"/>
					<stop  offset="0.5428" style="stop-color:#666567"/>
					<stop  offset="0.6052" style="stop-color:#4D4B4D"/>
					<stop  offset="0.6742" style="stop-color:#3A3838"/>
					<stop  offset="0.7519" style="stop-color:#2C2A2A"/>
					<stop  offset="0.8458" style="stop-color:#242122"/>
					<stop  offset="1" style="stop-color:#221F1F"/>
				</linearGradient>
				<path class="st52" d="M158.5,189c0.1-0.2-0.4-0.2-0.5-0.3c-0.1,0-0.3,0-0.4,0c-0.1,0-0.3-0.2-0.2-0.4c0-0.2-0.2,0-0.2,0
					s-0.2,0-0.3,0c-0.1,0-0.2,0-0.4-0.1l-0.3-0.2c0,0,0,0,0.1,0c0-0.1,0-0.1,0-0.2c0-0.1,0-0.3-0.2-0.4c-0.2-0.1-0.2,0-0.5,0.1
					c-0.4,0.1-0.2-0.2-0.2-0.2l-0.1,0c0,0-0.1,0-0.3,0l-0.4-0.2c0,0,0.1-0.1,0.1-0.1c0-0.1-0.2-0.1-0.4-0.1l-0.2-0.1
					c0-0.1,0.1-0.2,0.1-0.2l-0.2,0c0,0-0.1,0-0.2,0l-0.2-0.1c0-0.1,0.2-0.3,0.2-0.3l-0.3,0c0,0-0.3-0.1-0.3-0.2c0,0,0-0.2,0-0.2
					l-0.4-0.1c0,0,0-0.1,0-0.2c0-0.1,0-0.1,0-0.1l-0.2,0.1l-0.2,0l0-0.2l-0.1,0l-0.1-0.1l-0.1,0h-0.1l0-0.1l0-0.1l-0.2,0.1
					c0,0.1,0,0.1-0.1,0.2l-0.2-0.1l-5.9,11.1l-0.1,0.3l0.3,0l12.6-6.9l-0.4-0.2C158.2,189.1,158.4,189.1,158.5,189z"/>
				<g>
					<linearGradient id="SVGID_11_" gradientUnits="userSpaceOnUse" x1="152.7568" y1="176.0437" x2="166.4201" y2="191.3018">
						<stop  offset="0" style="stop-color:#E9D29B"/>
						<stop  offset="0.2788" style="stop-color:#F6E0B9"/>
						<stop  offset="0.8061" style="stop-color:#B9A55A"/>
					</linearGradient>
					<path class="st53" d="M153.5,182.4c0.4,0.8-0.9,1.5,0.7,2.1c1.7,0.6,0.7,0.8,4.2,0.7c3.5-0.1,5.6-1.5,5.9-0.9
						c0.3,0.6-0.3,2.3-0.3,2.3l0.9-0.5c0,0,1.9-2.9,0.5-3.1c-1.4-0.2-3.3,1.1-5.8,1.1c-2.5,0.1-5.7,0.5-5.5-0.8c0.1-1.3-0.2-2-0.2-2
						L153.5,182.4z"/>
					<linearGradient id="SVGID_12_" gradientUnits="userSpaceOnUse" x1="155.6542" y1="173.4427" x2="169.3206" y2="188.7043">
						<stop  offset="0" style="stop-color:#E9D29B"/>
						<stop  offset="0.2788" style="stop-color:#F6E0B9"/>
						<stop  offset="0.8061" style="stop-color:#B9A55A"/>
					</linearGradient>
					<path class="st54" d="M155.4,177.7l-0.7,1.2c0,0-0.3,5.5,2.9,3.9c3.2-1.7,9.6-3.5,9.8-1.9c0.3,1.6,0.2,3.3,0.2,3.3l-0.1,0.6
						l1.3-0.7c0,0,1.7-5.1-0.2-5.4c-1.9-0.3-6.4,0.7-8.4,1.9c-2,1.1-3.6,3.1-4.1,1.2C155.6,179.9,155.4,177.7,155.4,177.7z"/>
					<linearGradient id="SVGID_13_" gradientUnits="userSpaceOnUse" x1="158.7463" y1="170.6914" x2="172.3974" y2="185.9359">
						<stop  offset="0" style="stop-color:#E9D29B"/>
						<stop  offset="0.2788" style="stop-color:#F6E0B9"/>
						<stop  offset="0.8061" style="stop-color:#B9A55A"/>
					</linearGradient>
					<path class="st55" d="M157,174.5l-1.1,1.9l0.9,1.8c0,0,0.3,1.9,2.5,1c2.1-0.9,7-4.1,8.6-3.3c1.6,0.8,2.4,0.3,2.5-0.6
						c0.1-0.9,0.4-1.1,0.4-1.1s-1.2,2-2,0.7c-0.8-1.3-4.5,0.7-5.9,1.3c-1.4,0.6-4.6,4.5-5.3,1.4C157,174.5,157,174.5,157,174.5z"/>
				</g>
			</g>
		</g>
	</g>
</g>
</svg>
