<?xml version="1.0" encoding="utf-8"?>
<!-- Generator: Adobe Illustrator 19.1.0, SVG Export Plug-In . SVG Version: 6.00 Build 0)  -->
<svg version="1.1" id="Layer_1" xmlns="http://www.w3.org/2000/svg" xmlns:xlink="http://www.w3.org/1999/xlink" x="0px" y="0px"
	 viewBox="0 0 250 250" style="enable-background:new 0 0 250 250;" xml:space="preserve">
<style type="text/css">
	.st0{fill:#FFFFFF;}
	.st1{fill:#CBEFFB;}
	.st2{fill:#576177;}
	.st3{fill:#FCE43A;}
	.st4{fill:#FFEB99;}
	.st5{fill:#E8E1CF;}
	.st6{fill:#E2D9C3;}
	.st7{fill:#F7F1DA;}
	.st8{fill:#EFE8D5;}
	.st9{fill:#3D495B;}
	.st10{fill:#FF936D;}
	.st11{fill:#FF8B6C;}
	.st12{fill:#F48967;}
	.st13{fill:#BEE4ED;}
	.st14{fill:#707F99;}
	.st15{fill:#DEF6FC;}
	.st16{fill:#E5E5E5;}
	.st17{fill:#263547;}
	.st18{fill:#9BACBC;}
	.st19{fill:#FDFFFE;}
	.st20{fill:#52DDB5;}
	.st21{fill:#2D4859;}
	.st22{fill:#849EBC;}
	.st23{fill:#564640;}
	.st24{fill:#6AC2CE;}
	.st25{fill:#E2B150;}
	.st26{fill:#ADADAD;}
	.st27{fill:#606060;}
	.st28{fill:#A64A42;}
	.st29{fill:#2D2D2D;}
</style>
<g>
	<g>
		<ellipse class="st0" cx="-307.3" cy="-139.5" rx="13.2" ry="14.1"/>
		<ellipse class="st0" cx="-265.6" cy="-139.5" rx="13.2" ry="14.1"/>
		<ellipse class="st0" cx="-249.3" cy="-135.7" rx="9.6" ry="10.2"/>
		<ellipse class="st0" cx="-319.5" cy="-135.7" rx="9.6" ry="10.2"/>
		<ellipse class="st0" cx="-286.6" cy="-147.5" rx="20.7" ry="22"/>
	</g>
	<g>
		<ellipse class="st0" cx="-159.7" cy="-135.2" rx="15.2" ry="16.2"/>
		<ellipse class="st0" cx="-111.8" cy="-126.4" rx="15.2" ry="16.2"/>
		<ellipse class="st0" cx="-93.1" cy="-126.4" rx="11" ry="11.7"/>
		<ellipse class="st0" cx="-173.7" cy="-132.1" rx="11" ry="11.7"/>
		<ellipse class="st0" cx="-136" cy="-135.2" rx="23.7" ry="25.3"/>
	</g>
	<g>
		<g>
			<path class="st1" d="M-98.5-91.5c0,59.9-48.5,105.6-108.4,105.6c-59.9,0-108.4-45.8-108.4-105.6c0-59.9,48.5-108.4,108.4-108.4
				C-147-199.9-98.5-151.4-98.5-91.5z"/>
			<g>
				<path class="st0" d="M-266-39.2c0.1,0,0.1,0,0.2-0.1c0,0,0,0,0,0C-265.9-39.3-266-39.2-266-39.2z"/>
				<path class="st0" d="M-89.5-81.1c0-6.5-5.5-11.7-12.4-11.7c-5.3,0-9.7,3.1-11.5,7.4c-0.5,0-1.1-0.1-1.6-0.1
					c-11.1,0-20.2,9.2-20.2,20.5c0,3.7,1,7.2,2.7,10.2c4.7-1.4,9.1-0.6,11.4,2.4c0.3,0.4,0.5,0.8,0.7,1.2c-0.2,0.1-0.4,0.1-0.6,0.2
					c-2.3-2.4-6.3-3-10.4-1.9c0,0,0,0,0,0c-2.4,0.6-4.8,1.8-7.1,3.5c-4,3.1-6.5,7.1-7,10.8c-0.1,0.9-0.2,1.8,0,2.7
					c0.2,1.3,0.6,2.6,1.4,3.6c0.4,0.5,0.8,0.9,1.3,1.3c-0.1,0-0.1,0-0.2,0.1c-1.1-0.5-2-1.2-2.7-2.2c-0.7-1-1.2-2.1-1.4-3.3
					c-3.3-1-7-1.4-10.9-1c-9.7,1-18.1,6.3-22.4,13.3c-10-12-14.8-50.1-14.8-50.1h-23.3c0,0-4.9,38.5-15,50.3
					c-0.8,0.1-1.7,0.2-2.5,0.4c-1.4-5.2-4.8-10-10-13.3c-6.3-4-13.8-4.7-19.8-2.4c0.3,2.3-0.1,4.5-1.4,6.2c-0.7,0.9-1.6,1.6-2.7,2.2
					c-0.1,0-0.1,0-0.2-0.1c0.5-0.4,0.9-0.8,1.3-1.3c1.3-1.7,1.8-4,1.4-6.3c0,0,0,0,0,0c0,0,0,0,0,0c-0.6-3.7-3-7.8-7-10.8
					c-2.3-1.7-4.7-2.9-7.1-3.5c0,0,0,0,0,0c-4.2-1.1-8.1-0.5-10.4,1.9c-0.2-0.1-0.4-0.1-0.6-0.2c0.2-0.4,0.4-0.8,0.7-1.2
					c2.3-3,6.7-3.8,11.4-2.4c1.7-3,2.7-6.5,2.7-10.2c0-11.3-9-20.5-20.2-20.5c-0.5,0-1.1,0-1.6,0.1c0,0,0,0,0,0c0,0,0,0,0,0
					c-1.8-4.3-6.3-7.4-11.5-7.4c-6.9,0-12.4,5.2-12.4,11.7c0,3.2,1.4,6.1,3.6,8.3l0,0c0.8,0.7,1.7,1.4,2.6,1.9
					c-0.6,1.9-0.9,3.9-0.9,6c0,7.7,4.1,14.3,10.3,17.9c-0.1,0.1-0.2,0.2-0.3,0.3c-5,6.3-3.4,15.9,3.5,21.4c3.9,3.1,8.7,4.3,13.1,3.7
					c0.5,6.7,7.1,14.9,17.1,20.5c5.7,3.2,11.6,4.9,16.7,5.3c-0.2,0.8-0.3,1.5-0.3,2.3c0,5.7,5.7,10.3,12.7,10.3
					c2.8,0,5.3-0.7,7.4-1.9c3,4.7,8.8,7.9,15.5,7.9c2,0,3.9-0.3,5.7-0.8c4.1-0.5,7.8-2.3,10.4-4.9c2.7,2.6,6.3,4.3,10.4,4.9
					c1.8,0.5,3.7,0.8,5.7,0.8c6.1,0,11.5-2.7,14.7-6.8v0c0.3-0.4,0.5-0.8,0.8-1.1c0.1-0.1,0.1-0.2,0.2-0.3c2,1.4,4.5,2.3,7.2,2.3
					c7,0,12.6-5.7,12.7-12.7c0.1,0,0.1,0,0.2,0c0.5,0,1.1-0.1,1.6-0.2c0,0,0,0,0,0c4.6-0.6,9.6-2.3,14.5-5
					c10-5.5,16.5-13.8,17.1-20.5c4.3,0.7,9.1-0.5,13.1-3.7c7-5.6,8.5-15.2,3.5-21.4c-0.1-0.1-0.2-0.2-0.3-0.3
					c6.1-3.5,10.3-10.2,10.3-17.9c0-2.1-0.3-4.1-0.9-6C-92-73-89.5-76.7-89.5-81.1z"/>
			</g>
			<path class="st2" d="M-181.4-91c7.6,2,12.4,10.4,14.7,15.6c1.1,2.4,2.5,2.4,3.3-0.1c11.3-35-2-49.8-8.5-54.7L-181.4-91z"/>
			<path class="st2" d="M-232.4-91c-7.6,2-12.4,10.4-14.7,15.6c-1.1,2.4-2.5,2.4-3.3-0.1c-11.2-35,2-49.8,8.5-54.7L-232.4-91z"/>
			<path class="st3" d="M-206.9-77c-7.2-0.2-12.5,6.3-12.9,11.6c-0.8,5.7,3.2,10.2,6.6,13.5c4.3,3.7,5.7,7.4,6.1,9.7h0.3
				c0.4-2.4,1.8-6,6.1-9.7c3.4-3.2,7.4-7.8,6.6-13.5C-194.4-70.7-199.7-77.2-206.9-77z"/>
			<path class="st4" d="M-206.9-76.3c-5.1-0.2-8.8,4.4-9.1,8.2c-0.6,4,2.3,7.2,4.7,9.5c3,2.6,4,5.2,4.3,6.8h0.2
				c0.3-1.7,1.2-4.2,4.3-6.8c2.4-2.3,5.2-5.5,4.7-9.5C-198.1-71.9-201.8-76.5-206.9-76.3z"/>
			<path class="st5" d="M-218.5-79.7v3.6c0,1.6,1.3,2.9,2.9,2.9h17.4c1.6,0,2.9-1.3,2.9-2.9v-3.6H-218.5z"/>
			<rect x="-218.5" y="-79.7" class="st6" width="23.2" height="2.2"/>
			<path class="st7" d="M-221.5-85v3.9c0,1.6,1.3,2.9,2.9,2.9h23.5c1.6,0,2.9-1.3,2.9-2.9V-85H-221.5z"/>
			<rect x="-221.5" y="-85" class="st8" width="29.2" height="3.4"/>
			<path class="st9" d="M-235.7-89.7c1-0.6,2.1-1.1,3.3-1.4l-9.4-39.1c-0.6,0.5-1.3,1-2,1.7C-243.4-114.5-240.1-101.3-235.7-89.7z"
				/>
			<path class="st10" d="M-203.8-219.4c-1.7-2.1-4.5-2.1-6.1,0c-8.7,10.9-32.9,44.7-32.9,84.7c0,17.7,4.7,34.1,10.7,47.9
				c1.1,2.4,4.1,4.4,6.8,4.4h37c2.6,0,5.7-1.9,6.8-4.4c6-13.8,10.7-30.2,10.7-47.9C-170.9-174.7-195.1-208.6-203.8-219.4z"/>
			<path class="st11" d="M-202.4-217.7c11.5,23.1,44.4,102.6-30.4,129.4c0.2,0.5,0.4,1,0.6,1.5c1.1,2.4,4.1,4.4,6.8,4.4h37
				c2.6,0,5.7-1.9,6.8-4.4c6-13.8,10.7-30.2,10.7-47.9C-170.9-172.8-192.8-205.3-202.4-217.7z"/>
			<path class="st9" d="M-169.9-128.5c-0.7-0.7-1.4-1.2-2-1.7l-9.4,39.1c1.2,0.3,2.3,0.8,3.3,1.4
				C-173.6-101.3-170.4-114.5-169.9-128.5z"/>
			<path class="st12" d="M-203.8-219.4c-0.1-0.1-0.2-0.2-0.3-0.3c15.9,21.5,45.1,89.6,5.3,137.3h10.5c2.6,0,5.7-1.9,6.8-4.4
				c6-13.8,10.7-30.2,10.7-47.9C-170.9-174.7-195.1-208.6-203.8-219.4z"/>
			<g>
				<g>
					<path class="st0" d="M-207-144.5c-8.8,0-15.9-7.1-15.9-15.9c0-8.8,7.1-15.9,15.9-15.9c8.8,0,15.9,7.1,15.9,15.9
						C-191.1-151.6-198.2-144.5-207-144.5z"/>
				</g>
			</g>
			<path class="st13" d="M-203.8-173.5c-1-0.2-2.1-0.4-3.1-0.4c-1,0-1.9,0.1-2.8,0.3c-6.1,1.3-10.6,6.7-10.6,13.2
				c0,6.6,4.8,12.2,11.2,13.3c0.4,0.1,0.7,0.1,1.1,0.1c0.4,0,0.8,0.1,1.2,0.1c7.4,0,13.5-6,13.5-13.5
				C-193.4-166.7-197.9-172.1-203.8-173.5z"/>
			<path class="st2" d="M-210.9-103.1c-0.3-16.3,1.5-29.6,4-29.6c2.5,0,4.3,13.3,4,29.6c-0.3,16.3-2.1,29.5-4,29.5
				C-208.8-73.6-210.6-86.8-210.9-103.1z"/>
			<path class="st14" d="M-209-116.3c-0.2-6.5,0.8-11.7,2.1-11.7c1.3,0,2.2,5.2,2.1,11.7c-0.2,6.5-1.1,11.7-2.1,11.7
				C-207.9-104.6-208.8-109.8-209-116.3z"/>
			<g>
				<path class="st15" d="M-211.2-164.6c-1.7,1.6-2.7,4.1-4.2,4.2c-1.5,0.3-3.1-4.3,0.4-8c3.5-3.6,8-2.3,7.7-0.8
					C-207.5-167.7-209.7-166.4-211.2-164.6z"/>
			</g>
		</g>
		<path class="st0" d="M-142.1-123.3c0.2-8.7-0.9-11.7-2.9-13.9c-2.2-2-5.2-3.1-13.9-2.9c8.7,0.2,11.7-0.9,13.9-2.9
			c2-2.2,3.1-5.2,2.9-13.9c-0.2,8.7,0.9,11.7,2.9,13.9c2.2,2,5.2,3.1,13.9,2.9c-8.7-0.2-11.7,0.9-13.9,2.9
			C-141.2-135.1-142.3-132-142.1-123.3z"/>
		<path class="st1" d="M-280-185.8c0.2-8.7-0.9-11.7-2.9-13.9c-2.2-2-5.2-3.1-13.9-2.9c8.7,0.2,11.7-0.9,13.9-2.9
			c2-2.2,3.1-5.2,2.9-13.9c-0.2,8.7,0.9,11.7,2.9,13.9c2.2,2,5.2,3.1,13.9,2.9c-8.7-0.2-11.7,0.9-13.9,2.9
			C-279.1-197.5-280.2-194.4-280-185.8z"/>
		<circle class="st0" cx="-280.7" cy="-116.3" r="5.6"/>
		<circle class="st0" cx="-154.8" cy="-64.1" r="5.6"/>
	</g>
</g>
<path class="st16" d="M12.5,200.4c-5.4,0-9.8-4.4-9.8-9.9v-17.3v-0.6h243.9v0.6v17.3c0,5.5-4.4,9.9-9.8,9.9H12.5z"/>
<path class="st17" d="M236.8,31.2H12.5c-5.4,0-9.8,4.4-9.8,9.9v131.5h243.9V41.1C246.6,35.7,242.2,31.2,236.8,31.2z"/>
<rect x="11.2" y="39.3" class="st18" width="225.7" height="125.5"/>
<g>
	<path class="st0" d="M97.7,201.5h56c0,21.5,9.7,22.1,9.7,22.1v5.6h-5.1H91.2h-4.4v-5.6c0,0,11.3-1.2,11.3-22.1"/>
	<path class="st16" d="M163.4,223.7v-0.1c0,0-9.7-0.7-9.7-22.1H98.1c0,21-11.3,22.1-11.3,22.1v0.1H163.4z"/>
</g>
<g>
	<rect x="18.8" y="44.5" class="st19" width="142.5" height="114.8"/>
	<g>
		<path class="st20" d="M61.4,89c-0.6,0.5-1.1,0.9-1.8,1.2l7.6,14c0,0,0,0,0,0c8.1-4.4,12.9-12,13.5-21.2l-15.9-1
			C64.7,84.6,63.6,87.2,61.4,89z"/>
		<path class="st21" d="M59.7,90.2c-4.1,2.2-9.2,1.3-12.3-2.3c0,0,0,0,0,0l-14.1,12c0,0,0,0,0,0c8.8,10.3,23.3,13,35.2,6.5
			L59.7,90.2z"/>
		<path class="st22" d="M29.4,82.5L29.4,82.5c0.3,6,2.1,10.8,6.1,15.4l11.8-10.1c-1.5-1.8-2.3-3.9-2.4-6L29.4,82.5z"/>
		<path class="st23" d="M64.9,82l13.4,0.8l0,0c0.3-4.4-0.5-8.3-2.6-12.2c0,0,0,0,0,0l-11.9,6.2C64.7,78.4,65,80.2,64.9,82z"/>
		<path class="st24" d="M57.2,52.7C57.2,52.7,57.2,52.7,57.2,52.7l-1.5,18.7c2.6,0.2,5.1,1.4,6.9,3.5c0.5,0.6,0.9,1.2,1.3,1.9
			l16.6-8.7C75.7,59,67.4,53.5,57.2,52.7z"/>
		<path class="st25" d="M23.1,82.8L45,81.8c-0.1-3,1.1-6,3.5-8c2.1-1.8,4.7-2.6,7.2-2.4l1.7-21.8c-1.3-0.1-2.6-0.1-3.9-0.1
			C35.9,50.3,22.3,65.2,23.1,82.8z"/>
	</g>
	<rect x="167.6" y="44.5" class="st25" width="59.9" height="114.8"/>
	<rect x="94.7" y="52.7" class="st26" width="56.9" height="2.5"/>
	<rect x="169.1" y="48.3" class="st27" width="56.9" height="2.5"/>
	<rect x="169.1" y="59.5" class="st27" width="56.9" height="2.5"/>
	<rect x="169.1" y="70.7" class="st27" width="56.9" height="2.5"/>
	<rect x="169.1" y="81.9" class="st27" width="56.9" height="2.5"/>
	<rect x="169.1" y="93.1" class="st27" width="56.9" height="2.4"/>
	<rect x="169.1" y="104.3" class="st27" width="56.9" height="2.5"/>
	<rect x="169.1" y="115.5" class="st27" width="56.9" height="2.5"/>
	<rect x="94.7" y="62.3" class="st26" width="56.9" height="2.5"/>
	<rect x="94.7" y="71.9" class="st26" width="56.9" height="2.5"/>
	<rect x="94.7" y="81.4" class="st26" width="56.9" height="2.5"/>
	<rect x="94.7" y="91" class="st26" width="56.9" height="2.4"/>
	<rect x="94.7" y="100.6" class="st26" width="56.9" height="2.5"/>
	<rect x="94.7" y="110.2" class="st26" width="56.9" height="2.5"/>
	<rect x="94.7" y="119.8" class="st26" width="56.9" height="2.5"/>
	<rect x="94.7" y="129.4" class="st26" width="56.9" height="2.5"/>
	<rect x="94.7" y="139" class="st26" width="56.9" height="2.5"/>
	<rect x="26.5" y="122.2" class="st25" width="54.3" height="28.7"/>
	<g>
		<rect x="32.4" y="138.5" class="st28" width="3.7" height="7.7"/>
		<rect x="38.1" y="134.9" class="st28" width="3.7" height="11.3"/>
		<rect x="43.8" y="131.6" class="st28" width="3.7" height="14.5"/>
		<polygon class="st28" points="45.6,126.4 43.2,127.1 43.8,128 32.6,135.4 33.1,136.2 44.3,128.7 44.9,129.6 46.5,127.6 
			48.1,125.7 		"/>
	</g>
	<rect x="55.7" y="128.1" class="st29" width="19.7" height="2.5"/>
	<rect x="55.7" y="135.3" class="st29" width="19.7" height="2.5"/>
	<rect x="55.7" y="142.6" class="st29" width="19.7" height="2.5"/>
</g>
</svg>
