<?xml version="1.0" encoding="utf-8"?>
<!-- Generator: Adobe Illustrator 19.1.0, SVG Export Plug-In . SVG Version: 6.00 Build 0)  -->
<svg version="1.1" id="Layer_1" xmlns="http://www.w3.org/2000/svg" xmlns:xlink="http://www.w3.org/1999/xlink" x="0px" y="0px"
	 viewBox="0 0 250 250" style="enable-background:new 0 0 250 250;" xml:space="preserve">
<style type="text/css">
	.st0{fill:#FFFFFF;}
	.st1{fill:#CBEFFB;}
	.st2{fill:#576177;}
	.st3{fill:#FCE43A;}
	.st4{fill:#FFEB99;}
	.st5{fill:#E8E1CF;}
	.st6{fill:#E2D9C3;}
	.st7{fill:#F7F1DA;}
	.st8{fill:#EFE8D5;}
	.st9{fill:#3D495B;}
	.st10{fill:#FF936D;}
	.st11{fill:#FF8B6C;}
	.st12{fill:#F48967;}
	.st13{fill:#BEE4ED;}
	.st14{fill:#707F99;}
	.st15{fill:#DEF6FC;}
</style>
<g>
	<g>
		<ellipse class="st0" cx="23.8" cy="85.7" rx="13.2" ry="14.1"/>
		<ellipse class="st0" cx="65.5" cy="85.7" rx="13.2" ry="14.1"/>
		<ellipse class="st0" cx="81.8" cy="89.6" rx="9.6" ry="10.2"/>
		<ellipse class="st0" cx="11.6" cy="89.6" rx="9.6" ry="10.2"/>
		<ellipse class="st0" cx="44.5" cy="77.8" rx="20.7" ry="22"/>
	</g>
	<g>
		<ellipse class="st0" cx="171.4" cy="90" rx="15.2" ry="16.2"/>
		<ellipse class="st0" cx="219.3" cy="98.8" rx="15.2" ry="16.2"/>
		<ellipse class="st0" cx="238" cy="98.8" rx="11" ry="11.7"/>
		<ellipse class="st0" cx="157.4" cy="93.2" rx="11" ry="11.7"/>
		<ellipse class="st0" cx="195.1" cy="90" rx="23.7" ry="25.3"/>
	</g>
	<g>
		<g>
			<path class="st1" d="M232.6,133.7c0,59.9-48.5,105.6-108.4,105.6c-59.9,0-108.4-45.8-108.4-105.6c0-59.9,48.5-108.4,108.4-108.4
				C184.1,25.4,232.6,73.9,232.6,133.7z"/>
			<g>
				<path class="st0" d="M65.1,186c0.1,0,0.1,0,0.2-0.1c0,0,0,0,0,0C65.2,186,65.2,186,65.1,186z"/>
				<path class="st0" d="M241.6,144.2c0-6.5-5.5-11.7-12.4-11.7c-5.3,0-9.7,3.1-11.5,7.4c-0.5,0-1.1-0.1-1.6-0.1
					c-11.1,0-20.2,9.2-20.2,20.5c0,3.7,1,7.2,2.7,10.2c4.7-1.4,9.1-0.6,11.4,2.4c0.3,0.4,0.5,0.8,0.7,1.2c-0.2,0.1-0.4,0.1-0.6,0.2
					c-2.3-2.4-6.3-3-10.4-1.9c0,0,0,0,0,0c-2.4,0.6-4.8,1.8-7.1,3.5c-4,3.1-6.5,7.1-7,10.8c-0.1,0.9-0.2,1.8,0,2.7
					c0.2,1.3,0.6,2.6,1.4,3.6c0.4,0.5,0.8,0.9,1.3,1.3c-0.1,0-0.1,0-0.2,0.1c-1.1-0.5-2-1.2-2.7-2.2c-0.7-1-1.2-2.1-1.4-3.3
					c-3.3-1-7-1.4-10.9-1c-9.7,1-18.1,6.3-22.4,13.3c-10-12-14.8-50.1-14.8-50.1h-23.3c0,0-4.9,38.5-15,50.3
					c-0.8,0.1-1.7,0.2-2.5,0.4c-1.4-5.2-4.8-10-10-13.3c-6.3-4-13.8-4.7-19.8-2.4c0.3,2.3-0.1,4.5-1.4,6.2c-0.7,0.9-1.6,1.6-2.7,2.2
					c-0.1,0-0.1,0-0.2-0.1c0.5-0.4,0.9-0.8,1.3-1.3c1.3-1.7,1.8-4,1.4-6.3c0,0,0,0,0,0c0,0,0,0,0,0c-0.6-3.7-3-7.8-7-10.8
					c-2.3-1.7-4.7-2.9-7.1-3.5c0,0,0,0,0,0c-4.2-1.1-8.1-0.5-10.4,1.9c-0.2-0.1-0.4-0.1-0.6-0.2c0.2-0.4,0.4-0.8,0.7-1.2
					c2.3-3,6.7-3.8,11.4-2.4c1.7-3,2.7-6.5,2.7-10.2c0-11.3-9-20.5-20.2-20.5c-0.5,0-1.1,0-1.6,0.1c0,0,0,0,0,0c0,0,0,0,0,0
					c-1.8-4.3-6.3-7.4-11.5-7.4c-6.9,0-12.4,5.2-12.4,11.7c0,3.2,1.4,6.1,3.6,8.3l0,0c0.8,0.7,1.7,1.4,2.6,1.9
					c-0.6,1.9-0.9,3.9-0.9,6c0,7.7,4.1,14.3,10.3,17.9c-0.1,0.1-0.2,0.2-0.3,0.3c-5,6.3-3.4,15.9,3.5,21.4c3.9,3.1,8.7,4.3,13.1,3.7
					c0.5,6.7,7.1,14.9,17.1,20.5c5.7,3.2,11.6,4.9,16.7,5.3c-0.2,0.8-0.3,1.5-0.3,2.3c0,5.7,5.7,10.3,12.7,10.3
					c2.8,0,5.3-0.7,7.4-1.9c3,4.7,8.8,7.9,15.5,7.9c2,0,3.9-0.3,5.7-0.8c4.1-0.5,7.8-2.3,10.4-4.9c2.7,2.6,6.3,4.3,10.4,4.9
					c1.8,0.5,3.7,0.8,5.7,0.8c6.1,0,11.5-2.7,14.7-6.8v0c0.3-0.4,0.5-0.8,0.8-1.1c0.1-0.1,0.1-0.2,0.2-0.3c2,1.4,4.5,2.3,7.2,2.3
					c7,0,12.6-5.7,12.7-12.7c0.1,0,0.1,0,0.2,0c0.5,0,1.1-0.1,1.6-0.2c0,0,0,0,0,0c4.6-0.6,9.6-2.3,14.5-5
					c10-5.5,16.5-13.8,17.1-20.5c4.3,0.7,9.1-0.5,13.1-3.7c7-5.6,8.5-15.2,3.5-21.4c-0.1-0.1-0.2-0.2-0.3-0.3
					c6.1-3.5,10.3-10.2,10.3-17.9c0-2.1-0.3-4.1-0.9-6C239.1,152.3,241.6,148.5,241.6,144.2z"/>
			</g>
			<path class="st2" d="M149.8,134.2c7.6,2,12.4,10.4,14.7,15.6c1.1,2.4,2.5,2.4,3.3-0.1c11.3-35-2-49.8-8.5-54.7L149.8,134.2z"/>
			<path class="st2" d="M98.7,134.2c-7.6,2-12.4,10.4-14.7,15.6c-1.1,2.4-2.5,2.4-3.3-0.1c-11.2-35,2-49.8,8.5-54.7L98.7,134.2z"/>
			<path class="st3" d="M124.2,148.3c-7.2-0.2-12.5,6.3-12.9,11.6c-0.8,5.7,3.2,10.2,6.6,13.5c4.3,3.7,5.7,7.4,6.1,9.7h0.3
				c0.4-2.4,1.8-6,6.1-9.7c3.4-3.2,7.4-7.8,6.6-13.5C136.7,154.5,131.4,148,124.2,148.3z"/>
			<path class="st4" d="M124.2,148.9c-5.1-0.2-8.8,4.4-9.1,8.2c-0.6,4,2.3,7.2,4.7,9.5c3,2.6,4,5.2,4.3,6.8h0.2
				c0.3-1.7,1.2-4.2,4.3-6.8c2.4-2.3,5.2-5.5,4.7-9.5C133,153.3,129.3,148.8,124.2,148.9z"/>
			<path class="st5" d="M112.6,145.5v3.6c0,1.6,1.3,2.9,2.9,2.9h17.4c1.6,0,2.9-1.3,2.9-2.9v-3.6H112.6z"/>
			<rect x="112.6" y="145.5" class="st6" width="23.2" height="2.2"/>
			<path class="st7" d="M109.6,140.2v3.9c0,1.6,1.3,2.9,2.9,2.9H136c1.6,0,2.9-1.3,2.9-2.9v-3.9H109.6z"/>
			<rect x="109.6" y="140.2" class="st8" width="29.2" height="3.4"/>
			<path class="st9" d="M95.4,135.6c1-0.6,2.1-1.1,3.3-1.4l-9.4-39.1c-0.6,0.5-1.3,1-2,1.7C87.7,110.7,91,123.9,95.4,135.6z"/>
			<path class="st10" d="M127.3,5.8c-1.7-2.1-4.5-2.1-6.1,0c-8.7,10.9-32.9,44.7-32.9,84.7c0,17.7,4.7,34.1,10.7,47.9
				c1.1,2.4,4.1,4.4,6.8,4.4h37c2.6,0,5.7-1.9,6.8-4.4c6-13.8,10.7-30.2,10.7-47.9C160.2,50.5,136,16.7,127.3,5.8z"/>
			<path class="st11" d="M128.7,7.6c11.5,23.1,44.4,102.6-30.4,129.4c0.2,0.5,0.4,1,0.6,1.5c1.1,2.4,4.1,4.4,6.8,4.4h37
				c2.6,0,5.7-1.9,6.8-4.4c6-13.8,10.7-30.2,10.7-47.9C160.2,52.4,138.3,20,128.7,7.6z"/>
			<path class="st9" d="M161.2,96.8c-0.7-0.7-1.4-1.2-2-1.7l-9.4,39.1c1.2,0.3,2.3,0.8,3.3,1.4C157.5,123.9,160.7,110.7,161.2,96.8z
				"/>
			<path class="st12" d="M127.3,5.8c-0.1-0.1-0.2-0.2-0.3-0.3c15.9,21.5,45.1,89.6,5.3,137.3h10.5c2.6,0,5.7-1.9,6.8-4.4
				c6-13.8,10.7-30.2,10.7-47.9C160.2,50.5,136,16.7,127.3,5.8z"/>
			<g>
				<g>
					<path class="st0" d="M124.1,80.8c-8.8,0-15.9-7.1-15.9-15.9c0-8.8,7.1-15.9,15.9-15.9c8.8,0,15.9,7.1,15.9,15.9
						C140,73.6,132.9,80.8,124.1,80.8z"/>
				</g>
			</g>
			<path class="st13" d="M127.3,51.8c-1-0.2-2.1-0.4-3.1-0.4c-1,0-1.9,0.1-2.8,0.3c-6.1,1.3-10.6,6.7-10.6,13.2
				c0,6.6,4.8,12.2,11.2,13.3c0.4,0.1,0.7,0.1,1.1,0.1c0.4,0,0.8,0.1,1.2,0.1c7.4,0,13.5-6,13.5-13.5
				C137.7,58.5,133.3,53.2,127.3,51.8z"/>
			<path class="st2" d="M120.2,122.1c-0.3-16.3,1.5-29.6,4-29.6c2.5,0,4.3,13.3,4,29.6c-0.3,16.3-2.1,29.5-4,29.5
				C122.3,151.6,120.5,138.4,120.2,122.1z"/>
			<path class="st14" d="M122.1,109c-0.2-6.5,0.8-11.7,2.1-11.7c1.3,0,2.2,5.2,2.1,11.7c-0.2,6.5-1.1,11.7-2.1,11.7
				C123.2,120.6,122.3,115.4,122.1,109z"/>
			<g>
				<path class="st15" d="M119.9,60.6c-1.7,1.6-2.7,4.1-4.2,4.2c-1.5,0.3-3.1-4.3,0.4-8c3.5-3.6,8-2.3,7.7-0.8
					C123.6,57.6,121.4,58.8,119.9,60.6z"/>
			</g>
		</g>
		<path class="st0" d="M189,101.9c0.2-8.7-0.9-11.7-2.9-13.9c-2.2-2-5.2-3.1-13.9-2.9c8.7,0.2,11.7-0.9,13.9-2.9
			c2-2.2,3.1-5.2,2.9-13.9c-0.2,8.7,0.9,11.7,2.9,13.9c2.2,2,5.2,3.1,13.9,2.9c-8.7-0.2-11.7,0.9-13.9,2.9
			C189.9,90.2,188.8,93.2,189,101.9z"/>
		<path class="st1" d="M51.1,39.5c0.2-8.7-0.9-11.7-2.9-13.9c-2.2-2-5.2-3.1-13.9-2.9c8.7,0.2,11.7-0.9,13.9-2.9
			c2-2.2,3.1-5.2,2.9-13.9C50.9,14.7,52,17.7,54,19.9c2.2,2,5.2,3.1,13.9,2.9c-8.7-0.2-11.7,0.9-13.9,2.9
			C52,27.8,50.9,30.8,51.1,39.5z"/>
		<circle class="st0" cx="50.4" cy="108.9" r="5.6"/>
		<circle class="st0" cx="176.3" cy="161.2" r="5.6"/>
	</g>
</g>
</svg>
