<?xml version="1.0" encoding="utf-8"?>
<!-- Generator: Adobe Illustrator 19.0.0, SVG Export Plug-In . SVG Version: 6.00 Build 0)  -->
<svg version="1.1" id="Layer_1" xmlns="http://www.w3.org/2000/svg" xmlns:xlink="http://www.w3.org/1999/xlink" x="0px" y="0px"
	 viewBox="410 -60 150 150" style="enable-background:new 410 -60 150 150;" xml:space="preserve">
<style type="text/css">
	.st0{fill:none;stroke:#F5825E;stroke-width:4;stroke-miterlimit:10;}
</style>
<g id="XMLID_1614_">
	<path id="XMLID_2663_" class="st0" d="M485.8,58c-23.5-0.5-43.5-8.2-59.3-25.3c-4.3-4.7-7.6-10.3-11.3-15.6
		c-0.4-0.5-0.3-1.8,0.1-2.4C428.1-8,447.6-21.2,473.2-25c23.5-3.5,44.7,2.3,63.4,17.1c7.8,6.2,13.8,14,18.6,22.7
		c0.3,0.6,0.3,1.8-0.1,2.4C543,39,524.4,51.9,500,56.6c-1.6,0.3-3.3,0.7-4.9,0.8C491.8,57.7,488.6,57.8,485.8,58z M471-7.7
		c-0.5,0-0.8-0.1-1,0c-14.2,3.5-26,10.7-35.1,22.4c-1,1.3-0.4,2,0.3,2.9c6.2,8,14,14.1,23.3,18c4,1.7,8.1,3,12.2,4.4
		c0.1-0.2,0.1-0.4,0.2-0.5C453.8,28.8,453.4,3.6,471-7.7z M499.3,39.6c0.7,0,1.1,0.1,1.5,0c13.9-3.5,25.6-10.6,34.6-22
		c1-1.3,0.9-2.1,0-3.3c-7.1-8.9-16-15.4-26.6-19.4c-2.9-1.1-5.9-1.9-8.9-2.8c-0.1,0.2-0.2,0.3-0.3,0.5c8.3,5.6,13,13.2,13.1,23.4
		C512.6,26.1,507.8,33.8,499.3,39.6z M482.1,5c0-3.6-2.9-6.4-6.5-6.4c-3.7,0-6.6,2.9-6.5,6.6c0.1,3.6,3,6.5,6.5,6.5
		C479.3,11.7,482.2,8.8,482.1,5z"/>
</g>
</svg>
