<?xml version="1.0" encoding="utf-8"?>
<!-- Generator: Adobe Illustrator 19.1.0, SVG Export Plug-In . SVG Version: 6.00 Build 0)  -->
<svg version="1.1" id="Layer_1" xmlns="http://www.w3.org/2000/svg" xmlns:xlink="http://www.w3.org/1999/xlink" x="0px" y="0px"
	 viewBox="-417 218 125 125" style="enable-background:new -417 218 125 125;" xml:space="preserve">
<style type="text/css">
	.st0{fill:none;stroke:#7B7B7B;stroke-width:2;stroke-miterlimit:10;}
</style>
<g id="XMLID_1614_">
	<path id="XMLID_2663_" class="st0" d="M-353.9,316.4c-20.1-0.4-37.2-7-50.7-21.6c-3.7-4-6.5-8.8-9.7-13.3c-0.3-0.4-0.3-1.5,0.1-2.1
		c10.9-19.4,27.6-30.7,49.5-34c20.1-3,38.2,2,54.2,14.6c6.7,5.3,11.8,12,15.9,19.4c0.3,0.5,0.3,1.5-0.1,2.1
		c-10.3,18.6-26.3,29.7-47.1,33.7c-1.4,0.3-2.8,0.6-4.2,0.7C-348.7,316.2-351.5,316.2-353.9,316.4z M-366.5,260.2
		c-0.4,0-0.7-0.1-0.9,0c-12.1,3-22.2,9.2-30,19.2c-0.9,1.1-0.3,1.7,0.3,2.5c5.3,6.8,12,12.1,19.9,15.4c3.4,1.5,6.9,2.6,10.4,3.8
		c0.1-0.2,0.1-0.3,0.2-0.4C-381.2,291.4-381.6,269.9-366.5,260.2z M-342.3,300.7c0.6,0,0.9,0.1,1.3,0c11.9-3,21.9-9.1,29.6-18.8
		c0.9-1.1,0.8-1.8,0-2.8c-6.1-7.6-13.7-13.2-22.7-16.6c-2.5-0.9-5-1.6-7.6-2.4c-0.1,0.2-0.2,0.3-0.3,0.4c7.1,4.8,11.1,11.3,11.2,20
		C-330.9,289.1-335.1,295.7-342.3,300.7z M-357,271.1c0-3.1-2.5-5.5-5.6-5.5c-3.2,0-5.6,2.5-5.6,5.6c0.1,3.1,2.6,5.6,5.6,5.6
		C-359.4,276.8-356.9,274.3-357,271.1z"/>
</g>
</svg>
