<?xml version="1.0" encoding="utf-8"?>
<!-- Generator: Adobe Illustrator 19.1.0, SVG Export Plug-In . SVG Version: 6.00 Build 0)  -->
<svg version="1.1" id="Layer_1" xmlns="http://www.w3.org/2000/svg" xmlns:xlink="http://www.w3.org/1999/xlink" x="0px" y="0px"
	 viewBox="0 0 150 38.3" style="enable-background:new 0 0 150 38.3;" xml:space="preserve">
<style type="text/css">
	.st0{fill:#3A3A3A;}
	.st1{fill-rule:evenodd;clip-rule:evenodd;fill:#4ABEBF;}
</style>
<g>
	<g>
		<path class="st0" d="M42.5,32.9h-4c-1.9,0-3.4-0.5-4.5-1.5c-1-1-1.6-2.5-1.6-4.4V15.3c0-1.9,0.5-3.4,1.6-4.4c1-1,2.5-1.5,4.5-1.5
			h4c1.9,0,3.4,0.5,4.4,1.6c1.1,1,1.6,2.5,1.6,4.4V17c0,0.5-0.3,0.8-0.8,0.8h-3.1c-0.5,0-0.8-0.3-0.8-0.8v-1.5
			c0-0.8-0.2-1.3-0.5-1.7c-0.3-0.3-0.9-0.5-1.7-0.5h-2.5c-0.8,0-1.3,0.2-1.6,0.5c-0.3,0.3-0.5,0.9-0.5,1.7v11.2
			c0,0.8,0.2,1.3,0.5,1.7c0.3,0.3,0.9,0.5,1.6,0.5h2.5c0.8,0,1.3-0.2,1.7-0.5c0.3-0.3,0.5-0.9,0.5-1.7v-1.5c0-0.5,0.3-0.8,0.8-0.8
			h3.1c0.5,0,0.8,0.3,0.8,0.8v1.7c0,1.9-0.5,3.4-1.6,4.4C45.9,32.4,44.4,32.9,42.5,32.9z"/>
		<path class="st0" d="M61.1,32.9h-3.3c-1.9,0-3.4-0.5-4.5-1.5c-1.1-1-1.6-2.5-1.6-4.4v-6.7c0-1.9,0.5-3.4,1.6-4.4
			c1-1,2.5-1.5,4.5-1.5h3.3c1.9,0,3.4,0.5,4.4,1.6c1.1,1,1.6,2.5,1.6,4.4v6.7c0,1.9-0.5,3.4-1.6,4.4C64.4,32.4,63,32.9,61.1,32.9z
			 M58.5,28.9h1.9c0.8,0,1.3-0.2,1.7-0.5c0.3-0.3,0.5-0.9,0.5-1.6v-6.4c0-0.8-0.2-1.3-0.5-1.6c-0.3-0.3-0.9-0.5-1.7-0.5h-1.9
			c-0.8,0-1.3,0.2-1.6,0.5c-0.3,0.3-0.5,0.9-0.5,1.6v6.4c0,0.8,0.2,1.3,0.5,1.6C57.2,28.7,57.7,28.9,58.5,28.9z"/>
		<path class="st0" d="M74.6,32.9h-3.1c-0.5,0-0.8-0.3-0.8-0.8V15c0-0.5,0.3-0.8,0.8-0.8h3.1c0.5,0,0.8,0.3,0.8,0.8v1.2h0.1
			c0.5-1.3,1.7-2,3.6-2h1.2c3.8,0,5.7,2,5.7,6v11.9c0,0.5-0.3,0.8-0.8,0.8h-3.1c-0.5,0-0.8-0.3-0.8-0.8V20.4c0-0.8-0.2-1.3-0.5-1.7
			c-0.3-0.3-0.9-0.5-1.7-0.5h-1.3c-1.7,0-2.5,0.9-2.5,2.8v11.1C75.4,32.6,75.1,32.9,74.6,32.9z"/>
		<path class="st0" d="M89.1,14.2h3.2c0.5,0,0.8,0.3,0.9,0.8l3.1,13.8h0.3L99.7,15c0.1-0.5,0.4-0.8,0.9-0.8h3.2
			c0.5,0,0.7,0.3,0.5,0.8l-4.6,17.1c-0.1,0.5-0.4,0.8-1,0.8h-4.6c-0.5,0-0.8-0.3-1-0.8L88.5,15C88.4,14.5,88.6,14.2,89.1,14.2z"/>
		<path class="st0" d="M120.8,32.9h-8.1c-1.9,0-3.4-0.5-4.5-1.5c-1.1-1-1.6-2.5-1.6-4.4v-6.7c0-1.9,0.5-3.4,1.6-4.4
			c1-1,2.5-1.5,4.5-1.5h2.9c1.9,0,3.4,0.5,4.5,1.5c1,1,1.6,2.5,1.6,4.4v4.6c0,0.5-0.3,0.8-0.8,0.8h-9.2c-0.3,0-0.4,0.1-0.4,0.4v0.8
			c0,0.8,0.2,1.3,0.5,1.6c0.3,0.3,0.9,0.5,1.7,0.5h7.4c0.5,0,0.8,0.3,0.8,0.8v2.4c0,0.3-0.1,0.5-0.2,0.6
			C121.3,32.8,121.1,32.9,120.8,32.9z M111.7,22.5h5c0.3,0,0.4-0.1,0.4-0.4v-1.8c0-0.8-0.2-1.3-0.5-1.6c-0.3-0.3-0.9-0.5-1.6-0.5
			h-1.5c-0.8,0-1.3,0.2-1.6,0.5c-0.3,0.3-0.5,0.9-0.5,1.6v1.8C111.3,22.3,111.4,22.5,111.7,22.5z"/>
		<path class="st0" d="M129,32.9h-3.1c-0.5,0-0.8-0.3-0.8-0.8V15c0-0.5,0.3-0.8,0.8-0.8h3.1c0.5,0,0.8,0.3,0.8,0.8v1.2h0.1
			c0.3-0.7,0.7-1.2,1.4-1.5c0.7-0.3,1.4-0.5,2.2-0.5h1.3c0.5,0,0.7,0.3,0.7,0.8v2.5c0,0.3-0.1,0.5-0.2,0.6c-0.1,0.1-0.3,0.2-0.6,0.1
			h-2.5c-1.7,0-2.5,1-2.5,2.9v11C129.7,32.6,129.5,32.9,129,32.9z"/>
		<path class="st0" d="M138.3,18.2h-1.5c-0.3,0-0.5,0-0.6-0.1c-0.1-0.1-0.2-0.3-0.2-0.6V15c0-0.5,0.3-0.8,0.8-0.8h1.5
			c0.3,0,0.4-0.1,0.4-0.4v-3.5c0-0.5,0.3-0.8,0.8-0.8h3.1c0.5,0,0.8,0.3,0.8,0.8v3.5c0,0.3,0.1,0.4,0.4,0.4h2.9
			c0.5,0,0.8,0.3,0.8,0.8v2.5c0,0.3-0.1,0.5-0.2,0.6c-0.1,0.1-0.3,0.2-0.6,0.2h-2.9c-0.3,0-0.4,0.1-0.4,0.4v8.1
			c0,0.8,0.2,1.3,0.5,1.6c0.3,0.3,0.9,0.5,1.7,0.5h1.5c0.5,0,0.8,0.3,0.8,0.8v2.5c0,0.3-0.1,0.5-0.2,0.6c-0.1,0.1-0.3,0.2-0.6,0.2
			h-2.2c-1.9,0-3.4-0.5-4.5-1.5c-1.1-1-1.6-2.5-1.6-4.4v-8.3C138.7,18.4,138.5,18.2,138.3,18.2z"/>
	</g>
	<path class="st1" d="M26.6,9.3c-5.3,0-10.5,0-15.8,0c-0.2,0-0.3,0-0.6,0c0.1,0.2,0.1,0.3,0.2,0.4c1.9,4,3.7,7.9,5.6,11.9
		c0.1,0.2,0.3,0.3,0.5,0.4c0.2-0.2,0.4-0.3,0.4-0.5c0.7-2,1.4-4,2.1-6.1c0.1-0.4,0.3-0.5,0.7-0.5c1.7,0,3.4,0,5.1,0
		c0.6,0,0.7,0.2,0.4,0.7c-2.4,5.5-4.8,10.9-7.2,16.4c-0.1,0.3-0.3,0.4-0.6,0.4c-0.5,0-1,0-1.5,0c-0.4,0-0.7-0.2-0.8-0.5
		c-0.9-1.9-1.9-3.8-2.8-5.8c-2.4-4.8-4.8-9.6-7.2-14.4c-0.3-0.7-0.7-1.3-1-2c0,0-0.1,0-0.1,0c0,2.2,0,4.4,0,6.6c0,0,0,0,0,0v5.7
		c0,0,0,0,0,0c0,1.7,0,3.4,0,5.1c0,0,0,0,0,0v4.1c0,0,0,0,0,0c0,0.2,0,0.4,0,0.5c0,0.9,0.1,0.9,0.9,0.9c7.2,0,14.5,0,21.7,0
		c0.8,0,0.8,0,0.8-0.8c0-7.3,0-14.6,0-21.8C27.4,9.3,27.4,9.3,26.6,9.3z"/>
</g>
</svg>
