<?xml version="1.0" encoding="utf-8"?>
<!-- Generator: Adobe Illustrator 19.1.0, SVG Export Plug-In . SVG Version: 6.00 Build 0)  -->
<svg version="1.1" id="Layer_1" xmlns="http://www.w3.org/2000/svg" xmlns:xlink="http://www.w3.org/1999/xlink" x="0px" y="0px"
	 viewBox="0 0 356 90" style="enable-background:new 0 0 356 90;" xml:space="preserve">
<style type="text/css">
	.st0{fill:#FFFFFF;}
	.st1{fill:#7B7B7B;}
	.st2{fill:#A3BB37;}
	.st3{fill:#4BBFC0;}
	.st4{fill:#F8835E;}
	.st5{fill:#202020;}
</style>
<g id="XMLID_42_">
	<path id="XMLID_43_" class="st4" d="M0.1,2.6c0.1,0.3,0.3,0.5,0.4,0.7c4.3,8.6,8.6,17.2,12.9,25.8c4.8,9.6,9.5,19.1,14.3,28.7
		c2.7,5.4,5.4,10.8,8.1,16.3c0.4,0.8,0.9,1.1,1.7,1.1c2-0.1,4,0,6,0c0.8,0,1.3-0.3,1.6-1c3-6.9,6-13.8,9.1-20.7
		c3.4-7.7,6.7-15.4,10.1-23.1c1.4-3.1,2.8-6.3,4.1-9.4c0.5-1.2,0-2-1.3-2c-5.7,0-11.4,0-17.1,0c-1,0-1.3,0.2-1.6,1.1
		c-2.3,6.9-4.7,13.7-7,20.6c-0.2,0.6-0.5,1.1-1.2,1.1c-0.7,0-1-0.4-1.3-0.9c-4.2-8.9-8.4-17.7-12.5-26.6c-2-4.2-3.9-8.3-5.9-12.5
		c-0.1-0.2-0.2-0.4-0.4-0.7C20.3,0.9,20.5,1,20.7,1c17.6,0,35.1,0,52.7,0C74.7,1,75,1.3,75,2.6c0,23.9,0,47.9,0,71.8
		c0,1.3-0.4,1.6-1.6,1.6c-23.9,0-47.9,0-71.8,0C0.3,76,0,75.7,0,74.4C0,50.8,0,27.1,0,3.4C0,3.1-0.1,2.9,0.1,2.6z"/>
</g>
<path class="st5" d="M88.3,75V1h38.4v11.4H98.1v19.1h28v11.4h-28v20.6h28.6V75H88.3z"/>
<path class="st5" d="M158.2,74.1V49.7c0-6.1-3.2-8.1-7.9-8.1c-4.3,0-8,2.6-10,5.2v27.4h-8.5V35h8.5v5.3c2.6-3.1,7.7-6.2,13.8-6.2
	c8.4,0,12.6,4.5,12.6,12.5v27.5H158.2z"/>
<path class="st5" d="M177.3,84.2l4-6.1c3.2,3.6,7.3,5,12.5,5c5.6,0,11.6-2.6,11.6-10.9v-4.4c-3,4-7.4,6.6-12.5,6.6
	c-10,0-17.3-7.2-17.3-20.1c0-12.7,7.2-20.1,17.3-20.1c4.9,0,9.4,2.2,12.5,6.4V35h8.5v37.1c0,14.1-10.5,17.9-20.1,17.9
	C187.1,90,182.1,88.5,177.3,84.2z M205.3,61.4V46.8c-1.9-2.8-6.1-5.2-10-5.2c-6.8,0-11.1,5-11.1,12.5c0,7.5,4.3,12.5,11.1,12.5
	C199.2,66.6,203.3,64.3,205.3,61.4z"/>
<path class="st5" d="M248.8,74.1v-4.3c-2.9,3.4-7.5,5.3-12.7,5.3c-6.3,0-13.5-4.4-13.5-12.9c0-9.1,7.1-12.8,13.5-12.8
	c5.3,0,9.8,1.7,12.7,5v-5.8c0-4.5-3.8-7.3-9.1-7.3c-4.4,0-8.3,1.6-11.6,5l-3.6-5.9c4.5-4.4,10.2-6.3,16.4-6.3
	c8.7,0,16.3,3.6,16.3,14.1v26H248.8z M248.8,65.2v-6c-2-2.7-5.7-4-9.3-4c-4.8,0-8.4,2.8-8.4,7c0,4.3,3.6,7,8.4,7
	C243.1,69.3,246.7,67.9,248.8,65.2z"/>
<path class="st5" d="M267.8,84.2l4-6.1c3.2,3.6,7.3,5,12.5,5c5.6,0,11.6-2.6,11.6-10.9v-4.4c-3,4-7.4,6.6-12.5,6.6
	c-10,0-17.3-7.2-17.3-20.1c0-12.7,7.2-20.1,17.3-20.1c4.9,0,9.4,2.2,12.5,6.4V35h8.5v37.1c0,14.1-10.5,17.9-20.1,17.9
	C277.6,90,272.6,88.5,267.8,84.2z M295.8,61.4V46.8c-1.9-2.8-6.1-5.2-10-5.2c-6.8,0-11.1,5-11.1,12.5c0,7.5,4.3,12.5,11.1,12.5
	C289.7,66.6,293.9,64.3,295.8,61.4z"/>
<path class="st5" d="M313,54.6c0-11.3,8.3-20.5,19.8-20.5c11.7,0,19.2,8.9,19.2,21.2v2.1h-30.1c0.6,5.8,5,10.8,12.4,10.8
	c3.9,0,8.3-1.5,11.2-4.4l3.9,5.6c-4,3.7-9.7,5.7-15.9,5.7C321.6,75.1,313,66.9,313,54.6z M332.7,41c-7.2,0-10.6,5.6-10.9,10.3h22
	C343.6,46.7,340.4,41,332.7,41z"/>
</svg>
