<?xml version="1.0" encoding="utf-8"?>
<!-- Generator: Adobe Illustrator 19.1.0, SVG Export Plug-In . SVG Version: 6.00 Build 0)  -->
<svg version="1.1" id="Layer_1" xmlns="http://www.w3.org/2000/svg" xmlns:xlink="http://www.w3.org/1999/xlink" x="0px" y="0px"
	 viewBox="0 0 362.2 75" style="enable-background:new 0 0 362.2 75;" xml:space="preserve">
<style type="text/css">
	.st0{fill:#FFFFFF;}
	.st1{fill:#7B7B7B;}
	.st2{fill:#A3BB37;}
	.st3{fill:#4BBFC0;}
	.st4{fill:#F8835E;}
	.st5{fill:#202020;}
</style>
<g id="XMLID_52_">
	<path id="XMLID_57_" class="st3" d="M0.1,1.6c0.1,0.3,0.3,0.5,0.4,0.7c4.3,8.6,8.6,17.2,12.9,25.8c4.8,9.6,9.5,19.1,14.3,28.7
		c2.7,5.4,5.4,10.8,8.1,16.3c0.4,0.8,0.9,1.1,1.7,1.1c2-0.1,4,0,6,0c0.8,0,1.3-0.3,1.6-1c3-6.9,6-13.8,9.1-20.7
		c3.4-7.7,6.7-15.4,10.1-23.1c1.4-3.1,2.8-6.3,4.1-9.4c0.5-1.2,0-2-1.3-2c-5.7,0-11.4,0-17.1,0c-1,0-1.3,0.2-1.6,1.1
		c-2.3,6.9-4.7,13.7-7,20.6c-0.2,0.6-0.5,1.1-1.2,1.1c-0.7,0-1-0.4-1.3-0.9c-4.2-8.9-8.4-17.7-12.5-26.6c-2-4.2-3.9-8.3-5.9-12.5
		c-0.1-0.2-0.2-0.4-0.4-0.7C20.3-0.1,20.5,0,20.7,0c17.6,0,35.1,0,52.7,0C74.7,0,75,0.3,75,1.6c0,23.9,0,47.9,0,71.8
		c0,1.3-0.4,1.6-1.6,1.6c-23.9,0-47.9,0-71.8,0C0.3,75,0,74.7,0,73.4C0,49.8,0,26.1,0,2.4C0,2.1-0.1,1.9,0.1,1.6z"/>
</g>
<path class="st1" d="M78.7,37.5C78.7,15.1,94.6,0,115.1,0c13.9,0,22.7,7.5,27.7,16.2l-10.3,5.7c-3.3-6.1-10.1-10.5-17.5-10.5
	c-13.7,0-23.9,10.9-23.9,26.2c0,15.1,10.2,26.2,23.9,26.2c7.4,0,14.1-4.6,17.5-10.5l10.4,5.4C137.6,67.3,129,75,115.1,75
	C94.6,75,78.7,59.8,78.7,37.5z"/>
<path class="st1" d="M146.2,55.9c0-10.4,7.1-19,18.6-19c11.6,0,18.6,8.6,18.6,19c0,10.4-7.1,19.1-18.6,19.1
	C153.2,75,146.2,66.3,146.2,55.9z M175.2,55.9c0-6.4-3.7-12-10.4-12c-6.7,0-10.4,5.6-10.4,12c0,6.5,3.8,12.1,10.4,12.1
	C171.6,68,175.2,62.4,175.2,55.9z"/>
<path class="st1" d="M216,74.1V51.4c0-5.7-2.9-7.5-7.4-7.5c-4,0-7.4,2.4-9.3,4.8v25.4h-7.9V37.8h7.9v4.9c2.4-2.9,7.1-5.8,12.8-5.8
	c7.8,0,11.7,4.2,11.7,11.6v25.5H216z"/>
<path class="st1" d="M243.6,74.1l-14.8-36.3h8.5L247.9,65l10.6-27.2h8.4l-14.8,36.3H243.6z"/>
<path class="st1" d="M269.7,55.9c0-10.5,7.7-19,18.4-19c10.9,0,17.8,8.3,17.8,19.7v2h-27.9c0.6,5.4,4.7,10,11.5,10
	c3.6,0,7.7-1.4,10.4-4.1l3.6,5.2c-3.7,3.5-9,5.3-14.7,5.3C277.7,75,269.7,67.4,269.7,55.9z M288,43.4c-6.7,0-9.8,5.2-10.1,9.5h20.4
	C298,48.7,295.1,43.4,288,43.4z"/>
<path class="st1" d="M313.6,74.1V37.8h7.9v5.3c2.8-3.5,7.1-6.2,11.8-6.2v7.8c-0.7-0.1-1.4-0.2-2.4-0.2c-3.4,0-7.8,2.3-9.4,4.9v24.7
	H313.6z"/>
<path class="st1" d="M341.3,65.6V44.7h-6v-6.8h6v-9.9h7.9v9.9h7.4v6.8h-7.4v19c0,2.5,1.2,4.4,3.5,4.4c1.5,0,2.9-0.7,3.5-1.4l1.9,6
	c-1.4,1.3-3.8,2.3-7.4,2.3C344.5,75,341.3,71.7,341.3,65.6z"/>
</svg>
