<?xml version="1.0" encoding="utf-8"?>
<!-- Generator: Adobe Illustrator 19.1.0, SVG Export Plug-In . SVG Version: 6.00 Build 0)  -->
<svg version="1.1" id="Layer_1" xmlns="http://www.w3.org/2000/svg" xmlns:xlink="http://www.w3.org/1999/xlink" x="0px" y="0px"
	 viewBox="0 0 322.4 75.1" style="enable-background:new 0 0 322.4 75.1;" xml:space="preserve">
<style type="text/css">
	.st0{fill:#FFFFFF;}
	.st1{fill:#7B7B7B;}
	.st2{fill:#A3BB37;}
	.st3{fill:#4BBFC0;}
	.st4{fill:#F8835E;}
	.st5{fill:#202020;}
</style>
<g id="XMLID_26_">
	<path id="XMLID_27_" class="st2" d="M0.1,1.6c0.1,0.3,0.3,0.5,0.4,0.7c4.3,8.6,8.6,17.2,12.9,25.8c4.8,9.6,9.5,19.1,14.3,28.7
		c2.7,5.4,5.4,10.8,8.1,16.3c0.4,0.8,0.9,1.1,1.7,1.1c2-0.1,4,0,6,0c0.8,0,1.3-0.3,1.6-1c3-6.9,6-13.8,9.1-20.7
		c3.4-7.7,6.7-15.4,10.1-23.1c1.4-3.1,2.8-6.3,4.1-9.4c0.5-1.2,0-2-1.3-2c-5.7,0-11.4,0-17.1,0c-1,0-1.3,0.2-1.6,1.1
		c-2.3,6.9-4.7,13.7-7,20.6c-0.2,0.6-0.5,1.1-1.2,1.1c-0.7,0-1-0.4-1.3-0.9c-4.2-8.9-8.4-17.7-12.5-26.6c-2-4.2-3.9-8.3-5.9-12.5
		c-0.1-0.2-0.2-0.4-0.4-0.7C20.3-0.1,20.5,0,20.7,0c17.6,0,35.1,0,52.7,0C74.7,0,75,0.3,75,1.6c0,23.9,0,47.9,0,71.8
		c0,1.3-0.4,1.6-1.6,1.6c-23.9,0-47.9,0-71.8,0C0.3,75,0,74.7,0,73.4C0,49.8,0,26.1,0,2.4C0,2.1-0.1,1.9,0.1,1.6z"/>
</g>
<path d="M124,75.1l-13.6-27.6H99.6v27.6H88.8V1h27.1c12.2,0,20.3,9.4,20.3,23.2c0,13.1-7.2,20.3-14.7,21.8l15.2,29.1H124z
	 M125.1,24.1c0-7.1-4.4-11.7-10.5-11.7H99.6V36h14.9C120.6,36,125.1,31.3,125.1,24.1z"/>
<path d="M139.6,53.8c0-12.3,9-22.2,21.5-22.2c12.7,0,20.8,9.7,20.8,23v2.3h-32.7c0.7,6.3,5.4,11.7,13.4,11.7c4.2,0,9.1-1.7,12.1-4.7
	l4.2,6.1c-4.3,4-10.5,6.2-17.2,6.2C149,76.1,139.6,67.2,139.6,53.8z M161.1,39.1c-7.8,0-11.5,6.1-11.9,11.2h23.9
	C172.8,45.3,169.4,39.1,161.1,39.1z"/>
<path d="M217.1,75.1v-4.7c-3.2,3.7-8.2,5.7-13.8,5.7c-6.9,0-14.7-4.7-14.7-14.1c0-9.8,7.7-13.9,14.7-13.9c5.8,0,10.6,1.8,13.8,5.4
	v-6.3c0-4.9-4.1-7.9-9.9-7.9c-4.7,0-9,1.8-12.6,5.4l-3.9-6.4c4.9-4.7,11.1-6.9,17.8-6.9c9.5,0,17.8,4,17.8,15.3v28.2H217.1z
	 M217.1,65.4v-6.5c-2.2-2.9-6.2-4.4-10.1-4.4c-5.2,0-9.1,3.1-9.1,7.6c0,4.7,4,7.6,9.1,7.6C211,69.8,214.9,68.3,217.1,65.4z"/>
<path d="M235.8,53.8c0-12.8,9.1-22.2,21.9-22.2c8.3,0,13.3,3.5,16.3,7.6l-6.1,5.5c-2.4-3.3-5.6-4.9-9.8-4.9
	c-7.6,0-12.8,5.8-12.8,14.1c0,8.3,5.2,14.1,12.8,14.1c4.1,0,7.4-1.8,9.8-5.1l6.1,5.7c-3,4-7.9,7.6-16.3,7.6
	C244.8,76.1,235.8,66.6,235.8,53.8z"/>
<path d="M310.8,75.1V48.4c0-6.7-3.3-8.6-8.5-8.6c-4.7,0-8.8,2.8-10.9,5.6v29.7h-9.2V16.5h9.2v21.9c2.8-3.3,8.3-6.8,14.9-6.8
	c9.1,0,13.7,4.7,13.7,13.4v30.1H310.8z"/>
</svg>
